<svg width="74" height="74" viewBox="0 0 74 74" fill="none" xmlns="http://www.w3.org/2000/svg">
<path d="M34.4019 69.5C35.5566 71.5 38.4434 71.5 39.5981 69.5L66.4449 23C67.5996 21 66.1562 18.5 63.8468 18.5H10.1532C7.84381 18.5 6.40044 21 7.55514 23L34.4019 69.5Z" fill="#239C9C"/>
<path d="M38.77 26L38.29 40.49H34.75L34.24 26H38.77ZM36.61 47.51C35.85 47.51 35.22 47.28 34.72 46.82C34.24 46.34 34 45.75 34 45.05C34 44.35 34.24 43.77 34.72 43.31C35.22 42.83 35.85 42.59 36.61 42.59C37.35 42.59 37.96 42.83 38.44 43.31C38.92 43.77 39.16 44.35 39.16 45.05C39.16 45.75 38.92 46.34 38.44 46.82C37.96 47.28 37.35 47.51 36.61 47.51Z" fill="white"/>
</svg>
