<svg width="71" height="71" viewBox="0 0 71 71" fill="none" xmlns="http://www.w3.org/2000/svg">
<g style="mix-blend-mode:multiply" opacity="0.7">
<circle cx="35.5" cy="35.5" r="35.5" fill="#01514B"/>
</g>
<path fill-rule="evenodd" clip-rule="evenodd" d="M25.7468 21.5963C25.7468 21.5962 25.7473 21.5967 25.748 21.5978L25.7468 21.5963ZM25.8243 21.7192L29.4374 27.4681C29.0008 27.882 28.5245 28.292 28.012 28.7332C27.5715 29.1125 27.1042 29.5148 26.6122 29.9625C25.3927 31.0723 25.1571 32.8571 25.9464 34.2461C30.1199 41.5911 35.8122 44.9333 38.3593 46.1333C39.8937 46.8562 41.5609 46.2857 42.489 45.1044L44.9892 41.9218C44.9908 41.9198 44.9906 41.9204 44.9897 41.921C44.9895 41.921 44.9913 41.92 44.9951 41.9194C44.9989 41.9187 45.0027 41.9188 45.0058 41.9193C45.008 41.9198 45.0112 41.9206 45.0164 41.9238C46.4733 42.823 48.5059 44.045 50.373 45.0795C50.0376 47.1039 49.2674 48.2832 48.4181 49.0042C47.5263 49.7613 46.373 50.1597 45.0867 50.3035C42.5184 50.5908 39.9111 49.8116 39.3328 49.6218C38.6948 49.2956 35.1964 47.4541 31.4589 44.47C27.605 41.393 23.7405 37.2921 22.2626 32.5888C21.1824 29.1515 21.5897 26.7327 22.4387 25.0643C23.2594 23.4513 24.5875 22.3566 25.8243 21.7192ZM24.5173 18.3167C26.22 17.5092 27.9806 18.3512 28.8007 19.656L32.5805 25.6702C33.3446 26.8861 33.397 28.6635 32.1547 29.881C31.6223 30.4029 30.8816 31.0442 30.1923 31.641C29.814 31.9687 29.4511 32.2828 29.1467 32.5565C32.7386 38.811 37.5408 41.7047 39.7249 42.7629L42.1562 39.668C43.3042 38.2068 45.3481 37.8653 46.9045 38.8259C48.3444 39.7146 50.3349 40.9106 52.1387 41.9093C53.3418 42.5754 54.2024 43.9639 53.9585 45.5317C53.5206 48.3473 52.3768 50.3982 50.7467 51.782C49.1439 53.1426 47.2346 53.7199 45.4856 53.9155C42.0453 54.3002 38.7549 53.2585 38.154 53.0573C38.0019 53.0063 37.8757 52.9526 37.7399 52.8836C37.0949 52.5559 33.2933 50.5737 29.2143 47.3169C25.1777 44.094 20.6253 39.432 18.8192 33.6846C17.4926 29.4628 17.885 26.0397 19.2242 23.4079C20.5399 20.8222 22.6706 19.1926 24.5173 18.3167Z" fill="#239C9C"/>
</svg>
