<svg width="309" height="64" viewBox="0 0 309 64" fill="none" xmlns="http://www.w3.org/2000/svg">
<g opacity="0.8" clip-path="url(#clip0_5171_520)">
<path d="M55.2018 49.1541C57.7429 49.1938 60.244 48.5187 62.4199 47.2057C64.5487 45.8964 66.3599 44.1305 67.7228 42.0357C69.192 39.7636 70.2872 37.2705 70.9665 34.6515C71.7175 31.82 72.0898 28.9014 72.0736 25.972C72.2467 22.4602 71.1284 19.0066 68.9296 16.2629C67.8233 15.0255 66.4529 14.0528 64.9199 13.4166C63.3868 12.7804 61.7303 12.497 60.073 12.5875C57.5544 12.5528 55.0753 13.2157 52.9101 14.5027C50.767 15.8128 48.9378 17.5778 47.5519 19.6727C46.0532 21.9505 44.9317 24.4552 44.2307 27.0902C43.4721 29.8975 43.0997 32.7952 43.1236 35.7032C42.9433 39.2417 44.0747 42.7224 46.3009 45.4787C48.3712 47.9364 51.3602 49.1541 55.2018 49.1541ZM52.9876 30.5775C53.2543 28.9934 53.6771 27.4396 54.2497 25.9388C54.7303 24.6225 55.4386 23.4009 56.3421 22.3298C56.6853 21.8818 57.1256 21.5176 57.6299 21.2645C58.1343 21.0114 58.6895 20.8759 59.2537 20.8684C59.8119 20.8401 60.3658 20.9801 60.8435 21.2702C61.3212 21.5604 61.7007 21.9874 61.9328 22.4958C62.541 23.8354 62.8254 25.2993 62.7631 26.7691C62.7498 28.2771 62.6053 29.781 62.3314 31.2639C62.0649 32.83 61.6306 34.3629 61.0361 35.8361C60.5388 37.1397 59.8114 38.3434 58.8884 39.3897C58.5284 39.8239 58.0789 40.1753 57.5707 40.4199C57.0625 40.6644 56.5075 40.7964 55.9436 40.8068C55.3971 40.8413 54.853 40.7082 54.3842 40.4253C53.9154 40.1424 53.544 39.7233 53.3198 39.2237C52.7612 37.9056 52.5004 36.4805 52.5559 35.05C52.5682 33.5499 52.7089 32.0536 52.9766 30.5775H52.9876Z" fill="#F2F2F2"/>
<path d="M93.0305 13.639H83.9525C83.9082 14.0376 83.8307 14.5911 83.72 15.2996C83.6093 16.0082 83.4986 16.7721 83.3879 17.5913C83.2771 18.3995 83.1553 19.2187 83.0225 20.038L82.6904 22.0639L78.1182 48.1023H87.794L91.3034 27.8871C91.5656 26.1269 92.2409 24.4539 93.274 23.0049C93.6472 22.4383 94.1526 21.9709 94.7467 21.643C95.3407 21.3152 96.0055 21.1366 96.6838 21.1229C97.1012 21.0664 97.5259 21.1302 97.9083 21.3067C98.2907 21.4832 98.6148 21.7651 98.8426 22.1193C99.2374 22.849 99.4321 23.6701 99.4072 24.4994C99.4027 24.9101 99.3769 25.3203 99.3297 25.7283C99.2966 26.1383 99.2337 26.5453 99.1415 26.9461L95.4218 48.0912H105.031L108.74 26.9461C109.068 25.4178 109.75 23.9881 110.733 22.7724C111.103 22.2749 111.581 21.8679 112.132 21.5821C112.682 21.2964 113.29 21.1394 113.91 21.1229C114.322 21.073 114.74 21.14 115.116 21.3162C115.491 21.4924 115.81 21.7706 116.035 22.1193C116.409 22.8557 116.592 23.6741 116.567 24.4994C116.569 25.3191 116.502 26.1375 116.368 26.9461L112.648 48.0912H122.224L125.911 26.9461C126.088 25.839 126.243 24.8316 126.365 23.7688C126.489 22.8254 126.556 21.8752 126.564 20.9236C126.559 19.926 126.429 18.9329 126.176 17.9677C125.917 16.997 125.469 16.0868 124.859 15.2886C124.218 14.4767 123.41 13.8121 122.49 13.3402C121.403 12.8049 120.202 12.5427 118.991 12.5763C116.785 12.5068 114.628 13.2338 112.914 14.6243C111.324 15.9485 110.036 17.5983 109.138 19.4623C109.014 18.5695 108.792 17.6932 108.474 16.8496C108.179 16.0273 107.72 15.2739 107.124 14.6354C106.498 13.9825 105.744 13.4662 104.909 13.1187C103.899 12.7185 102.818 12.5265 101.732 12.5541C99.7436 12.5039 97.7953 13.1196 96.1967 14.3033C94.6729 15.4588 93.4281 16.9419 92.5544 18.643H92.4216C92.5544 17.8127 92.6762 16.916 92.7869 15.9639C92.8976 15.0118 92.9862 14.259 93.0305 13.639Z" fill="#F2F2F2"/>
<path d="M143.845 44.1281H143.978C144.239 45.527 144.978 46.7914 146.07 47.7039C147.401 48.7364 149.061 49.2517 150.742 49.1542C153.036 49.1921 155.267 48.4066 157.03 46.9401C158.917 45.3435 160.461 43.3814 161.569 41.1722C162.829 38.7198 163.767 36.1151 164.359 33.4226C164.978 30.6942 165.298 27.9064 165.311 25.1086C165.326 23.4239 165.136 21.7436 164.747 20.1046C164.429 18.694 163.847 17.3566 163.031 16.1634C162.29 15.0869 161.303 14.2025 160.152 13.5839C158.901 12.9403 157.508 12.6206 156.1 12.654C154.412 12.6003 152.76 13.1497 151.44 14.2038C150.138 15.2921 149.046 16.609 148.218 18.0897H148.085L148.816 13.6614H139.671L133.029 52.1655H0.777832V54.8667H132.52L130.992 63.9669H140.402L141.985 54.8113H308.545V52.1101H142.483L143.845 44.1281ZM145.838 30.4114C146.126 28.8466 146.571 27.3147 147.166 25.8392C147.659 24.5437 148.374 23.3447 149.281 22.2966C149.621 21.864 150.052 21.5117 150.544 21.2648C151.036 21.018 151.576 20.8827 152.126 20.8685C152.69 20.8325 153.252 20.9634 153.743 21.245C154.233 21.5265 154.629 21.9461 154.883 22.4516C155.486 23.7379 155.771 25.1504 155.713 26.5698C155.698 28.0924 155.554 29.6109 155.281 31.1089C155.013 32.6926 154.579 34.2436 153.986 35.7365C153.464 37.0626 152.715 38.2877 151.772 39.3566C151.418 39.8003 150.971 40.1603 150.462 40.4111C149.952 40.6618 149.394 40.7969 148.827 40.8069C148.27 40.8346 147.718 40.6956 147.241 40.4077C146.763 40.1197 146.383 39.6959 146.148 39.1905C145.542 37.8502 145.258 36.3869 145.318 34.9172C145.35 33.4023 145.524 31.8938 145.838 30.4114Z" fill="#F2F2F2"/>
<path d="M183.002 34.7843L186.711 13.6392H177.046L173.393 34.8508C173.172 35.8889 173.01 36.9385 172.906 37.9948C172.801 38.9286 172.746 39.8672 172.74 40.8068C172.735 41.83 172.88 42.8482 173.172 43.8291C173.44 44.7963 173.887 45.7049 174.489 46.5082C175.11 47.3264 175.919 47.9833 176.847 48.4235C177.965 48.9435 179.19 49.1937 180.423 49.1541C182.386 49.2042 184.309 48.6006 185.892 47.4382C187.423 46.2625 188.658 44.7463 189.501 43.0099H189.7C189.567 43.8955 189.446 44.7923 189.335 45.7222C189.224 46.6522 189.125 47.4271 189.036 48.0471H198.114C198.158 47.6928 198.236 47.1614 198.346 46.4529L198.712 44.128C198.845 43.2977 198.978 42.4785 199.099 41.6814C199.221 40.8843 199.343 40.1979 199.431 39.6333L203.981 13.6392H194.317L190.796 33.8544C190.539 35.6087 189.871 37.2777 188.848 38.7255C188.473 39.2908 187.968 39.7572 187.374 40.0849C186.78 40.4126 186.116 40.5919 185.438 40.6076C185.022 40.6572 184.601 40.5915 184.22 40.4177C183.84 40.244 183.514 39.9688 183.279 39.6222C182.885 38.8881 182.691 38.0636 182.715 37.2309C182.716 36.8426 182.739 36.4546 182.781 36.0685C182.847 35.6478 182.947 35.1829 183.002 34.7843Z" fill="#F2F2F2"/>
<path d="M253.435 26.6362C251.347 26.6289 249.266 26.8704 247.235 27.3558C245.377 27.7946 243.624 28.5959 242.076 29.7138C240.569 30.8225 239.351 32.2766 238.522 33.954C237.591 35.9513 237.14 38.1388 237.205 40.3417C237.177 41.6459 237.402 42.9431 237.869 44.1612C238.257 45.1674 238.853 46.0804 239.618 46.8403C240.32 47.5319 241.156 48.0709 242.076 48.4234C242.949 48.7728 243.881 48.9531 244.822 48.9548C246.609 49.0361 248.376 48.5392 249.859 47.5377C251.159 46.5528 252.203 45.2694 252.903 43.7959H253.102C252.942 44.5271 252.82 45.2661 252.737 46.01C252.626 46.8957 252.549 47.6042 252.505 48.1356H260.586C260.598 47.7135 260.631 47.2922 260.686 46.8735C260.752 46.2978 260.83 45.6889 260.918 45.0468C261.007 44.4158 261.096 43.7627 261.184 43.0984C261.273 42.4342 261.361 41.8585 261.45 41.3714L263.664 28.7174C264.04 26.795 264.236 24.8419 264.251 22.8832C264.407 20.1481 263.507 17.4574 261.738 15.3661C260.055 13.5358 257.339 12.6206 253.59 12.6206C251.421 12.6301 249.278 13.0822 247.29 13.9491C245.285 14.7813 243.447 15.9704 241.866 17.4585L245.574 23.6139C246.462 22.8319 247.453 22.1762 248.519 21.6654C249.62 21.1177 250.833 20.8334 252.062 20.8351C254.276 20.8351 255.438 22.0308 255.438 24.411C255.403 25.1576 255.295 25.8991 255.117 26.6251L253.435 26.6362ZM253.966 34.585C253.784 35.4394 253.54 36.2793 253.235 37.098C252.96 37.9036 252.588 38.673 252.128 39.3897C251.692 40.0421 251.131 40.6026 250.479 41.0392C249.822 41.4703 249.05 41.6905 248.265 41.6702C247.912 41.6787 247.562 41.6121 247.238 41.4746C246.913 41.3372 246.622 41.1321 246.383 40.8732C245.828 40.2095 245.554 39.3555 245.619 38.4929C245.596 37.6179 245.79 36.7509 246.183 35.9688C246.549 35.2777 247.068 34.6794 247.7 34.2196C248.365 33.7443 249.117 33.4056 249.914 33.2233C250.759 33.0228 251.625 32.9225 252.494 32.9244H254.287L253.966 34.585Z" fill="#F2F2F2"/>
<path d="M277.093 48.1023L283.713 36.312L286.425 48.1023H296.167L290.997 30.5441L301.802 13.6501H291.462L285.639 24.2449L283.181 13.6501H273.572L278.609 30.0127L266.752 48.1023H277.093Z" fill="#F2F2F2"/>
<path d="M240.15 5.52422L240.913 1.18444H213.613L212.849 5.52422H42.7913C41.5871 3.90083 40.0366 2.56585 38.2523 1.61621C35.8695 0.46131 33.2368 -0.0827216 30.5914 0.0331037C27.3687 0.00250696 24.2068 0.910292 21.4912 2.64578C20.1608 3.48522 18.9216 4.46104 17.7936 5.5574H0.777832V8.25866H15.4022C15.0591 8.70149 14.7048 9.13328 14.3838 9.59825C12.3273 12.6528 10.7726 16.0164 9.77836 19.5619C8.69496 23.3299 8.15075 27.2323 8.162 31.153C8.13756 33.637 8.46557 36.112 9.13623 38.504C9.72714 40.5878 10.72 42.5359 12.0589 44.2386C13.3477 45.8343 14.9935 47.1048 16.8636 47.9473C18.9557 48.8638 21.2225 49.3133 23.506 49.2647C26.0538 49.3215 28.5804 48.7912 30.8903 47.7148C32.9239 46.7212 34.7733 45.3884 36.3592 43.7736L31.6098 36.2898C30.8405 37.0819 29.9866 37.7873 29.0636 38.3933C27.9371 39.1077 26.6217 39.4665 25.2885 39.4228C24.2999 39.4866 23.3136 39.2674 22.4451 38.791C21.5765 38.3146 20.8616 37.6006 20.3841 36.7327C19.2839 34.5976 18.7575 32.2133 18.8564 29.8134C18.8697 27.527 19.1257 25.2484 19.6202 23.016C20.0875 20.781 20.8313 18.6129 21.8344 16.5617C22.7175 14.7393 23.9341 13.0984 25.4213 11.7238C26.7038 10.4902 28.4134 9.80005 30.1928 9.79751C31.4 9.74492 32.5963 10.0449 33.6358 10.661C34.5445 11.2812 35.3013 12.0987 35.85 13.0523L40.2783 8.22548H212.373L212.085 9.86393H220.698L214.056 48.1023H224.13L230.773 9.86393H239.408L239.696 8.22548H308.567V5.52422H240.15Z" fill="#F2F2F2"/>
</g>
<defs>
<clipPath id="clip0_5171_520">
<rect width="307.767" height="64" fill="white" transform="translate(0.777832)"/>
</clipPath>
</defs>
</svg>
