<svg width="1500" height="300" viewBox="0 0 1500 300" fill="none" xmlns="http://www.w3.org/2000/svg">
<mask id="mask0_4687_2162" style="mask-type:alpha" maskUnits="userSpaceOnUse" x="0" y="0" width="1500" height="300">
<rect width="1500" height="300" fill="#E9F5F5"/>
</mask>
<g mask="url(#mask0_4687_2162)">
<rect width="1500" height="300" fill="#E9F5F5"/>
<path fill-rule="evenodd" clip-rule="evenodd" d="M1383.53 41.6674C1385.36 45.657 1388.62 48.8291 1392.68 50.5492L1393.39 50.8676C1394.92 51.5488 1396.72 51.065 1397.7 49.7082L1398.9 48.0446C1399.41 47.3333 1399.28 46.3442 1398.6 45.7932L1396.5 44.1003C1395.77 43.5112 1394.69 43.6484 1394.14 44.4022L1393.67 45.0337C1391.6 43.967 1389.91 42.2763 1388.84 40.2065L1389.47 39.7385C1390.23 39.1799 1390.36 38.1061 1389.77 37.3759L1388.08 35.2772C1387.53 34.5944 1386.54 34.4618 1385.83 34.9753L1384.16 36.1828C1382.79 37.1687 1382.31 38.9811 1383.01 40.5145L1383.53 41.665L1383.53 41.6674ZM1393.23 49.2491C1389.5 47.6677 1386.5 44.7492 1384.82 41.0783L1384.82 41.077L1384.3 39.929C1383.88 39.0089 1384.17 37.9215 1384.99 37.3299L1386.66 36.1224C1386.76 36.0491 1386.9 36.068 1386.98 36.1656L1388.67 38.2643C1388.76 38.3686 1388.74 38.522 1388.63 38.6018L1387.53 39.4185C1387.26 39.6169 1387.17 39.975 1387.3 40.2785C1388.57 43.0671 1390.81 45.3079 1393.6 46.5699C1393.9 46.7073 1394.26 46.6143 1394.46 46.3466L1395.27 45.2446C1395.35 45.1369 1395.51 45.1173 1395.61 45.2014L1397.71 46.8943C1397.81 46.9731 1397.83 47.1144 1397.75 47.216L1396.55 48.8796C1395.96 49.6937 1394.88 49.984 1393.97 49.5752L1393.25 49.2541L1393.23 49.2491Z" fill="#239C9C"/>
<path fill-rule="evenodd" clip-rule="evenodd" d="M1409.73 42.8646C1409.73 53.2832 1401.28 61.7291 1390.86 61.7291C1380.45 61.7291 1372 53.2832 1372 42.8646C1372 32.446 1380.45 24 1390.86 24C1401.28 24 1409.73 32.446 1409.73 42.8646ZM1408.01 42.8646C1408.01 52.336 1400.34 60.0142 1390.86 60.0142C1381.39 60.0142 1373.71 52.336 1373.71 42.8646C1373.71 33.3931 1381.39 25.715 1390.86 25.715C1400.34 25.715 1408.01 33.3931 1408.01 42.8646Z" fill="#239C9C"/>
<path fill-rule="evenodd" clip-rule="evenodd" d="M884.376 193.557C886.819 198.876 891.164 203.105 896.567 205.399L897.52 205.823C899.559 206.732 901.955 206.087 903.262 204.278L904.865 202.059C905.55 201.111 905.373 199.792 904.463 199.058L901.665 196.8C900.691 196.015 899.259 196.198 898.515 197.203L897.891 198.045C895.131 196.623 892.877 194.368 891.454 191.609L892.296 190.985C893.301 190.24 893.484 188.808 892.699 187.835L890.441 185.036C889.707 184.126 888.389 183.949 887.44 184.634L885.21 186.244C883.389 187.558 882.748 189.975 883.677 192.019L884.375 193.553L884.376 193.557ZM897.311 203.665C892.339 201.557 888.339 197.666 886.091 192.771L886.091 192.769L885.395 191.239C884.837 190.012 885.222 188.562 886.314 187.773L888.544 186.163C888.68 186.065 888.868 186.091 888.973 186.221L891.231 189.019C891.343 189.158 891.317 189.363 891.173 189.469L889.704 190.558C889.347 190.822 889.223 191.3 889.406 191.705C891.089 195.423 894.077 198.411 897.795 200.093C898.199 200.276 898.677 200.152 898.941 199.795L900.03 198.326C900.137 198.183 900.341 198.156 900.48 198.269L903.278 200.526C903.408 200.631 903.434 200.819 903.336 200.955L901.733 203.173C900.949 204.258 899.511 204.645 898.288 204.1L897.327 203.672L897.311 203.665Z" fill="#239C9C"/>
<path fill-rule="evenodd" clip-rule="evenodd" d="M919.306 195.153C919.306 209.044 908.044 220.306 894.153 220.306C880.261 220.306 869 209.044 869 195.153C869 181.261 880.261 170 894.153 170C908.044 170 919.306 181.261 919.306 195.153ZM917.019 195.153C917.019 207.781 906.781 218.019 894.153 218.019C881.524 218.019 871.287 207.781 871.287 195.153C871.287 182.524 881.524 172.287 894.153 172.287C906.781 172.287 917.019 182.524 917.019 195.153Z" fill="#239C9C"/>
<path fill-rule="evenodd" clip-rule="evenodd" d="M1045.63 224.88C1047.79 229.595 1051.65 233.343 1056.43 235.376L1057.28 235.753C1059.09 236.558 1061.21 235.986 1062.37 234.382L1063.79 232.416C1064.4 231.576 1064.24 230.407 1063.43 229.756L1060.95 227.755C1060.09 227.059 1058.82 227.221 1058.16 228.112L1057.61 228.858C1055.16 227.597 1053.16 225.599 1051.9 223.153L1052.65 222.6C1053.54 221.94 1053.7 220.671 1053.01 219.808L1051 217.328C1050.35 216.521 1049.19 216.364 1048.34 216.971L1046.37 218.398C1044.75 219.563 1044.19 221.705 1045.01 223.517L1045.63 224.877L1045.63 224.88ZM1057.09 233.84C1052.69 231.971 1049.14 228.522 1047.15 224.183L1047.15 224.182L1046.53 222.825C1046.04 221.738 1046.38 220.453 1047.35 219.754L1049.32 218.327C1049.44 218.24 1049.61 218.262 1049.7 218.377L1051.7 220.858C1051.8 220.981 1051.78 221.162 1051.65 221.257L1050.35 222.222C1050.03 222.456 1049.92 222.88 1050.09 223.238C1051.58 226.534 1054.23 229.182 1057.52 230.674C1057.88 230.836 1058.3 230.726 1058.54 230.41L1059.5 229.107C1059.6 228.98 1059.78 228.957 1059.9 229.056L1062.38 231.057C1062.5 231.15 1062.52 231.317 1062.43 231.437L1061.01 233.403C1060.32 234.365 1059.04 234.708 1057.96 234.225L1057.11 233.846L1057.09 233.84Z" fill="#239C9C"/>
<path fill-rule="evenodd" clip-rule="evenodd" d="M1076.59 226.294C1076.59 238.607 1066.61 248.589 1054.29 248.589C1041.98 248.589 1032 238.607 1032 226.294C1032 213.982 1041.98 204 1054.29 204C1066.61 204 1076.59 213.982 1076.59 226.294ZM1074.56 226.294C1074.56 237.488 1065.49 246.562 1054.29 246.562C1043.1 246.562 1034.03 237.488 1034.03 226.294C1034.03 215.101 1043.1 206.027 1054.29 206.027C1065.49 206.027 1074.56 215.101 1074.56 226.294Z" fill="#239C9C"/>
<g opacity="0.4">
<path fill-rule="evenodd" clip-rule="evenodd" d="M638.629 215.88C640.794 220.595 644.645 224.343 649.434 226.376L650.279 226.753C652.086 227.558 654.21 226.986 655.369 225.382L656.789 223.416C657.397 222.576 657.24 221.407 656.433 220.756L653.953 218.755C653.09 218.059 651.821 218.221 651.161 219.112L650.608 219.858C648.161 218.597 646.163 216.599 644.903 214.153L645.649 213.6C646.54 212.94 646.702 211.671 646.006 210.808L644.005 208.328C643.354 207.521 642.185 207.364 641.345 207.971L639.368 209.398C637.754 210.563 637.186 212.705 638.009 214.517L638.628 215.877L638.629 215.88ZM650.094 224.84C645.687 222.971 642.141 219.522 640.149 215.183L640.148 215.182L639.532 213.825C639.037 212.738 639.378 211.453 640.347 210.754L642.324 209.327C642.444 209.24 642.611 209.262 642.704 209.377L644.705 211.858C644.804 211.981 644.781 212.162 644.654 212.257L643.351 213.222C643.035 213.456 642.925 213.88 643.087 214.238C644.579 217.534 647.227 220.182 650.522 221.674C650.881 221.836 651.304 221.726 651.539 221.41L652.504 220.107C652.598 219.98 652.78 219.957 652.903 220.056L655.383 222.057C655.498 222.15 655.521 222.317 655.434 222.437L654.013 224.403C653.318 225.365 652.044 225.708 650.96 225.225L650.108 224.846L650.094 224.84Z" fill="#239C9C"/>
<path fill-rule="evenodd" clip-rule="evenodd" d="M669.589 217.294C669.589 229.607 659.607 239.589 647.294 239.589C634.982 239.589 625 229.607 625 217.294C625 204.982 634.982 195 647.294 195C659.607 195 669.589 204.982 669.589 217.294ZM667.562 217.294C667.562 228.488 658.488 237.562 647.294 237.562C636.101 237.562 627.027 228.488 627.027 217.294C627.027 206.101 636.101 197.027 647.294 197.027C658.488 197.027 667.562 206.101 667.562 217.294Z" fill="#239C9C"/>
</g>
<path fill-rule="evenodd" clip-rule="evenodd" d="M466.086 261.92C467.529 265.063 470.097 267.562 473.29 268.918L473.853 269.168C475.057 269.705 476.473 269.324 477.246 268.255L478.193 266.944C478.598 266.384 478.493 265.604 477.955 265.17L476.302 263.837C475.727 263.372 474.881 263.481 474.44 264.074L474.072 264.572C472.441 263.732 471.109 262.4 470.269 260.769L470.766 260.4C471.36 259.96 471.468 259.114 471.004 258.539L469.67 256.885C469.236 256.347 468.457 256.243 467.897 256.647L466.579 257.599C465.503 258.375 465.124 259.803 465.673 261.011L466.085 261.918L466.086 261.92ZM473.729 267.893C470.791 266.647 468.428 264.348 467.099 261.456L467.099 261.455L466.688 260.55C466.358 259.825 466.586 258.968 467.231 258.502L468.549 257.551C468.629 257.493 468.74 257.508 468.802 257.585L470.136 259.239C470.203 259.321 470.187 259.442 470.102 259.504L469.234 260.148C469.023 260.304 468.95 260.586 469.058 260.826C470.052 263.023 471.818 264.788 474.015 265.782C474.254 265.891 474.536 265.817 474.693 265.606L475.336 264.738C475.399 264.653 475.52 264.638 475.602 264.704L477.255 266.038C477.332 266.1 477.347 266.211 477.289 266.291L476.342 267.602C475.879 268.243 475.029 268.472 474.306 268.15L473.739 267.897L473.729 267.893Z" fill="#239C9C"/>
<path fill-rule="evenodd" clip-rule="evenodd" d="M486.726 262.863C486.726 271.072 480.072 277.726 471.863 277.726C463.654 277.726 457 271.072 457 262.863C457 254.654 463.654 248 471.863 248C480.072 248 486.726 254.654 486.726 262.863ZM485.375 262.863C485.375 270.325 479.325 276.375 471.863 276.375C464.401 276.375 458.351 270.325 458.351 262.863C458.351 255.401 464.401 249.351 471.863 249.351C479.325 249.351 485.375 255.401 485.375 262.863Z" fill="#239C9C"/>
<path fill-rule="evenodd" clip-rule="evenodd" d="M859.242 35.0306C860.074 36.8441 861.556 38.286 863.398 39.0678L863.723 39.2125C864.418 39.5222 865.235 39.3023 865.68 38.6855L866.227 37.9294C866.46 37.606 866.4 37.1564 866.09 36.906L865.136 36.1365C864.804 35.8687 864.316 35.9311 864.062 36.2737L863.849 36.5608C862.908 36.0759 862.14 35.3074 861.655 34.3666L861.942 34.1539C862.285 33.9 862.347 33.4119 862.079 33.08L861.31 32.126C861.059 31.8156 860.61 31.7554 860.286 31.9888L859.526 32.5376C858.905 32.9858 858.687 33.8096 859.004 34.5066L859.241 35.0295L859.242 35.0306ZM863.652 38.4769C861.956 37.758 860.593 36.4315 859.827 34.7628L859.826 34.7623L859.589 34.2404C859.399 33.8222 859.53 33.328 859.903 33.0591L860.663 32.5102C860.709 32.4769 860.773 32.4855 860.809 32.5298L861.579 33.4838C861.617 33.5312 861.608 33.6009 861.559 33.6372L861.058 34.0084C860.936 34.0986 860.894 34.2614 860.957 34.3993C861.53 35.6669 862.549 36.6854 863.816 37.2591C863.954 37.3215 864.117 37.2792 864.207 37.1576L864.578 36.6566C864.615 36.6077 864.684 36.5988 864.732 36.637L865.686 37.4065C865.73 37.4423 865.739 37.5065 865.705 37.5527L865.159 38.3089C864.892 38.6789 864.401 38.8109 863.984 38.6251L863.657 38.4791L863.652 38.4769Z" fill="#239C9C"/>
<path fill-rule="evenodd" clip-rule="evenodd" d="M871.15 35.5748C871.15 40.3105 867.311 44.1496 862.575 44.1496C857.839 44.1496 854 40.3105 854 35.5748C854 30.8391 857.839 27 862.575 27C867.311 27 871.15 30.8391 871.15 35.5748ZM870.37 35.5748C870.37 39.88 866.88 43.3701 862.575 43.3701C858.27 43.3701 854.78 39.88 854.78 35.5748C854.78 31.2696 858.27 27.7795 862.575 27.7795C866.88 27.7795 870.37 31.2696 870.37 35.5748Z" fill="#239C9C"/>
<path fill-rule="evenodd" clip-rule="evenodd" d="M801.242 76.0306C802.074 77.8441 803.556 79.286 805.398 80.0678L805.723 80.2125C806.418 80.5222 807.235 80.3023 807.68 79.6855L808.227 78.9294C808.46 78.606 808.4 78.1564 808.09 77.906L807.136 77.1365C806.804 76.8687 806.316 76.9311 806.062 77.2737L805.849 77.5608C804.908 77.0759 804.14 76.3074 803.655 75.3666L803.942 75.1539C804.285 74.9 804.347 74.4119 804.079 74.08L803.31 73.126C803.059 72.8156 802.61 72.7554 802.286 72.9888L801.526 73.5376C800.905 73.9858 800.687 74.8096 801.004 75.5066L801.241 76.0295L801.242 76.0306ZM805.652 79.4769C803.956 78.758 802.593 77.4315 801.827 75.7628L801.826 75.7623L801.589 75.2404C801.399 74.8222 801.53 74.328 801.903 74.0591L802.663 73.5102C802.709 73.4769 802.773 73.4855 802.809 73.5298L803.579 74.4838C803.617 74.5312 803.608 74.6009 803.559 74.6372L803.058 75.0084C802.936 75.0986 802.894 75.2614 802.957 75.3993C803.53 76.6669 804.549 77.6854 805.816 78.2591C805.954 78.3215 806.117 78.2792 806.207 78.1576L806.578 77.6566C806.615 77.6077 806.684 77.5988 806.732 77.637L807.686 78.4065C807.73 78.4423 807.739 78.5065 807.705 78.5527L807.159 79.3089C806.892 79.6789 806.401 79.8109 805.984 79.6251L805.657 79.4791L805.652 79.4769Z" fill="#239C9C"/>
<path fill-rule="evenodd" clip-rule="evenodd" d="M813.15 76.5748C813.15 81.3105 809.311 85.1496 804.575 85.1496C799.839 85.1496 796 81.3105 796 76.5748C796 71.8391 799.839 68 804.575 68C809.311 68 813.15 71.8391 813.15 76.5748ZM812.37 76.5748C812.37 80.88 808.88 84.3701 804.575 84.3701C800.27 84.3701 796.78 80.88 796.78 76.5748C796.78 72.2696 800.27 68.7795 804.575 68.7795C808.88 68.7795 812.37 72.2696 812.37 76.5748Z" fill="#239C9C"/>
<path fill-rule="evenodd" clip-rule="evenodd" d="M1247.16 123.9C1247.38 122.607 1248.65 121.545 1250.29 121.545C1251.93 121.545 1253.2 122.607 1253.42 123.9H1252.32C1252.11 123.9 1251.94 124.076 1251.94 124.293V127.958C1251.94 128.175 1252.11 128.351 1252.32 128.351H1253.41C1253.24 129.101 1252.59 129.66 1251.81 129.66H1251.23C1251.08 129.276 1250.72 129.005 1250.29 129.005C1249.73 129.005 1249.28 129.474 1249.28 130.052C1249.28 130.63 1249.73 131.099 1250.29 131.099C1250.72 131.099 1251.08 130.829 1251.23 130.445H1251.81C1253.02 130.445 1254.03 129.513 1254.19 128.303C1254.78 128.14 1255.22 127.579 1255.22 126.911V125.34C1255.22 124.674 1254.79 124.114 1254.19 123.95C1254 122.115 1252.28 120.759 1250.29 120.759C1248.31 120.759 1246.58 122.115 1246.39 123.95C1245.8 124.114 1245.36 124.674 1245.36 125.34V126.911C1245.36 127.706 1245.98 128.351 1246.75 128.351H1248.27C1248.48 128.351 1248.65 128.175 1248.65 127.958V124.293C1248.65 124.076 1248.48 123.9 1248.27 123.9H1247.16ZM1246.12 125.34C1246.12 124.979 1246.4 124.686 1246.75 124.686H1247.89V127.565H1246.75C1246.4 127.565 1246.12 127.272 1246.12 126.911V125.34ZM1253.83 124.686C1254.18 124.686 1254.46 124.979 1254.46 125.34V126.911C1254.46 127.272 1254.18 127.565 1253.83 127.565H1252.69V124.686H1253.83Z" fill="#239C9C"/>
<path fill-rule="evenodd" clip-rule="evenodd" d="M1266.58 125.864C1266.58 135.177 1259.29 142.728 1250.29 142.728C1241.29 142.728 1234 135.177 1234 125.864C1234 116.55 1241.29 109 1250.29 109C1259.29 109 1266.58 116.55 1266.58 125.864ZM1265.95 125.864C1265.95 134.812 1258.94 142.066 1250.29 142.066C1241.65 142.066 1234.64 134.812 1234.64 125.864C1234.64 116.915 1241.65 109.661 1250.29 109.661C1258.94 109.661 1265.95 116.915 1265.95 125.864Z" fill="#239C9C"/>
<path fill-rule="evenodd" clip-rule="evenodd" d="M666.33 8.0841C666.813 5.21286 669.647 2.85305 673.3 2.85305C676.953 2.85305 679.787 5.21286 680.27 8.0841H677.808C677.341 8.0841 676.963 8.47443 676.963 8.95594V17.0931C676.963 17.5746 677.341 17.965 677.808 17.965H680.246C679.864 19.6312 678.413 20.8711 676.681 20.8711H675.39C675.056 20.0191 674.246 19.418 673.3 19.418C672.055 19.418 671.046 20.4589 671.046 21.743C671.046 23.027 672.055 24.0679 673.3 24.0679C674.246 24.0679 675.056 23.4668 675.39 22.6148H676.681C679.385 22.6148 681.621 20.5461 681.983 17.859C683.31 17.4973 684.288 16.2506 684.288 14.7682V11.2809C684.288 9.80263 683.315 8.55875 681.994 8.19307C681.564 4.11965 677.725 1.10936 673.3 1.10936C668.875 1.10936 665.036 4.11965 664.606 8.19307C663.285 8.55875 662.312 9.80263 662.312 11.2809V14.7682C662.312 16.5337 663.7 17.965 665.411 17.965H668.792C669.259 17.965 669.637 17.5746 669.637 17.0931V8.95594C669.637 8.47443 669.259 8.0841 668.792 8.0841H666.33ZM664.003 11.2809C664.003 10.4783 664.633 9.82778 665.411 9.82778H667.947V16.2213H665.411C664.633 16.2213 664.003 15.5707 664.003 14.7682V11.2809ZM681.189 9.82778C681.967 9.82778 682.597 10.4783 682.597 11.2809V14.7682C682.597 15.5707 681.967 16.2213 681.189 16.2213H678.653V9.82778H681.189Z" fill="#239C9C"/>
<path fill-rule="evenodd" clip-rule="evenodd" d="M709.6 12.4433C709.6 33.1227 693.348 49.8866 673.3 49.8866C653.252 49.8866 637 33.1227 637 12.4433C637 -8.23606 653.252 -25 673.3 -25C693.348 -25 709.6 -8.23606 709.6 12.4433ZM708.176 12.4433C708.176 32.3117 692.562 48.4183 673.3 48.4183C654.038 48.4183 638.424 32.3117 638.424 12.4433C638.424 -7.4251 654.038 -23.5316 673.3 -23.5316C692.562 -23.5316 708.176 -7.4251 708.176 12.4433Z" fill="#239C9C"/>
<g opacity="0.4">
<path fill-rule="evenodd" clip-rule="evenodd" d="M722.24 115.89C722.442 114.685 723.624 113.694 725.149 113.694C726.673 113.694 727.856 114.685 728.058 115.89H727.03C726.835 115.89 726.677 116.054 726.677 116.256V119.673C726.677 119.875 726.835 120.039 727.03 120.039H728.047C727.888 120.738 727.283 121.259 726.56 121.259H726.021C725.882 120.901 725.544 120.649 725.149 120.649C724.629 120.649 724.208 121.086 724.208 121.625C724.208 122.164 724.629 122.601 725.149 122.601C725.544 122.601 725.882 122.349 726.021 121.991H726.56C727.688 121.991 728.622 121.122 728.772 119.994C729.326 119.842 729.734 119.319 729.734 118.697V117.232C729.734 116.612 729.328 116.09 728.777 115.936C728.598 114.226 726.995 112.962 725.149 112.962C723.302 112.962 721.7 114.226 721.521 115.936C720.969 116.09 720.563 116.612 720.563 117.232V118.697C720.563 119.438 721.142 120.039 721.857 120.039H723.268C723.462 120.039 723.62 119.875 723.62 119.673V116.256C723.62 116.054 723.462 115.89 723.268 115.89H722.24ZM721.269 117.232C721.269 116.895 721.532 116.622 721.857 116.622H722.915V119.307H721.857C721.532 119.307 721.269 119.034 721.269 118.697V117.232ZM728.441 116.622C728.766 116.622 729.029 116.895 729.029 117.232V118.697C729.029 119.034 728.766 119.307 728.441 119.307H727.383V116.622H728.441Z" fill="#239C9C"/>
<path fill-rule="evenodd" clip-rule="evenodd" d="M740.298 117.72C740.298 126.403 733.515 133.441 725.149 133.441C716.782 133.441 710 126.403 710 117.72C710 109.038 716.782 102 725.149 102C733.515 102 740.298 109.038 740.298 117.72ZM739.704 117.72C739.704 126.062 733.187 132.824 725.149 132.824C717.11 132.824 710.594 126.062 710.594 117.72C710.594 109.379 717.11 102.616 725.149 102.616C733.187 102.616 739.704 109.379 739.704 117.72Z" fill="#239C9C"/>
</g>
<path fill-rule="evenodd" clip-rule="evenodd" d="M1315.71 256.467C1316.01 254.604 1317.82 253.073 1320.15 253.073C1322.48 253.073 1324.29 254.604 1324.6 256.467H1323.03C1322.73 256.467 1322.49 256.72 1322.49 257.032V262.312C1322.49 262.625 1322.73 262.878 1323.03 262.878H1324.58C1324.34 263.959 1323.41 264.764 1322.31 264.764H1321.49C1321.27 264.211 1320.76 263.821 1320.15 263.821C1319.36 263.821 1318.71 264.496 1318.71 265.329C1318.71 266.163 1319.36 266.838 1320.15 266.838C1320.76 266.838 1321.27 266.448 1321.49 265.895H1322.31C1324.03 265.895 1325.46 264.553 1325.69 262.809C1326.54 262.575 1327.16 261.766 1327.16 260.804V258.541C1327.16 257.582 1326.54 256.775 1325.7 256.537C1325.42 253.894 1322.97 251.941 1320.15 251.941C1317.33 251.941 1314.88 253.894 1314.61 256.537C1313.76 256.775 1313.14 257.582 1313.14 258.541V260.804C1313.14 261.949 1314.03 262.878 1315.12 262.878H1317.28C1317.57 262.878 1317.82 262.625 1317.82 262.312V257.032C1317.82 256.72 1317.57 256.467 1317.28 256.467H1315.71ZM1314.22 258.541C1314.22 258.02 1314.62 257.598 1315.12 257.598H1316.74V261.747H1315.12C1314.62 261.747 1314.22 261.325 1314.22 260.804V258.541ZM1325.18 257.598C1325.68 257.598 1326.08 258.02 1326.08 258.541V260.804C1326.08 261.325 1325.68 261.747 1325.18 261.747H1323.57V257.598H1325.18Z" fill="#239C9C"/>
<path fill-rule="evenodd" clip-rule="evenodd" d="M1343.3 259.295C1343.3 272.713 1332.94 283.591 1320.15 283.591C1307.37 283.591 1297 272.713 1297 259.295C1297 245.877 1307.37 235 1320.15 235C1332.94 235 1343.3 245.877 1343.3 259.295ZM1342.4 259.295C1342.4 272.187 1332.44 282.638 1320.15 282.638C1307.87 282.638 1297.91 272.187 1297.91 259.295C1297.91 246.404 1307.87 235.953 1320.15 235.953C1332.44 235.953 1342.4 246.404 1342.4 259.295Z" fill="#239C9C"/>
<g opacity="0.2">
<path fill-rule="evenodd" clip-rule="evenodd" d="M1042.02 88.1351C1042.57 84.8255 1045.76 82.1054 1049.87 82.1054C1053.99 82.1054 1057.18 84.8255 1057.72 88.1351H1054.95C1054.42 88.1351 1054 88.585 1054 89.1401V98.5196C1054 99.0746 1054.42 99.5245 1054.95 99.5245H1057.69C1057.26 101.445 1055.63 102.874 1053.68 102.874H1052.23C1051.85 101.892 1050.94 101.199 1049.87 101.199C1048.47 101.199 1047.34 102.399 1047.34 103.879C1047.34 105.359 1048.47 106.559 1049.87 106.559C1050.94 106.559 1051.85 105.866 1052.23 104.884H1053.68C1056.73 104.884 1059.24 102.5 1059.65 99.4024C1061.14 98.9854 1062.25 97.5484 1062.25 95.8397V91.8199C1062.25 90.116 1061.15 88.6822 1059.66 88.2607C1059.18 83.5654 1054.86 80.0955 1049.87 80.0955C1044.89 80.0955 1040.57 83.5654 1040.08 88.2607C1038.6 88.6822 1037.5 90.116 1037.5 91.8199V95.8397C1037.5 97.8748 1039.06 99.5245 1040.99 99.5245H1044.8C1045.32 99.5245 1045.75 99.0746 1045.75 98.5196V89.1401C1045.75 88.585 1045.32 88.1351 1044.8 88.1351H1042.02ZM1039.4 91.8199C1039.4 90.8949 1040.11 90.145 1040.99 90.145H1043.85V97.5146H1040.99C1040.11 97.5146 1039.4 96.7647 1039.4 95.8397V91.8199ZM1058.76 90.145C1059.63 90.145 1060.34 90.8949 1060.34 91.8199V95.8397C1060.34 96.7647 1059.63 97.5146 1058.76 97.5146H1055.9V90.145H1058.76Z" fill="#239C9C"/>
<path fill-rule="evenodd" clip-rule="evenodd" d="M1090.75 93.1598C1090.75 116.996 1072.45 136.32 1049.87 136.32C1027.3 136.32 1009 116.996 1009 93.1598C1009 69.3233 1027.3 50 1049.87 50C1072.45 50 1090.75 69.3233 1090.75 93.1598ZM1089.14 93.1598C1089.14 116.062 1071.56 134.627 1049.87 134.627C1028.18 134.627 1010.6 116.062 1010.6 93.1598C1010.6 70.2581 1028.18 51.6925 1049.87 51.6925C1071.56 51.6925 1089.14 70.2581 1089.14 93.1598Z" fill="#239C9C"/>
</g>
</g>
</svg>
