<svg width="60" height="60" viewBox="0 0 60 60" fill="none" xmlns="http://www.w3.org/2000/svg">
<path d="M27.599 4.75339C28.7341 3.74887 30.4402 3.74887 31.5753 4.75339L31.8496 4.99618C32.7229 5.76902 33.965 5.96574 35.0344 5.50059L35.3703 5.35447C36.7603 4.74988 38.3829 5.27709 39.152 6.58321L39.3379 6.8989C39.9297 7.90378 41.0501 8.47469 42.2109 8.36277L42.5756 8.32761C44.0843 8.18213 45.4646 9.18494 45.7925 10.6648L45.8717 11.0225C46.124 12.1611 47.0132 13.0503 48.1518 13.3025L48.5094 13.3818C49.9893 13.7097 50.9921 15.0899 50.8467 16.5987L50.8115 16.9633C50.6996 18.1241 51.2705 19.2446 52.2754 19.8363L52.591 20.0222C53.8972 20.7914 54.4244 22.414 53.8198 23.8039L53.6737 24.1399C53.2085 25.2093 53.4052 26.4513 54.1781 27.3246L54.4209 27.599C55.4254 28.7341 55.4254 30.4402 54.4209 31.5753L54.1781 31.8496C53.4052 32.7229 53.2085 33.965 53.6737 35.0344L53.8198 35.3703C54.4244 36.7603 53.8972 38.3829 52.591 39.152L52.2754 39.3379C51.2705 39.9297 50.6996 41.0501 50.8115 42.2109L50.8467 42.5756C50.9921 44.0843 49.9893 45.4646 48.5094 45.7925L48.1518 45.8717C47.0132 46.124 46.124 47.0132 45.8717 48.1518L45.7925 48.5094C45.4646 49.9893 44.0843 50.9921 42.5756 50.8467L42.2109 50.8115C41.0501 50.6996 39.9297 51.2705 39.3379 52.2754L39.152 52.591C38.3829 53.8972 36.7603 54.4244 35.3703 53.8198L35.0344 53.6737C33.965 53.2085 32.7229 53.4052 31.8496 54.1781L31.5753 54.4209C30.4402 55.4254 28.7341 55.4254 27.599 54.4209L27.3246 54.1781C26.4513 53.4052 25.2093 53.2085 24.1399 53.6737L23.8039 53.8198C22.414 54.4244 20.7914 53.8972 20.0222 52.591L19.8363 52.2754C19.2446 51.2705 18.1241 50.6996 16.9633 50.8115L16.5987 50.8467C15.0899 50.9921 13.7097 49.9893 13.3818 48.5094L13.3025 48.1518C13.0503 47.0132 12.1611 46.124 11.0225 45.8717L10.6648 45.7925C9.18494 45.4646 8.18213 44.0843 8.32761 42.5756L8.36277 42.2109C8.47469 41.0501 7.90378 39.9297 6.89889 39.3379L6.58321 39.152C5.27709 38.3829 4.74988 36.7603 5.35447 35.3703L5.50059 35.0344C5.96574 33.965 5.76902 32.7229 4.99618 31.8496L4.75339 31.5753C3.74887 30.4402 3.74887 28.7341 4.75339 27.599L4.99618 27.3246C5.76902 26.4513 5.96574 25.2093 5.50059 24.1399L5.35447 23.8039C4.74988 22.414 5.27709 20.7914 6.58321 20.0222L6.8989 19.8363C7.90378 19.2446 8.47469 18.1241 8.36277 16.9633L8.32761 16.5987C8.18213 15.0899 9.18495 13.7097 10.6648 13.3818L11.0225 13.3025C12.1611 13.0503 13.0503 12.1611 13.3025 11.0225L13.3818 10.6648C13.7097 9.18495 15.0899 8.18213 16.5987 8.32761L16.9633 8.36277C18.1241 8.47469 19.2446 7.90378 19.8363 6.89889L20.0222 6.58321C20.7914 5.27709 22.414 4.74988 23.8039 5.35447L24.1399 5.50059C25.2093 5.96574 26.4513 5.76902 27.3246 4.99618L27.599 4.75339Z" fill="#239C9C"/>
<circle cx="29.5872" cy="29.5871" r="18.6983" fill="white"/>
<path d="M35.1016 25.0423C35.0265 24.9715 34.9304 24.9362 34.8135 24.9362H32.6707C32.5286 24.2832 32.2612 23.7164 31.8686 23.2364H34.7883C34.9055 23.2364 35.0014 23.201 35.0767 23.1303C35.1515 23.0595 35.1891 22.9689 35.1891 22.8588V21.6545C35.1891 21.5442 35.1516 21.4538 35.0767 21.383C35.0013 21.3122 34.9054 21.2767 34.7883 21.2767H24.3619C24.2449 21.2767 24.1489 21.3122 24.0737 21.3829C23.9986 21.4538 23.9609 21.5442 23.9609 21.6544V23.2244C23.9609 23.3267 24.0006 23.4152 24.08 23.49C24.1593 23.5647 24.2533 23.6021 24.3619 23.6021H26.179C27.9417 23.6021 29.0613 24.0466 29.5374 24.936H24.3619C24.2449 24.936 24.1488 24.9713 24.0737 25.0421C23.9986 25.1131 23.9609 25.2034 23.9609 25.3137V26.5178C23.9609 26.628 23.9985 26.7185 24.0737 26.7892C24.1489 26.8601 24.2451 26.8953 24.3619 26.8953H29.7131C29.5293 27.5408 29.1011 28.0326 28.4285 28.371C27.7558 28.7095 26.8683 28.8787 25.7655 28.8787H24.3619C24.2533 28.8787 24.1593 28.9161 24.08 28.9908C24.0006 29.0656 23.9609 29.1542 23.9609 29.2564V30.7557C23.9609 30.8582 23.9985 30.9447 24.0737 31.0155C25.6776 32.6208 27.758 34.8674 30.3145 37.7559C30.3897 37.8504 30.4941 37.8975 30.6278 37.8975H33.0714C33.247 37.8975 33.3683 37.8269 33.4349 37.685C33.5184 37.5433 33.5021 37.4095 33.3847 37.2836C30.9455 34.4661 29.028 32.3571 27.6328 30.9563C29.0531 30.799 30.206 30.366 31.0916 29.6579C31.9771 28.9497 32.5159 28.0288 32.7082 26.8956H34.8135C34.9304 26.8956 35.0266 26.8602 35.1016 26.7894C35.1769 26.7187 35.2146 26.6282 35.2146 26.518V25.314C35.2146 25.2036 35.1769 25.1132 35.1016 25.0423Z" fill="#239C9C"/>
</svg>
