<svg width="282" height="235" viewBox="0 0 282 235" fill="none" xmlns="http://www.w3.org/2000/svg">
<ellipse cx="133.5" cy="118.747" rx="113" ry="112.76" fill="#F5F5F5"/>
<rect width="93.2203" height="122.228" rx="10" transform="matrix(0.995509 -0.0946686 0.0950167 0.995476 151.306 8.82495)" fill="#44958E"/>
<rect width="50.9947" height="1.92105" rx="0.960524" transform="matrix(0.995509 -0.0946686 0.0950167 0.995476 174.271 38.639)" fill="white"/>
<rect opacity="0.5" width="50.9794" height="3.99157" rx="1.99578" transform="matrix(0.995509 -0.0946686 0.0950167 0.995476 164.527 21.0985)" fill="white"/>
<rect opacity="0.5" width="31.4873" height="2.49473" rx="1.24737" transform="matrix(0.995509 -0.0946686 0.0950167 0.995476 165.095 27.0585)" fill="white"/>
<path fill-rule="evenodd" clip-rule="evenodd" d="M166.221 40.3697C166.372 41.9537 167.781 43.1155 169.368 42.9646C170.955 42.8137 172.119 41.4072 171.968 39.8232C171.816 38.2391 170.407 37.0773 168.82 37.2282C167.233 37.3791 166.069 38.7856 166.221 40.3697ZM170.392 39.3003C170.488 39.1733 170.463 38.9927 170.335 38.8968C170.208 38.8008 170.027 38.826 169.931 38.953L168.714 40.5612L168.148 40.0011C168.035 39.8891 167.852 39.8899 167.74 40.0029C167.627 40.1159 167.628 40.2983 167.741 40.4103L168.542 41.2025C168.601 41.261 168.683 41.2912 168.766 41.2853C168.849 41.2793 168.925 41.2379 168.975 41.1715L170.392 39.3003Z" fill="white"/>
<rect width="48.5893" height="1.92105" rx="0.960524" transform="matrix(0.995509 -0.0946686 0.0950167 0.995476 175.047 46.7656)" fill="white"/>
<path fill-rule="evenodd" clip-rule="evenodd" d="M166.996 48.4958C167.147 50.0798 168.556 51.2416 170.143 51.0907C171.73 50.9398 172.894 49.5333 172.743 47.9493C172.592 46.3652 171.182 45.2034 169.595 45.3543C168.008 45.5052 166.844 46.9117 166.996 48.4958ZM171.167 47.4264C171.263 47.2994 171.238 47.1188 171.11 47.0228C170.983 46.9269 170.802 46.9521 170.706 47.0791L169.489 48.6873L168.923 48.1272C168.81 48.0152 168.627 48.016 168.515 48.129C168.403 48.242 168.403 48.4244 168.517 48.5364L169.317 49.3286C169.376 49.3871 169.458 49.4173 169.541 49.4113C169.624 49.4054 169.7 49.364 169.751 49.2976L171.167 47.4264Z" fill="white"/>
<rect width="48.5893" height="1.92105" rx="0.960524" transform="matrix(0.995509 -0.0946686 0.0950167 0.995476 175.823 54.8921)" fill="white"/>
<path fill-rule="evenodd" clip-rule="evenodd" d="M167.772 56.6226C167.923 58.2067 169.332 59.3685 170.919 59.2176C172.506 59.0666 173.67 57.6602 173.519 56.0761C173.368 54.492 171.959 53.3302 170.372 53.4811C168.785 53.6321 167.621 55.0385 167.772 56.6226ZM171.943 55.5532C172.039 55.4263 172.014 55.2456 171.887 55.1497C171.76 55.0538 171.579 55.0789 171.483 55.2059L170.265 56.8141L169.699 56.254C169.586 56.142 169.403 56.1428 169.291 56.2558C169.179 56.3688 169.18 56.5512 169.293 56.6633L170.093 57.4554C170.153 57.5139 170.234 57.5441 170.317 57.5382C170.4 57.5323 170.477 57.4908 170.527 57.4245L171.943 55.5532Z" fill="white"/>
<rect width="41.373" height="1.92105" rx="0.960524" transform="matrix(0.995509 -0.0946686 0.0950167 0.995476 176.598 63.019)" fill="white"/>
<path fill-rule="evenodd" clip-rule="evenodd" d="M168.548 64.7491C168.699 66.3331 170.108 67.4949 171.695 67.344C173.282 67.1931 174.446 65.7866 174.295 64.2025C174.144 62.6185 172.735 61.4567 171.148 61.6076C169.561 61.7585 168.397 63.165 168.548 64.7491ZM172.719 63.6797C172.815 63.5527 172.79 63.3721 172.663 63.2761C172.536 63.1802 172.355 63.2054 172.258 63.3324L171.041 64.9406L170.475 64.3805C170.362 64.2685 170.179 64.2693 170.067 64.3823C169.955 64.4953 169.956 64.6777 170.069 64.7897L170.869 65.5819C170.928 65.6404 171.01 65.6706 171.093 65.6646C171.176 65.6587 171.253 65.6173 171.303 65.5509L172.719 63.6797Z" fill="white"/>
<rect width="55.3244" height="1.92105" rx="0.960524" transform="matrix(0.995509 -0.0946686 0.0950167 0.995476 177.374 71.1454)" fill="white"/>
<path fill-rule="evenodd" clip-rule="evenodd" d="M169.324 72.8757C169.475 74.4597 170.884 75.6215 172.471 75.4706C174.058 75.3197 175.222 73.9132 175.071 72.3291C174.919 70.7451 173.51 69.5833 171.923 69.7342C170.336 69.8851 169.172 71.2916 169.324 72.8757ZM173.495 71.8063C173.591 71.6793 173.566 71.4986 173.438 71.4027C173.311 71.3068 173.13 71.332 173.034 71.459L171.817 73.0672L171.251 72.5071C171.138 72.3951 170.955 72.3958 170.843 72.5089C170.73 72.6219 170.731 72.8043 170.844 72.9163L171.645 73.7085C171.704 73.767 171.786 73.7972 171.869 73.7912C171.952 73.7853 172.028 73.7438 172.079 73.6775L173.495 71.8063Z" fill="white"/>
<rect width="48.5893" height="1.92105" rx="0.960524" transform="matrix(0.995509 -0.0946686 0.0950167 0.995476 178.15 79.272)" fill="white"/>
<path fill-rule="evenodd" clip-rule="evenodd" d="M170.099 81.0025C170.25 82.5866 171.659 83.7484 173.246 83.5974C174.833 83.4465 175.997 82.04 175.846 80.456C175.695 78.8719 174.286 77.7101 172.699 77.861C171.112 78.0119 169.948 79.4184 170.099 81.0025ZM174.27 79.9331C174.366 79.8062 174.341 79.6255 174.214 79.5296C174.087 79.4336 173.906 79.4588 173.809 79.5858L172.592 81.194L172.026 80.6339C171.913 80.5219 171.73 80.5227 171.618 80.6357C171.506 80.7487 171.507 80.9311 171.62 81.0431L172.42 81.8353C172.48 81.8938 172.561 81.924 172.644 81.9181C172.727 81.9121 172.804 81.8707 172.854 81.8043L174.27 79.9331Z" fill="white"/>
<rect width="51.4757" height="1.92105" rx="0.960524" transform="matrix(0.995509 -0.0946686 0.0950167 0.995476 178.925 87.3987)" fill="white"/>
<path fill-rule="evenodd" clip-rule="evenodd" d="M170.875 89.1291C171.026 90.7131 172.435 91.8749 174.022 91.724C175.609 91.5731 176.773 90.1666 176.622 88.5826C176.47 86.9985 175.061 85.8367 173.474 85.9876C171.887 86.1385 170.723 87.545 170.875 89.1291ZM175.046 88.0597C175.142 87.9327 175.117 87.7521 174.989 87.6562C174.862 87.5602 174.681 87.5854 174.585 87.7124L173.368 89.3206L172.802 88.7605C172.689 88.6485 172.506 88.6493 172.394 88.7623C172.281 88.8753 172.282 89.0577 172.395 89.1697L173.196 89.9619C173.255 90.0204 173.337 90.0506 173.42 90.0446C173.503 90.0387 173.579 89.9973 173.63 89.9309L175.046 88.0597Z" fill="white"/>
<rect x="160.254" y="3.21594" width="93.2218" height="122.226" rx="10" fill="#63B7AF"/>
<g filter="url(#filter0_d_4810_1145)">
<rect x="203" y="96" width="74.5001" height="21.9533" rx="3" fill="white"/>
</g>
<path fill-rule="evenodd" clip-rule="evenodd" d="M216.398 104.371C216.398 104.166 216.232 104 216.026 104C215.821 104 215.655 104.166 215.655 104.371L215.655 106.596L213.372 106.596C213.166 106.596 213 106.762 213 106.967C213 107.172 213.166 107.338 213.372 107.338H215.655L215.655 109.616C215.655 109.821 215.821 109.987 216.026 109.987C216.232 109.987 216.398 109.821 216.398 109.616L216.398 107.338H218.628C218.834 107.338 219 107.172 219 106.967C219 106.762 218.834 106.596 218.628 106.596L216.398 106.596L216.398 104.371Z" fill="#44958E" stroke="#44958E" stroke-width="0.5" stroke-linecap="round" stroke-linejoin="round"/>
<path d="M225.488 110H224.005L227.351 103.455H229.134L230.304 110H228.821L228.025 104.95H227.974L225.488 110ZM225.826 107.427H229.329L229.144 108.507H225.641L225.826 107.427ZM232.64 110.08C232.265 110.08 231.943 109.984 231.672 109.792C231.404 109.598 231.212 109.314 231.097 108.939C230.984 108.562 230.973 108.099 231.065 107.552C231.159 106.989 231.327 106.522 231.57 106.149C231.813 105.774 232.1 105.494 232.433 105.308C232.765 105.121 233.111 105.027 233.471 105.027C233.744 105.027 233.965 105.074 234.133 105.168C234.303 105.259 234.434 105.374 234.526 105.513C234.618 105.649 234.682 105.783 234.718 105.915H234.759L235.172 103.455H236.53L235.443 110H234.101L234.232 109.214H234.174C234.089 109.35 233.976 109.485 233.836 109.62C233.697 109.752 233.529 109.862 233.331 109.949C233.135 110.036 232.905 110.08 232.64 110.08ZM233.241 108.996C233.459 108.996 233.655 108.937 233.829 108.817C234.004 108.696 234.151 108.527 234.27 108.309C234.39 108.092 234.473 107.837 234.52 107.545C234.569 107.254 234.57 107 234.523 106.785C234.476 106.57 234.384 106.403 234.248 106.286C234.114 106.169 233.936 106.11 233.714 106.11C233.491 106.11 233.292 106.171 233.12 106.293C232.949 106.414 232.808 106.582 232.695 106.798C232.584 107.013 232.505 107.262 232.458 107.545C232.411 107.831 232.408 108.083 232.449 108.303C232.489 108.52 232.575 108.691 232.708 108.814C232.84 108.936 233.018 108.996 233.241 108.996ZM238.362 110.08C237.987 110.08 237.664 109.984 237.394 109.792C237.125 109.598 236.933 109.314 236.818 108.939C236.705 108.562 236.695 108.099 236.786 107.552C236.88 106.989 237.049 106.522 237.291 106.149C237.534 105.774 237.822 105.494 238.154 105.308C238.487 105.121 238.833 105.027 239.193 105.027C239.466 105.027 239.686 105.074 239.855 105.168C240.025 105.259 240.156 105.374 240.248 105.513C240.339 105.649 240.403 105.783 240.439 105.915H240.481L240.893 103.455H242.252L241.165 110H239.823L239.954 109.214H239.896C239.811 109.35 239.698 109.485 239.557 109.62C239.419 109.752 239.251 109.862 239.052 109.949C238.856 110.036 238.626 110.08 238.362 110.08ZM238.963 108.996C239.18 108.996 239.376 108.937 239.551 108.817C239.726 108.696 239.873 108.527 239.992 108.309C240.111 108.092 240.194 107.837 240.241 107.545C240.29 107.254 240.291 107 240.245 106.785C240.198 106.57 240.106 106.403 239.97 106.286C239.835 106.169 239.658 106.11 239.436 106.11C239.212 106.11 239.014 106.171 238.841 106.293C238.671 106.414 238.529 106.582 238.416 106.798C238.306 107.013 238.227 107.262 238.18 107.545C238.133 107.831 238.13 108.083 238.17 108.303C238.211 108.52 238.297 108.691 238.429 108.814C238.561 108.936 238.739 108.996 238.963 108.996ZM244.374 110L245.192 105.091H246.486L246.346 105.957H246.4C246.549 105.669 246.757 105.442 247.023 105.276C247.292 105.11 247.593 105.027 247.928 105.027C248.26 105.027 248.531 105.111 248.74 105.279C248.951 105.446 249.072 105.672 249.104 105.957H249.155C249.3 105.676 249.518 105.451 249.81 105.283C250.102 105.112 250.428 105.027 250.788 105.027C251.242 105.027 251.589 105.173 251.83 105.465C252.071 105.757 252.147 106.168 252.057 106.699L251.507 110H250.146L250.657 106.967C250.698 106.692 250.657 106.488 250.536 106.353C250.414 106.217 250.245 106.149 250.028 106.149C249.78 106.149 249.575 106.228 249.411 106.385C249.247 106.541 249.145 106.746 249.107 107.002L248.599 110H247.279L247.797 106.938C247.833 106.695 247.794 106.504 247.678 106.363C247.566 106.22 247.396 106.149 247.17 106.149C247.021 106.149 246.879 106.187 246.745 106.264C246.613 106.338 246.501 106.444 246.41 106.58C246.318 106.714 246.258 106.872 246.231 107.053L245.732 110H244.374ZM254.798 110.096C254.297 110.096 253.883 109.989 253.554 109.776C253.226 109.561 252.995 109.263 252.861 108.881C252.729 108.498 252.704 108.051 252.787 107.542C252.868 107.039 253.037 106.599 253.292 106.222C253.548 105.845 253.873 105.552 254.267 105.343C254.661 105.132 255.106 105.027 255.6 105.027C256.098 105.027 256.512 105.135 256.84 105.35C257.168 105.563 257.399 105.861 257.533 106.245C257.668 106.628 257.693 107.075 257.61 107.584C257.527 108.085 257.357 108.523 257.099 108.901C256.841 109.278 256.516 109.572 256.124 109.783C255.732 109.991 255.29 110.096 254.798 110.096ZM254.932 109.041C255.162 109.041 255.365 108.976 255.542 108.846C255.721 108.714 255.869 108.535 255.987 108.309C256.106 108.081 256.189 107.824 256.236 107.536C256.283 107.252 256.286 107.001 256.245 106.782C256.205 106.56 256.12 106.385 255.99 106.257C255.862 106.13 255.686 106.066 255.462 106.066C255.232 106.066 255.028 106.132 254.849 106.264C254.67 106.394 254.522 106.573 254.405 106.801C254.287 107.029 254.205 107.288 254.158 107.577C254.114 107.859 254.11 108.11 254.149 108.332C254.187 108.551 254.271 108.725 254.401 108.853C254.531 108.978 254.708 109.041 254.932 109.041ZM258.093 110L258.911 105.091H260.231L260.087 105.947H260.138C260.279 105.643 260.467 105.413 260.704 105.257C260.943 105.099 261.199 105.021 261.474 105.021C261.542 105.021 261.614 105.025 261.688 105.033C261.765 105.04 261.833 105.05 261.893 105.065L261.688 106.277C261.629 106.255 261.543 106.238 261.433 106.225C261.324 106.211 261.221 106.203 261.123 106.203C260.924 106.203 260.74 106.247 260.57 106.334C260.399 106.419 260.255 106.539 260.138 106.692C260.023 106.846 259.947 107.022 259.911 107.223L259.454 110H258.093ZM263.771 110.096C263.268 110.096 262.852 109.994 262.522 109.789C262.191 109.582 261.959 109.29 261.825 108.913C261.693 108.534 261.67 108.086 261.758 107.568C261.843 107.063 262.015 106.62 262.272 106.238C262.532 105.857 262.858 105.56 263.25 105.347C263.642 105.134 264.079 105.027 264.561 105.027C264.885 105.027 265.178 105.079 265.44 105.184C265.704 105.286 265.923 105.441 266.098 105.65C266.273 105.857 266.392 106.116 266.456 106.427C266.522 106.738 266.521 107.102 266.453 107.52L266.392 107.894H262.25L262.381 107.05H265.245C265.277 106.854 265.264 106.68 265.206 106.529C265.149 106.378 265.053 106.26 264.919 106.174C264.784 106.087 264.619 106.043 264.423 106.043C264.223 106.043 264.035 106.092 263.861 106.19C263.686 106.288 263.539 106.417 263.42 106.577C263.303 106.735 263.227 106.906 263.193 107.092L263.043 107.929C263 108.187 263.008 108.401 263.068 108.571C263.13 108.742 263.236 108.87 263.388 108.955C263.539 109.038 263.731 109.08 263.963 109.08C264.114 109.08 264.256 109.058 264.388 109.016C264.522 108.973 264.642 108.91 264.746 108.827C264.85 108.742 264.936 108.636 265.002 108.511L266.245 108.594C266.13 108.896 265.955 109.161 265.721 109.386C265.486 109.61 265.204 109.785 264.874 109.911C264.546 110.034 264.178 110.096 263.771 110.096Z" fill="#44958E"/>
<rect x="180.283" y="35.0691" width="50.9955" height="1.92102" rx="0.960508" fill="white"/>
<rect opacity="0.5" x="172.25" y="16.6851" width="50.9802" height="3.99151" rx="1.99575" fill="white"/>
<rect opacity="0.5" x="172.25" y="22.6718" width="31.4878" height="2.49469" rx="1.24735" fill="white"/>
<path fill-rule="evenodd" clip-rule="evenodd" d="M172.104 36.0294C172.104 37.6206 173.397 38.9106 174.991 38.9106C176.585 38.9106 177.878 37.6206 177.878 36.0294C177.878 34.4381 176.585 33.1482 174.991 33.1482C173.397 33.1482 172.104 34.4381 172.104 36.0294ZM176.358 35.3597C176.466 35.2424 176.458 35.0602 176.341 34.9526C176.223 34.8451 176.041 34.853 175.933 34.9703L174.568 36.4561L174.058 35.8449C173.956 35.7227 173.774 35.7062 173.652 35.808C173.529 35.9099 173.513 36.0916 173.615 36.2138L174.336 37.0782C174.39 37.1421 174.468 37.1798 174.551 37.1818C174.634 37.1837 174.715 37.1497 174.771 37.0884L176.358 35.3597Z" fill="white"/>
<rect x="180.283" y="43.2327" width="48.59" height="1.92102" rx="0.960508" fill="white"/>
<path fill-rule="evenodd" clip-rule="evenodd" d="M172.104 44.1928C172.104 45.7841 173.397 47.074 174.991 47.074C176.585 47.074 177.878 45.7841 177.878 44.1928C177.878 42.6016 176.585 41.3116 174.991 41.3116C173.397 41.3116 172.104 42.6016 172.104 44.1928ZM176.358 43.5232C176.466 43.4059 176.458 43.2236 176.341 43.1161C176.223 43.0086 176.041 43.0165 175.933 43.1338L174.568 44.6195L174.058 44.0084C173.956 43.8861 173.774 43.8696 173.652 43.9715C173.529 44.0734 173.513 44.255 173.615 44.3773L174.336 45.2416C174.39 45.3055 174.468 45.3433 174.551 45.3452C174.634 45.3472 174.715 45.3132 174.771 45.2519L176.358 43.5232Z" fill="white"/>
<rect x="180.283" y="51.3958" width="48.59" height="1.92102" rx="0.960508" fill="white"/>
<path fill-rule="evenodd" clip-rule="evenodd" d="M172.104 52.356C172.104 53.9473 173.397 55.2372 174.991 55.2372C176.585 55.2372 177.878 53.9473 177.878 52.356C177.878 50.7648 176.585 49.4749 174.991 49.4749C173.397 49.4749 172.104 50.7648 172.104 52.356ZM176.358 51.6864C176.466 51.5691 176.458 51.3868 176.341 51.2793C176.223 51.1718 176.041 51.1797 175.933 51.297L174.568 52.7827L174.058 52.1716C173.956 52.0494 173.774 52.0328 173.652 52.1347C173.529 52.2366 173.513 52.4183 173.615 52.5405L174.336 53.4049C174.39 53.4687 174.468 53.5065 174.551 53.5084C174.634 53.5104 174.715 53.4764 174.771 53.4151L176.358 51.6864Z" fill="white"/>
<rect x="180.283" y="59.5594" width="41.3737" height="1.92102" rx="0.960508" fill="#44958E"/>
<path fill-rule="evenodd" clip-rule="evenodd" d="M175 63.8638C173.067 63.8638 171.5 62.3001 171.5 60.3712C171.5 58.4423 173.067 56.8787 175 56.8787C176.933 56.8787 178.5 58.4423 178.5 60.3712C178.5 62.3001 176.933 63.8638 175 63.8638ZM175 57.5772C173.453 57.5772 172.2 58.8281 172.2 60.3712C172.2 61.9143 173.453 63.1653 175 63.1653C176.546 63.1653 177.8 61.9143 177.8 60.3712C177.8 58.8281 176.546 57.5772 175 57.5772ZM176.297 59.0765C176.434 59.2129 176.434 59.434 176.297 59.5704L175.494 60.3712L176.297 61.172C176.434 61.3084 176.434 61.5296 176.297 61.666C176.16 61.8024 175.939 61.8024 175.802 61.666L175 60.8652L174.197 61.666C174.06 61.8024 173.839 61.8024 173.702 61.666C173.565 61.5296 173.565 61.3084 173.702 61.172L174.505 60.3712L173.702 59.5704C173.565 59.434 173.565 59.2129 173.702 59.0765C173.839 58.9401 174.06 58.9401 174.197 59.0765L175 59.8773L175.802 59.0765C175.939 58.9401 176.16 58.9401 176.297 59.0765Z" fill="white"/>
<rect x="180.283" y="67.7227" width="55.3253" height="1.92102" rx="0.960508" fill="white"/>
<path fill-rule="evenodd" clip-rule="evenodd" d="M172.104 68.6831C172.104 70.2743 173.397 71.5643 174.991 71.5643C176.585 71.5643 177.878 70.2743 177.878 68.6831C177.878 67.0918 176.585 65.8019 174.991 65.8019C173.397 65.8019 172.104 67.0918 172.104 68.6831ZM176.358 68.0134C176.466 67.8961 176.458 67.7139 176.341 67.6063C176.223 67.4988 176.041 67.5067 175.933 67.624L174.568 69.1098L174.058 68.4986C173.956 68.3764 173.774 68.3599 173.652 68.4617C173.529 68.5636 173.513 68.7453 173.615 68.8675L174.336 69.7319C174.39 69.7957 174.468 69.8335 174.551 69.8355C174.634 69.8374 174.715 69.8034 174.771 69.7421L176.358 68.0134Z" fill="white"/>
<rect x="180.283" y="75.8861" width="48.59" height="1.92102" rx="0.960508" fill="white"/>
<path fill-rule="evenodd" clip-rule="evenodd" d="M172.104 76.8463C172.104 78.4375 173.397 79.7275 174.991 79.7275C176.585 79.7275 177.878 78.4375 177.878 76.8463C177.878 75.255 176.585 73.9651 174.991 73.9651C173.397 73.9651 172.104 75.255 172.104 76.8463ZM176.358 76.1766C176.466 76.0593 176.458 75.8771 176.341 75.7695C176.223 75.662 176.041 75.6699 175.933 75.7872L174.568 77.273L174.058 76.6618C173.956 76.5396 173.774 76.5231 173.652 76.6249C173.529 76.7268 173.513 76.9085 173.615 77.0307L174.336 77.8951C174.39 77.959 174.468 77.9967 174.551 77.9987C174.634 78.0006 174.715 77.9666 174.771 77.9053L176.358 76.1766Z" fill="white"/>
<rect x="180.283" y="84.0494" width="51.4766" height="1.92102" rx="0.960508" fill="white"/>
<path fill-rule="evenodd" clip-rule="evenodd" d="M172.104 85.0097C172.104 86.601 173.397 87.8909 174.991 87.8909C176.585 87.8909 177.878 86.601 177.878 85.0097C177.878 83.4185 176.585 82.1285 174.991 82.1285C173.397 82.1285 172.104 83.4185 172.104 85.0097ZM176.358 84.3401C176.466 84.2228 176.458 84.0405 176.341 83.933C176.223 83.8255 176.041 83.8334 175.933 83.9507L174.568 85.4364L174.058 84.8253C173.956 84.703 173.774 84.6865 173.652 84.7884C173.529 84.8903 173.513 85.0719 173.615 85.1942L174.336 86.0585C174.39 86.1224 174.468 86.1602 174.551 86.1621C174.634 86.1641 174.715 86.1301 174.771 86.0688L176.358 84.3401Z" fill="white"/>
<ellipse cx="109.003" cy="233.004" rx="34.5001" ry="1.99575" fill="#C4C4C4"/>
<path d="M111.691 93.5765L111.287 84.6266L101.59 81.0696L102.14 93.4368L94.2332 96.7394L111.112 105.395L119.488 95.0981L111.691 93.5765Z" fill="#FBA43F"/>
<g style="mix-blend-mode:multiply" opacity="0.2">
<path d="M101.98 89.8549L101.59 81.0646L111.286 84.6266L111.656 92.7933C108.307 92.28 105.048 91.2905 101.98 89.8549Z" fill="#FBA43F"/>
</g>
<path d="M101.99 84.7464C101.99 84.7464 105.429 91.6259 113.271 90.2341C118.794 89.2662 119.208 81.4737 118.424 73.771C117.199 61.7679 113.276 61.2989 107.398 62.182C94.0881 64.2324 101.99 84.7464 101.99 84.7464Z" fill="#FBA43F"/>
<path d="M98.6812 63.4193C100.705 65.2152 100.87 63.8383 102.83 65.7041C105.948 71.6059 102.06 73.8808 102.06 73.8808L102.5 78.1313L100.845 78.68L101.675 83.4693C101.675 83.4693 98.0215 79.3984 96.2022 71.2617C94.8477 65.1903 96.8019 63.3544 98.6812 63.4193Z" fill="#35495E"/>
<path d="M103.984 70.6031C100.605 70.3486 97.4867 68.4479 96.0472 65.5344C95.6524 66.7617 95.6074 68.6025 96.2022 71.2616C98.0215 79.3983 101.675 83.4692 101.675 83.4692L100.845 78.6799L102.5 78.1312L102.055 73.8807C102.594 73.5058 103.046 73.0187 103.379 72.4529C103.712 71.8871 103.919 71.256 103.984 70.6031Z" fill="#213344"/>
<path d="M101.59 81.7831L100.481 74.4844C100.481 74.4844 97.7566 73.8209 97.5967 76.2555C97.4367 78.69 99.261 81.6384 101.59 81.7831Z" fill="#FBA43F"/>
<path d="M101.055 67.2106C101.055 67.2106 108.103 70.2039 113.605 66.8464L110.966 66.4773C110.966 66.4773 116.764 66.0383 118.523 62.5211L116.839 63.2545C116.839 63.2545 119.553 60.4707 117.279 57.3228C117.279 57.3228 117.349 58.6399 116.469 59.3183C115.59 59.9968 103.974 53.676 100.101 59.2435C96.2271 64.811 101.055 67.2106 101.055 67.2106Z" fill="#35495E"/>
<path d="M100.816 80.5507C100.557 80.5447 100.3 80.4958 100.056 80.4061C99.9274 80.3585 99.8035 80.2983 99.6864 80.2265C99.553 80.1471 99.44 80.0377 99.3564 79.9072C99.2524 79.7517 99.2097 79.5634 99.2363 79.3784C99.2409 79.3276 99.251 79.2774 99.2664 79.2287L99.2964 79.1389C99.2964 79.079 99.3313 79.0292 99.3663 78.9593C99.4013 78.8895 99.4463 78.8097 99.4913 78.7348C99.5442 78.6652 99.6027 78.6002 99.6663 78.5403C99.7412 78.4762 99.8255 78.424 99.9163 78.3856C100.033 78.3363 100.161 78.3207 100.286 78.3407L99.8713 78.6899C99.8213 78.0913 99.7763 77.4677 99.6763 76.884C99.6529 76.7409 99.6212 76.5993 99.5813 76.4599C99.5514 76.3344 99.5007 76.2147 99.4313 76.1057C99.4062 76.0602 99.3662 76.0245 99.3181 76.0046C99.27 75.9846 99.2164 75.9816 99.1663 75.996C99.0221 76.0428 98.8869 76.1136 98.7664 76.2055C98.8337 76.0481 98.9404 75.9107 99.0764 75.8064C99.161 75.7427 99.2655 75.7109 99.3714 75.7166C99.4847 75.7187 99.594 75.7591 99.6813 75.8313C99.8285 75.9499 99.9494 76.0977 100.036 76.2654C100.113 76.4179 100.181 76.5745 100.241 76.7343C100.436 77.3585 100.544 78.0065 100.561 78.66L100.151 79.0142C100.206 79.0142 100.151 79.0142 100.151 79.0142L100.086 79.0491C100.061 79.0491 100.036 79.099 100.006 79.119L99.9363 79.2137C99.9038 79.2629 99.8754 79.3146 99.8513 79.3684L99.8114 79.4532C99.8114 79.4532 99.8114 79.4532 99.8114 79.4782C99.8044 79.506 99.8044 79.5351 99.8114 79.563C99.8048 79.5959 99.8048 79.6298 99.8114 79.6627C99.8458 79.7513 99.8967 79.8325 99.9613 79.9022C100.04 79.9837 100.123 80.0604 100.211 80.1317C100.403 80.2847 100.606 80.4247 100.816 80.5507Z" fill="#C66258"/>
<path d="M117.049 217.184C117.224 217.683 117.739 233.513 118.603 233.687C119.468 233.862 153 237.678 123.796 229.562L125.171 202.692L117.049 217.184Z" fill="#FBA43F"/>
<path d="M117.659 230.195C117.659 230.195 118.084 234.216 118.613 234.216C119.143 234.216 135.247 235.907 135.992 234.321C136.736 232.735 125.076 229.562 125.076 229.562L123.576 231.467L117.659 230.195Z" fill="#347474"/>
<path d="M135.357 233.363C134.652 234.86 119.963 233.408 118.158 233.268C118.293 233.812 118.453 234.211 118.618 234.211C119.148 234.211 135.252 235.903 135.997 234.316C136.121 234.042 135.862 233.712 135.357 233.363Z" fill="white"/>
<path d="M103.724 217.184C103.554 217.683 103.039 233.513 102.175 233.687C101.31 233.862 67.7732 237.678 96.9818 229.562L95.6024 202.692L103.724 217.184Z" fill="#FBA43F"/>
<path d="M103.125 230.195C103.125 230.195 102.705 234.216 102.175 234.216C101.645 234.216 85.5364 235.907 84.7967 234.321C84.057 232.735 95.7075 229.562 95.7075 229.562L97.2069 231.467L103.125 230.195Z" fill="#347474"/>
<path d="M85.4314 233.363C86.1411 234.86 100.825 233.408 102.63 233.268C102.495 233.812 102.34 234.211 102.175 234.211C101.645 234.211 85.5363 235.903 84.7966 234.316C84.6667 234.042 84.9266 233.712 85.4314 233.363Z" fill="white"/>
<path d="M95.3927 145.984C95.3927 145.984 93.4984 201.619 94.7629 224.348C94.7629 224.348 97.6018 227.741 104.854 224.687L112.736 160.571L116.519 224.687C116.519 224.687 120.303 227.401 125.351 224.009L128.185 139.878L95.3927 145.984Z" fill="#35495E"/>
<path opacity="0.5" d="M112.801 161.634L116.519 224.673C116.519 224.673 120.303 227.387 125.351 223.994L127.625 156.481L112.801 161.634Z" fill="#213344"/>
<path opacity="0.5" d="M127.935 147.336L128.185 139.878L95.3925 145.984C95.3925 145.984 95.3425 147.411 95.2676 149.895C116.084 158.306 123.722 150.299 127.935 147.336Z" fill="#213344"/>
<path d="M101.305 93.1575L108.512 97.7172L111.701 103.839L114.82 93.4269C114.82 93.4269 123.581 93.372 127.01 97.2184C130.439 101.065 128.51 144.901 128.51 144.901L115.814 151.741L114.155 146.169L113.725 152.05L94.1279 146.598C94.1279 146.598 89.9195 99.613 93.4832 96.5648C96.482 94.0106 101.305 93.1575 101.305 93.1575Z" fill="#63B7AF"/>
<path opacity="0.2" d="M94.093 106.063C93.4183 106.158 92.7436 106.238 92.0688 106.313C91.8289 120.93 94.128 146.613 94.128 146.613L113.725 152.065L114.155 146.183L115.815 151.741L128.51 144.901C128.51 144.901 128.87 136.675 129.009 127.041C125.358 126.256 121.785 125.144 118.334 123.719C109.202 119.987 98.6813 115.238 94.093 106.063Z" fill="#213344"/>
<path d="M95.3076 136.346C95.3076 136.346 106.443 134.634 95.0927 134.849C95.0927 134.849 92.9485 134.634 91.0193 138.271L88.9201 134.859C87.2855 136.377 85.5615 137.797 83.7571 139.109C87.3257 142.023 90.3795 143.924 91.4491 143.599C94.4479 142.741 94.4479 141.03 94.4479 141.03C94.4479 141.03 104.944 147.875 94.8778 139.962C94.8778 139.962 107.518 145.305 95.3076 138.037C95.3076 138.057 109.657 141.05 95.3076 136.346Z" fill="#FBA43F"/>
<path d="M100.22 93.0776C100.22 93.0776 90.2243 96.1557 87.7253 97.4728C85.2262 98.7898 65.7238 115.348 67.0683 119.598C68.4128 123.849 77.9341 136.745 85.861 142.018L90.7041 136.745L79.8383 120.781C79.8383 120.781 95.9871 110.084 96.282 107.884C96.5769 105.684 100.22 93.0776 100.22 93.0776Z" fill="#63B7AF"/>
<path d="M83.3374 140.995L86.4212 142.901L91.4143 136.745L89.505 133.816L83.3374 140.995Z" fill="#80CEC4"/>
<path d="M100.22 93.0776C100.22 93.0776 90.2243 96.1557 87.7253 97.4728C85.2262 98.7898 65.7238 115.348 67.0683 119.598C68.4128 123.849 77.9341 136.745 85.861 142.018L90.7041 136.745L79.8383 120.781C79.8383 120.781 95.9871 110.084 96.282 107.884C96.5769 105.684 100.22 93.0776 100.22 93.0776Z" fill="#63B7AF"/>
<path d="M83.3374 140.995L86.4212 142.901L91.4143 136.745L89.505 133.816L83.3374 140.995Z" fill="#80CEC4"/>
<path d="M124.586 136.061C124.586 136.061 113.341 135.328 124.666 134.564C124.666 134.564 126.785 134.165 129.02 137.623L130.819 134.036C132.571 135.41 134.407 136.675 136.317 137.822C133.043 141.025 130.154 143.175 129.045 142.966C125.986 142.377 125.836 140.671 125.836 140.671C125.836 140.671 115.975 148.403 125.336 139.643C125.336 139.643 113.211 146.069 124.741 137.767C124.736 137.767 110.697 141.998 124.586 136.061Z" fill="#FBA43F"/>
<path d="M115.909 93.3821C115.909 93.3821 126.12 95.5821 128.724 96.6747C131.328 97.7672 152.215 112.569 151.276 116.919C150.336 121.27 141.954 134.944 134.542 140.891L129.254 136.056L138.681 119.199C138.681 119.199 121.657 109.945 121.187 107.78C120.718 105.615 115.909 93.3821 115.909 93.3821Z" fill="#63B7AF"/>
<path d="M136.912 139.648L134.008 141.818L128.495 136.121L130.144 133.033L136.912 139.648Z" fill="#80CEC4"/>
<path d="M115.909 93.3821C115.909 93.3821 126.12 95.5821 128.724 96.6747C131.328 97.7672 152.215 112.569 151.276 116.919C150.336 121.27 141.954 134.944 134.542 140.891L129.254 136.056L138.681 119.199C138.681 119.199 121.657 109.945 121.187 107.78C120.718 105.615 115.909 93.3821 115.909 93.3821Z" fill="#63B7AF"/>
<path d="M136.912 139.648L134.008 141.818L128.495 136.121L130.144 133.033L136.912 139.648Z" fill="#80CEC4"/>
<path d="M111.371 106.094C111.371 106.284 111.428 106.47 111.534 106.629C111.64 106.787 111.791 106.91 111.967 106.983C112.143 107.056 112.337 107.075 112.525 107.038C112.712 107.001 112.884 106.909 113.019 106.774C113.154 106.64 113.246 106.468 113.283 106.281C113.32 106.095 113.301 105.901 113.228 105.725C113.155 105.549 113.031 105.399 112.872 105.293C112.714 105.187 112.527 105.131 112.336 105.131C112.08 105.131 111.835 105.232 111.654 105.413C111.473 105.593 111.371 105.838 111.371 106.094Z" fill="#80CEC4"/>
<path d="M113.406 142.976C113.406 143.166 113.462 143.353 113.568 143.511C113.674 143.669 113.825 143.793 114.001 143.866C114.178 143.938 114.372 143.957 114.559 143.92C114.746 143.883 114.918 143.791 115.053 143.657C115.188 143.522 115.28 143.351 115.317 143.164C115.354 142.977 115.335 142.783 115.262 142.607C115.189 142.431 115.065 142.281 114.907 142.175C114.748 142.069 114.561 142.013 114.371 142.013C114.115 142.013 113.869 142.114 113.688 142.295C113.507 142.476 113.406 142.72 113.406 142.976Z" fill="#80CEC4"/>
<path d="M113.19 133.886C113.189 134.077 113.245 134.264 113.351 134.423C113.456 134.582 113.606 134.706 113.783 134.779C113.959 134.853 114.153 134.873 114.341 134.836C114.528 134.8 114.701 134.708 114.836 134.574C114.971 134.439 115.064 134.268 115.102 134.081C115.139 133.894 115.12 133.7 115.047 133.524C114.975 133.348 114.851 133.197 114.692 133.091C114.533 132.985 114.347 132.928 114.155 132.928C113.9 132.928 113.656 133.029 113.475 133.208C113.294 133.388 113.192 133.632 113.19 133.886Z" fill="#80CEC4"/>
<path d="M113.19 124.373C113.19 124.563 113.247 124.749 113.353 124.908C113.459 125.066 113.61 125.189 113.786 125.262C113.962 125.335 114.156 125.354 114.344 125.317C114.531 125.28 114.703 125.188 114.838 125.054C114.973 124.919 115.065 124.747 115.102 124.56C115.139 124.374 115.12 124.18 115.047 124.004C114.974 123.828 114.85 123.678 114.692 123.572C114.533 123.466 114.346 123.41 114.155 123.41C113.899 123.41 113.654 123.511 113.473 123.692C113.292 123.872 113.19 124.117 113.19 124.373Z" fill="#80CEC4"/>
<path d="M113.366 115.128C113.899 115.128 114.331 114.697 114.331 114.165C114.331 113.634 113.899 113.203 113.366 113.203C112.833 113.203 112.401 113.634 112.401 114.165C112.401 114.697 112.833 115.128 113.366 115.128Z" fill="#80CEC4"/>
<path d="M115.2 92.075L112.256 97.6475L111.806 103.734L113.156 98.9246L115.335 100.75L117.049 93.5866L115.2 92.075Z" fill="#80CEC4"/>
<path d="M111.701 103.838L108.718 97.368L100.876 90.4834L98.7314 93.4767L106.553 101.923L108.478 97.9666L111.701 103.838Z" fill="#80CEC4"/>
<path fill-rule="evenodd" clip-rule="evenodd" d="M244.032 138.802C243.479 138.802 243.032 139.25 243.032 139.802V142.404C243.032 142.905 242.66 143.326 242.167 143.416C239.667 143.875 237.35 144.857 235.334 146.243C234.922 146.527 234.363 146.492 234.009 146.138L232.161 144.294C231.771 143.905 231.138 143.905 230.748 144.294L228.809 146.23C228.417 146.621 228.417 147.255 228.809 147.645L230.652 149.485C231.007 149.839 231.041 150.4 230.757 150.813C229.369 152.824 228.387 155.135 227.927 157.629C227.836 158.122 227.415 158.493 226.914 158.493H224.304C223.752 158.493 223.304 158.941 223.304 159.493V162.229C223.304 162.781 223.752 163.229 224.304 163.229H226.914C227.415 163.229 227.836 163.601 227.927 164.093C228.387 166.587 229.369 168.898 230.757 170.91C231.041 171.322 231.007 171.883 230.652 172.238L228.809 174.077C228.417 174.468 228.417 175.102 228.809 175.493L230.748 177.428C231.138 177.818 231.77 177.818 232.161 177.428L234.009 175.584C234.363 175.231 234.922 175.196 235.334 175.479C237.35 176.866 239.667 177.847 242.167 178.306C242.66 178.397 243.032 178.818 243.032 179.319V181.92C243.032 182.472 243.479 182.92 244.032 182.92H246.776C247.329 182.92 247.776 182.472 247.776 181.92V179.319C247.776 178.818 248.148 178.397 248.641 178.306C251.141 177.847 253.458 176.866 255.474 175.479C255.886 175.196 256.445 175.231 256.799 175.584L258.647 177.428C259.037 177.818 259.669 177.818 260.06 177.428L261.999 175.493C262.39 175.102 262.39 174.468 261.999 174.077L260.156 172.238C259.801 171.883 259.766 171.322 260.051 170.909C261.439 168.898 262.421 166.587 262.881 164.093C262.972 163.601 263.393 163.229 263.894 163.229H266.503C267.056 163.229 267.503 162.781 267.503 162.229V159.493C267.503 158.941 267.056 158.493 266.503 158.493H263.894C263.393 158.493 262.972 158.122 262.881 157.629C262.421 155.135 261.439 152.824 260.051 150.813C259.766 150.4 259.801 149.839 260.156 149.485L261.999 147.645C262.39 147.255 262.39 146.621 261.999 146.23L260.06 144.294C259.669 143.905 259.037 143.905 258.647 144.294L256.799 146.138C256.445 146.492 255.886 146.527 255.474 146.243C253.458 144.857 251.141 143.875 248.641 143.416C248.148 143.326 247.776 142.905 247.776 142.404V139.802C247.776 139.25 247.329 138.802 246.776 138.802H244.032ZM245.404 174.663C253.04 174.663 259.231 168.484 259.231 160.862C259.231 153.239 253.04 147.06 245.404 147.06C237.767 147.06 231.576 153.239 231.576 160.862C231.576 168.484 237.767 174.663 245.404 174.663Z" fill="#44958E"/>
<path fill-rule="evenodd" clip-rule="evenodd" d="M242.385 138.802C241.833 138.802 241.385 139.25 241.385 139.802V142.403C241.385 142.905 241.013 143.326 240.52 143.416C238.02 143.875 235.704 144.857 233.688 146.243C233.275 146.527 232.716 146.492 232.362 146.138L230.514 144.294C230.124 143.904 229.492 143.904 229.102 144.294L227.162 146.23C226.771 146.62 226.771 147.255 227.162 147.645L229.005 149.485C229.36 149.839 229.395 150.4 229.11 150.813C227.723 152.824 226.74 155.135 226.28 157.629C226.189 158.122 225.769 158.493 225.268 158.493H222.658C222.105 158.493 221.658 158.941 221.658 159.493V162.229C221.658 162.781 222.105 163.229 222.658 163.229H225.268C225.769 163.229 226.189 163.601 226.28 164.093C226.74 166.587 227.723 168.898 229.11 170.909C229.395 171.322 229.36 171.883 229.005 172.238L227.162 174.077C226.771 174.468 226.771 175.102 227.162 175.493L229.101 177.428C229.492 177.818 230.124 177.818 230.514 177.428L232.362 175.584C232.716 175.231 233.275 175.196 233.687 175.479C235.703 176.865 238.02 177.847 240.52 178.306C241.013 178.397 241.385 178.818 241.385 179.319V181.92C241.385 182.472 241.833 182.92 242.385 182.92H245.13C245.682 182.92 246.13 182.472 246.13 181.92V179.319C246.13 178.818 246.502 178.397 246.995 178.306C249.495 177.847 251.811 176.865 253.827 175.479C254.239 175.196 254.799 175.231 255.153 175.584L257 177.428C257.391 177.818 258.023 177.818 258.413 177.428L260.353 175.492C260.744 175.102 260.744 174.468 260.353 174.077L258.51 172.237C258.155 171.883 258.12 171.322 258.405 170.909C259.792 168.898 260.775 166.587 261.235 164.093C261.325 163.601 261.746 163.229 262.247 163.229H264.857C265.409 163.229 265.857 162.781 265.857 162.229V159.493C265.857 158.941 265.409 158.493 264.857 158.493H262.247C261.746 158.493 261.325 158.122 261.235 157.629C260.775 155.135 259.792 152.824 258.405 150.813C258.12 150.4 258.155 149.839 258.51 149.485L260.352 147.645C260.744 147.255 260.744 146.62 260.352 146.23L258.413 144.294C258.023 143.904 257.391 143.904 257 144.294L255.153 146.138C254.799 146.492 254.239 146.527 253.827 146.243C251.811 144.857 249.495 143.875 246.995 143.416C246.502 143.326 246.13 142.905 246.13 142.403V139.802C246.13 139.25 245.682 138.802 245.13 138.802H242.385ZM243.757 174.663C251.394 174.663 257.585 168.484 257.585 160.862C257.585 153.239 251.394 147.06 243.757 147.06C236.121 147.06 229.93 153.239 229.93 160.862C229.93 168.484 236.121 174.663 243.757 174.663Z" fill="#63B7AF"/>
<path fill-rule="evenodd" clip-rule="evenodd" d="M117.983 22.9744C117.431 22.9744 116.983 23.4221 116.983 23.9744V24.2985C116.983 24.7998 116.61 25.2174 116.122 25.3331C115.208 25.5499 114.35 25.91 113.573 26.3883C113.147 26.6505 112.589 26.6188 112.235 26.2653L112 26.0315C111.61 25.6419 110.978 25.6419 110.588 26.0315L110.355 26.2641C109.963 26.6547 109.963 27.2889 110.355 27.6796L110.584 27.9085C110.939 28.2629 110.971 28.8225 110.707 29.2495C110.229 30.0243 109.869 30.8794 109.652 31.7899C109.536 32.2773 109.119 32.6501 108.618 32.6501H108.289C107.737 32.6501 107.289 33.0978 107.289 33.6501V33.9772C107.289 34.5295 107.737 34.9772 108.289 34.9772H108.618C109.119 34.9772 109.536 35.35 109.652 35.8374C109.869 36.7479 110.229 37.6031 110.707 38.3779C110.971 38.8049 110.939 39.3645 110.584 39.7189L110.355 39.9478C109.963 40.3385 109.963 40.9727 110.355 41.3633L110.587 41.5959C110.978 41.9855 111.61 41.9855 112 41.5959L112.235 41.3621C112.589 41.0086 113.146 40.9769 113.573 41.2391C114.35 41.7174 115.208 42.0776 116.122 42.2943C116.61 42.41 116.983 42.8276 116.983 43.3289V43.653C116.983 44.2053 117.431 44.653 117.983 44.653H118.314C118.867 44.653 119.314 44.2053 119.314 43.653V43.3289C119.314 42.8276 119.687 42.41 120.175 42.2943C121.089 42.0776 121.947 41.7174 122.724 41.2391C123.15 40.9769 123.708 41.0086 124.062 41.3621L124.297 41.5958C124.687 41.9855 125.319 41.9855 125.709 41.5958L125.942 41.3632C126.334 40.9725 126.334 40.3384 125.942 39.9477L125.713 39.7188C125.358 39.3644 125.326 38.8048 125.59 38.3778C126.068 37.603 126.428 36.7479 126.644 35.8374C126.761 35.35 127.178 34.9772 127.679 34.9772H128.008C128.56 34.9772 129.008 34.5295 129.008 33.9772V33.6501C129.008 33.0978 128.56 32.6501 128.008 32.6501H127.679C127.178 32.6501 126.761 32.2773 126.644 31.7899C126.428 30.8794 126.068 30.0243 125.59 29.2495C125.326 28.8225 125.358 28.2629 125.713 27.9085L125.942 27.6796C126.334 27.2889 126.334 26.6547 125.942 26.2641L125.709 26.0315C125.319 25.6419 124.687 25.6419 124.296 26.0316L124.062 26.2653C123.708 26.6187 123.15 26.6505 122.724 26.3883C121.947 25.91 121.089 25.5499 120.175 25.3331C119.687 25.2174 119.314 24.7998 119.314 24.2985V23.9744C119.314 23.4221 118.867 22.9744 118.314 22.9744H117.983ZM118.148 40.5961C121.901 40.5961 124.943 37.5597 124.943 33.8141C124.943 30.0684 121.901 27.032 118.148 27.032C114.396 27.032 111.354 30.0684 111.354 33.8141C111.354 37.5597 114.396 40.5961 118.148 40.5961Z" fill="#63B7AF"/>
<path opacity="0.4" fill-rule="evenodd" clip-rule="evenodd" d="M137.361 70.0758C136.998 70.0758 136.703 70.3728 136.703 70.7366C136.703 71.0688 136.455 71.3467 136.133 71.429C135.677 71.5457 135.246 71.726 134.85 71.9597C134.564 72.129 134.191 72.1064 133.956 71.8714C133.699 71.615 133.28 71.6124 133.023 71.8688C132.766 72.1258 132.768 72.5448 133.025 72.8019C133.26 73.0367 133.282 73.4087 133.113 73.6945C132.879 74.0886 132.698 74.5179 132.582 74.9727C132.499 75.295 132.219 75.5429 131.886 75.5429C131.523 75.5429 131.225 75.8372 131.225 76.2003C131.225 76.5634 131.523 76.8578 131.886 76.8578C132.219 76.8578 132.499 77.1057 132.582 77.428C132.698 77.8828 132.879 78.3121 133.113 78.7062C133.282 78.9921 133.26 79.364 133.025 79.5988C132.767 79.8559 132.766 80.2749 133.023 80.532C133.28 80.7884 133.699 80.7858 133.956 80.5294C134.191 80.2944 134.564 80.2717 134.85 80.441C135.246 80.6748 135.677 80.855 136.133 80.9717C136.455 81.054 136.703 81.332 136.703 81.6641C136.703 82.0279 136.998 82.3249 137.361 82.3249C137.725 82.3249 138.02 82.0279 138.02 81.6641C138.02 81.332 138.268 81.054 138.589 80.9717C139.046 80.855 139.477 80.6748 139.872 80.441C140.158 80.2717 140.531 80.2943 140.767 80.5294C141.024 80.7858 141.442 80.7883 141.699 80.5319C141.957 80.2748 141.955 79.8558 141.697 79.5988C141.462 79.364 141.44 78.992 141.61 78.7061C141.844 78.3121 142.024 77.8827 142.141 77.428C142.224 77.1057 142.503 76.8578 142.836 76.8578C143.199 76.8578 143.497 76.5634 143.497 76.2003C143.497 75.8372 143.199 75.5429 142.836 75.5429C142.503 75.5429 142.224 75.295 142.141 74.9727C142.024 74.5179 141.844 74.0886 141.61 73.6945C141.44 73.4087 141.462 73.0367 141.697 72.8019C141.955 72.5448 141.957 72.1258 141.699 71.8688C141.442 71.6124 141.024 71.615 140.767 71.8714C140.531 72.1064 140.158 72.129 139.872 71.9597C139.477 71.726 139.046 71.5457 138.589 71.429C138.268 71.3467 138.02 71.0688 138.02 70.7366C138.02 70.3728 137.725 70.0758 137.361 70.0758ZM137.361 80.0327C139.481 80.0327 141.2 78.317 141.2 76.2007C141.2 74.0843 139.481 72.3686 137.361 72.3686C135.241 72.3686 133.522 74.0843 133.522 76.2007C133.522 78.317 135.241 80.0327 137.361 80.0327Z" fill="#63B7AF"/>
<path opacity="0.4" fill-rule="evenodd" clip-rule="evenodd" d="M28.9883 59.8726C28.4361 59.8726 27.9883 60.3203 27.9883 60.8726V65.3483C27.9883 65.8496 27.6167 66.2713 27.1224 66.3546C23.3123 66.9972 19.7926 68.4932 16.7675 70.6384C16.3594 70.9278 15.7998 70.8923 15.4457 70.5388L12.2697 67.3686C11.8793 66.979 11.2471 66.979 10.8568 67.3686L7.51261 70.7065C7.1212 71.0971 7.12119 71.7313 7.51259 72.122L10.6838 75.2873C11.0388 75.6417 11.0745 76.2031 10.7837 76.6118C8.63588 79.6304 7.1382 83.142 6.49444 86.9434C6.41077 87.4375 5.98923 87.8088 5.48814 87.8088H1C0.447715 87.8088 0 88.2565 0 88.8088V93.5276C0 94.0799 0.447715 94.5276 1 94.5276H5.48814C5.98923 94.5276 6.41077 94.8989 6.49444 95.393C7.1382 99.1944 8.63587 102.706 10.7837 105.725C11.0745 106.134 11.0388 106.695 10.6838 107.049L7.51246 110.215C7.12104 110.605 7.12104 111.24 7.51246 111.63L10.8566 114.968C11.247 115.358 11.8791 115.358 12.2695 114.968L15.4456 111.798C15.7997 111.444 16.3592 111.409 16.7673 111.698C19.7924 113.844 23.3121 115.34 27.1224 115.982C27.6167 116.065 27.9883 116.487 27.9883 116.988V121.464C27.9883 122.016 28.4361 122.464 28.9883 122.464H33.7196C34.2719 122.464 34.7196 122.016 34.7196 121.464V116.988C34.7196 116.487 35.0912 116.065 35.5855 115.982C39.3956 115.34 42.9152 113.844 45.9402 111.698C46.3482 111.409 46.9078 111.444 47.2619 111.798L50.4379 114.968C50.8283 115.358 51.4605 115.358 51.8509 114.968L55.1951 111.63C55.5864 111.239 55.5864 110.605 55.195 110.214L52.0238 107.049C51.6688 106.695 51.6331 106.133 51.9239 105.725C54.0717 102.706 55.5694 99.1944 56.2132 95.393C56.2968 94.8989 56.7184 94.5276 57.2195 94.5276H61.7075C62.2597 94.5276 62.7075 94.0799 62.7075 93.5276V88.8088C62.7075 88.2565 62.2597 87.8088 61.7075 87.8088H57.2195C56.7184 87.8088 56.2968 87.4375 56.2132 86.9434C55.5694 83.142 54.0716 79.6304 51.9238 76.6118C51.6329 76.2031 51.6686 75.6417 52.0237 75.2873L55.1949 72.122C55.5863 71.7313 55.5863 71.0971 55.1948 70.7065L51.8507 67.3686C51.4603 66.979 50.8282 66.979 50.4378 67.3686L47.2619 70.5388C46.9078 70.8922 46.3482 70.9278 45.9401 70.6384C42.9152 68.4932 39.3955 66.9972 35.5855 66.3546C35.0912 66.2713 34.7196 65.8496 34.7196 65.3483V60.8726C34.7196 60.3203 34.2719 59.8726 33.7196 59.8726H28.9883ZM31.3533 110.751C42.1879 110.751 50.9711 101.984 50.9711 91.1695C50.9711 80.355 42.1879 71.5881 31.3533 71.5881C20.5188 71.5881 11.7356 80.355 11.7356 91.1695C11.7356 101.984 20.5188 110.751 31.3533 110.751Z" fill="#63B7AF"/>
<defs>
<filter id="filter0_d_4810_1145" x="199" y="96" width="82.5002" height="29.9532" filterUnits="userSpaceOnUse" color-interpolation-filters="sRGB">
<feFlood flood-opacity="0" result="BackgroundImageFix"/>
<feColorMatrix in="SourceAlpha" type="matrix" values="0 0 0 0 0 0 0 0 0 0 0 0 0 0 0 0 0 0 127 0" result="hardAlpha"/>
<feOffset dy="4"/>
<feGaussianBlur stdDeviation="2"/>
<feComposite in2="hardAlpha" operator="out"/>
<feColorMatrix type="matrix" values="0 0 0 0 0 0 0 0 0 0 0 0 0 0 0 0 0 0 0.25 0"/>
<feBlend mode="normal" in2="BackgroundImageFix" result="effect1_dropShadow_4810_1145"/>
<feBlend mode="normal" in="SourceGraphic" in2="effect1_dropShadow_4810_1145" result="shape"/>
</filter>
</defs>
</svg>
