<svg width="141" height="24" viewBox="0 0 141 24" fill="none" xmlns="http://www.w3.org/2000/svg">
<path d="M37.2977 18H33.3423V5.78182H37.423C38.6202 5.78182 39.6483 6.02642 40.5074 6.51563C41.3665 7.00085 42.0247 7.69886 42.4821 8.60966C42.9435 9.51648 43.1741 10.6043 43.1741 11.873C43.1741 13.1457 42.9415 14.2395 42.4761 15.1543C42.0148 16.069 41.3466 16.773 40.4716 17.2662C39.5966 17.7554 38.5386 18 37.2977 18ZM35.1858 16.3892H37.1963C38.127 16.3892 38.9006 16.2142 39.517 15.8642C40.1335 15.5102 40.5949 14.9991 40.9011 14.331C41.2074 13.6588 41.3605 12.8395 41.3605 11.873C41.3605 10.9145 41.2074 10.1011 40.9011 9.43295C40.5989 8.76477 40.1474 8.25767 39.5469 7.91165C38.9463 7.56563 38.2006 7.39261 37.3097 7.39261H35.1858V16.3892ZM47.9901 18.2028C47.4094 18.2028 46.8844 18.0955 46.4151 17.8807C45.9458 17.6619 45.5739 17.3457 45.2995 16.9321C45.029 16.5185 44.8938 16.0114 44.8938 15.4108C44.8938 14.8938 44.9933 14.4682 45.1921 14.1341C45.391 13.8 45.6594 13.5355 45.9975 13.3406C46.3356 13.1457 46.7134 12.9986 47.131 12.8991C47.5486 12.7997 47.9742 12.7241 48.4077 12.6724C48.9566 12.6088 49.4021 12.5571 49.7441 12.5173C50.0861 12.4736 50.3347 12.404 50.4898 12.3085C50.645 12.2131 50.7225 12.058 50.7225 11.8432V11.8014C50.7225 11.2804 50.5754 10.8767 50.281 10.5903C49.9907 10.304 49.5572 10.1608 48.9805 10.1608C48.3799 10.1608 47.9066 10.294 47.5606 10.5605C47.2185 10.823 46.9819 11.1153 46.8506 11.4375L45.1742 11.0557C45.3731 10.4989 45.6634 10.0494 46.0452 9.70739C46.431 9.36136 46.8745 9.1108 47.3756 8.95568C47.8768 8.79659 48.4038 8.71705 48.9566 8.71705C49.3225 8.71705 49.7103 8.7608 50.12 8.8483C50.5336 8.93182 50.9194 9.08693 51.2773 9.31364C51.6393 9.54034 51.9356 9.86449 52.1663 10.2861C52.3969 10.7037 52.5123 11.2466 52.5123 11.9148V18H50.7702V16.7472H50.6986C50.5833 16.9778 50.4103 17.2045 50.1796 17.4273C49.9489 17.65 49.6526 17.8349 49.2907 17.9821C48.9288 18.1293 48.4952 18.2028 47.9901 18.2028ZM48.3779 16.771C48.8711 16.771 49.2927 16.6736 49.6427 16.4787C49.9967 16.2838 50.2651 16.0293 50.4481 15.7151C50.635 15.3969 50.7285 15.0568 50.7285 14.6949V13.5136C50.6648 13.5773 50.5415 13.6369 50.3586 13.6926C50.1796 13.7443 49.9748 13.7901 49.7441 13.8298C49.5134 13.8656 49.2887 13.8994 49.07 13.9313C48.8512 13.9591 48.6683 13.983 48.5211 14.0028C48.1751 14.0466 47.8589 14.1202 47.5725 14.2236C47.2901 14.327 47.0634 14.4761 46.8924 14.671C46.7254 14.8619 46.6418 15.1165 46.6418 15.4347C46.6418 15.8761 46.8049 16.2102 47.131 16.4369C47.4572 16.6597 47.8728 16.771 48.3779 16.771ZM59.1658 8.83636V10.2682H54.1604V8.83636H59.1658ZM55.5027 6.64091H57.2865V15.3094C57.2865 15.6554 57.3382 15.9159 57.4416 16.0909C57.545 16.2619 57.6783 16.3793 57.8413 16.4429C58.0084 16.5026 58.1893 16.5324 58.3842 16.5324C58.5274 16.5324 58.6527 16.5224 58.7601 16.5026C58.8675 16.4827 58.951 16.4668 59.0107 16.4548L59.3328 17.9284C59.2294 17.9682 59.0822 18.008 58.8913 18.0477C58.7004 18.0915 58.4618 18.1153 58.1754 18.1193C57.7061 18.1273 57.2686 18.0437 56.8629 17.8688C56.4572 17.6938 56.1291 17.4233 55.8785 17.0574C55.628 16.6915 55.5027 16.2321 55.5027 15.6793V6.64091ZM63.8058 18.2028C63.2251 18.2028 62.7001 18.0955 62.2308 17.8807C61.7614 17.6619 61.3896 17.3457 61.1151 16.9321C60.8447 16.5185 60.7094 16.0114 60.7094 15.4108C60.7094 14.8938 60.8089 14.4682 61.0077 14.1341C61.2066 13.8 61.4751 13.5355 61.8131 13.3406C62.1512 13.1457 62.529 12.9986 62.9467 12.8991C63.3643 12.7997 63.7898 12.7241 64.2234 12.6724C64.7722 12.6088 65.2177 12.5571 65.5597 12.5173C65.9018 12.4736 66.1504 12.404 66.3055 12.3085C66.4606 12.2131 66.5381 12.058 66.5381 11.8432V11.8014C66.5381 11.2804 66.391 10.8767 66.0967 10.5903C65.8063 10.304 65.3728 10.1608 64.7961 10.1608C64.1955 10.1608 63.7222 10.294 63.3762 10.5605C63.0342 10.823 62.7975 11.1153 62.6663 11.4375L60.9898 11.0557C61.1887 10.4989 61.479 10.0494 61.8609 9.70739C62.2467 9.36136 62.6901 9.1108 63.1913 8.95568C63.6924 8.79659 64.2194 8.71705 64.7722 8.71705C65.1381 8.71705 65.5259 8.7608 65.9356 8.8483C66.3492 8.93182 66.735 9.08693 67.093 9.31364C67.4549 9.54034 67.7512 9.86449 67.9819 10.2861C68.2126 10.7037 68.3279 11.2466 68.3279 11.9148V18H66.5859V16.7472H66.5143C66.3989 16.9778 66.2259 17.2045 65.9952 17.4273C65.7646 17.65 65.4683 17.8349 65.1063 17.9821C64.7444 18.1293 64.3109 18.2028 63.8058 18.2028ZM64.1935 16.771C64.6867 16.771 65.1083 16.6736 65.4583 16.4787C65.8123 16.2838 66.0808 16.0293 66.2637 15.7151C66.4506 15.3969 66.5441 15.0568 66.5441 14.6949V13.5136C66.4805 13.5773 66.3572 13.6369 66.1742 13.6926C65.9952 13.7443 65.7904 13.7901 65.5597 13.8298C65.329 13.8656 65.1043 13.8994 64.8856 13.9313C64.6668 13.9591 64.4839 13.983 64.3367 14.0028C63.9907 14.0466 63.6745 14.1202 63.3881 14.2236C63.1058 14.327 62.879 14.4761 62.708 14.671C62.541 14.8619 62.4575 15.1165 62.4575 15.4347C62.4575 15.8761 62.6205 16.2102 62.9467 16.4369C63.2728 16.6597 63.6884 16.771 64.1935 16.771ZM81.957 8.99148C81.8934 8.4267 81.6309 7.9892 81.1695 7.67898C80.7082 7.36477 80.1275 7.20767 79.4275 7.20767C78.9263 7.20767 78.4928 7.28722 78.1269 7.44631C77.761 7.60142 77.4766 7.81619 77.2738 8.09063C77.0749 8.36108 76.9755 8.66932 76.9755 9.01534C76.9755 9.30568 77.0431 9.55625 77.1783 9.76705C77.3175 9.97784 77.4985 10.1548 77.7212 10.298C77.9479 10.4372 78.1906 10.5545 78.4491 10.65C78.7076 10.7415 78.9562 10.817 79.1948 10.8767L80.388 11.1869C80.7778 11.2824 81.1775 11.4116 81.5871 11.5747C81.9968 11.7378 82.3766 11.9526 82.7266 12.219C83.0766 12.4855 83.359 12.8156 83.5738 13.2094C83.7925 13.6031 83.9019 14.0744 83.9019 14.6233C83.9019 15.3153 83.7229 15.9298 83.365 16.4668C83.011 17.0037 82.4959 17.4273 81.8198 17.7375C81.1477 18.0477 80.3343 18.2028 79.3798 18.2028C78.465 18.2028 77.6735 18.0577 77.0053 17.7673C76.3371 17.477 75.8141 17.0653 75.4363 16.5324C75.0584 15.9955 74.8496 15.3591 74.8099 14.6233H76.6593C76.6951 15.0648 76.8383 15.4327 77.0888 15.727C77.3434 16.0173 77.6675 16.2341 78.0613 16.3773C78.459 16.5165 78.8945 16.5861 79.3678 16.5861C79.8888 16.5861 80.3522 16.5045 80.7579 16.3415C81.1675 16.1744 81.4897 15.9438 81.7244 15.6494C81.959 15.3511 82.0763 15.0031 82.0763 14.6054C82.0763 14.2435 81.9729 13.9472 81.7661 13.7165C81.5633 13.4858 81.2869 13.2949 80.9369 13.1438C80.5908 12.9926 80.1991 12.8594 79.7616 12.744L78.3178 12.3503C77.3394 12.0838 76.5638 11.692 75.9911 11.175C75.4224 10.658 75.138 9.97386 75.138 9.12273C75.138 8.41875 75.3289 7.80426 75.7107 7.27926C76.0925 6.75426 76.6096 6.34659 77.2619 6.05625C77.9141 5.76193 78.6499 5.61477 79.4692 5.61477C80.2965 5.61477 81.0263 5.75994 81.6587 6.05028C82.2951 6.34063 82.7962 6.74034 83.1621 7.24943C83.5281 7.75455 83.719 8.33523 83.7349 8.99148H81.957ZM89.9111 18.1849C89.0082 18.1849 88.2307 17.992 87.5784 17.6063C86.9301 17.2165 86.429 16.6696 86.075 15.9656C85.725 15.2577 85.55 14.4284 85.55 13.4778C85.55 12.5392 85.725 11.7119 86.075 10.996C86.429 10.2801 86.9222 9.72131 87.5545 9.3196C88.1909 8.9179 88.9347 8.71705 89.7858 8.71705C90.3028 8.71705 90.804 8.80256 91.2892 8.97358C91.7744 9.1446 92.2099 9.41307 92.5957 9.77898C92.9815 10.1449 93.2858 10.6202 93.5085 11.2048C93.7312 11.7855 93.8426 12.4915 93.8426 13.3227V13.9551H86.5582V12.6188H92.0946C92.0946 12.1494 91.9991 11.7338 91.8082 11.3719C91.6173 11.006 91.3489 10.7176 91.0028 10.5068C90.6608 10.296 90.2591 10.1906 89.7977 10.1906C89.2966 10.1906 88.8591 10.3139 88.4852 10.5605C88.1153 10.8031 87.829 11.1213 87.6261 11.5151C87.4273 11.9048 87.3278 12.3284 87.3278 12.7858V13.8298C87.3278 14.4423 87.4352 14.9634 87.65 15.3929C87.8687 15.8224 88.173 16.1506 88.5628 16.3773C88.9526 16.6 89.408 16.7114 89.929 16.7114C90.267 16.7114 90.5753 16.6636 90.8537 16.5682C91.1321 16.4688 91.3727 16.3216 91.5756 16.1267C91.7784 15.9318 91.9335 15.6912 92.0409 15.4048L93.7293 15.7091C93.594 16.2062 93.3514 16.6418 93.0014 17.0156C92.6554 17.3855 92.2199 17.6739 91.6949 17.8807C91.1739 18.0835 90.5793 18.1849 89.9111 18.1849ZM99.6817 18.1849C98.7948 18.1849 98.0312 17.9841 97.3908 17.5824C96.7545 17.1767 96.2653 16.6179 95.9232 15.906C95.5812 15.194 95.4102 14.3787 95.4102 13.4599C95.4102 12.5293 95.5852 11.708 95.9352 10.996C96.2852 10.2801 96.7783 9.72131 97.4147 9.3196C98.0511 8.9179 98.8008 8.71705 99.6638 8.71705C100.36 8.71705 100.98 8.84631 101.525 9.10483C102.07 9.35938 102.51 9.71733 102.844 10.1787C103.182 10.6401 103.383 11.179 103.446 11.7955H101.71C101.615 11.3659 101.396 10.996 101.054 10.6858C100.716 10.3756 100.262 10.2205 99.6937 10.2205C99.1965 10.2205 98.761 10.3517 98.3871 10.6142C98.0173 10.8727 97.7289 11.2426 97.5221 11.7239C97.3153 12.2011 97.2119 12.7659 97.2119 13.4182C97.2119 14.0864 97.3133 14.6631 97.5161 15.1483C97.719 15.6335 98.0053 16.0094 98.3752 16.2759C98.7491 16.5423 99.1886 16.6756 99.6937 16.6756C100.032 16.6756 100.338 16.6139 100.612 16.4906C100.891 16.3634 101.124 16.1824 101.31 15.9477C101.501 15.7131 101.635 15.4307 101.71 15.1006H103.446C103.383 15.6932 103.19 16.2222 102.868 16.6875C102.545 17.1528 102.114 17.5187 101.573 17.7852C101.036 18.0517 100.406 18.1849 99.6817 18.1849ZM111.159 14.1997V8.83636H112.948V18H111.194V16.4131H111.099C110.888 16.9023 110.55 17.3099 110.085 17.6361C109.623 17.9582 109.049 18.1193 108.361 18.1193C107.772 18.1193 107.251 17.9901 106.798 17.7315C106.348 17.469 105.994 17.0813 105.736 16.5682C105.481 16.0551 105.354 15.4207 105.354 14.6651V8.83636H107.138V14.4503C107.138 15.0747 107.311 15.5719 107.657 15.9418C108.003 16.3116 108.452 16.4966 109.005 16.4966C109.339 16.4966 109.671 16.4131 110.001 16.246C110.335 16.079 110.612 15.8264 110.831 15.4884C111.053 15.1503 111.163 14.7207 111.159 14.1997ZM115.345 18V8.83636H117.069V10.292H117.165C117.332 9.79886 117.626 9.41108 118.048 9.12869C118.473 8.84233 118.955 8.69915 119.492 8.69915C119.603 8.69915 119.734 8.70313 119.885 8.71108C120.04 8.71903 120.162 8.72898 120.249 8.74091V10.4472C120.178 10.4273 120.05 10.4054 119.867 10.3815C119.684 10.3537 119.501 10.3398 119.319 10.3398C118.897 10.3398 118.521 10.4293 118.191 10.6082C117.865 10.7832 117.606 11.0278 117.415 11.342C117.224 11.6523 117.129 12.0063 117.129 12.404V18H115.345ZM121.793 18V8.83636H123.577V18H121.793ZM122.694 7.42244C122.384 7.42244 122.117 7.31903 121.894 7.11222C121.676 6.90142 121.566 6.65085 121.566 6.36051C121.566 6.06619 121.676 5.81563 121.894 5.60881C122.117 5.39801 122.384 5.29261 122.694 5.29261C123.004 5.29261 123.268 5.39801 123.487 5.60881C123.71 5.81563 123.821 6.06619 123.821 6.36051C123.821 6.65085 123.71 6.90142 123.487 7.11222C123.268 7.31903 123.004 7.42244 122.694 7.42244ZM130.254 8.83636V10.2682H125.249V8.83636H130.254ZM126.591 6.64091H128.375V15.3094C128.375 15.6554 128.426 15.9159 128.53 16.0909C128.633 16.2619 128.767 16.3793 128.93 16.4429C129.097 16.5026 129.278 16.5324 129.473 16.5324C129.616 16.5324 129.741 16.5224 129.848 16.5026C129.956 16.4827 130.039 16.4668 130.099 16.4548L130.421 17.9284C130.318 17.9682 130.171 18.008 129.98 18.0477C129.789 18.0915 129.55 18.1153 129.264 18.1193C128.794 18.1273 128.357 18.0437 127.951 17.8688C127.546 17.6938 127.217 17.4233 126.967 17.0574C126.716 16.6915 126.591 16.2321 126.591 15.6793V6.64091ZM133.355 21.4364C133.088 21.4364 132.846 21.4145 132.627 21.3707C132.408 21.331 132.245 21.2872 132.138 21.2395L132.567 19.7778C132.893 19.8653 133.184 19.9031 133.438 19.8912C133.693 19.8793 133.918 19.7838 134.112 19.6048C134.311 19.4259 134.486 19.1335 134.637 18.7278L134.858 18.1193L131.505 8.83636H133.414L135.735 15.9477H135.831L138.151 8.83636H140.066L136.29 19.223C136.115 19.7003 135.892 20.104 135.622 20.4341C135.351 20.7682 135.029 21.0188 134.655 21.1858C134.282 21.3528 133.848 21.4364 133.355 21.4364Z" fill="#01655E"/>
<path fill-rule="evenodd" clip-rule="evenodd" d="M19 8.3C19 8.51172 18.9875 8.72099 18.9633 8.92733C19.5813 9.21317 20 9.76551 20 10.4V21.32C20 22.2478 19.1046 23 18 23H5C3.89539 23 3 22.2478 3 21.32V10.4C3 9.76551 3.4187 9.21317 4.03674 8.92733C4.01245 8.72099 4 8.51172 4 8.3C4 4.82061 7.35791 2 11.5 2C15.6421 2 19 4.82061 19 8.3ZM16.1217 8.3C16.1217 8.4419 16.1127 8.58203 16.095 8.72H6.90503C6.88733 8.58203 6.8783 8.4419 6.8783 8.3C6.8783 6.15591 8.94751 4.41778 11.5 4.41778C14.0525 4.41778 16.1217 6.15591 16.1217 8.3ZM13.1207 13.5686C13.1207 14.4638 12.395 15.1895 11.4999 15.1895C10.6046 15.1895 9.87891 14.4638 9.87891 13.5686C9.87891 12.6734 10.6046 11.9477 11.4999 11.9477C12.395 11.9477 13.1207 12.6734 13.1207 13.5686ZM15.5524 20.0523C15.5524 18.9776 15.1255 17.9469 14.3655 17.1869C13.6055 16.4269 12.5748 16 11.5001 16C10.4253 16 9.39465 16.4269 8.63464 17.1869C7.87463 17.9469 7.44775 18.9776 7.44775 20.0523H15.5524Z" fill="#01655E"/>
</svg>
