<svg width="452" height="452" viewBox="0 0 452 452" fill="none" xmlns="http://www.w3.org/2000/svg">
<circle cx="226" cy="226" r="226" fill="#FBFBFB"/>
<path d="M350 57C350 55.3431 351.343 54 353 54H394C395.657 54 397 55.3431 397 57V91.25C397 92.9069 395.657 94.25 394 94.25H383.944L377.852 103L371.759 94.25H353C351.343 94.25 350 92.9069 350 91.25V57Z" fill="#E1DEDE"/>
<path d="M412 88C412 86.3431 410.657 85 409 85H389C387.343 85 386 86.3431 386 88V105.821C386 107.478 387.343 108.821 389 108.821H393.222L396.593 114L399.963 108.821H409C410.657 108.821 412 107.478 412 105.821V88Z" fill="#F3F3F3"/>
<g opacity="0.5">
<path opacity="0.9" d="M396.964 243.688L388.079 225.871C387.822 225.356 387.371 224.964 386.825 224.777L365.18 217.404C362.902 216.628 360.435 217.825 359.668 220.078L344.389 264.931C343.622 267.184 344.845 269.638 347.123 270.413L380.106 281.649C382.384 282.425 384.851 281.228 385.618 278.975L397.077 245.335C397.261 244.795 397.221 244.203 396.964 243.688ZM374.66 263.866L358.169 258.248C357.031 257.861 356.418 256.633 356.802 255.507C357.185 254.382 358.42 253.783 359.558 254.171L376.049 259.788C377.187 260.176 377.8 261.404 377.416 262.529C377.033 263.655 375.798 264.254 374.66 263.866ZM381.561 257.115L360.947 250.093C359.809 249.706 359.196 248.478 359.58 247.352C359.963 246.227 361.198 245.628 362.336 246.016L382.95 253.038C384.088 253.425 384.701 254.653 384.317 255.779C383.934 256.904 382.699 257.503 381.561 257.115ZM382.3 241.439C381.162 241.051 380.549 239.823 380.933 238.698L384.472 228.308L392.805 245.017L382.3 241.439Z" fill="#FBA43F"/>
</g>
<path opacity="0.5" d="M21.6364 120C20.7323 120 20 120.732 20 121.636V133.091C20 133.995 20.7323 134.727 21.6364 134.727H33.0909C33.995 134.727 34.7273 133.995 34.7273 133.091V121.636C34.7273 120.732 33.9942 120 33.0909 120H21.6364ZM32.2727 123.273C32.482 123.273 32.6913 123.352 32.8512 123.512C33.1711 123.832 33.1711 124.349 32.8512 124.669L26.6653 130.855C26.5115 131.009 26.3036 131.095 26.0868 131.095C25.87 131.095 25.6613 131.009 25.5083 130.855L22.6831 128.03C22.3632 127.71 22.3632 127.193 22.6831 126.873C23.003 126.553 23.5201 126.553 23.84 126.873L26.0868 129.12L31.6942 123.512C31.8542 123.352 32.0635 123.273 32.2727 123.273ZM36.3636 123.273V133.091C36.3636 134.898 34.8983 136.364 33.0909 136.364H23.2727C23.2727 137.268 24.005 138 24.9091 138H36.3636C37.2677 138 38 137.268 38 136.364V124.909C38 124.005 37.2669 123.273 36.3636 123.273Z" fill="#FBA43F"/>
<path d="M290.608 443C322.64 443 348.608 441.433 348.608 439.5C348.608 437.567 322.64 436 290.608 436C258.575 436 232.608 437.567 232.608 439.5C232.608 441.433 258.575 443 290.608 443Z" fill="#C4C4C4"/>
<path d="M283.538 158.47L284.338 140.71L303.548 133.65L302.468 158.19L318.118 164.75L284.698 181.93L266.348 164.37L283.538 158.47Z" fill="#FBA43F"/>
<path opacity="0.2" d="M302.778 151.09L303.558 133.65L284.348 140.71L283.608 156.89C290.242 155.883 296.698 153.93 302.778 151.09Z" fill="#35495E"/>
<path d="M302.978 140.54C302.978 140.54 295.978 154.61 280.408 151.87C269.468 149.95 268.658 134.49 270.208 119.19C272.638 95.3701 280.408 94.4001 292.048 96.1901C318.418 100.24 302.978 140.54 302.978 140.54Z" fill="#FBA43F"/>
<path d="M309.318 98.6301C305.318 102.19 304.988 99.4501 301.098 103.16C294.918 114.88 302.628 119.38 302.628 119.38L301.758 127.82L305.058 128.89L303.418 138.39C303.418 138.39 310.658 130.31 314.258 114.16C316.918 102.14 313.058 98.4601 309.318 98.6301Z" fill="#35495E"/>
<path d="M303.558 135.07L305.748 120.59C305.748 120.59 311.148 119.26 311.468 124.1C311.788 128.94 308.168 134.79 303.558 135.07Z" fill="#FBA43F"/>
<path d="M301.908 86.69C298.828 85.48 295.068 85.52 291.328 86.1C289.101 86.3456 286.89 86.7229 284.708 87.23C278.928 88.57 274.628 82.63 274.628 82.63C273.438 86.63 276.108 87.83 276.108 87.83C270.178 86.83 270.918 81 270.918 81C264.838 87.83 270.178 96.13 270.178 96.13L267.508 95.69C271.319 100.602 276.824 103.918 282.948 104.99L279.798 105.43C290.708 112.11 304.668 106.15 304.668 106.15L304.838 106.06C306.178 105.546 307.342 104.659 308.193 103.503C309.044 102.348 309.545 100.972 309.638 99.54C310.488 91.67 306.788 88.1 301.908 86.69Z" fill="#35495E"/>
<path d="M269.818 128.4C269.818 128.4 263.158 150.47 278.358 152.76C293.558 155.05 305.428 150.69 304.598 129.66L306.348 116.66L302.628 119.33C302.628 119.33 300.308 143.81 293.628 142.92C290.118 142.45 297.008 134.98 285.018 135.01C276.898 135.01 272.598 132.9 272.108 141.67C271.908 145.47 269.818 137.56 269.818 128.4Z" fill="#35495E"/>
<path d="M305.058 132.63C305.479 132.374 305.886 132.097 306.278 131.8C306.45 131.66 306.614 131.51 306.768 131.35C306.898 131.212 307.002 131.053 307.078 130.88C307.086 130.814 307.086 130.746 307.078 130.68C307.092 130.624 307.092 130.566 307.078 130.51C307.078 130.51 307.078 130.43 307.078 130.45L306.998 130.29C306.938 130.19 306.888 130.05 306.838 129.98C306.786 129.921 306.739 129.857 306.698 129.79L306.528 129.65C306.478 129.65 306.438 129.59 306.408 129.59C306.378 129.59 306.298 129.59 306.408 129.59L305.598 128.89C305.624 127.59 305.837 126.3 306.228 125.06C306.348 124.743 306.485 124.432 306.638 124.13C306.808 123.797 307.047 123.504 307.338 123.27C307.51 123.127 307.725 123.046 307.948 123.04C308.158 123.033 308.364 123.093 308.538 123.21C308.804 123.423 309.013 123.698 309.148 124.01C308.912 123.827 308.644 123.688 308.358 123.6C308.259 123.566 308.152 123.569 308.055 123.608C307.957 123.646 307.877 123.718 307.828 123.81C307.696 124.027 307.599 124.263 307.538 124.51C307.458 124.789 307.395 125.073 307.348 125.36C307.148 126.52 307.058 127.75 306.958 128.94L306.138 128.25C306.385 128.21 306.638 128.241 306.868 128.34C307.049 128.414 307.218 128.515 307.368 128.64C307.493 128.762 307.61 128.893 307.718 129.03C307.798 129.18 307.888 129.33 307.958 129.48C308.028 129.63 308.048 129.72 308.098 129.84L308.158 130.01C308.189 130.108 308.209 130.208 308.218 130.31C308.265 130.677 308.18 131.05 307.978 131.36C307.814 131.618 307.591 131.834 307.328 131.99C307.1 132.137 306.855 132.254 306.598 132.34C306.103 132.517 305.583 132.615 305.058 132.63Z" fill="#C66258"/>
<path d="M210.608 235.5L215.608 250.5L224.608 245.5V232L217.108 231.5L210.608 235.5Z" fill="#FA9836"/>
<path d="M280.668 402.18L279.418 439.89C279.418 439.89 221.248 446.3 268.078 432.01L270.788 413.01L280.668 402.18Z" fill="#213344"/>
<path d="M279.878 430.09L279.728 400.31L270.778 412.99L268.518 428.87L279.878 430.09Z" fill="#213344"/>
<path d="M303.198 409.89L304.618 440.03C304.618 440.03 362.288 450.85 316.398 433.03L314.818 413.89L303.198 409.89Z" fill="#213344"/>
<path d="M304.278 432.8L303.198 409.89L314.818 413.89L316.138 429.89C312.208 431 308.258 431.96 304.278 432.8Z" fill="#213344"/>
<path d="M261.058 256.97C261.058 256.97 257.058 310.89 266.878 427.89L281.248 426.6L287.838 293.03L291.838 292.93L303.268 427.75L317.718 427.34L320.868 257.6L261.058 256.97Z" fill="#63B7AF"/>
<path opacity="0.2" d="M260.258 291.47C260.258 319.26 261.548 364.24 266.878 427.89L281.248 426.6L287.798 293.83C278.608 293.15 269.438 292.32 260.258 291.47Z" fill="#213344"/>
<path d="M271.158 259.89L261.058 259.74L260.118 263.94L270.818 264.35C270.918 262.89 271.058 261.4 271.158 259.89Z" fill="#213344"/>
<path d="M308.138 260.49L273.958 259.96C273.828 261.46 273.718 262.96 273.608 264.47L307.908 265.78C308.058 264.02 308.058 262.25 308.138 260.49Z" fill="#213344"/>
<path d="M310.938 260.53C310.878 262.32 310.798 264.1 310.708 265.89L321.288 266.29V260.69L310.938 260.53Z" fill="#213344"/>
<path d="M284.368 258.68L284.238 266.12C284.238 266.12 294.168 266.89 294.168 266.4C294.168 265.91 294.418 258.84 294.418 258.84L284.368 258.68ZM292.368 264.82C292.368 265.1 286.518 264.65 286.518 264.65L286.598 260.27L292.508 260.37C292.508 260.37 292.398 264.53 292.398 264.82H292.368Z" fill="white"/>
<path d="M261.058 256.97C259.852 254.609 258.813 252.166 257.948 249.66C256.698 245.92 254.518 162.19 256.388 162.19C258.258 162.19 279.108 158.77 279.108 158.77L288.448 161.88L288.758 169.66L290.938 161.88L302.468 158.19C302.468 158.19 325.178 164.37 329.538 167.48C333.898 170.59 327.708 254.33 320.838 257.6L261.058 256.97Z" fill="#35495E"/>
<path d="M241.108 219.5L256.608 162V218.5L251.608 232L224.108 245.5V232L241.108 219.5Z" fill="#35495E"/>
<path opacity="0.5" d="M256.418 220.37C256.878 235.63 257.478 248.26 257.948 249.66C258.813 252.166 259.853 254.609 261.058 256.97L320.838 257.6C325.778 255.25 330.358 211.35 330.928 185.68C308.268 202.01 282.958 212.94 256.418 220.37Z" fill="#213344"/>
<path d="M286.618 164.33L292.798 164.91L294.668 168.06L291.518 172.15L295.288 230.67L284.708 245.3L275.368 230.67L286.388 171.45L284.278 168.18L286.618 164.33Z" fill="white"/>
<path d="M275.368 159.08L280.038 154.72L288.448 161.88L283.778 169.04L275.368 159.08Z" fill="#3F566B"/>
<path d="M306.808 157.83L303.698 151.92L290.938 161.88L295.608 169.04L306.808 157.83Z" fill="#3F566B"/>
<path d="M329.538 167.48C335.138 171.22 351.328 218.48 349.458 228.18C346.078 245.64 319.888 275.5 319.888 275.5C319.888 275.5 310.448 266.79 310.708 265.89C311.168 264.29 330.778 226.94 330.778 226.94C330.778 226.94 319.578 204.84 315.838 188.34C312.098 171.84 323.938 163.75 329.538 167.48Z" fill="#35495E"/>
<path d="M310.708 265.89L309.298 268.33L319.888 275.49L310.708 265.89Z" fill="#EE8572"/>
<path d="M176.608 272.89L173.098 289.11L167.838 291.54L166.958 271L176.608 272.89Z" fill="#FBA43F"/>
<path d="M170.748 171C172.498 186.91 186.118 236.43 177.968 273.21L164.278 274.14L170.748 175C172.728 173.4 168.868 172.72 170.748 171Z" fill="#569D9A"/>
<ellipse cx="135" cy="443.896" rx="69" ry="4" fill="#C4C4C4"/>
<path d="M140.378 164.448L139.568 146.51L120.176 139.381L121.275 164.168L105.461 170.787L139.218 188.135L155.972 167.498L140.378 164.448Z" fill="#FBA43F"/>
<g style="mix-blend-mode:multiply" opacity="0.2">
<path d="M120.955 156.989L120.175 139.371L139.568 146.51L140.307 162.878C133.609 161.849 127.092 159.866 120.955 156.989Z" fill="#FBA43F"/>
</g>
<path d="M120.975 146.75C120.975 146.75 127.853 160.539 143.536 157.749C154.582 155.809 155.412 140.191 153.842 124.753C151.393 100.695 143.546 99.7555 131.791 101.525C105.171 105.635 120.975 146.75 120.975 146.75Z" fill="#FBA43F"/>
<path d="M114.358 104.005C118.406 107.604 118.736 104.845 122.654 108.584C128.892 120.413 121.115 124.972 121.115 124.972L121.995 133.491L118.686 134.591L120.345 144.19C120.345 144.19 113.038 136.031 109.399 119.723C106.691 107.554 110.599 103.875 114.358 104.005Z" fill="#35495E"/>
<path d="M124.963 118.403C118.206 117.893 111.968 114.084 109.09 108.244C108.3 110.704 108.21 114.394 109.399 119.723C113.038 136.031 120.345 144.19 120.345 144.19L118.686 134.591L121.995 133.491L121.105 124.972C122.184 124.221 123.088 123.245 123.754 122.111C124.42 120.977 124.832 119.712 124.963 118.403Z" fill="#213344"/>
<path d="M120.175 140.811L117.956 126.182C117.956 126.182 112.508 124.853 112.188 129.732C111.869 134.611 115.517 140.521 120.175 140.811Z" fill="#FBA43F"/>
<path d="M119.106 111.604C119.106 111.604 133.201 117.603 144.206 110.874L138.928 110.134C138.928 110.134 150.524 109.254 154.043 102.205L150.674 103.675C150.674 103.675 156.102 98.0957 151.553 91.7864C151.553 91.7864 151.693 94.4261 149.934 95.786C148.175 97.1458 124.944 84.4773 117.197 95.636C109.45 106.795 119.106 111.604 119.106 111.604Z" fill="#35495E"/>
<path d="M118.626 138.341C118.107 138.329 117.594 138.231 117.107 138.051C116.849 137.956 116.601 137.835 116.367 137.691C116.101 137.532 115.875 137.313 115.707 137.051C115.5 136.74 115.414 136.362 115.467 135.991C115.477 135.889 115.497 135.789 115.527 135.691L115.587 135.511C115.587 135.391 115.657 135.291 115.727 135.151C115.797 135.011 115.887 134.851 115.977 134.701C116.083 134.562 116.2 134.432 116.327 134.312C116.477 134.183 116.645 134.079 116.827 134.002C117.06 133.903 117.316 133.872 117.567 133.912L116.737 134.611C116.637 133.412 116.547 132.162 116.347 130.992C116.3 130.705 116.237 130.421 116.157 130.142C116.097 129.89 115.996 129.65 115.857 129.432C115.807 129.341 115.727 129.269 115.631 129.229C115.535 129.189 115.428 129.183 115.328 129.212C115.039 129.306 114.769 129.448 114.528 129.632C114.662 129.317 114.876 129.041 115.148 128.832C115.317 128.705 115.526 128.641 115.737 128.652C115.964 128.656 116.183 128.737 116.357 128.882C116.651 129.12 116.893 129.416 117.067 129.752C117.22 130.058 117.357 130.372 117.477 130.692C117.866 131.943 118.082 133.242 118.116 134.551L117.297 135.261C117.407 135.261 117.297 135.261 117.297 135.261L117.167 135.331C117.117 135.331 117.067 135.431 117.007 135.471L116.867 135.661C116.802 135.76 116.745 135.864 116.697 135.971L116.617 136.141C116.617 136.141 116.617 136.141 116.617 136.191C116.603 136.247 116.603 136.306 116.617 136.361C116.604 136.427 116.604 136.495 116.617 136.561C116.686 136.739 116.788 136.902 116.917 137.041C117.074 137.205 117.241 137.358 117.417 137.501C117.801 137.808 118.205 138.088 118.626 138.341Z" fill="#C66258"/>
<path d="M151.093 412.19C151.443 413.19 152.473 444.916 154.202 445.266C155.931 445.616 222.995 453.265 164.588 436.997L167.337 383.143L151.093 412.19Z" fill="#FBA43F"/>
<path d="M152.312 438.267C152.312 438.267 153.162 446.326 154.222 446.326C155.281 446.326 187.489 449.716 188.978 446.536C190.468 443.356 167.147 436.997 167.147 436.997L164.148 440.817L152.312 438.267Z" fill="#347474"/>
<path d="M187.709 444.616C186.299 447.616 156.921 444.706 153.312 444.426C153.582 445.516 153.902 446.316 154.232 446.316C155.291 446.316 187.499 449.706 188.988 446.526C189.238 445.976 188.718 445.316 187.709 444.616Z" fill="white"/>
<path d="M124.443 412.19C124.104 413.19 123.074 444.916 121.345 445.266C119.615 445.616 52.5416 453.265 110.959 436.997L108.2 383.143L124.443 412.19Z" fill="#FBA43F"/>
<path d="M123.244 438.267C123.244 438.267 122.405 446.326 121.345 446.326C120.285 446.326 88.068 449.716 86.5886 446.536C85.1092 443.356 108.41 436.997 108.41 436.997L111.409 440.817L123.244 438.267Z" fill="#347474"/>
<path d="M87.8579 444.616C89.2773 447.616 118.646 444.706 122.254 444.426C121.985 445.516 121.675 446.316 121.345 446.316C120.285 446.316 88.0678 449.706 86.5884 446.526C86.3285 445.976 86.8482 445.316 87.8579 444.616Z" fill="white"/>
<path d="M107.781 269.486C107.781 269.486 103.992 380.993 106.521 426.548C106.521 426.548 112.199 433.347 126.703 427.228L142.467 298.723L150.034 427.228C150.034 427.228 157.601 432.667 167.697 425.868L173.365 257.248L107.781 269.486Z" fill="#35495E"/>
<path opacity="0.5" d="M142.597 300.852L150.034 427.198C150.034 427.198 157.601 432.637 167.697 425.838L172.245 290.524L142.597 300.852Z" fill="#213344"/>
<path opacity="0.5" d="M172.865 272.196L173.365 257.248L107.78 269.486C107.78 269.486 107.68 272.346 107.53 277.325C149.164 294.183 164.438 278.135 172.865 272.196Z" fill="#213344"/>
<path d="M119.606 163.608L134.02 172.747L140.398 185.015L146.635 164.148C146.635 164.148 164.158 164.038 171.016 171.747C177.873 179.456 174.015 267.316 174.015 267.316L148.624 281.024L145.306 269.856L144.446 281.644L105.251 270.716C105.251 270.716 96.8347 176.546 103.962 170.437C109.96 165.318 119.606 163.608 119.606 163.608Z" fill="#63B7AF"/>
<path opacity="0.2" d="M105.181 189.475C103.832 189.665 102.482 189.825 101.133 189.975C100.653 219.272 105.251 270.746 105.251 270.746L144.446 281.675L145.306 269.886L148.624 281.025L174.014 267.316C174.014 267.316 174.734 250.828 175.014 231.52C167.711 229.947 160.565 227.718 153.662 224.861C135.399 217.382 114.358 207.863 105.181 189.475Z" fill="#213344"/>
<path d="M139.738 189.535C139.738 189.917 139.851 190.29 140.063 190.607C140.275 190.925 140.576 191.172 140.929 191.318C141.281 191.464 141.669 191.503 142.043 191.428C142.418 191.354 142.761 191.17 143.031 190.9C143.301 190.63 143.485 190.286 143.559 189.912C143.634 189.537 143.595 189.149 143.449 188.797C143.303 188.444 143.056 188.143 142.739 187.93C142.422 187.718 142.049 187.605 141.667 187.605C141.155 187.605 140.665 187.809 140.303 188.171C139.941 188.532 139.738 189.023 139.738 189.535Z" fill="#80CEC4"/>
<path d="M143.806 263.457C143.806 263.839 143.919 264.212 144.131 264.529C144.343 264.846 144.645 265.094 144.997 265.24C145.35 265.386 145.738 265.424 146.112 265.35C146.486 265.275 146.83 265.091 147.1 264.822C147.369 264.552 147.553 264.208 147.628 263.833C147.702 263.459 147.664 263.071 147.518 262.718C147.372 262.366 147.125 262.064 146.807 261.852C146.49 261.64 146.117 261.527 145.735 261.527C145.224 261.527 144.733 261.73 144.371 262.092C144.009 262.454 143.806 262.945 143.806 263.457Z" fill="#80CEC4"/>
<path d="M143.376 245.239C143.374 245.621 143.485 245.995 143.696 246.314C143.907 246.632 144.208 246.881 144.56 247.029C144.912 247.177 145.301 247.216 145.675 247.143C146.05 247.07 146.395 246.887 146.666 246.617C146.937 246.348 147.121 246.004 147.197 245.629C147.272 245.254 147.234 244.866 147.089 244.513C146.943 244.159 146.696 243.857 146.378 243.645C146.061 243.432 145.687 243.319 145.305 243.319C144.795 243.319 144.306 243.521 143.945 243.881C143.583 244.24 143.379 244.729 143.376 245.239Z" fill="#80CEC4"/>
<path d="M143.376 226.171C143.376 226.553 143.489 226.926 143.701 227.243C143.913 227.561 144.214 227.808 144.567 227.954C144.919 228.1 145.307 228.139 145.682 228.064C146.056 227.99 146.4 227.806 146.669 227.536C146.939 227.266 147.123 226.922 147.197 226.548C147.272 226.173 147.234 225.785 147.088 225.433C146.942 225.08 146.694 224.779 146.377 224.566C146.06 224.354 145.687 224.241 145.305 224.241C144.794 224.241 144.303 224.445 143.941 224.806C143.579 225.168 143.376 225.659 143.376 226.171Z" fill="#80CEC4"/>
<path d="M143.727 207.644C144.792 207.644 145.656 206.78 145.656 205.714C145.656 204.648 144.792 203.784 143.727 203.784C142.661 203.784 141.797 204.648 141.797 205.714C141.797 206.78 142.661 207.644 143.727 207.644Z" fill="#80CEC4"/>
<path d="M147.395 161.438L141.507 172.607L140.607 184.806L143.306 175.167L147.665 178.826L151.093 164.468L147.395 161.438Z" fill="#80CEC4"/>
<path d="M140.398 185.016L134.43 172.047L118.746 158.249L114.458 164.248L130.102 181.176L133.95 173.247L140.398 185.016Z" fill="#80CEC4"/>
<path d="M148.608 218C134.608 208.4 112.333 182.833 104 170.5C95.2 178.9 92.5 198.5 97.5 201.5C111.667 214.333 141.208 239.2 143.608 240C146.008 240.8 178.608 243.333 194.608 244.5L196.608 231.5L148.608 218Z" fill="#63B7AF"/>
<path d="M193.608 248L197.208 228L202.608 232.706L199.008 247.412L193.608 248Z" fill="#80CEC4"/>
<path d="M217.608 237L202.108 233.5L199.608 245L207.608 250L220.108 251L217.608 237Z" fill="#FBA43F"/>
</svg>
