<svg width="169" height="24" viewBox="0 0 169 24" fill="none" xmlns="http://www.w3.org/2000/svg">
<path d="M33.3423 18V5.78182H41.0026V7.36875H35.1858V11.0915H40.6028V12.6724H35.1858V16.4131H41.0741V18H33.3423ZM43.3218 18V8.83636H45.046V10.292H45.1414C45.3085 9.79886 45.6028 9.41108 46.0244 9.12869C46.4499 8.84233 46.9312 8.69915 47.4681 8.69915C47.5795 8.69915 47.7107 8.70313 47.8619 8.71108C48.017 8.71903 48.1383 8.72898 48.2258 8.74091V10.4472C48.1542 10.4273 48.0269 10.4054 47.844 10.3815C47.661 10.3537 47.4781 10.3398 47.2951 10.3398C46.8735 10.3398 46.4977 10.4293 46.1675 10.6082C45.8414 10.7832 45.5829 11.0278 45.392 11.342C45.2011 11.6523 45.1056 12.0063 45.1056 12.404V18H43.3218ZM49.7695 18V8.83636H51.4936V10.292H51.5891C51.7561 9.79886 52.0504 9.41108 52.472 9.12869C52.8976 8.84233 53.3788 8.69915 53.9158 8.69915C54.0271 8.69915 54.1584 8.70313 54.3095 8.71108C54.4646 8.71903 54.5859 8.72898 54.6734 8.74091V10.4472C54.6018 10.4273 54.4746 10.4054 54.2916 10.3815C54.1087 10.3537 53.9257 10.3398 53.7428 10.3398C53.3212 10.3398 52.9453 10.4293 52.6152 10.6082C52.2891 10.7832 52.0305 11.0278 51.8396 11.342C51.6487 11.6523 51.5533 12.0063 51.5533 12.404V18H49.7695ZM59.7489 18.1849C58.8898 18.1849 58.1401 17.9881 57.4998 17.5943C56.8594 17.2006 56.3623 16.6497 56.0083 15.9418C55.6543 15.2338 55.4773 14.4065 55.4773 13.4599C55.4773 12.5094 55.6543 11.6781 56.0083 10.9662C56.3623 10.2543 56.8594 9.70142 57.4998 9.30767C58.1401 8.91392 58.8898 8.71705 59.7489 8.71705C60.608 8.71705 61.3577 8.91392 61.9981 9.30767C62.6384 9.70142 63.1356 10.2543 63.4896 10.9662C63.8435 11.6781 64.0205 12.5094 64.0205 13.4599C64.0205 14.4065 63.8435 15.2338 63.4896 15.9418C63.1356 16.6497 62.6384 17.2006 61.9981 17.5943C61.3577 17.9881 60.608 18.1849 59.7489 18.1849ZM59.7549 16.6875C60.3117 16.6875 60.7731 16.5403 61.139 16.246C61.5049 15.9517 61.7754 15.5599 61.9504 15.0707C62.1293 14.5815 62.2188 14.0426 62.2188 13.454C62.2188 12.8693 62.1293 12.3324 61.9504 11.8432C61.7754 11.35 61.5049 10.9543 61.139 10.656C60.7731 10.3577 60.3117 10.2085 59.7549 10.2085C59.1941 10.2085 58.7288 10.3577 58.3589 10.656C57.993 10.9543 57.7205 11.35 57.5415 11.8432C57.3665 12.3324 57.279 12.8693 57.279 13.454C57.279 14.0426 57.3665 14.5815 57.5415 15.0707C57.7205 15.5599 57.993 15.9517 58.3589 16.246C58.7288 16.5403 59.1941 16.6875 59.7549 16.6875ZM66.0116 18V8.83636H67.7358V10.292H67.8312C67.9983 9.79886 68.2926 9.41108 68.7142 9.12869C69.1398 8.84233 69.621 8.69915 70.158 8.69915C70.2693 8.69915 70.4006 8.70313 70.5517 8.71108C70.7068 8.71903 70.8281 8.72898 70.9156 8.74091V10.4472C70.844 10.4273 70.7168 10.4054 70.5338 10.3815C70.3509 10.3537 70.1679 10.3398 69.9849 10.3398C69.5634 10.3398 69.1875 10.4293 68.8574 10.6082C68.5312 10.7832 68.2727 11.0278 68.0818 11.342C67.8909 11.6523 67.7955 12.0063 67.7955 12.404V18H66.0116ZM77.0486 18V5.78182H84.6253V7.36875H78.892V11.0915H84.0824V12.6724H78.892V18H77.0486ZM86.6343 18V8.83636H88.3584V10.292H88.4539C88.6209 9.79886 88.9153 9.41108 89.3369 9.12869C89.7624 8.84233 90.2437 8.69915 90.7806 8.69915C90.892 8.69915 91.0232 8.70313 91.1744 8.71108C91.3295 8.71903 91.4508 8.72898 91.5383 8.74091V10.4472C91.4667 10.4273 91.3394 10.4054 91.1565 10.3815C90.9735 10.3537 90.7906 10.3398 90.6076 10.3398C90.186 10.3398 89.8102 10.4293 89.48 10.6082C89.1539 10.7832 88.8954 11.0278 88.7045 11.342C88.5136 11.6523 88.4181 12.0063 88.4181 12.404V18H86.6343ZM96.7033 18.1849C95.8004 18.1849 95.0229 17.992 94.3706 17.6063C93.7223 17.2165 93.2212 16.6696 92.8672 15.9656C92.5172 15.2577 92.3422 14.4284 92.3422 13.4778C92.3422 12.5392 92.5172 11.7119 92.8672 10.996C93.2212 10.2801 93.7143 9.72131 94.3467 9.3196C94.9831 8.9179 95.7268 8.71705 96.578 8.71705C97.095 8.71705 97.5962 8.80256 98.0814 8.97358C98.5666 9.1446 99.0021 9.41307 99.3879 9.77898C99.7737 10.1449 100.078 10.6202 100.301 11.2048C100.523 11.7855 100.635 12.4915 100.635 13.3227V13.9551H93.3504V12.6188H98.8868C98.8868 12.1494 98.7913 11.7338 98.6004 11.3719C98.4095 11.006 98.1411 10.7176 97.795 10.5068C97.453 10.296 97.0513 10.1906 96.5899 10.1906C96.0888 10.1906 95.6513 10.3139 95.2774 10.5605C94.9075 10.8031 94.6212 11.1213 94.4183 11.5151C94.2195 11.9048 94.12 12.3284 94.12 12.7858V13.8298C94.12 14.4423 94.2274 14.9634 94.4422 15.3929C94.6609 15.8224 94.9652 16.1506 95.355 16.3773C95.7447 16.6 96.2001 16.7114 96.7212 16.7114C97.0592 16.7114 97.3675 16.6636 97.6459 16.5682C97.9243 16.4688 98.1649 16.3216 98.3678 16.1267C98.5706 15.9318 98.7257 15.6912 98.8331 15.4048L100.521 15.7091C100.386 16.2062 100.144 16.6418 99.7936 17.0156C99.4476 17.3855 99.0121 17.6739 98.4871 17.8807C97.9661 18.0835 97.3714 18.1849 96.7033 18.1849ZM106.563 18.1849C105.661 18.1849 104.883 17.992 104.231 17.6063C103.582 17.2165 103.081 16.6696 102.727 15.9656C102.377 15.2577 102.202 14.4284 102.202 13.4778C102.202 12.5392 102.377 11.7119 102.727 10.996C103.081 10.2801 103.574 9.72131 104.207 9.3196C104.843 8.9179 105.587 8.71705 106.438 8.71705C106.955 8.71705 107.456 8.80256 107.942 8.97358C108.427 9.1446 108.862 9.41307 109.248 9.77898C109.634 10.1449 109.938 10.6202 110.161 11.2048C110.384 11.7855 110.495 12.4915 110.495 13.3227V13.9551H103.211V12.6188H108.747C108.747 12.1494 108.651 11.7338 108.461 11.3719C108.27 11.006 108.001 10.7176 107.655 10.5068C107.313 10.296 106.911 10.1906 106.45 10.1906C105.949 10.1906 105.511 10.3139 105.138 10.5605C104.768 10.8031 104.481 11.1213 104.278 11.5151C104.08 11.9048 103.98 12.3284 103.98 12.7858V13.8298C103.98 14.4423 104.088 14.9634 104.302 15.3929C104.521 15.8224 104.825 16.1506 105.215 16.3773C105.605 16.6 106.06 16.7114 106.581 16.7114C106.919 16.7114 107.228 16.6636 107.506 16.5682C107.784 16.4688 108.025 16.3216 108.228 16.1267C108.431 15.9318 108.586 15.6912 108.693 15.4048L110.382 15.7091C110.246 16.2062 110.004 16.6418 109.654 17.0156C109.308 17.3855 108.872 17.6739 108.347 17.8807C107.826 18.0835 107.232 18.1849 106.563 18.1849ZM120.78 18.1849C119.921 18.1849 119.171 17.9881 118.531 17.5943C117.891 17.2006 117.394 16.6497 117.04 15.9418C116.686 15.2338 116.509 14.4065 116.509 13.4599C116.509 12.5094 116.686 11.6781 117.04 10.9662C117.394 10.2543 117.891 9.70142 118.531 9.30767C119.171 8.91392 119.921 8.71705 120.78 8.71705C121.639 8.71705 122.389 8.91392 123.029 9.30767C123.67 9.70142 124.167 10.2543 124.521 10.9662C124.875 11.6781 125.052 12.5094 125.052 13.4599C125.052 14.4065 124.875 15.2338 124.521 15.9418C124.167 16.6497 123.67 17.2006 123.029 17.5943C122.389 17.9881 121.639 18.1849 120.78 18.1849ZM120.786 16.6875C121.343 16.6875 121.804 16.5403 122.17 16.246C122.536 15.9517 122.807 15.5599 122.982 15.0707C123.161 14.5815 123.25 14.0426 123.25 13.454C123.25 12.8693 123.161 12.3324 122.982 11.8432C122.807 11.35 122.536 10.9543 122.17 10.656C121.804 10.3577 121.343 10.2085 120.786 10.2085C120.225 10.2085 119.76 10.3577 119.39 10.656C119.024 10.9543 118.752 11.35 118.573 11.8432C118.398 12.3324 118.31 12.8693 118.31 13.454C118.31 14.0426 118.398 14.5815 118.573 15.0707C118.752 15.5599 119.024 15.9517 119.39 16.246C119.76 16.5403 120.225 16.6875 120.786 16.6875ZM132.848 14.1997V8.83636H134.637V18H132.884V16.4131H132.788C132.577 16.9023 132.239 17.3099 131.774 17.6361C131.312 17.9582 130.738 18.1193 130.05 18.1193C129.461 18.1193 128.94 17.9901 128.487 17.7315C128.037 17.469 127.683 17.0813 127.425 16.5682C127.17 16.0551 127.043 15.4207 127.043 14.6651V8.83636H128.827V14.4503C128.827 15.0747 129 15.5719 129.346 15.9418C129.692 16.3116 130.141 16.4966 130.694 16.4966C131.028 16.4966 131.36 16.4131 131.69 16.246C132.024 16.079 132.301 15.8264 132.52 15.4884C132.742 15.1503 132.852 14.7207 132.848 14.1997ZM141.312 8.83636V10.2682H136.306V8.83636H141.312ZM137.649 6.64091H139.433V15.3094C139.433 15.6554 139.484 15.9159 139.588 16.0909C139.691 16.2619 139.824 16.3793 139.987 16.4429C140.154 16.5026 140.335 16.5324 140.53 16.5324C140.674 16.5324 140.799 16.5224 140.906 16.5026C141.014 16.4827 141.097 16.4668 141.157 16.4548L141.479 17.9284C141.375 17.9682 141.228 18.008 141.037 18.0477C140.847 18.0915 140.608 18.1153 140.322 18.1193C139.852 18.1273 139.415 18.0437 139.009 17.8688C138.603 17.6938 138.275 17.4233 138.025 17.0574C137.774 16.6915 137.649 16.2321 137.649 15.6793V6.64091ZM143.285 21.4364V8.83636H145.027V10.3219H145.176C145.28 10.131 145.429 9.91023 145.624 9.65966C145.819 9.40909 146.089 9.19034 146.435 9.00341C146.781 8.8125 147.238 8.71705 147.807 8.71705C148.547 8.71705 149.207 8.90398 149.788 9.27784C150.369 9.6517 150.824 10.1906 151.154 10.8946C151.488 11.5986 151.655 12.4457 151.655 13.4361C151.655 14.4264 151.49 15.2756 151.16 15.9835C150.83 16.6875 150.377 17.2304 149.8 17.6122C149.223 17.9901 148.565 18.179 147.825 18.179C147.268 18.179 146.813 18.0855 146.459 17.8986C146.109 17.7116 145.835 17.4929 145.636 17.2423C145.437 16.9918 145.284 16.769 145.176 16.5741H145.069V21.4364H143.285ZM145.033 13.4182C145.033 14.0625 145.127 14.6273 145.313 15.1125C145.5 15.5977 145.771 15.9776 146.125 16.252C146.479 16.5224 146.912 16.6577 147.425 16.6577C147.958 16.6577 148.404 16.5165 148.762 16.2341C149.12 15.9477 149.39 15.5599 149.573 15.0707C149.76 14.5815 149.854 14.0307 149.854 13.4182C149.854 12.8136 149.762 12.2707 149.579 11.7895C149.4 11.3082 149.13 10.9284 148.768 10.65C148.41 10.3716 147.962 10.2324 147.425 10.2324C146.908 10.2324 146.471 10.3656 146.113 10.6321C145.759 10.8986 145.49 11.2705 145.308 11.7477C145.125 12.225 145.033 12.7818 145.033 13.4182ZM159.459 14.1997V8.83636H161.248V18H159.494V16.4131H159.399C159.188 16.9023 158.85 17.3099 158.385 17.6361C157.923 17.9582 157.349 18.1193 156.661 18.1193C156.072 18.1193 155.551 17.9901 155.098 17.7315C154.648 17.469 154.294 17.0813 154.036 16.5682C153.781 16.0551 153.654 15.4207 153.654 14.6651V8.83636H155.438V14.4503C155.438 15.0747 155.611 15.5719 155.957 15.9418C156.303 16.3116 156.752 16.4966 157.305 16.4966C157.639 16.4966 157.971 16.4131 158.301 16.246C158.635 16.079 158.912 15.8264 159.131 15.4884C159.353 15.1503 159.463 14.7207 159.459 14.1997ZM167.923 8.83636V10.2682H162.917V8.83636H167.923ZM164.26 6.64091H166.044V15.3094C166.044 15.6554 166.095 15.9159 166.199 16.0909C166.302 16.2619 166.435 16.3793 166.598 16.4429C166.765 16.5026 166.946 16.5324 167.141 16.5324C167.284 16.5324 167.41 16.5224 167.517 16.5026C167.624 16.4827 167.708 16.4668 167.768 16.4548L168.09 17.9284C167.986 17.9682 167.839 18.008 167.648 18.0477C167.457 18.0915 167.219 18.1153 166.932 18.1193C166.463 18.1273 166.026 18.0437 165.62 17.8688C165.214 17.6938 164.886 17.4233 164.636 17.0574C164.385 16.6915 164.26 16.2321 164.26 15.6793V6.64091Z" fill="#01655E"/>
<path fill-rule="evenodd" clip-rule="evenodd" d="M12 21C16.9706 21 21 16.9706 21 12C21 7.02944 16.9706 3 12 3C7.02944 3 3 7.02944 3 12C3 16.9706 7.02944 21 12 21ZM16.0658 7.93403C16.3586 8.22692 16.3586 8.70179 16.0658 8.99469L13.0606 11.9999L16.0658 15.0051C16.3587 15.298 16.3587 15.7729 16.0658 16.0658C15.7729 16.3586 15.298 16.3586 15.0051 16.0658L11.9999 13.0605L8.99469 16.0658C8.70179 16.3586 8.22692 16.3586 7.93403 16.0658C7.64113 15.7729 7.64113 15.298 7.93403 15.0051L10.9392 11.9999L7.93403 8.99469C7.64114 8.70179 7.64114 8.22692 7.93403 7.93403C8.22693 7.64113 8.7018 7.64113 8.99469 7.93403L11.9999 10.9392L15.0051 7.93403C15.298 7.64113 15.7729 7.64113 16.0658 7.93403Z" fill="#01655E"/>
</svg>
