<svg width="321" height="64" viewBox="0 0 321 64" fill="none" xmlns="http://www.w3.org/2000/svg">
<g opacity="0.8">
<path d="M183.949 15.6072C187.908 15.6072 190.898 15.6462 193.771 16.6144C196.395 17.5045 198.878 18.6991 200.541 20.9478C202.204 23.1965 204.625 25.5546 202.36 28.3654C200.853 30.2316 193.498 28.4748 192.093 26.3432C189.844 22.9389 183.114 21.7442 179.858 24.1647C177.617 25.8278 177.827 28.5685 180.42 30.2003C182.762 31.6839 185.542 31.9571 188.173 32.6442C190.929 33.3626 193.74 33.9013 196.442 34.7915C200.9 36.2594 204.304 38.8828 204.757 43.9346C205.226 49.2363 203.328 53.5619 198.745 56.4899C191.866 60.8936 177.843 60.5032 171.214 55.7716C170.353 55.1986 169.587 54.4953 168.942 53.6868C167.177 51.3444 164.53 48.2212 166.6 45.8788C168.473 43.7706 172.479 45.098 175.555 45.301C176.477 45.3635 176.578 46.3239 176.945 46.9797C178.14 49.2252 180.162 50.9177 182.582 51.6988C185.003 52.4799 187.632 52.2884 189.914 51.1649C191.773 50.2825 193.131 49.002 193.139 46.7611C193.147 44.5202 191.78 43.4505 190.016 42.8571C187.447 41.967 184.816 41.2955 182.208 40.5147C179.342 39.6949 176.391 39.1171 173.619 38.0708C169.715 36.6029 166.99 33.9638 166.74 29.5601C166.459 24.6957 168.114 20.7058 172.526 18.1604C176.027 16.2782 179.979 15.395 183.949 15.6072Z" fill="#F2F2F2"/>
<path d="M309.9 32.7379C308.869 29.0369 308.338 24.9924 303.279 24.3912C298.352 23.8056 294.643 26.2026 293.581 31.1373C292.137 37.8678 293.066 44.7154 292.918 51.5084C292.769 58.3014 290.396 59.9801 283.634 58.2623C281.924 57.8251 281.744 56.7007 281.737 55.389C281.737 43.4349 281.737 31.4887 281.737 19.5346C281.737 17.442 282.588 16.4114 284.743 16.5363C285.646 16.6184 286.556 16.6184 287.46 16.5363C291.051 16.0522 293.355 16.997 292.488 22.1112C298.735 14.9513 305.941 14.1939 313.515 16.8799C318.583 18.6757 320.542 23.0638 320.738 28.2093C320.089 36.7981 320.472 45.3323 320.535 53.8898C320.535 57.0131 319.754 58.0828 316.498 57.95C310.337 57.708 310.423 57.8954 310.306 51.8676C310.158 45.4962 310.798 39.1093 309.9 32.7379Z" fill="#F2F2F2"/>
<path d="M126.323 44.5864C127.885 43.423 127.885 42.08 128.26 40.9088C130.079 35.1465 131.843 29.3764 133.647 23.6141C135.99 16.1028 136.263 16.0012 144.211 16.704C146.39 16.8992 146.874 17.6487 146.195 19.6398C142.004 31.7838 137.84 43.9409 133.702 56.111C133.186 57.6258 132.367 58.5315 130.657 58.5081C127.807 58.5081 124.957 58.5081 122.115 58.5081C120.358 58.5081 119.616 57.5399 119.109 56.0642C114.944 43.9149 110.746 31.7734 106.514 19.6398C105.733 17.3442 106.514 16.6493 108.779 16.6962C119.507 16.9226 116.985 15.322 119.936 24.3324C122.138 30.9536 124.207 37.6607 126.323 44.5864Z" fill="#F2F2F2"/>
<path d="M12.8208 58.3638C7.08971 58.3638 7.08186 58.3638 7.07406 52.703C7.07406 44.6139 7.0194 36.517 7.07406 28.4279C7.07406 25.742 6.69147 23.8056 3.3184 24.2038C0.335745 24.5551 0 22.7203 0 20.3622C0 18.0042 0.351376 16.2006 3.33404 16.5597C6.3167 16.9189 6.94914 15.4822 7.13653 12.765C7.26978 10.6582 7.8908 8.61106 8.95057 6.78525C10.0103 4.95943 11.4799 3.40484 13.2433 2.24415C15.0066 1.08345 17.0156 0.348404 19.1117 0.0969783C21.2077 -0.154448 23.3336 0.0846284 25.3214 0.795358C28.6398 1.9041 26.883 4.69937 27.2188 6.72945C27.5545 8.75953 26.2974 9.07186 24.6031 9.02501C23.4445 8.97758 22.2873 9.14706 21.191 9.52472C18.8486 10.407 18.5362 12.4605 18.7392 14.6312C18.9579 16.9736 20.8552 16.5597 22.2997 16.5051C24.9934 16.4114 26.6253 16.8486 26.6253 20.2139C26.6253 23.5791 25.2668 24.5708 22.2294 24.2272C19.5435 23.9305 18.5831 25.1251 18.6221 27.7877C18.7393 36.0095 18.6612 44.2313 18.6612 52.4532C18.6846 58.3638 18.6846 58.3638 12.8208 58.3638Z" fill="#F2F2F2"/>
<path d="M86.0521 23.0248C88.902 19.6283 91.6973 16.7784 95.7965 15.9976C97.7485 15.6228 100.528 14.6624 101.481 16.7784C102.652 19.4018 102.262 22.5875 101.567 25.4687C101.317 26.4603 100.005 25.9918 99.1227 26.0074C90.4949 26.1089 86.583 29.8568 86.3332 38.5002C86.1822 43.8982 86.1822 49.2961 86.3332 54.6941C86.4035 57.5596 85.2947 58.5122 82.4292 58.4575C73.3797 58.2779 74.8008 59.1368 74.7383 50.8447C74.6602 40.827 74.8164 30.7937 74.6602 20.7761C74.6134 17.6528 75.5503 16.1615 78.8297 16.591C79.4749 16.6768 80.1287 16.6768 80.7739 16.591C84.3499 16.0835 86.2395 17.2781 85.6773 21.1586C85.7263 21.7936 85.8521 22.4202 86.0521 23.0248Z" fill="#F2F2F2"/>
<path d="M160.993 37.4227C160.993 43.2085 160.915 49.002 160.993 54.7878C161.04 57.4034 160.088 58.4497 157.363 58.4107C147.993 58.2779 149.555 59.0197 149.461 51.0009C149.375 40.8505 149.531 30.7 149.391 20.5496C149.391 17.5592 150.312 16.4582 153.396 16.5441C161.813 16.7862 160.9 15.6618 160.962 23.9461C161.025 28.4045 161.001 32.9019 160.993 37.4227Z" fill="#F2F2F2"/>
<path d="M220.584 37.8053C220.584 43.4583 220.483 49.1191 220.639 54.7721C220.709 57.3488 220.053 58.4731 217.211 58.4107C208.138 58.2077 209.403 59.1056 209.364 50.9072C209.294 40.8817 209.481 30.8562 209.278 20.8307C209.216 17.3796 210.434 16.0991 213.776 16.5363C214.553 16.6385 215.34 16.6385 216.118 16.5363C219.452 16.1147 220.803 17.3874 220.647 20.8385C220.412 26.4915 220.576 32.1523 220.584 37.8053Z" fill="#F2F2F2"/>
<path fill-rule="evenodd" clip-rule="evenodd" d="M266.171 56.1066C266.253 56.0784 266.335 56.0501 266.417 56.0215C266.757 54.6408 267.645 54.9466 268.537 55.2536C268.609 55.2782 268.68 55.3028 268.752 55.3266C275.428 52.4532 278.082 46.1053 275.342 39.4998C275.213 39.1904 275.063 38.8886 274.914 38.5871C274.494 37.7395 274.076 36.8946 274.116 35.8925C273.148 33.8858 274.116 32.5038 275.615 31.2857C276.193 26.6712 274.983 22.0723 270.868 20.3545C267.096 18.7831 263.604 16.8208 260.114 14.8601C258.315 13.8493 256.517 12.839 254.682 11.8828C249.029 8.93919 243.649 11.875 239.066 18.8163C238.484 18.9484 237.968 19.4426 237.453 19.9362C236.385 20.9598 235.319 21.9813 233.67 19.7689C232.267 20.2477 230.983 21.0226 229.905 22.041C228.827 23.0595 227.981 24.2977 227.424 25.6718C225.37 30.2941 226.479 34.6432 228.822 38.8361C228.804 39.1647 228.839 39.5177 228.873 39.8718C228.992 41.0743 229.112 42.2912 227.182 42.623C226.58 44.0557 226.489 45.652 226.924 47.1438C228.252 53.8275 232.444 56.8648 241.197 57.5128C241.567 57.8552 242.049 58.105 242.531 58.3544C243.686 58.9525 244.838 59.5489 244.43 61.4169C250.622 65.5707 257.36 64.704 261.685 58.8949C262.922 57.2268 264.484 56.688 266.171 56.1066ZM248.401 43.843C249.239 44.1971 250.141 44.3745 251.051 44.3641C252.888 44.4486 254.686 43.8144 256.063 42.5959C257.441 41.3773 258.289 39.6703 258.43 37.8366C258.443 35.941 257.716 34.1151 256.404 32.7473C255.091 31.3794 253.297 30.5777 251.402 30.5127C249.573 30.5119 247.816 31.2244 246.504 32.4986C245.192 33.7729 244.428 35.5086 244.375 37.3369C244.318 38.2448 244.449 39.1548 244.76 40.0098C245.07 40.8648 245.554 41.6466 246.181 42.3061C246.807 42.9657 247.563 43.4889 248.401 43.843Z" fill="#F2F2F2"/>
<path d="M309.9 32.7379C311.391 35.9236 310.517 39.2967 310.681 42.5838C310.845 45.871 310.681 48.9864 310.681 52.1877C310.681 57.1692 311.305 57.5986 316.271 57.4971C319.191 57.4347 320.066 56.0839 320.043 53.4292C319.965 46.644 320.043 39.8588 320.043 33.0737C320.043 31.4184 319.879 29.7319 320.714 28.1859C320.784 37.1885 320.816 46.1833 320.948 55.1782C320.948 57.5206 319.949 58.3404 317.677 58.3014C308.221 58.3014 309.97 58.8323 309.869 50.8447C309.775 44.8482 309.877 38.8048 309.9 32.7379Z" fill="#8B8B8B"/>
<path d="M274.092 35.8611C273.796 35.6347 273.405 35.4629 273.226 35.1662C272.445 33.8467 270.391 32.613 271.399 31.0748C272.304 29.6928 274.155 31.0748 275.592 31.2544C275.613 32.9132 275.086 34.5325 274.092 35.8611Z" fill="#636363"/>
<path d="M239.058 18.8162C238.822 19.3971 238.526 19.9518 238.176 20.4715C237.348 21.471 237.145 23.5245 235.537 23.2043C234.131 22.9311 234.076 21.0571 233.663 19.7688C235.333 18.746 237.184 18.7304 239.058 18.8162Z" fill="#F2F2F2"/>
<path d="M228.822 38.8361C229.324 39.4092 229.764 40.0348 230.133 40.7021C230.578 41.7718 232.14 43.0445 230.641 44.0127C229.321 44.895 227.947 44.0674 227.182 42.623C227.284 41.2114 227.862 39.8762 228.822 38.8361Z" fill="#636363"/>
<path d="M266.417 56.0215C265.48 55.7404 264.075 55.7482 264.793 54.1787C265.238 53.1715 265.574 51.7817 266.792 51.5709C267.854 51.3913 268.065 52.625 268.354 53.4292C268.529 54.0404 268.657 54.6643 268.736 55.2953C268.082 55.8205 267.254 56.0798 266.417 56.0215Z" fill="#626262"/>
<path d="M241.197 57.5128C241.831 57.4571 242.467 57.444 243.102 57.4737C244.305 57.6065 246.023 56.8491 246.561 58.2545C247.17 59.8161 245.468 60.5969 244.43 61.4324C242.918 60.5545 241.771 59.1639 241.197 57.5128Z" fill="#F2F2F2"/>
<path fill-rule="evenodd" clip-rule="evenodd" d="M68.4913 45.9184C68.5154 44.1094 68.5389 42.3411 68.4608 40.6396C68.4608 39.3977 68.4623 38.1883 68.4638 37.0032C68.4682 33.5389 68.4723 30.2824 68.4374 27.0303C68.4139 23.0872 66.7352 19.7844 63.1669 18.2228C53.8988 14.2251 44.5605 14.1783 35.55 19.1832C34.3517 19.9492 33.3189 20.9474 32.5127 22.119C31.1853 23.8758 29.655 25.9449 30.5763 28.1156C31.1984 29.5813 32.5611 29.3987 33.9358 29.2144C34.597 29.1258 35.261 29.0368 35.8467 29.1306C36.8861 29.2043 37.9286 29.2226 38.9699 29.1853C39.6025 29.2638 40.2433 29.132 40.7936 28.8103C41.3439 28.4886 41.7731 27.9948 42.015 27.4051C42.6 26.371 43.3833 25.4625 44.3199 24.7316C45.2565 24.0007 46.3281 23.4617 47.4733 23.1454C48.6185 22.8292 49.8148 22.742 50.9938 22.8888C52.1728 23.0355 53.3112 23.4134 54.3439 24.0008C56.2256 25.0783 56.8893 26.7648 56.8425 28.8729C56.8034 30.864 55.64 31.9649 53.9379 32.5271C52.4591 32.9905 50.9443 33.33 49.4092 33.5421C48.2326 33.7357 47.0505 33.8948 45.8692 34.0537C42.8096 34.4653 39.7554 34.8762 36.8149 35.8846C30.9589 37.86 28.4291 41.8343 28.8117 48.3774C29.124 53.843 32.7391 57.8875 38.3921 59.0041C44.0165 60.2727 49.9127 59.3602 54.8905 56.4508C55.0178 56.3757 55.142 56.2978 55.2636 56.2214C56.2163 55.6235 57.0121 55.1241 57.9122 56.8413C58.7008 58.3482 67.0632 59.0119 68.4608 58.0046C69.2043 57.4777 69.0936 56.8172 68.9739 56.1035C68.9642 56.0453 68.9543 55.9866 68.9449 55.9277C68.4029 52.5602 68.448 49.1733 68.4913 45.9184ZM45.6067 51.9378C52.3294 52.9528 56.7331 49.3065 56.8736 42.4432C56.6417 42.1088 56.7255 41.5444 56.8111 40.968C56.9734 39.8755 57.142 38.7401 55.1793 39.0468C54.3225 39.178 53.4594 39.2897 52.5947 39.4015C49.7558 39.7688 46.9005 40.1383 44.2012 41.2096C41.4684 42.2871 40.1567 44.2313 40.4221 47.1827C40.7032 50.3762 42.827 51.5162 45.6067 51.9378Z" fill="#F2F2F2"/>
</g>
</svg>
