<svg width="102" height="52" viewBox="0 0 102 52" fill="none" xmlns="http://www.w3.org/2000/svg">
<path d="M11.2118 21.897L0 43.3514H7.55083L14.644 28.2753L11.2118 21.897Z" fill="#01655E"/>
<path fill-rule="evenodd" clip-rule="evenodd" d="M5.29907 8.64859L22.8814 19.191H17.8082L30.4324 43.3514H22.6527L15.3307 27.6954L10.9261 19.191H10.9039L5.29907 8.64859Z" fill="black"/>
<path d="M39.6843 20.4409V28.2703H38.6107V24.7806H34.295V28.2703H33.2214V20.4409H34.295V23.8075H38.6107V20.4409H39.6843Z" fill="black"/>
<path d="M46.7218 28.3598C45.9631 28.3598 45.2796 28.1883 44.6713 27.8453C44.0629 27.4948 43.5834 27.0139 43.2327 26.4024C42.8891 25.791 42.7174 25.1087 42.7174 24.3556C42.7174 23.6025 42.8891 22.9202 43.2327 22.3087C43.5834 21.6973 44.0629 21.2201 44.6713 20.8771C45.2796 20.5266 45.9631 20.3514 46.7218 20.3514C47.4733 20.3514 48.1532 20.5266 48.7615 20.8771C49.3699 21.2201 49.8458 21.6973 50.1894 22.3087C50.5329 22.9127 50.7047 23.595 50.7047 24.3556C50.7047 25.1162 50.5329 25.8022 50.1894 26.4136C49.8458 27.0176 49.3699 27.4948 48.7615 27.8453C48.1532 28.1883 47.4733 28.3598 46.7218 28.3598ZM46.7218 27.3643C47.2729 27.3643 47.7667 27.2339 48.2033 26.9729C48.647 26.7119 48.9942 26.354 49.2447 25.8991C49.5023 25.4368 49.6311 24.9223 49.6311 24.3556C49.6311 23.7889 49.5023 23.2781 49.2447 22.8233C48.9942 22.3609 48.647 21.9993 48.2033 21.7383C47.7667 21.4773 47.2729 21.3468 46.7218 21.3468C46.1707 21.3468 45.6697 21.4773 45.2188 21.7383C44.775 21.9993 44.4243 22.3609 44.1667 22.8233C43.9162 23.2781 43.7909 23.7889 43.7909 24.3556C43.7909 24.9223 43.9162 25.4368 44.1667 25.8991C44.4243 26.354 44.775 26.7119 45.2188 26.9729C45.6697 27.2339 46.1707 27.3643 46.7218 27.3643Z" fill="black"/>
<path d="M56.8546 28.3598C55.8526 28.3598 55.0724 28.0615 54.5142 27.465C53.9559 26.8685 53.6768 26.011 53.6768 24.8925V20.4409H54.7504V24.8477C54.7504 26.5255 55.4553 27.3643 56.8653 27.3643C57.5524 27.3643 58.0784 27.1593 58.4434 26.7492C58.8084 26.3316 58.9909 25.6978 58.9909 24.8477V20.4409H60.0323V24.8925C60.0323 26.0184 59.7532 26.8797 59.1949 27.4762C58.6367 28.0653 57.8565 28.3598 56.8546 28.3598Z" fill="black"/>
<path d="M65.819 28.3598C65.2536 28.3598 64.7061 28.2703 64.1764 28.0914C63.654 27.905 63.2424 27.6663 62.9418 27.3755L63.3391 26.5031C63.6253 26.7715 63.9904 26.9915 64.4341 27.163C64.885 27.3271 65.3466 27.4091 65.819 27.4091C66.4417 27.4091 66.9069 27.301 67.2146 27.0847C67.5224 26.861 67.6763 26.5665 67.6763 26.2011C67.6763 25.9327 67.5904 25.7164 67.4186 25.5524C67.254 25.3809 67.0464 25.2504 66.7959 25.1609C66.5526 25.0714 66.2055 24.9708 65.7546 24.8589C65.1892 24.7172 64.7311 24.5756 64.3804 24.4339C64.0369 24.2922 63.7399 24.076 63.4894 23.7852C63.246 23.4869 63.1243 23.088 63.1243 22.5884C63.1243 22.1708 63.2281 21.7942 63.4357 21.4587C63.6504 21.1231 63.9725 20.8547 64.4019 20.6534C64.8313 20.452 65.3645 20.3514 66.0015 20.3514C66.4452 20.3514 66.8818 20.411 67.3112 20.5303C67.7407 20.6496 68.1093 20.8211 68.417 21.0448L68.0627 21.9396C67.7478 21.7309 67.4114 21.5743 67.0536 21.4699C66.6957 21.358 66.345 21.3021 66.0015 21.3021C65.3931 21.3021 64.9351 21.4177 64.6273 21.6488C64.3267 21.88 64.1764 22.1783 64.1764 22.5436C64.1764 22.8121 64.2623 23.032 64.4341 23.2035C64.6059 23.3676 64.817 23.4981 65.0675 23.595C65.3251 23.6845 65.6723 23.7814 66.1089 23.8858C66.6743 24.0275 67.1287 24.1692 67.4723 24.3109C67.8158 24.4525 68.1093 24.6688 68.3526 24.9596C68.6031 25.2504 68.7284 25.6419 68.7284 26.134C68.7284 26.5441 68.621 26.9207 68.4063 27.2637C68.1916 27.5992 67.8659 27.8677 67.4293 28.069C66.9928 28.2629 66.456 28.3598 65.819 28.3598Z" fill="black"/>
<path d="M77.1461 27.2972V28.2703H71.6924V20.4409H76.9958V21.4139H72.766V23.8187H76.5342V24.7694H72.766V27.2972H77.1461Z" fill="black"/>
<path d="M87.9513 28.3598C87.1926 28.3598 86.5091 28.1883 85.9008 27.8453C85.2924 27.4948 84.8129 27.0139 84.4622 26.4024C84.1187 25.791 83.9469 25.1087 83.9469 24.3556C83.9469 23.6025 84.1187 22.9202 84.4622 22.3087C84.8129 21.6973 85.2924 21.2201 85.9008 20.8771C86.5091 20.5266 87.1926 20.3514 87.9513 20.3514C88.7028 20.3514 89.3827 20.5266 89.9911 20.8771C90.5994 21.2201 91.0754 21.6973 91.4189 22.3087C91.7624 22.9127 91.9342 23.595 91.9342 24.3556C91.9342 25.1162 91.7624 25.8022 91.4189 26.4136C91.0754 27.0176 90.5994 27.4948 89.9911 27.8453C89.3827 28.1883 88.7028 28.3598 87.9513 28.3598ZM87.9513 27.3643C88.5024 27.3643 88.9962 27.2339 89.4328 26.9729C89.8766 26.7119 90.2237 26.354 90.4742 25.8991C90.7318 25.4368 90.8607 24.9223 90.8607 24.3556C90.8607 23.7889 90.7318 23.2781 90.4742 22.8233C90.2237 22.3609 89.8766 21.9993 89.4328 21.7383C88.9962 21.4773 88.5024 21.3468 87.9513 21.3468C87.4002 21.3468 86.8992 21.4773 86.4483 21.7383C86.0046 21.9993 85.6539 22.3609 85.3962 22.8233C85.1457 23.2781 85.0205 23.7889 85.0205 24.3556C85.0205 24.9223 85.1457 25.4368 85.3962 25.8991C85.6539 26.354 86.0046 26.7119 86.4483 26.9729C86.8992 27.2339 87.4002 27.3643 87.9513 27.3643Z" fill="black"/>
<path d="M96.0443 21.4139V24.1431H99.8125V25.105H96.0443V28.2703H94.9707V20.4409H100.274V21.4139H96.0443Z" fill="black"/>
<path d="M37.6338 43.3514C36.6354 43.3514 35.739 43.15 34.9445 42.7474C34.1608 42.3447 33.5435 41.7799 33.0926 41.0529C32.6525 40.3258 32.4324 39.5038 32.4324 38.5866C32.4324 37.6694 32.6525 36.8529 33.0926 36.1371C33.5435 35.4101 34.1608 34.8452 34.9445 34.4426C35.739 34.0399 36.6354 33.8386 37.6338 33.8386C38.7074 33.8386 39.6253 34.0791 40.3875 34.56C41.1497 35.041 41.6758 35.7065 41.9656 36.5565L39.1475 37.9994C38.804 37.1941 38.294 36.7914 37.6177 36.7914C37.1883 36.7914 36.8286 36.948 36.5388 37.2612C36.2596 37.5743 36.1201 38.0162 36.1201 38.5866C36.1201 39.1682 36.2596 39.6156 36.5388 39.9288C36.8286 40.242 37.1883 40.3986 37.6177 40.3986C38.294 40.3986 38.804 39.9959 39.1475 39.1906L41.9656 40.6334C41.6758 41.4835 41.1497 42.149 40.3875 42.6299C39.6253 43.1109 38.7074 43.3514 37.6338 43.3514Z" fill="black"/>
<path d="M47.4626 43.3514C46.4642 43.3514 45.5677 43.15 44.7733 42.7474C43.9896 42.3447 43.3723 41.7799 42.9214 41.0529C42.4812 40.3258 42.2612 39.5038 42.2612 38.5866C42.2612 37.6694 42.4812 36.8529 42.9214 36.1371C43.3723 35.4101 43.9896 34.8452 44.7733 34.4426C45.5677 34.0399 46.4642 33.8386 47.4626 33.8386C48.5361 33.8386 49.454 34.0791 50.2163 34.56C50.9785 35.041 51.5046 35.7065 51.7944 36.5565L48.9763 37.9994C48.6328 37.1941 48.1228 36.7914 47.4465 36.7914C47.017 36.7914 46.6574 36.948 46.3675 37.2612C46.0884 37.5743 45.9489 38.0162 45.9489 38.5866C45.9489 39.1682 46.0884 39.6156 46.3675 39.9288C46.6574 40.242 47.017 40.3986 47.4465 40.3986C48.1228 40.3986 48.6328 39.9959 48.9763 39.1906L51.7944 40.6334C51.5046 41.4835 50.9785 42.149 50.2163 42.6299C49.454 43.1109 48.5361 43.3514 47.4626 43.3514Z" fill="black"/>
<path d="M57.2108 43.3514C56.2339 43.3514 55.3536 43.15 54.5699 42.7474C53.7969 42.3335 53.1903 41.7687 52.7502 41.0529C52.31 40.3258 52.0899 39.5038 52.0899 38.5866C52.0899 37.6694 52.31 36.8529 52.7502 36.1371C53.1903 35.4101 53.7969 34.8452 54.5699 34.4426C55.3536 34.0399 56.2339 33.8386 57.2108 33.8386C58.1985 33.8386 59.0788 34.0399 59.8518 34.4426C60.6355 34.8452 61.2421 35.4101 61.6715 36.1371C62.1117 36.8529 62.3317 37.6694 62.3317 38.5866C62.3317 39.5038 62.1117 40.3258 61.6715 41.0529C61.2421 41.7687 60.6355 42.3335 59.8518 42.7474C59.0788 43.15 58.1985 43.3514 57.2108 43.3514ZM57.2108 40.3986C57.6295 40.3986 57.9731 40.242 58.2415 39.9288C58.5099 39.6044 58.6441 39.157 58.6441 38.5866C58.6441 38.0162 58.5099 37.5743 58.2415 37.2612C57.9731 36.948 57.6295 36.7914 57.2108 36.7914C56.7922 36.7914 56.4486 36.948 56.1802 37.2612C55.9118 37.5743 55.7776 38.0162 55.7776 38.5866C55.7776 39.157 55.9118 39.6044 56.1802 39.9288C56.4486 40.242 56.7922 40.3986 57.2108 40.3986Z" fill="black"/>
<path d="M73.1007 34.0063V43.1836H69.6385V42.3112C69.3164 42.6579 68.9406 42.9208 68.5112 43.0997C68.0818 43.2675 67.6255 43.3514 67.1424 43.3514C66.0259 43.3514 65.1295 42.9991 64.4531 42.2944C63.7768 41.5786 63.4386 40.5048 63.4386 39.0731V34.0063H67.078V38.4188C67.078 39.0452 67.1746 39.4926 67.3679 39.761C67.5611 40.0294 67.8456 40.1637 68.2213 40.1637C68.5756 40.1637 68.8708 40.0183 69.107 39.7275C69.3432 39.4255 69.4613 38.9557 69.4613 38.3181V34.0063H73.1007Z" fill="black"/>
<path d="M80.8343 33.8386C81.9186 33.8386 82.7882 34.1797 83.443 34.862C84.1086 35.5443 84.4414 36.5733 84.4414 37.949V43.1836H80.8021V38.6034C80.8021 37.552 80.4424 37.0263 79.7231 37.0263C79.3152 37.0263 78.9824 37.1773 78.7247 37.4793C78.4778 37.7701 78.3543 38.2343 78.3543 38.8718V43.1836H74.7149V34.0063H78.1772V34.9123C78.5207 34.5544 78.9179 34.286 79.3688 34.107C79.8197 33.9281 80.3082 33.8386 80.8343 33.8386Z" fill="black"/>
<path d="M92.5117 42.8648C91.9642 43.1892 91.218 43.3514 90.2733 43.3514C89.0387 43.3514 88.0886 43.0438 87.423 42.4286C86.7574 41.8023 86.4246 40.8683 86.4246 39.6268V37.2779H85.2168V34.5097H86.4246V31.9427H90.0639V34.5097H91.8675V37.2779H90.0639V39.5932C90.0639 39.8729 90.1337 40.091 90.2733 40.2476C90.4129 40.4041 90.5954 40.4824 90.8208 40.4824C91.1321 40.4824 91.4059 40.3986 91.6421 40.2308L92.5117 42.8648Z" fill="black"/>
<path d="M96.8751 43.3514C96.1236 43.3514 95.3828 43.2675 94.6528 43.0997C93.9228 42.9319 93.3323 42.7138 92.8814 42.4454L93.8798 39.9456C94.2878 40.2028 94.7709 40.4041 95.3292 40.5495C95.8874 40.695 96.4296 40.7677 96.9556 40.7677C97.3743 40.7677 97.6642 40.7341 97.8252 40.667C97.997 40.5887 98.0828 40.4768 98.0828 40.3314C98.0828 40.186 97.9755 40.0854 97.7608 40.0294C97.5568 39.9735 97.2186 39.9176 96.7463 39.8617C96.027 39.7722 95.415 39.6603 94.9105 39.5261C94.4059 39.3807 93.9604 39.1067 93.5739 38.704C93.1981 38.3014 93.0103 37.7253 93.0103 36.976C93.0103 36.3832 93.182 35.8519 93.5256 35.3821C93.8691 34.9123 94.379 34.5376 95.0554 34.258C95.7425 33.9784 96.5638 33.8386 97.5192 33.8386C98.1848 33.8386 98.8344 33.9057 99.4678 34.0399C100.112 34.1629 100.659 34.3475 101.11 34.5936L100.112 37.0934C99.3389 36.646 98.4908 36.4223 97.5675 36.4223C96.7731 36.4223 96.3759 36.5677 96.3759 36.8585C96.3759 37.0039 96.4832 37.1102 96.698 37.1773C96.9127 37.2332 97.2508 37.2891 97.7125 37.3451C98.4318 37.4345 99.0383 37.552 99.5322 37.6974C100.037 37.8428 100.477 38.1168 100.853 38.5195C101.239 38.9221 101.432 39.4982 101.432 40.2476C101.432 40.818 101.261 41.3381 100.917 41.8079C100.574 42.2776 100.058 42.6523 99.3711 42.9319C98.684 43.2116 97.852 43.3514 96.8751 43.3514Z" fill="black"/>
</svg>
