<svg width="54" height="54" viewBox="0 0 54 54" fill="none" xmlns="http://www.w3.org/2000/svg">
<path d="M42.0161 6.35294H11.984C10.1404 6.35294 8.64709 8.03286 8.64709 10.1069V43.893C8.64709 45.9671 10.1404 47.6471 11.984 47.6471H42.0161C43.8597 47.6471 45.353 45.9671 45.353 43.893V10.1069C45.353 8.03286 43.8597 6.35294 42.0161 6.35294ZM30.3369 42.016H15.3209C14.3999 42.016 13.6524 41.1751 13.6524 40.139C13.6524 39.1029 14.3999 38.262 15.3209 38.262H30.3369C31.2579 38.262 32.0054 39.1029 32.0054 40.139C32.0054 41.1751 31.2579 42.016 30.3369 42.016ZM38.6792 34.508H15.3209C14.3999 34.508 13.6524 33.6671 13.6524 32.631C13.6524 31.5949 14.3999 30.754 15.3209 30.754H38.6792C39.6002 30.754 40.3476 31.5949 40.3476 32.631C40.3476 33.6671 39.6002 34.508 38.6792 34.508ZM19.492 23.8279C19.492 23.8279 13.6524 19.492 13.6524 15.738C13.6524 13.6639 15.1457 11.984 16.9893 11.984C17.9921 11.984 18.8797 12.4907 19.492 13.2791C20.1043 12.4907 20.9919 11.984 21.9947 11.984C23.8383 11.984 25.3316 13.6639 25.3316 15.738C25.3316 19.492 19.492 23.8279 19.492 23.8279Z" fill="black"/>
</svg>
