<svg width="640" height="188" viewBox="0 0 640 188" fill="none" xmlns="http://www.w3.org/2000/svg">
<path d="M38.3363 167.745H635.869" stroke="black"/>
<path d="M38.3363 173.716V167.745" stroke="black"/>
<path d="M41.0257 181.077C41.0257 182.347 40.8089 183.29 40.3753 183.907C39.9417 184.524 39.264 184.833 38.3421 184.833C37.432 184.833 36.7581 184.532 36.3206 183.931C35.8831 183.325 35.6566 182.423 35.6409 181.224V179.776C35.6409 178.522 35.8577 177.591 36.2913 176.981C36.7249 176.372 37.4046 176.067 38.3304 176.067C39.2484 176.067 39.9241 176.362 40.3577 176.952C40.7913 177.538 41.014 178.444 41.0257 179.671V181.077ZM39.9417 179.595C39.9417 178.677 39.8128 178.009 39.555 177.591C39.2972 177.169 38.889 176.958 38.3304 176.958C37.7757 176.958 37.3714 177.167 37.1175 177.585C36.8636 178.003 36.7327 178.646 36.7249 179.513V181.247C36.7249 182.169 36.8577 182.851 37.1234 183.292C37.3929 183.729 37.7991 183.948 38.3421 183.948C38.8773 183.948 39.2738 183.741 39.5316 183.327C39.7933 182.913 39.93 182.261 39.9417 181.37V179.595Z" fill="black"/>
<path d="M104.729 173.716V167.745" stroke="black"/>
<path d="M105.631 184.716H104.541V177.491L102.356 178.294V177.31L105.461 176.144H105.631V184.716Z" fill="black"/>
<path d="M171.121 173.716V167.745" stroke="black"/>
<path d="M174.051 184.716H168.461V183.937L171.414 180.655C171.852 180.159 172.153 179.757 172.317 179.448C172.485 179.136 172.569 178.813 172.569 178.481C172.569 178.036 172.434 177.671 172.164 177.386C171.895 177.101 171.535 176.958 171.086 176.958C170.547 176.958 170.127 177.112 169.826 177.421C169.529 177.726 169.381 178.151 169.381 178.698H168.297C168.297 177.913 168.549 177.278 169.053 176.794C169.561 176.31 170.238 176.067 171.086 176.067C171.879 176.067 172.506 176.276 172.967 176.694C173.428 177.108 173.658 177.661 173.658 178.353C173.658 179.192 173.123 180.192 172.053 181.353L169.768 183.831H174.051V184.716Z" fill="black"/>
<path d="M237.514 173.716V167.745" stroke="black"/>
<path d="M236.43 179.923H237.244C237.756 179.915 238.158 179.78 238.451 179.519C238.744 179.257 238.891 178.903 238.891 178.458C238.891 177.458 238.393 176.958 237.397 176.958C236.928 176.958 236.553 177.093 236.272 177.362C235.994 177.628 235.856 177.981 235.856 178.423H234.772C234.772 177.747 235.018 177.187 235.51 176.741C236.006 176.292 236.635 176.067 237.397 176.067C238.201 176.067 238.832 176.28 239.289 176.706C239.746 177.132 239.975 177.724 239.975 178.481C239.975 178.853 239.854 179.212 239.611 179.56C239.373 179.907 239.047 180.167 238.633 180.339C239.102 180.487 239.463 180.733 239.717 181.077C239.975 181.421 240.104 181.841 240.104 182.337C240.104 183.103 239.854 183.71 239.354 184.159C238.854 184.608 238.203 184.833 237.402 184.833C236.602 184.833 235.949 184.616 235.445 184.183C234.945 183.749 234.695 183.177 234.695 182.466H235.785C235.785 182.915 235.932 183.274 236.225 183.544C236.518 183.813 236.91 183.948 237.402 183.948C237.926 183.948 238.326 183.812 238.604 183.538C238.881 183.265 239.02 182.872 239.02 182.36C239.02 181.864 238.867 181.483 238.563 181.218C238.258 180.952 237.818 180.815 237.244 180.808H236.43V179.923Z" fill="black"/>
<path d="M303.906 173.716V167.745" stroke="black"/>
<path d="M305.822 181.851H307.006V182.735H305.822V184.716H304.732V182.735H300.848V182.097L304.668 176.185H305.822V181.851ZM302.078 181.851H304.732V177.667L304.603 177.901L302.078 181.851Z" fill="black"/>
<path d="M370.299 173.716V167.745" stroke="black"/>
<path d="M368.137 180.438L368.57 176.185H372.941V177.187H369.49L369.232 179.513C369.65 179.267 370.125 179.144 370.656 179.144C371.434 179.144 372.051 179.401 372.508 179.917C372.965 180.429 373.193 181.122 373.193 181.997C373.193 182.876 372.955 183.569 372.478 184.077C372.006 184.581 371.344 184.833 370.492 184.833C369.738 184.833 369.123 184.624 368.646 184.206C368.17 183.788 367.898 183.21 367.832 182.472H368.857C368.924 182.96 369.098 183.329 369.379 183.579C369.66 183.825 370.031 183.948 370.492 183.948C370.996 183.948 371.391 183.776 371.676 183.433C371.965 183.089 372.109 182.614 372.109 182.009C372.109 181.438 371.953 180.981 371.641 180.638C371.332 180.29 370.92 180.116 370.404 180.116C369.932 180.116 369.56 180.22 369.291 180.427L369.004 180.661L368.137 180.438Z" fill="black"/>
<path d="M436.691 173.716V167.745" stroke="black"/>
<path d="M438.285 176.179V177.099H438.086C437.242 177.114 436.57 177.364 436.07 177.849C435.57 178.333 435.281 179.015 435.203 179.894C435.652 179.378 436.265 179.12 437.043 179.12C437.785 179.12 438.377 179.382 438.818 179.905C439.263 180.429 439.486 181.104 439.486 181.933C439.486 182.812 439.246 183.515 438.765 184.042C438.289 184.569 437.648 184.833 436.844 184.833C436.027 184.833 435.365 184.521 434.857 183.896C434.349 183.267 434.096 182.458 434.096 181.47V181.054C434.096 179.483 434.43 178.284 435.097 177.456C435.769 176.624 436.767 176.198 438.092 176.179H438.285ZM436.861 180.022C436.49 180.022 436.148 180.134 435.836 180.356C435.523 180.579 435.306 180.858 435.185 181.194V181.593C435.185 182.296 435.344 182.862 435.66 183.292C435.976 183.722 436.371 183.937 436.844 183.937C437.332 183.937 437.715 183.757 437.992 183.397C438.273 183.038 438.414 182.567 438.414 181.985C438.414 181.399 438.271 180.927 437.986 180.567C437.705 180.204 437.33 180.022 436.861 180.022Z" fill="black"/>
<path d="M503.084 173.716V167.745" stroke="black"/>
<path d="M505.931 176.794L502.398 184.716H501.261L504.783 177.075H500.166V176.185H505.931V176.794Z" fill="black"/>
<path d="M569.476 173.716V167.745" stroke="black"/>
<path d="M571.99 178.411C571.99 178.837 571.877 179.216 571.65 179.548C571.427 179.88 571.125 180.14 570.742 180.327C571.187 180.519 571.539 180.798 571.797 181.165C572.058 181.532 572.189 181.948 572.189 182.413C572.189 183.151 571.939 183.739 571.439 184.177C570.943 184.614 570.289 184.833 569.476 184.833C568.656 184.833 567.998 184.614 567.502 184.177C567.009 183.735 566.763 183.147 566.763 182.413C566.763 181.952 566.888 181.536 567.138 181.165C567.392 180.794 567.742 180.513 568.187 180.321C567.808 180.134 567.509 179.874 567.291 179.542C567.072 179.21 566.963 178.833 566.963 178.411C566.963 177.692 567.193 177.122 567.654 176.7C568.115 176.278 568.722 176.067 569.476 176.067C570.226 176.067 570.832 176.278 571.293 176.7C571.758 177.122 571.99 177.692 571.99 178.411ZM571.105 182.39C571.105 181.913 570.953 181.524 570.648 181.224C570.347 180.923 569.953 180.772 569.465 180.772C568.976 180.772 568.584 180.921 568.287 181.218C567.994 181.515 567.847 181.905 567.847 182.39C567.847 182.874 567.99 183.255 568.275 183.532C568.564 183.81 568.965 183.948 569.476 183.948C569.984 183.948 570.383 183.81 570.672 183.532C570.961 183.251 571.105 182.87 571.105 182.39ZM569.476 176.958C569.05 176.958 568.705 177.091 568.439 177.356C568.177 177.618 568.047 177.976 568.047 178.429C568.047 178.862 568.175 179.214 568.433 179.483C568.695 179.749 569.043 179.882 569.476 179.882C569.91 179.882 570.256 179.749 570.513 179.483C570.775 179.214 570.906 178.862 570.906 178.429C570.906 177.995 570.771 177.642 570.502 177.368C570.232 177.095 569.89 176.958 569.476 176.958Z" fill="black"/>
<path d="M635.869 173.716V167.745" stroke="black"/>
<path d="M637.363 180.966C637.136 181.235 636.865 181.452 636.548 181.616C636.236 181.78 635.892 181.862 635.517 181.862C635.025 181.862 634.595 181.741 634.228 181.499C633.865 181.257 633.584 180.917 633.384 180.479C633.185 180.038 633.086 179.552 633.086 179.021C633.086 178.45 633.193 177.937 633.408 177.479C633.627 177.022 633.935 176.673 634.334 176.431C634.732 176.188 635.197 176.067 635.728 176.067C636.572 176.067 637.236 176.384 637.72 177.017C638.209 177.646 638.453 178.505 638.453 179.595V179.911C638.453 181.571 638.125 182.784 637.468 183.55C636.812 184.312 635.822 184.702 634.498 184.722H634.287V183.808H634.515C635.41 183.792 636.097 183.56 636.578 183.11C637.058 182.657 637.32 181.942 637.363 180.966ZM635.693 180.966C636.056 180.966 636.39 180.854 636.695 180.632C637.003 180.409 637.228 180.134 637.369 179.806V179.372C637.369 178.661 637.214 178.083 636.906 177.638C636.597 177.192 636.207 176.97 635.734 176.97C635.257 176.97 634.875 177.153 634.586 177.521C634.296 177.884 634.152 178.364 634.152 178.962C634.152 179.544 634.291 180.024 634.568 180.403C634.849 180.778 635.224 180.966 635.693 180.966Z" fill="black"/>
<path d="M38.3362 8.51904V167.745" stroke="black"/>
<path d="M32.3409 167.745H38.3363" stroke="black"/>
<path d="M26.6652 163.164C26.6652 164.434 26.4484 165.377 26.0148 165.994C25.5812 166.612 24.9035 166.92 23.9816 166.92C23.0714 166.92 22.3976 166.619 21.9601 166.018C21.5226 165.412 21.296 164.51 21.2804 163.311V161.864C21.2804 160.61 21.4972 159.678 21.9308 159.069C22.3644 158.459 23.0441 158.155 23.9699 158.155C24.8878 158.155 25.5636 158.449 25.9972 159.039C26.4308 159.625 26.6535 160.531 26.6652 161.758V163.164ZM25.5812 161.682C25.5812 160.764 25.4523 160.096 25.1945 159.678C24.9367 159.256 24.5285 159.045 23.9699 159.045C23.4152 159.045 23.0109 159.254 22.757 159.672C22.5031 160.09 22.3722 160.733 22.3644 161.6V163.334C22.3644 164.256 22.4972 164.938 22.7628 165.379C23.0324 165.817 23.4386 166.035 23.9816 166.035C24.5167 166.035 24.9132 165.828 25.171 165.414C25.4328 165 25.5695 164.348 25.5812 163.457V161.682Z" fill="black"/>
<path d="M32.3411 127.938H38.3364" stroke="black"/>
<path d="M13.4289 126.997H7.83905V126.217L10.7922 122.936C11.2297 122.44 11.5305 122.038 11.6945 121.729C11.8625 121.417 11.9465 121.094 11.9465 120.762C11.9465 120.317 11.8117 119.952 11.5422 119.667C11.2726 119.381 10.9133 119.239 10.4641 119.239C9.92499 119.239 9.50507 119.393 9.20428 119.702C8.90741 120.006 8.75897 120.432 8.75897 120.979H7.67499C7.67499 120.194 7.92694 119.559 8.43085 119.075C8.93866 118.59 9.61639 118.348 10.4641 118.348C11.257 118.348 11.884 118.557 12.3449 118.975C12.8058 119.389 13.0363 119.942 13.0363 120.633C13.0363 121.473 12.5012 122.473 11.4308 123.633L9.14569 126.112H13.4289V126.997ZM15.0754 122.719L15.509 118.465H19.8801V119.467H16.4289L16.1711 121.793C16.5891 121.547 17.0637 121.424 17.5949 121.424C18.3723 121.424 18.9894 121.682 19.4465 122.198C19.9035 122.709 20.132 123.403 20.132 124.278C20.132 125.157 19.8937 125.85 19.4172 126.358C18.9445 126.862 18.2824 127.114 17.4308 127.114C16.6769 127.114 16.0617 126.905 15.5851 126.487C15.1086 126.069 14.8371 125.491 14.7707 124.752H15.7961C15.8625 125.241 16.0363 125.61 16.3176 125.86C16.5988 126.106 16.9699 126.229 17.4308 126.229C17.9348 126.229 18.3293 126.057 18.6144 125.713C18.9035 125.37 19.048 124.895 19.048 124.29C19.048 123.719 18.8918 123.262 18.5793 122.918C18.2707 122.571 17.8586 122.397 17.343 122.397C16.8703 122.397 16.4992 122.5 16.2297 122.708L15.9426 122.942L15.0754 122.719ZM26.6652 123.358C26.6652 124.627 26.4484 125.571 26.0148 126.188C25.5812 126.805 24.9035 127.114 23.9816 127.114C23.0715 127.114 22.3976 126.813 21.9601 126.211C21.5226 125.606 21.2961 124.704 21.2805 123.504V122.057C21.2805 120.803 21.4973 119.872 21.9308 119.262C22.3644 118.653 23.0441 118.348 23.9699 118.348C24.8879 118.348 25.5637 118.643 25.9973 119.233C26.4308 119.819 26.6535 120.725 26.6652 121.952V123.358ZM25.5812 121.875C25.5812 120.958 25.4523 120.29 25.1945 119.872C24.9367 119.45 24.5285 119.239 23.9699 119.239C23.4152 119.239 23.0109 119.448 22.757 119.866C22.5031 120.284 22.3723 120.926 22.3644 121.793V123.528C22.3644 124.45 22.4973 125.131 22.7629 125.573C23.0324 126.01 23.4387 126.229 23.9816 126.229C24.5168 126.229 24.9133 126.022 25.1711 125.608C25.4328 125.194 25.5695 124.542 25.5812 123.651V121.875Z" fill="black"/>
<path d="M32.3411 88.1318H38.3364" stroke="black"/>
<path d="M8.3371 82.9126L8.77069 78.6587H13.1418V79.6606H9.69061L9.4328 81.9868C9.85077 81.7407 10.3254 81.6177 10.8566 81.6177C11.634 81.6177 12.2512 81.8755 12.7082 82.3911C13.1652 82.9028 13.3937 83.5962 13.3937 84.4712C13.3937 85.3501 13.1555 86.0435 12.6789 86.5513C12.2062 87.0552 11.5441 87.3071 10.6926 87.3071C9.93866 87.3071 9.32343 87.0981 8.84686 86.6802C8.3703 86.2622 8.09882 85.6841 8.03241 84.9458H9.0578C9.12421 85.4341 9.29803 85.8032 9.57928 86.0532C9.86053 86.2993 10.2316 86.4224 10.6926 86.4224C11.1965 86.4224 11.591 86.2505 11.8762 85.9067C12.1652 85.563 12.3098 85.0884 12.3098 84.4829C12.3098 83.9126 12.1535 83.4556 11.841 83.1118C11.5324 82.7642 11.1203 82.5903 10.6047 82.5903C10.132 82.5903 9.76093 82.6938 9.49139 82.9009L9.20428 83.1353L8.3371 82.9126ZM19.9269 83.5513C19.9269 84.8208 19.7101 85.7642 19.2766 86.3813C18.843 86.9985 18.1652 87.3071 17.2433 87.3071C16.3332 87.3071 15.6594 87.0063 15.2219 86.4048C14.7844 85.7993 14.5578 84.897 14.5422 83.6978V82.2505C14.5422 80.9966 14.759 80.0649 15.1926 79.4556C15.6262 78.8462 16.3058 78.5415 17.2316 78.5415C18.1496 78.5415 18.8254 78.8364 19.259 79.4263C19.6926 80.0122 19.9152 80.9185 19.9269 82.145V83.5513ZM18.843 82.0688C18.843 81.1509 18.7141 80.4829 18.4562 80.0649C18.1984 79.6431 17.7902 79.4321 17.2316 79.4321C16.6769 79.4321 16.2726 79.6411 16.0187 80.0591C15.7648 80.4771 15.634 81.1196 15.6262 81.9868V83.7212C15.6262 84.6431 15.759 85.3247 16.0246 85.7661C16.2941 86.2036 16.7004 86.4224 17.2433 86.4224C17.7785 86.4224 18.175 86.2153 18.4328 85.8013C18.6945 85.3872 18.8312 84.7349 18.843 83.8442V82.0688ZM26.6652 83.5513C26.6652 84.8208 26.4484 85.7642 26.0148 86.3813C25.5812 86.9985 24.9035 87.3071 23.9816 87.3071C23.0715 87.3071 22.3976 87.0063 21.9601 86.4048C21.5226 85.7993 21.2961 84.897 21.2805 83.6978V82.2505C21.2805 80.9966 21.4973 80.0649 21.9308 79.4556C22.3644 78.8462 23.0441 78.5415 23.9699 78.5415C24.8879 78.5415 25.5637 78.8364 25.9973 79.4263C26.4308 80.0122 26.6535 80.9185 26.6652 82.145V83.5513ZM25.5812 82.0688C25.5812 81.1509 25.4523 80.4829 25.1945 80.0649C24.9367 79.6431 24.5285 79.4321 23.9699 79.4321C23.4152 79.4321 23.0109 79.6411 22.757 80.0591C22.5031 80.4771 22.3723 81.1196 22.3644 81.9868V83.7212C22.3644 84.6431 22.4973 85.3247 22.7629 85.7661C23.0324 86.2036 23.4387 86.4224 23.9816 86.4224C24.5168 86.4224 24.9133 86.2153 25.1711 85.8013C25.4328 85.3872 25.5695 84.7349 25.5812 83.8442V82.0688Z" fill="black"/>
<path d="M32.3411 48.3254H38.3364" stroke="black"/>
<path d="M13.3469 39.4617L9.81366 47.3835H8.67694L12.1984 39.7429H7.58124V38.8523H13.3469V39.4617ZM15.0754 43.1062L15.509 38.8523H19.8801V39.8542H16.4289L16.1711 42.1804C16.5891 41.9343 17.0637 41.8113 17.5949 41.8113C18.3723 41.8113 18.9894 42.0691 19.4465 42.5847C19.9035 43.0964 20.132 43.7898 20.132 44.6648C20.132 45.5437 19.8937 46.2371 19.4172 46.7449C18.9445 47.2488 18.2824 47.5007 17.4308 47.5007C16.6769 47.5007 16.0617 47.2917 15.5851 46.8738C15.1086 46.4558 14.8371 45.8777 14.7707 45.1394H15.7961C15.8625 45.6277 16.0363 45.9968 16.3176 46.2468C16.5988 46.4929 16.9699 46.616 17.4308 46.616C17.9348 46.616 18.3293 46.4441 18.6144 46.1003C18.9035 45.7566 19.048 45.282 19.048 44.6765C19.048 44.1062 18.8918 43.6492 18.5793 43.3054C18.2707 42.9578 17.8586 42.7839 17.343 42.7839C16.8703 42.7839 16.4992 42.8875 16.2297 43.0945L15.9426 43.3289L15.0754 43.1062ZM26.6652 43.7449C26.6652 45.0144 26.4484 45.9578 26.0148 46.575C25.5812 47.1921 24.9035 47.5007 23.9816 47.5007C23.0715 47.5007 22.3976 47.2 21.9601 46.5984C21.5226 45.9929 21.2961 45.0906 21.2805 43.8914V42.4441C21.2805 41.1902 21.4973 40.2585 21.9308 39.6492C22.3644 39.0398 23.0441 38.7351 23.9699 38.7351C24.8879 38.7351 25.5637 39.03 25.9973 39.6199C26.4308 40.2058 26.6535 41.1121 26.6652 42.3386V43.7449ZM25.5812 42.2625C25.5812 41.3445 25.4523 40.6765 25.1945 40.2585C24.9367 39.8367 24.5285 39.6257 23.9699 39.6257C23.4152 39.6257 23.0109 39.8347 22.757 40.2527C22.5031 40.6707 22.3723 41.3132 22.3644 42.1804V43.9148C22.3644 44.8367 22.4973 45.5183 22.7629 45.9597C23.0324 46.3972 23.4387 46.616 23.9816 46.616C24.5168 46.616 24.9133 46.4089 25.1711 45.9949C25.4328 45.5808 25.5695 44.9285 25.5812 44.0378V42.2625Z" fill="black"/>
<path d="M32.3409 8.51904H38.3363" stroke="black"/>
<path d="M4.66322 11.6482H3.57337V4.42358L1.38783 5.22632V4.24194L4.49329 3.07593H4.66322V11.6482ZM13.1886 8.00952C13.1886 9.27905 12.9718 10.2224 12.5382 10.8396C12.1046 11.4568 11.4269 11.7654 10.505 11.7654C9.59486 11.7654 8.92103 11.4646 8.48353 10.863C8.04603 10.2576 7.81947 9.35522 7.80384 8.15601V6.70874C7.80384 5.45483 8.02064 4.52319 8.45423 3.91382C8.88783 3.30444 9.56751 2.99976 10.4933 2.99976C11.4113 2.99976 12.087 3.29468 12.5206 3.88452C12.9542 4.47046 13.1769 5.37671 13.1886 6.60327V8.00952ZM12.1046 6.5271C12.1046 5.60913 11.9757 4.94116 11.7179 4.52319C11.4601 4.10132 11.0519 3.89038 10.4933 3.89038C9.93861 3.89038 9.53431 4.09937 9.2804 4.51733C9.0265 4.9353 8.89564 5.57788 8.88783 6.44507V8.17944C8.88783 9.10132 9.02064 9.78296 9.28626 10.2244C9.55579 10.6619 9.96204 10.8806 10.505 10.8806C11.0402 10.8806 11.4367 10.6736 11.6945 10.2595C11.9562 9.84546 12.0929 9.19312 12.1046 8.30249V6.5271ZM19.9269 8.00952C19.9269 9.27905 19.7101 10.2224 19.2765 10.8396C18.8429 11.4568 18.1652 11.7654 17.2433 11.7654C16.3331 11.7654 15.6593 11.4646 15.2218 10.863C14.7843 10.2576 14.5577 9.35522 14.5421 8.15601V6.70874C14.5421 5.45483 14.7589 4.52319 15.1925 3.91382C15.6261 3.30444 16.3058 2.99976 17.2316 2.99976C18.1495 2.99976 18.8253 3.29468 19.2589 3.88452C19.6925 4.47046 19.9152 5.37671 19.9269 6.60327V8.00952ZM18.8429 6.5271C18.8429 5.60913 18.714 4.94116 18.4562 4.52319C18.1984 4.10132 17.7902 3.89038 17.2316 3.89038C16.6769 3.89038 16.2726 4.09937 16.0187 4.51733C15.7648 4.9353 15.6339 5.57788 15.6261 6.44507V8.17944C15.6261 9.10132 15.7589 9.78296 16.0245 10.2244C16.2941 10.6619 16.7003 10.8806 17.2433 10.8806C17.7785 10.8806 18.1749 10.6736 18.4327 10.2595C18.6945 9.84546 18.8312 9.19312 18.8429 8.30249V6.5271ZM26.6652 8.00952C26.6652 9.27905 26.4484 10.2224 26.0148 10.8396C25.5812 11.4568 24.9035 11.7654 23.9816 11.7654C23.0714 11.7654 22.3976 11.4646 21.9601 10.863C21.5226 10.2576 21.296 9.35522 21.2804 8.15601V6.70874C21.2804 5.45483 21.4972 4.52319 21.9308 3.91382C22.3644 3.30444 23.0441 2.99976 23.9699 2.99976C24.8878 2.99976 25.5636 3.29468 25.9972 3.88452C26.4308 4.47046 26.6535 5.37671 26.6652 6.60327V8.00952ZM25.5812 6.5271C25.5812 5.60913 25.4523 4.94116 25.1945 4.52319C24.9367 4.10132 24.5285 3.89038 23.9699 3.89038C23.4152 3.89038 23.0109 4.09937 22.757 4.51733C22.5031 4.9353 22.3722 5.57788 22.3644 6.44507V8.17944C22.3644 9.10132 22.4972 9.78296 22.7628 10.2244C23.0324 10.6619 23.4386 10.8806 23.9816 10.8806C24.5167 10.8806 24.9132 10.6736 25.171 10.2595C25.4327 9.84546 25.5695 9.19312 25.5812 8.30249V6.5271Z" fill="black"/>
<path d="M38.3362 167.745H635.869" stroke="#CCCCCC"/>
<path d="M38.3362 127.938H635.869" stroke="#CCCCCC"/>
<path d="M38.3362 88.1321H635.869" stroke="#CCCCCC"/>
<path d="M38.3362 48.3254H635.869" stroke="#CCCCCC"/>
<path d="M38.3362 8.51904H635.869" stroke="#CCCCCC"/>
<path d="M38.3362 8.51904V167.745" stroke="#CCCCCC"/>
<path d="M104.729 8.51904V167.745" stroke="#CCCCCC"/>
<path d="M171.121 8.51904V167.745" stroke="#CCCCCC"/>
<path d="M237.514 8.51904V167.745" stroke="#CCCCCC"/>
<path d="M303.906 8.51904V167.745" stroke="#CCCCCC"/>
<path d="M370.299 8.51904V167.745" stroke="#CCCCCC"/>
<path d="M436.691 8.51904V167.745" stroke="#CCCCCC"/>
<path d="M503.084 8.51904V167.745" stroke="#CCCCCC"/>
<path d="M569.476 8.51904V167.745" stroke="#CCCCCC"/>
<path d="M635.869 8.51904V167.745" stroke="#CCCCCC"/>
<path d="M38.3362 67.7511L104.729 65.9996L171.121 64.0889L237.514 101.189L303.906 58.3568L370.299 10.9075L436.691 131.282L503.084 125.391L569.476 14.8881L635.869 63.6113" stroke="#FFB66D"/>
<path d="M38.3363 70.7366C39.9918 70.7366 41.3339 69.3999 41.3339 67.7511C41.3339 66.1023 39.9918 64.7656 38.3363 64.7656C36.6807 64.7656 35.3386 66.1023 35.3386 67.7511C35.3386 69.3999 36.6807 70.7366 38.3363 70.7366Z" fill="white" stroke="#83705D"/>
<path d="M104.729 68.9851C106.384 68.9851 107.726 67.6485 107.726 65.9996C107.726 64.3508 106.384 63.0142 104.729 63.0142C103.073 63.0142 101.731 64.3508 101.731 65.9996C101.731 67.6485 103.073 68.9851 104.729 68.9851Z" fill="white" stroke="#83705D"/>
<path d="M171.121 67.0742C172.777 67.0742 174.119 65.7376 174.119 64.0888C174.119 62.4399 172.777 61.1033 171.121 61.1033C169.466 61.1033 168.124 62.4399 168.124 64.0888C168.124 65.7376 169.466 67.0742 171.121 67.0742Z" fill="white" stroke="#83705D"/>
<path d="M237.514 104.174C239.169 104.174 240.511 102.837 240.511 101.188C240.511 99.5395 239.169 98.2029 237.514 98.2029C235.858 98.2029 234.516 99.5395 234.516 101.188C234.516 102.837 235.858 104.174 237.514 104.174Z" fill="white" stroke="#83705D"/>
<path d="M303.906 61.3421C305.562 61.3421 306.904 60.0054 306.904 58.3566C306.904 56.7077 305.562 55.3711 303.906 55.3711C302.251 55.3711 300.909 56.7077 300.909 58.3566C300.909 60.0054 302.251 61.3421 303.906 61.3421Z" fill="white" stroke="#83705D"/>
<path d="M370.299 13.8928C371.954 13.8928 373.296 12.5562 373.296 10.9074C373.296 9.25852 371.954 7.92188 370.299 7.92188C368.643 7.92188 367.301 9.25852 367.301 10.9074C367.301 12.5562 368.643 13.8928 370.299 13.8928Z" fill="white" stroke="#83705D"/>
<path d="M436.691 134.268C438.347 134.268 439.689 132.931 439.689 131.282C439.689 129.633 438.347 128.297 436.691 128.297C435.036 128.297 433.694 129.633 433.694 131.282C433.694 132.931 435.036 134.268 436.691 134.268Z" fill="white" stroke="#83705D"/>
<path d="M503.084 128.376C504.739 128.376 506.081 127.04 506.081 125.391C506.081 123.742 504.739 122.405 503.084 122.405C501.428 122.405 500.086 123.742 500.086 125.391C500.086 127.04 501.428 128.376 503.084 128.376Z" fill="white" stroke="#83705D"/>
<path d="M569.476 17.8736C571.132 17.8736 572.474 16.5369 572.474 14.8881C572.474 13.2392 571.132 11.9026 569.476 11.9026C567.821 11.9026 566.479 13.2392 566.479 14.8881C566.479 16.5369 567.821 17.8736 569.476 17.8736Z" fill="white" stroke="#83705D"/>
<path d="M635.869 66.5967C637.524 66.5967 638.866 65.2601 638.866 63.6112C638.866 61.9624 637.524 60.6257 635.869 60.6257C634.213 60.6257 632.871 61.9624 632.871 63.6112C632.871 65.2601 634.213 66.5967 635.869 66.5967Z" fill="white" stroke="#83705D"/>
<path d="M38.3362 44.982L104.729 132.079L171.121 17.7543L237.514 73.6426L303.906 17.1174L370.299 121.57L436.691 154.689L503.084 140.677L569.476 118.863L635.869 140.836" stroke="#AFB9E2"/>
<path d="M38.3363 47.9673C39.9918 47.9673 41.3339 46.6307 41.3339 44.9818C41.3339 43.333 39.9918 41.9963 38.3363 41.9963C36.6807 41.9963 35.3386 43.333 35.3386 44.9818C35.3386 46.6307 36.6807 47.9673 38.3363 47.9673Z" fill="white" stroke="#AFB9E2"/>
<path d="M104.729 135.064C106.384 135.064 107.726 133.727 107.726 132.079C107.726 130.43 106.384 129.093 104.729 129.093C103.073 129.093 101.731 130.43 101.731 132.079C101.731 133.727 103.073 135.064 104.729 135.064Z" fill="white" stroke="#AFB9E2"/>
<path d="M171.121 20.7398C172.777 20.7398 174.119 19.4031 174.119 17.7543C174.119 16.1054 172.777 14.7688 171.121 14.7688C169.466 14.7688 168.124 16.1054 168.124 17.7543C168.124 19.4031 169.466 20.7398 171.121 20.7398Z" fill="white" stroke="#AFB9E2"/>
<path d="M237.514 76.628C239.169 76.628 240.511 75.2913 240.511 73.6425C240.511 71.9936 239.169 70.657 237.514 70.657C235.858 70.657 234.516 71.9936 234.516 73.6425C234.516 75.2913 235.858 76.628 237.514 76.628Z" fill="white" stroke="#AFB9E2"/>
<path d="M303.906 20.1028C305.562 20.1028 306.904 18.7662 306.904 17.1173C306.904 15.4685 305.562 14.1318 303.906 14.1318C302.251 14.1318 300.909 15.4685 300.909 17.1173C300.909 18.7662 302.251 20.1028 303.906 20.1028Z" fill="white" stroke="#AFB9E2"/>
<path d="M370.299 124.555C371.954 124.555 373.296 123.218 373.296 121.569C373.296 119.921 371.954 118.584 370.299 118.584C368.643 118.584 367.301 119.921 367.301 121.569C367.301 123.218 368.643 124.555 370.299 124.555Z" fill="white" stroke="#AFB9E2"/>
<path d="M436.691 157.674C438.347 157.674 439.689 156.337 439.689 154.689C439.689 153.04 438.347 151.703 436.691 151.703C435.036 151.703 433.694 153.04 433.694 154.689C433.694 156.337 435.036 157.674 436.691 157.674Z" fill="white" stroke="#AFB9E2"/>
<path d="M503.084 143.662C504.739 143.662 506.081 142.325 506.081 140.677C506.081 139.028 504.739 137.691 503.084 137.691C501.428 137.691 500.086 139.028 500.086 140.677C500.086 142.325 501.428 143.662 503.084 143.662Z" fill="white" stroke="#AFB9E2"/>
<path d="M569.476 121.848C571.132 121.848 572.474 120.512 572.474 118.863C572.474 117.214 571.132 115.877 569.476 115.877C567.821 115.877 566.479 117.214 566.479 118.863C566.479 120.512 567.821 121.848 569.476 121.848Z" fill="white" stroke="#AFB9E2"/>
<path d="M635.869 143.821C637.524 143.821 638.866 142.485 638.866 140.836C638.866 139.187 637.524 137.85 635.869 137.85C634.213 137.85 632.871 139.187 632.871 140.836C632.871 142.485 634.213 143.821 635.869 143.821Z" fill="white" stroke="#AFB9E2"/>
</svg>
