<svg width="164" height="24" viewBox="0 0 164 24" fill="none" xmlns="http://www.w3.org/2000/svg">
<path d="M43.9557 11.8909C43.9557 13.1955 43.717 14.317 43.2398 15.2557C42.7625 16.1903 42.1082 16.9102 41.277 17.4153C40.4497 17.9165 39.5091 18.167 38.4551 18.167C37.3972 18.167 36.4526 17.9165 35.6213 17.4153C34.794 16.9102 34.1418 16.1884 33.6645 15.2497C33.1872 14.3111 32.9486 13.1915 32.9486 11.8909C32.9486 10.5864 33.1872 9.46676 33.6645 8.5321C34.1418 7.59347 34.794 6.87358 35.6213 6.37244C36.4526 5.86733 37.3972 5.61477 38.4551 5.61477C39.5091 5.61477 40.4497 5.86733 41.277 6.37244C42.1082 6.87358 42.7625 7.59347 43.2398 8.5321C43.717 9.46676 43.9557 10.5864 43.9557 11.8909ZM42.1301 11.8909C42.1301 10.8966 41.969 10.0594 41.6469 9.37926C41.3287 8.69517 40.8912 8.17813 40.3344 7.82813C39.7815 7.47415 39.1551 7.29716 38.4551 7.29716C37.7511 7.29716 37.1227 7.47415 36.5699 7.82813C36.017 8.17813 35.5795 8.69517 35.2574 9.37926C34.9392 10.0594 34.7801 10.8966 34.7801 11.8909C34.7801 12.8852 34.9392 13.7244 35.2574 14.4085C35.5795 15.0886 36.017 15.6057 36.5699 15.9597C37.1227 16.3097 37.7511 16.4847 38.4551 16.4847C39.1551 16.4847 39.7815 16.3097 40.3344 15.9597C40.8912 15.6057 41.3287 15.0886 41.6469 14.4085C41.969 13.7244 42.1301 12.8852 42.1301 11.8909ZM47.8947 12.5591V18H46.1109V8.83636H47.8231V10.3278H47.9364C48.1472 9.84261 48.4773 9.45284 48.9268 9.15852C49.3802 8.8642 49.9509 8.71705 50.639 8.71705C51.2634 8.71705 51.8103 8.8483 52.2796 9.1108C52.7489 9.36932 53.1129 9.75511 53.3714 10.2682C53.6299 10.7813 53.7592 11.4156 53.7592 12.1713V18H51.9754V12.3861C51.9754 11.7219 51.8023 11.2028 51.4563 10.829C51.1103 10.4511 50.635 10.2622 50.0305 10.2622C49.6168 10.2622 49.2489 10.3517 48.9268 10.5307C48.6086 10.7097 48.356 10.9722 48.1691 11.3182C47.9862 11.6602 47.8947 12.0739 47.8947 12.5591ZM64.8751 8.83636V10.2682H59.8697V8.83636H64.8751ZM61.2121 6.64091H62.9959V15.3094C62.9959 15.6554 63.0476 15.9159 63.151 16.0909C63.2544 16.2619 63.3876 16.3793 63.5507 16.4429C63.7178 16.5026 63.8987 16.5324 64.0936 16.5324C64.2368 16.5324 64.3621 16.5224 64.4695 16.5026C64.5768 16.4827 64.6604 16.4668 64.72 16.4548L65.0422 17.9284C64.9388 17.9682 64.7916 18.008 64.6007 18.0477C64.4098 18.0915 64.1712 18.1153 63.8848 18.1193C63.4155 18.1273 62.978 18.0437 62.5723 17.8688C62.1666 17.6938 61.8385 17.4233 61.5879 17.0574C61.3374 16.6915 61.2121 16.2321 61.2121 15.6793V6.64091ZM66.8484 18V8.83636H68.6322V18H66.8484ZM67.7492 7.42244C67.439 7.42244 67.1725 7.31903 66.9498 7.11222C66.731 6.90142 66.6217 6.65085 66.6217 6.36051C66.6217 6.06619 66.731 5.81563 66.9498 5.60881C67.1725 5.39801 67.439 5.29261 67.7492 5.29261C68.0594 5.29261 68.3239 5.39801 68.5427 5.60881C68.7654 5.81563 68.8768 6.06619 68.8768 6.36051C68.8768 6.65085 68.7654 6.90142 68.5427 7.11222C68.3239 7.31903 68.0594 7.42244 67.7492 7.42244ZM71.032 18V8.83636H72.7442V10.3278H72.8575C73.0484 9.82273 73.3607 9.42898 73.7942 9.14659C74.2277 8.86023 74.7467 8.71705 75.3513 8.71705C75.9638 8.71705 76.4768 8.86023 76.8905 9.14659C77.3081 9.43295 77.6163 9.8267 77.8152 10.3278H77.9107C78.1294 9.83864 78.4774 9.44886 78.9547 9.15852C79.432 8.8642 80.0007 8.71705 80.6609 8.71705C81.4922 8.71705 82.1703 8.97756 82.6953 9.49858C83.2243 10.0196 83.4888 10.8051 83.4888 11.8551V18H81.705V12.0222C81.705 11.4017 81.5359 10.9523 81.1979 10.6739C80.8598 10.3955 80.4561 10.2563 79.9868 10.2563C79.4061 10.2563 78.9547 10.4352 78.6325 10.7932C78.3104 11.1472 78.1493 11.6026 78.1493 12.1594V18H76.3714V11.9088C76.3714 11.4116 76.2163 11.0119 75.9061 10.7097C75.5959 10.4074 75.1922 10.2563 74.695 10.2563C74.357 10.2563 74.0447 10.3457 73.7584 10.5247C73.476 10.6997 73.2473 10.9443 73.0723 11.2585C72.9013 11.5727 72.8158 11.9366 72.8158 12.3503V18H71.032ZM89.829 18.1849C88.9262 18.1849 88.1486 17.992 87.4964 17.6063C86.8481 17.2165 86.3469 16.6696 85.993 15.9656C85.643 15.2577 85.468 14.4284 85.468 13.4778C85.468 12.5392 85.643 11.7119 85.993 10.996C86.3469 10.2801 86.8401 9.72131 87.4725 9.3196C88.1089 8.9179 88.8526 8.71705 89.7038 8.71705C90.2208 8.71705 90.7219 8.80256 91.2072 8.97358C91.6924 9.1446 92.1279 9.41307 92.5137 9.77898C92.8995 10.1449 93.2038 10.6202 93.4265 11.2048C93.6492 11.7855 93.7606 12.4915 93.7606 13.3227V13.9551H86.4762V12.6188H92.0126C92.0126 12.1494 91.9171 11.7338 91.7262 11.3719C91.5353 11.006 91.2668 10.7176 90.9208 10.5068C90.5788 10.296 90.1771 10.1906 89.7157 10.1906C89.2146 10.1906 88.7771 10.3139 88.4032 10.5605C88.0333 10.8031 87.7469 11.1213 87.5441 11.5151C87.3452 11.9048 87.2458 12.3284 87.2458 12.7858V13.8298C87.2458 14.4423 87.3532 14.9634 87.568 15.3929C87.7867 15.8224 88.091 16.1506 88.4807 16.3773C88.8705 16.6 89.3259 16.7114 89.8469 16.7114C90.185 16.7114 90.4932 16.6636 90.7717 16.5682C91.0501 16.4688 91.2907 16.3216 91.4935 16.1267C91.6964 15.9318 91.8515 15.6912 91.9589 15.4048L93.6472 15.7091C93.512 16.2062 93.2694 16.6418 92.9194 17.0156C92.5734 17.3855 92.1379 17.6739 91.6129 17.8807C91.0918 18.0835 90.4972 18.1849 89.829 18.1849ZM103.616 18.179C102.876 18.179 102.216 17.9901 101.636 17.6122C101.059 17.2304 100.605 16.6875 100.275 15.9835C99.9492 15.2756 99.7861 14.4264 99.7861 13.4361C99.7861 12.4457 99.9512 11.5986 100.281 10.8946C100.615 10.1906 101.073 9.6517 101.653 9.27784C102.234 8.90398 102.892 8.71705 103.628 8.71705C104.197 8.71705 104.654 8.8125 105 9.00341C105.35 9.19034 105.621 9.40909 105.812 9.65966C106.007 9.91023 106.158 10.131 106.265 10.3219H106.373V5.78182H108.156V18H106.414V16.5741H106.265C106.158 16.769 106.003 16.9918 105.8 17.2423C105.601 17.4929 105.326 17.7116 104.976 17.8986C104.626 18.0855 104.173 18.179 103.616 18.179ZM104.01 16.6577C104.523 16.6577 104.957 16.5224 105.311 16.252C105.669 15.9776 105.939 15.5977 106.122 15.1125C106.309 14.6273 106.402 14.0625 106.402 13.4182C106.402 12.7818 106.311 12.225 106.128 11.7477C105.945 11.2705 105.676 10.8986 105.323 10.6321C104.969 10.3656 104.531 10.2324 104.01 10.2324C103.473 10.2324 103.026 10.3716 102.668 10.65C102.31 10.9284 102.039 11.3082 101.856 11.7895C101.677 12.2707 101.588 12.8136 101.588 13.4182C101.588 14.0307 101.679 14.5815 101.862 15.0707C102.045 15.5599 102.316 15.9477 102.674 16.2341C103.036 16.5165 103.481 16.6577 104.01 16.6577ZM114.652 18.1849C113.749 18.1849 112.971 17.992 112.319 17.6063C111.671 17.2165 111.17 16.6696 110.816 15.9656C110.466 15.2577 110.291 14.4284 110.291 13.4778C110.291 12.5392 110.466 11.7119 110.816 10.996C111.17 10.2801 111.663 9.72131 112.295 9.3196C112.932 8.9179 113.675 8.71705 114.526 8.71705C115.043 8.71705 115.545 8.80256 116.03 8.97358C116.515 9.1446 116.951 9.41307 117.336 9.77898C117.722 10.1449 118.026 10.6202 118.249 11.2048C118.472 11.7855 118.583 12.4915 118.583 13.3227V13.9551H111.299V12.6188H116.835C116.835 12.1494 116.74 11.7338 116.549 11.3719C116.358 11.006 116.089 10.7176 115.743 10.5068C115.401 10.296 115 10.1906 114.538 10.1906C114.037 10.1906 113.6 10.3139 113.226 10.5605C112.856 10.8031 112.57 11.1213 112.367 11.5151C112.168 11.9048 112.068 12.3284 112.068 12.7858V13.8298C112.068 14.4423 112.176 14.9634 112.391 15.3929C112.609 15.8224 112.914 16.1506 113.303 16.3773C113.693 16.6 114.149 16.7114 114.67 16.7114C115.008 16.7114 115.316 16.6636 115.594 16.5682C115.873 16.4688 116.113 16.3216 116.316 16.1267C116.519 15.9318 116.674 15.6912 116.782 15.4048L118.47 15.7091C118.335 16.2062 118.092 16.6418 117.742 17.0156C117.396 17.3855 116.961 17.6739 116.436 17.8807C115.914 18.0835 115.32 18.1849 114.652 18.1849ZM122.346 5.78182V18H120.562V5.78182H122.346ZM124.746 18V8.83636H126.53V18H124.746ZM125.647 7.42244C125.337 7.42244 125.07 7.31903 124.847 7.11222C124.629 6.90142 124.519 6.65085 124.519 6.36051C124.519 6.06619 124.629 5.81563 124.847 5.60881C125.07 5.39801 125.337 5.29261 125.647 5.29261C125.957 5.29261 126.222 5.39801 126.44 5.60881C126.663 5.81563 126.774 6.06619 126.774 6.36051C126.774 6.65085 126.663 6.90142 126.44 7.11222C126.222 7.31903 125.957 7.42244 125.647 7.42244ZM136.769 8.83636L133.446 18H131.537L128.208 8.83636H130.123L132.444 15.8881H132.539L134.854 8.83636H136.769ZM142.083 18.1849C141.18 18.1849 140.403 17.992 139.75 17.6063C139.102 17.2165 138.601 16.6696 138.247 15.9656C137.897 15.2577 137.722 14.4284 137.722 13.4778C137.722 12.5392 137.897 11.7119 138.247 10.996C138.601 10.2801 139.094 9.72131 139.726 9.3196C140.363 8.9179 141.107 8.71705 141.958 8.71705C142.475 8.71705 142.976 8.80256 143.461 8.97358C143.946 9.1446 144.382 9.41307 144.768 9.77898C145.153 10.1449 145.458 10.6202 145.68 11.2048C145.903 11.7855 146.014 12.4915 146.014 13.3227V13.9551H138.73V12.6188H144.266C144.266 12.1494 144.171 11.7338 143.98 11.3719C143.789 11.006 143.521 10.7176 143.175 10.5068C142.833 10.296 142.431 10.1906 141.97 10.1906C141.468 10.1906 141.031 10.3139 140.657 10.5605C140.287 10.8031 140.001 11.1213 139.798 11.5151C139.599 11.9048 139.5 12.3284 139.5 12.7858V13.8298C139.5 14.4423 139.607 14.9634 139.822 15.3929C140.041 15.8224 140.345 16.1506 140.735 16.3773C141.124 16.6 141.58 16.7114 142.101 16.7114C142.439 16.7114 142.747 16.6636 143.026 16.5682C143.304 16.4688 143.545 16.3216 143.747 16.1267C143.95 15.9318 144.105 15.6912 144.213 15.4048L145.901 15.7091C145.766 16.2062 145.523 16.6418 145.173 17.0156C144.827 17.3855 144.392 17.6739 143.867 17.8807C143.346 18.0835 142.751 18.1849 142.083 18.1849ZM147.994 18V8.83636H149.718V10.292H149.813C149.98 9.79886 150.275 9.41108 150.696 9.12869C151.122 8.84233 151.603 8.69915 152.14 8.69915C152.251 8.69915 152.383 8.70313 152.534 8.71108C152.689 8.71903 152.81 8.72898 152.898 8.74091V10.4472C152.826 10.4273 152.699 10.4054 152.516 10.3815C152.333 10.3537 152.15 10.3398 151.967 10.3398C151.545 10.3398 151.17 10.4293 150.839 10.6082C150.513 10.7832 150.255 11.0278 150.064 11.342C149.873 11.6523 149.777 12.0063 149.777 12.404V18H147.994ZM155.848 21.4364C155.581 21.4364 155.339 21.4145 155.12 21.3707C154.901 21.331 154.738 21.2872 154.631 21.2395L155.06 19.7778C155.386 19.8653 155.677 19.9031 155.931 19.8912C156.186 19.8793 156.411 19.7838 156.605 19.6048C156.804 19.4259 156.979 19.1335 157.13 18.7278L157.351 18.1193L153.998 8.83636H155.907L158.228 15.9477H158.324L160.644 8.83636H162.559L158.783 19.223C158.608 19.7003 158.385 20.104 158.115 20.4341C157.844 20.7682 157.522 21.0188 157.148 21.1858C156.774 21.3528 156.341 21.4364 155.848 21.4364Z" fill="#01655E"/>
<path d="M6.53033 3.46967C6.82322 3.76256 6.82322 4.23744 6.53033 4.53033L4.03033 7.03033C3.73744 7.32322 3.26256 7.32322 2.96967 7.03033C2.67678 6.73744 2.67678 6.26256 2.96967 5.96967L5.46967 3.46967C5.76256 3.17678 6.23744 3.17678 6.53033 3.46967Z" fill="#01655E"/>
<path fill-rule="evenodd" clip-rule="evenodd" d="M12 4.5C7.30558 4.5 3.5 8.30558 3.5 13C3.5 17.6944 7.30558 21.5 12 21.5C16.6944 21.5 20.5 17.6944 20.5 13C20.5 8.30558 16.6944 4.5 12 4.5ZM12.75 8C12.75 7.58579 12.4142 7.25 12 7.25C11.5858 7.25 11.25 7.58579 11.25 8V13C11.25 13.2586 11.3832 13.4989 11.6025 13.636L14.6025 15.511C14.9538 15.7305 15.4165 15.6238 15.636 15.2725C15.8555 14.9212 15.7488 14.4585 15.3975 14.239L12.75 12.5843V8Z" fill="#01655E"/>
<path d="M17.4697 4.53033C17.1768 4.23744 17.1768 3.76256 17.4697 3.46967C17.7626 3.17678 18.2374 3.17678 18.5303 3.46967L21.0303 5.96967C21.3232 6.26256 21.3232 6.73744 21.0303 7.03033C20.7374 7.32322 20.2626 7.32322 19.9697 7.03033L17.4697 4.53033Z" fill="#01655E"/>
</svg>
