<svg width="184" height="32" viewBox="0 0 184 32" fill="none" xmlns="http://www.w3.org/2000/svg">
<path d="M41.233 22V11.8182H44.6733C45.4721 11.8182 46.125 11.9624 46.6321 12.2507C47.1425 12.5357 47.5204 12.9219 47.7656 13.4091C48.0109 13.8963 48.1335 14.4399 48.1335 15.0398C48.1335 15.6397 48.0109 16.1849 47.7656 16.6754C47.5237 17.166 47.1491 17.5571 46.642 17.8487C46.1349 18.1371 45.4853 18.2812 44.6932 18.2812H42.2273V17.1875H44.6534C45.2003 17.1875 45.6394 17.093 45.9709 16.9041C46.3023 16.7152 46.5426 16.46 46.6918 16.1385C46.8442 15.8137 46.9205 15.4474 46.9205 15.0398C46.9205 14.6321 46.8442 14.2675 46.6918 13.946C46.5426 13.6245 46.3007 13.3726 45.9659 13.1903C45.6312 13.0047 45.187 12.9119 44.6335 12.9119H42.4659V22H41.233ZM51.1339 11.8182V22H49.9606V11.8182H51.1339ZM55.53 22.179C55.0461 22.179 54.6069 22.0878 54.2125 21.9055C53.8181 21.7199 53.5049 21.4531 53.2729 21.1051C53.0409 20.7538 52.9249 20.3295 52.9249 19.8324C52.9249 19.3949 53.0111 19.0402 53.1834 18.7685C53.3558 18.4934 53.5861 18.2779 53.8745 18.1222C54.1628 17.9664 54.481 17.8504 54.829 17.7741C55.1803 17.6946 55.5333 17.6316 55.888 17.5852C56.352 17.5256 56.7282 17.4808 57.0165 17.451C57.3082 17.4179 57.5203 17.3632 57.6529 17.2869C57.7888 17.2107 57.8567 17.0781 57.8567 16.8892V16.8494C57.8567 16.3589 57.7225 15.9777 57.454 15.706C57.1889 15.4342 56.7862 15.2983 56.2459 15.2983C55.6858 15.2983 55.2466 15.4209 54.9284 15.6662C54.6103 15.9115 54.3865 16.1733 54.2573 16.4517L53.1436 16.054C53.3425 15.59 53.6077 15.2287 53.9391 14.9702C54.2739 14.7083 54.6384 14.526 55.0328 14.4233C55.4306 14.3172 55.8217 14.2642 56.2061 14.2642C56.4514 14.2642 56.7331 14.294 57.0513 14.3537C57.3728 14.41 57.6827 14.5277 57.981 14.7067C58.2826 14.8857 58.5328 15.1558 58.7317 15.517C58.9306 15.8783 59.03 16.3622 59.03 16.9688V22H57.8567V20.9659H57.7971C57.7175 21.1316 57.5849 21.3089 57.3993 21.4979C57.2137 21.6868 56.9668 21.8475 56.6586 21.9801C56.3503 22.1127 55.9741 22.179 55.53 22.179ZM55.709 21.125C56.173 21.125 56.5641 21.0339 56.8823 20.8516C57.2038 20.6693 57.4457 20.4339 57.6081 20.1456C57.7739 19.8572 57.8567 19.554 57.8567 19.2358V18.1619C57.807 18.2216 57.6976 18.2763 57.5286 18.326C57.3629 18.3724 57.1706 18.4138 56.9519 18.4503C56.7364 18.4834 56.526 18.5133 56.3205 18.5398C56.1183 18.563 55.9542 18.5829 55.8283 18.5994C55.5234 18.6392 55.2383 18.7038 54.9732 18.7933C54.7114 18.8795 54.4992 19.0104 54.3368 19.1861C54.1777 19.3584 54.0982 19.5937 54.0982 19.892C54.0982 20.2997 54.249 20.608 54.5506 20.8168C54.8555 21.0223 55.2417 21.125 55.709 21.125ZM61.6538 24.8636C61.4549 24.8636 61.2776 24.8471 61.1218 24.8139C60.966 24.7841 60.8583 24.7543 60.7987 24.7244L61.0969 23.6903C61.382 23.7633 61.6339 23.7898 61.8526 23.7699C62.0714 23.75 62.2653 23.6522 62.4343 23.4766C62.6067 23.3042 62.7641 23.0241 62.9066 22.6364L63.1254 22.0398L60.3015 14.3636H61.5742L63.6822 20.4489H63.7617L65.8697 14.3636H67.1424L63.9009 23.1136C63.7551 23.508 63.5745 23.8345 63.359 24.093C63.1436 24.3549 62.8933 24.5488 62.6083 24.6747C62.3266 24.8007 62.0084 24.8636 61.6538 24.8636ZM78.8729 14.3636L76.049 22H74.8558L72.032 14.3636H73.3047L75.4126 20.4489H75.4922L77.6001 14.3636H78.8729ZM80.4215 22V14.3636H81.5948V22H80.4215ZM81.0181 13.0909C80.7894 13.0909 80.5922 13.013 80.4265 12.8572C80.2641 12.7015 80.1829 12.5142 80.1829 12.2955C80.1829 12.0767 80.2641 11.8894 80.4265 11.7337C80.5922 11.5779 80.7894 11.5 81.0181 11.5C81.2468 11.5 81.4424 11.5779 81.6048 11.7337C81.7705 11.8894 81.8533 12.0767 81.8533 12.2955C81.8533 12.5142 81.7705 12.7015 81.6048 12.8572C81.4424 13.013 81.2468 13.0909 81.0181 13.0909ZM86.6273 22.1591C85.9909 22.1591 85.4292 21.9983 84.9419 21.6768C84.4547 21.352 84.0736 20.8946 83.7985 20.3047C83.5234 19.7114 83.3858 19.0104 83.3858 18.2017C83.3858 17.3996 83.5234 16.7036 83.7985 16.1136C84.0736 15.5237 84.4564 15.0679 84.9469 14.7464C85.4374 14.425 86.0042 14.2642 86.6472 14.2642C87.1444 14.2642 87.5371 14.3471 87.8255 14.5128C88.1171 14.6752 88.3392 14.8608 88.4917 15.0696C88.6474 15.2751 88.7684 15.4441 88.8546 15.5767H88.954V11.8182H90.1273V22H88.9938V20.8267H88.8546C88.7684 20.9659 88.6458 21.1416 88.4867 21.3537C88.3276 21.5625 88.1006 21.7498 87.8056 21.9155C87.5106 22.0779 87.1178 22.1591 86.6273 22.1591ZM86.7864 21.1051C87.257 21.1051 87.6548 20.9825 87.9796 20.7372C88.3044 20.4886 88.5513 20.1456 88.7203 19.7081C88.8894 19.2673 88.9739 18.7585 88.9739 18.1818C88.9739 17.6117 88.891 17.1129 88.7253 16.6854C88.5596 16.2545 88.3143 15.9197 87.9895 15.6811C87.6647 15.4392 87.2637 15.3182 86.7864 15.3182C86.2892 15.3182 85.8749 15.4458 85.5435 15.701C85.2154 15.9529 84.9685 16.2959 84.8027 16.7301C84.6403 17.161 84.5591 17.6449 84.5591 18.1818C84.5591 18.7254 84.642 19.2192 84.8077 19.6634C84.9767 20.1042 85.2253 20.4555 85.5534 20.7173C85.8849 20.9759 86.2959 21.1051 86.7864 21.1051ZM95.6408 22.1591C94.905 22.1591 94.2703 21.9967 93.7367 21.6719C93.2064 21.3438 92.7971 20.8864 92.5087 20.2997C92.2237 19.7098 92.0811 19.0237 92.0811 18.2415C92.0811 17.4593 92.2237 16.7699 92.5087 16.1733C92.7971 15.5734 93.1981 15.1061 93.7118 14.7713C94.2289 14.4332 94.8321 14.2642 95.5215 14.2642C95.9192 14.2642 96.312 14.3305 96.6998 14.4631C97.0875 14.5956 97.4405 14.8111 97.7587 15.1094C98.0769 15.4044 98.3304 15.7955 98.5194 16.2827C98.7083 16.7699 98.8027 17.3698 98.8027 18.0824V18.5795H92.9164V17.5653H97.6096C97.6096 17.1345 97.5234 16.75 97.351 16.4119C97.182 16.0739 96.94 15.8071 96.6252 15.6115C96.3136 15.416 95.9457 15.3182 95.5215 15.3182C95.0542 15.3182 94.6498 15.4342 94.3084 15.6662C93.9703 15.8949 93.7102 16.1932 93.5279 16.5611C93.3456 16.929 93.2544 17.3234 93.2544 17.7443V18.4205C93.2544 18.9972 93.3539 19.486 93.5527 19.8871C93.7549 20.2848 94.035 20.5881 94.3929 20.7969C94.7509 21.0024 95.1668 21.1051 95.6408 21.1051C95.949 21.1051 96.2275 21.062 96.476 20.9759C96.7279 20.8864 96.945 20.7538 97.1273 20.5781C97.3096 20.3991 97.4505 20.1771 97.5499 19.9119L98.6834 20.2301C98.5641 20.6146 98.3636 20.9527 98.0819 21.2443C97.8001 21.5327 97.4521 21.758 97.0378 21.9205C96.6235 22.0795 96.1578 22.1591 95.6408 22.1591ZM103.69 22.1591C103 22.1591 102.396 21.995 101.875 21.6669C101.358 21.3388 100.954 20.8797 100.662 20.2898C100.374 19.6998 100.23 19.0104 100.23 18.2216C100.23 17.4261 100.374 16.7318 100.662 16.1385C100.954 15.5452 101.358 15.0845 101.875 14.7564C102.396 14.4283 103 14.2642 103.69 14.2642C104.379 14.2642 104.982 14.4283 105.499 14.7564C106.02 15.0845 106.424 15.5452 106.713 16.1385C107.004 16.7318 107.15 17.4261 107.15 18.2216C107.15 19.0104 107.004 19.6998 106.713 20.2898C106.424 20.8797 106.02 21.3388 105.499 21.6669C104.982 21.995 104.379 22.1591 103.69 22.1591ZM103.69 21.1051C104.213 21.1051 104.644 20.9709 104.982 20.7024C105.32 20.4339 105.571 20.081 105.733 19.6435C105.896 19.206 105.977 18.732 105.977 18.2216C105.977 17.7112 105.896 17.2356 105.733 16.7947C105.571 16.3539 105.32 15.9976 104.982 15.7259C104.644 15.4541 104.213 15.3182 103.69 15.3182C103.166 15.3182 102.735 15.4541 102.397 15.7259C102.059 15.9976 101.809 16.3539 101.646 16.7947C101.484 17.2356 101.403 17.7112 101.403 18.2216C101.403 18.732 101.484 19.206 101.646 19.6435C101.809 20.081 102.059 20.4339 102.397 20.7024C102.735 20.9709 103.166 21.1051 103.69 21.1051ZM116.2 14.3636V15.358H112.242V14.3636H116.2ZM113.396 12.5341H114.569V19.8125C114.569 20.1439 114.617 20.3925 114.713 20.5582C114.813 20.7206 114.938 20.83 115.091 20.8864C115.247 20.9394 115.411 20.9659 115.583 20.9659C115.712 20.9659 115.818 20.9593 115.901 20.946C115.984 20.9295 116.05 20.9162 116.1 20.9062L116.339 21.9602C116.259 21.9901 116.148 22.0199 116.006 22.0497C115.863 22.0829 115.683 22.0994 115.464 22.0994C115.132 22.0994 114.808 22.0282 114.489 21.8857C114.174 21.7431 113.913 21.526 113.704 21.2344C113.498 20.9427 113.396 20.5748 113.396 20.1307V12.5341ZM121.084 22.1591C120.348 22.1591 119.714 21.9967 119.18 21.6719C118.65 21.3438 118.24 20.8864 117.952 20.2997C117.667 19.7098 117.525 19.0237 117.525 18.2415C117.525 17.4593 117.667 16.7699 117.952 16.1733C118.24 15.5734 118.641 15.1061 119.155 14.7713C119.672 14.4332 120.275 14.2642 120.965 14.2642C121.363 14.2642 121.755 14.3305 122.143 14.4631C122.531 14.5956 122.884 14.8111 123.202 15.1094C123.52 15.4044 123.774 15.7955 123.963 16.2827C124.152 16.7699 124.246 17.3698 124.246 18.0824V18.5795H118.36V17.5653H123.053C123.053 17.1345 122.967 16.75 122.794 16.4119C122.625 16.0739 122.383 15.8071 122.069 15.6115C121.757 15.416 121.389 15.3182 120.965 15.3182C120.498 15.3182 120.093 15.4342 119.752 15.6662C119.414 15.8949 119.154 16.1932 118.971 16.5611C118.789 16.929 118.698 17.3234 118.698 17.7443V18.4205C118.698 18.9972 118.797 19.486 118.996 19.8871C119.198 20.2848 119.478 20.5881 119.836 20.7969C120.194 21.0024 120.61 21.1051 121.084 21.1051C121.392 21.1051 121.671 21.062 121.919 20.9759C122.171 20.8864 122.388 20.7538 122.571 20.5781C122.753 20.3991 122.894 20.1771 122.993 19.9119L124.127 20.2301C124.007 20.6146 123.807 20.9527 123.525 21.2443C123.243 21.5327 122.895 21.758 122.481 21.9205C122.067 22.0795 121.601 22.1591 121.084 22.1591ZM131.44 16.0739L130.386 16.3722C130.32 16.1965 130.222 16.0258 130.093 15.8601C129.967 15.6911 129.794 15.5518 129.576 15.4425C129.357 15.3331 129.077 15.2784 128.735 15.2784C128.268 15.2784 127.879 15.3861 127.567 15.6016C127.259 15.8137 127.105 16.0838 127.105 16.4119C127.105 16.7036 127.211 16.9339 127.423 17.103C127.635 17.272 127.967 17.4129 128.417 17.5256L129.551 17.804C130.234 17.9697 130.742 18.2232 131.077 18.5646C131.412 18.9027 131.579 19.3385 131.579 19.8722C131.579 20.3097 131.453 20.7008 131.201 21.0455C130.953 21.3902 130.605 21.6619 130.157 21.8608C129.71 22.0597 129.19 22.1591 128.596 22.1591C127.817 22.1591 127.173 21.9901 126.662 21.652C126.152 21.3139 125.829 20.8201 125.693 20.1705L126.806 19.892C126.913 20.303 127.113 20.6113 127.408 20.8168C127.706 21.0223 128.096 21.125 128.576 21.125C129.123 21.125 129.557 21.009 129.879 20.777C130.204 20.5417 130.366 20.2599 130.366 19.9318C130.366 19.6667 130.273 19.4446 130.088 19.2656C129.902 19.0833 129.617 18.9474 129.233 18.858L127.96 18.5597C127.261 18.3939 126.747 18.1371 126.419 17.7891C126.094 17.4377 125.931 16.9986 125.931 16.4716C125.931 16.0407 126.052 15.6596 126.294 15.3281C126.54 14.9967 126.873 14.7365 127.294 14.5476C127.718 14.3587 128.199 14.2642 128.735 14.2642C129.491 14.2642 130.084 14.4299 130.515 14.7614C130.949 15.0928 131.258 15.5303 131.44 16.0739ZM136.666 14.3636V15.358H132.709V14.3636H136.666ZM133.862 12.5341H135.036V19.8125C135.036 20.1439 135.084 20.3925 135.18 20.5582C135.279 20.7206 135.405 20.83 135.558 20.8864C135.713 20.9394 135.878 20.9659 136.05 20.9659C136.179 20.9659 136.285 20.9593 136.368 20.946C136.451 20.9295 136.517 20.9162 136.567 20.9062L136.806 21.9602C136.726 21.9901 136.615 22.0199 136.472 22.0497C136.33 22.0829 136.149 22.0994 135.931 22.0994C135.599 22.0994 135.274 22.0282 134.956 21.8857C134.641 21.7431 134.379 21.526 134.171 21.2344C133.965 20.9427 133.862 20.5748 133.862 20.1307V12.5341ZM138.431 22V14.3636H139.605V22H138.431ZM139.028 13.0909C138.799 13.0909 138.602 13.013 138.436 12.8572C138.274 12.7015 138.193 12.5142 138.193 12.2955C138.193 12.0767 138.274 11.8894 138.436 11.7337C138.602 11.5779 138.799 11.5 139.028 11.5C139.257 11.5 139.452 11.5779 139.615 11.7337C139.78 11.8894 139.863 12.0767 139.863 12.2955C139.863 12.5142 139.78 12.7015 139.615 12.8572C139.452 13.013 139.257 13.0909 139.028 13.0909ZM141.754 22V14.3636H142.887V15.5568H142.987C143.146 15.1491 143.402 14.8326 143.757 14.6072C144.112 14.3786 144.538 14.2642 145.035 14.2642C145.539 14.2642 145.958 14.3786 146.293 14.6072C146.631 14.8326 146.894 15.1491 147.083 15.5568H147.163C147.358 15.1624 147.652 14.8492 148.043 14.6172C148.434 14.3819 148.903 14.2642 149.45 14.2642C150.132 14.2642 150.691 14.478 151.125 14.9055C151.559 15.3298 151.776 15.991 151.776 16.8892V22H150.603V16.8892C150.603 16.3258 150.449 15.9231 150.141 15.6811C149.832 15.4392 149.469 15.3182 149.052 15.3182C148.515 15.3182 148.099 15.4806 147.804 15.8054C147.509 16.1269 147.362 16.5346 147.362 17.0284V22H146.168V16.7699C146.168 16.3357 146.027 15.986 145.746 15.7209C145.464 15.4524 145.101 15.3182 144.657 15.3182C144.352 15.3182 144.067 15.3994 143.802 15.5618C143.54 15.7242 143.328 15.9496 143.165 16.2379C143.006 16.523 142.927 16.8527 142.927 17.2273V22H141.754ZM157.024 22.1591C156.334 22.1591 155.73 21.995 155.209 21.6669C154.692 21.3388 154.288 20.8797 153.996 20.2898C153.708 19.6998 153.564 19.0104 153.564 18.2216C153.564 17.4261 153.708 16.7318 153.996 16.1385C154.288 15.5452 154.692 15.0845 155.209 14.7564C155.73 14.4283 156.334 14.2642 157.024 14.2642C157.713 14.2642 158.316 14.4283 158.833 14.7564C159.354 15.0845 159.758 15.5452 160.047 16.1385C160.338 16.7318 160.484 17.4261 160.484 18.2216C160.484 19.0104 160.338 19.6998 160.047 20.2898C159.758 20.8797 159.354 21.3388 158.833 21.6669C158.316 21.995 157.713 22.1591 157.024 22.1591ZM157.024 21.1051C157.547 21.1051 157.978 20.9709 158.316 20.7024C158.654 20.4339 158.905 20.081 159.067 19.6435C159.23 19.206 159.311 18.732 159.311 18.2216C159.311 17.7112 159.23 17.2356 159.067 16.7947C158.905 16.3539 158.654 15.9976 158.316 15.7259C157.978 15.4541 157.547 15.3182 157.024 15.3182C156.5 15.3182 156.069 15.4541 155.731 15.7259C155.393 15.9976 155.143 16.3539 154.98 16.7947C154.818 17.2356 154.737 17.7112 154.737 18.2216C154.737 18.732 154.818 19.206 154.98 19.6435C155.143 20.081 155.393 20.4339 155.731 20.7024C156.069 20.9709 156.5 21.1051 157.024 21.1051ZM163.448 17.4062V22H162.275V14.3636H163.409V15.5568H163.508C163.687 15.169 163.959 14.8575 164.323 14.6222C164.688 14.3835 165.159 14.2642 165.735 14.2642C166.252 14.2642 166.705 14.3703 167.093 14.5824C167.48 14.7912 167.782 15.1094 167.997 15.5369C168.213 15.9612 168.32 16.4981 168.32 17.1477V22H167.147V17.2273C167.147 16.6274 166.991 16.16 166.68 15.8253C166.368 15.4872 165.941 15.3182 165.397 15.3182C165.023 15.3182 164.688 15.3994 164.393 15.5618C164.101 15.7242 163.871 15.9612 163.702 16.2727C163.533 16.5843 163.448 16.9621 163.448 17.4062ZM170.464 22V14.3636H171.638V22H170.464ZM171.061 13.0909C170.832 13.0909 170.635 13.013 170.469 12.8572C170.307 12.7015 170.226 12.5142 170.226 12.2955C170.226 12.0767 170.307 11.8894 170.469 11.7337C170.635 11.5779 170.832 11.5 171.061 11.5C171.29 11.5 171.485 11.5779 171.648 11.7337C171.813 11.8894 171.896 12.0767 171.896 12.2955C171.896 12.5142 171.813 12.7015 171.648 12.8572C171.485 13.013 171.29 13.0909 171.061 13.0909ZM176.034 22.179C175.55 22.179 175.111 22.0878 174.716 21.9055C174.322 21.7199 174.009 21.4531 173.777 21.1051C173.545 20.7538 173.429 20.3295 173.429 19.8324C173.429 19.3949 173.515 19.0402 173.687 18.7685C173.86 18.4934 174.09 18.2779 174.378 18.1222C174.667 17.9664 174.985 17.8504 175.333 17.7741C175.684 17.6946 176.037 17.6316 176.392 17.5852C176.856 17.5256 177.232 17.4808 177.52 17.451C177.812 17.4179 178.024 17.3632 178.157 17.2869C178.293 17.2107 178.361 17.0781 178.361 16.8892V16.8494C178.361 16.3589 178.226 15.9777 177.958 15.706C177.693 15.4342 177.29 15.2983 176.75 15.2983C176.19 15.2983 175.751 15.4209 175.432 15.6662C175.114 15.9115 174.89 16.1733 174.761 16.4517L173.648 16.054C173.846 15.59 174.112 15.2287 174.443 14.9702C174.778 14.7083 175.142 14.526 175.537 14.4233C175.934 14.3172 176.326 14.2642 176.71 14.2642C176.955 14.2642 177.237 14.294 177.555 14.3537C177.877 14.41 178.187 14.5277 178.485 14.7067C178.787 14.8857 179.037 15.1558 179.236 15.517C179.434 15.8783 179.534 16.3622 179.534 16.9688V22H178.361V20.9659H178.301C178.221 21.1316 178.089 21.3089 177.903 21.4979C177.718 21.6868 177.471 21.8475 177.162 21.9801C176.854 22.1127 176.478 22.179 176.034 22.179ZM176.213 21.125C176.677 21.125 177.068 21.0339 177.386 20.8516C177.708 20.6693 177.95 20.4339 178.112 20.1456C178.278 19.8572 178.361 19.554 178.361 19.2358V18.1619C178.311 18.2216 178.202 18.2763 178.032 18.326C177.867 18.3724 177.675 18.4138 177.456 18.4503C177.24 18.4834 177.03 18.5133 176.824 18.5398C176.622 18.563 176.458 18.5829 176.332 18.5994C176.027 18.6392 175.742 18.7038 175.477 18.7933C175.215 18.8795 175.003 19.0104 174.841 19.1861C174.682 19.3584 174.602 19.5937 174.602 19.892C174.602 20.2997 174.753 20.608 175.055 20.8168C175.359 21.0223 175.746 21.125 176.213 21.125ZM182.849 11.8182V22H181.675V11.8182H182.849Z" fill="#FBA43F"/>
<circle cx="16" cy="16" r="16" fill="#FBA43F"/>
<path d="M22.9011 14.2568C24.2604 15.0215 24.2604 16.9785 22.9011 17.7432L12.9805 23.3235C11.6473 24.0734 10 23.11 10 21.5803L10 10.4197C10 8.89004 11.6473 7.92661 12.9805 8.67654L22.9011 14.2568Z" fill="white"/>
</svg>
