<svg width="98" height="98" viewBox="0 0 98 98" fill="none" xmlns="http://www.w3.org/2000/svg">
<circle cx="49" cy="49" r="49" fill="#FBA43F"/>
<g filter="url(#filter0_d_4879_597)">
<path d="M61.5748 27.7522H35.5571V33.0012H44.7322C48.1017 33.0012 50.9756 35.1953 52.0424 38.2502H35.5571V43.4992H52.0424C50.9756 46.5541 48.1017 48.7482 44.7322 48.7482H35.5571V53.9971L50.706 69.3805L54.3611 65.6688L42.8673 53.9973H44.7322C50.9729 53.9973 56.1945 49.4818 57.3951 43.4992H61.5748V38.2503H57.3951C57.0061 36.3119 56.1949 34.5279 55.0639 33.0013H61.5748V27.7522Z" fill="white"/>
<path d="M61.5748 27.7522H35.5571V33.0012H44.7322C48.1017 33.0012 50.9756 35.1953 52.0424 38.2502H35.5571V43.4992H52.0424C50.9756 46.5541 48.1017 48.7482 44.7322 48.7482H35.5571V53.9971L50.706 69.3805L54.3611 65.6688L42.8673 53.9973H44.7322C50.9729 53.9973 56.1945 49.4818 57.3951 43.4992H61.5748V38.2503H57.3951C57.0061 36.3119 56.1949 34.5279 55.0639 33.0013H61.5748V27.7522Z" stroke="#FBA43F" stroke-width="0.5" stroke-linecap="round"/>
</g>
<defs>
<filter id="filter0_d_4879_597" x="35.3071" y="27.5022" width="33.5176" height="52.2346" filterUnits="userSpaceOnUse" color-interpolation-filters="sRGB">
<feFlood flood-opacity="0" result="BackgroundImageFix"/>
<feColorMatrix in="SourceAlpha" type="matrix" values="0 0 0 0 0 0 0 0 0 0 0 0 0 0 0 0 0 0 127 0" result="hardAlpha"/>
<feOffset dx="4" dy="7"/>
<feGaussianBlur stdDeviation="1.5"/>
<feColorMatrix type="matrix" values="0 0 0 0 0 0 0 0 0 0 0 0 0 0 0 0 0 0 0.13 0"/>
<feBlend mode="normal" in2="BackgroundImageFix" result="effect1_dropShadow_4879_597"/>
<feBlend mode="normal" in="SourceGraphic" in2="effect1_dropShadow_4879_597" result="shape"/>
</filter>
</defs>
</svg>
