<svg width="98" height="98" viewBox="0 0 98 98" fill="none" xmlns="http://www.w3.org/2000/svg">
<circle cx="49" cy="49" r="49" fill="#F2F2F2"/>
<path d="M54.7832 27.427C55.0995 27.427 55.4028 27.5526 55.6264 27.7763L62.3721 34.5219C62.8378 34.9876 62.8378 35.7427 62.3721 36.2084L40.4487 58.1318C40.2989 58.2816 40.1118 58.3888 39.9068 58.4424L30.7762 60.8273C30.3666 60.9343 29.931 60.8161 29.6316 60.5168C29.3323 60.2174 29.2141 59.7818 29.3211 59.3722L31.706 50.2416C31.7596 50.0366 31.8668 49.8495 32.0166 49.6997L53.94 27.7763C54.1636 27.5526 54.467 27.427 54.7832 27.427Z" fill="#BDBDBD"/>
<path d="M29.487 64.9901C28.4991 64.9901 27.6982 65.7909 27.6982 66.7788C27.6982 67.7667 28.4991 68.5675 29.487 68.5675H65.2613C66.2492 68.5675 67.05 67.7667 67.05 66.7788C67.05 65.7909 66.2492 64.9901 65.2613 64.9901H29.487Z" fill="#BDBDBD"/>
</svg>
