<svg width="412" height="225" viewBox="0 0 412 225" fill="none" xmlns="http://www.w3.org/2000/svg">
<path d="M54.2809 114.744H5.42809C2.42907 114.744 0 116.96 0 119.697V164.276C0 167.013 2.42907 169.229 5.42809 169.229H32.5686V146.94H24.4264V139.51H32.5686V135.52C32.5686 127.966 36.6016 124.65 43.4817 124.65C46.7766 124.65 48.519 124.873 49.3441 124.975V132.08H44.6515C41.7312 132.08 40.7107 133.487 40.7107 136.335V139.51H49.2708L48.1092 146.94H40.7107V169.229H54.2809C57.2799 169.229 59.709 167.013 59.709 164.276V119.697C59.709 116.96 57.2772 114.744 54.2809 114.744Z" fill="#005889"/>
<path d="M54.3932 215.133H5.43932C2.43409 215.133 0 213.27 0 210.97V173.504C0 171.204 2.43409 169.342 5.43932 169.342H32.6359V188.075H24.4769V194.319H32.6359V197.672C32.6359 204.02 36.6773 206.808 43.5716 206.808C46.8733 206.808 48.6193 206.62 49.4461 206.535V200.563H44.7438C41.8175 200.563 40.7949 199.381 40.7949 196.987V194.319H49.3727L48.2087 188.075H40.7949V169.342H54.3932C57.3984 169.342 59.8325 171.204 59.8325 173.504V210.97C59.8325 213.27 57.3957 215.133 54.3932 215.133Z" fill="url(#paint0_linear_4182_1162)"/>
<path d="M170.985 114.743H122.132C119.133 114.743 116.704 116.96 116.704 119.696V164.276C116.704 167.012 119.133 169.229 122.132 169.229H170.985C173.984 169.229 176.413 167.012 176.413 164.276V119.696C176.413 116.96 173.984 114.743 170.985 114.743ZM135.577 159.322H127.571V135.814H135.577V159.322ZM131.492 132.454C128.911 132.454 126.824 130.544 126.824 128.194C126.824 125.843 128.914 123.936 131.492 123.936C134.065 123.936 136.158 125.846 136.158 128.194C136.158 130.544 134.065 132.454 131.492 132.454ZM165.567 159.322H157.566V147.89C157.566 145.164 157.512 141.657 153.406 141.657C149.24 141.657 148.599 144.626 148.599 147.692V159.322H140.598V135.814H148.279V139.026H148.387C149.457 137.179 152.068 135.23 155.962 135.23C164.069 135.23 165.567 140.099 165.567 146.429V159.322Z" fill="#2180B5"/>
<path d="M171.372 223.827H122.519C119.52 223.827 117.091 221.611 117.091 218.874V174.295C117.091 171.558 119.52 169.342 122.519 169.342H171.372C174.371 169.342 176.8 171.558 176.8 174.295V218.874C176.8 221.611 174.371 223.827 171.372 223.827ZM135.965 179.248H127.958V202.756H135.965V179.248ZM131.88 206.117C129.299 206.117 127.212 208.026 127.212 210.377C127.212 212.727 129.302 214.634 131.88 214.634C134.453 214.634 136.546 212.725 136.546 210.377C136.546 208.026 134.453 206.117 131.88 206.117ZM165.955 179.248H157.954V190.68C157.954 193.407 157.9 196.914 153.793 196.914C149.627 196.914 148.987 193.944 148.987 190.878V179.248H140.986V202.756H148.667V199.544H148.775C149.844 201.392 152.455 203.341 156.35 203.341C164.457 203.341 165.955 198.472 165.955 192.141V179.248Z" fill="url(#paint1_linear_4182_1162)"/>
<path d="M380.869 118.411C370.925 118.411 358.018 120.825 358.018 120.825L357.986 120.861C353.457 121.563 349.987 125.334 349.987 129.92V143.732V143.736V157.543V157.547C349.992 159.738 350.802 161.855 352.272 163.518C353.742 165.182 355.776 166.283 358.009 166.624L358.018 166.638C358.018 166.638 370.925 169.057 380.869 169.057C390.812 169.057 403.719 166.638 403.719 166.638L403.723 166.633C405.958 166.293 407.995 165.191 409.466 163.525C410.938 161.86 411.747 159.74 411.75 157.547V157.543V143.736V143.732V129.92C411.746 127.729 410.937 125.611 409.467 123.947C407.996 122.282 405.961 121.18 403.728 120.839L403.719 120.825C403.719 120.825 390.812 118.411 380.869 118.411ZM373.742 133.139L392.746 143.732L373.742 154.324V133.139Z" fill="#EC0000"/>
<path d="M380.869 224.025C370.925 224.025 358.018 221.405 358.018 221.405L357.986 221.366C353.457 220.604 349.987 216.511 349.987 211.534V196.543V196.539V181.553V181.548C349.992 179.171 350.802 176.873 352.272 175.068C353.742 173.262 355.776 172.067 358.009 171.697L358.018 171.682C358.018 171.682 370.925 169.057 380.869 169.057C390.812 169.057 403.719 171.682 403.719 171.682L403.723 171.687C405.958 172.056 407.995 173.253 409.466 175.06C410.938 176.868 411.747 179.169 411.75 181.548V181.553V196.539V196.543V211.534C411.746 213.912 410.937 216.211 409.467 218.017C407.996 219.824 405.961 221.02 403.728 221.39L403.719 221.405C403.719 221.405 390.812 224.025 380.869 224.025ZM373.742 208.04L392.746 196.543L373.742 185.047V208.04Z" fill="url(#paint2_linear_4182_1162)"/>
<path d="M251.173 111C241.449 111 233.54 118.6 233.54 127.938V152.128C233.54 161.463 241.457 169.057 251.183 169.057H276.381C286.105 169.057 294.015 161.456 294.015 152.119V127.929C294.015 118.593 286.098 111 276.372 111H251.173ZM281.416 120.676C282.807 120.676 283.936 121.76 283.936 123.095C283.936 124.43 282.807 125.514 281.416 125.514C280.025 125.514 278.896 124.43 278.896 123.095C278.896 121.76 280.025 120.676 281.416 120.676ZM263.777 125.514C272.116 125.514 278.896 132.024 278.896 140.028C278.896 148.033 272.116 154.543 263.777 154.543C255.439 154.543 248.658 148.033 248.658 140.028C248.658 132.024 255.439 125.514 263.777 125.514ZM263.777 130.352C261.104 130.352 258.541 131.372 256.65 133.186C254.76 135.001 253.698 137.462 253.698 140.028C253.698 142.595 254.76 145.056 256.65 146.87C258.541 148.685 261.104 149.705 263.777 149.705C266.451 149.705 269.014 148.685 270.905 146.87C272.795 145.056 273.857 142.595 273.857 140.028C273.857 137.462 272.795 135.001 270.905 133.186C269.014 131.372 266.451 130.352 263.777 130.352Z" fill="url(#paint3_linear_4182_1162)"/>
<path d="M251.173 224.025C241.449 224.025 233.54 216.829 233.54 207.988V185.085C233.54 176.246 241.457 169.057 251.183 169.057H276.381C286.105 169.057 294.015 176.253 294.015 185.094V207.997C294.015 216.836 286.098 224.025 276.372 224.025H251.173ZM281.416 214.864C282.807 214.864 283.936 213.838 283.936 212.574C283.936 211.309 282.807 210.283 281.416 210.283C280.025 210.283 278.896 211.309 278.896 212.574C278.896 213.838 280.025 214.864 281.416 214.864ZM263.777 210.283C272.116 210.283 278.896 204.12 278.896 196.541C278.896 188.962 272.116 182.799 263.777 182.799C255.439 182.799 248.658 188.962 248.658 196.541C248.658 204.12 255.439 210.283 263.777 210.283ZM263.777 205.702C261.104 205.702 258.541 204.737 256.65 203.019C254.76 201.301 253.698 198.971 253.698 196.541C253.698 194.111 254.76 191.781 256.65 190.063C258.541 188.345 261.104 187.38 263.777 187.38C266.451 187.38 269.014 188.345 270.905 190.063C272.795 191.781 273.857 194.111 273.857 196.541C273.857 198.971 272.795 201.301 270.905 203.019C269.014 204.737 266.451 205.702 263.777 205.702Z" fill="url(#paint4_linear_4182_1162)"/>
<path d="M116.31 16H118.91L121.829 5.79403H121.942L124.854 16H127.454L131.559 1.45455H128.725L126.104 12.1506H125.976L123.171 1.45455H120.593L117.795 12.1435H117.66L115.039 1.45455H112.205L116.31 16ZM136.988 16.2131C139.531 16.2131 141.278 14.9702 141.733 13.0739L139.332 12.804C138.984 13.7273 138.132 14.2102 137.024 14.2102C135.362 14.2102 134.261 13.1165 134.24 11.2486H141.839V10.4602C141.839 6.6321 139.538 4.94886 136.854 4.94886C133.729 4.94886 131.69 7.2429 131.69 10.6094C131.69 14.0327 133.7 16.2131 136.988 16.2131ZM134.247 9.51562C134.325 8.12358 135.355 6.9517 136.889 6.9517C138.366 6.9517 139.361 8.03125 139.375 9.51562H134.247ZM152.115 16.2202C153.826 16.2202 154.849 15.4176 155.318 14.5014H155.403V16H157.874V8.69886C157.874 5.81534 155.524 4.94886 153.443 4.94886C151.149 4.94886 149.387 5.97159 148.819 7.96023L151.22 8.30114C151.475 7.5554 152.2 6.91619 153.457 6.91619C154.65 6.91619 155.303 7.52699 155.303 8.59943V8.64205C155.303 9.38068 154.529 9.41619 152.605 9.62216C150.488 9.84943 148.464 10.4815 148.464 12.9389C148.464 15.0838 150.034 16.2202 152.115 16.2202ZM152.782 14.331C151.71 14.331 150.943 13.8409 150.943 12.8963C150.943 11.9091 151.802 11.4972 152.953 11.3338C153.627 11.2415 154.977 11.071 155.311 10.8011V12.0866C155.311 13.3011 154.33 14.331 152.782 14.331ZM160.46 16H163.031V9.58665C163.031 8.2017 164.075 7.22159 165.488 7.22159C165.921 7.22159 166.461 7.29972 166.681 7.37074V5.00568C166.447 4.96307 166.042 4.93466 165.758 4.93466C164.508 4.93466 163.464 5.64489 163.066 6.90909H162.953V5.09091H160.46V16ZM172.77 16.2131C175.312 16.2131 177.059 14.9702 177.514 13.0739L175.113 12.804C174.765 13.7273 173.913 14.2102 172.805 14.2102C171.143 14.2102 170.042 13.1165 170.021 11.2486H177.621V10.4602C177.621 6.6321 175.319 4.94886 172.635 4.94886C169.51 4.94886 167.471 7.2429 167.471 10.6094C167.471 14.0327 169.481 16.2131 172.77 16.2131ZM170.028 9.51562C170.106 8.12358 171.136 6.9517 172.67 6.9517C174.148 6.9517 175.142 8.03125 175.156 9.51562H170.028ZM193.379 7.97443C193.024 6.12784 191.546 4.94886 188.99 4.94886C186.362 4.94886 184.572 6.24148 184.579 8.25852C184.572 9.84943 185.552 10.9006 187.647 11.3338L189.508 11.7244C190.509 11.9446 190.978 12.3494 190.978 12.9673C190.978 13.7131 190.169 14.2741 188.947 14.2741C187.768 14.2741 187.001 13.7628 186.781 12.7827L184.274 13.0241C184.593 15.027 186.276 16.2131 188.954 16.2131C191.681 16.2131 193.606 14.7997 193.613 12.733C193.606 11.1776 192.605 10.2259 190.545 9.77841L188.684 9.38068C187.576 9.1321 187.136 8.74858 187.143 8.11648C187.136 7.37784 187.953 6.86648 189.025 6.86648C190.211 6.86648 190.836 7.51278 191.035 8.23011L193.379 7.97443ZM200.492 16.2131C203.688 16.2131 205.719 13.9616 205.719 10.5881C205.719 7.20739 203.688 4.94886 200.492 4.94886C197.296 4.94886 195.264 7.20739 195.264 10.5881C195.264 13.9616 197.296 16.2131 200.492 16.2131ZM200.506 14.1534C198.737 14.1534 197.871 12.5767 197.871 10.581C197.871 8.58523 198.737 6.98722 200.506 6.98722C202.246 6.98722 203.112 8.58523 203.112 10.581C203.112 12.5767 202.246 14.1534 200.506 14.1534ZM212.66 16.2131C215.401 16.2131 217.148 14.5866 217.333 12.2713H214.876C214.655 13.4432 213.81 14.1179 212.681 14.1179C211.076 14.1179 210.039 12.7756 210.039 10.5455C210.039 8.34375 211.097 7.02273 212.681 7.02273C213.917 7.02273 214.677 7.81818 214.876 8.86932H217.333C217.155 6.50426 215.309 4.94886 212.645 4.94886C209.449 4.94886 207.432 7.2571 207.432 10.5881C207.432 13.8906 209.4 16.2131 212.66 16.2131ZM219.444 16H222.015V5.09091H219.444V16ZM220.737 3.54261C221.553 3.54261 222.221 2.91761 222.221 2.15057C222.221 1.37642 221.553 0.75142 220.737 0.75142C219.913 0.75142 219.245 1.37642 219.245 2.15057C219.245 2.91761 219.913 3.54261 220.737 3.54261ZM227.798 16.2202C229.51 16.2202 230.532 15.4176 231.001 14.5014H231.086V16H233.558V8.69886C233.558 5.81534 231.207 4.94886 229.126 4.94886C226.832 4.94886 225.071 5.97159 224.503 7.96023L226.903 8.30114C227.159 7.5554 227.883 6.91619 229.14 6.91619C230.334 6.91619 230.987 7.52699 230.987 8.59943V8.64205C230.987 9.38068 230.213 9.41619 228.288 9.62216C226.172 9.84943 224.148 10.4815 224.148 12.9389C224.148 15.0838 225.717 16.2202 227.798 16.2202ZM228.466 14.331C227.393 14.331 226.626 13.8409 226.626 12.8963C226.626 11.9091 227.486 11.4972 228.636 11.3338C229.311 11.2415 230.66 11.071 230.994 10.8011V12.0866C230.994 13.3011 230.014 14.331 228.466 14.331ZM238.714 1.45455H236.143V16H238.714V1.45455ZM245.794 3.66335H250.289V16H252.903V3.66335H257.399V1.45455H245.794V3.66335ZM272.008 8.72727C272.008 4.02557 269.139 1.25568 265.325 1.25568C261.504 1.25568 258.642 4.02557 258.642 8.72727C258.642 13.4219 261.504 16.1989 265.325 16.1989C269.139 16.1989 272.008 13.429 272.008 8.72727ZM269.359 8.72727C269.359 12.0369 267.697 13.8338 265.325 13.8338C262.96 13.8338 261.291 12.0369 261.291 8.72727C261.291 5.41761 262.96 3.62074 265.325 3.62074C267.697 3.62074 269.359 5.41761 269.359 8.72727ZM287.496 8.72727C287.496 4.02557 284.627 1.25568 280.813 1.25568C276.992 1.25568 274.13 4.02557 274.13 8.72727C274.13 13.4219 276.992 16.1989 280.813 16.1989C284.627 16.1989 287.496 13.429 287.496 8.72727ZM284.847 8.72727C284.847 12.0369 283.185 13.8338 280.813 13.8338C278.448 13.8338 276.779 12.0369 276.779 8.72727C276.779 5.41761 278.448 3.62074 280.813 3.62074C283.185 3.62074 284.847 5.41761 284.847 8.72727ZM297.981 1.45455H295.232L295.46 11.7244H297.747L297.981 1.45455ZM296.603 16.1562C297.441 16.1562 298.159 15.4602 298.166 14.5938C298.159 13.7415 297.441 13.0455 296.603 13.0455C295.737 13.0455 295.034 13.7415 295.041 14.5938C295.034 15.4602 295.737 16.1562 296.603 16.1562Z" fill="black"/>
<defs>
<linearGradient id="paint0_linear_4182_1162" x1="29.9162" y1="243.9" x2="29.9162" y2="169.342" gradientUnits="userSpaceOnUse">
<stop offset="0.520295" stop-color="#888888" stop-opacity="0"/>
<stop offset="1" stop-color="#005889" stop-opacity="0.2"/>
</linearGradient>
<linearGradient id="paint1_linear_4182_1162" x1="146.946" y1="258.055" x2="146.946" y2="169.342" gradientUnits="userSpaceOnUse">
<stop offset="0.520295" stop-color="#888888" stop-opacity="0"/>
<stop offset="1" stop-color="#005889" stop-opacity="0.2"/>
</linearGradient>
<linearGradient id="paint2_linear_4182_1162" x1="380.869" y1="258.557" x2="380.869" y2="169.057" gradientUnits="userSpaceOnUse">
<stop offset="0.520295" stop-color="#888888" stop-opacity="0"/>
<stop offset="1" stop-color="#005889" stop-opacity="0.2"/>
</linearGradient>
<linearGradient id="paint3_linear_4182_1162" x1="208.911" y1="89.731" x2="322.673" y2="216.35" gradientUnits="userSpaceOnUse">
<stop stop-color="#FEDA75"/>
<stop offset="0.284375" stop-color="#FA7E1E"/>
<stop offset="0.497917" stop-color="#D62976"/>
<stop offset="0.732292" stop-color="#962FBF"/>
<stop offset="1" stop-color="#4F5BD5"/>
</linearGradient>
<linearGradient id="paint4_linear_4182_1162" x1="263.777" y1="258.557" x2="263.777" y2="169.057" gradientUnits="userSpaceOnUse">
<stop offset="0.520295" stop-color="#888888" stop-opacity="0"/>
<stop offset="1" stop-color="#005889" stop-opacity="0.2"/>
</linearGradient>
</defs>
</svg>
