<svg width="52" height="46" viewBox="0 0 52 46" fill="none" xmlns="http://www.w3.org/2000/svg">
<path fill-rule="evenodd" clip-rule="evenodd" d="M51.182 22.7455C51.182 35.3068 39.764 45.4909 25.6795 45.4909C11.5938 45.4909 0.175781 35.3068 0.175781 22.7455C0.175781 10.1821 11.5938 0 25.6795 0C39.7652 0 51.182 10.1821 51.182 22.7455ZM12.6039 22.7383L16.9456 18.8478C17.0896 18.7184 17.1701 18.5446 17.1701 18.3606C17.1701 17.9764 16.8209 17.6651 16.3914 17.6651C16.1817 17.6651 15.9856 17.7379 15.8382 17.8723L11.497 21.7471L7.13883 17.8652C6.99148 17.7358 6.79653 17.6651 6.5891 17.6651C6.15838 17.6651 5.81041 17.9764 5.81041 18.3596C5.81041 18.5466 5.89428 18.7235 6.0439 18.8549L10.3874 22.7338L6.04617 26.6157C5.89428 26.7511 5.81041 26.927 5.81041 27.1141C5.81041 27.4982 6.15951 27.8096 6.5891 27.8096C6.79653 27.8096 6.99148 27.7388 7.13883 27.6074L11.4914 23.7235L15.8269 27.5922C15.981 27.7338 16.1783 27.8096 16.3914 27.8096C16.8198 27.8096 17.1689 27.4982 17.1689 27.1141C17.1689 26.9291 17.0896 26.7552 16.9422 26.6238L12.6039 22.7383ZM39.8406 24.0025C39.0585 24.0025 38.4238 23.4364 38.4238 22.7388H38.4272C38.4272 22.0413 39.0608 21.4752 39.8395 21.4752C40.6182 21.4752 41.2529 22.0413 41.2529 22.7388C41.2529 23.4364 40.6182 24.0025 39.8406 24.0025ZM39.8395 19.0793C37.5793 19.0793 35.7431 20.7221 35.7431 22.7388C35.7431 24.7576 37.5805 26.3983 39.8395 26.3983C42.0962 26.3983 43.9347 24.7556 43.9347 22.7388C43.9347 20.7221 42.0951 19.0793 39.8395 19.0793ZM39.8395 27.8379C36.6931 27.8379 34.1316 25.5494 34.1313 22.7393C34.1316 19.9282 36.692 17.6408 39.8395 17.6408C42.986 17.6408 45.5476 19.9295 45.5476 22.7398C45.5476 25.5512 42.986 27.8379 39.8395 27.8379ZM34.1313 22.7393C34.1313 22.7392 34.1313 22.739 34.1313 22.7388V22.7398C34.1313 22.7397 34.1313 22.7395 34.1313 22.7393ZM33.4886 17.7277H33.7267L33.7221 17.7288C34.1529 17.7288 34.5042 18.0401 34.5042 18.4243C34.5042 18.8074 34.1755 19.0915 33.7153 19.1066C33.7131 19.1066 33.5453 19.1036 33.3866 19.1208C31.7 19.3088 31.5187 20.0205 31.5187 21.7795V27.0605C31.5175 27.4436 31.1684 27.754 30.74 27.754C30.3149 27.754 29.9635 27.4436 29.9635 27.0625L29.9613 18.4748C29.9613 18.0917 30.3047 17.7833 30.732 17.7833C31.1038 17.7833 31.4166 18.0199 31.496 18.3292C32.0752 17.9299 32.7689 17.7277 33.4886 17.7277ZM18.7807 21.8978H26.7921C26.3614 20.2722 24.7292 19.0652 22.7796 19.0652C20.8538 19.0652 19.2352 20.2449 18.7841 21.8422C18.7838 21.8476 18.7833 21.8533 18.7829 21.859C18.7819 21.8715 18.7809 21.8846 18.7807 21.8978ZM25.857 18.4374C27.1797 19.1855 28.0491 20.3511 28.3846 21.7694L28.3823 21.7673C28.5478 22.569 27.9494 23.2716 26.8363 23.2938H18.7093L18.7206 23.4C18.7614 23.6022 18.8193 23.7973 18.8941 23.9863C19.3259 24.9932 20.5365 26.4054 22.8011 26.4287C23.4926 26.4246 24.1432 26.27 24.7167 25.997C25.1656 25.7726 25.5407 25.4845 25.8434 25.1863C25.942 25.0801 26.0338 24.973 26.1154 24.8678C26.494 24.4331 26.9768 24.513 27.2647 24.7101C27.6048 24.9426 27.6626 25.4339 27.352 25.7776C27.343 25.7877 27.3339 25.7948 27.3271 25.8049C26.8782 26.3053 26.4169 26.7239 25.8649 27.0403C25.3333 27.3456 24.7564 27.5599 24.1579 27.6913C23.4665 27.853 22.7955 27.8874 22.1063 27.8126C19.785 27.5589 17.8377 26.0263 17.2619 24.0045C17.1485 23.5971 17.0918 23.1836 17.0918 22.7742C17.0918 21.1416 17.9725 19.5565 19.4982 18.589C21.3662 17.4002 23.921 17.3396 25.857 18.4374Z" fill="white"/>
</svg>
