<svg width="375" height="64" viewBox="0 0 375 64" fill="none" xmlns="http://www.w3.org/2000/svg">
<g opacity="0.8" clip-path="url(#clip0_5171_474)">
<path d="M45.6923 56.4616C45.8196 57.6714 45.0667 57.8766 44.0841 58.0216C34.5669 59.4885 25.0521 60.979 15.5396 62.493C12.9276 62.9034 10.3156 63.2925 7.7107 63.7382C6.84121 63.8868 6.2969 63.8832 6.13432 62.7725C4.1715 50.547 2.18394 38.3262 0.171639 26.1101C0.160886 25.9924 0.160886 25.874 0.171639 25.7563C0.71595 24.3909 2.02017 24.4298 3.13354 24.2529C7.5917 23.5454 12.0522 22.8544 16.5151 22.1799C23.2966 21.1564 30.0781 20.127 36.8596 19.0917C37.8987 18.872 38.98 18.9744 39.9594 19.3853C41.0798 20.6128 40.995 22.2153 41.2212 23.6869C42.635 32.8454 43.9745 42.011 45.4202 51.1625C45.7064 52.9277 45.3247 54.7106 45.6923 56.4616Z" fill="#494949"/>
<path d="M39.6838 19.7215C34.474 20.1708 29.3454 21.2144 24.1745 21.9501C16.5011 23.0432 8.85248 24.2778 1.20032 25.4593C0.856737 25.5357 0.518949 25.6362 0.189453 25.76C0.719626 21.324 1.8648 17.0048 2.66359 12.6218C2.83325 11.6915 3.60023 11.7091 4.29299 11.596L32.6537 7.03615C35.3824 6.5975 38.1074 6.14824 40.8361 5.72021C41.6561 5.59286 42.5821 5.36646 42.5079 6.73546C42.2896 10.3988 41.7719 14.0381 40.9598 17.6167C40.7831 18.441 40.7477 19.4067 39.6838 19.7215Z" fill="#656565"/>
<path d="M326.43 42.5524C329.713 38.9583 333.145 35.4774 336.227 31.7277C338.185 29.3435 340.257 28.0204 343.399 28.544C344.537 28.735 345.735 28.5758 346.933 28.5758C347 29.2833 346.463 29.5592 346.142 29.9165C342.791 33.6238 339.454 37.3452 336.029 40.9924C335.149 41.9263 335.181 42.5029 335.952 43.4686C339.801 48.3609 343.568 53.3169 347.615 58.5771C344.788 58.5771 342.314 58.5771 339.815 58.5771C339.073 58.5771 338.864 57.9545 338.532 57.5159C336.058 54.1518 333.584 50.7947 331.145 47.3952C330.537 46.5497 330.265 46.4259 329.321 47.1971C326.755 49.3019 325.68 51.7534 325.988 55.1316C326.299 58.5665 326.055 58.5878 322.552 58.5878C319.64 58.5878 319.64 58.5878 319.64 55.6057C319.64 43.4261 319.665 31.2466 319.601 19.0636C319.601 17.5884 319.955 17.0755 321.443 17.2524C322.931 17.4292 324.8 16.6545 325.709 17.5248C326.709 18.4834 326.03 20.4184 326.041 21.9183C326.076 28.7315 326.041 35.5447 326.041 42.3578L326.43 42.5524Z" fill="#F2F2F2"/>
<path d="M363.605 59.3411C358.063 59.3411 354.168 58.2798 350.718 55.7328C349.746 55.0253 349.382 54.4098 350.262 53.3344C351.04 52.3864 351.418 50.8122 352.383 50.3842C353.465 49.896 354.324 51.502 355.38 52.0432C358.056 53.4193 360.809 54.2895 363.863 54.003C365.107 53.9449 366.302 53.4969 367.277 52.7224C369.045 51.2119 368.822 48.8914 366.79 47.77C365.277 46.9316 363.58 46.6415 361.923 46.2524C359.636 45.7182 357.328 45.2619 355.207 44.2148C349.329 41.3318 348.796 33.6802 354.225 29.9977C359.173 26.6406 368.716 27.3481 373.152 31.3915C373.505 31.7099 373.915 31.9539 373.551 32.5412C372.844 33.6944 372.18 34.8688 371.487 36.0291C370.992 36.8604 370.614 36.1706 370.268 35.8876C367.788 33.838 364.604 32.8424 361.4 33.1142C360.576 33.1554 359.767 33.3535 359.017 33.6979C357.763 34.2887 356.844 35.2226 356.833 36.6517C356.833 38.1445 358.014 38.7742 359.219 39.1279C361.127 39.701 363.086 40.1184 365.022 40.596C366.746 40.9751 368.423 41.5421 370.024 42.2869C372.887 43.7019 374.594 45.9163 374.802 49.1673C375.029 52.7048 373.689 55.4746 370.642 57.3495C368.517 58.6326 366.087 59.3205 363.605 59.3411Z" fill="#F2F2F2"/>
<path d="M59.5157 0C64.2908 2.14017 69.0765 4.24497 73.841 6.42052C80.3774 9.38728 86.9056 12.3717 93.4256 15.3739C94.4152 15.8267 95.6417 16.0814 95.5993 17.5706C96.4794 17.9562 96.8328 18.7274 97.059 19.587C97.4514 21.094 97.8295 22.6045 98.236 24.1079C98.3208 24.9675 98.7308 25.7493 98.8333 26.6089C98.9288 27.4048 98.8758 28.1123 97.9497 28.3776C97.0838 28.696 96.3345 28.2786 95.5958 27.9461C85.2091 23.2719 74.8165 18.5894 64.418 13.8987C63.7435 13.5468 63.1204 13.1041 62.566 12.5828C62.0075 12.1725 61.8202 11.5463 61.6399 10.9379C60.88 8.36967 60.0706 5.81561 59.392 3.22618C59.1057 2.15078 58.9785 1.06124 59.5157 0Z" fill="#B4B4B4"/>
<path d="M97.3664 24.398L95.5991 17.5707C96.4827 15.3492 98.402 15.2254 100.431 14.953C111.999 13.4106 123.553 11.7692 135.108 10.1137C136.451 9.92267 137.016 10.2977 136.893 11.6454C135.832 13.5521 135.599 15.7312 134.853 17.744C134.355 19.0989 133.697 20.1071 132.238 20.4396C131.955 20.4396 131.676 20.4396 131.393 20.4396C126.473 21.6636 121.412 21.9395 116.428 22.7248C115.368 22.8911 114.339 23.0786 113.286 23.1776C109.49 23.5879 105.736 24.2742 101.947 24.7129C100.427 24.8862 98.8226 25.5194 97.3664 24.398Z" fill="#C7C7C7"/>
<path d="M63.0677 12.367L97.7057 27.9319C98.7908 28.1512 98.9816 28.8021 98.5928 29.7431C97.9425 31.3137 97.2109 32.8525 96.6065 34.4409C96.2884 35.2792 95.3305 35.1802 94.9276 35.8205C93.8817 38.5453 92.6925 41.2127 91.3648 43.8116C90.05 44.1265 88.7422 44.6076 87.3638 44.1123C86.4872 43.3659 86.9608 42.4886 87.1623 41.6644C88.0777 37.9182 88.0389 34.2534 86.5402 30.6204C83.596 23.4924 74.9259 20.0292 67.8357 23.1492C62.9723 25.2717 60.127 29.1063 58.381 33.9527C58.0487 34.8795 58.0664 36.1424 56.6915 36.3935C55.5004 35.8417 54.0936 35.9903 52.9485 35.2757C52.2981 34.5682 52.648 33.8607 52.9485 33.1532C55.7761 26.623 58.6449 20.107 61.5549 13.6051C61.8554 12.9118 62.1735 12.2856 63.0677 12.367Z" fill="#6C6C6C"/>
<path d="M140.123 37.3805C140.629 36.7049 140.477 35.916 140.477 35.1625C140.477 30.8114 140.502 26.4603 140.477 22.1092C140.451 21.6423 140.521 21.175 140.682 20.7363C140.844 20.2975 141.094 19.8967 141.417 19.5587C142.997 17.8996 144.531 16.191 146.04 14.4648C146.814 13.5768 147.807 13.6653 148.804 13.6653H183.93C187.404 13.6653 187.404 13.6653 187.404 17.2346C187.404 29.9931 187.404 42.7539 187.404 55.5172C187.404 56.3308 187.546 57.1692 187.136 57.9403C185.955 57.3566 186.266 56.2282 186.259 55.2943C186.199 49.3513 186.234 43.4084 186.231 37.4654C186.231 31.5696 186.231 25.6844 186.231 19.8099C186.231 19.396 186.255 18.9821 186.231 18.5753C186.206 18.1685 186.34 17.5353 185.747 17.3761C185.305 17.2594 185.008 17.6732 184.75 17.9881C184.166 18.7279 183.532 19.4264 182.852 20.0787C182.329 20.5527 181.82 21.0621 181.021 20.9914C176.281 21.5574 171.513 21.1435 166.77 21.5008C160.44 20.9242 154.12 21.3062 147.8 21.6918C146.801 21.7445 145.816 21.9534 144.881 22.3109C142.792 23.1245 141.7 24.5713 141.7 26.8813C141.7 30.9989 141.742 35.1165 141.671 39.2306C141.671 40.1256 141.884 41.1692 140.83 41.7493C140.467 41.5344 140.155 41.2422 139.918 40.8934C139.68 40.5445 139.521 40.1476 139.454 39.7307C139.387 39.3138 139.412 38.8871 139.527 38.481C139.643 38.0749 139.846 37.6992 140.123 37.3805Z" fill="#9F9F9F"/>
<path d="M63.0677 12.3669L53.1712 34.9431C53.6306 35.5409 53.4751 36.1317 53.21 36.7649C52.0366 39.5949 50.7571 42.3647 49.4918 45.1487C49.0747 46.0614 48.5127 47.0872 47.3357 45.8173C46.7101 41.2186 46.0244 36.6623 45.4059 32.0812C45.3211 31.4622 45.4624 30.9033 46.1481 30.6663C50.0337 21.5183 53.9216 12.374 57.8119 3.23313C58.2891 2.12237 58.487 0.838262 59.505 0.00341797C60.4098 4.20594 61.7918 8.27404 63.0677 12.3669Z" fill="#959595"/>
<path d="M181.512 63.5897C181.158 63.9823 180.66 63.9434 180.194 63.9434L153.179 63.8798C152.473 63.0803 152.985 62.4648 153.508 61.8882C154.656 60.6425 155.909 59.4991 157.255 58.471C159.022 58.3648 160.764 58.6018 162.511 58.3295C169.682 57.2116 174.715 51.5304 175.302 43.8966C175.38 40.7128 177.705 39.1139 179.928 37.4867C180.508 37.0657 181.176 37.2886 181.636 37.8935C182.046 38.845 181.961 39.8568 181.964 40.8473C181.986 47.197 181.964 53.5433 181.964 59.8895C181.96 61.1364 181.808 62.3784 181.512 63.5897Z" fill="#868686"/>
<path d="M181.512 63.5897C180.971 62.7973 181.102 61.8953 181.102 61.025C181.102 53.2709 181.102 45.5179 181.102 37.7661C180.703 37.4124 180.349 37.0091 180.342 36.4325C180.282 31.4022 179.886 26.3648 180.593 21.3487C180.67 21.0086 180.858 20.7038 181.127 20.482C183.318 18.8159 184.633 16.3043 187.136 14.1924V57.9404L181.512 63.5897Z" fill="#767676"/>
<path d="M140.123 37.3806C140.136 38.8307 140.375 40.27 140.83 41.6468C141.608 41.8838 142.138 41.4946 142.664 40.9852C143.322 40.345 144.053 40.1575 144.82 40.8473C145.127 41.3497 145.261 41.9384 145.202 42.524C145.223 45.8075 146.136 49.0233 147.842 51.8276C148.164 52.3759 148.549 52.9171 148.39 53.5963C146.977 55.2236 145.315 56.5961 143.675 57.9722C142.435 59.0158 141.597 60.1442 141.678 61.828C141.717 62.6134 141.551 63.3456 140.834 63.8232C140.169 61.9023 140.657 59.932 140.533 57.9687C140.47 56.9923 140.533 56.0089 140.533 54.8097C139.254 55.9205 139.826 57.813 138.363 58.5311C137.186 56.7907 137.303 54.7319 137.045 52.7898C136.514 48.8597 135.585 44.979 135.511 40.9888C134.217 33.9138 133.249 26.8141 132.33 19.6967C133.217 19.343 133.63 18.6178 133.924 17.737C134.581 15.7347 135.337 13.7608 136.002 11.7692C136.246 11.0617 136.497 10.8389 136.935 11.6277C137.948 19.5092 138.961 27.3895 139.975 35.2687C140.031 35.9797 140.063 36.6801 140.123 37.3806Z" fill="#909090"/>
<path d="M119.312 61.0993C114.717 62.0579 110.045 62.447 105.418 63.1758C104.319 63.3491 103.209 63.4623 102.106 63.6144C99.2081 64.0106 99.2081 64.0142 99.1056 61.0922C98.6002 60.268 99.1693 59.5994 99.5581 59.0334C100.788 57.2646 102.202 55.6056 103.584 53.9394C104.202 53.1966 104.962 52.8287 105.878 53.5291C106.429 54.2719 106.373 55.1988 106.616 56.0336C106.712 56.552 106.856 57.0601 107.048 57.5512C107.599 58.6443 108.44 59.3199 109.713 59.1537C111.049 58.9626 111.519 57.9686 111.611 56.7552C111.727 55.2164 111.353 53.7201 111.137 52.2167C110.893 50.5328 110.621 48.8561 110.402 47.1687C110.229 45.8068 110.649 44.8976 112.109 44.5899C114.981 43.9931 117.885 43.5666 120.807 43.3128C122.221 43.189 123.161 43.702 123.377 45.2832C123.776 48.2405 124.55 51.1448 124.536 54.1552C122.84 55.7966 121.521 57.7528 120.051 59.5782C119.69 60.0239 119.249 60.4484 119.312 61.0993Z" fill="#717171"/>
<path d="M87.4983 43.7761C88.7884 43.3092 90.075 43.1925 91.358 43.8009C88.6258 50.0941 85.8618 56.3766 83.1827 62.6946C82.6419 63.9751 82.1612 64.3289 80.7616 63.6886C72.1091 59.7195 63.4072 55.8531 54.7265 51.9477C54.1964 51.7072 53.6945 51.4029 53.1784 51.127C52.7861 49.8606 53.7263 49.7969 54.5321 49.6908C56.2746 49.4644 58.0348 49.7439 59.7773 49.5953C60.6539 49.2628 61.2229 49.7969 61.7955 50.3028C69.476 57.2575 80.5778 54.7777 85.4412 45.8456C85.9078 45.0037 86.0456 43.7089 87.4983 43.7761Z" fill="#626262"/>
<path d="M46.1588 30.6628C46.6819 34.3454 47.1908 38.0314 47.7352 41.7139C47.9366 43.1006 48.1133 44.4802 47.8129 45.874C48.2724 46.9777 48.3431 47.9965 47.1908 48.7499C46.6889 51.3229 46.1894 53.8934 45.6922 56.4616C44.5965 54.6929 44.7414 52.6164 44.4339 50.6779C42.7975 40.3661 41.2529 30.0402 39.6836 19.7214C40.4258 15.809 41.1539 11.8965 41.9209 7.99115C42.064 7.55056 42.2599 7.1289 42.5041 6.73535C43.7129 14.7135 44.9311 22.6894 46.1588 30.6628Z" fill="#272727"/>
<path d="M119.312 61.0992C118.58 60.993 118.121 60.5615 118.669 59.9389C120.337 58.0499 121.394 55.5878 123.79 54.3673C124.518 54.4133 124.649 55.0748 124.985 55.5241C125.319 56.0129 125.811 56.3707 126.379 56.5365C126.947 56.7023 127.555 56.6658 128.099 56.4332C129.339 55.9981 129.689 54.9404 129.566 53.7518C129.368 51.785 129 49.8358 128.859 47.8584C130.508 45.4662 132.298 43.1735 134.217 40.9921C134.797 40.3236 135.528 40.2528 136.203 40.9532C136.953 46.2524 137.707 51.5527 138.465 56.8542C138.554 57.4449 138.66 58.0039 138.345 58.5486C132.648 59.3646 126.951 60.1794 121.256 60.993C120.609 61.0815 119.955 61.0673 119.312 61.0992Z" fill="#696969"/>
<path d="M94.9209 35.8098C95.8717 33.6873 96.8118 31.5931 97.7803 29.4918C98.0348 28.9329 98.2433 28.4306 97.699 27.9177C98.5756 26.6513 97.5541 25.5617 97.3668 24.3979L113.24 22.2754C113.534 22.6787 113.746 23.1527 113.449 23.5807C112.063 25.5794 110.932 27.808 108.659 29.0284C107.981 29.0744 107.631 28.5969 107.246 28.1511C106.486 27.2703 105.556 26.8847 104.439 27.3906C103.322 27.8964 103.004 28.8799 103.054 29.9977C103.124 31.6886 103.464 33.3512 103.679 35.0245C103.778 35.7815 103.909 36.5279 103.566 37.2566C101.873 38.8096 100.739 40.8401 99.1941 42.4921C98.5261 43.1996 97.9287 44.3988 96.6104 43.426C96.2569 41.3707 95.9353 39.3189 95.5889 37.2637C95.5005 36.7224 95.6702 36.0539 94.9209 35.8098Z" fill="#848484"/>
<path d="M96.628 43.4259C98.3599 42.8953 98.9678 41.2185 100.056 40.0406C101.007 39.0182 101.753 37.8049 102.987 37.062C103.75 37.2743 103.874 37.9676 104.015 38.569C105.075 43.0686 105.56 47.6603 106.171 52.2342C106.252 52.8533 106.107 53.4016 105.443 53.6492C104.407 53.865 104.001 54.7883 103.467 55.5099C102.053 57.406 100.24 58.966 99.1233 61.0779C98.1337 56.504 97.8226 51.831 97.0344 47.2287C96.8012 45.98 96.5255 44.7206 96.628 43.4259Z" fill="#7B7B7B"/>
<path d="M47.1909 48.7499C47.3959 47.7924 47.6033 46.8338 47.813 45.874C48.6436 45.7325 48.6295 44.9542 48.8733 44.4059C50.3225 41.2611 51.7398 38.0986 53.1713 34.9432C54.4083 35.1731 55.9989 34.271 56.734 36.0858C57.6389 36.5739 57.5858 37.476 57.5293 38.2613C57.2758 41.8629 58.1639 45.4528 60.067 48.52C60.3745 49.0329 60.6502 49.56 60.1978 50.1402C58.5578 50.6566 56.8719 50.4373 55.2001 50.4939C54.4649 50.5187 53.6626 50.3489 53.1677 51.1377C51.1036 50.5293 49.3505 49.1284 47.1909 48.7499Z" fill="#676767"/>
<path d="M140.809 63.8408C140.293 60.6394 141.237 58.1809 144.146 56.4298C145.467 55.641 146.196 53.9748 147.903 53.6493C148.712 53.1258 149.256 53.6741 149.726 54.1764C151.54 56.1185 153.823 57.2434 156.297 58.0677C156.887 58.2622 157.622 58.3719 157.456 59.2987C155.831 60.6429 154.194 61.973 153.176 63.8974C149.062 63.9752 144.937 64.0283 140.809 63.8408Z" fill="#8C8C8C"/>
<path d="M31.2399 29.4636C31.3437 32.6335 30.4145 35.7512 28.5925 38.3462C26.8253 40.918 24.9344 43.3977 23.107 45.927C21.9441 47.4833 20.9433 49.1546 20.1204 50.9149C19.6468 51.9761 19.5796 52.5563 21.103 52.2662C24.284 51.6648 27.465 51.1625 30.6814 50.6779C31.5532 50.5469 32.4383 50.5291 33.3146 50.6248C34.8026 50.7911 35.81 51.5516 36.0256 53.1612C36.2412 54.7707 35.4282 55.7506 34.0639 56.3449C32.0917 57.1797 29.9604 57.3708 27.8715 57.6856C23.9836 58.2764 20.1522 59.2916 16.1794 59.3836C14.4723 59.426 13.5356 58.6761 13.115 57.0948C12.2809 53.9854 12.8499 51.0281 14.1188 48.1627C15.5114 45.0144 17.5402 42.2728 19.668 39.595C20.7672 38.2118 21.8912 36.8463 22.9303 35.4207C23.4554 34.7129 23.8844 33.9385 24.2062 33.1178C24.9131 31.2571 24.6092 30.914 22.6758 31.243C19.8906 31.7135 17.1019 32.1733 14.3167 32.658C13.39 32.8519 12.4297 32.8142 11.521 32.5483C11.0367 32.415 10.6019 32.1432 10.2698 31.7662C9.93765 31.3892 9.72268 30.9233 9.65122 30.4258C9.44622 29.308 9.63001 28.3033 10.556 27.5569C11.3081 26.985 12.1962 26.6192 13.1327 26.4957C17.3741 25.7705 21.5943 24.9887 25.8569 24.3484C29.9038 23.74 31.0596 24.7729 31.254 28.8906C31.2681 29.1417 31.2399 29.4353 31.2399 29.4636Z" fill="#FEFEFE"/>
<path fill-rule="evenodd" clip-rule="evenodd" d="M234.239 37.1683C239.753 39.4075 242.401 44.1265 241.407 49.6414C240.425 55.1033 236.226 58.5558 230.394 58.5912C227.507 58.6096 224.62 58.6061 221.734 58.6025C217.972 58.5978 214.21 58.5932 210.449 58.6372C209.056 58.6372 208.816 58.1703 208.819 56.9215C208.859 44.281 208.859 31.6416 208.819 19.0033C208.819 17.6166 209.208 17.2346 210.587 17.2523C213.822 17.2894 217.058 17.2832 220.294 17.277H220.294C223.53 17.2709 226.766 17.2647 230.002 17.3018C237.583 17.3867 242.443 23.694 240.446 30.7831C239.569 33.882 237.481 35.9125 234.239 37.1683ZM222.77 52.245C222.163 52.245 221.557 52.241 220.95 52.2371C219.736 52.2293 218.523 52.2214 217.309 52.245C216.45 52.2697 216.047 52.0858 216.065 51.0988C216.122 47.9929 216.115 44.88 216.065 41.774C216.065 40.8755 216.291 40.543 217.242 40.5572C218.739 40.5804 220.237 40.5732 221.735 40.566C223.878 40.5556 226.021 40.5452 228.16 40.6244C232.532 40.7836 235.013 44.3246 233.766 48.4068C233.059 50.6354 231.292 51.9974 228.577 52.1672C227.245 52.2477 225.899 52.2272 224.561 52.2067H224.56C223.96 52.1975 223.362 52.1884 222.766 52.1884L222.77 52.245ZM220.981 34.2277C221.503 34.2317 222.025 34.2358 222.547 34.2358L222.516 34.2039C223.097 34.2039 223.678 34.2126 224.257 34.2212C225.567 34.2407 226.872 34.2601 228.171 34.1792C230.426 34.0377 232.26 33.1285 233.038 30.8009C234.254 27.1537 232.048 23.9169 228.033 23.7259C225.801 23.6194 223.564 23.6278 221.326 23.6361C219.921 23.6413 218.516 23.6465 217.111 23.6233C216.196 23.6092 216.051 23.9983 216.051 24.7801C216.09 27.5393 216.104 30.2986 216.051 33.0542C216.033 33.9775 216.316 34.2853 217.246 34.2535C218.491 34.2086 219.736 34.2182 220.981 34.2277Z" fill="#F2F2F2"/>
<path fill-rule="evenodd" clip-rule="evenodd" d="M298.013 27.8718C288.816 27.8718 282.542 34.1791 282.542 43.4367C282.521 52.811 288.727 59.2952 297.733 59.2881C306.923 59.3023 313.285 52.9596 313.285 43.7905C313.299 34.2711 307.209 27.8718 298.013 27.8718ZM296.153 53.3275C302.028 54.4029 306.587 50.0907 306.538 43.5004C306.528 42.0882 306.276 40.6882 305.792 39.3615C304.519 35.8771 301.858 33.8325 298.253 33.7016C294.648 33.5707 292.032 35.2156 290.438 38.3993C289.403 40.4647 289.026 42.7986 289.36 45.0852C289.979 49.5884 292.538 52.666 296.153 53.3275Z" fill="#F2F2F2"/>
<path fill-rule="evenodd" clip-rule="evenodd" d="M262.236 27.8789C253.079 27.8789 246.844 34.2075 246.844 43.511C246.844 52.8429 253.072 59.3023 262.113 59.2952C271.256 59.3129 277.594 52.9455 277.594 43.7303C277.594 34.2393 271.394 27.8789 262.236 27.8789ZM260.476 53.331C266.29 54.3852 270.797 50.1862 270.85 43.6631C270.848 42.1942 270.589 40.737 270.083 39.358C268.807 35.863 266.138 33.8183 262.533 33.698C258.928 33.5778 256.316 35.2298 254.729 38.4135C253.699 40.4819 253.329 42.817 253.669 45.1029C254.294 49.6061 256.853 52.6731 260.476 53.331Z" fill="#F2F2F2"/>
<path d="M108.645 28.6147C110.076 26.4285 112.119 24.6846 113.24 22.2755L131.619 19.7993C132.248 20.3795 132.209 20.9914 131.75 21.66C130.658 23.2448 129.406 24.7023 128.215 26.1951C127.999 26.4743 127.707 26.6856 127.375 26.8041C127.042 26.9225 126.682 26.9432 126.339 26.8637C125.84 26.7186 125.632 26.2835 125.338 25.9156C124.589 24.9393 123.635 24.4263 122.415 24.8827C121.196 25.339 120.853 26.4356 120.934 27.6171C121.069 29.6123 121.436 31.5791 121.715 33.5566C121.864 34.6178 121.995 35.6507 122.118 36.7014C122.26 37.9112 121.828 38.7566 120.531 39.0255C117.538 39.6226 114.513 40.0549 111.472 40.3202C110.165 40.4405 109.415 39.8285 109.164 38.4666C108.645 35.7498 108.313 33.0012 107.938 30.2773C107.864 29.6052 107.938 28.9755 108.645 28.6147Z" fill="#7C7C7C"/>
<path d="M126.646 26.5274C128.452 24.3873 130.626 22.523 131.63 19.8062L132.294 19.7319C132.592 19.8568 132.85 20.0629 133.037 20.3267C133.225 20.5906 133.335 20.9016 133.354 21.2247C134.297 27.8045 135.245 34.3842 136.2 40.9639C135.846 41.0594 135.408 41.0452 135.217 41.2646C133.305 43.4472 131.35 45.5944 129.838 48.0848C128.968 48.0848 128.798 47.4551 128.685 46.8042C127.625 40.6915 126.777 34.5398 125.967 28.3881C125.868 27.6665 125.9 26.9519 126.646 26.5274Z" fill="#707070"/>
<path d="M60.2227 50.1331C56.9356 45.9766 56.1616 41.201 56.7589 36.0858C57.5542 33.4999 58.4272 30.9494 59.94 28.6571C65.217 20.6058 75.7568 18.6743 83.0484 24.4475C87.8801 28.2715 89.916 35.3818 88.0497 41.9155C87.873 42.5346 87.6963 43.1572 87.5231 43.7798C86.1093 46.8609 84.3668 49.6838 81.6382 51.8028C75.1701 56.826 66.8711 56.4015 60.9049 50.7026C60.6681 50.4975 60.4313 50.3347 60.2227 50.1331Z" fill="#FEFEFE"/>
<path d="M144.343 40.9463C142.93 41.3708 142.283 42.7858 141.039 43.4862C140.632 42.899 140.911 42.2481 140.823 41.6468C140.823 36.8877 140.823 32.1274 140.823 27.366C140.823 23.2307 142.986 21.1754 147.231 20.7863C152.929 20.2698 158.626 20.574 164.324 20.4644C165.087 20.4644 165.854 20.4644 166.618 20.4644C166.78 21.8793 165.6 21.7909 164.776 22.0385C162.25 22.8125 160.068 24.4373 158.602 26.6373C158.153 27.0202 157.603 27.2658 157.018 27.3447C150.656 28.8128 147.122 33.0047 145.605 39.1351C145.404 39.9099 145.478 40.8437 144.343 40.9463Z" fill="#979797"/>
<path d="M158.128 26.096C159.782 23.6728 161.776 21.6989 164.815 21.1436C165.456 21.0545 166.068 20.8224 166.607 20.4644L181.12 20.482C181.12 20.7084 181.12 20.9384 181.095 21.1683C180.879 21.4442 180.809 21.8758 180.508 22.0244C176.659 23.8143 174.146 27.2528 170.944 29.8068C170.765 29.9573 170.555 30.066 170.329 30.1252C169.622 30.1818 169.106 29.7431 168.562 29.4177C166.066 27.8359 163.181 26.9786 160.227 26.9415C159.468 26.9415 158.538 27.1042 158.128 26.096Z" fill="#929292"/>
<path d="M158.128 26.096C162.68 25.7918 166.872 26.7434 170.477 29.6901C171.297 29.4672 171.814 29.966 172.315 30.4683C174.79 32.9446 176.373 35.9514 176.709 39.4464C176.854 40.9711 176.214 42.5205 176.221 44.0911C175.256 52.2981 170.28 58.004 162.921 59.1431C161.136 59.4226 159.284 59.2528 157.46 59.2917C153.746 58.5109 150.392 56.5281 147.917 53.6494C145.27 49.9675 144.005 45.4695 144.343 40.9463C144.874 37.5963 145.885 34.4551 148.094 31.7772C150.706 28.5864 154.127 26.8389 158.128 26.096Z" fill="#FEFEFE"/>
<path d="M176.225 44.0912C176.479 38.4312 174.691 33.5778 170.481 29.6901C170.667 29.0093 171.073 28.4095 171.637 27.9851C173.757 26.0925 175.913 24.2283 178.027 22.3251C178.914 21.5256 180.102 21.6176 181.099 21.1719V37.7697C178.663 39.2519 176.267 40.7836 176.225 44.0912Z" fill="#8D8D8D"/>
<path d="M126.646 26.5275C127.565 33.7298 128.551 40.9214 129.827 48.0707C130.05 49.8748 130.287 51.6754 130.492 53.4795C130.845 56.4899 129.163 58.0782 126.194 57.5723C124.359 57.2681 124.048 55.8425 123.787 54.3674C123.338 51.2862 122.875 48.2086 122.451 45.1275C122.338 44.3033 121.931 43.9955 121.143 44.1122C118.117 44.5615 115.095 45.0249 112.066 45.4529C111.006 45.6015 111.137 46.2878 111.246 47.0165C111.632 49.514 112.02 52.0114 112.388 54.5124C112.511 55.2662 112.586 56.0272 112.611 56.7906C112.646 58.9944 111.55 60.2325 109.567 60.3492C108.656 60.3836 107.766 60.0691 107.077 59.4698C106.389 58.8705 105.955 58.0314 105.863 57.1231C105.722 55.9699 105.57 54.8166 105.422 53.6634C104.838 48.7357 104.124 43.8292 103.234 38.9511C103.117 38.3249 103.053 37.6917 102.965 37.0621C102.711 35.0245 102.455 32.9857 102.198 30.9458C101.862 28.2891 102.481 26.9236 104.319 26.3223C106.157 25.7209 107.288 26.3223 108.652 28.6146C109.087 31.7594 109.56 34.9007 109.939 38.0561C110.083 39.2447 110.543 39.6939 111.766 39.4923C114.438 39.0537 117.117 38.6645 119.803 38.3249C121.065 38.1657 121.465 37.6882 121.217 36.3616C120.701 33.468 120.28 30.5531 119.991 27.6276C119.701 24.7021 121.489 23.0926 124.098 23.6303C125.699 23.9593 126.074 25.3176 126.646 26.5275Z" fill="#FEFEFE"/>
<path d="M81.8501 36.4041C81.5725 39.7458 80.2813 42.9228 78.1495 45.5096C75.5411 48.757 72.1126 49.7086 68.5887 48.3042C64.9341 46.8467 63.0396 43.7833 63.4672 39.5949C63.8028 35.9884 65.3445 32.6006 67.8429 29.9801C70.363 27.3163 73.636 26.6619 76.8629 28.0309C80.1783 29.4353 81.8996 32.1096 81.8501 36.4041Z" fill="#6A6A6A"/>
<path d="M166.533 34.9749C169.594 39.1775 169.615 43.7408 167.837 48.3537C166.54 51.7178 163.317 53.4724 159.648 53.2495C156.113 53.0302 153.413 50.8511 152.381 47.342C152.588 46.4326 153.084 45.6148 153.795 45.0108C157.396 41.9296 160.8 38.6256 164.356 35.4914C165.01 34.9077 165.646 34.4762 166.533 34.9749Z" fill="#8C8C8C"/>
<path d="M166.533 34.9749C164.469 36.2449 162.861 38.0596 161.055 39.6303C158.135 42.1666 155.269 44.7667 152.381 47.342C151.72 45.6012 151.428 43.742 151.523 41.8823C151.618 40.0225 152.098 38.2028 152.932 36.5385C155.491 31.2995 162.878 30.5 166.533 34.9749Z" fill="#929292"/>
</g>
<defs>
<clipPath id="clip0_5171_474">
<rect width="374.613" height="64" fill="white" transform="translate(0.164551)"/>
</clipPath>
</defs>
</svg>
