<svg width="221" height="67" viewBox="0 0 221 67" fill="none" xmlns="http://www.w3.org/2000/svg">
<path fill-rule="evenodd" clip-rule="evenodd" d="M213.993 53.3339C218.383 47.73 221 40.6706 221 33C221 14.7746 206.225 0 188 0C169.775 0 155 14.7746 155 33C155 51.2254 169.775 66 188 66C192.037 66 195.905 65.275 199.481 63.948C198.545 62.5283 198 60.8278 198 59C198 54.0294 202.029 50 207 50C209.823 50 212.343 51.2999 213.993 53.3339Z" fill="#01655E"/>
<circle cx="207" cy="59" r="8" fill="#5170FD"/>
<path d="M208.63 53.0909H206.462L203.762 54.8008V56.8462L206.26 55.2802H206.324V64H208.63V53.0909Z" fill="white"/>
<g filter="url(#filter0_d)">
<path fill-rule="evenodd" clip-rule="evenodd" d="M183.333 21.6667C180.019 21.6667 177.333 24.353 177.333 27.6667V41.0001H177.38C177.704 43.2616 179.649 45.0001 182 45.0001H197.333C198.069 45.0001 198.666 44.4031 198.666 43.6667V23.6667C198.666 22.5622 197.771 21.6667 196.666 21.6667H183.333ZM182 37.6667H196.666V43.0001H182C180.527 43.0001 179.333 41.8062 179.333 40.3334C179.333 38.8607 180.527 37.6667 182 37.6667ZM192.692 28.3881C193.091 28.0057 193.104 27.3726 192.721 26.9742C192.339 26.5758 191.706 26.5629 191.307 26.9454L187.833 30.2805L186.026 28.5454C185.627 28.1629 184.994 28.1758 184.612 28.5742C184.229 28.9726 184.242 29.6057 184.64 29.9881L187.14 32.3881C187.527 32.7596 188.139 32.7596 188.526 32.3881L192.692 28.3881Z" fill="white"/>
</g>
<path d="M151.22 41H5C2.23858 41 0 38.7614 0 36V5C0 2.23857 2.23858 0 5 0H21.0394H146.431C149.109 0 151.311 2.10946 151.427 4.78463L152.535 30.5L160 41H152.5H151.22Z" fill="#333333"/>
<path d="M25.7685 15.0909H24.3835L28.3892 26H29.7528L33.7585 15.0909H32.3736L29.1349 24.2741H29.0071L25.7685 15.0909ZM35.2873 26H36.5444V17.8182H35.2873V26ZM35.9265 16.4545C36.4165 16.4545 36.8214 16.071 36.8214 15.6023C36.8214 15.1335 36.4165 14.75 35.9265 14.75C35.4364 14.75 35.0316 15.1335 35.0316 15.6023C35.0316 16.071 35.4364 16.4545 35.9265 16.4545ZM42.2773 26.1705C43.9392 26.1705 45.1537 25.3395 45.5372 24.1037L44.3227 23.7628C44.0031 24.6151 43.2627 25.0412 42.2773 25.0412C40.8018 25.0412 39.7844 24.0877 39.7258 22.3352H45.665V21.8026C45.665 18.7557 43.854 17.7116 42.1494 17.7116C39.9335 17.7116 38.4633 19.4588 38.4633 21.973C38.4633 24.4872 39.9122 26.1705 42.2773 26.1705ZM39.7258 21.2486C39.811 19.9755 40.7112 18.8409 42.1494 18.8409C43.5131 18.8409 44.3866 19.8636 44.3866 21.2486H39.7258ZM49.431 26H50.6668L52.4566 19.7145H52.5844L54.3742 26H55.61L58.1029 17.8182H56.7819L55.0134 24.0611H54.9282L53.2023 17.8182H51.86L50.1128 24.0824H50.0276L48.2591 17.8182H46.9381L49.431 26ZM72.9324 18.5C72.5276 16.2628 70.7378 14.9418 68.5432 14.9418C65.752 14.9418 63.7279 17.0938 63.7279 20.5455C63.7279 23.9972 65.752 26.1491 68.5432 26.1491C70.7378 26.1491 72.5276 24.8281 72.9324 22.5909H71.6114C71.2918 24.1037 69.9921 24.9134 68.5432 24.9134C66.5617 24.9134 65.0063 23.3793 65.0063 20.5455C65.0063 17.7116 66.5617 16.1776 68.5432 16.1776C69.9921 16.1776 71.2918 16.9872 71.6114 18.5H72.9324ZM76.1538 21.0781C76.1538 19.6506 77.0646 18.8409 78.3058 18.8409C79.4883 18.8409 80.2021 19.5866 80.2021 20.8864V26H81.4592V20.8011C81.4592 18.6971 80.3406 17.7116 78.668 17.7116C77.3789 17.7116 76.6438 18.2496 76.2603 19.0966H76.1538V15.0909H74.8967V26H76.1538V21.0781ZM87.1894 26.1705C88.8513 26.1705 90.0658 25.3395 90.4493 24.1037L89.2348 23.7628C88.9152 24.6151 88.1748 25.0412 87.1894 25.0412C85.7139 25.0412 84.6965 24.0877 84.6379 22.3352H90.5771V21.8026C90.5771 18.7557 88.7661 17.7116 87.0615 17.7116C84.8456 17.7116 83.3754 19.4588 83.3754 21.973C83.3754 24.4872 84.8243 26.1705 87.1894 26.1705ZM84.6379 21.2486C84.7231 19.9755 85.6233 18.8409 87.0615 18.8409C88.4252 18.8409 89.2987 19.8636 89.2987 21.2486H84.6379ZM95.8133 26.1705C97.6244 26.1705 98.8176 25.0625 99.0306 23.6136H97.7735C97.5392 24.5085 96.7934 25.0412 95.8133 25.0412C94.3218 25.0412 93.363 23.8054 93.363 21.9091C93.363 20.0554 94.3431 18.8409 95.8133 18.8409C96.9213 18.8409 97.5818 19.5227 97.7735 20.2685H99.0306C98.8176 18.7344 97.5178 17.7116 95.792 17.7116C93.5761 17.7116 92.1059 19.4588 92.1059 21.9517C92.1059 24.402 93.5122 26.1705 95.8133 26.1705ZM100.868 26H102.125V22.9371L103.004 22.1222L106.067 26H107.665L103.953 21.3125L107.41 17.8182H105.854L102.275 21.4616H102.125V15.0909H100.868V26ZM110.285 15.0909H109.028V26H110.285V15.0909ZM112.587 26H113.844V17.8182H112.587V26ZM113.226 16.4545C113.716 16.4545 114.121 16.071 114.121 15.6023C114.121 15.1335 113.716 14.75 113.226 14.75C112.736 14.75 112.331 15.1335 112.331 15.6023C112.331 16.071 112.736 16.4545 113.226 16.4545ZM121.942 19.6506C121.548 18.4893 120.664 17.7116 119.044 17.7116C117.319 17.7116 116.04 18.6918 116.04 20.0767C116.04 21.206 116.711 21.9624 118.213 22.3139L119.577 22.6335C120.403 22.8253 120.792 23.2195 120.792 23.7841C120.792 24.4872 120.046 25.0625 118.874 25.0625C117.846 25.0625 117.201 24.6204 116.978 23.7415L115.784 24.0398C116.077 25.43 117.223 26.1705 118.895 26.1705C120.797 26.1705 122.091 25.1317 122.091 23.7202C122.091 22.5803 121.377 21.8612 119.918 21.5043L118.703 21.206C117.734 20.9663 117.297 20.6413 117.297 20.0128C117.297 19.3097 118.043 18.7983 119.044 18.7983C120.142 18.7983 120.594 19.4055 120.813 19.9702L121.942 19.6506ZM127.542 17.8182H125.795V15.858H124.538V17.8182H123.302V18.8835H124.538V23.9972C124.538 25.4247 125.688 26.1065 126.753 26.1065C127.222 26.1065 127.521 26.0213 127.691 25.9574L127.435 24.8281C127.329 24.8494 127.158 24.892 126.881 24.892C126.327 24.892 125.795 24.7216 125.795 23.6562V18.8835H127.542V17.8182Z" fill="white"/>
<defs>
<filter id="filter0_d" x="174.333" y="21.6667" width="27.3333" height="29.3333" filterUnits="userSpaceOnUse" color-interpolation-filters="sRGB">
<feFlood flood-opacity="0" result="BackgroundImageFix"/>
<feColorMatrix in="SourceAlpha" type="matrix" values="0 0 0 0 0 0 0 0 0 0 0 0 0 0 0 0 0 0 127 0" result="hardAlpha"/>
<feOffset dy="3"/>
<feGaussianBlur stdDeviation="1.5"/>
<feColorMatrix type="matrix" values="0 0 0 0 0 0 0 0 0 0.1875 0 0 0 0 0.174375 0 0 0 1 0"/>
<feBlend mode="normal" in2="BackgroundImageFix" result="effect1_dropShadow"/>
<feBlend mode="normal" in="SourceGraphic" in2="effect1_dropShadow" result="shape"/>
</filter>
</defs>
</svg>
