<svg width="105" height="60" viewBox="0 0 105 60" fill="none" xmlns="http://www.w3.org/2000/svg">
<g clip-path="url(#clip0)">
<path d="M4.5741 59.9212H3.39429V57.4429H1.18361V59.9212H0V54.1787H1.18361V56.4295H3.39429V54.1787H4.5741V59.9212Z" fill="black"/>
<path d="M9.81909 55.4475C10.2111 55.4475 10.5611 55.5391 10.8691 55.7226C11.1796 55.9034 11.4189 56.1652 11.5869 56.508C11.7574 56.8485 11.8427 57.2385 11.8427 57.6788C11.8427 57.6917 11.8427 57.7049 11.8427 57.7178C11.8427 58.4327 11.6594 58.9918 11.2929 59.395C10.9264 59.7983 10.416 60.0001 9.76182 60.0001C9.75165 60.0001 9.7402 60.0001 9.72746 60.0001C9.33547 60.0001 8.9842 59.9085 8.67368 59.725C8.36569 59.5392 8.12639 59.2746 7.95586 58.9318C7.78786 58.5885 7.70386 58.197 7.70386 57.7571C7.70386 57.7443 7.70386 57.731 7.70386 57.7178C7.70386 57.0005 7.88588 56.4441 8.24986 56.0487C8.61387 55.6478 9.12547 55.4475 9.78473 55.4475C9.79494 55.4475 9.80639 55.4475 9.81909 55.4475ZM10.4415 56.7359C10.3015 56.5213 10.0774 56.4137 9.76945 56.4137C9.46147 56.4137 9.23748 56.5197 9.09749 56.7321C8.96004 56.944 8.89131 57.2728 8.89131 57.7178C8.89131 58.1604 8.96129 58.4919 9.10131 58.7117C9.24383 58.9291 9.46782 59.0378 9.77327 59.0378C10.0813 59.0378 10.304 58.9291 10.4415 58.7117C10.5814 58.4943 10.6515 58.1643 10.6515 57.7217C10.6515 57.2767 10.5814 56.9479 10.4415 56.7359Z" fill="black"/>
<path d="M18.7982 59.9213H17.9047L17.7482 59.3599H17.6871C17.5624 59.5641 17.3855 59.7226 17.1564 59.8352C16.9273 59.9451 16.6664 60 16.3737 60C15.8748 60 15.4968 59.8625 15.2397 59.5874C14.9852 59.3128 14.8579 58.9146 14.8579 58.3933V55.53H16.0224V58.0948C16.0224 58.4143 16.0772 58.6528 16.1866 58.8098C16.2986 58.9668 16.473 59.0455 16.7097 59.0455C17.0355 59.0455 17.271 58.9341 17.4161 58.7116C17.5611 58.4891 17.6337 58.117 17.6337 57.5961V55.53H18.7982V59.9213Z" fill="black"/>
<path d="M23.2872 59.1243C23.7097 59.1243 23.921 58.9984 23.921 58.7471C23.921 58.6189 23.865 58.5165 23.753 58.4405C23.6435 58.3649 23.3916 58.2363 22.997 58.0556C22.6687 57.9145 22.4269 57.7832 22.2716 57.6628C22.1189 57.5424 22.0069 57.4049 21.9356 57.2506C21.8669 57.0932 21.8325 56.9008 21.8325 56.6732C21.8325 56.2828 21.9789 55.9817 22.2716 55.7697C22.5669 55.555 22.9792 55.4475 23.5087 55.4475C24.0381 55.4475 24.5433 55.5628 25.0244 55.7931L24.6732 56.6572C24.4263 56.5501 24.2137 56.4702 24.0356 56.4176C23.8599 56.3627 23.683 56.3354 23.5048 56.3354C23.1612 56.3354 22.9894 56.4309 22.9894 56.6222C22.9894 56.7293 23.0454 56.8236 23.1574 56.9046C23.2694 56.9833 23.501 57.0948 23.8523 57.2385C24.2061 57.3827 24.4606 57.5163 24.6159 57.6395C24.9188 57.8752 25.0703 58.2102 25.0703 58.645C25.0703 59.0795 24.9175 59.4149 24.6121 59.6506C24.3066 59.8836 23.865 60.0001 23.2872 60.0001C22.7094 60.0001 22.2258 59.9152 21.8363 59.7449V58.7549C22.0552 58.8597 22.2996 58.9474 22.5694 59.0183C22.8418 59.0888 23.081 59.1243 23.2872 59.1243Z" fill="black"/>
<path d="M31.4836 59.69C31.0916 59.8969 30.5914 60.0001 29.9831 60.0001C29.2958 60.0001 28.7588 59.8049 28.3719 59.4149C27.9849 59.0245 27.7915 58.467 27.7915 57.7415C27.7915 57.0161 27.9697 56.4543 28.3261 56.0565C28.6824 55.6505 29.1698 55.4475 29.7884 55.4475C30.4069 55.4475 30.8829 55.6244 31.2163 55.9778C31.5549 56.3288 31.7242 56.817 31.7242 57.4431V58.0244H28.9713C28.984 58.3672 29.082 58.6345 29.2653 58.8258C29.4511 59.014 29.7082 59.1083 30.0366 59.1083C30.5202 59.1083 31.0025 58.9934 31.4836 58.7627V59.69ZM30.6322 57.2269C30.6271 56.9335 30.552 56.706 30.4069 56.5435C30.2644 56.381 30.0696 56.3 29.8227 56.3C29.5758 56.3 29.3811 56.3798 29.2386 56.5396C29.0986 56.6993 29.0184 56.9284 28.998 57.2269H30.6322Z" fill="black"/>
<path d="M40.6982 55.4475C41.0901 55.4475 41.4404 55.5391 41.7482 55.7226C42.0587 55.9034 42.2979 56.1652 42.4659 56.508C42.6365 56.8485 42.7218 57.2385 42.7218 57.6788C42.7218 57.6917 42.7218 57.7049 42.7218 57.7178C42.7218 58.4327 42.5387 58.9918 42.1721 59.395C41.8055 59.7983 41.2951 60.0001 40.6409 60.0001C40.6308 60.0001 40.6195 60.0001 40.6066 60.0001C40.2147 60.0001 39.8633 59.9085 39.5527 59.725C39.245 59.5392 39.0057 59.2746 38.835 58.9318C38.667 58.5885 38.583 58.197 38.583 57.7571C38.583 57.7443 38.583 57.731 38.583 57.7178C38.583 57.0005 38.765 56.4441 39.1289 56.0487C39.4931 55.6478 40.0047 55.4475 40.6639 55.4475C40.674 55.4475 40.6853 55.4475 40.6982 55.4475ZM41.3204 56.7359C41.1805 56.5213 40.9565 56.4137 40.6487 56.4137C40.3405 56.4137 40.1165 56.5197 39.9766 56.7321C39.8391 56.944 39.7705 57.2728 39.7705 57.7178C39.7705 58.1604 39.8403 58.4919 39.9805 58.7117C40.1231 58.9291 40.3472 59.0378 40.6526 59.0378C40.9604 59.0378 41.1833 58.9291 41.3204 58.7117C41.4607 58.4943 41.5304 58.1643 41.5304 57.7217C41.5304 57.2767 41.4607 56.9479 41.3204 56.7359Z" fill="black"/>
<path d="M45.9472 55.2077C45.9472 54.7051 46.0668 54.3396 46.306 54.1117C46.5453 53.8814 46.9286 53.7661 47.4554 53.7661C47.8551 53.7661 48.2128 53.8277 48.5284 53.9508L48.2303 54.8305C47.9938 54.7546 47.7862 54.7168 47.6081 54.7168C47.4301 54.7168 47.3027 54.7651 47.2263 54.8621C47.1499 54.9591 47.1117 55.09 47.1117 55.2548V55.5299H48.1197V56.4295H47.1117V59.9212H45.9472V56.4295H45.3059V55.8517L45.9472 55.5299V55.2077Z" fill="black"/>
<path d="M59.7516 59.9213H58.4764L58.0677 58.5545H56.0363L55.6319 59.9213H54.3567L56.3266 54.155H57.7736L59.7516 59.9213ZM57.7892 57.5333L57.1553 55.4318C57.107 55.2588 57.0738 55.1306 57.0559 55.0468C56.9718 55.3792 56.7314 56.2083 56.3344 57.5333H57.7892Z" fill="black"/>
<path d="M64.1716 60.0001C62.843 60.0001 62.1787 59.2497 62.1787 57.7493C62.1787 57.0056 62.3591 56.436 62.7207 56.0405C63.0822 55.6454 63.6 55.4475 64.2748 55.4475C64.7712 55.4475 65.2126 55.5469 65.5995 55.7459L65.2597 56.6732C64.8475 56.5002 64.5191 56.4137 64.2748 56.4137C63.669 56.4137 63.3658 56.8497 63.3658 57.7217C63.3658 58.594 63.669 59.03 64.2748 59.03C64.7022 59.03 65.1008 58.903 65.4697 58.6489V59.674C65.271 59.8049 65.0801 59.8902 64.897 59.9296C64.7061 59.9767 64.4641 60.0001 64.1716 60.0001Z" fill="black"/>
<path d="M70.2681 60.0001C68.9392 60.0001 68.2749 59.2497 68.2749 57.7493C68.2749 57.0056 68.4557 56.436 68.8172 56.0405C69.1784 55.6454 69.6966 55.4475 70.371 55.4475C70.8674 55.4475 71.3092 55.5469 71.6961 55.7459L71.3563 56.6732C70.9437 56.5002 70.6153 56.4137 70.371 56.4137C69.7652 56.4137 69.4624 56.8497 69.4624 57.7217C69.4624 58.594 69.7652 59.03 70.371 59.03C70.7988 59.03 71.197 58.903 71.5663 58.6489V59.674C71.3676 59.8049 71.1767 59.8902 70.9936 59.9296C70.8027 59.9767 70.5607 60.0001 70.2681 60.0001Z" fill="black"/>
<path d="M76.4829 55.4475C76.8748 55.4475 77.2247 55.5391 77.5329 55.7226C77.8434 55.9034 78.0826 56.1652 78.2505 56.508C78.4212 56.8485 78.5065 57.2385 78.5065 57.6788C78.5065 57.6917 78.5065 57.7049 78.5065 57.7178C78.5065 58.4327 78.323 58.9918 77.9568 59.395C77.5901 59.7983 77.0798 60.0001 76.4256 60.0001C76.4155 60.0001 76.4038 60.0001 76.3913 60.0001C75.9994 60.0001 75.6479 59.9085 75.3374 59.725C75.0292 59.5392 74.79 59.2746 74.6198 58.9318C74.4514 58.5885 74.3677 58.197 74.3677 57.7571C74.3677 57.7443 74.3677 57.731 74.3677 57.7178C74.3677 57.0005 74.5496 56.4441 74.9135 56.0487C75.2774 55.6478 75.7894 55.4475 76.4486 55.4475C76.4587 55.4475 76.47 55.4475 76.4829 55.4475ZM77.1051 56.7359C76.9652 56.5213 76.7412 56.4137 76.4334 56.4137C76.1252 56.4137 75.9012 56.5197 75.7613 56.7321C75.6238 56.944 75.5552 57.2728 75.5552 57.7178C75.5552 58.1604 75.625 58.4919 75.7652 58.7117C75.9074 58.9291 76.1314 59.0378 76.4369 59.0378C76.7451 59.0378 76.9675 58.9291 77.1051 58.7117C77.2453 58.4943 77.3151 58.1643 77.3151 57.7217C77.3151 57.2767 77.2453 56.9479 77.1051 56.7359Z" fill="black"/>
<path d="M85.4619 59.9213H84.5685L84.4119 59.3599H84.3511C84.226 59.5641 84.0491 59.7226 83.82 59.8352C83.591 59.9451 83.3303 60 83.0373 60C82.5386 60 82.1607 59.8625 81.9035 59.5874C81.6491 59.3128 81.5217 58.9146 81.5217 58.3933V55.53H82.6863V58.0948C82.6863 58.4143 82.7408 58.6528 82.8503 58.8098C82.9625 58.9668 83.1367 59.0455 83.3736 59.0455C83.6993 59.0455 83.9346 58.9341 84.0799 58.7116C84.2249 58.4891 84.2973 58.117 84.2973 57.5961V55.53H85.4619V59.9213Z" fill="black"/>
<path d="M91.1804 55.4475C91.674 55.4475 92.0496 55.5862 92.3068 55.864C92.5662 56.1387 92.696 56.5369 92.696 57.0582V59.9214H91.5314V57.3566C91.5314 57.0371 91.4753 56.7987 91.3635 56.6417C91.254 56.4847 91.0811 56.4059 90.8442 56.4059C90.5185 56.4059 90.2831 56.5185 90.1378 56.7437C89.9929 56.9689 89.9204 57.3395 89.9204 57.8553V59.9214H88.7559V55.5301H89.6453L89.802 56.0958H89.8666C89.994 55.8835 90.1709 55.7226 90.3977 55.6127C90.6268 55.5024 90.8874 55.4475 91.1804 55.4475Z" fill="black"/>
<path d="M97.2577 55.53H98.4527V56.4296H97.2577V58.5468C97.2577 58.7116 97.3021 58.8359 97.3914 58.9196C97.4829 59.0038 97.6181 59.0455 97.7962 59.0455C97.9742 59.0455 98.2084 58.9995 98.4986 58.908V59.7998C98.2084 59.9334 97.8421 60 97.3992 60C96.9585 60 96.6305 59.8808 96.4138 59.6428C96.2003 59.4016 96.0932 59.0365 96.0932 58.5468V56.4296H95.5356V55.9228L96.1773 55.5222L96.5132 54.595H97.2577V55.53Z" fill="black"/>
<path d="M102.633 59.1243C103.055 59.1243 103.266 58.9984 103.266 58.7471C103.266 58.6189 103.211 58.5165 103.098 58.4405C102.989 58.3649 102.737 58.2363 102.343 58.0556C102.014 57.9145 101.772 57.7832 101.617 57.6628C101.464 57.5424 101.352 57.4049 101.281 57.2506C101.212 57.0932 101.178 56.9008 101.178 56.6732C101.178 56.2828 101.324 55.9817 101.617 55.7697C101.912 55.555 102.325 55.4475 102.854 55.4475C103.384 55.4475 103.889 55.5628 104.37 55.7931L104.019 56.6572C103.772 56.5501 103.559 56.4702 103.381 56.4176C103.205 56.3627 103.028 56.3354 102.85 56.3354C102.507 56.3354 102.335 56.4309 102.335 56.6222C102.335 56.7293 102.391 56.8236 102.503 56.9046C102.615 56.9833 102.846 57.0948 103.198 57.2385C103.551 57.3827 103.806 57.5163 103.961 57.6395C104.264 57.8752 104.416 58.2102 104.416 58.645C104.416 59.0795 104.263 59.4149 103.957 59.6506C103.652 59.8836 103.211 60.0001 102.633 60.0001C102.055 60.0001 101.571 59.9152 101.182 59.7449V58.7549C101.4 58.8597 101.645 58.9474 101.915 59.0183C102.187 59.0888 102.426 59.1243 102.633 59.1243Z" fill="black"/>
<path d="M83.5776 24.568L73.7033 43.5171H64.78L79.1161 16.0134L83.5776 24.568Z" fill="#239C9C"/>
<path d="M104.026 43.5175H95.1168L84.4029 22.9667L79.9555 14.4121L78.8642 12.3332L72.4446 0L84.0674 6.50373L85.0185 7.03749L87.466 8.40004L94.4872 12.3332H87.7878L88.8647 14.4121L104.026 43.5175Z" fill="#239C9C"/>
<path d="M28.2254 13.1846V43.0392H19.834V31.396H8.39131V43.0392H0V13.1846H8.39131V24.4015H19.834V13.1846H28.2254Z" fill="#239C9C"/>
<path d="M49.1048 43.6364C45.9688 43.6364 43.1433 42.9682 40.6288 41.6318C38.1425 40.2954 36.1788 38.4473 34.7379 36.0874C33.3252 33.7274 32.6189 31.0689 32.6189 28.1119C32.6189 25.1548 33.3252 22.4963 34.7379 20.1364C36.1788 17.7764 38.1425 15.9283 40.6288 14.5919C43.1433 13.2556 45.9688 12.5874 49.1048 12.5874C52.2411 12.5874 55.0522 13.2556 57.5386 14.5919C60.0532 15.9283 62.0168 17.7764 63.4296 20.1364C64.8703 22.4963 65.5907 25.1548 65.5907 28.1119C65.5907 31.0689 64.8703 33.7274 63.4296 36.0874C62.0168 38.4473 60.0532 40.2954 57.5386 41.6318C55.0522 42.9682 52.2411 43.6364 49.1048 43.6364ZM49.1048 36.6418C50.6024 36.6418 51.9586 36.2864 53.1735 35.5756C54.3883 34.8647 55.349 33.8696 56.0554 32.5901C56.7618 31.2822 57.1147 29.7894 57.1147 28.1119C57.1147 26.4343 56.7618 24.9558 56.0554 23.6763C55.349 22.3684 54.3883 21.359 53.1735 20.6482C51.9586 19.9374 50.6024 19.582 49.1048 19.582C47.6075 19.582 46.2512 19.9374 45.0364 20.6482C43.8216 21.359 42.8609 22.3684 42.1545 23.6763C41.4481 24.9558 41.0951 26.4343 41.0951 28.1119C41.0951 29.7894 41.4481 31.2822 42.1545 32.5901C42.8609 33.8696 43.8216 34.8647 45.0364 35.5756C46.2512 36.2864 47.6075 36.6418 49.1048 36.6418Z" fill="#239C9C"/>
<path fill-rule="evenodd" clip-rule="evenodd" d="M65.0782 43.0247L64.8631 43.4354H65.0326L65.0782 43.0247ZM28.2616 13.1927V42.9585H19.8595V31.3499H8.4021V42.9585H0V13.1927H8.4021V24.3762H19.8595V13.1927H28.2616ZM40.6808 41.5555C43.1984 42.8876 46.0274 43.5538 49.1677 43.5538C52.3079 43.5538 55.1229 42.8876 57.6125 41.5555C60.1301 40.223 62.0961 38.3804 63.5108 36.0274C64.9535 33.6745 65.6751 31.0239 65.6751 28.0757C65.6751 25.1274 64.9535 22.4768 63.5108 20.1239C62.0961 17.771 60.1301 15.9283 57.6125 14.596C55.1229 13.2636 52.3079 12.5974 49.1677 12.5974C46.0274 12.5974 43.1984 13.2636 40.6808 14.596C38.1913 15.9283 36.2251 17.771 34.7824 20.1239C33.3678 22.4768 32.6606 25.1274 32.6606 28.0757C32.6606 31.0239 33.3678 33.6745 34.7824 36.0274C36.2251 38.3804 38.1913 40.223 40.6808 41.5555ZM53.2414 35.5171C52.0251 36.2258 50.6673 36.5802 49.1677 36.5802C47.6684 36.5802 46.3106 36.2258 45.0939 35.5171C43.8775 34.8084 42.9156 33.8162 42.2084 32.5406C41.5013 31.2365 41.1475 29.7482 41.1475 28.0757C41.1475 26.4031 41.5013 24.929 42.2084 23.6533C42.9156 22.3493 43.8775 21.3429 45.0939 20.6342C46.3106 19.9255 47.6684 19.5711 49.1677 19.5711C50.6673 19.5711 52.0251 19.9255 53.2414 20.6342C54.4578 21.3429 55.4197 22.3493 56.1273 23.6533C56.8344 24.929 57.1878 26.4031 57.1878 28.0757C57.1878 29.7482 56.8344 31.2365 56.1273 32.5406C55.4197 33.8162 54.4578 34.8084 53.2414 35.5171Z" fill="black"/>
</g>
<defs>
<clipPath id="clip0">
<rect width="104.416" height="60" fill="white"/>
</clipPath>
</defs>
</svg>
