<svg width="61" height="56" viewBox="0 0 61 56" fill="none" xmlns="http://www.w3.org/2000/svg">
<path d="M54.9848 0.74292H6.13195C3.13293 0.74292 0.703857 2.9595 0.703857 5.69617V50.2755C0.703857 53.0121 3.13293 55.2287 6.13195 55.2287H54.9848C57.9838 55.2287 60.4129 53.0121 60.4129 50.2755V5.69617C60.4129 2.9595 57.9838 0.74292 54.9848 0.74292ZM19.5773 45.3222H11.5709V21.8141H19.5773V45.3222ZM15.4927 18.4533C12.9116 18.4533 10.8245 16.5438 10.8245 14.1935C10.8245 11.8432 12.9144 9.93616 15.4927 9.93616C18.0656 9.93616 20.1581 11.8456 20.1581 14.1935C20.1581 16.5438 18.0656 18.4533 15.4927 18.4533ZM49.5675 45.3222H41.5665V33.8901C41.5665 31.1633 41.5123 27.6564 37.4059 27.6564C33.2398 27.6564 32.5993 30.6259 32.5993 33.692V45.3222H24.5983V21.8141H32.2791V25.0262H32.3876C33.457 23.1787 36.0679 21.2296 39.9625 21.2296C48.0694 21.2296 49.5675 26.0986 49.5675 32.4289V45.3222Z" fill="#2180B5"/>
</svg>
