<svg width="54" height="54" viewBox="0 0 54 54" fill="none" xmlns="http://www.w3.org/2000/svg">
<path d="M35.6084 4.51136C31.7217 4.3577 27.7853 5.76313 24.8175 8.73083C21.1136 12.4345 20.6308 16.867 22.3194 21.0742L6.69704 36.6958C3.76765 39.625 3.76765 44.3738 6.69704 47.3031C9.62644 50.2323 14.3754 50.2323 17.3048 47.3031L32.9272 31.6815C37.1346 33.37 41.5673 32.8872 45.2712 29.1835C49.2283 25.2266 50.4035 19.5502 48.8169 14.5619L40.1321 23.2462L32.6305 21.3709L30.7551 13.8696L39.4398 5.1853C38.1927 4.78867 36.904 4.56258 35.6084 4.51136ZM12.0009 38.2488C14.0733 38.2488 15.7518 39.9272 15.7518 41.9994C15.7518 44.0717 14.0733 45.7501 12.0009 45.7501C9.92861 45.7501 8.25012 44.0717 8.25012 41.9994C8.25012 39.9272 9.92861 38.2488 12.0009 38.2488Z" fill="black"/>
</svg>
