<svg width="124" height="72" viewBox="0 0 124 72" fill="none" xmlns="http://www.w3.org/2000/svg">
<path d="M5 72H3.71034V68.979H1.29382V72H0V65H1.29382V67.7437H3.71034V65H5V72Z" fill="white"/>
<path d="M11.5554 66C12.0289 66 12.4517 66.1207 12.8238 66.3625C13.199 66.6008 13.488 66.9458 13.691 67.3977C13.897 67.8465 14 68.3605 14 68.9407C14 68.9576 14 68.9751 14 68.992C14 69.9343 13.7786 70.6711 13.3358 71.2026C12.893 71.734 12.2765 72 11.4862 72C11.4739 72 11.46 72 11.4446 72C10.9711 72 10.5467 71.8793 10.1716 71.6375C9.79954 71.3926 9.51045 71.0439 9.30443 70.592C9.10148 70.1397 9 69.6236 9 69.0439C9 69.027 9 69.0095 9 68.992C9 68.0467 9.2199 67.3135 9.65961 66.7923C10.0994 66.2639 10.7174 66 11.5138 66C11.5262 66 11.54 66 11.5554 66ZM12.3072 67.6981C12.1381 67.4151 11.8675 67.2734 11.4954 67.2734C11.1233 67.2734 10.8527 67.4131 10.6836 67.6929C10.5176 67.9723 10.4345 68.4056 10.4345 68.992C10.4345 69.5754 10.5191 70.0123 10.6882 70.3019C10.8604 70.5884 11.131 70.7317 11.5 70.7317C11.8721 70.7317 12.1412 70.5884 12.3072 70.3019C12.4763 70.0154 12.5609 69.5805 12.5609 68.9972C12.5609 68.4108 12.4763 67.9774 12.3072 67.6981Z" fill="white"/>
<path d="M22 71.8944H21.093L20.9341 71.1408H20.8721C20.7455 71.4148 20.5659 71.6276 20.3333 71.7788C20.1008 71.9263 19.8359 72 19.5388 72C19.0323 72 18.6486 71.8154 18.3876 71.4462C18.1292 71.0775 18 70.543 18 69.8433V66H19.1822V69.4427C19.1822 69.8715 19.2377 70.1916 19.3488 70.4023C19.4625 70.6131 19.6395 70.7187 19.8798 70.7187C20.2106 70.7187 20.4496 70.5692 20.5969 70.2705C20.7442 69.9719 20.8178 69.4725 20.8178 68.7733V66H22V71.8944Z" fill="white"/>
<path d="M27.7972 70.8457C28.3192 70.8457 28.5802 70.6798 28.5802 70.3486C28.5802 70.1797 28.511 70.0447 28.3726 69.9445C28.2374 69.8449 27.9261 69.6755 27.4387 69.4372C27.033 69.2508 26.7343 69.0783 26.5425 68.9196C26.3538 68.761 26.2154 68.5797 26.1274 68.3764C26.0425 68.1689 26 67.9153 26 67.6154C26 67.1009 26.1808 66.704 26.5425 66.4246C26.9072 66.1417 27.4167 66 28.0708 66C28.7248 66 29.349 66.152 29.9434 66.4555L29.5094 67.5943C29.2044 67.4531 28.9418 67.3479 28.7217 67.2786C28.5047 67.2062 28.2862 67.1702 28.066 67.1702C27.6415 67.1702 27.4292 67.296 27.4292 67.5481C27.4292 67.6893 27.4984 67.8136 27.6368 67.9204C27.7752 68.0241 28.0613 68.171 28.4953 68.3605C28.9324 68.5504 29.2469 68.7266 29.4387 68.8888C29.8129 69.1995 30 69.6411 30 70.2141C30 70.7867 29.8113 71.2288 29.4339 71.5394C29.0566 71.8465 28.511 72 27.7972 72C27.0833 72 26.4859 71.8881 26.0047 71.6637V70.3589C26.2751 70.497 26.577 70.6126 26.9104 70.706C27.2469 70.799 27.5424 70.8457 27.7972 70.8457Z" fill="white"/>
<path d="M37.6942 71.5913C37.1958 71.8639 36.5599 72 35.7864 72C34.9126 72 34.2298 71.7427 33.7379 71.2288C33.2459 70.7142 33 69.9795 33 69.0234C33 68.0673 33.2265 67.3268 33.6796 66.8026C34.1327 66.2675 34.7524 66 35.5388 66C36.3253 66 36.9304 66.2331 37.3544 66.6988C37.7848 67.1615 38 67.8049 38 68.63V69.3961H34.5C34.5162 69.848 34.6408 70.2003 34.8738 70.4524C35.1101 70.7004 35.4369 70.8246 35.8544 70.8246C36.4693 70.8246 37.0825 70.6732 37.6942 70.3692V71.5913ZM36.6117 68.3451C36.6052 67.9584 36.5097 67.6585 36.3253 67.4444C36.144 67.2303 35.8964 67.1235 35.5825 67.1235C35.2686 67.1235 35.021 67.2288 34.8398 67.4393C34.6618 67.6498 34.5599 67.9517 34.534 68.3451H36.6117Z" fill="white"/>
<path d="M48.5553 66C49.0288 66 49.4519 66.1207 49.8238 66.3625C50.1989 66.6008 50.4879 66.9458 50.6908 67.3977C50.8969 67.8465 51 68.3605 51 68.9407C51 68.9576 51 68.9751 51 68.992C51 69.9343 50.7788 70.6711 50.3359 71.2026C49.893 71.734 49.2764 72 48.4861 72C48.4739 72 48.4602 72 48.4447 72C47.9712 72 47.5466 71.8793 47.1715 71.6375C46.7997 71.3926 46.5107 71.0439 46.3044 70.592C46.1015 70.1397 46 69.6236 46 69.0439C46 69.027 46 69.0095 46 68.992C46 68.0467 46.2199 67.3135 46.6594 66.7923C47.0995 66.2639 47.7175 66 48.5139 66C48.5261 66 48.5398 66 48.5553 66ZM49.307 67.6981C49.138 67.4151 48.8674 67.2734 48.4955 67.2734C48.1232 67.2734 47.8526 67.4131 47.6836 67.6929C47.5175 67.9723 47.4346 68.4056 47.4346 68.992C47.4346 69.5754 47.5189 70.0123 47.6883 70.3019C47.8606 70.5884 48.1312 70.7317 48.5002 70.7317C48.8721 70.7317 49.1413 70.5884 49.307 70.3019C49.4764 70.0154 49.5607 69.5805 49.5607 68.9972C49.5607 68.4108 49.4764 67.9774 49.307 67.6981Z" fill="white"/>
<path d="M54.796 65.8737C54.796 65.2204 54.9445 64.7454 55.2414 64.4492C55.5384 64.1499 56.0143 64 56.6681 64C57.1643 64 57.6083 64.08 58 64.24L57.63 65.3835C57.3365 65.2847 57.0787 65.2356 56.8577 65.2356C56.6367 65.2356 56.4785 65.2984 56.3837 65.4245C56.289 65.5506 56.2416 65.7207 56.2416 65.9349V66.2924H57.4927V67.4617H56.2416V72H54.796V67.4617H54V66.7112L54.796 66.2924V65.8737Z" fill="white"/>
<path d="M71 72H69.5818L69.1272 70.3408H66.868L66.4182 72H65L67.1908 65H68.8001L71 72ZM68.8174 69.1012L68.1124 66.5499C68.0587 66.3399 68.0219 66.1843 68.0019 66.0826C67.9084 66.4861 67.641 67.4926 67.1995 69.1012H68.8174Z" fill="white"/>
<path d="M76.3303 72C74.7768 72 74 71.011 74 69.0336C74 68.0534 74.2109 67.3027 74.6337 66.7815C75.0565 66.2608 75.662 66 76.451 66C77.0314 66 77.5476 66.1309 78 66.3933L77.6027 67.6154C77.1207 67.3874 76.7367 67.2734 76.451 67.2734C75.7426 67.2734 75.3882 67.848 75.3882 68.9972C75.3882 70.1469 75.7426 70.7214 76.451 70.7214C76.9508 70.7214 77.4169 70.554 77.8483 70.2193V71.5702C77.6159 71.7427 77.3927 71.8552 77.1786 71.9071C76.9554 71.9692 76.6724 72 76.3303 72Z" fill="white"/>
<path d="M83.3305 72C81.7767 72 81 71.011 81 69.0336C81 68.0534 81.2114 67.3027 81.6341 66.7815C82.0564 66.2608 82.6622 66 83.4507 66C84.0311 66 84.5477 66.1309 85 66.3933L84.6028 67.6154C84.1204 67.3874 83.7364 67.2734 83.4507 67.2734C82.7424 67.2734 82.3885 67.848 82.3885 68.9972C82.3885 70.1469 82.7424 70.7214 83.4507 70.7214C83.9509 70.7214 84.4165 70.554 84.8483 70.2193V71.5702C84.616 71.7427 84.3928 71.8552 84.1787 71.9071C83.9555 71.9692 83.6726 72 83.3305 72Z" fill="white"/>
<path d="M90.5553 66C91.0288 66 91.4515 66.1207 91.8238 66.3625C92.1989 66.6008 92.4879 66.9458 92.6908 67.3977C92.8969 67.8465 93 68.3605 93 68.9407C93 68.9576 93 68.9751 93 68.992C93 69.9343 92.7783 70.6711 92.3359 71.2026C91.893 71.734 91.2764 72 90.4861 72C90.4739 72 90.4598 72 90.4447 72C89.9712 72 89.5466 71.8793 89.1715 71.6375C88.7992 71.3926 88.5102 71.0439 88.3045 70.592C88.1012 70.1397 88 69.6236 88 69.0439C88 69.027 88 69.0095 88 68.992C88 68.0467 88.2198 67.3135 88.6594 66.7923C89.099 66.2639 89.7175 66 90.5139 66C90.5261 66 90.5398 66 90.5553 66ZM91.307 67.6981C91.138 67.4151 90.8674 67.2734 90.4951 67.2734C90.1232 67.2734 89.8526 67.4131 89.6836 67.6929C89.5175 67.9723 89.4346 68.4056 89.4346 68.992C89.4346 69.5754 89.5189 70.0123 89.6883 70.3019C89.8601 70.5884 90.1308 70.7317 90.4998 70.7317C90.8721 70.7317 91.1408 70.5884 91.307 70.3019C91.4764 70.0154 91.5607 69.5805 91.5607 68.9972C91.5607 68.4108 91.4764 67.9774 91.307 67.6981Z" fill="white"/>
<path d="M101 71.8944H100.093L99.934 71.1408H99.8723C99.7454 71.4148 99.5658 71.6276 99.3332 71.7788C99.1007 71.9263 98.8361 72 98.5386 72C98.0323 72 97.6487 71.8154 97.3876 71.4462C97.1293 71.0775 97 70.543 97 69.8433V66H98.1822V69.4427C98.1822 69.8715 98.2376 70.1916 98.3488 70.4023C98.4627 70.6131 98.6395 70.7187 98.88 70.7187C99.2106 70.7187 99.4495 70.5692 99.597 70.2705C99.7442 69.9719 99.8178 69.4725 99.8178 68.7733V66H101V71.8944Z" fill="white"/>
<path d="M108.077 66C108.703 66 109.18 66.186 109.506 66.5586C109.835 66.9269 110 67.4609 110 68.1601V72H108.522V68.5603C108.522 68.1318 108.451 67.8121 108.309 67.6015C108.17 67.3909 107.951 67.2854 107.65 67.2854C107.237 67.2854 106.938 67.4364 106.754 67.7384C106.57 68.0404 106.478 68.5373 106.478 69.2291V72H105V66.1108H106.129L106.327 66.8695H106.41C106.571 66.5847 106.796 66.3689 107.083 66.221C107.374 66.0737 107.705 66 108.077 66Z" fill="white"/>
<path d="M115.325 66.211H116.938V67.3761H115.325V70.1179C115.325 70.3314 115.385 70.4923 115.505 70.6008C115.629 70.7098 115.811 70.7638 116.052 70.7638C116.292 70.7638 116.608 70.7042 117 70.5857V71.7406C116.608 71.9137 116.113 72 115.516 72C114.921 72 114.478 71.8456 114.186 71.5373C113.897 71.225 113.753 70.7522 113.753 70.1179V67.3761H113V66.7196L113.866 66.2009L114.32 65H115.325V66.211Z" fill="white"/>
<path d="M121.797 70.8457C122.319 70.8457 122.58 70.6798 122.58 70.3486C122.58 70.1797 122.511 70.0447 122.373 69.9445C122.237 69.8449 121.926 69.6755 121.439 69.4372C121.033 69.2508 120.734 69.0783 120.542 68.9196C120.354 68.761 120.215 68.5797 120.127 68.3764C120.042 68.1689 120 67.9153 120 67.6154C120 67.1009 120.18 66.704 120.542 66.4246C120.907 66.1417 121.417 66 122.071 66C122.725 66 123.349 66.152 123.943 66.4555L123.51 67.5943C123.204 67.4531 122.942 67.3479 122.722 67.2786C122.504 67.2062 122.286 67.1702 122.066 67.1702C121.641 67.1702 121.429 67.296 121.429 67.5481C121.429 67.6893 121.498 67.8136 121.637 67.9204C121.775 68.0241 122.061 68.171 122.495 68.3605C122.932 68.5504 123.247 68.7266 123.439 68.8888C123.813 69.1995 124 69.6411 124 70.2141C124 70.7867 123.811 71.2288 123.434 71.5394C123.057 71.8465 122.511 72 121.797 72C121.083 72 120.486 71.8881 120.005 71.6637V70.3589C120.275 70.497 120.577 70.6126 120.91 70.706C121.247 70.799 121.542 70.8457 121.797 70.8457Z" fill="white"/>
<path d="M99 29.2641L87.4435 52H77L93.7785 19L99 29.2641Z" fill="white"/>
<path d="M124 52H113.28L100.389 27.4434L95.0374 17.2213L93.7243 14.7372L86 0L99.9851 7.77144L101.129 8.40925L104.074 10.0374L112.523 14.7372H104.462L105.757 17.2213L124 52Z" fill="white"/>
<path d="M34 16V51H23.8919V37.3501H10.1081V51H0V16H10.1081V29.1501H23.8919V16H34Z" fill="white"/>
<path d="M58.4999 52C54.7906 52 51.4486 51.2038 48.4743 49.6113C45.5334 48.0187 43.2108 45.8164 41.5064 43.0041C39.8355 40.1919 39 37.0238 39 33.5C39 29.9762 39.8355 26.8081 41.5064 23.9959C43.2108 21.1836 45.5334 18.9812 48.4743 17.3888C51.4486 15.7963 54.7906 15 58.4999 15C62.2097 15 65.5347 15.7963 68.4758 17.3888C71.4501 18.9812 73.7727 21.1836 75.4437 23.9959C77.1479 26.8081 78 29.9762 78 33.5C78 37.0238 77.1479 40.1919 75.4437 43.0041C73.7727 45.8164 71.4501 48.0187 68.4758 49.6113C65.5347 51.2038 62.2097 52 58.4999 52ZM58.4999 43.6648C60.2714 43.6648 61.8756 43.2413 63.3125 42.3943C64.7494 41.5472 65.8858 40.3613 66.7214 38.8365C67.5569 37.2779 67.9744 35.4991 67.9744 33.5C67.9744 31.5009 67.5569 29.739 66.7214 28.2143C65.8858 26.6557 64.7494 25.4528 63.3125 24.6057C61.8756 23.7587 60.2714 23.3352 58.4999 23.3352C56.7289 23.3352 55.1247 23.7587 53.6878 24.6057C52.2509 25.4528 51.1145 26.6557 50.279 28.2143C49.4435 29.739 49.0259 31.5009 49.0259 33.5C49.0259 35.4991 49.4435 37.2779 50.279 38.8365C51.1145 40.3613 52.2509 41.5472 53.6878 42.3943C55.1247 43.2413 56.7289 43.6648 58.4999 43.6648Z" fill="white"/>
<path d="M34 16V51H23.8919V37.3501H10.1081V51H0V16H10.1081V29.1501H23.8919V16H34Z" fill="white"/>
<path fill-rule="evenodd" clip-rule="evenodd" d="M48.4742 49.6116C51.4483 51.2037 54.7902 52 58.4998 52C62.2094 52 65.5347 51.2037 68.4756 49.6116C71.4498 48.019 73.7722 45.8165 75.4433 43.0042C77.1476 40.1919 78 37.0239 78 33.5001C78 29.9763 77.1476 26.8082 75.4433 23.9959C73.7722 21.1836 71.4498 18.9812 68.4756 17.3887C65.5347 15.7962 62.2094 15 58.4998 15C54.7902 15 51.4483 15.7962 48.4742 17.3887C45.5334 18.9812 43.2108 21.1836 41.5064 23.9959C39.8354 26.8082 39 29.9763 39 33.5001C39 37.0239 39.8354 40.1919 41.5064 43.0042C43.2108 45.8165 45.5334 48.019 48.4742 49.6116ZM63.3121 42.3944C61.8752 43.2414 60.2713 43.6649 58.4998 43.6649C56.7288 43.6649 55.1248 43.2414 53.6874 42.3944C52.2506 41.5473 51.1142 40.3614 50.2789 38.8366C49.4435 37.278 49.0256 35.4992 49.0256 33.5001C49.0256 31.501 49.4435 29.7391 50.2789 28.2143C51.1142 26.6557 52.2506 25.4529 53.6874 24.6058C55.1248 23.7587 56.7288 23.3352 58.4998 23.3352C60.2713 23.3352 61.8752 23.7587 63.3121 24.6058C64.749 25.4529 65.8854 26.6557 66.7212 28.2143C67.5565 29.7391 67.974 31.501 67.974 33.5001C67.974 35.4992 67.5565 37.278 66.7212 38.8366C65.8854 40.3614 64.749 41.5473 63.3121 42.3944Z" fill="white"/>
</svg>
