<svg width="176" height="27" viewBox="0 0 176 27" fill="none" xmlns="http://www.w3.org/2000/svg">
<path d="M76.9048 12H83.8849V10.4588H79.4503V10.3892L81.2053 8.6044C83.1839 6.70526 83.7308 5.78054 83.7308 4.6321C83.7308 2.92685 82.3438 1.67898 80.2955 1.67898C78.277 1.67898 76.8452 2.93182 76.8452 4.86577H78.6001C78.6001 3.8267 79.2564 3.17543 80.2706 3.17543C81.2401 3.17543 81.9609 3.76705 81.9609 4.72656C81.9609 5.5767 81.4439 6.18324 80.4396 7.20241L76.9048 10.6676V12ZM89.1636 12.1939C91.6196 12.1989 93.0862 10.2599 93.0862 6.91903C93.0862 3.59801 91.6097 1.67898 89.1636 1.67898C86.7176 1.67898 85.246 3.59304 85.2411 6.91903C85.2411 10.255 86.7077 12.1939 89.1636 12.1939ZM89.1636 10.6378C87.8959 10.6378 87.1004 9.36506 87.1054 6.91903C87.1104 4.4929 87.9009 3.2152 89.1636 3.2152C90.4314 3.2152 91.2219 4.4929 91.2268 6.91903C91.2268 9.36506 90.4364 10.6378 89.1636 10.6378ZM103.255 10.0909C103.26 11.2741 104.01 12.2834 105.407 12.2834C106.799 12.2834 107.565 11.2741 107.56 10.0909V9.55398C107.565 8.3608 106.819 7.36151 105.407 7.36151C104.03 7.36151 103.26 8.37074 103.255 9.55398V10.0909ZM98.0792 4.2642C98.0841 5.44744 98.8348 6.44673 100.237 6.44673C101.624 6.44673 102.39 5.45739 102.385 4.2642V3.72727C102.39 2.53409 101.644 1.5348 100.237 1.5348C98.8647 1.5348 98.0841 2.53409 98.0792 3.72727V4.2642ZM98.5266 12H99.7745L106.774 1.81818H105.527L98.5266 12ZM104.552 9.55398C104.557 9.02699 104.781 8.49503 105.407 8.49503C106.064 8.49503 106.257 9.02699 106.252 9.55398V10.0909C106.257 10.6179 106.044 11.1399 105.407 11.1399C104.771 11.1399 104.557 10.6129 104.552 10.0909V9.55398ZM99.3867 3.72727C99.3917 3.20526 99.6054 2.66832 100.237 2.66832C100.893 2.66832 101.082 3.20028 101.077 3.72727V4.2642C101.082 4.79119 100.873 5.31321 100.237 5.31321C99.6005 5.31321 99.3917 4.79119 99.3867 4.2642V3.72727ZM119.214 1.81818V8.31605C119.214 9.59375 118.324 10.5085 116.927 10.5085C115.525 10.5085 114.64 9.59375 114.64 8.31605V1.81818H112.795V8.47017C112.795 10.6577 114.436 12.1541 116.927 12.1541C119.407 12.1541 121.058 10.6577 121.058 8.47017V1.81818H119.214ZM122.783 14.8636H124.583V10.7969H124.658C124.941 11.3537 125.533 12.1342 126.845 12.1342C128.645 12.1342 129.992 10.7074 129.992 8.19176C129.992 5.64631 128.605 4.2642 126.84 4.2642C125.493 4.2642 124.931 5.07457 124.658 5.62642H124.553V4.36364H122.783V14.8636ZM124.548 8.18182C124.548 6.70028 125.185 5.74077 126.343 5.74077C127.541 5.74077 128.158 6.75994 128.158 8.18182C128.158 9.61364 127.531 10.6577 126.343 10.6577C125.195 10.6577 124.548 9.66335 124.548 8.18182ZM133.133 1.81818H131.333V12H133.133V1.81818ZM138.115 12.1491C140.352 12.1491 141.774 10.5732 141.774 8.21165C141.774 5.84517 140.352 4.2642 138.115 4.2642C135.877 4.2642 134.456 5.84517 134.456 8.21165C134.456 10.5732 135.877 12.1491 138.115 12.1491ZM138.125 10.7074C136.887 10.7074 136.28 9.60369 136.28 8.20668C136.28 6.80966 136.887 5.69105 138.125 5.69105C139.343 5.69105 139.949 6.80966 139.949 8.20668C139.949 9.60369 139.343 10.7074 138.125 10.7074ZM145.299 12.1541C146.497 12.1541 147.213 11.5923 147.541 10.951H147.601V12H149.331V6.8892C149.331 4.87074 147.685 4.2642 146.228 4.2642C144.623 4.2642 143.39 4.98011 142.992 6.37216L144.672 6.6108C144.851 6.08878 145.358 5.64134 146.238 5.64134C147.074 5.64134 147.531 6.06889 147.531 6.8196V6.84943C147.531 7.36648 146.989 7.39134 145.642 7.53551C144.16 7.6946 142.743 8.13707 142.743 9.85724C142.743 11.3587 143.842 12.1541 145.299 12.1541ZM145.766 10.8317C145.015 10.8317 144.478 10.4886 144.478 9.82741C144.478 9.13636 145.08 8.84801 145.885 8.73366C146.358 8.66903 147.302 8.54972 147.536 8.3608V9.26065C147.536 10.1108 146.85 10.8317 145.766 10.8317ZM153.774 12.1342C155.087 12.1342 155.678 11.3537 155.962 10.7969H156.071V12H157.841V1.81818H156.036V5.62642H155.962C155.688 5.07457 155.126 4.2642 153.779 4.2642C152.014 4.2642 150.627 5.64631 150.627 8.19176C150.627 10.7074 151.974 12.1342 153.774 12.1342ZM154.276 10.6577C153.088 10.6577 152.462 9.61364 152.462 8.18182C152.462 6.75994 153.078 5.74077 154.276 5.74077C155.435 5.74077 156.071 6.70028 156.071 8.18182C156.071 9.66335 155.425 10.6577 154.276 10.6577ZM162.939 12.1491C164.719 12.1491 165.942 11.2791 166.26 9.9517L164.58 9.76278C164.336 10.4091 163.74 10.7472 162.964 10.7472C161.801 10.7472 161.03 9.98153 161.015 8.67401H166.335V8.12216C166.335 5.44247 164.724 4.2642 162.845 4.2642C160.657 4.2642 159.231 5.87003 159.231 8.22656C159.231 10.6229 160.638 12.1491 162.939 12.1491ZM161.02 7.46094C161.075 6.48651 161.796 5.66619 162.87 5.66619C163.904 5.66619 164.6 6.42188 164.61 7.46094H161.02ZM170.491 12.1342C171.804 12.1342 172.395 11.3537 172.679 10.7969H172.788V12H174.558V1.81818H172.753V5.62642H172.679C172.405 5.07457 171.844 4.2642 170.496 4.2642C168.731 4.2642 167.344 5.64631 167.344 8.19176C167.344 10.7074 168.692 12.1342 170.491 12.1342ZM170.993 10.6577C169.805 10.6577 169.179 9.61364 169.179 8.18182C169.179 6.75994 169.795 5.74077 170.993 5.74077C172.152 5.74077 172.788 6.70028 172.788 8.18182C172.788 9.66335 172.142 10.6577 170.993 10.6577Z" fill="#FA9836"/>
<rect opacity="0.4" y="23" width="176" height="4" rx="2" fill="#FA9836"/>
<rect x="124" y="23" width="52" height="4" rx="2" fill="#FA9836"/>
</svg>
