<svg width="14" height="14" viewBox="0 0 14 14" fill="none" xmlns="http://www.w3.org/2000/svg">
<circle cx="7.00012" cy="7.00012" r="7.00012" fill="#EB5757"/>
<path d="M7.79504 3.06605C7.81471 2.61349 7.45313 2.23584 7.00014 2.23584C6.54714 2.23584 6.18555 2.6135 6.20523 3.06606L6.44139 8.49629C6.4544 8.79545 6.70072 9.03129 7.00017 9.03129C7.29961 9.03129 7.54593 8.79545 7.55894 8.49629L7.79504 3.06605ZM7.00017 11.7642C7.4572 11.7642 7.83113 11.3903 7.83113 10.9333C7.83113 10.4763 7.4572 10.1023 7.00017 10.1023C6.54314 10.1023 6.1692 10.4763 6.1692 10.9333C6.1692 11.3903 6.54314 11.7642 7.00017 11.7642Z" fill="white"/>
</svg>
