<svg width="120" height="114" viewBox="0 0 120 114" fill="none" xmlns="http://www.w3.org/2000/svg">
<path d="M1.73522 106V88.4073H8.33249C9.68402 88.4073 10.8179 88.6593 11.7342 89.1632C12.6562 89.6672 13.352 90.3601 13.8216 91.242C14.297 92.1182 14.5346 93.1147 14.5346 94.2314C14.5346 95.3596 14.297 96.3618 13.8216 97.238C13.3463 98.1142 12.6448 98.8043 11.717 99.3082C10.7893 99.8065 9.64679 100.056 8.28954 100.056H3.91713V97.4356H7.86003C8.65033 97.4356 9.29746 97.2981 9.80142 97.0232C10.3054 96.7484 10.6776 96.3704 10.9181 95.8893C11.1644 95.4083 11.2875 94.8556 11.2875 94.2314C11.2875 93.6072 11.1644 93.0574 10.9181 92.5821C10.6776 92.1068 10.3025 91.7374 9.79283 91.474C9.28887 91.2048 8.63888 91.0702 7.84285 91.0702H4.92218V106H1.73522ZM20.275 88.4073V106H17.1654V88.4073H20.275ZM27.2696 106.266C26.4335 106.266 25.6804 106.117 25.0104 105.82C24.3461 105.516 23.8192 105.069 23.4298 104.48C23.0461 103.89 22.8542 103.162 22.8542 102.298C22.8542 101.553 22.9917 100.938 23.2666 100.451C23.5414 99.964 23.9165 99.5745 24.3919 99.2825C24.8672 98.9904 25.4026 98.7699 25.9982 98.621C26.5996 98.4664 27.2209 98.3547 27.8623 98.286C28.6354 98.2058 29.2625 98.1342 29.7436 98.0712C30.2246 98.0025 30.5739 97.8994 30.7916 97.762C31.0149 97.6188 31.1266 97.3983 31.1266 97.1006V97.049C31.1266 96.4019 30.9347 95.9008 30.551 95.5457C30.1673 95.1907 29.6147 95.0131 28.8931 95.0131C28.1315 95.0131 27.5273 95.1792 27.0806 95.5114C26.6396 95.8435 26.3418 96.2358 26.1872 96.6882L23.2837 96.2759C23.5128 95.4741 23.8908 94.8041 24.4176 94.2658C24.9445 93.7217 25.5888 93.3151 26.3504 93.046C27.1121 92.7711 27.9539 92.6337 28.876 92.6337C29.5116 92.6337 30.1444 92.7081 30.7744 92.857C31.4043 93.0059 31.9799 93.2521 32.501 93.5958C33.0222 93.9336 33.4402 94.3946 33.7552 94.9788C34.0759 95.5629 34.2362 96.2931 34.2362 97.1693V106H31.2468V104.187H31.1438C30.9548 104.554 30.6885 104.898 30.3449 105.218C30.007 105.533 29.5803 105.788 29.0649 105.983C28.5553 106.172 27.9568 106.266 27.2696 106.266ZM28.0771 103.981C28.7013 103.981 29.2425 103.858 29.7006 103.612C30.1588 103.36 30.511 103.028 30.7572 102.615C31.0092 102.203 31.1352 101.754 31.1352 101.267V99.712C31.0378 99.7921 30.8717 99.8666 30.6369 99.9353C30.4079 100.004 30.1502 100.064 29.8638 100.116C29.5775 100.167 29.294 100.213 29.0134 100.253C28.7328 100.293 28.4894 100.328 28.2832 100.356C27.8194 100.419 27.4042 100.522 27.0377 100.665C26.6711 100.809 26.3819 101.009 26.17 101.267C25.9581 101.519 25.8522 101.845 25.8522 102.246C25.8522 102.819 26.0612 103.251 26.4793 103.543C26.8973 103.835 27.4299 103.981 28.0771 103.981ZM38.8234 110.948C38.3996 110.948 38.0073 110.914 37.6465 110.845C37.2915 110.782 37.008 110.707 36.7961 110.622L37.5177 108.199C37.9701 108.331 38.3738 108.394 38.7289 108.388C39.084 108.382 39.3961 108.271 39.6652 108.053C39.9401 107.841 40.1721 107.486 40.361 106.988L40.6273 106.275L35.8426 92.8055H39.1412L42.1822 102.77H42.3196L45.3691 92.8055H48.6764L43.3934 107.598C43.1471 108.296 42.8207 108.895 42.4141 109.393C42.0075 109.897 41.5093 110.281 40.9194 110.544C40.3353 110.813 39.6366 110.948 38.8234 110.948ZM68.6142 92.8055L63.9154 106H60.4793L55.7805 92.8055H59.0963L62.1286 102.607H62.2661L65.307 92.8055H68.6142ZM70.7661 106V92.8055H73.8757V106H70.7661ZM72.3295 90.9328C71.837 90.9328 71.4132 90.7696 71.0581 90.4431C70.7031 90.111 70.5255 89.713 70.5255 89.2491C70.5255 88.7795 70.7031 88.3815 71.0581 88.0551C71.4132 87.7229 71.837 87.5568 72.3295 87.5568C72.8277 87.5568 73.2515 87.7229 73.6008 88.0551C73.9559 88.3815 74.1334 88.7795 74.1334 89.2491C74.1334 89.713 73.9559 90.111 73.6008 90.4431C73.2515 90.7696 72.8277 90.9328 72.3295 90.9328ZM81.9698 106.232C80.9333 106.232 80.0055 105.966 79.1866 105.433C78.3677 104.9 77.7205 104.127 77.2452 103.114C76.7699 102.1 76.5322 100.869 76.5322 99.4199C76.5322 97.9538 76.7728 96.7169 77.2538 95.7089C77.7406 94.6953 78.3963 93.9308 79.221 93.4154C80.0456 92.8942 80.9648 92.6337 81.9784 92.6337C82.7515 92.6337 83.3872 92.7654 83.8854 93.0288C84.3837 93.2865 84.7788 93.5986 85.0709 93.9651C85.363 94.3259 85.5892 94.6667 85.7495 94.9874H85.8784V88.4073H88.9966V106H85.9385V103.921H85.7495C85.5892 104.242 85.3572 104.583 85.0537 104.943C84.7502 105.298 84.3493 105.602 83.8511 105.854C83.3529 106.106 82.7258 106.232 81.9698 106.232ZM82.8374 103.681C83.496 103.681 84.0572 103.503 84.5211 103.148C84.985 102.787 85.3372 102.286 85.5777 101.645C85.8182 101.003 85.9385 100.256 85.9385 99.4027C85.9385 98.5494 85.8182 97.8078 85.5777 97.1779C85.3429 96.5479 84.9936 96.0583 84.5297 95.7089C84.0716 95.3596 83.5075 95.1849 82.8374 95.1849C82.1445 95.1849 81.5661 95.3653 81.1022 95.7261C80.6383 96.0869 80.289 96.5851 80.0542 97.2208C79.8194 97.8565 79.702 98.5838 79.702 99.4027C79.702 100.227 79.8194 100.963 80.0542 101.61C80.2947 102.252 80.6469 102.759 81.1108 103.131C81.5804 103.497 82.156 103.681 82.8374 103.681ZM98.1516 106.258C96.8287 106.258 95.6862 105.983 94.7241 105.433C93.7677 104.878 93.0319 104.093 92.5164 103.079C92.001 102.06 91.7433 100.86 91.7433 99.48C91.7433 98.1228 92.001 96.9316 92.5164 95.9065C93.0376 94.8757 93.7649 94.0739 94.6984 93.5013C95.6318 92.9229 96.7285 92.6337 97.9884 92.6337C98.8016 92.6337 99.569 92.7654 100.291 93.0288C101.018 93.2865 101.659 93.6874 102.215 94.2314C102.776 94.7755 103.217 95.4684 103.538 96.3103C103.858 97.1464 104.019 98.1428 104.019 99.2996V100.253H93.2037V98.1571H101.038C101.032 97.5616 100.903 97.0318 100.651 96.568C100.399 96.0984 100.047 95.729 99.5948 95.4598C99.1481 95.1907 98.6269 95.0561 98.0314 95.0561C97.3957 95.0561 96.8373 95.2107 96.3563 95.52C95.8752 95.8235 95.5001 96.2244 95.2309 96.7226C94.9675 97.2151 94.8329 97.7563 94.8272 98.3461V100.176C94.8272 100.943 94.9675 101.602 95.2481 102.152C95.5287 102.696 95.921 103.114 96.425 103.406C96.9289 103.692 97.5188 103.835 98.1946 103.835C98.647 103.835 99.0564 103.772 99.423 103.646C99.7895 103.515 100.107 103.323 100.376 103.071C100.646 102.819 100.849 102.507 100.986 102.134L103.89 102.461C103.707 103.228 103.357 103.898 102.842 104.471C102.332 105.038 101.679 105.479 100.883 105.794C100.087 106.103 99.1767 106.258 98.1516 106.258ZM112.405 106.258C111.116 106.258 110 105.974 109.055 105.407C108.11 104.84 107.377 104.047 106.856 103.028C106.34 102.008 106.083 100.817 106.083 99.4543C106.083 98.0913 106.34 96.8973 106.856 95.8722C107.377 94.8471 108.11 94.051 109.055 93.4841C110 92.9171 111.116 92.6337 112.405 92.6337C113.693 92.6337 114.81 92.9171 115.755 93.4841C116.7 94.051 117.43 94.8471 117.946 95.8722C118.467 96.8973 118.727 98.0913 118.727 99.4543C118.727 100.817 118.467 102.008 117.946 103.028C117.43 104.047 116.7 104.84 115.755 105.407C114.81 105.974 113.693 106.258 112.405 106.258ZM112.422 103.767C113.121 103.767 113.705 103.575 114.174 103.191C114.644 102.802 114.993 102.28 115.222 101.628C115.457 100.975 115.575 100.247 115.575 99.4457C115.575 98.6382 115.457 97.908 115.222 97.2552C114.993 96.5966 114.644 96.0726 114.174 95.6832C113.705 95.2937 113.121 95.099 112.422 95.099C111.706 95.099 111.111 95.2937 110.635 95.6832C110.166 96.0726 109.814 96.5966 109.579 97.2552C109.35 97.908 109.235 98.6382 109.235 99.4457C109.235 100.247 109.35 100.975 109.579 101.628C109.814 102.28 110.166 102.802 110.635 103.191C111.111 103.575 111.706 103.767 112.422 103.767Z" fill="white"/>
<circle cx="60" cy="32" r="32" fill="#FBA43F"/>
<path d="M76.9011 30.2568C78.2604 31.0215 78.2604 32.9785 76.9011 33.7432L50.9805 48.3235C49.6473 49.0734 48 48.11 48 46.5803L48 17.4197C48 15.89 49.6473 14.9266 50.9805 15.6765L76.9011 30.2568Z" fill="white"/>
</svg>
