<svg width="10" height="10" viewBox="0 0 10 10" fill="none" xmlns="http://www.w3.org/2000/svg">
<path d="M8.98151 8.98152L8.67847 8.67847L8.98152 8.98151C9.33949 8.62353 9.3395 8.04313 8.98151 7.68515L6.29636 5L8.98151 2.31485C9.33949 1.95687 9.33949 1.37647 8.98151 1.01849C8.62353 0.660505 8.04313 0.660505 7.68515 1.01849L5 3.70364L2.31485 1.01849C1.95687 0.660505 1.37647 0.660505 1.01849 1.01849C0.660506 1.37647 0.660506 1.95687 1.01849 2.31485L3.70364 5L1.01849 7.68515C0.660504 8.04313 0.660506 8.62353 1.01848 8.98151L1.37204 8.62796L1.01849 8.98151C1.37647 9.33949 1.95687 9.33949 2.31485 8.98151L1.96129 8.62796L2.31485 8.98151L5 6.29636L7.68515 8.98151L8.0387 8.62796L7.68515 8.98152C8.04313 9.33949 8.62353 9.33949 8.98151 8.98152Z" fill="white" stroke="white" stroke-linecap="round" stroke-linejoin="round"/>
</svg>
