<svg width="18" height="20" viewBox="0 0 18 20" fill="none" xmlns="http://www.w3.org/2000/svg">
<path fill-rule="evenodd" clip-rule="evenodd" d="M3 0H15C16.6569 0 18 1.34314 18 3V17C18 18.6569 16.6569 20 15 20H3C1.34315 20 0 18.6569 0 17V3C0 1.34315 1.34315 0 3 0ZM3 2C2.44772 2 2 2.44772 2 3V17C2 17.5523 2.44772 18 3 18H15C15.5523 18 16 17.5523 16 17V3C16 2.44772 15.5523 2 15 2H3ZM3 5C3 3.89543 3.89543 3 5 3H13C14.1046 3 15 3.89543 15 5V7C15 8.10457 14.1046 9 13 9H5C3.89543 9 3 8.10457 3 7V5ZM7 5H5V7H7H11H13V5H11H7ZM4.5 10C3.67157 10 3 10.6716 3 11.5C3 12.3284 3.67157 13 4.5 13C5.32843 13 6 12.3284 6 11.5C6 10.6716 5.32843 10 4.5 10ZM7.5 11.5C7.5 10.6716 8.17157 10 9 10C9.82843 10 10.5 10.6716 10.5 11.5C10.5 12.3284 9.82843 13 9 13C8.17157 13 7.5 12.3284 7.5 11.5ZM13.5 10C12.6716 10 12 10.6716 12 11.5V15.5C12 16.3284 12.6716 17 13.5 17C14.3284 17 15 16.3284 15 15.5V11.5C15 10.6716 14.3284 10 13.5 10ZM3 15.5C3 14.6716 3.67157 14 4.5 14C5.32843 14 6 14.6716 6 15.5C6 16.3284 5.32843 17 4.5 17C3.67157 17 3 16.3284 3 15.5ZM9 14C8.17157 14 7.5 14.6716 7.5 15.5C7.5 16.3284 8.17157 17 9 17C9.82843 17 10.5 16.3284 10.5 15.5C10.5 14.6716 9.82843 14 9 14Z" fill="#F2994A"/>
</svg>
