<svg width="87" height="87" viewBox="0 0 87 87" fill="none" xmlns="http://www.w3.org/2000/svg">
<circle cx="43.5" cy="43.5" r="43.5" fill="#01655E"/>
<g opacity="0.5">
<path d="M43 39.7644C40.6568 39.7644 38.7572 41.6607 38.7572 44C38.7572 46.3393 40.6568 48.2356 43 48.2356C45.3432 48.2356 47.2428 46.3393 47.2428 44C47.2428 41.6607 45.3432 39.7644 43 39.7644Z" fill="white"/>
<path fill-rule="evenodd" clip-rule="evenodd" d="M36.1718 32.3767C40.6732 31.8744 45.3268 31.8744 49.8282 32.3767C52.3065 32.6532 54.3055 34.6026 54.5963 37.0854C55.1346 41.6795 55.1346 46.3205 54.5963 50.9146C54.3055 53.3974 52.3065 55.3468 49.8282 55.6233C45.3268 56.1256 40.6732 56.1256 36.1718 55.6233C33.6935 55.3468 31.6945 53.3974 31.4037 50.9146C30.8654 46.3205 30.8654 41.6795 31.4037 37.0854C31.6945 34.6026 33.6935 32.6532 36.1718 32.3767ZM49.5273 36.1803C48.8063 36.1803 48.2219 36.7638 48.2219 37.4836C48.2219 38.2034 48.8063 38.7869 49.5273 38.7869C50.2483 38.7869 50.8328 38.2034 50.8328 37.4836C50.8328 36.7638 50.2483 36.1803 49.5273 36.1803ZM36.799 44C36.799 40.581 39.5753 37.8094 43 37.8094C46.4247 37.8094 49.201 40.581 49.201 44C49.201 47.419 46.4247 50.1906 43 50.1906C39.5753 50.1906 36.799 47.419 36.799 44Z" fill="white"/>
<path d="M53 37C53 38.6569 51.6569 40 50 40C48.3431 40 47 38.6569 47 37C47 35.3431 48.3431 34 50 34C51.6569 34 53 35.3431 53 37Z" fill="white"/>
</g>
</svg>
