<svg width="19" height="15" viewBox="0 0 19 15" fill="none" xmlns="http://www.w3.org/2000/svg">
<path d="M3.87675 2.95483C3.66404 2.84459 3.40678 2.8501 3.19937 2.96933C2.99196 3.08856 2.86496 3.30395 2.86496 3.53646V11.9039C2.86496 12.2688 3.17226 12.5645 3.55134 12.5645C3.93042 12.5645 4.23772 12.2688 4.23772 11.9039V4.64243L9.17458 7.20084C9.37773 7.30612 9.62225 7.30612 9.82541 7.20084L14.7623 4.64243V11.9039C14.7623 12.2688 15.0696 12.5645 15.4486 12.5645C15.8277 12.5645 16.135 12.2688 16.135 11.9039V3.53646C16.135 3.30395 16.008 3.08856 15.8006 2.96933C15.5932 2.8501 15.3359 2.84459 15.1232 2.95483L9.49999 5.86894L3.87675 2.95483Z" fill="#828282"/>
<path fill-rule="evenodd" clip-rule="evenodd" d="M14.3601 0.208695C11.1265 -0.0695651 7.87351 -0.0695651 4.63988 0.208695L3.25124 0.32819C1.76168 0.456369 0.558158 1.55156 0.341818 2.97572C-0.113939 5.97596 -0.113939 9.02404 0.341818 12.0243C0.558158 13.4484 1.76168 14.5436 3.25124 14.6718L4.63988 14.7913C7.87351 15.0696 11.1265 15.0696 14.3601 14.7913L15.7488 14.6718C17.2383 14.5436 18.4418 13.4484 18.6582 12.0243C19.1139 9.02404 19.1139 5.97596 18.6582 2.97572C18.4418 1.55156 17.2383 0.456369 15.7488 0.32819L14.3601 0.208695ZM4.76213 1.52463C7.91442 1.25337 11.0856 1.25337 14.2379 1.52463L15.6265 1.64412C16.4832 1.71784 17.1754 2.34774 17.2999 3.16684C17.7364 6.04034 17.7364 8.95966 17.2999 11.8332C17.1754 12.6523 16.4832 13.2822 15.6265 13.3559L14.2379 13.4754C11.0856 13.7466 7.91442 13.7466 4.76213 13.4754L3.37349 13.3559C2.51678 13.2822 1.82457 12.6523 1.70014 11.8332C1.26364 8.95966 1.26364 6.04034 1.70014 3.16685C1.82457 2.34774 2.51678 1.71784 3.37349 1.64412L4.76213 1.52463Z" fill="#828282"/>
</svg>
