<svg width="14" height="10" viewBox="0 0 14 10" fill="none" xmlns="http://www.w3.org/2000/svg">
<path d="M7 3.26923C6.08437 3.26923 5.34211 4.04412 5.34211 5C5.34211 5.95588 6.08437 6.73077 7 6.73077C7.91563 6.73077 8.6579 5.95588 8.6579 5C8.6579 4.04412 7.91563 3.26923 7 3.26923Z" fill="black"/>
<path fill-rule="evenodd" clip-rule="evenodd" d="M7 0C5.07112 0 3.33643 0.808759 2.08645 1.81027C1.46065 2.31168 0.947163 2.86856 0.586888 3.41052C0.233476 3.94216 0 4.50118 0 5C0 5.49882 0.233476 6.05784 0.586888 6.58948C0.947163 7.13144 1.46065 7.68832 2.08645 8.18973C3.33643 9.19124 5.07112 10 7 10C8.92888 10 10.6636 9.19124 11.9135 8.18973C12.5393 7.68832 13.0528 7.13144 13.4131 6.58948C13.7665 6.05784 14 5.49882 14 5C14 4.50118 13.7665 3.94216 13.4131 3.41052C13.0528 2.86856 12.5393 2.31168 11.9135 1.81027C10.6636 0.808759 8.92888 0 7 0ZM4.23684 5C4.23684 3.40687 5.47395 2.11538 7 2.11538C8.52605 2.11538 9.76316 3.40687 9.76316 5C9.76316 6.59313 8.52605 7.88462 7 7.88462C5.47395 7.88462 4.23684 6.59313 4.23684 5Z" fill="black"/>
</svg>
