<svg width="61" height="27" viewBox="0 0 61 27" fill="none" xmlns="http://www.w3.org/2000/svg">
<path d="M48.9504 15.2006L43.1679 26.9253H37.9424L46.3378 9.90747L48.9504 15.2006Z" fill="#239C9C"/>
<path d="M60.9193 26.9264H55.7019L49.4277 14.2106L46.8233 8.91749L46.1842 7.63116L42.4248 0L49.2313 4.02418L49.7882 4.35444L51.2215 5.19752L55.3332 7.63116H51.41L52.0406 8.91749L60.9193 26.9264Z" fill="#239C9C"/>
<path d="M16.5291 8.15735V26.6299H11.6151V19.4256H4.91405V26.6299H0V8.15735H4.91405V15.0978H11.6151V8.15735H16.5291Z" fill="#239C9C"/>
<path d="M28.7573 26.9997C26.9209 26.9997 25.2663 26.5863 23.7937 25.7594C22.3377 24.9325 21.1878 23.789 20.3439 22.3288C19.5167 20.8686 19.103 19.2236 19.103 17.394C19.103 15.5643 19.5167 13.9193 20.3439 12.4591C21.1878 10.9989 22.3377 9.85537 23.7937 9.02852C25.2663 8.20165 26.9209 7.78821 28.7573 7.78821C30.594 7.78821 32.2402 8.20165 33.6963 9.02852C35.1689 9.85537 36.3188 10.9989 37.1461 12.4591C37.9899 13.9193 38.4117 15.5643 38.4117 17.394C38.4117 19.2236 37.9899 20.8686 37.1461 22.3288C36.3188 23.789 35.1689 24.9325 33.6963 25.7594C32.2402 26.5863 30.594 26.9997 28.7573 26.9997ZM28.7573 22.6719C29.6344 22.6719 30.4286 22.4519 31.14 22.0121C31.8514 21.5723 32.4141 20.9566 32.8277 20.1649C33.2414 19.3556 33.4481 18.432 33.4481 17.394C33.4481 16.356 33.2414 15.4412 32.8277 14.6495C32.4141 13.8402 31.8514 13.2156 31.14 12.7758C30.4286 12.336 29.6344 12.1161 28.7573 12.1161C27.8805 12.1161 27.0863 12.336 26.3749 12.7758C25.6635 13.2156 25.1008 13.8402 24.6872 14.6495C24.2735 15.4412 24.0668 16.356 24.0668 17.394C24.0668 18.432 24.2735 19.3556 24.6872 20.1649C25.1008 20.9566 25.6635 21.5723 26.3749 22.0121C27.0863 22.4519 27.8805 22.6719 28.7573 22.6719Z" fill="#239C9C"/>
<path fill-rule="evenodd" clip-rule="evenodd" d="M38.1105 26.6217L37.9846 26.8757H38.0839L38.1105 26.6217ZM16.5503 8.16313V26.5807H11.63V19.3979H4.92037V26.5807H0V8.16313H4.92037V15.0829H11.63V8.16313H16.5503ZM23.8231 25.7126C25.2975 26.5368 26.9542 26.949 28.7932 26.949C30.6321 26.949 32.2806 26.5368 33.7385 25.7126C35.2129 24.8881 36.3642 23.748 37.1927 22.2921C38.0375 20.8362 38.4601 19.1962 38.4601 17.372C38.4601 15.5477 38.0375 13.9077 37.1927 12.4518C36.3642 10.996 35.2129 9.85581 33.7385 9.0314C32.2806 8.20698 30.6321 7.7948 28.7932 7.7948C26.9542 7.7948 25.2975 8.20698 23.8231 9.0314C22.3653 9.85581 21.2139 10.996 20.369 12.4518C19.5406 13.9077 19.1264 15.5477 19.1264 17.372C19.1264 19.1962 19.5406 20.8362 20.369 22.2921C21.2139 23.748 22.3653 24.8881 23.8231 25.7126ZM31.1788 21.9764C30.4665 22.4149 29.6713 22.6341 28.7932 22.6341C27.9152 22.6341 27.1201 22.4149 26.4075 21.9764C25.6952 21.5379 25.1319 20.9239 24.7178 20.1346C24.3036 19.3277 24.0965 18.4068 24.0965 17.372C24.0965 16.3371 24.3036 15.4249 24.7178 14.6356C25.1319 13.8288 25.6952 13.2061 26.4075 12.7675C27.1201 12.329 27.9152 12.1098 28.7932 12.1098C29.6713 12.1098 30.4665 12.329 31.1788 12.7675C31.8911 13.2061 32.4544 13.8288 32.8688 14.6356C33.2829 15.4249 33.4898 16.3371 33.4898 17.372C33.4898 18.4068 33.2829 19.3277 32.8688 20.1346C32.4544 20.9239 31.8911 21.5379 31.1788 21.9764Z" fill="black"/>
</svg>
