<svg width="63" height="184" viewBox="0 0 63 184" fill="none" xmlns="http://www.w3.org/2000/svg">
<path d="M50 1L50 176C50 180.418 46.4183 184 42 184L8 184C3.58172 184 -6.87576e-08 180.418 1.20814e-07 176L7.62939e-06 0.999998L50 1Z" fill="#075A5A"/>
<path d="M42 8L44 8L44 8.75L44.25 8.75L44.25 9L45 9L45 11L44.25 11L44.25 13L45 13L45 15L44.25 15L44.25 17L45 17L45 19L44.25 19L44.25 21L45 21L45 23L44.25 23L44.25 25L45 25L45 27L44.25 27L44.25 29L45 29L45 31L44.25 31L44.25 33L45 33L45 35L44.25 35L44.25 37L45 37L45 39L44.25 39L44.25 41L45 41L45 43L44.25 43L44.25 45L45 45L45 47L44.25 47L44.25 49L45 49L45 51L44.25 51L44.25 53L45 53L45 55L44.25 55L44.25 57L45 57L45 59L44.25 59L44.25 61L45 61L45 63L44.25 63L44.25 65L45 65L45 67L44.25 67L44.25 69L45 69L45 71L44.25 71L44.25 73L45 73L45 75L44.25 75L44.25 77L45 77L45 79L44.25 79L44.25 81L45 81L45 83L44.25 83L44.25 85L45 85L45 87L44.25 87L44.25 89L45 89L45 91L44.25 91L44.25 93L45 93L45 95L44.25 95L44.25 97L45 97L45 99L44.25 99L44.25 101L45 101L45 103L44.25 103L44.25 105L45 105L45 107L44.25 107L44.25 109L45 109L45 111L44.25 111L44.25 113L45 113L45 115L44.25 115L44.25 117L45 117L45 119L44.25 119L44.25 121L45 121L45 123L44.25 123L44.25 125L45 125L45 127L44.25 127L44.25 129L45 129L45 131L44.25 131L44.25 133L45 133L45 135L44.25 135L44.25 137L45 137L45 139L44.25 139L44.25 141L45 141L45 143L44.25 143L44.25 145L45 145L45 147L44.25 147L44.25 149L45 149L45 151L44.25 151L44.25 153L45 153L45 155L44.25 155L44.25 157L45 157L45 159L44.25 159L44.25 161L45 161L45 163L44.25 163L44.25 165L45 165L45 167L44.25 167L44.25 169L45 169L45 171L44.25 171L44.25 172C44.25 172.285 44.2221 172.562 44.1691 172.83L44.9048 172.976C44.7751 173.632 44.517 174.242 44.1578 174.778L43.5346 174.361C43.2241 174.825 42.8246 175.224 42.3608 175.535L42.7781 176.158C42.2416 176.517 41.6318 176.775 40.9758 176.905L40.8303 176.169C40.5623 176.222 40.2848 176.25 40 176.25L38.9286 176.25L38.9286 177L36.7857 177L36.7857 176.25L34.6429 176.25L34.6429 177L32.5 177L32.5 176.25L30.3571 176.25L30.3571 177L28.2143 177L28.2143 176.25L26.0714 176.25L26.0714 177L23.9286 177L23.9286 176.25L21.7857 176.25L21.7857 177L19.6429 177L19.6429 176.25L17.5 176.25L17.5 177L15.3571 177L15.3571 176.25L13.2143 176.25L13.2143 177L11.0714 177L11.0714 176.25L10 176.25C9.7152 176.25 9.43766 176.222 9.16974 176.169L9.02419 176.905C8.36821 176.775 7.75838 176.517 7.22192 176.158L7.63916 175.535C7.17537 175.224 6.7759 174.825 6.4654 174.361L5.84217 174.778C5.48303 174.242 5.22494 173.632 5.09517 172.976L5.83091 172.83C5.77791 172.562 5.75 172.285 5.75 172L5.75 171L5 171L5 169L5.75 169L5.75 167L5 167L5 165L5.75 165L5.75 163L5 163L5 161L5.75 161L5.75 159L5 159L5 157L5.75 157L5.75 155L5 155L5 153L5.75 153L5.75 151L5 151L5 149L5.75 149L5.75 147L5 147L5 145L5.75 145L5.75 143L5 143L5 141L5.75 141L5.75 139L5 139L5 137L5.75 137L5.75 135L5 135L5 133L5.75 133L5.75 131L5 131L5 129L5.75 129L5.75 127L5 127L5 125L5.75 125L5.75 123L5 123L5 121L5.75 121L5.75 119L5 119L5 117L5.75 117L5.75 115L5 115L5 113L5.75 113L5.75 111L5 111L5 109L5.75 109L5.75 107L5 107L5 105L5.75 105L5.75 103L5 103L5 101L5.75 101L5.75 99L5 99L5 97L5.75 97L5.75 95L5 95L5 93L5.75 93L5.75 91L5 91L5 89L5.75 89L5.75 87L5 87L5 85L5.75 85L5.75 83L5 83L5 81L5.75 81L5.75 79L5 79L5 77L5.75 77L5.75 75L5 75L5.00001 73L5.75001 73L5.75001 71L5.00001 71L5.00001 69L5.75001 69L5.75001 67L5.00001 67L5.00001 65L5.75001 65L5.75001 63L5.00001 63L5.00001 61L5.75001 61L5.75001 59L5.00001 59L5.00001 57L5.75001 57L5.75001 55L5.00001 55L5.00001 53L5.75001 53L5.75001 51L5.00001 51L5.00001 49L5.75001 49L5.75001 47L5.00001 47L5.00001 45L5.75001 45L5.75001 43L5.00001 43L5.00001 41L5.75001 41L5.75001 39L5.00001 39L5.00001 37L5.75001 37L5.75001 35L5.00001 35L5.00001 33L5.75001 33L5.75001 31L5.00001 31L5.00001 29L5.75001 29L5.75001 27L5.00001 27L5.00001 25L5.75001 25L5.75001 23L5.00001 23L5.00001 21L5.75001 21L5.75001 19L5.00001 19L5.00001 17L5.75001 17L5.75001 15L5.00001 15L5.00001 13L5.75001 13L5.75001 11L5.00001 11L5.00001 9L5.75001 9L5.75001 8.75L6 8.75L6 8L8 8L8 8.75L10 8.75L10 8L12 8L12 8.75L14 8.75L14 8L16 8L16 8.75L18 8.75L18 8L20 8L20 8.75L22 8.75L22 8L24 8L24 8.75L26 8.75L26 8L28 8L28 8.75L30 8.75L30 8L32 8L32 8.75L34 8.75L34 8L36 8L36 8.75L38 8.75L38 8L40 8L40 8.75L42 8.75L42 8Z" stroke="#239C9C" stroke-width="1.5" stroke-linejoin="round" stroke-dasharray="2 2"/>
<path d="M15 56.9336L15 59.7836L22.6 59.7836L22.6 65.5336L24.925 65.5336L24.925 59.7836L30.05 59.7836L30.05 67.1586L32.375 67.1586L32.375 56.9336L15 56.9336ZM27.175 89.0248C25.45 89.0248 24.225 88.0248 24.225 85.7998L24.225 82.6498L30.05 82.6498L30.05 85.7998C30.05 88.0248 28.925 89.0248 27.175 89.0248ZM32.375 79.7998L15 79.7998L15 82.6498L21.95 82.6498L21.95 84.8248L15 88.8248L15 92.2248L22.2 87.9248C22.925 90.8498 25.125 91.9498 27.175 91.9498C30 91.9498 32.375 89.9248 32.375 85.7998L32.375 79.7998ZM32.4 115.196L32.4 105.596L15 105.596L15 115.196L17.325 115.196L17.325 108.446L22.65 108.446L22.65 114.446L24.975 114.446L24.975 108.446L30.075 108.446L30.075 115.196L32.4 115.196ZM32.4 138.306L32.4 128.706L15 128.706L15 138.306L17.325 138.306L17.325 131.556L22.65 131.556L22.65 137.556L24.975 137.556L24.975 131.556L30.075 131.556L30.075 138.306L32.4 138.306Z" fill="white"/>
<path d="M50 36.9973V0.997314L63 36.9973H50Z" fill="#333333"/>
</svg>
