<svg width="35" height="35" viewBox="0 0 35 35" fill="none" xmlns="http://www.w3.org/2000/svg">
<path d="M3.54957 31.575L5.51395 24.4037C4.30207 22.3051 3.66478 19.9237 3.66551 17.4846C3.66916 9.85388 9.87874 3.64575 17.5102 3.64575C21.2136 3.64721 24.6888 5.08877 27.3029 7.70429C29.9162 10.3205 31.3556 13.7972 31.3542 17.4955C31.3512 25.1263 25.1402 31.3351 17.5102 31.3351C17.5095 31.3351 17.5102 31.3351 17.5102 31.3351H17.5044C15.1878 31.3344 12.9106 30.7533 10.8886 29.65L3.54957 31.575Z" fill="white"/>
<path d="M3.54959 31.9397C3.45334 31.9397 3.36001 31.9018 3.29074 31.8318C3.19959 31.7392 3.16386 31.6043 3.19813 31.4796L5.1224 24.4533C3.92949 22.3344 3.30022 19.9281 3.30167 17.4854C3.30459 9.65271 9.67824 3.28125 17.5102 3.28125C21.3092 3.28271 24.8784 4.76219 27.561 7.44698C30.2437 10.1325 31.7202 13.701 31.7188 17.4956C31.7158 25.3276 25.3415 31.6998 17.5102 31.6998C15.1849 31.6991 12.8844 31.1252 10.8427 30.0395L3.6422 31.9273C3.61157 31.936 3.58095 31.9397 3.54959 31.9397Z" fill="white"/>
<path d="M17.5102 3.64591C21.2137 3.64737 24.6889 5.08894 27.3029 7.70446C29.9163 10.3207 31.3556 13.7974 31.3542 17.4957C31.3513 25.1264 25.1402 31.3353 17.5102 31.3353H17.5044C15.1878 31.3346 12.9106 30.7534 10.8887 29.6502L3.54959 31.5752L5.51397 24.4038C4.30209 22.3053 3.6648 19.9238 3.66553 17.4848C3.66918 9.85404 9.87876 3.64591 17.5102 3.64591ZM17.5102 2.91675C9.47772 2.91675 2.94001 9.45154 2.93636 17.4848C2.93563 19.9399 3.55543 22.3592 4.73084 24.5008L2.84595 31.3834C2.7774 31.635 2.8474 31.9033 3.03115 32.0885C3.1697 32.2285 3.35709 32.3051 3.54959 32.3051C3.61157 32.3051 3.67355 32.2971 3.7348 32.281L10.7982 30.4289C12.8603 31.4994 15.1718 32.0645 17.5044 32.0652C25.5427 32.0652 32.0804 25.5297 32.0841 17.4964C32.0855 13.6034 30.5711 9.943 27.8199 7.18966C25.0673 4.4356 21.4062 2.91821 17.5102 2.91675Z" fill="#CFD8DC"/>
<path d="M25.6492 9.35677C23.4762 7.18239 20.588 5.98437 17.5138 5.98364C11.1672 5.98364 6.0054 11.1432 6.00248 17.4855C6.00175 19.6592 6.60988 21.7752 7.76196 23.6076L8.03613 24.0429L6.87311 28.2874L11.2284 27.1455L11.6492 27.3949C13.4152 28.4434 15.4408 28.9976 17.5058 28.9983H17.5102C23.8525 28.9983 29.0143 23.838 29.0164 17.495C29.0172 14.4216 27.8221 11.5311 25.6492 9.35677Z" fill="#40C351"/>
<path fill-rule="evenodd" clip-rule="evenodd" d="M14.0496 11.6995C13.7907 11.1234 13.518 11.1118 13.2708 11.1015C13.0689 11.0928 12.8384 11.0935 12.608 11.0935C12.3776 11.0935 12.0028 11.1803 11.6856 11.5266C11.3684 11.873 10.4745 12.7094 10.4745 14.4112C10.4745 16.1131 11.7141 17.7581 11.8869 17.9885C12.0597 18.2189 14.28 21.8232 17.796 23.2101C20.7178 24.3622 21.3128 24.1332 21.9472 24.0756C22.5816 24.018 23.994 23.2393 24.282 22.4313C24.57 21.6234 24.57 20.9314 24.484 20.7871C24.3972 20.6427 24.1668 20.5566 23.8211 20.3831C23.4755 20.2096 21.7744 19.3732 21.4572 19.258C21.14 19.1428 20.9096 19.0852 20.6784 19.4315C20.448 19.7772 19.7852 20.5566 19.5832 20.7871C19.3813 21.0182 19.1793 21.0474 18.8336 20.8738C18.488 20.7003 17.3739 20.3357 16.0519 19.1574C15.0238 18.2408 14.3296 17.1084 14.1276 16.7621C13.9256 16.4164 14.1057 16.229 14.2793 16.0562C14.4346 15.9009 14.6249 15.6523 14.7984 15.4503C14.9713 15.2483 15.0289 15.1039 15.1441 14.8735C15.2593 14.6424 15.2017 14.4404 15.1149 14.2676C15.0296 14.094 14.3573 12.3834 14.0496 11.6995Z" fill="white"/>
</svg>
