<svg width="35" height="35" viewBox="0 0 35 35" fill="none" xmlns="http://www.w3.org/2000/svg">
<path d="M30.625 9.06281C29.6603 9.4901 28.6227 9.77521 27.5282 9.9101C28.6409 9.24948 29.497 8.19583 29.8988 6.95115C28.8575 7.56146 27.704 8.0099 26.4768 8.24615C25.4968 7.20708 24.099 6.5625 22.5502 6.5625C19.5752 6.5625 17.1639 8.95271 17.1639 11.9C17.1639 12.3171 17.2127 12.7232 17.3046 13.1177C12.829 12.8931 8.85939 10.7654 6.20376 7.53667C5.7371 8.32563 5.4746 9.24948 5.4746 10.2244C5.4746 12.0772 6.42324 13.7083 7.86991 14.6694C6.98689 14.6424 6.15564 14.3967 5.42793 14.0029C5.42793 14.019 5.42793 14.043 5.42793 14.0656C5.42793 16.6549 7.28512 18.811 9.74678 19.3018C9.29689 19.425 8.82147 19.4935 8.33147 19.4935C7.98366 19.4935 7.6446 19.4542 7.31647 19.3951C8.00189 21.5111 9.99032 23.0577 12.3463 23.1036C10.5029 24.5328 8.18126 25.3889 5.65689 25.3889C5.22085 25.3889 4.79428 25.3641 4.37283 25.313C6.75793 26.8231 9.59001 27.7083 12.6299 27.7083C22.5356 27.7083 27.9548 19.5738 27.9548 12.5169C27.9548 12.2857 27.9475 12.0553 27.9366 11.8278C28.9939 11.0811 29.9053 10.1391 30.625 9.06281Z" fill="#03A9F4"/>
</svg>
