<svg width="35" height="35" viewBox="0 0 35 35" fill="none" xmlns="http://www.w3.org/2000/svg">
<path d="M17.5 2.91675C13.6323 2.91675 9.92293 4.4532 7.18802 7.18811C4.45312 9.92301 2.91666 13.6323 2.91666 17.5001C2.91666 21.3678 4.45312 25.0772 7.18802 27.8121C9.92293 30.547 13.6323 32.0834 17.5 32.0834C21.3677 32.0834 25.0771 30.547 27.812 27.8121C30.5469 25.0772 32.0833 21.3678 32.0833 17.5001C32.0833 13.6323 30.5469 9.92301 27.812 7.18811C25.0771 4.4532 21.3677 2.91675 17.5 2.91675Z" fill="#0288D1"/>
<path d="M10.2083 13.8542H13.125V24.7917H10.2083V13.8542ZM11.6579 12.3959H11.6419C10.7712 12.3959 10.2083 11.747 10.2083 10.9369C10.2083 10.1092 10.7887 9.47925 11.6747 9.47925C12.5621 9.47925 13.1082 10.1092 13.125 10.9369C13.125 11.747 12.5621 12.3959 11.6579 12.3959ZM25.5208 17.8647C25.5208 15.6495 23.7256 13.8542 21.5104 13.8542C20.1527 13.8542 18.9547 14.5309 18.2292 15.5634V13.8542H15.3125V24.7917H18.2292V18.9584C18.2292 17.7502 19.2084 16.7709 20.4167 16.7709C21.6249 16.7709 22.6042 17.7502 22.6042 18.9584V24.7917H25.5208C25.5208 24.7917 25.5208 18.1716 25.5208 17.8647Z" fill="white"/>
</svg>
