<svg width="62" height="56" viewBox="0 0 62 56" fill="none" xmlns="http://www.w3.org/2000/svg">
<path d="M18.1734 55.0256C8.44939 55.0256 0.539551 47.8294 0.539551 38.9886V16.085C0.539551 7.24649 8.45671 0.0569305 18.1832 0.0569305H43.3814C53.1054 0.0569305 61.0153 7.25314 61.0153 16.0939V38.9976C61.0153 47.8361 53.0981 55.0256 43.3716 55.0256H18.1734ZM48.4162 45.8642C49.8071 45.8642 50.936 44.8381 50.936 43.5738C50.936 42.3095 49.8071 41.2835 48.4162 41.2835C47.0252 41.2835 45.8963 42.3095 45.8963 43.5738C45.8963 44.8381 47.0252 45.8642 48.4162 45.8642ZM30.7774 41.2835C39.1155 41.2835 45.8963 35.1201 45.8963 27.5413C45.8963 19.9625 39.1155 13.7991 30.7774 13.7991C22.4393 13.7991 15.6585 19.9625 15.6585 27.5413C15.6585 35.1201 22.4393 41.2835 30.7774 41.2835ZM30.7774 36.7027C28.1042 36.7027 25.5405 35.7375 23.6503 34.0194C21.76 32.3013 20.6981 29.9711 20.6981 27.5413C20.6981 25.1115 21.76 22.7813 23.6503 21.0632C25.5405 19.3451 28.1042 18.3798 30.7774 18.3798C33.4506 18.3798 36.0143 19.3451 37.9045 21.0632C39.7948 22.7813 40.8567 25.1115 40.8567 27.5413C40.8567 29.9711 39.7948 32.3013 37.9045 34.0194C36.0143 35.7375 33.4506 36.7027 30.7774 36.7027Z" fill="url(#paint0_linear)"/>
<defs>
<linearGradient id="paint0_linear" x1="30.7774" y1="89.5573" x2="30.7774" y2="0.0569332" gradientUnits="userSpaceOnUse">
<stop offset="0.520295" stop-color="#888888" stop-opacity="0"/>
<stop offset="1" stop-color="#005889" stop-opacity="0.2"/>
</linearGradient>
</defs>
</svg>
