<svg width="30" height="35" viewBox="0 0 30 35" fill="none" xmlns="http://www.w3.org/2000/svg">
<path fill-rule="evenodd" clip-rule="evenodd" d="M25 35L5 35C2.23858 35 3.27462e-06 32.6495 0 29.75V5.25C0 2.3505 2.23858 0 5 0H15H20.0694C21.5244 0 22.9073 0.665489 23.8571 1.82281L25.9948 4.42751L28.7417 7.68157C29.5524 8.64188 30 9.88069 30 11.1639L30 17.5V29.75C30 32.6495 27.7614 35 25 35ZM23.4848 6.73077L21.6667 4.51539V8.75H25.1894L23.4848 6.73077ZM18.3333 10.5V3.5L15 3.5L5 3.5C4.07953 3.5 3.33333 4.2835 3.33333 5.25L3.33334 29.75C3.33334 30.7165 4.07953 31.5 5 31.5L25 31.5C25.9205 31.5 26.6667 30.7165 26.6667 29.75L26.6667 17.5V12.25H20C19.0795 12.25 18.3333 11.4665 18.3333 10.5ZM20.4617 18.6016C21.0411 17.8507 20.931 16.7487 20.2158 16.1403C19.5006 15.5318 18.4511 15.6474 17.8717 16.3984L13.7131 21.7879L12.0848 19.8442C11.4768 19.1185 10.4237 19.0477 9.73255 19.686C9.04141 20.3244 8.97397 21.4301 9.58191 22.1558L12.514 25.6558C12.8382 26.0428 13.3084 26.2601 13.7992 26.2496C14.29 26.2392 14.7514 26.0021 15.0604 25.6016L20.4617 18.6016Z" fill="#FBA43F"/>
</svg>
