<svg width="17" height="17" viewBox="0 0 17 17" fill="none" xmlns="http://www.w3.org/2000/svg">
<path d="M9.34082 9.90216V4.59363H7.34082V9.90216H9.34082Z" fill="#239C9C"/>
<path d="M9.34082 12.4445V10.6938H7.34082V12.4445H9.34082Z" fill="#239C9C"/>
<path fill-rule="evenodd" clip-rule="evenodd" d="M16.6816 8.51904C16.6816 13.1255 12.9473 16.8598 8.34082 16.8598C3.73438 16.8598 0 13.1255 0 8.51904C0 3.91254 3.73438 0.178223 8.34082 0.178223C12.9473 0.178223 16.6816 3.91254 16.6816 8.51904ZM14.6816 8.51904C14.6816 12.0209 11.8428 14.8598 8.34082 14.8598C4.83887 14.8598 2 12.0209 2 8.51904C2 5.01709 4.83887 2.17822 8.34082 2.17822C11.8428 2.17822 14.6816 5.01709 14.6816 8.51904Z" fill="#239C9C"/>
</svg>
