<svg width="18" height="18" viewBox="0 0 18 18" fill="none" xmlns="http://www.w3.org/2000/svg">
<path d="M1.63636 0C0.732273 0 0 0.732273 0 1.63636V13.0909C0 13.995 0.732273 14.7273 1.63636 14.7273H13.0909C13.995 14.7273 14.7273 13.995 14.7273 13.0909V1.63636C14.7273 0.732273 13.9942 0 13.0909 0H1.63636ZM12.2727 3.27273C12.482 3.27273 12.6913 3.35247 12.8512 3.51243C13.1711 3.83234 13.1711 4.34948 12.8512 4.66939L6.66531 10.8553C6.51149 11.0091 6.30364 11.095 6.08683 11.095C5.87001 11.095 5.66135 11.0091 5.50835 10.8553L2.68306 8.03001C2.36315 7.7101 2.36315 7.19296 2.68306 6.87305C3.00297 6.55314 3.52011 6.55314 3.84002 6.87305L6.08683 9.11985L11.6942 3.51243C11.8542 3.35247 12.0635 3.27273 12.2727 3.27273ZM16.3636 3.27273V13.0909C16.3636 14.8983 14.8983 16.3636 13.0909 16.3636H3.27273C3.27273 17.2677 4.005 18 4.90909 18H16.3636C17.2677 18 18 17.2677 18 16.3636V4.90909C18 4.005 17.2669 3.27273 16.3636 3.27273Z" fill="white"/>
</svg>
