<svg width="54" height="54" viewBox="0 0 54 54" fill="none" xmlns="http://www.w3.org/2000/svg">
<path d="M20.5656 27.8781C20.5656 23.8395 23.8395 20.5656 27.8781 20.5656C31.9167 20.5656 35.1906 23.8395 35.1906 27.8781C35.1906 31.9167 31.9167 35.1906 27.8781 35.1906C23.8395 35.1906 20.5656 31.9167 20.5656 27.8781Z" fill="black"/>
<path fill-rule="evenodd" clip-rule="evenodd" d="M26.6647 5.01476C27.328 4.32841 28.4281 4.32841 29.0915 5.01476L34.8792 11.0031H43.0656C43.9976 11.0031 44.7531 11.7586 44.7531 12.6906V20.877L50.7414 26.6647C51.4278 27.328 51.4278 28.4281 50.7414 29.0915L44.7531 34.8792V43.0656C44.7531 43.9976 43.9976 44.7531 43.0656 44.7531H34.8792L29.0915 50.7414C28.4281 51.4278 27.328 51.4278 26.6647 50.7414L20.877 44.7531H12.6906C11.7586 44.7531 11.0031 43.9976 11.0031 43.0656V34.8792L5.01476 29.0915C4.32842 28.4281 4.32841 27.328 5.01476 26.6647L11.0031 20.877V12.6906C11.0031 11.7586 11.7586 11.0031 12.6906 11.0031H20.877L26.6647 5.01476ZM27.8781 17.1906C21.9755 17.1906 17.1906 21.9756 17.1906 27.8781C17.1906 33.7806 21.9755 38.5656 27.8781 38.5656C33.7806 38.5656 38.5656 33.7806 38.5656 27.8781C38.5656 21.9756 33.7806 17.1906 27.8781 17.1906Z" fill="black"/>
</svg>
