<svg width="61" height="27" viewBox="0 0 61 27" fill="none" xmlns="http://www.w3.org/2000/svg">
<path d="M48.9504 15.2006L43.1679 26.9253H37.9424L46.3378 9.90747L48.9504 15.2006Z" fill="#239C9C"/>
<path d="M60.9193 26.9264H55.7019L49.4277 14.2106L46.8233 8.91749L46.1842 7.63116L42.4248 0L49.2313 4.02418L49.7882 4.35444L51.2215 5.19752L55.3332 7.63116H51.41L52.0406 8.91749L60.9193 26.9264Z" fill="#239C9C"/>
<path d="M16.5291 8.15723V26.6297H11.6151V19.4255H4.91405V26.6297H0V8.15723H4.91405V15.0977H11.6151V8.15723H16.5291Z" fill="#239C9C"/>
<path d="M28.7578 26.9996C26.9214 26.9996 25.2667 26.5862 23.7942 25.7593C22.3382 24.9324 21.1883 23.7889 20.3444 22.3287C19.5171 20.8685 19.1035 19.2235 19.1035 17.3939C19.1035 15.5642 19.5171 13.9192 20.3444 12.459C21.1883 10.9988 22.3382 9.85525 23.7942 9.0284C25.2667 8.20152 26.9214 7.78809 28.7578 7.78809C30.5945 7.78809 32.2407 8.20152 33.6968 9.0284C35.1694 9.85525 36.3193 10.9988 37.1466 12.459C37.9903 13.9192 38.4122 15.5642 38.4122 17.3939C38.4122 19.2235 37.9903 20.8685 37.1466 22.3287C36.3193 23.7889 35.1694 24.9324 33.6968 25.7593C32.2407 26.5862 30.5945 26.9996 28.7578 26.9996ZM28.7578 22.6717C29.6349 22.6717 30.4291 22.4518 31.1405 22.012C31.8519 21.5722 32.4146 20.9564 32.8282 20.1647C33.2419 19.3555 33.4486 18.4318 33.4486 17.3939C33.4486 16.3559 33.2419 15.441 32.8282 14.6493C32.4146 13.8401 31.8519 13.2155 31.1405 12.7757C30.4291 12.3359 29.6349 12.116 28.7578 12.116C27.881 12.116 27.0868 12.3359 26.3754 12.7757C25.664 13.2155 25.1013 13.8401 24.6877 14.6493C24.274 15.441 24.0673 16.3559 24.0673 17.3939C24.0673 18.4318 24.274 19.3555 24.6877 20.1647C25.1013 20.9564 25.664 21.5722 26.3754 22.012C27.0868 22.4518 27.881 22.6717 28.7578 22.6717Z" fill="#239C9C"/>
<path fill-rule="evenodd" clip-rule="evenodd" d="M38.1105 26.6218L37.9846 26.8759H38.0839L38.1105 26.6218ZM16.5503 8.16325V26.5808H11.63V19.398H4.92037V26.5808H0V8.16325H4.92037V15.083H11.63V8.16325H16.5503ZM23.8231 25.7127C25.2975 26.5369 26.9542 26.9492 28.7932 26.9492C30.6321 26.9492 32.2806 26.5369 33.7385 25.7127C35.2129 24.8882 36.3642 23.7481 37.1927 22.2922C38.0375 20.8363 38.4601 19.1963 38.4601 17.3721C38.4601 15.5479 38.0375 13.9078 37.1927 12.4519C36.3642 10.9961 35.2129 9.85593 33.7385 9.03152C32.2806 8.2071 30.6321 7.79492 28.7932 7.79492C26.9542 7.79492 25.2975 8.2071 23.8231 9.03152C22.3653 9.85593 21.2139 10.9961 20.369 12.4519C19.5406 13.9078 19.1264 15.5479 19.1264 17.3721C19.1264 19.1963 19.5406 20.8363 20.369 22.2922C21.2139 23.7481 22.3653 24.8882 23.8231 25.7127ZM31.1788 21.9765C30.4665 22.415 29.6713 22.6342 28.7932 22.6342C27.9152 22.6342 27.1201 22.415 26.4075 21.9765C25.6952 21.538 25.1319 20.924 24.7178 20.1347C24.3036 19.3279 24.0965 18.407 24.0965 17.3721C24.0965 16.3372 24.3036 15.4251 24.7178 14.6357C25.1319 13.8289 25.6952 13.2062 26.4075 12.7677C27.1201 12.3292 27.9152 12.1099 28.7932 12.1099C29.6713 12.1099 30.4665 12.3292 31.1788 12.7677C31.8911 13.2062 32.4545 13.8289 32.8688 14.6357C33.2829 15.4251 33.4898 16.3372 33.4898 17.3721C33.4898 18.407 33.2829 19.3279 32.8688 20.1347C32.4545 20.924 31.8911 21.538 31.1788 21.9765Z" fill="black"/>
</svg>
