<svg width="63" height="56" viewBox="0 0 63 56" fill="none" xmlns="http://www.w3.org/2000/svg">
<path d="M31.8688 55.0256C21.925 55.0256 9.01871 52.4053 9.01871 52.4053L8.98624 52.3663C4.45733 51.6045 0.987549 47.5115 0.987549 42.5339V27.5437V27.5388V12.5536V12.5487C0.991968 10.1714 1.80203 7.87368 3.27228 6.06802C4.74253 4.26236 6.77667 3.06708 9.00944 2.6968L9.01871 2.68215C9.01871 2.68215 21.925 0.0569305 31.8688 0.0569305C41.8126 0.0569305 54.7189 2.68215 54.7189 2.68215L54.7235 2.68703C56.9587 3.05653 58.9952 4.25278 60.4666 6.06057C61.9379 7.86836 62.7477 10.169 62.75 12.5487V12.5536V27.5388V27.5437V42.5339C62.7467 44.912 61.9372 47.2109 60.4668 49.0176C58.9965 50.8242 56.9617 52.0202 54.7282 52.3907L54.7189 52.4053C54.7189 52.4053 41.8126 55.0256 31.8688 55.0256ZM24.7424 39.0401L43.7462 27.5437L24.7424 16.0474V39.0401Z" fill="url(#paint0_linear)"/>
<defs>
<linearGradient id="paint0_linear" x1="31.8688" y1="89.5573" x2="31.8688" y2="0.0569332" gradientUnits="userSpaceOnUse">
<stop offset="0.520295" stop-color="#888888" stop-opacity="0"/>
<stop offset="1" stop-color="#005889" stop-opacity="0.2"/>
</linearGradient>
</defs>
</svg>
