<svg width="17" height="17" viewBox="0 0 17 17" fill="none" xmlns="http://www.w3.org/2000/svg">
<path fill-rule="evenodd" clip-rule="evenodd" d="M0 8.5C0 13.1944 3.80558 17 8.5 17C13.1944 17 17 13.1944 17 8.5C17 3.80558 13.1944 0 8.5 0C3.80558 0 0 3.80558 0 8.5ZM1.7 8.5C1.7 4.74446 4.74446 1.7 8.5 1.7C12.2555 1.7 15.3 4.74446 15.3 8.5C15.3 12.2555 12.2555 15.3 8.5 15.3C4.74446 15.3 1.7 12.2555 1.7 8.5ZM12.5266 6.52437C12.8438 6.17832 12.8204 5.64063 12.4744 5.32342C12.1283 5.00621 11.5906 5.02958 11.2734 5.37563L7.25548 9.75884L5.75299 7.95584C5.45246 7.59521 4.91648 7.54648 4.55584 7.84701C4.19521 8.14754 4.14648 8.68352 4.44701 9.04416L6.57201 11.5942C6.72902 11.7826 6.95975 11.894 7.20494 11.8998C7.45012 11.9056 7.68586 11.8052 7.85158 11.6244L12.5266 6.52437Z" fill="#B3B6B7"/>
</svg>
