<svg width="562" height="471" viewBox="0 0 562 471" fill="none" xmlns="http://www.w3.org/2000/svg">
<circle cx="267.001" cy="238" r="226" fill="white"/>
<rect width="186.444" height="244.971" rx="10" transform="matrix(0.99549 -0.0948684 0.0948166 0.995495 302.613 17.6877)" fill="#44958E"/>
<rect width="101.991" height="3.8502" rx="1.9251" transform="matrix(0.99549 -0.0948684 0.0948166 0.995495 348.543 77.4426)" fill="white"/>
<rect opacity="0.5" width="101.961" height="7.99997" rx="3.99999" transform="matrix(0.99549 -0.0948684 0.0948166 0.995495 329.056 42.2869)" fill="white"/>
<rect opacity="0.5" width="62.9756" height="4.99998" rx="2.49999" transform="matrix(0.99549 -0.0948684 0.0948166 0.995495 330.193 54.2317)" fill="white"/>
<path fill-rule="evenodd" clip-rule="evenodd" d="M332.443 80.9107C332.745 84.0856 335.563 86.4141 338.737 86.1117C341.911 85.8092 344.239 82.9902 343.937 79.8154C343.634 76.6405 340.816 74.312 337.642 74.6144C334.468 74.9169 332.14 77.7359 332.443 80.9107ZM340.785 78.7675C340.977 78.513 340.927 78.1509 340.672 77.9586C340.418 77.7664 340.056 77.8168 339.864 78.0713L337.429 81.2946L336.297 80.172C336.071 79.9475 335.705 79.9491 335.481 80.1756C335.256 80.4021 335.258 80.7677 335.484 80.9922L337.085 82.5799C337.204 82.6972 337.367 82.7577 337.533 82.7458C337.699 82.7339 337.852 82.6508 337.952 82.5179L340.785 78.7675Z" fill="white"/>
<rect width="97.1802" height="3.8502" rx="1.9251" transform="matrix(0.99549 -0.0948684 0.0948166 0.995495 350.095 93.7307)" fill="white"/>
<path fill-rule="evenodd" clip-rule="evenodd" d="M333.993 97.1983C334.296 100.373 337.114 102.702 340.288 102.399C343.462 102.097 345.79 99.2778 345.487 96.103C345.185 92.9281 342.367 90.5995 339.193 90.902C336.019 91.2045 333.691 94.0235 333.993 97.1983ZM342.336 95.0551C342.528 94.8006 342.477 94.4385 342.223 94.2462C341.968 94.054 341.606 94.1044 341.414 94.3589L338.98 97.5822L337.848 96.4596C337.622 96.2351 337.256 96.2367 337.032 96.4632C336.807 96.6896 336.809 97.0553 337.035 97.2798L338.636 98.8675C338.754 98.9848 338.918 99.0453 339.084 99.0334C339.25 99.0215 339.403 98.9384 339.503 98.8055L342.336 95.0551Z" fill="white"/>
<rect width="97.1802" height="3.8502" rx="1.9251" transform="matrix(0.99549 -0.0948684 0.0948166 0.995495 351.646 110.018)" fill="white"/>
<path fill-rule="evenodd" clip-rule="evenodd" d="M335.545 113.486C335.847 116.661 338.666 118.989 341.84 118.687C345.014 118.384 347.342 115.565 347.039 112.391C346.737 109.216 343.919 106.887 340.745 107.19C337.571 107.492 335.243 110.311 335.545 113.486ZM343.887 111.343C344.08 111.088 344.029 110.726 343.775 110.534C343.52 110.342 343.158 110.392 342.966 110.647L340.532 113.87L339.4 112.747C339.173 112.523 338.808 112.524 338.583 112.751C338.359 112.977 338.36 113.343 338.587 113.567L340.188 115.155C340.306 115.272 340.469 115.333 340.636 115.321C340.802 115.309 340.955 115.226 341.055 115.093L343.887 111.343Z" fill="white"/>
<rect width="82.7475" height="3.8502" rx="1.9251" transform="matrix(0.99549 -0.0948684 0.0948166 0.995495 353.198 126.306)" fill="white"/>
<path fill-rule="evenodd" clip-rule="evenodd" d="M337.096 129.774C337.399 132.949 340.217 135.277 343.391 134.975C346.565 134.672 348.893 131.854 348.59 128.679C348.288 125.504 345.47 123.175 342.296 123.478C339.122 123.78 336.794 126.599 337.096 129.774ZM345.439 127.631C345.631 127.376 345.58 127.014 345.326 126.822C345.072 126.63 344.709 126.68 344.517 126.935L342.083 130.158L340.951 129.035C340.725 128.811 340.359 128.812 340.135 129.039C339.91 129.265 339.912 129.631 340.138 129.855L341.739 131.443C341.857 131.56 342.021 131.621 342.187 131.609C342.353 131.597 342.506 131.514 342.606 131.381L345.439 127.631Z" fill="white"/>
<rect width="110.651" height="3.8502" rx="1.9251" transform="matrix(0.99549 -0.0948684 0.0948166 0.995495 354.749 142.594)" fill="white"/>
<path fill-rule="evenodd" clip-rule="evenodd" d="M338.648 146.062C338.95 149.237 341.768 151.565 344.942 151.263C348.116 150.96 350.444 148.141 350.142 144.966C349.839 141.792 347.021 139.463 343.847 139.766C340.673 140.068 338.345 142.887 338.648 146.062ZM346.99 143.919C347.182 143.664 347.132 143.302 346.877 143.11C346.623 142.918 346.261 142.968 346.069 143.222L343.634 146.446L342.502 145.323C342.276 145.099 341.91 145.1 341.686 145.327C341.461 145.553 341.463 145.919 341.689 146.143L343.29 147.731C343.409 147.848 343.572 147.909 343.738 147.897C343.904 147.885 344.057 147.802 344.158 147.669L346.99 143.919Z" fill="white"/>
<rect width="97.1802" height="3.8502" rx="1.9251" transform="matrix(0.99549 -0.0948684 0.0948166 0.995495 356.3 158.882)" fill="white"/>
<path fill-rule="evenodd" clip-rule="evenodd" d="M340.199 162.35C340.501 165.525 343.319 167.853 346.493 167.551C349.667 167.248 351.995 164.429 351.693 161.254C351.391 158.079 348.572 155.751 345.398 156.053C342.224 156.356 339.897 159.175 340.199 162.35ZM348.541 160.206C348.733 159.952 348.683 159.59 348.428 159.398C348.174 159.205 347.812 159.256 347.62 159.51L345.186 162.734L344.054 161.611C343.827 161.386 343.462 161.388 343.237 161.615C343.013 161.841 343.014 162.207 343.241 162.431L344.842 164.019C344.96 164.136 345.123 164.197 345.289 164.185C345.455 164.173 345.608 164.09 345.709 163.957L348.541 160.206Z" fill="white"/>
<rect width="102.953" height="3.8502" rx="1.9251" transform="matrix(0.99549 -0.0948684 0.0948166 0.995495 357.852 175.169)" fill="white"/>
<path fill-rule="evenodd" clip-rule="evenodd" d="M341.75 178.638C342.053 181.812 344.871 184.141 348.045 183.838C351.219 183.536 353.547 180.717 353.244 177.542C352.942 174.367 350.124 172.039 346.95 172.341C343.776 172.644 341.448 175.463 341.75 178.638ZM350.092 176.494C350.285 176.24 350.234 175.878 349.98 175.685C349.725 175.493 349.363 175.544 349.171 175.798L346.737 179.021L345.605 177.899C345.378 177.674 345.013 177.676 344.788 177.902C344.564 178.129 344.566 178.494 344.792 178.719L346.393 180.307C346.511 180.424 346.674 180.484 346.841 180.473C347.007 180.461 347.16 180.378 347.26 180.245L350.092 176.494Z" fill="white"/>
<rect x="320.509" y="6.44556" width="186.443" height="244.972" rx="10" fill="#63B7AF"/>
<g filter="url(#filter0_d_4182_1586)">
<rect x="409" y="191" width="149" height="44" rx="7" fill="white"/>
</g>
<path fill-rule="evenodd" clip-rule="evenodd" d="M442.796 207.743C442.796 207.333 442.463 207 442.053 207C441.642 207 441.309 207.333 441.309 207.743L441.309 212.204L436.743 212.204C436.333 212.204 436 212.537 436 212.947C436 213.358 436.333 213.691 436.743 213.691H441.309L441.309 218.257C441.309 218.667 441.642 219 442.053 219C442.463 219 442.796 218.667 442.796 218.257L442.796 213.691H447.257C447.667 213.691 448 213.358 448 212.947C448 212.537 447.667 212.204 447.257 212.204L442.796 212.204L442.796 207.743Z" fill="#44958E"/>
<path d="M456.423 219L457.729 216.347H461.928L462.349 219H464.985L462.906 207.364H459.735L453.786 219H456.423ZM458.673 214.426L460.843 210.023H460.934L461.627 214.426H458.673ZM469.144 219.142C470.548 219.142 471.411 218.33 471.871 217.602H471.974L471.741 219H474.127L476.059 207.364H473.638L472.911 211.739H472.837C472.638 211.028 472.082 210.159 470.621 210.159C468.701 210.159 466.837 211.648 466.343 214.648C465.86 217.568 467.144 219.142 469.144 219.142ZM470.207 217.216C469.013 217.216 468.565 216.159 468.82 214.636C469.065 213.125 469.854 212.085 471.053 212.085C472.229 212.085 472.741 213.08 472.485 214.636C472.229 216.193 471.371 217.216 470.207 217.216ZM479.316 219.142C480.719 219.142 481.583 218.33 482.043 217.602H482.146L481.913 219H484.299L486.231 207.364H483.81L483.083 211.739H483.009C482.81 211.028 482.254 210.159 480.793 210.159C478.873 210.159 477.009 211.648 476.515 214.648C476.032 217.568 477.316 219.142 479.316 219.142ZM480.379 217.216C479.185 217.216 478.737 216.159 478.992 214.636C479.237 213.125 480.026 212.085 481.225 212.085C482.401 212.085 482.913 213.08 482.657 214.636C482.401 216.193 481.543 217.216 480.379 217.216ZM489.998 219H492.413L493.299 213.761C493.441 212.795 494.168 212.153 494.969 212.153C495.771 212.153 496.214 212.699 496.083 213.557L495.163 219H497.509L498.413 213.67C498.549 212.761 499.168 212.153 500.049 212.153C500.822 212.153 501.316 212.636 501.168 213.608L500.259 219H502.68L503.657 213.131C503.975 211.239 503.015 210.159 501.401 210.159C500.117 210.159 499.015 210.807 498.498 211.812H498.407C498.288 210.801 497.498 210.159 496.316 210.159C495.129 210.159 494.134 210.784 493.6 211.812H493.504L493.754 210.273H491.452L489.998 219ZM508.529 219.17C511.165 219.17 513.092 217.375 513.529 214.705C513.972 211.989 512.62 210.159 509.961 210.159C507.319 210.159 505.393 211.949 504.961 214.631C504.512 217.341 505.864 219.17 508.529 219.17ZM508.773 217.295C507.58 217.295 507.154 216.193 507.398 214.693C507.648 213.153 508.489 212.006 509.717 212.006C510.91 212.006 511.33 213.114 511.092 214.619C510.836 216.159 509.995 217.295 508.773 217.295ZM514.387 219H516.808L517.62 214.062C517.813 212.989 518.717 212.25 519.773 212.25C520.12 212.25 520.569 212.307 520.779 212.381L521.143 210.227C520.933 210.176 520.643 210.148 520.398 210.148C519.421 210.148 518.523 210.716 518.023 211.795H517.933L518.188 210.273H515.842L514.387 219ZM524.482 219.17C526.653 219.17 528.261 218.119 528.88 216.5L526.67 216.352C526.312 217.017 525.63 217.364 524.823 217.364C523.585 217.364 522.965 216.693 523.187 215.318L523.198 215.256H529.141L529.249 214.591C529.744 211.625 528.198 210.159 525.886 210.159C523.317 210.159 521.352 211.983 520.903 214.676C520.437 217.443 521.795 219.17 524.482 219.17ZM523.471 213.756C523.675 212.795 524.602 211.966 525.641 211.966C526.687 211.966 527.272 212.716 527.102 213.756H523.471Z" fill="#44958E"/>
<rect x="360.567" y="70.2876" width="101.991" height="3.85021" rx="1.9251" fill="white"/>
<rect opacity="0.5" x="344.5" y="33.4417" width="101.96" height="8" rx="4" fill="white"/>
<rect opacity="0.5" x="344.5" y="45.4404" width="62.9754" height="5" rx="2.5" fill="white"/>
<path fill-rule="evenodd" clip-rule="evenodd" d="M344.21 72.2126C344.21 75.4019 346.795 77.9873 349.983 77.9873C353.171 77.9873 355.756 75.4019 355.756 72.2126C355.756 69.0234 353.171 66.438 349.983 66.438C346.795 66.438 344.21 69.0234 344.21 72.2126ZM352.718 70.8705C352.933 70.6354 352.917 70.2701 352.682 70.0546C352.447 69.8391 352.082 69.8549 351.867 70.09L349.138 73.0679L348.117 71.843C347.913 71.598 347.549 71.5648 347.304 71.769C347.059 71.9732 347.026 72.3373 347.23 72.5823L348.674 74.3147C348.78 74.4427 348.937 74.5184 349.103 74.5223C349.27 74.5263 349.43 74.4581 349.543 74.3352L352.718 70.8705Z" fill="white"/>
<rect x="360.567" y="86.6494" width="97.1799" height="3.85021" rx="1.9251" fill="white"/>
<path fill-rule="evenodd" clip-rule="evenodd" d="M344.209 88.574C344.209 91.7632 346.794 94.3486 349.983 94.3486C353.171 94.3486 355.756 91.7632 355.756 88.574C355.756 85.3847 353.171 82.7993 349.983 82.7993C346.794 82.7993 344.209 85.3847 344.209 88.574ZM352.717 87.2318C352.933 86.9967 352.917 86.6314 352.682 86.4159C352.447 86.2004 352.082 86.2163 351.866 86.4514L349.137 89.4292L348.117 88.2043C347.913 87.9593 347.549 87.9262 347.304 88.1303C347.059 88.3345 347.026 88.6986 347.23 88.9437L348.673 90.676C348.78 90.804 348.936 90.8797 349.103 90.8837C349.269 90.8876 349.43 90.8194 349.542 90.6966L352.717 87.2318Z" fill="white"/>
<rect x="360.567" y="103.011" width="97.1799" height="3.85021" rx="1.9251" fill="white"/>
<path fill-rule="evenodd" clip-rule="evenodd" d="M344.209 104.935C344.209 108.125 346.794 110.71 349.983 110.71C353.171 110.71 355.756 108.125 355.756 104.935C355.756 101.746 353.171 99.1606 349.983 99.1606C346.794 99.1606 344.209 101.746 344.209 104.935ZM352.717 103.593C352.933 103.358 352.917 102.993 352.682 102.777C352.447 102.562 352.082 102.578 351.866 102.813L349.137 105.791L348.117 104.566C347.913 104.321 347.549 104.288 347.304 104.492C347.059 104.696 347.026 105.06 347.23 105.305L348.673 107.037C348.78 107.165 348.936 107.241 349.103 107.245C349.269 107.249 349.43 107.181 349.542 107.058L352.717 103.593Z" fill="white"/>
<rect x="360.567" y="119.373" width="82.7472" height="3.85021" rx="1.9251" fill="#44958E"/>
<path fill-rule="evenodd" clip-rule="evenodd" d="M350 128C346.134 128 343 124.866 343 121C343 117.134 346.134 114 350 114C353.866 114 357 117.134 357 121C357 124.866 353.866 128 350 128ZM350 115.4C346.907 115.4 344.4 117.907 344.4 121C344.4 124.093 346.907 126.6 350 126.6C353.093 126.6 355.6 124.093 355.6 121C355.6 117.907 353.093 115.4 350 115.4ZM352.595 118.405C352.868 118.678 352.868 119.122 352.595 119.395L350.99 121L352.595 122.605C352.868 122.878 352.868 123.322 352.595 123.595C352.322 123.868 351.878 123.868 351.605 123.595L350 121.99L348.395 123.595C348.122 123.868 347.678 123.868 347.405 123.595C347.132 123.322 347.132 122.878 347.405 122.605L349.01 121L347.405 119.395C347.132 119.122 347.132 118.678 347.405 118.405C347.678 118.132 348.122 118.132 348.395 118.405L350 120.01L351.605 118.405C351.878 118.132 352.322 118.132 352.595 118.405Z" fill="white"/>
<rect x="360.567" y="135.734" width="110.65" height="3.85021" rx="1.9251" fill="white"/>
<path fill-rule="evenodd" clip-rule="evenodd" d="M344.209 137.659C344.209 140.848 346.794 143.433 349.983 143.433C353.171 143.433 355.756 140.848 355.756 137.659C355.756 134.469 353.171 131.884 349.983 131.884C346.794 131.884 344.209 134.469 344.209 137.659ZM352.717 136.316C352.933 136.081 352.917 135.716 352.682 135.501C352.447 135.285 352.082 135.301 351.866 135.536L349.137 138.514L348.117 137.289C347.913 137.044 347.549 137.011 347.304 137.215C347.059 137.419 347.026 137.783 347.23 138.028L348.673 139.761C348.78 139.889 348.936 139.964 349.103 139.968C349.269 139.972 349.43 139.904 349.542 139.781L352.717 136.316Z" fill="white"/>
<rect x="360.567" y="152.095" width="97.1799" height="3.85021" rx="1.9251" fill="white"/>
<path fill-rule="evenodd" clip-rule="evenodd" d="M344.209 154.02C344.209 157.209 346.794 159.795 349.983 159.795C353.171 159.795 355.756 157.209 355.756 154.02C355.756 150.831 353.171 148.245 349.983 148.245C346.794 148.245 344.209 150.831 344.209 154.02ZM352.717 152.678C352.933 152.443 352.917 152.077 352.682 151.862C352.447 151.646 352.082 151.662 351.866 151.897L349.137 154.875L348.117 153.65C347.913 153.405 347.549 153.372 347.304 153.576C347.059 153.781 347.026 154.145 347.23 154.39L348.673 156.122C348.78 156.25 348.936 156.326 349.103 156.33C349.269 156.334 349.43 156.265 349.542 156.143L352.717 152.678Z" fill="white"/>
<rect x="360.567" y="168.457" width="102.953" height="3.85021" rx="1.9251" fill="white"/>
<path fill-rule="evenodd" clip-rule="evenodd" d="M344.209 170.382C344.209 173.571 346.794 176.156 349.983 176.156C353.171 176.156 355.756 173.571 355.756 170.382C355.756 167.192 353.171 164.607 349.983 164.607C346.794 164.607 344.209 167.192 344.209 170.382ZM352.717 169.039C352.933 168.804 352.917 168.439 352.682 168.224C352.447 168.008 352.082 168.024 351.866 168.259L349.137 171.237L348.117 170.012C347.913 169.767 347.549 169.734 347.304 169.938C347.059 170.142 347.026 170.506 347.23 170.751L348.673 172.484C348.78 172.612 348.936 172.687 349.103 172.691C349.269 172.695 349.43 172.627 349.542 172.504L352.717 169.039Z" fill="white"/>
<ellipse cx="218.005" cy="467" rx="69" ry="4" fill="#C4C4C4"/>
<path d="M223.383 187.551L222.573 169.613L203.181 162.484L204.281 187.271L188.467 193.891L222.224 211.239L238.977 190.601L223.383 187.551Z" fill="#FBA43F"/>
<g style="mix-blend-mode:multiply" opacity="0.2">
<path d="M203.96 180.092L203.181 162.474L222.573 169.613L223.313 185.981C216.614 184.953 210.097 182.969 203.96 180.092Z" fill="#FBA43F"/>
</g>
<path d="M203.981 169.853C203.981 169.853 210.858 183.642 226.542 180.852C237.587 178.912 238.417 163.294 236.848 147.856C234.399 123.799 226.552 122.859 214.796 124.629C188.177 128.738 203.981 169.853 203.981 169.853Z" fill="#FBA43F"/>
<path d="M197.363 127.108C201.411 130.708 201.741 127.948 205.66 131.688C211.897 143.516 204.12 148.076 204.12 148.076L205 156.595L201.691 157.695L203.351 167.293C203.351 167.293 196.043 159.134 192.405 142.826C189.696 130.658 193.604 126.978 197.363 127.108Z" fill="#35495E"/>
<path d="M207.969 141.506C201.211 140.997 194.974 137.187 192.095 131.348C191.305 133.807 191.215 137.497 192.405 142.826C196.043 159.134 203.351 167.294 203.351 167.294L201.691 157.695L205 156.595L204.11 148.076C205.189 147.324 206.093 146.348 206.759 145.214C207.425 144.08 207.838 142.815 207.969 141.506Z" fill="#213344"/>
<path d="M203.181 163.914L200.962 149.286C200.962 149.286 195.514 147.956 195.194 152.835C194.874 157.715 198.523 163.624 203.181 163.914Z" fill="#FBA43F"/>
<path d="M202.112 134.707C202.112 134.707 216.206 140.707 227.212 133.978L221.934 133.238C221.934 133.238 233.529 132.358 237.048 125.309L233.679 126.778C233.679 126.778 239.107 121.199 234.559 114.89C234.559 114.89 234.699 117.529 232.939 118.889C231.18 120.249 207.949 107.581 200.202 118.739C192.455 129.898 202.112 134.707 202.112 134.707Z" fill="#35495E"/>
<path d="M201.632 161.444C201.113 161.432 200.599 161.334 200.112 161.154C199.854 161.059 199.607 160.938 199.372 160.794C199.106 160.635 198.88 160.416 198.713 160.154C198.505 159.843 198.419 159.465 198.473 159.095C198.482 158.993 198.502 158.892 198.533 158.795L198.593 158.615C198.593 158.495 198.663 158.395 198.733 158.255C198.803 158.115 198.893 157.955 198.983 157.805C199.088 157.665 199.205 157.535 199.332 157.415C199.482 157.286 199.651 157.182 199.832 157.105C200.066 157.006 200.322 156.975 200.572 157.015L199.742 157.715C199.642 156.515 199.552 155.265 199.352 154.095C199.306 153.808 199.242 153.525 199.163 153.245C199.103 152.994 199.001 152.754 198.863 152.535C198.812 152.444 198.733 152.373 198.636 152.333C198.54 152.293 198.433 152.287 198.333 152.315C198.045 152.409 197.774 152.551 197.533 152.735C197.668 152.42 197.881 152.145 198.153 151.935C198.322 151.808 198.531 151.744 198.743 151.755C198.969 151.76 199.188 151.841 199.362 151.985C199.657 152.223 199.898 152.519 200.072 152.855C200.225 153.161 200.362 153.475 200.482 153.795C200.872 155.046 201.087 156.345 201.122 157.655L200.302 158.365C200.412 158.365 200.302 158.365 200.302 158.365L200.172 158.435C200.122 158.435 200.072 158.535 200.012 158.575L199.872 158.765C199.807 158.863 199.75 158.967 199.702 159.075L199.622 159.245C199.622 159.245 199.622 159.245 199.622 159.295C199.608 159.35 199.608 159.409 199.622 159.465C199.609 159.531 199.609 159.599 199.622 159.665C199.691 159.842 199.793 160.005 199.922 160.144C200.079 160.308 200.246 160.461 200.422 160.604C200.806 160.911 201.21 161.192 201.632 161.444Z" fill="#C66258"/>
<path d="M234.099 435.293C234.448 436.293 235.478 468.019 237.207 468.369C238.937 468.719 306.001 476.368 247.593 460.1L250.342 406.246L234.099 435.293Z" fill="#FBA43F"/>
<path d="M235.318 461.37C235.318 461.37 236.168 469.429 237.227 469.429C238.287 469.429 270.494 472.819 271.984 469.639C273.473 466.459 250.152 460.1 250.152 460.1L247.153 463.92L235.318 461.37Z" fill="#347474"/>
<path d="M270.714 467.719C269.305 470.719 239.926 467.809 236.317 467.529C236.587 468.619 236.907 469.419 237.237 469.419C238.297 469.419 270.504 472.809 271.993 469.629C272.243 469.079 271.724 468.419 270.714 467.719Z" fill="white"/>
<path d="M207.449 435.293C207.109 436.293 206.079 468.019 204.35 468.369C202.621 468.719 135.547 476.368 193.964 460.1L191.205 406.246L207.449 435.293Z" fill="#FBA43F"/>
<path d="M206.25 461.37C206.25 461.37 205.41 469.429 204.35 469.429C203.291 469.429 171.073 472.819 169.594 469.639C168.115 466.459 191.415 460.1 191.415 460.1L194.414 463.92L206.25 461.37Z" fill="#347474"/>
<path d="M170.863 467.719C172.283 470.719 201.651 467.809 205.26 467.529C204.99 468.619 204.68 469.419 204.35 469.419C203.291 469.419 171.073 472.809 169.594 469.629C169.334 469.079 169.854 468.419 170.863 467.719Z" fill="white"/>
<path d="M190.786 292.589C190.786 292.589 186.997 404.096 189.526 449.651C189.526 449.651 195.204 456.45 209.709 450.331L225.472 321.826L233.039 450.331C233.039 450.331 240.606 455.77 250.702 448.971L256.37 280.351L190.786 292.589Z" fill="#35495E"/>
<path opacity="0.5" d="M225.602 323.956L233.039 450.301C233.039 450.301 240.606 455.74 250.702 448.941L255.25 313.627L225.602 323.956Z" fill="#213344"/>
<path opacity="0.5" d="M255.87 295.299L256.37 280.351L190.786 292.589C190.786 292.589 190.686 295.449 190.536 300.428C232.169 317.286 247.443 301.238 255.87 295.299Z" fill="#213344"/>
<path d="M202.611 186.711L217.026 195.85L223.403 208.119L229.641 187.251C229.641 187.251 247.164 187.141 254.021 194.85C260.878 202.559 257.02 290.419 257.02 290.419L231.63 304.128L228.311 292.959L227.451 304.748L188.257 293.819C188.257 293.819 179.84 199.65 186.967 193.54C192.965 188.421 202.611 186.711 202.611 186.711Z" fill="#63B7AF"/>
<path opacity="0.2" d="M188.187 212.578C186.837 212.768 185.488 212.928 184.138 213.078C183.658 242.375 188.257 293.849 188.257 293.849L227.451 304.778L228.311 292.989L231.63 304.128L257.02 290.419C257.02 290.419 257.739 273.931 258.019 254.624C250.717 253.05 243.57 250.821 236.668 247.964C218.405 240.485 197.363 230.966 188.187 212.578Z" fill="#213344"/>
<path d="M190.616 273.271C190.616 273.271 212.887 269.842 190.186 270.272C190.186 270.272 185.898 269.842 182.039 277.131L177.841 270.292C174.572 273.335 171.124 276.18 167.515 278.811C174.652 284.65 180.76 288.46 182.899 287.81C188.897 286.09 188.897 282.66 188.897 282.66C188.897 282.66 209.889 296.379 189.756 280.52C189.756 280.52 215.037 291.229 190.616 276.661C190.616 276.701 219.315 282.7 190.616 273.271Z" fill="#FBA43F"/>
<path d="M200.442 186.552C200.442 186.552 180.45 192.721 175.451 195.361C170.453 198 131.449 231.186 134.138 239.705C136.827 248.224 155.869 274.071 171.723 284.64L181.409 274.071L159.678 242.075C159.678 242.075 191.975 220.638 192.565 216.228C193.155 211.819 200.442 186.552 200.442 186.552Z" fill="#63B7AF"/>
<path d="M166.675 282.59L172.842 286.41L182.828 274.071L179.01 268.202L166.675 282.59Z" fill="#80CEC4"/>
<path d="M200.442 186.552C200.442 186.552 180.45 192.721 175.451 195.361C170.453 198 131.449 231.186 134.138 239.705C136.827 248.224 155.869 274.071 171.723 284.64L181.409 274.071L159.678 242.075C159.678 242.075 191.975 220.638 192.565 216.228C193.155 211.819 200.442 186.552 200.442 186.552Z" fill="#63B7AF"/>
<path d="M166.675 282.59L172.842 286.41L182.828 274.071L179.01 268.202L166.675 282.59Z" fill="#80CEC4"/>
<path d="M249.173 272.701C249.173 272.701 226.682 271.232 249.333 269.702C249.333 269.702 253.571 268.902 258.04 275.831L261.638 268.642C265.143 271.397 268.815 273.931 272.634 276.231C266.086 282.65 260.309 286.96 258.089 286.54C251.972 285.36 251.672 281.94 251.672 281.94C251.672 281.94 231.95 297.439 250.672 279.881C250.672 279.881 226.422 292.759 249.483 276.121C249.473 276.121 221.394 284.6 249.173 272.701Z" fill="#FBA43F"/>
<path d="M231.819 187.161C231.819 187.161 252.241 191.571 257.449 193.761C262.657 195.95 304.431 225.617 302.552 234.336C300.672 243.055 283.909 270.462 269.085 282.38L258.509 272.692L277.362 238.905C277.362 238.905 243.315 220.358 242.375 216.018C241.436 211.679 231.819 187.161 231.819 187.161Z" fill="#63B7AF"/>
<path d="M273.823 279.891L268.015 284.24L256.99 272.822L260.288 266.632L273.823 279.891Z" fill="#80CEC4"/>
<path d="M231.819 187.161C231.819 187.161 252.241 191.571 257.449 193.761C262.657 195.95 304.431 225.617 302.552 234.336C300.672 243.055 283.909 270.462 269.085 282.38L258.509 272.692L277.362 238.905C277.362 238.905 243.315 220.358 242.375 216.018C241.436 211.679 231.819 187.161 231.819 187.161Z" fill="#63B7AF"/>
<path d="M273.823 279.891L268.015 284.24L256.99 272.822L260.288 266.632L273.823 279.891Z" fill="#80CEC4"/>
<path d="M222.743 212.638C222.743 213.02 222.856 213.393 223.068 213.711C223.28 214.028 223.582 214.276 223.934 214.422C224.287 214.568 224.675 214.606 225.049 214.531C225.423 214.457 225.767 214.273 226.037 214.003C226.306 213.733 226.49 213.389 226.565 213.015C226.639 212.641 226.601 212.253 226.455 211.9C226.309 211.547 226.061 211.246 225.744 211.034C225.427 210.822 225.054 210.708 224.672 210.708C224.161 210.708 223.67 210.912 223.308 211.274C222.946 211.636 222.743 212.127 222.743 212.638Z" fill="#80CEC4"/>
<path d="M226.812 286.56C226.812 286.942 226.925 287.315 227.137 287.633C227.349 287.95 227.65 288.197 228.002 288.343C228.355 288.49 228.743 288.528 229.117 288.453C229.491 288.379 229.835 288.195 230.105 287.925C230.375 287.655 230.559 287.311 230.633 286.937C230.707 286.563 230.669 286.174 230.523 285.822C230.377 285.469 230.13 285.168 229.813 284.956C229.495 284.744 229.122 284.63 228.741 284.63C228.229 284.63 227.738 284.834 227.377 285.196C227.015 285.558 226.812 286.048 226.812 286.56Z" fill="#80CEC4"/>
<path d="M226.381 268.342C226.379 268.724 226.491 269.098 226.702 269.417C226.912 269.736 227.213 269.985 227.565 270.132C227.918 270.28 228.306 270.32 228.681 270.246C229.056 270.173 229.4 269.99 229.671 269.72C229.942 269.451 230.127 269.107 230.202 268.732C230.277 268.358 230.24 267.969 230.094 267.616C229.948 267.263 229.701 266.961 229.383 266.748C229.066 266.536 228.693 266.422 228.311 266.422C227.801 266.422 227.311 266.624 226.95 266.984C226.588 267.344 226.384 267.832 226.381 268.342Z" fill="#80CEC4"/>
<path d="M226.381 249.274C226.381 249.656 226.494 250.029 226.706 250.347C226.918 250.664 227.22 250.911 227.572 251.058C227.925 251.204 228.313 251.242 228.687 251.167C229.061 251.093 229.405 250.909 229.675 250.639C229.945 250.369 230.128 250.025 230.203 249.651C230.277 249.277 230.239 248.889 230.093 248.536C229.947 248.183 229.7 247.882 229.382 247.67C229.065 247.458 228.692 247.344 228.311 247.344C227.799 247.344 227.308 247.548 226.946 247.91C226.585 248.272 226.381 248.763 226.381 249.274Z" fill="#80CEC4"/>
<path d="M226.732 230.747C227.797 230.747 228.661 229.883 228.661 228.817C228.661 227.751 227.797 226.887 226.732 226.887C225.666 226.887 224.803 227.751 224.803 228.817C224.803 229.883 225.666 230.747 226.732 230.747Z" fill="#80CEC4"/>
<path d="M230.4 184.542L224.512 195.71L223.613 207.909L226.312 198.27L230.67 201.93L234.099 187.571L230.4 184.542Z" fill="#80CEC4"/>
<path d="M223.403 208.119L217.436 195.15L201.752 181.352L197.463 187.351L213.107 204.279L216.956 196.35L223.403 208.119Z" fill="#80CEC4"/>
<path fill-rule="evenodd" clip-rule="evenodd" d="M487.063 278.195C486.511 278.195 486.063 278.643 486.063 279.195V286.293C486.063 286.794 485.691 287.216 485.196 287.294C479.567 288.187 474.377 290.403 469.955 293.612C469.55 293.907 468.989 293.871 468.634 293.516L463.616 288.496C463.225 288.106 462.592 288.106 462.201 288.496L456.906 293.793C456.515 294.184 456.515 294.817 456.906 295.207L461.925 300.228C462.279 300.582 462.315 301.143 462.021 301.548C458.812 305.971 456.598 311.163 455.705 316.794C455.626 317.289 455.204 317.661 454.703 317.661H447.608C447.056 317.661 446.608 318.108 446.608 318.661V326.152C446.608 326.705 447.056 327.152 447.608 327.152H454.703C455.204 327.152 455.626 327.524 455.705 328.019C456.598 333.651 458.812 338.842 462.021 343.265C462.315 343.671 462.279 344.232 461.925 344.586L456.905 349.606C456.515 349.997 456.515 350.63 456.905 351.02L462.201 356.317C462.592 356.708 463.225 356.708 463.615 356.317L468.634 351.297C468.988 350.943 469.549 350.907 469.955 351.201C474.377 354.411 479.566 356.626 485.196 357.519C485.691 357.598 486.063 358.02 486.063 358.521V365.618C486.063 366.171 486.511 366.618 487.063 366.618H494.552C495.104 366.618 495.552 366.171 495.552 365.618V358.521C495.552 358.02 495.923 357.598 496.418 357.519C502.048 356.626 507.238 354.411 511.659 351.201C512.065 350.907 512.626 350.943 512.98 351.297L517.999 356.317C518.389 356.708 519.023 356.708 519.413 356.317L524.709 351.02C525.099 350.63 525.099 349.997 524.709 349.606L519.69 344.585C519.335 344.231 519.299 343.67 519.593 343.265C522.802 338.842 525.017 333.651 525.91 328.019C525.988 327.524 526.41 327.152 526.912 327.152H534.006C534.559 327.152 535.006 326.705 535.006 326.152V318.661C535.006 318.108 534.559 317.661 534.006 317.661H526.912C526.41 317.661 525.988 317.289 525.91 316.794C525.017 311.163 522.802 305.971 519.593 301.548C519.299 301.143 519.335 300.582 519.689 300.228L524.709 295.207C525.099 294.817 525.099 294.184 524.709 293.793L519.413 288.496C519.022 288.106 518.389 288.106 517.999 288.496L512.98 293.516C512.626 293.871 512.065 293.907 511.659 293.612C507.238 290.403 502.048 288.187 496.418 287.294C495.923 287.216 495.552 286.794 495.552 286.293V279.195C495.552 278.643 495.104 278.195 494.552 278.195H487.063ZM490.808 350.07C506.081 350.07 518.463 337.685 518.463 322.407C518.463 307.129 506.081 294.744 490.808 294.744C475.534 294.744 463.153 307.129 463.153 322.407C463.153 337.685 475.534 350.07 490.808 350.07Z" fill="#44958E"/>
<path fill-rule="evenodd" clip-rule="evenodd" d="M483.77 278.195C483.218 278.195 482.77 278.643 482.77 279.195V286.293C482.77 286.794 482.399 287.216 481.904 287.294C476.274 288.187 471.084 290.403 466.663 293.612C466.257 293.907 465.696 293.871 465.342 293.516L460.323 288.496C459.933 288.106 459.299 288.106 458.909 288.496L453.613 293.793C453.223 294.184 453.223 294.817 453.613 295.207L458.632 300.228C458.987 300.582 459.023 301.143 458.729 301.548C455.52 305.971 453.305 311.163 452.412 316.794C452.334 317.289 451.912 317.661 451.41 317.661H444.315C443.763 317.661 443.315 318.108 443.315 318.661V326.152C443.315 326.705 443.763 327.152 444.315 327.152H451.41C451.912 327.152 452.334 327.524 452.412 328.019C453.305 333.651 455.52 338.842 458.729 343.265C459.023 343.671 458.987 344.232 458.632 344.586L453.613 349.606C453.223 349.997 453.223 350.63 453.613 351.02L458.909 356.317C459.299 356.708 459.932 356.708 460.323 356.317L465.342 351.297C465.696 350.943 466.257 350.907 466.662 351.201C471.084 354.411 476.274 356.626 481.904 357.519C482.399 357.598 482.77 358.02 482.77 358.521V365.618C482.77 366.171 483.218 366.618 483.77 366.618H491.259C491.812 366.618 492.259 366.171 492.259 365.618V358.521C492.259 358.02 492.631 357.598 493.126 357.519C498.756 356.626 503.945 354.411 508.367 351.201C508.772 350.907 509.333 350.943 509.688 351.297L514.706 356.317C515.097 356.708 515.73 356.708 516.121 356.317L521.416 351.02C521.807 350.63 521.807 349.997 521.416 349.606L516.397 344.585C516.043 344.231 516.007 343.67 516.301 343.265C519.51 338.842 521.724 333.651 522.617 328.019C522.696 327.524 523.118 327.152 523.619 327.152H530.714C531.266 327.152 531.714 326.705 531.714 326.152V318.661C531.714 318.108 531.266 317.661 530.714 317.661H523.619C523.118 317.661 522.696 317.289 522.617 316.794C521.724 311.163 519.509 305.971 516.301 301.548C516.007 301.143 516.043 300.582 516.397 300.228L521.416 295.207C521.807 294.817 521.807 294.184 521.416 293.793L516.12 288.496C515.73 288.106 515.097 288.106 514.706 288.496L509.688 293.516C509.333 293.871 508.772 293.907 508.367 293.612C503.945 290.403 498.756 288.187 493.126 287.294C492.631 287.216 492.259 286.794 492.259 286.293V279.195C492.259 278.643 491.812 278.195 491.259 278.195H483.77ZM487.515 350.07C502.788 350.07 515.17 337.685 515.17 322.407C515.17 307.129 502.788 294.744 487.515 294.744C472.241 294.744 459.86 307.129 459.86 322.407C459.86 337.685 472.241 350.07 487.515 350.07Z" fill="#63B7AF"/>
<path fill-rule="evenodd" clip-rule="evenodd" d="M234.966 46.0466C234.414 46.0466 233.966 46.4943 233.966 47.0466V49.5802C233.966 50.0814 233.594 50.502 233.102 50.5932C230.656 51.0455 228.389 52.0078 226.415 53.3655C226.002 53.6494 225.442 53.6146 225.087 53.2603L223.296 51.4681C222.905 51.0775 222.272 51.0775 221.881 51.4681L219.998 53.3516C219.608 53.7421 219.608 54.3751 219.998 54.7656L221.791 56.5584C222.145 56.9127 222.179 57.4725 221.896 57.8853C220.538 59.8601 219.576 62.128 219.124 64.5748C219.033 65.0676 218.612 65.4393 218.111 65.4393H215.579C215.026 65.4393 214.579 65.887 214.579 66.4393V69.1033C214.579 69.6556 215.026 70.1033 215.579 70.1033H218.111C218.612 70.1033 219.033 70.4751 219.124 70.9679C219.576 73.4147 220.538 75.6827 221.896 77.6576C222.179 78.0704 222.145 78.6302 221.791 78.9844L219.998 80.7773C219.608 81.1678 219.608 81.8008 219.998 82.1913L221.881 84.0748C222.272 84.4654 222.905 84.4654 223.296 84.0748L225.087 82.2826C225.441 81.9283 226.002 81.8935 226.414 82.1774C228.389 83.5351 230.656 84.4974 233.102 84.9497C233.594 85.0409 233.966 85.4615 233.966 85.9627V88.4962C233.966 89.0485 234.414 89.4962 234.966 89.4962H237.629C238.181 89.4962 238.629 89.0485 238.629 88.4962V85.9627C238.629 85.4615 239.001 85.0409 239.493 84.9497C241.939 84.4973 244.206 83.5351 246.18 82.1774C246.593 81.8935 247.153 81.9283 247.508 82.2826L249.299 84.0747C249.69 84.4654 250.323 84.4654 250.714 84.0747L252.597 82.1911C252.987 81.8006 252.987 81.1676 252.597 80.7771L250.804 78.9842C250.45 78.63 250.415 78.0701 250.699 77.6574C252.057 75.6826 253.019 73.4147 253.471 70.9679C253.562 70.4751 253.983 70.1033 254.484 70.1033H257.016C257.568 70.1033 258.016 69.6556 258.016 69.1033V66.4393C258.016 65.887 257.568 65.4393 257.016 65.4393H254.484C253.983 65.4393 253.562 65.0676 253.471 64.5748C253.019 62.128 252.056 59.8601 250.699 57.8853C250.415 57.4725 250.45 56.9127 250.804 56.5584L252.597 54.7656C252.987 54.3751 252.987 53.7421 252.596 53.3516L250.714 51.4681C250.323 51.0775 249.69 51.0775 249.299 51.4681L247.508 53.2602C247.153 53.6146 246.593 53.6494 246.18 53.3654C244.206 52.0078 241.939 51.0455 239.493 50.5932C239.001 50.502 238.629 50.0814 238.629 49.5802V47.0466C238.629 46.4943 238.181 46.0466 237.629 46.0466H234.966ZM236.297 81.3654C243.802 81.3654 249.886 75.2796 249.886 67.7724C249.886 60.2652 243.802 54.1794 236.297 54.1794C228.792 54.1794 222.708 60.2652 222.708 67.7724C222.708 75.2796 228.792 81.3654 236.297 81.3654Z" fill="#63B7AF"/>
<path opacity="0.4" fill-rule="evenodd" clip-rule="evenodd" d="M274.405 140.45C273.852 140.45 273.405 140.897 273.405 141.45V142.065C273.405 142.567 273.032 142.985 272.543 143.095C271.431 143.346 270.39 143.784 269.456 144.375C269.032 144.643 268.473 144.611 268.119 144.256L267.683 143.821C267.293 143.43 266.659 143.43 266.269 143.821L265.82 144.27C265.43 144.66 265.43 145.293 265.82 145.684L266.256 146.12C266.61 146.474 266.643 147.033 266.375 147.457C265.784 148.392 265.346 149.433 265.095 150.546C264.985 151.035 264.567 151.407 264.065 151.407H263.45C262.898 151.407 262.45 151.855 262.45 152.407V153.043C262.45 153.595 262.898 154.042 263.45 154.042H264.065C264.567 154.042 264.985 154.415 265.095 154.904C265.346 156.017 265.784 157.058 266.375 157.993C266.643 158.417 266.61 158.975 266.256 159.33L265.82 159.766C265.429 160.157 265.429 160.79 265.82 161.18L266.269 161.629C266.659 162.02 267.293 162.02 267.683 161.629L268.119 161.193C268.473 160.839 269.032 160.807 269.456 161.074C270.39 161.666 271.431 162.104 272.543 162.355C273.032 162.465 273.405 162.883 273.405 163.384V164C273.405 164.552 273.852 165 274.405 165H275.039C275.592 165 276.039 164.552 276.039 164V163.384C276.039 162.883 276.412 162.465 276.901 162.355C278.013 162.104 279.054 161.666 279.988 161.074C280.412 160.807 280.971 160.839 281.325 161.193L281.761 161.629C282.151 162.02 282.785 162.02 283.175 161.629L283.624 161.18C284.015 160.789 284.015 160.156 283.624 159.766L283.188 159.33C282.834 158.975 282.801 158.417 283.069 157.993C283.66 157.058 284.098 156.017 284.349 154.904C284.459 154.415 284.877 154.042 285.379 154.042H285.994C286.546 154.042 286.994 153.595 286.994 153.042V152.407C286.994 151.855 286.546 151.407 285.994 151.407H285.379C284.877 151.407 284.459 151.035 284.349 150.546C284.098 149.433 283.66 148.392 283.069 147.457C282.801 147.033 282.834 146.474 283.188 146.12L283.624 145.684C284.014 145.293 284.014 144.66 283.624 144.27L283.175 143.821C282.785 143.43 282.151 143.43 281.761 143.821L281.325 144.256C280.971 144.611 280.412 144.643 279.988 144.375C279.054 143.784 278.013 143.346 276.901 143.095C276.412 142.985 276.039 142.567 276.039 142.065V141.45C276.039 140.897 275.592 140.45 275.039 140.45H274.405ZM274.722 160.406C278.963 160.406 282.4 156.967 282.4 152.725C282.4 148.484 278.963 145.045 274.722 145.045C270.481 145.045 267.044 148.484 267.044 152.725C267.044 156.967 270.481 160.406 274.722 160.406Z" fill="#63B7AF"/>
<path opacity="0.4" fill-rule="evenodd" clip-rule="evenodd" d="M56.9776 120C56.4253 120 55.9776 120.448 55.9776 121V131.854C55.9776 132.356 55.6063 132.778 55.1108 132.853C46.8576 134.101 39.2602 137.35 32.8287 142.089C32.4254 142.387 31.8642 142.35 31.5099 141.996L23.8345 134.318C23.444 133.927 22.8107 133.927 22.4202 134.318L14.3148 142.425C13.9244 142.816 13.9244 143.449 14.3148 143.839L21.9909 151.518C22.345 151.872 22.3815 152.433 22.0845 152.836C17.346 159.269 14.0983 166.869 12.851 175.125C12.7761 175.62 12.3534 175.991 11.8522 175.991H1.00098C0.448692 175.991 0.000976562 176.439 0.000976562 176.991V188.458C0.000976562 189.01 0.448692 189.458 1.00098 189.458H11.8522C12.3534 189.458 12.7761 189.829 12.851 190.324C14.0983 198.58 17.346 206.18 22.0845 212.614C22.3815 213.017 22.345 213.578 21.9908 213.932L14.3145 221.61C13.9241 222.001 13.9241 222.634 14.3145 223.024L22.4198 231.131C22.8104 231.522 23.4437 231.522 23.8342 231.131L31.5096 223.454C31.8639 223.1 32.425 223.063 32.8284 223.36C39.2599 228.1 46.8573 231.349 55.1108 232.596C55.6063 232.671 55.9776 233.094 55.9776 233.595V244.45C55.9776 245.002 56.4253 245.45 56.9776 245.45H68.44C68.9923 245.45 69.44 245.002 69.44 244.45V233.595C69.44 233.094 69.8113 232.671 70.3068 232.596C78.56 231.349 86.157 228.1 92.5882 223.36C92.9916 223.063 93.5528 223.1 93.9071 223.454L101.582 231.131C101.973 231.522 102.606 231.522 102.997 231.131L111.102 223.024C111.493 222.633 111.493 222 111.102 221.61L103.426 213.931C103.072 213.577 103.035 213.016 103.332 212.613C108.071 206.179 111.319 198.58 112.566 190.324C112.641 189.829 113.064 189.458 113.565 189.458H124.416C124.968 189.458 125.416 189.01 125.416 188.458V176.991C125.416 176.439 124.968 175.991 124.416 175.991H113.565C113.064 175.991 112.641 175.62 112.566 175.125C111.319 166.869 108.071 159.269 103.332 152.836C103.035 152.433 103.072 151.872 103.426 151.518L111.102 143.839C111.492 143.449 111.492 142.816 111.102 142.425L102.996 134.318C102.606 133.927 101.973 133.927 101.582 134.318L93.9071 141.996C93.5528 142.35 92.9916 142.387 92.5882 142.089C86.157 137.35 78.5597 134.101 70.3068 132.853C69.8113 132.778 69.44 132.356 69.44 131.854V121C69.44 120.448 68.9923 120 68.44 120H56.9776ZM62.7074 221.973C84.3765 221.973 101.943 204.402 101.943 182.727C101.943 161.052 84.3765 143.481 62.7074 143.481C41.0383 143.481 23.472 161.052 23.472 182.727C23.472 204.402 41.0383 221.973 62.7074 221.973Z" fill="#63B7AF"/>
<defs>
<filter id="filter0_d_4182_1586" x="405" y="191" width="157" height="52" filterUnits="userSpaceOnUse" color-interpolation-filters="sRGB">
<feFlood flood-opacity="0" result="BackgroundImageFix"/>
<feColorMatrix in="SourceAlpha" type="matrix" values="0 0 0 0 0 0 0 0 0 0 0 0 0 0 0 0 0 0 127 0" result="hardAlpha"/>
<feOffset dy="4"/>
<feGaussianBlur stdDeviation="2"/>
<feComposite in2="hardAlpha" operator="out"/>
<feColorMatrix type="matrix" values="0 0 0 0 0 0 0 0 0 0 0 0 0 0 0 0 0 0 0.25 0"/>
<feBlend mode="normal" in2="BackgroundImageFix" result="effect1_dropShadow_4182_1586"/>
<feBlend mode="normal" in="SourceGraphic" in2="effect1_dropShadow_4182_1586" result="shape"/>
</filter>
</defs>
</svg>
