<svg width="85" height="59" viewBox="0 0 85 59" fill="none" xmlns="http://www.w3.org/2000/svg">
<path d="M14 39.2988V6.0172L43.5 0.0206337V58.9869L14 39.2988Z" fill="#074D4D"/>
<path d="M73 39.2988V6.0172L43.5 0.0206337V58.9869L73 39.2988Z" fill="#074D4D"/>
<g style="mix-blend-mode:multiply">
<path d="M73 39.2988V6.01719L43.4749 2.67029e-05V59L73 39.2988Z" fill="#549393"/>
</g>
<rect x="0.5" y="4.5" width="84" height="28.9828" rx="1.5" fill="#FBA43F" stroke="#F76910"/>
<g style="mix-blend-mode:multiply">
<path d="M43.2881 5.00946H83.1413C83.6936 5.00946 84.1413 5.45718 84.1413 6.00946V31.989C84.1413 32.5413 83.6936 32.989 83.1413 32.989H43.2881L43.2881 5.00946Z" fill="#FBA43F" fill-opacity="0.52"/>
</g>
<g filter="url(#filter0_d_4182_1372)">
<path d="M8.00426 24H12.1257C14.4574 24 15.6009 22.8118 15.6009 21.2258C15.6009 19.6847 14.5071 18.7798 13.4233 18.7251V18.6257C14.4176 18.392 15.2031 17.696 15.2031 16.4581C15.2031 14.9418 14.1094 13.8182 11.902 13.8182H8.00426V24ZM9.84872 22.4588V19.4758H11.8821C13.0206 19.4758 13.7266 20.1719 13.7266 21.0817C13.7266 21.892 13.1697 22.4588 11.8324 22.4588H9.84872ZM9.84872 18.1484V15.3395H11.7131C12.7969 15.3395 13.3587 15.9112 13.3587 16.6967C13.3587 17.5916 12.6328 18.1484 11.6733 18.1484H9.84872ZM20.5066 24.1491C22.2864 24.1491 23.5094 23.2791 23.8276 21.9517L22.1472 21.7628C21.9036 22.4091 21.307 22.7472 20.5314 22.7472C19.3681 22.7472 18.5975 21.9815 18.5826 20.674H23.9022V20.1222C23.9022 17.4425 22.2914 16.2642 20.4121 16.2642C18.2246 16.2642 16.7978 17.87 16.7978 20.2266C16.7978 22.6229 18.2047 24.1491 20.5066 24.1491ZM18.5875 19.4609C18.6422 18.4865 19.3631 17.6662 20.437 17.6662C21.4711 17.6662 22.1671 18.4219 22.177 19.4609H18.5875ZM31.4602 18.3821C31.2116 17.0895 30.1776 16.2642 28.3878 16.2642C26.5483 16.2642 25.2955 17.169 25.3004 18.581C25.2955 19.6946 25.9815 20.4304 27.4482 20.7337L28.7507 21.0071C29.4517 21.1612 29.7798 21.4446 29.7798 21.8771C29.7798 22.3991 29.2131 22.7919 28.358 22.7919C27.5327 22.7919 26.9957 22.4339 26.8416 21.7479L25.0866 21.9169C25.3104 23.3189 26.4886 24.1491 28.3629 24.1491C30.272 24.1491 31.6193 23.1598 31.6243 21.7131C31.6193 20.6243 30.9183 19.9581 29.4766 19.6449L28.174 19.3665C27.3984 19.1925 27.0902 18.924 27.0952 18.4815C27.0902 17.9645 27.6619 17.6065 28.4126 17.6065C29.2429 17.6065 29.6804 18.0589 29.8196 18.5611L31.4602 18.3821ZM36.9215 16.3636H35.4151V14.5341H33.6154V16.3636H32.5316V17.7557H33.6154V22.0014C33.6055 23.4382 34.6495 24.1442 36.0018 24.1044C36.5138 24.0895 36.8668 23.9901 37.0607 23.9254L36.7575 22.5185C36.658 22.5433 36.4542 22.5881 36.2305 22.5881C35.7781 22.5881 35.4151 22.429 35.4151 21.7031V17.7557H36.9215V16.3636ZM47.9348 18.3821C47.6863 17.0895 46.6522 16.2642 44.8624 16.2642C43.0229 16.2642 41.7701 17.169 41.775 18.581C41.7701 19.6946 42.4561 20.4304 43.9228 20.7337L45.2253 21.0071C45.9263 21.1612 46.2544 21.4446 46.2544 21.8771C46.2544 22.3991 45.6877 22.7919 44.8326 22.7919C44.0073 22.7919 43.4703 22.4339 43.3162 21.7479L41.5613 21.9169C41.785 23.3189 42.9632 24.1491 44.8375 24.1491C46.7466 24.1491 48.0939 23.1598 48.0989 21.7131C48.0939 20.6243 47.3929 19.9581 45.9512 19.6449L44.6486 19.3665C43.873 19.1925 43.5648 18.924 43.5698 18.4815C43.5648 17.9645 44.1365 17.6065 44.8873 17.6065C45.7175 17.6065 46.155 18.0589 46.2942 18.5611L47.9348 18.3821ZM52.9636 24.1491C54.7434 24.1491 55.9664 23.2791 56.2846 21.9517L54.6042 21.7628C54.3606 22.4091 53.764 22.7472 52.9885 22.7472C51.8251 22.7472 51.0545 21.9815 51.0396 20.674H56.3592V20.1222C56.3592 17.4425 54.7484 16.2642 52.8691 16.2642C50.6816 16.2642 49.2548 17.87 49.2548 20.2266C49.2548 22.6229 50.6618 24.1491 52.9636 24.1491ZM51.0446 19.4609C51.0993 18.4865 51.8201 17.6662 52.894 17.6662C53.9281 17.6662 54.6241 18.4219 54.6341 19.4609H51.0446ZM59.6815 13.8182H57.8817V24H59.6815V13.8182ZM63.3319 13.8182H61.5321V24H63.3319V13.8182ZM68.5632 24.1491C70.343 24.1491 71.5661 23.2791 71.8842 21.9517L70.2038 21.7628C69.9602 22.4091 69.3636 22.7472 68.5881 22.7472C67.4247 22.7472 66.6541 21.9815 66.6392 20.674H71.9588V20.1222C71.9588 17.4425 70.348 16.2642 68.4688 16.2642C66.2812 16.2642 64.8544 17.87 64.8544 20.2266C64.8544 22.6229 66.2614 24.1491 68.5632 24.1491ZM66.6442 19.4609C66.6989 18.4865 67.4197 17.6662 68.4936 17.6662C69.5277 17.6662 70.2237 18.4219 70.2337 19.4609H66.6442ZM73.4814 24H75.2811V19.5106C75.2811 18.5412 76.0119 17.8551 77.0012 17.8551C77.3045 17.8551 77.6824 17.9098 77.8365 17.9595V16.304C77.6724 16.2741 77.389 16.2543 77.1902 16.2543C76.3152 16.2543 75.5843 16.7514 75.3059 17.6364H75.2264V16.3636H73.4814V24Z" fill="white"/>
</g>
<defs>
<filter id="filter0_d_4182_1372" x="7.00439" y="13.3182" width="71.832" height="12.331" filterUnits="userSpaceOnUse" color-interpolation-filters="sRGB">
<feFlood flood-opacity="0" result="BackgroundImageFix"/>
<feColorMatrix in="SourceAlpha" type="matrix" values="0 0 0 0 0 0 0 0 0 0 0 0 0 0 0 0 0 0 127 0" result="hardAlpha"/>
<feOffset dy="0.5"/>
<feGaussianBlur stdDeviation="0.5"/>
<feComposite in2="hardAlpha" operator="out"/>
<feColorMatrix type="matrix" values="0 0 0 0 0 0 0 0 0 0 0 0 0 0 0 0 0 0 0.3 0"/>
<feBlend mode="normal" in2="BackgroundImageFix" result="effect1_dropShadow_4182_1372"/>
<feBlend mode="normal" in="SourceGraphic" in2="effect1_dropShadow_4182_1372" result="shape"/>
</filter>
</defs>
</svg>
