<svg width="452" height="282" viewBox="0 0 452 282" fill="none" xmlns="http://www.w3.org/2000/svg">
<circle cx="226" cy="239" r="226" fill="#FBFBFB"/>
<path fill-rule="evenodd" clip-rule="evenodd" d="M208 217C208 223.627 213.373 229 220 229C226.627 229 232 223.627 232 217C232 210.373 226.627 205 220 205C213.373 205 208 210.373 208 217ZM210.4 217C210.4 211.698 214.698 207.4 220 207.4C225.302 207.4 229.6 211.698 229.6 217C229.6 222.302 225.302 226.6 220 226.6C214.698 226.6 210.4 222.302 210.4 217ZM214.909 218.2C214.246 218.2 213.709 217.663 213.709 217C213.709 216.337 214.246 215.8 214.909 215.8H225.091C225.754 215.8 226.291 216.337 226.291 217C226.291 217.663 225.754 218.2 225.091 218.2H214.909Z" fill="#FBD09D"/>
<path fill-rule="evenodd" clip-rule="evenodd" d="M189 20C189 29.9411 197.059 38 207 38C216.941 38 225 29.9411 225 20C225 10.0589 216.941 2 207 2C197.059 2 189 10.0589 189 20ZM192.6 20C192.6 12.0471 199.047 5.6 207 5.6C214.953 5.6 221.4 12.0471 221.4 20C221.4 27.9529 214.953 34.4 207 34.4C199.047 34.4 192.6 27.9529 192.6 20ZM215.527 15.8163C216.199 15.0835 216.149 13.9449 215.416 13.2731C214.683 12.6014 213.545 12.6509 212.873 13.3837L204.365 22.6658L201.183 18.8477C200.546 18.084 199.411 17.9808 198.648 18.6172C197.884 19.2536 197.781 20.3886 198.417 21.1523L202.917 26.5523C203.25 26.9513 203.738 27.1872 204.258 27.1995C204.777 27.2118 205.276 26.9992 205.627 26.6163L215.527 15.8163Z" fill="#FBD09D"/>
<path opacity="0.5" d="M22.9091 186C21.3018 186 20 187.302 20 188.909V209.273C20 210.88 21.3018 212.182 22.9091 212.182H43.2727C44.88 212.182 46.1818 210.88 46.1818 209.273V188.909C46.1818 187.302 44.8785 186 43.2727 186H22.9091ZM41.8182 191.818C42.1902 191.818 42.5622 191.96 42.8466 192.244C43.4153 192.813 43.4153 193.732 42.8466 194.301L31.8494 205.298C31.576 205.572 31.2065 205.724 30.821 205.724C30.4356 205.724 30.0646 205.572 29.7926 205.298L24.7699 200.276C24.2012 199.707 24.2012 198.787 24.7699 198.219C25.3386 197.65 26.258 197.65 26.8267 198.219L30.821 202.213L40.7898 192.244C41.0741 191.96 41.4462 191.818 41.8182 191.818ZM49.0909 191.818V209.273C49.0909 212.486 46.4858 215.091 43.2727 215.091H25.8182C25.8182 216.698 27.12 218 28.7273 218H49.0909C50.6982 218 52 216.698 52 215.091V194.727C52 193.12 50.6967 191.818 49.0909 191.818Z" fill="#FBA43F"/>
<path d="M176.608 233.89L173.098 250.11L167.838 252.54L166.958 232L176.608 233.89Z" fill="#FBA43F"/>
<path d="M170.747 132C172.497 147.91 186.117 197.43 177.967 234.21L164.277 235.14L170.747 136C172.727 134.4 168.867 133.72 170.747 132Z" fill="#569D9A"/>
<path d="M140.377 125.448L139.568 107.51L120.175 100.381L121.275 125.168L105.461 131.787L139.218 149.135L155.971 128.498L140.377 125.448Z" fill="#FBA43F"/>
<g style="mix-blend-mode:multiply" opacity="0.2">
<path d="M120.955 117.989L120.175 100.371L139.568 107.51L140.307 123.878C133.609 122.849 127.092 120.866 120.955 117.989Z" fill="#FBA43F"/>
</g>
<path d="M121.983 108.204C121.983 108.204 132.757 119.219 146.83 111.755C156.749 106.522 152.75 91.4019 146.523 77.1884C136.815 55.0407 129.058 56.552 118.412 61.8408C94.3341 73.9141 121.983 108.204 121.983 108.204Z" fill="#FBA43F"/>
<path d="M102.578 69.546C107.535 71.731 107.003 69.0031 111.88 71.3611C121.443 80.7076 115.439 87.4319 115.439 87.4319L118.888 95.2709L116.076 97.3323L120.599 105.96C120.599 105.96 111.142 100.434 102.678 86.0274C96.3689 75.2754 98.9609 70.5747 102.578 69.546Z" fill="#35495E"/>
<path d="M117.088 79.9992C110.5 81.5857 103.395 79.8721 98.8639 75.1966C98.8664 77.78 99.912 81.3195 102.678 86.0275C111.142 100.435 120.599 105.96 120.599 105.96L116.076 97.3324L118.888 95.271L115.429 87.4351C116.226 86.389 116.787 85.1827 117.073 83.899C117.36 82.6154 117.365 81.285 117.088 79.9992Z" fill="#213344"/>
<path d="M119.401 102.796L112.803 89.5521C112.803 89.5521 107.21 89.9567 108.402 94.6992C109.593 99.4417 114.878 103.948 119.401 102.796Z" fill="#FBA43F"/>
<path d="M109.428 75.3235C109.428 75.3235 124.683 76.7124 133.096 66.9329L127.845 67.8469C127.845 67.8469 138.612 63.4541 139.8 55.6656L137.044 58.0975C137.044 58.0975 140.5 51.1226 134.237 46.5117C134.237 46.5117 135.179 48.9814 133.922 50.8152C132.664 52.6489 106.668 47.7133 102.715 60.7098C98.7625 73.7064 109.428 75.3235 109.428 75.3235Z" fill="#35495E"/>
<path d="M117.169 100.92C116.671 101.067 116.152 101.131 115.634 101.11C115.359 101.098 115.086 101.059 114.819 100.994C114.517 100.924 114.235 100.785 113.995 100.587C113.702 100.354 113.505 100.021 113.442 99.6517C113.419 99.552 113.408 99.4501 113.407 99.3478L113.409 99.1581C113.372 99.0439 113.408 98.9273 113.432 98.7726C113.455 98.6179 113.492 98.438 113.532 98.2677C113.589 98.1026 113.661 97.9425 113.745 97.7893C113.848 97.6212 113.977 97.47 114.126 97.341C114.317 97.1754 114.552 97.0671 114.802 97.0285L114.227 97.9491C113.764 96.8377 113.295 95.6756 112.746 94.6234C112.614 94.3648 112.466 94.1142 112.305 93.8727C112.171 93.6515 112.001 93.4542 111.802 93.2889C111.726 93.2174 111.628 93.1738 111.524 93.1653C111.42 93.1568 111.317 93.1838 111.23 93.2419C110.984 93.4197 110.771 93.6377 110.598 93.8868C110.629 93.5454 110.748 93.2178 110.942 92.9354C111.064 92.7621 111.244 92.6374 111.449 92.5833C111.666 92.5177 111.898 92.5279 112.109 92.6122C112.462 92.7481 112.783 92.956 113.051 93.2226C113.291 93.4666 113.517 93.7233 113.729 93.9915C114.484 95.0627 115.087 96.2329 115.522 97.469L114.959 98.3961C115.064 98.3624 114.959 98.3961 114.959 98.3961L114.857 98.5026C114.809 98.5179 114.793 98.6284 114.748 98.6849L114.673 98.9086C114.641 99.0223 114.619 99.1384 114.606 99.2557L114.582 99.442C114.582 99.442 114.582 99.442 114.597 99.4896C114.601 99.547 114.619 99.6026 114.649 99.6514C114.657 99.7183 114.678 99.783 114.711 99.8418C114.831 99.9896 114.977 100.113 115.143 100.207C115.343 100.314 115.549 100.409 115.76 100.491C116.22 100.665 116.69 100.809 117.169 100.92Z" fill="#C66258"/>
<path d="M107.78 230.486C107.78 230.486 103.992 341.993 106.521 387.548C106.521 387.548 112.198 394.347 126.703 388.228L142.466 259.723L150.034 388.228C150.034 388.228 157.601 393.667 167.697 386.868L173.364 218.248L107.78 230.486Z" fill="#35495E"/>
<path opacity="0.5" d="M142.597 261.852L150.034 388.198C150.034 388.198 157.601 393.637 167.697 386.838L172.245 251.524L142.597 261.852Z" fill="#213344"/>
<path opacity="0.5" d="M172.865 233.196L173.365 218.248L107.78 230.486C107.78 230.486 107.68 233.346 107.53 238.325C149.164 255.183 164.438 239.135 172.865 233.196Z" fill="#213344"/>
<path d="M119.605 124.608L134.02 133.747L140.397 146.015L146.635 125.148C146.635 125.148 164.158 125.038 171.015 132.747C177.873 140.456 174.014 228.316 174.014 228.316L148.624 242.024L145.305 230.856L144.446 242.644L105.251 231.716C105.251 231.716 96.8342 137.546 103.961 131.437C109.959 126.318 119.605 124.608 119.605 124.608Z" fill="#63B7AF"/>
<path opacity="0.2" d="M105.181 150.475C103.832 150.665 102.482 150.825 101.133 150.975C100.653 180.272 105.251 231.746 105.251 231.746L144.446 242.675L145.306 230.886L148.624 242.025L174.014 228.316C174.014 228.316 174.734 211.828 175.014 192.52C167.711 190.947 160.565 188.718 153.662 185.861C135.399 178.382 114.358 168.863 105.181 150.475Z" fill="#213344"/>
<path d="M139.738 150.535C139.738 150.917 139.851 151.29 140.063 151.607C140.275 151.925 140.576 152.172 140.929 152.318C141.281 152.464 141.669 152.503 142.043 152.428C142.418 152.354 142.761 152.17 143.031 151.9C143.301 151.63 143.485 151.286 143.559 150.912C143.634 150.537 143.595 150.149 143.449 149.797C143.303 149.444 143.056 149.143 142.739 148.93C142.422 148.718 142.049 148.605 141.667 148.605C141.155 148.605 140.665 148.809 140.303 149.171C139.941 149.532 139.738 150.023 139.738 150.535Z" fill="#80CEC4"/>
<path d="M143.806 224.457C143.806 224.839 143.919 225.212 144.131 225.529C144.343 225.846 144.645 226.094 144.997 226.24C145.35 226.386 145.738 226.424 146.112 226.35C146.486 226.275 146.83 226.091 147.1 225.822C147.369 225.552 147.553 225.208 147.628 224.833C147.702 224.459 147.664 224.071 147.518 223.718C147.372 223.366 147.125 223.064 146.807 222.852C146.49 222.64 146.117 222.527 145.735 222.527C145.224 222.527 144.733 222.73 144.371 223.092C144.009 223.454 143.806 223.945 143.806 224.457Z" fill="#80CEC4"/>
<path d="M143.376 206.239C143.374 206.621 143.485 206.995 143.696 207.314C143.907 207.632 144.208 207.881 144.56 208.029C144.912 208.177 145.301 208.216 145.675 208.143C146.05 208.07 146.395 207.887 146.666 207.617C146.937 207.348 147.121 207.004 147.197 206.629C147.272 206.254 147.234 205.866 147.089 205.513C146.943 205.159 146.696 204.857 146.378 204.645C146.061 204.432 145.687 204.319 145.305 204.319C144.795 204.319 144.306 204.521 143.945 204.881C143.583 205.24 143.379 205.729 143.376 206.239Z" fill="#80CEC4"/>
<path d="M143.376 187.171C143.376 187.553 143.489 187.926 143.701 188.243C143.913 188.561 144.214 188.808 144.567 188.954C144.919 189.1 145.307 189.139 145.682 189.064C146.056 188.99 146.4 188.806 146.669 188.536C146.939 188.266 147.123 187.922 147.197 187.548C147.272 187.173 147.234 186.785 147.088 186.433C146.942 186.08 146.694 185.779 146.377 185.566C146.06 185.354 145.687 185.241 145.305 185.241C144.794 185.241 144.303 185.445 143.941 185.806C143.579 186.168 143.376 186.659 143.376 187.171Z" fill="#80CEC4"/>
<path d="M143.727 168.644C144.792 168.644 145.656 167.78 145.656 166.714C145.656 165.648 144.792 164.784 143.727 164.784C142.661 164.784 141.797 165.648 141.797 166.714C141.797 167.78 142.661 168.644 143.727 168.644Z" fill="#80CEC4"/>
<path d="M147.395 122.438L141.507 133.607L140.607 145.806L143.306 136.167L147.665 139.826L151.093 125.468L147.395 122.438Z" fill="#80CEC4"/>
<path d="M140.398 146.016L134.43 133.047L118.746 119.249L114.458 125.248L130.102 142.176L133.95 134.247L140.398 146.016Z" fill="#80CEC4"/>
<path d="M172.096 138.15C155.161 139.311 124.382 132.504 110.194 128.005C106.723 136.958 96.849 153.128 102.631 152.378C121.704 153.649 179.45 159.366 181.829 158.504C184.207 157.642 211.342 139.397 224.612 130.382L218.112 118.947L172.096 138.15Z" fill="#63B7AF"/>
<path d="M226 133.747L216.411 115.83L223.565 116.169L229.869 129.935L226 133.747Z" fill="#80CEC4"/>
<path d="M237.993 110.228L223.666 117.102L228.843 127.671L238.219 126.627L248.641 119.654L237.993 110.228Z" fill="#FBA43F"/>
<rect x="358.5" y="78.5" width="66" height="144" rx="9.5" fill="#569D9A" stroke="#239C9C"/>
<path d="M294.729 27.3093V4.18145L315.229 0.0143433V40.9909L294.729 27.3093Z" fill="#074D4D"/>
<path d="M335.729 27.3093V4.18145L315.229 0.0143433V40.9909L335.729 27.3093Z" fill="#074D4D"/>
<g style="mix-blend-mode:multiply">
<path d="M335.729 27.3093V4.18142L315.212 0V41L335.729 27.3093Z" fill="#549393"/>
</g>
<rect x="285.5" y="3.27966" width="58.0678" height="19.8355" rx="1.5" fill="#FBA43F" stroke="#F76910"/>
<g style="mix-blend-mode:multiply">
<path d="M315.082 3.48114H342.471C343.023 3.48114 343.471 3.92886 343.471 4.48114V21.9245C343.471 22.4768 343.023 22.9245 342.471 22.9245H315.082L315.082 3.48114Z" fill="#FBA43F" fill-opacity="0.52"/>
</g>
<g filter="url(#filter0_d_4182_1723)">
<path d="M292.595 16.9706H295.56C297.237 16.9706 298.059 16.1159 298.059 14.9751C298.059 13.8665 297.273 13.2157 296.493 13.1764V13.1048C297.208 12.9368 297.773 12.4361 297.773 11.5457C297.773 10.455 296.987 9.64679 295.399 9.64679H292.595V16.9706ZM293.922 15.862V13.7163H295.385C296.203 13.7163 296.711 14.217 296.711 14.8714C296.711 15.4543 296.311 15.862 295.349 15.862H293.922ZM293.922 12.7615V10.7411H295.263C296.043 10.7411 296.447 11.1523 296.447 11.7173C296.447 12.361 295.925 12.7615 295.234 12.7615H293.922Z" fill="white"/>
<path d="M301.588 17.0778C302.868 17.0778 303.748 16.452 303.977 15.4972L302.768 15.3613C302.593 15.8262 302.164 16.0694 301.606 16.0694C300.769 16.0694 300.215 15.5187 300.204 14.5782H304.031V14.1812C304.031 12.2537 302.872 11.4062 301.52 11.4062C299.947 11.4062 298.92 12.5613 298.92 14.2563C298.92 15.98 299.932 17.0778 301.588 17.0778ZM300.208 13.7056C300.247 13.0047 300.766 12.4147 301.538 12.4147C302.282 12.4147 302.783 12.9582 302.79 13.7056H300.208Z" fill="white"/>
<path d="M309.467 12.9296C309.288 11.9998 308.544 11.4062 307.257 11.4062C305.934 11.4062 305.033 12.0571 305.036 13.0727C305.033 13.8737 305.526 14.4029 306.581 14.6211L307.518 14.8178C308.022 14.9286 308.258 15.1325 308.258 15.4436C308.258 15.8191 307.851 16.1016 307.236 16.1016C306.642 16.1016 306.256 15.8441 306.145 15.3506L304.883 15.4722C305.043 16.4806 305.891 17.0778 307.239 17.0778C308.612 17.0778 309.581 16.3662 309.585 15.3256C309.581 14.5424 309.077 14.0632 308.04 13.8379L307.103 13.6377C306.545 13.5125 306.324 13.3194 306.327 13.0011C306.324 12.6292 306.735 12.3717 307.275 12.3717C307.872 12.3717 308.187 12.6972 308.287 13.0583L309.467 12.9296Z" fill="white"/>
<path d="M313.395 11.4777H312.312V10.1617H311.017V11.4777H310.238V12.479H311.017V15.533C311.01 16.5665 311.761 17.0743 312.734 17.0457C313.102 17.0349 313.356 16.9634 313.495 16.9169L313.277 15.9049C313.206 15.9228 313.059 15.955 312.898 15.955C312.573 15.955 312.312 15.8405 312.312 15.3184V12.479H313.395V11.4777Z" fill="white"/>
<path d="M316.976 19.0304H318.27V16.1051H318.324C318.528 16.5057 318.953 17.0671 319.898 17.0671C321.192 17.0671 322.161 16.0408 322.161 14.2313C322.161 12.4004 321.163 11.4062 319.894 11.4062C318.925 11.4062 318.521 11.9891 318.324 12.386H318.249V11.4777H316.976V19.0304ZM318.245 14.2241C318.245 13.1585 318.703 12.4683 319.536 12.4683C320.398 12.4683 320.842 13.2014 320.842 14.2241C320.842 15.254 320.391 16.005 319.536 16.005C318.71 16.005 318.245 15.2898 318.245 14.2241Z" fill="white"/>
<path d="M324.564 9.64679H323.27V16.9706H324.564V9.64679Z" fill="white"/>
<path d="M327.476 17.0814C328.338 17.0814 328.853 16.6773 329.089 16.216H329.132V16.9706H330.376V13.2944C330.376 11.8425 329.193 11.4062 328.145 11.4062C326.99 11.4062 326.103 11.9212 325.817 12.9225L327.025 13.0941C327.154 12.7186 327.519 12.3968 328.152 12.3968C328.753 12.3968 329.082 12.7043 329.082 13.2443V13.2658C329.082 13.6377 328.692 13.6555 327.723 13.7593C326.657 13.8737 325.638 14.192 325.638 15.4293C325.638 16.5092 326.428 17.0814 327.476 17.0814ZM327.812 16.1302C327.272 16.1302 326.886 15.8834 326.886 15.4078C326.886 14.9107 327.319 14.7033 327.898 14.6211C328.238 14.5746 328.917 14.4888 329.085 14.3529V15.0001C329.085 15.6117 328.592 16.1302 327.812 16.1302Z" fill="white"/>
<path d="M332.972 13.7521C332.972 12.9582 333.452 12.5005 334.135 12.5005C334.803 12.5005 335.204 12.9403 335.204 13.6734V16.9706H336.498V13.4732C336.502 12.1572 335.751 11.4062 334.617 11.4062C333.795 11.4062 333.23 11.7996 332.98 12.4111H332.915V11.4777H331.678V16.9706H332.972V13.7521Z" fill="white"/>
</g>
<g filter="url(#filter1_d_4182_1723)">
<rect x="260" y="53" width="117" height="178" rx="10" fill="#63B7AF"/>
<rect x="260.5" y="53.5" width="116" height="177" rx="9.5" stroke="#239C9C"/>
</g>
<rect opacity="0.7" x="282" y="120" width="74" height="4" rx="2" fill="white"/>
<rect opacity="0.7" x="282" y="83" width="74" height="10" rx="5" fill="white"/>
<rect opacity="0.7" x="282" y="130" width="74" height="4" rx="2" fill="white"/>
<rect opacity="0.7" x="282" y="140" width="74" height="4" rx="2" fill="white"/>
<rect opacity="0.7" x="282" y="151" width="74" height="3" rx="1.5" fill="white"/>
<rect opacity="0.7" x="282" y="161" width="74" height="3" rx="1.5" fill="white"/>
<rect opacity="0.7" x="282" y="171" width="74" height="4" rx="2" fill="white"/>
<rect opacity="0.7" x="282" y="181" width="74" height="4" rx="2" fill="white"/>
<rect opacity="0.7" x="282" y="191" width="74" height="4" rx="2" fill="white"/>
<defs>
<filter id="filter0_d_4182_1723" x="291.595" y="9.14679" width="45.9033" height="11.3835" filterUnits="userSpaceOnUse" color-interpolation-filters="sRGB">
<feFlood flood-opacity="0" result="BackgroundImageFix"/>
<feColorMatrix in="SourceAlpha" type="matrix" values="0 0 0 0 0 0 0 0 0 0 0 0 0 0 0 0 0 0 127 0" result="hardAlpha"/>
<feOffset dy="0.5"/>
<feGaussianBlur stdDeviation="0.5"/>
<feComposite in2="hardAlpha" operator="out"/>
<feColorMatrix type="matrix" values="0 0 0 0 0 0 0 0 0 0 0 0 0 0 0 0 0 0 0.3 0"/>
<feBlend mode="normal" in2="BackgroundImageFix" result="effect1_dropShadow_4182_1723"/>
<feBlend mode="normal" in="SourceGraphic" in2="effect1_dropShadow_4182_1723" result="shape"/>
</filter>
<filter id="filter1_d_4182_1723" x="245" y="48" width="147" height="208" filterUnits="userSpaceOnUse" color-interpolation-filters="sRGB">
<feFlood flood-opacity="0" result="BackgroundImageFix"/>
<feColorMatrix in="SourceAlpha" type="matrix" values="0 0 0 0 0 0 0 0 0 0 0 0 0 0 0 0 0 0 127 0" result="hardAlpha"/>
<feOffset dy="10"/>
<feGaussianBlur stdDeviation="7.5"/>
<feComposite in2="hardAlpha" operator="out"/>
<feColorMatrix type="matrix" values="0 0 0 0 0 0 0 0 0 0 0 0 0 0 0 0 0 0 0.08 0"/>
<feBlend mode="normal" in2="BackgroundImageFix" result="effect1_dropShadow_4182_1723"/>
<feBlend mode="normal" in="SourceGraphic" in2="effect1_dropShadow_4182_1723" result="shape"/>
</filter>
</defs>
</svg>
