<svg width="154" height="64" viewBox="0 0 154 64" fill="none" xmlns="http://www.w3.org/2000/svg">
<g opacity="0.8">
<g clip-path="url(#clip0_5172_589)">
<path d="M37.4347 25.9101C37.8381 25.664 38.1651 25.3107 38.3796 24.8897C38.594 24.4687 38.6874 23.9964 38.6493 23.5255C38.6892 23.068 38.5986 22.6085 38.388 22.2005C38.1774 21.7924 37.8554 21.4524 37.4594 21.2198C36.6029 20.7545 35.6395 20.5213 34.665 20.5434H31.8706V26.621H34.7144C35.6686 26.6329 36.6084 26.3873 37.4347 25.9101Z" fill="#F2F2F2"/>
<path d="M0.737305 0V63.9951H153.295V0H0.737305ZM46.228 39.0823C45.5994 40.0857 44.7393 40.9238 43.7199 41.5262C42.6371 42.1642 41.4559 42.618 40.2245 42.8691C38.9393 43.1447 37.6286 43.2837 36.3142 43.2838H24.1492V15.3347H35.1244C36.3375 15.3387 37.5486 15.4311 38.7482 15.6112C39.961 15.7748 41.1406 16.128 42.2437 16.6579C43.2873 17.1638 44.1934 17.9141 44.8851 18.845C45.6308 19.9206 46.0036 21.2108 45.9466 22.5183C46.0164 23.9542 45.5442 25.3639 44.6234 26.468C43.7492 27.4513 42.635 28.1912 41.3896 28.6156V28.6995C42.1084 28.8386 42.8045 29.0762 43.4583 29.4056C44.1451 29.7473 44.7747 30.1936 45.3245 30.7287C45.8917 31.2972 46.3473 31.9671 46.6674 32.7036C47.016 33.5273 47.1844 34.4161 47.1611 35.3104C47.2172 36.631 46.8933 37.9401 46.228 39.0823ZM76.4876 43.2838H68.5882V40.361H68.4846C67.9651 41.4417 67.1348 42.3425 66.0999 42.9481C64.8204 43.7112 63.3477 44.0883 61.8589 44.0343C60.5759 44.0918 59.2978 43.8413 58.1314 43.3036C57.2403 42.8544 56.4879 42.1719 55.9541 41.3287C55.4209 40.4767 55.0696 39.5236 54.9223 38.5294C54.7441 37.4458 54.6565 36.3492 54.6606 35.2511V22.6367H62.7871V35.2708C62.785 35.6944 62.8197 36.1172 62.8908 36.5348C62.9491 36.8964 63.0729 37.2444 63.2561 37.5617C63.4398 37.8602 63.6986 38.1053 64.0066 38.2726C64.3812 38.4671 64.7993 38.5623 65.2211 38.5491C65.6664 38.5693 66.11 38.4831 66.5152 38.2977C66.9205 38.1122 67.2757 37.8328 67.5515 37.4827C68.1339 36.6895 68.4266 35.7206 68.3809 34.7376V22.6367H76.4876V43.2838ZM92.2371 29.8005C93.1452 30.1794 94.0899 30.4639 95.0562 30.6497C95.8684 30.8411 96.6654 31.0919 97.4408 31.4001C98.2041 31.7001 98.9181 32.1128 99.5589 32.6246C100.178 33.1219 100.697 33.7316 101.089 34.4217C101.499 35.1788 101.703 36.0298 101.682 36.8902C101.716 38.0315 101.41 39.1572 100.803 40.1241C100.232 41.0053 99.4715 41.7476 98.5764 42.2964C97.6405 42.8657 96.6184 43.2792 95.5499 43.5208C94.4906 43.7757 93.4056 43.9082 92.3161 43.9158C90.5542 43.9199 88.8012 43.6671 87.1124 43.1653C85.5592 42.7263 84.0953 42.0177 82.7874 41.072L86.826 37.1223C87.546 37.6964 88.3376 38.1744 89.181 38.5442C90.0564 38.9172 90.9993 39.1054 91.9507 39.0971C92.5851 39.1388 93.2149 38.9648 93.738 38.6034C93.9439 38.4463 94.1099 38.2428 94.2223 38.0095C94.3347 37.7761 94.3903 37.5195 94.3847 37.2605C94.3862 36.9415 94.2868 36.6303 94.1005 36.3713C93.9143 36.1123 93.6508 35.9189 93.348 35.8189C92.3406 35.408 91.3022 35.0778 90.2425 34.8315C89.5053 34.6446 88.7798 34.4138 88.0702 34.1403C87.3642 33.8747 86.7069 33.4944 86.1249 33.0146C85.5542 32.536 85.0799 31.9528 84.7277 31.2965C84.3444 30.5315 84.1578 29.6831 84.1846 28.8279C84.1583 27.7611 84.4468 26.7102 85.0141 25.8064C85.5693 24.9501 86.3016 24.2228 87.1617 23.6735C88.0736 23.0934 89.0742 22.6665 90.124 22.4096C91.1984 22.1346 92.3031 21.9953 93.4121 21.9949C95.0196 21.9902 96.6194 22.2181 98.1617 22.6713C99.5948 23.0801 100.957 23.7062 102.2 24.5277L98.2505 28.4379C97.6335 27.9647 96.954 27.5792 96.2312 27.2924C95.4735 26.9953 94.6654 26.8477 93.8515 26.858C93.2531 26.8469 92.6656 27.0192 92.168 27.3517C91.9487 27.4886 91.7691 27.6804 91.647 27.9082C91.5249 28.136 91.4645 28.3918 91.4718 28.6502C91.4681 28.8968 91.5392 29.1388 91.6759 29.3442C91.8125 29.5495 92.0082 29.7087 92.2371 29.8005ZM122.6 43.9948C122.2 45.1441 121.723 46.2657 121.174 47.352C120.652 48.3876 119.961 49.3287 119.13 50.1366C118.248 50.9699 117.209 51.6194 116.074 52.0472C114.649 52.5573 113.143 52.7984 111.63 52.7582C110.835 52.7582 110.031 52.7187 109.221 52.6397C108.411 52.5607 107.695 52.4718 107.073 52.3632L108.159 46.7596C108.513 46.8728 108.877 46.9522 109.246 46.9965C109.605 47.0462 109.968 47.0726 110.332 47.0755C111.136 47.1454 111.937 46.9208 112.588 46.4436C113.034 46.0383 113.373 45.5296 113.575 44.9624L113.99 43.817L105.913 22.6565H114.454L118.34 36.436H118.443L122.013 22.6565H130.253L122.6 43.9948Z" fill="#F2F2F2"/>
<path d="M37.894 32.0519C37.4496 31.7679 36.9606 31.5609 36.4474 31.4397C35.931 31.3082 35.4004 31.2402 34.8675 31.2373H31.8657V38.0752H34.9662C36.0529 38.1063 37.1245 37.816 38.047 37.2409C38.4592 36.9716 38.7931 36.5984 39.015 36.159C39.2369 35.7195 39.339 35.2292 39.3109 34.7377C39.329 34.1764 39.196 33.6205 38.9258 33.1282C38.6683 32.6956 38.3153 32.3275 37.894 32.0519Z" fill="#F2F2F2"/>
</g>
</g>
<defs>
<clipPath id="clip0_5172_589">
<rect x="0.737305" width="152.538" height="64" rx="2" fill="white"/>
</clipPath>
</defs>
</svg>
