<svg width="313" height="440" viewBox="0 0 313 440" fill="none" xmlns="http://www.w3.org/2000/svg">
<g filter="url(#filter0_ddi)">
<rect x="74.4272" y="284.31" width="28.0249" height="28.3871" rx="5" fill="white"/>
<rect x="141.688" y="284.31" width="28.0249" height="28.3871" rx="5" fill="white"/>
<rect x="175.317" y="284.31" width="28.0249" height="28.3871" rx="5" fill="white"/>
<rect x="44.0005" y="32" width="225" height="352" rx="20" fill="white"/>
<rect opacity="0.32" x="62.0024" y="53" width="191.37" height="64.8848" rx="10" fill="#E7E7E7"/>
<g filter="url(#filter1_d)">
<path fill-rule="evenodd" clip-rule="evenodd" d="M71.6177 117.972C66.0948 117.972 61.6177 113.495 61.6177 107.972V63.0876C61.6177 57.5648 66.0948 53.0876 71.6177 53.0876H242.988C248.511 53.0876 252.988 57.5648 252.988 63.0876V107.972C252.988 113.495 248.511 117.972 242.988 117.972H71.6177ZM74.8198 114.728C69.297 114.728 64.8198 110.251 64.8198 104.728V66.3319C64.8198 60.8091 69.297 56.3319 74.8198 56.3319H239.784C245.307 56.3319 249.784 60.809 249.784 66.3319V104.728C249.784 110.251 245.307 114.728 239.784 114.728H74.8198Z" fill="#DEDEDE"/>
</g>
<path d="M94.5544 86.192V79.008L96.2824 80.592V84.544L94.5544 86.192ZM104.298 79.008V86.192L102.57 84.608V80.672L104.298 79.008ZM94.5064 86.736L96.2344 88.384V92.336L94.5064 93.904V86.736ZM104.25 93.904L102.522 92.24V88.304L104.25 86.736V93.904ZM97.0984 83.744V80.496L101.642 88.144V91.408L97.0984 83.744ZM107.351 95.408L108.999 93.68H112.951L114.519 95.408H107.351ZM106.887 87.552L108.599 89.216V93.136L106.887 94.704V87.552ZM108.727 88.128C108.333 87.8187 107.959 87.5253 107.607 87.248L108.727 86.4H113.095L114.215 87.248L113.095 88.128H108.727ZM107.335 79.152H114.471L112.919 80.88H108.967L107.335 79.152ZM106.839 86.992V79.84L108.551 81.392V85.36L106.839 86.992ZM118.628 95.408L120.276 93.68H124.228L125.796 95.408H118.628ZM118.164 87.552L119.876 89.216V93.136L118.164 94.704V87.552ZM120.004 88.128C119.61 87.8187 119.236 87.5253 118.884 87.248L120.004 86.4H124.372L125.492 87.248L124.372 88.128H120.004ZM118.612 79.152H125.748L124.196 80.88H120.244L118.612 79.152ZM118.116 86.992V79.84L119.828 81.392V85.36L118.116 86.992ZM129.665 95.408L131.313 93.68H135.265L136.817 95.408H129.665ZM129.185 87.552L130.913 89.216V93.136L129.185 94.704V87.552ZM137.329 94.704L135.601 93.056V89.12L137.329 87.552V94.704ZM129.649 79.152H136.801L135.217 80.88H131.297L129.649 79.152ZM129.137 86.992V79.84L130.865 81.392V85.36L129.137 86.992ZM137.281 79.84V86.992L135.553 85.44V81.488L137.281 79.84ZM151.739 87.552L153.467 89.216V93.136L151.739 94.704V87.552ZM159.883 94.704L158.155 93.056V89.12L159.883 87.552V94.704ZM153.595 88.128C153.221 87.8293 152.843 87.536 152.459 87.248L153.595 86.4H157.963L159.083 87.248L157.963 88.128H153.595ZM151.691 86.992V79.84L153.419 81.392V85.36L151.691 86.992ZM159.835 79.84V86.992L158.107 85.44V81.488L159.835 79.84ZM163.736 95.408L165.384 93.68H169.336L170.904 95.408H163.736ZM163.272 87.552L164.984 89.216V93.136L163.272 94.704V87.552ZM165.112 88.128C164.717 87.8187 164.344 87.5253 163.992 87.248L165.112 86.4H169.48L170.6 87.248L169.48 88.128H165.112ZM163.72 79.152H170.856L169.304 80.88H165.352L163.72 79.152ZM163.224 86.992V79.84L164.936 81.392V85.36L163.224 86.992ZM175.013 95.408L176.661 93.68H180.613L182.181 95.408H175.013ZM174.549 87.552L176.261 89.216V93.136L174.549 94.704V87.552ZM174.501 86.992V79.84L176.213 81.392V85.36L174.501 86.992ZM185.585 87.552L187.313 89.216V93.136L185.585 94.704V87.552ZM187.425 88.128C187.052 87.8187 186.679 87.5253 186.305 87.248L187.425 86.4H191.809L192.929 87.248L191.809 88.128H187.425ZM186.049 79.152H193.185L191.633 80.88H187.681L186.049 79.152ZM185.537 86.992V79.84L187.265 81.392V85.36L185.537 86.992ZM193.697 79.84V86.992L191.969 85.44V81.488L193.697 79.84ZM210.011 87.552L211.739 89.216V91.392L210.011 92.944V87.552ZM211.899 88.128C211.505 87.8187 211.131 87.5253 210.779 87.248L211.899 86.4H214.107L215.227 87.248L214.107 88.128H211.899ZM208.363 79.152H215.515L213.931 80.88H209.995L208.363 79.152ZM215.979 79.84V86.992L214.267 85.44V81.488L215.979 79.84ZM210.315 94.56L209.739 94.144L210.843 93.28H210.907L212.027 94.144L210.907 94.992H210.843L210.315 94.56Z" fill="#2B2B29"/>
<path d="M94.5544 86.192H94.2544V86.8927L94.7615 86.4091L94.5544 86.192ZM94.5544 79.008L94.7572 78.7869L94.2544 78.326V79.008H94.5544ZM96.2824 80.592H96.5824V80.46L96.4852 80.3709L96.2824 80.592ZM96.2824 84.544L96.4895 84.7611L96.5824 84.6724V84.544H96.2824ZM104.298 79.008H104.598V78.3026L104.09 78.7919L104.298 79.008ZM104.298 86.192L104.096 86.4131L104.598 86.874V86.192H104.298ZM102.57 84.608H102.27V84.74L102.368 84.8291L102.57 84.608ZM102.57 80.672L102.362 80.4559L102.27 80.5444V80.672H102.57ZM94.5064 86.736L94.7135 86.5189L94.2064 86.0353V86.736H94.5064ZM96.2344 88.384H96.5344V88.2556L96.4415 88.1669L96.2344 88.384ZM96.2344 92.336L96.436 92.5582L96.5344 92.4689V92.336H96.2344ZM94.5064 93.904H94.2064V94.5813L94.708 94.1262L94.5064 93.904ZM104.25 93.904L104.042 94.1201L104.55 94.6094V93.904H104.25ZM102.522 92.24H102.222V92.3676L102.314 92.4561L102.522 92.24ZM102.522 88.304L102.321 88.0818L102.222 88.1711V88.304H102.522ZM104.25 86.736H104.55V86.0587L104.049 86.5138L104.25 86.736ZM97.0984 83.744H96.7984V83.8262L96.8404 83.897L97.0984 83.744ZM97.0984 80.496L97.3564 80.3428L96.7984 79.4037V80.496H97.0984ZM101.642 88.144H101.942V88.0616L101.9 87.9908L101.642 88.144ZM101.642 91.408L101.384 91.561L101.942 92.5022V91.408H101.642ZM94.8544 86.192V79.008H94.2544V86.192H94.8544ZM94.3517 79.2291L96.0797 80.8131L96.4852 80.3709L94.7572 78.7869L94.3517 79.2291ZM95.9824 80.592V84.544H96.5824V80.592H95.9824ZM96.0754 84.3269L94.3474 85.9749L94.7615 86.4091L96.4895 84.7611L96.0754 84.3269ZM103.998 79.008V86.192H104.598V79.008H103.998ZM104.501 85.9709L102.773 84.3869L102.368 84.8291L104.096 86.4131L104.501 85.9709ZM102.87 84.608V80.672H102.27V84.608H102.87ZM102.779 80.8881L104.507 79.2241L104.09 78.7919L102.362 80.4559L102.779 80.8881ZM94.2994 86.9531L96.0274 88.6011L96.4415 88.1669L94.7135 86.5189L94.2994 86.9531ZM95.9344 88.384V92.336H96.5344V88.384H95.9344ZM96.0328 92.1138L94.3048 93.6818L94.708 94.1262L96.436 92.5582L96.0328 92.1138ZM94.8064 93.904V86.736H94.2064V93.904H94.8064ZM104.459 93.6879L102.731 92.0239L102.314 92.4561L104.042 94.1201L104.459 93.6879ZM102.822 92.24V88.304H102.222V92.24H102.822ZM102.724 88.5262L104.452 86.9582L104.049 86.5138L102.321 88.0818L102.724 88.5262ZM103.95 86.736V93.904H104.55V86.736H103.95ZM97.3984 83.744V80.496H96.7984V83.744H97.3984ZM96.8405 80.6492L101.385 88.2972L101.9 87.9908L97.3564 80.3428L96.8405 80.6492ZM101.342 88.144V91.408H101.942V88.144H101.342ZM101.9 91.255L97.3565 83.591L96.8404 83.897L101.384 91.561L101.9 91.255ZM107.351 95.408L107.134 95.201L106.651 95.708H107.351V95.408ZM108.999 93.68V93.38H108.871L108.782 93.473L108.999 93.68ZM112.951 93.68L113.173 93.4784L113.084 93.38H112.951V93.68ZM114.519 95.408V95.708H115.197L114.741 95.2064L114.519 95.408ZM106.887 87.552L107.096 87.3369L106.587 86.8421V87.552H106.887ZM108.599 89.216H108.899V89.0892L108.808 89.0009L108.599 89.216ZM108.599 93.136L108.802 93.3572L108.899 93.268V93.136H108.599ZM106.887 94.704H106.587V95.3856L107.09 94.9252L106.887 94.704ZM108.727 88.128L108.542 88.3641L108.624 88.428H108.727V88.128ZM107.607 87.248L107.426 87.0088L107.117 87.2433L107.422 87.4836L107.607 87.248ZM108.727 86.4V86.1H108.627L108.546 86.1608L108.727 86.4ZM113.095 86.4L113.276 86.1608L113.196 86.1H113.095V86.4ZM114.215 87.248L114.401 87.4839L114.706 87.2436L114.396 87.0088L114.215 87.248ZM113.095 88.128V88.428H113.199L113.281 88.3639L113.095 88.128ZM107.335 79.152V78.852H106.639L107.117 79.358L107.335 79.152ZM114.471 79.152L114.695 79.3525L115.144 78.852H114.471V79.152ZM112.919 80.88V81.18H113.053L113.143 81.0805L112.919 80.88ZM108.967 80.88L108.749 81.086L108.838 81.18H108.967V80.88ZM106.839 86.992H106.539V87.6925L107.046 87.2091L106.839 86.992ZM106.839 79.84L107.041 79.6177L106.539 79.1631V79.84H106.839ZM108.551 81.392H108.851V81.259L108.753 81.1697L108.551 81.392ZM108.551 85.36L108.758 85.5771L108.851 85.4885V85.36H108.551ZM107.568 95.615L109.216 93.887L108.782 93.473L107.134 95.201L107.568 95.615ZM108.999 93.98H112.951V93.38H108.999V93.98ZM112.729 93.8816L114.297 95.6096L114.741 95.2064L113.173 93.4784L112.729 93.8816ZM114.519 95.108H107.351V95.708H114.519V95.108ZM106.678 87.7671L108.39 89.4311L108.808 89.0009L107.096 87.3369L106.678 87.7671ZM108.299 89.216V93.136H108.899V89.216H108.299ZM108.397 92.9148L106.685 94.4828L107.09 94.9252L108.802 93.3572L108.397 92.9148ZM107.187 94.704V87.552H106.587V94.704H107.187ZM108.912 87.8919C108.518 87.5827 108.145 87.2895 107.793 87.0124L107.422 87.4836C107.774 87.7612 108.147 88.0546 108.542 88.3641L108.912 87.8919ZM107.788 87.4872L108.908 86.6392L108.546 86.1608L107.426 87.0088L107.788 87.4872ZM108.727 86.7H113.095V86.1H108.727V86.7ZM112.914 86.6392L114.034 87.4872L114.396 87.0088L113.276 86.1608L112.914 86.6392ZM114.03 87.0121L112.91 87.8921L113.281 88.3639L114.401 87.4839L114.03 87.0121ZM113.095 87.828H108.727V88.428H113.095V87.828ZM107.335 79.452H114.471V78.852H107.335V79.452ZM114.248 78.9515L112.696 80.6795L113.143 81.0805L114.695 79.3525L114.248 78.9515ZM112.919 80.58H108.967V81.18H112.919V80.58ZM109.185 80.674L107.553 78.946L107.117 79.358L108.749 81.086L109.185 80.674ZM107.139 86.992V79.84H106.539V86.992H107.139ZM106.638 80.0623L108.35 81.6143L108.753 81.1697L107.041 79.6177L106.638 80.0623ZM108.251 81.392V85.36H108.851V81.392H108.251ZM108.344 85.1429L106.632 86.7749L107.046 87.2091L108.758 85.5771L108.344 85.1429ZM118.628 95.408L118.411 95.201L117.928 95.708H118.628V95.408ZM120.276 93.68V93.38H120.148L120.059 93.473L120.276 93.68ZM124.228 93.68L124.45 93.4784L124.361 93.38H124.228V93.68ZM125.796 95.408V95.708H126.474L126.018 95.2064L125.796 95.408ZM118.164 87.552L118.373 87.3369L117.864 86.8421V87.552H118.164ZM119.876 89.216H120.176V89.0892L120.085 89.0009L119.876 89.216ZM119.876 93.136L120.079 93.3572L120.176 93.268V93.136H119.876ZM118.164 94.704H117.864V95.3856L118.367 94.9252L118.164 94.704ZM120.004 88.128L119.819 88.3641L119.901 88.428H120.004V88.128ZM118.884 87.248L118.703 87.0088L118.393 87.2433L118.699 87.4836L118.884 87.248ZM120.004 86.4V86.1H119.903L119.823 86.1608L120.004 86.4ZM124.372 86.4L124.553 86.1608L124.473 86.1H124.372V86.4ZM125.492 87.248L125.678 87.4839L125.983 87.2436L125.673 87.0088L125.492 87.248ZM124.372 88.128V88.428H124.476L124.558 88.3639L124.372 88.128ZM118.612 79.152V78.852H117.916L118.394 79.358L118.612 79.152ZM125.748 79.152L125.971 79.3525L126.421 78.852H125.748V79.152ZM124.196 80.88V81.18H124.33L124.419 81.0805L124.196 80.88ZM120.244 80.88L120.026 81.086L120.115 81.18H120.244V80.88ZM118.116 86.992H117.816V87.6925L118.323 87.2091L118.116 86.992ZM118.116 79.84L118.318 79.6177L117.816 79.1631V79.84H118.116ZM119.828 81.392H120.128V81.259L120.03 81.1697L119.828 81.392ZM119.828 85.36L120.035 85.5771L120.128 85.4885V85.36H119.828ZM118.845 95.615L120.493 93.887L120.059 93.473L118.411 95.201L118.845 95.615ZM120.276 93.98H124.228V93.38H120.276V93.98ZM124.006 93.8816L125.574 95.6096L126.018 95.2064L124.45 93.4784L124.006 93.8816ZM125.796 95.108H118.628V95.708H125.796V95.108ZM117.955 87.7671L119.667 89.4311L120.085 89.0009L118.373 87.3369L117.955 87.7671ZM119.576 89.216V93.136H120.176V89.216H119.576ZM119.674 92.9148L117.962 94.4828L118.367 94.9252L120.079 93.3572L119.674 92.9148ZM118.464 94.704V87.552H117.864V94.704H118.464ZM120.189 87.8919C119.795 87.5827 119.422 87.2895 119.07 87.0124L118.699 87.4836C119.051 87.7612 119.424 88.0546 119.819 88.3641L120.189 87.8919ZM119.065 87.4872L120.185 86.6392L119.823 86.1608L118.703 87.0088L119.065 87.4872ZM120.004 86.7H124.372V86.1H120.004V86.7ZM124.191 86.6392L125.311 87.4872L125.673 87.0088L124.553 86.1608L124.191 86.6392ZM125.307 87.0121L124.187 87.8921L124.558 88.3639L125.678 87.4839L125.307 87.0121ZM124.372 87.828H120.004V88.428H124.372V87.828ZM118.612 79.452H125.748V78.852H118.612V79.452ZM125.525 78.9515L123.973 80.6795L124.419 81.0805L125.971 79.3525L125.525 78.9515ZM124.196 80.58H120.244V81.18H124.196V80.58ZM120.462 80.674L118.83 78.946L118.394 79.358L120.026 81.086L120.462 80.674ZM118.416 86.992V79.84H117.816V86.992H118.416ZM117.915 80.0623L119.627 81.6143L120.03 81.1697L118.318 79.6177L117.915 80.0623ZM119.528 81.392V85.36H120.128V81.392H119.528ZM119.621 85.1429L117.909 86.7749L118.323 87.2091L120.035 85.5771L119.621 85.1429ZM129.665 95.408L129.448 95.201L128.964 95.708H129.665V95.408ZM131.313 93.68V93.38H131.185L131.096 93.473L131.313 93.68ZM135.265 93.68L135.488 93.4795L135.399 93.38H135.265V93.68ZM136.817 95.408V95.708H137.49L137.04 95.2075L136.817 95.408ZM129.185 87.552L129.393 87.3359L128.885 86.8466V87.552H129.185ZM130.913 89.216H131.213V89.0884L131.121 88.9999L130.913 89.216ZM130.913 93.136L131.115 93.3582L131.213 93.2689V93.136H130.913ZM129.185 94.704H128.885V95.3813L129.387 94.9262L129.185 94.704ZM137.329 94.704L137.122 94.9211L137.629 95.4047V94.704H137.329ZM135.601 93.056H135.301V93.1844L135.394 93.2731L135.601 93.056ZM135.601 89.12L135.399 88.8978L135.301 88.9871V89.12H135.601ZM137.329 87.552H137.629V86.8747L137.127 87.3298L137.329 87.552ZM129.649 79.152V78.852H128.948L129.432 79.359L129.649 79.152ZM136.801 79.152L137.022 79.3547L137.483 78.852H136.801V79.152ZM135.217 80.88V81.18H135.349L135.438 81.0827L135.217 80.88ZM131.297 80.88L131.08 81.087L131.169 81.18H131.297V80.88ZM129.137 86.992H128.837V87.688L129.343 87.2101L129.137 86.992ZM129.137 79.84L129.338 79.6168L128.837 79.1673V79.84H129.137ZM130.865 81.392H131.165V81.2582L131.066 81.1688L130.865 81.392ZM130.865 85.36L131.071 85.5781L131.165 85.4893V85.36H130.865ZM137.281 79.84H137.581V79.1393L137.074 79.6229L137.281 79.84ZM137.281 86.992L137.081 87.2152L137.581 87.6647V86.992H137.281ZM135.553 85.44H135.253V85.5738L135.353 85.6632L135.553 85.44ZM135.553 81.488L135.346 81.2709L135.253 81.3596V81.488H135.553ZM129.882 95.615L131.53 93.887L131.096 93.473L129.448 95.201L129.882 95.615ZM131.313 93.98H135.265V93.38H131.313V93.98ZM135.042 93.8805L136.594 95.6085L137.04 95.2075L135.488 93.4795L135.042 93.8805ZM136.817 95.108H129.665V95.708H136.817V95.108ZM128.977 87.7681L130.705 89.4321L131.121 88.9999L129.393 87.3359L128.977 87.7681ZM130.613 89.216V93.136H131.213V89.216H130.613ZM130.711 92.9138L128.983 94.4818L129.387 94.9262L131.115 93.3582L130.711 92.9138ZM129.485 94.704V87.552H128.885V94.704H129.485ZM137.536 94.4869L135.808 92.8389L135.394 93.2731L137.122 94.9211L137.536 94.4869ZM135.901 93.056V89.12H135.301V93.056H135.901ZM135.803 89.3422L137.531 87.7742L137.127 87.3298L135.399 88.8978L135.803 89.3422ZM137.029 87.552V94.704H137.629V87.552H137.029ZM129.649 79.452H136.801V78.852H129.649V79.452ZM136.58 78.9493L134.996 80.6773L135.438 81.0827L137.022 79.3547L136.58 78.9493ZM135.217 80.58H131.297V81.18H135.217V80.58ZM131.514 80.673L129.866 78.945L129.432 79.359L131.08 81.087L131.514 80.673ZM129.437 86.992V79.84H128.837V86.992H129.437ZM128.937 80.0632L130.665 81.6152L131.066 81.1688L129.338 79.6168L128.937 80.0632ZM130.565 81.392V85.36H131.165V81.392H130.565ZM130.659 85.1419L128.931 86.7739L129.343 87.2101L131.071 85.5781L130.659 85.1419ZM136.981 79.84V86.992H137.581V79.84H136.981ZM137.482 86.7688L135.754 85.2168L135.353 85.6632L137.081 87.2152L137.482 86.7688ZM135.853 85.44V81.488H135.253V85.44H135.853ZM135.76 81.7051L137.488 80.0571L137.074 79.6229L135.346 81.2709L135.76 81.7051ZM151.739 87.552L151.947 87.3359L151.439 86.8466V87.552H151.739ZM153.467 89.216H153.767V89.0884L153.675 88.9999L153.467 89.216ZM153.467 93.136L153.668 93.3582L153.767 93.2689V93.136H153.467ZM151.739 94.704H151.439V95.3813L151.94 94.9262L151.739 94.704ZM159.883 94.704L159.676 94.9211L160.183 95.4047V94.704H159.883ZM158.155 93.056H157.855V93.1844L157.948 93.2731L158.155 93.056ZM158.155 89.12L157.953 88.8978L157.855 88.9871V89.12H158.155ZM159.883 87.552H160.183V86.8747L159.681 87.3298L159.883 87.552ZM153.595 88.128L153.407 88.3623L153.49 88.428H153.595V88.128ZM152.459 87.248L152.279 87.0076L151.958 87.2474L152.279 87.488L152.459 87.248ZM153.595 86.4V86.1H153.495L153.415 86.1596L153.595 86.4ZM157.963 86.4L158.144 86.1608L158.064 86.1H157.963V86.4ZM159.083 87.248L159.268 87.4839L159.574 87.2436L159.264 87.0088L159.083 87.248ZM157.963 88.128V88.428H158.067L158.148 88.3639L157.963 88.128ZM151.691 86.992H151.391V87.688L151.897 87.2101L151.691 86.992ZM151.691 79.84L151.891 79.6168L151.391 79.1673V79.84H151.691ZM153.419 81.392H153.719V81.2582L153.619 81.1688L153.419 81.392ZM153.419 85.36L153.625 85.5781L153.719 85.4893V85.36H153.419ZM159.835 79.84H160.135V79.1393L159.628 79.6229L159.835 79.84ZM159.835 86.992L159.634 87.2152L160.135 87.6647V86.992H159.835ZM158.107 85.44H157.807V85.5738L157.906 85.6632L158.107 85.44ZM158.107 81.488L157.9 81.2709L157.807 81.3596V81.488H158.107ZM151.531 87.7681L153.259 89.4321L153.675 88.9999L151.947 87.3359L151.531 87.7681ZM153.167 89.216V93.136H153.767V89.216H153.167ZM153.265 92.9138L151.537 94.4818L151.94 94.9262L153.668 93.3582L153.265 92.9138ZM152.039 94.704V87.552H151.439V94.704H152.039ZM160.09 94.4869L158.362 92.8389L157.948 93.2731L159.676 94.9211L160.09 94.4869ZM158.455 93.056V89.12H157.855V93.056H158.455ZM158.356 89.3422L160.084 87.7742L159.681 87.3298L157.953 88.8978L158.356 89.3422ZM159.583 87.552V94.704H160.183V87.552H159.583ZM153.782 87.8937C153.406 87.5931 153.025 87.2979 152.639 87.008L152.279 87.488C152.66 87.7741 153.037 88.0656 153.407 88.3623L153.782 87.8937ZM152.638 87.4884L153.774 86.6404L153.415 86.1596L152.279 87.0076L152.638 87.4884ZM153.595 86.7H157.963V86.1H153.595V86.7ZM157.782 86.6392L158.902 87.4872L159.264 87.0088L158.144 86.1608L157.782 86.6392ZM158.897 87.0121L157.777 87.8921L158.148 88.3639L159.268 87.4839L158.897 87.0121ZM157.963 87.828H153.595V88.428H157.963V87.828ZM151.991 86.992V79.84H151.391V86.992H151.991ZM151.49 80.0632L153.218 81.6152L153.619 81.1688L151.891 79.6168L151.49 80.0632ZM153.119 81.392V85.36H153.719V81.392H153.119ZM153.213 85.1419L151.485 86.7739L151.897 87.2101L153.625 85.5781L153.213 85.1419ZM159.535 79.84V86.992H160.135V79.84H159.535ZM160.035 86.7688L158.307 85.2168L157.906 85.6632L159.634 87.2152L160.035 86.7688ZM158.407 85.44V81.488H157.807V85.44H158.407ZM158.314 81.7051L160.042 80.0571L159.628 79.6229L157.9 81.2709L158.314 81.7051ZM163.736 95.408L163.519 95.201L163.035 95.708H163.736V95.408ZM165.384 93.68V93.38H165.255L165.167 93.473L165.384 93.68ZM169.336 93.68L169.558 93.4784L169.469 93.38H169.336V93.68ZM170.904 95.408V95.708H171.581L171.126 95.2064L170.904 95.408ZM163.272 87.552L163.481 87.3369L162.972 86.8421V87.552H163.272ZM164.984 89.216H165.284V89.0892L165.193 89.0009L164.984 89.216ZM164.984 93.136L165.186 93.3572L165.284 93.268V93.136H164.984ZM163.272 94.704H162.972V95.3856L163.474 94.9252L163.272 94.704ZM165.112 88.128L164.927 88.3641L165.008 88.428H165.112V88.128ZM163.992 87.248L163.811 87.0088L163.501 87.2433L163.806 87.4836L163.992 87.248ZM165.112 86.4V86.1H165.011L164.931 86.1608L165.112 86.4ZM169.48 86.4L169.661 86.1608L169.58 86.1H169.48V86.4ZM170.6 87.248L170.785 87.4839L171.091 87.2436L170.781 87.0088L170.6 87.248ZM169.48 88.128V88.428H169.583L169.665 88.3639L169.48 88.128ZM163.72 79.152V78.852H163.024L163.502 79.358L163.72 79.152ZM170.856 79.152L171.079 79.3525L171.528 78.852H170.856V79.152ZM169.304 80.88V81.18H169.437L169.527 81.0805L169.304 80.88ZM165.352 80.88L165.134 81.086L165.222 81.18H165.352V80.88ZM163.224 86.992H162.924V87.6925L163.431 87.2091L163.224 86.992ZM163.224 79.84L163.425 79.6177L162.924 79.1631V79.84H163.224ZM164.936 81.392H165.236V81.259L165.137 81.1697L164.936 81.392ZM164.936 85.36L165.143 85.5771L165.236 85.4885V85.36H164.936ZM163.953 95.615L165.601 93.887L165.167 93.473L163.519 95.201L163.953 95.615ZM165.384 93.98H169.336V93.38H165.384V93.98ZM169.114 93.8816L170.682 95.6096L171.126 95.2064L169.558 93.4784L169.114 93.8816ZM170.904 95.108H163.736V95.708H170.904V95.108ZM163.063 87.7671L164.775 89.4311L165.193 89.0009L163.481 87.3369L163.063 87.7671ZM164.684 89.216V93.136H165.284V89.216H164.684ZM164.781 92.9148L163.069 94.4828L163.474 94.9252L165.186 93.3572L164.781 92.9148ZM163.572 94.704V87.552H162.972V94.704H163.572ZM165.297 87.8919C164.902 87.5827 164.529 87.2895 164.177 87.0124L163.806 87.4836C164.158 87.7612 164.532 88.0546 164.927 88.3641L165.297 87.8919ZM164.173 87.4872L165.293 86.6392L164.931 86.1608L163.811 87.0088L164.173 87.4872ZM165.112 86.7H169.48V86.1H165.112V86.7ZM169.299 86.6392L170.419 87.4872L170.781 87.0088L169.661 86.1608L169.299 86.6392ZM170.414 87.0121L169.294 87.8921L169.665 88.3639L170.785 87.4839L170.414 87.0121ZM169.48 87.828H165.112V88.428H169.48V87.828ZM163.72 79.452H170.856V78.852H163.72V79.452ZM170.632 78.9515L169.08 80.6795L169.527 81.0805L171.079 79.3525L170.632 78.9515ZM169.304 80.58H165.352V81.18H169.304V80.58ZM165.57 80.674L163.938 78.946L163.502 79.358L165.134 81.086L165.57 80.674ZM163.524 86.992V79.84H162.924V86.992H163.524ZM163.022 80.0623L164.734 81.6143L165.137 81.1697L163.425 79.6177L163.022 80.0623ZM164.636 81.392V85.36H165.236V81.392H164.636ZM164.729 85.1429L163.017 86.7749L163.431 87.2091L165.143 85.5771L164.729 85.1429ZM175.013 95.408L174.795 95.201L174.312 95.708H175.013V95.408ZM176.661 93.68V93.38H176.532L176.443 93.473L176.661 93.68ZM180.613 93.68L180.835 93.4784L180.745 93.38H180.613V93.68ZM182.181 95.408V95.708H182.858L182.403 95.2064L182.181 95.408ZM174.549 87.552L174.758 87.3369L174.249 86.8421V87.552H174.549ZM176.261 89.216H176.561V89.0892L176.47 89.0009L176.261 89.216ZM176.261 93.136L176.463 93.3572L176.561 93.268V93.136H176.261ZM174.549 94.704H174.249V95.3856L174.751 94.9252L174.549 94.704ZM174.501 86.992H174.201V87.6925L174.708 87.2091L174.501 86.992ZM174.501 79.84L174.702 79.6177L174.201 79.1631V79.84H174.501ZM176.213 81.392H176.513V81.259L176.414 81.1697L176.213 81.392ZM176.213 85.36L176.42 85.5771L176.513 85.4885V85.36H176.213ZM175.23 95.615L176.878 93.887L176.443 93.473L174.795 95.201L175.23 95.615ZM176.661 93.98H180.613V93.38H176.661V93.98ZM180.39 93.8816L181.958 95.6096L182.403 95.2064L180.835 93.4784L180.39 93.8816ZM182.181 95.108H175.013V95.708H182.181V95.108ZM174.339 87.7671L176.051 89.4311L176.47 89.0009L174.758 87.3369L174.339 87.7671ZM175.961 89.216V93.136H176.561V89.216H175.961ZM176.058 92.9148L174.346 94.4828L174.751 94.9252L176.463 93.3572L176.058 92.9148ZM174.849 94.704V87.552H174.249V94.704H174.849ZM174.801 86.992V79.84H174.201V86.992H174.801ZM174.299 80.0623L176.011 81.6143L176.414 81.1697L174.702 79.6177L174.299 80.0623ZM175.913 81.392V85.36H176.513V81.392H175.913ZM176.006 85.1429L174.294 86.7749L174.708 87.2091L176.42 85.5771L176.006 85.1429ZM185.585 87.552L185.794 87.3359L185.285 86.8466V87.552H185.585ZM187.313 89.216H187.613V89.0884L187.522 88.9999L187.313 89.216ZM187.313 93.136L187.515 93.3582L187.613 93.2689V93.136H187.313ZM185.585 94.704H185.285V95.3813L185.787 94.9262L185.585 94.704ZM187.425 88.128L187.234 88.359L187.317 88.428H187.425V88.128ZM186.305 87.248L186.124 87.0088L185.805 87.2503L186.127 87.4888L186.305 87.248ZM187.425 86.4V86.1H187.325L187.244 86.1608L187.425 86.4ZM191.809 86.4L191.991 86.1608L191.91 86.1H191.809V86.4ZM192.929 87.248L193.115 87.4839L193.421 87.2436L193.111 87.0088L192.929 87.248ZM191.809 88.128V88.428H191.913L191.995 88.3639L191.809 88.128ZM186.049 79.152V78.852H185.353L185.831 79.358L186.049 79.152ZM193.185 79.152L193.409 79.3525L193.858 78.852H193.185V79.152ZM191.633 80.88V81.18H191.767L191.857 81.0805L191.633 80.88ZM187.681 80.88L187.463 81.086L187.552 81.18H187.681V80.88ZM185.537 86.992H185.237V87.688L185.743 87.2101L185.537 86.992ZM185.537 79.84L185.738 79.6168L185.237 79.1673V79.84H185.537ZM187.265 81.392H187.565V81.2582L187.466 81.1688L187.265 81.392ZM187.265 85.36L187.471 85.5781L187.565 85.4893V85.36H187.265ZM193.697 79.84H193.997V79.1393L193.49 79.6229L193.697 79.84ZM193.697 86.992L193.497 87.2152L193.997 87.6647V86.992H193.697ZM191.969 85.44H191.669V85.5738L191.769 85.6632L191.969 85.44ZM191.969 81.488L191.762 81.2709L191.669 81.3596V81.488H191.969ZM185.377 87.7681L187.105 89.4321L187.522 88.9999L185.794 87.3359L185.377 87.7681ZM187.013 89.216V93.136H187.613V89.216H187.013ZM187.112 92.9138L185.384 94.4818L185.787 94.9262L187.515 93.3582L187.112 92.9138ZM185.885 94.704V87.552H185.285V94.704H185.885ZM187.617 87.897C187.24 87.5844 186.862 87.2878 186.484 87.0072L186.127 87.4888C186.495 87.7629 186.865 88.0529 187.234 88.359L187.617 87.897ZM186.487 87.4872L187.607 86.6392L187.244 86.1608L186.124 87.0088L186.487 87.4872ZM187.425 86.7H191.809V86.1H187.425V86.7ZM191.628 86.6392L192.748 87.4872L193.111 87.0088L191.991 86.1608L191.628 86.6392ZM192.744 87.0121L191.624 87.8921L191.995 88.3639L193.115 87.4839L192.744 87.0121ZM191.809 87.828H187.425V88.428H191.809V87.828ZM186.049 79.452H193.185V78.852H186.049V79.452ZM192.962 78.9515L191.41 80.6795L191.857 81.0805L193.409 79.3525L192.962 78.9515ZM191.633 80.58H187.681V81.18H191.633V80.58ZM187.9 80.674L186.268 78.946L185.831 79.358L187.463 81.086L187.9 80.674ZM185.837 86.992V79.84H185.237V86.992H185.837ZM185.337 80.0632L187.065 81.6152L187.466 81.1688L185.738 79.6168L185.337 80.0632ZM186.965 81.392V85.36H187.565V81.392H186.965ZM187.059 85.1419L185.331 86.7739L185.743 87.2101L187.471 85.5781L187.059 85.1419ZM193.397 79.84V86.992H193.997V79.84H193.397ZM193.898 86.7688L192.17 85.2168L191.769 85.6632L193.497 87.2152L193.898 86.7688ZM192.269 85.44V81.488H191.669V85.44H192.269ZM192.176 81.7051L193.904 80.0571L193.49 79.6229L191.762 81.2709L192.176 81.7051ZM210.011 87.552L210.219 87.3359L209.711 86.8466V87.552H210.011ZM211.739 89.216H212.039V89.0884L211.947 88.9999L211.739 89.216ZM211.739 91.392L211.94 91.6152L212.039 91.5258V91.392H211.739ZM210.011 92.944H209.711V93.6167L210.212 93.1672L210.011 92.944ZM211.899 88.128L211.714 88.3641L211.796 88.428H211.899V88.128ZM210.779 87.248L210.598 87.0088L210.288 87.2433L210.594 87.4836L210.779 87.248ZM211.899 86.4V86.1H211.798L211.718 86.1608L211.899 86.4ZM214.107 86.4L214.288 86.1608L214.208 86.1H214.107V86.4ZM215.227 87.248L215.413 87.4839L215.718 87.2436L215.408 87.0088L215.227 87.248ZM214.107 88.128V88.428H214.211L214.293 88.3639L214.107 88.128ZM208.363 79.152V78.852H207.667L208.145 79.358L208.363 79.152ZM215.515 79.152L215.736 79.3547L216.197 78.852H215.515V79.152ZM213.931 80.88V81.18H214.063L214.152 81.0827L213.931 80.88ZM209.995 80.88L209.777 81.086L209.866 81.18H209.995V80.88ZM215.979 79.84H216.279V79.1348L215.771 79.6239L215.979 79.84ZM215.979 86.992L215.778 87.2143L216.279 87.6689V86.992H215.979ZM214.267 85.44H213.967V85.573L214.066 85.6623L214.267 85.44ZM214.267 81.488L214.059 81.2719L213.967 81.3604V81.488H214.267ZM210.315 94.56L210.505 94.3278L210.498 94.3221L210.491 94.3168L210.315 94.56ZM209.739 94.144L209.554 93.9077L209.24 94.1536L209.564 94.3872L209.739 94.144ZM210.843 93.28V92.98H210.74L210.658 93.0437L210.843 93.28ZM210.907 93.28L211.09 93.0425L211.009 92.98H210.907V93.28ZM212.027 94.144L212.208 94.3832L212.521 94.1462L212.21 93.9065L212.027 94.144ZM210.907 94.992V95.292H211.008L211.088 95.2312L210.907 94.992ZM210.843 94.992L210.653 95.2242L210.736 95.292H210.843V94.992ZM209.803 87.7681L211.531 89.4321L211.947 88.9999L210.219 87.3359L209.803 87.7681ZM211.439 89.216V91.392H212.039V89.216H211.439ZM211.539 91.1688L209.811 92.7208L210.212 93.1672L211.94 91.6152L211.539 91.1688ZM210.311 92.944V87.552H209.711V92.944H210.311ZM212.084 87.8919C211.69 87.5827 211.317 87.2895 210.965 87.0124L210.594 87.4836C210.946 87.7612 211.319 88.0546 211.714 88.3641L212.084 87.8919ZM210.96 87.4872L212.08 86.6392L211.718 86.1608L210.598 87.0088L210.96 87.4872ZM211.899 86.7H214.107V86.1H211.899V86.7ZM213.926 86.6392L215.046 87.4872L215.408 87.0088L214.288 86.1608L213.926 86.6392ZM215.042 87.0121L213.922 87.8921L214.293 88.3639L215.413 87.4839L215.042 87.0121ZM214.107 87.828H211.899V88.428H214.107V87.828ZM208.363 79.452H215.515V78.852H208.363V79.452ZM215.294 78.9493L213.71 80.6773L214.152 81.0827L215.736 79.3547L215.294 78.9493ZM213.931 80.58H209.995V81.18H213.931V80.58ZM210.213 80.674L208.581 78.946L208.145 79.358L209.777 81.086L210.213 80.674ZM215.679 79.84V86.992H216.279V79.84H215.679ZM216.181 86.7697L214.469 85.2177L214.066 85.6623L215.778 87.2143L216.181 86.7697ZM214.567 85.44V81.488H213.967V85.44H214.567ZM214.475 81.7041L216.187 80.0561L215.771 79.6239L214.059 81.2719L214.475 81.7041ZM210.491 94.3168L209.915 93.9008L209.564 94.3872L210.14 94.8032L210.491 94.3168ZM209.924 94.3803L211.028 93.5163L210.658 93.0437L209.554 93.9077L209.924 94.3803ZM210.843 93.58H210.907V92.98H210.843V93.58ZM210.724 93.5175L211.844 94.3815L212.21 93.9065L211.09 93.0425L210.724 93.5175ZM211.846 93.9048L210.726 94.7528L211.088 95.2312L212.208 94.3832L211.846 93.9048ZM210.907 94.692H210.843V95.292H210.907V94.692ZM211.033 94.7598L210.505 94.3278L210.125 94.7922L210.653 95.2242L211.033 94.7598Z" fill="#2B2B29"/>
<rect x="70.4722" y="144.613" width="170.735" height="172.942" rx="10" fill="#DEDEDE"/>
<g filter="url(#filter2_d)">
<rect x="74.4272" y="148.052" width="28.0249" height="28.3871" rx="5" fill="white"/>
<rect x="108.057" y="148.052" width="28.0249" height="28.3871" rx="5" fill="white"/>
<rect x="141.689" y="148.052" width="28.0249" height="28.3871" rx="5" fill="white"/>
<rect x="175.317" y="148.052" width="28.0249" height="28.3871" rx="5" fill="white"/>
<rect x="208.948" y="148.052" width="28.0249" height="28.3871" rx="5" fill="white"/>
</g>
<g filter="url(#filter3_d)">
<rect x="74.4272" y="182.116" width="28.0249" height="28.3871" rx="5" fill="white"/>
<rect x="108.057" y="182.116" width="28.0249" height="28.3871" rx="5" fill="white"/>
<rect x="141.689" y="182.116" width="28.0249" height="28.3871" rx="5" fill="white"/>
<rect x="175.317" y="182.116" width="28.0249" height="28.3871" rx="5" fill="white"/>
<rect x="208.948" y="182.116" width="28.0249" height="28.3871" rx="5" fill="white"/>
</g>
<g filter="url(#filter4_d)">
<rect x="74.4272" y="216.18" width="28.0249" height="28.3871" rx="5" fill="white"/>
<rect x="108.057" y="216.18" width="28.0249" height="28.3871" rx="5" fill="white"/>
<rect x="141.689" y="216.18" width="28.0249" height="28.3871" rx="5" fill="white"/>
<rect x="175.317" y="216.18" width="28.0249" height="28.3871" rx="5" fill="white"/>
<rect x="208.948" y="216.18" width="28.0249" height="28.3871" rx="5" fill="white"/>
</g>
<g filter="url(#filter5_d)">
<rect x="74.4272" y="250.245" width="28.0249" height="28.3871" rx="5" fill="white"/>
<rect x="108.057" y="250.245" width="28.0249" height="28.3871" rx="5" fill="white"/>
<rect x="141.689" y="250.245" width="28.0249" height="28.3871" rx="5" fill="white"/>
<rect x="175.317" y="250.245" width="28.0249" height="28.3871" rx="5" fill="white"/>
</g>
<g filter="url(#filter6_d)">
<rect x="108.057" y="284.31" width="28.0249" height="28.3871" rx="5" fill="white"/>
</g>
<g filter="url(#filter7_d)">
<rect x="141.923" y="284.31" width="28.0249" height="28.3871" rx="5" fill="white"/>
</g>
<g filter="url(#filter8_d)">
<rect x="175.22" y="284.31" width="28.0249" height="28.3871" rx="5" fill="white"/>
</g>
<g filter="url(#filter9_d)">
<rect x="74.3569" y="284.31" width="28.0249" height="28.3871" rx="5" fill="white"/>
</g>
<g filter="url(#filter10_d)">
<rect x="208.947" y="250.245" width="28.0249" height="62.4516" rx="5" fill="#F8F8F8"/>
</g>
</g>
<defs>
<filter id="filter0_ddi" x="0.000488281" y="0" width="313" height="440" filterUnits="userSpaceOnUse" color-interpolation-filters="sRGB">
<feFlood flood-opacity="0" result="BackgroundImageFix"/>
<feColorMatrix in="SourceAlpha" type="matrix" values="0 0 0 0 0 0 0 0 0 0 0 0 0 0 0 0 0 0 127 0" result="hardAlpha"/>
<feOffset dy="12"/>
<feGaussianBlur stdDeviation="22"/>
<feColorMatrix type="matrix" values="0 0 0 0 0 0 0 0 0 0 0 0 0 0 0 0 0 0 0.24 0"/>
<feBlend mode="normal" in2="BackgroundImageFix" result="effect1_dropShadow"/>
<feColorMatrix in="SourceAlpha" type="matrix" values="0 0 0 0 0 0 0 0 0 0 0 0 0 0 0 0 0 0 127 0" result="hardAlpha"/>
<feOffset dy="4"/>
<feGaussianBlur stdDeviation="14"/>
<feColorMatrix type="matrix" values="0 0 0 0 0 0 0 0 0 0 0 0 0 0 0 0 0 0 0.03 0"/>
<feBlend mode="normal" in2="effect1_dropShadow" result="effect2_dropShadow"/>
<feBlend mode="normal" in="SourceGraphic" in2="effect2_dropShadow" result="shape"/>
<feColorMatrix in="SourceAlpha" type="matrix" values="0 0 0 0 0 0 0 0 0 0 0 0 0 0 0 0 0 0 127 0" result="hardAlpha"/>
<feOffset dy="6"/>
<feGaussianBlur stdDeviation="2.5"/>
<feComposite in2="hardAlpha" operator="arithmetic" k2="-1" k3="1"/>
<feColorMatrix type="matrix" values="0 0 0 0 0 0 0 0 0 0 0 0 0 0 0 0 0 0 0.03 0"/>
<feBlend mode="normal" in2="shape" result="effect3_innerShadow"/>
</filter>
<filter id="filter1_d" x="61.6177" y="53.0876" width="193.37" height="66.8848" filterUnits="userSpaceOnUse" color-interpolation-filters="sRGB">
<feFlood flood-opacity="0" result="BackgroundImageFix"/>
<feColorMatrix in="SourceAlpha" type="matrix" values="0 0 0 0 0 0 0 0 0 0 0 0 0 0 0 0 0 0 127 0" result="hardAlpha"/>
<feOffset dx="2" dy="2"/>
<feColorMatrix type="matrix" values="0 0 0 0 0 0 0 0 0 0 0 0 0 0 0 0 0 0 0.35 0"/>
<feBlend mode="normal" in2="BackgroundImageFix" result="effect1_dropShadow"/>
<feBlend mode="normal" in="SourceGraphic" in2="effect1_dropShadow" result="shape"/>
</filter>
<filter id="filter2_d" x="74.4272" y="148.052" width="165.545" height="31.3871" filterUnits="userSpaceOnUse" color-interpolation-filters="sRGB">
<feFlood flood-opacity="0" result="BackgroundImageFix"/>
<feColorMatrix in="SourceAlpha" type="matrix" values="0 0 0 0 0 0 0 0 0 0 0 0 0 0 0 0 0 0 127 0" result="hardAlpha"/>
<feOffset dx="3" dy="3"/>
<feColorMatrix type="matrix" values="0 0 0 0 0 0 0 0 0 0 0 0 0 0 0 0 0 0 0.3 0"/>
<feBlend mode="normal" in2="BackgroundImageFix" result="effect1_dropShadow"/>
<feBlend mode="normal" in="SourceGraphic" in2="effect1_dropShadow" result="shape"/>
</filter>
<filter id="filter3_d" x="74.4272" y="182.116" width="165.545" height="31.3871" filterUnits="userSpaceOnUse" color-interpolation-filters="sRGB">
<feFlood flood-opacity="0" result="BackgroundImageFix"/>
<feColorMatrix in="SourceAlpha" type="matrix" values="0 0 0 0 0 0 0 0 0 0 0 0 0 0 0 0 0 0 127 0" result="hardAlpha"/>
<feOffset dx="3" dy="3"/>
<feColorMatrix type="matrix" values="0 0 0 0 0 0 0 0 0 0 0 0 0 0 0 0 0 0 0.3 0"/>
<feBlend mode="normal" in2="BackgroundImageFix" result="effect1_dropShadow"/>
<feBlend mode="normal" in="SourceGraphic" in2="effect1_dropShadow" result="shape"/>
</filter>
<filter id="filter4_d" x="74.4272" y="216.18" width="165.545" height="31.3871" filterUnits="userSpaceOnUse" color-interpolation-filters="sRGB">
<feFlood flood-opacity="0" result="BackgroundImageFix"/>
<feColorMatrix in="SourceAlpha" type="matrix" values="0 0 0 0 0 0 0 0 0 0 0 0 0 0 0 0 0 0 127 0" result="hardAlpha"/>
<feOffset dx="3" dy="3"/>
<feColorMatrix type="matrix" values="0 0 0 0 0 0 0 0 0 0 0 0 0 0 0 0 0 0 0.3 0"/>
<feBlend mode="normal" in2="BackgroundImageFix" result="effect1_dropShadow"/>
<feBlend mode="normal" in="SourceGraphic" in2="effect1_dropShadow" result="shape"/>
</filter>
<filter id="filter5_d" x="74.4272" y="250.245" width="131.915" height="31.3871" filterUnits="userSpaceOnUse" color-interpolation-filters="sRGB">
<feFlood flood-opacity="0" result="BackgroundImageFix"/>
<feColorMatrix in="SourceAlpha" type="matrix" values="0 0 0 0 0 0 0 0 0 0 0 0 0 0 0 0 0 0 127 0" result="hardAlpha"/>
<feOffset dx="3" dy="3"/>
<feColorMatrix type="matrix" values="0 0 0 0 0 0 0 0 0 0 0 0 0 0 0 0 0 0 0.3 0"/>
<feBlend mode="normal" in2="BackgroundImageFix" result="effect1_dropShadow"/>
<feBlend mode="normal" in="SourceGraphic" in2="effect1_dropShadow" result="shape"/>
</filter>
<filter id="filter6_d" x="108.057" y="284.31" width="31.0249" height="31.3871" filterUnits="userSpaceOnUse" color-interpolation-filters="sRGB">
<feFlood flood-opacity="0" result="BackgroundImageFix"/>
<feColorMatrix in="SourceAlpha" type="matrix" values="0 0 0 0 0 0 0 0 0 0 0 0 0 0 0 0 0 0 127 0" result="hardAlpha"/>
<feOffset dx="3" dy="3"/>
<feColorMatrix type="matrix" values="0 0 0 0 0 0 0 0 0 0 0 0 0 0 0 0 0 0 0.25 0"/>
<feBlend mode="normal" in2="BackgroundImageFix" result="effect1_dropShadow"/>
<feBlend mode="normal" in="SourceGraphic" in2="effect1_dropShadow" result="shape"/>
</filter>
<filter id="filter7_d" x="141.923" y="284.31" width="31.0249" height="31.3871" filterUnits="userSpaceOnUse" color-interpolation-filters="sRGB">
<feFlood flood-opacity="0" result="BackgroundImageFix"/>
<feColorMatrix in="SourceAlpha" type="matrix" values="0 0 0 0 0 0 0 0 0 0 0 0 0 0 0 0 0 0 127 0" result="hardAlpha"/>
<feOffset dx="3" dy="3"/>
<feColorMatrix type="matrix" values="0 0 0 0 0 0 0 0 0 0 0 0 0 0 0 0 0 0 0.25 0"/>
<feBlend mode="normal" in2="BackgroundImageFix" result="effect1_dropShadow"/>
<feBlend mode="normal" in="SourceGraphic" in2="effect1_dropShadow" result="shape"/>
</filter>
<filter id="filter8_d" x="175.22" y="284.31" width="31.0249" height="31.3871" filterUnits="userSpaceOnUse" color-interpolation-filters="sRGB">
<feFlood flood-opacity="0" result="BackgroundImageFix"/>
<feColorMatrix in="SourceAlpha" type="matrix" values="0 0 0 0 0 0 0 0 0 0 0 0 0 0 0 0 0 0 127 0" result="hardAlpha"/>
<feOffset dx="3" dy="3"/>
<feColorMatrix type="matrix" values="0 0 0 0 0 0 0 0 0 0 0 0 0 0 0 0 0 0 0.25 0"/>
<feBlend mode="normal" in2="BackgroundImageFix" result="effect1_dropShadow"/>
<feBlend mode="normal" in="SourceGraphic" in2="effect1_dropShadow" result="shape"/>
</filter>
<filter id="filter9_d" x="74.3569" y="284.31" width="31.0249" height="31.3871" filterUnits="userSpaceOnUse" color-interpolation-filters="sRGB">
<feFlood flood-opacity="0" result="BackgroundImageFix"/>
<feColorMatrix in="SourceAlpha" type="matrix" values="0 0 0 0 0 0 0 0 0 0 0 0 0 0 0 0 0 0 127 0" result="hardAlpha"/>
<feOffset dx="3" dy="3"/>
<feColorMatrix type="matrix" values="0 0 0 0 0 0 0 0 0 0 0 0 0 0 0 0 0 0 0.25 0"/>
<feBlend mode="normal" in2="BackgroundImageFix" result="effect1_dropShadow"/>
<feBlend mode="normal" in="SourceGraphic" in2="effect1_dropShadow" result="shape"/>
</filter>
<filter id="filter10_d" x="208.947" y="250.245" width="31.0249" height="65.4516" filterUnits="userSpaceOnUse" color-interpolation-filters="sRGB">
<feFlood flood-opacity="0" result="BackgroundImageFix"/>
<feColorMatrix in="SourceAlpha" type="matrix" values="0 0 0 0 0 0 0 0 0 0 0 0 0 0 0 0 0 0 127 0" result="hardAlpha"/>
<feOffset dx="3" dy="3"/>
<feColorMatrix type="matrix" values="0 0 0 0 0 0 0 0 0 0 0 0 0 0 0 0 0 0 0.25 0"/>
<feBlend mode="normal" in2="BackgroundImageFix" result="effect1_dropShadow"/>
<feBlend mode="normal" in="SourceGraphic" in2="effect1_dropShadow" result="shape"/>
</filter>
</defs>
</svg>
