<svg width="452" height="469" viewBox="0 0 452 469" fill="none" xmlns="http://www.w3.org/2000/svg">
<circle cx="226" cy="243" r="226" fill="#FBFBFB"/>
<path fill-rule="evenodd" clip-rule="evenodd" d="M40 98C40 104.627 45.3726 110 52 110C58.6274 110 64 104.627 64 98C64 91.3726 58.6274 86 52 86C45.3726 86 40 91.3726 40 98ZM42.4 98C42.4 92.6981 46.6981 88.4 52 88.4C57.3019 88.4 61.6 92.6981 61.6 98C61.6 103.302 57.3019 107.6 52 107.6C46.6981 107.6 42.4 103.302 42.4 98ZM46.9088 99.2C46.2461 99.2 45.7088 98.6627 45.7088 98C45.7088 97.3373 46.2461 96.8 46.9088 96.8H57.0912C57.7539 96.8 58.2912 97.3373 58.2912 98C58.2912 98.6627 57.7539 99.2 57.0912 99.2H46.9088Z" fill="#FBD09D"/>
<path fill-rule="evenodd" clip-rule="evenodd" d="M249 329C249 338.941 257.059 347 267 347C276.941 347 285 338.941 285 329C285 319.059 276.941 311 267 311C257.059 311 249 319.059 249 329ZM252.6 329C252.6 321.047 259.047 314.6 267 314.6C274.953 314.6 281.4 321.047 281.4 329C281.4 336.953 274.953 343.4 267 343.4C259.047 343.4 252.6 336.953 252.6 329ZM275.527 324.816C276.199 324.083 276.149 322.945 275.416 322.273C274.683 321.601 273.545 321.651 272.873 322.384L264.365 331.666L261.183 327.848C260.546 327.084 259.411 326.981 258.648 327.617C257.884 328.254 257.781 329.389 258.417 330.152L262.917 335.552C263.25 335.951 263.738 336.187 264.258 336.199C264.777 336.212 265.276 335.999 265.627 335.616L275.527 324.816Z" fill="#FBD09D"/>
<path opacity="0.5" d="M22.9091 284C21.3018 284 20 285.302 20 286.909V307.273C20 308.88 21.3018 310.182 22.9091 310.182H43.2727C44.88 310.182 46.1818 308.88 46.1818 307.273V286.909C46.1818 285.302 44.8785 284 43.2727 284H22.9091ZM41.8182 289.818C42.1902 289.818 42.5622 289.96 42.8466 290.244C43.4153 290.813 43.4153 291.732 42.8466 292.301L31.8494 303.298C31.576 303.572 31.2065 303.724 30.821 303.724C30.4356 303.724 30.0646 303.572 29.7926 303.298L24.7699 298.276C24.2012 297.707 24.2012 296.787 24.7699 296.219C25.3386 295.65 26.258 295.65 26.8267 296.219L30.821 300.213L40.7898 290.244C41.0741 289.96 41.4462 289.818 41.8182 289.818ZM49.0909 289.818V307.273C49.0909 310.486 46.4858 313.091 43.2727 313.091H25.8182C25.8182 314.698 27.12 316 28.7273 316H49.0909C50.6982 316 52 314.698 52 313.091V292.727C52 291.12 50.6967 289.818 49.0909 289.818Z" fill="#FBA43F"/>
<path d="M176.608 289.89L173.098 306.11L167.838 308.54L166.958 288L176.608 289.89Z" fill="#FBA43F"/>
<path d="M170.748 188C172.498 203.91 186.118 253.43 177.968 290.21L164.278 291.14L170.748 192C172.728 190.4 168.868 189.72 170.748 188Z" fill="#569D9A"/>
<ellipse cx="135" cy="460.896" rx="69" ry="4" fill="#C4C4C4"/>
<path d="M140.378 181.448L139.568 163.51L120.176 156.381L121.275 181.168L105.461 187.787L139.218 205.135L155.972 184.498L140.378 181.448Z" fill="#FBA43F"/>
<g style="mix-blend-mode:multiply" opacity="0.2">
<path d="M120.955 173.989L120.175 156.371L139.568 163.51L140.307 179.878C133.609 178.849 127.092 176.866 120.955 173.989Z" fill="#FBA43F"/>
</g>
<path d="M121.983 164.204C121.983 164.204 132.757 175.219 146.83 167.755C156.749 162.522 152.75 147.402 146.523 133.188C136.816 111.041 129.059 112.552 118.412 117.841C94.3346 129.914 121.983 164.204 121.983 164.204Z" fill="#FBA43F"/>
<path d="M102.578 125.546C107.535 127.731 107.003 125.003 111.88 127.361C121.443 136.708 115.439 143.432 115.439 143.432L118.888 151.271L116.076 153.332L120.599 161.96C120.599 161.96 111.142 156.434 102.678 142.027C96.3689 131.275 98.9609 126.575 102.578 125.546Z" fill="#35495E"/>
<path d="M117.088 135.999C110.5 137.586 103.395 135.872 98.8639 131.197C98.8664 133.78 99.912 137.32 102.678 142.027C111.142 156.435 120.599 161.96 120.599 161.96L116.076 153.332L118.888 151.271L115.429 143.435C116.226 142.389 116.787 141.183 117.073 139.899C117.36 138.615 117.365 137.285 117.088 135.999Z" fill="#213344"/>
<path d="M119.401 158.795L112.803 145.552C112.803 145.552 107.21 145.957 108.402 150.699C109.593 155.442 114.878 159.948 119.401 158.795Z" fill="#FBA43F"/>
<path d="M109.428 131.323C109.428 131.323 124.683 132.712 133.096 122.933L127.845 123.847C127.845 123.847 138.612 119.454 139.8 111.666L137.044 114.097C137.044 114.097 140.5 107.123 134.237 102.512C134.237 102.512 135.179 104.981 133.922 106.815C132.664 108.649 106.668 103.713 102.715 116.71C98.7625 129.706 109.428 131.323 109.428 131.323Z" fill="#35495E"/>
<path d="M117.169 156.92C116.671 157.067 116.152 157.131 115.634 157.11C115.359 157.098 115.086 157.059 114.819 156.994C114.517 156.924 114.235 156.785 113.995 156.587C113.702 156.354 113.505 156.021 113.442 155.652C113.419 155.552 113.408 155.45 113.407 155.348L113.409 155.158C113.372 155.044 113.408 154.927 113.432 154.773C113.455 154.618 113.492 154.438 113.532 154.268C113.589 154.103 113.661 153.943 113.745 153.789C113.848 153.621 113.977 153.47 114.126 153.341C114.317 153.175 114.552 153.067 114.802 153.028L114.227 153.949C113.764 152.838 113.295 151.676 112.746 150.623C112.614 150.365 112.466 150.114 112.305 149.873C112.171 149.651 112.001 149.454 111.802 149.289C111.726 149.217 111.628 149.174 111.524 149.165C111.42 149.157 111.317 149.184 111.23 149.242C110.984 149.42 110.771 149.638 110.598 149.887C110.629 149.545 110.748 149.218 110.942 148.935C111.064 148.762 111.244 148.637 111.449 148.583C111.666 148.518 111.898 148.528 112.109 148.612C112.462 148.748 112.783 148.956 113.051 149.223C113.291 149.467 113.517 149.723 113.729 149.992C114.484 151.063 115.087 152.233 115.522 153.469L114.959 154.396C115.064 154.362 114.959 154.396 114.959 154.396L114.857 154.503C114.809 154.518 114.793 154.628 114.748 154.685L114.673 154.909C114.641 155.022 114.619 155.138 114.606 155.256L114.582 155.442C114.582 155.442 114.582 155.442 114.597 155.49C114.601 155.547 114.619 155.603 114.649 155.651C114.657 155.718 114.678 155.783 114.711 155.842C114.831 155.99 114.977 156.113 115.143 156.207C115.343 156.314 115.549 156.409 115.76 156.491C116.22 156.665 116.69 156.809 117.169 156.92Z" fill="#C66258"/>
<path d="M151.093 429.19C151.443 430.19 152.473 461.916 154.202 462.266C155.931 462.616 222.995 470.265 164.588 453.997L167.337 400.143L151.093 429.19Z" fill="#FBA43F"/>
<path d="M152.312 455.267C152.312 455.267 153.162 463.326 154.222 463.326C155.281 463.326 187.489 466.716 188.978 463.536C190.468 460.356 167.147 453.997 167.147 453.997L164.148 457.817L152.312 455.267Z" fill="#347474"/>
<path d="M187.709 461.616C186.299 464.616 156.921 461.706 153.312 461.426C153.582 462.516 153.902 463.316 154.232 463.316C155.291 463.316 187.499 466.706 188.988 463.526C189.238 462.976 188.718 462.316 187.709 461.616Z" fill="white"/>
<path d="M124.443 429.19C124.104 430.19 123.074 461.916 121.345 462.266C119.615 462.616 52.5416 470.265 110.959 453.997L108.2 400.143L124.443 429.19Z" fill="#FBA43F"/>
<path d="M123.244 455.267C123.244 455.267 122.405 463.326 121.345 463.326C120.285 463.326 88.068 466.716 86.5886 463.536C85.1092 460.356 108.41 453.997 108.41 453.997L111.409 457.817L123.244 455.267Z" fill="#347474"/>
<path d="M87.8579 461.616C89.2773 464.616 118.646 461.706 122.254 461.426C121.985 462.516 121.675 463.316 121.345 463.316C120.285 463.316 88.0678 466.706 86.5884 463.526C86.3285 462.976 86.8482 462.316 87.8579 461.616Z" fill="white"/>
<path d="M107.781 286.486C107.781 286.486 103.992 397.993 106.521 443.548C106.521 443.548 112.199 450.347 126.703 444.228L142.467 315.723L150.034 444.228C150.034 444.228 157.601 449.667 167.697 442.868L173.365 274.248L107.781 286.486Z" fill="#35495E"/>
<path opacity="0.5" d="M142.597 317.852L150.034 444.198C150.034 444.198 157.601 449.637 167.697 442.838L172.245 307.524L142.597 317.852Z" fill="#213344"/>
<path opacity="0.5" d="M172.865 289.196L173.365 274.248L107.78 286.486C107.78 286.486 107.68 289.346 107.53 294.325C149.164 311.183 164.438 295.135 172.865 289.196Z" fill="#213344"/>
<path d="M119.606 180.608L134.02 189.747L140.398 202.015L146.635 181.148C146.635 181.148 164.158 181.038 171.016 188.747C177.873 196.456 174.015 284.316 174.015 284.316L148.624 298.024L145.306 286.856L144.446 298.644L105.251 287.716C105.251 287.716 96.8347 193.546 103.962 187.437C109.96 182.318 119.606 180.608 119.606 180.608Z" fill="#63B7AF"/>
<path opacity="0.2" d="M105.181 206.475C103.832 206.665 102.482 206.825 101.133 206.975C100.653 236.272 105.251 287.746 105.251 287.746L144.446 298.675L145.306 286.886L148.624 298.025L174.014 284.316C174.014 284.316 174.734 267.828 175.014 248.52C167.711 246.947 160.565 244.718 153.662 241.861C135.399 234.382 114.358 224.863 105.181 206.475Z" fill="#213344"/>
<path d="M139.738 206.535C139.738 206.917 139.851 207.29 140.063 207.607C140.275 207.925 140.576 208.172 140.929 208.318C141.281 208.464 141.669 208.503 142.043 208.428C142.418 208.354 142.761 208.17 143.031 207.9C143.301 207.63 143.485 207.286 143.559 206.912C143.634 206.537 143.595 206.149 143.449 205.797C143.303 205.444 143.056 205.143 142.739 204.93C142.422 204.718 142.049 204.605 141.667 204.605C141.155 204.605 140.665 204.809 140.303 205.171C139.941 205.532 139.738 206.023 139.738 206.535Z" fill="#80CEC4"/>
<path d="M143.806 280.457C143.806 280.839 143.919 281.212 144.131 281.529C144.343 281.846 144.645 282.094 144.997 282.24C145.35 282.386 145.738 282.424 146.112 282.35C146.486 282.275 146.83 282.091 147.1 281.822C147.369 281.552 147.553 281.208 147.628 280.833C147.702 280.459 147.664 280.071 147.518 279.718C147.372 279.366 147.125 279.064 146.807 278.852C146.49 278.64 146.117 278.527 145.735 278.527C145.224 278.527 144.733 278.73 144.371 279.092C144.009 279.454 143.806 279.945 143.806 280.457Z" fill="#80CEC4"/>
<path d="M143.376 262.239C143.374 262.621 143.485 262.995 143.696 263.314C143.907 263.632 144.208 263.881 144.56 264.029C144.912 264.177 145.301 264.216 145.675 264.143C146.05 264.07 146.395 263.887 146.666 263.617C146.937 263.348 147.121 263.004 147.197 262.629C147.272 262.254 147.234 261.866 147.089 261.513C146.943 261.159 146.696 260.857 146.378 260.645C146.061 260.432 145.687 260.319 145.305 260.319C144.795 260.319 144.306 260.521 143.945 260.881C143.583 261.24 143.379 261.729 143.376 262.239Z" fill="#80CEC4"/>
<path d="M143.376 243.171C143.376 243.553 143.489 243.926 143.701 244.243C143.913 244.561 144.214 244.808 144.567 244.954C144.919 245.1 145.307 245.139 145.682 245.064C146.056 244.99 146.4 244.806 146.669 244.536C146.939 244.266 147.123 243.922 147.197 243.548C147.272 243.173 147.234 242.785 147.088 242.433C146.942 242.08 146.694 241.779 146.377 241.566C146.06 241.354 145.687 241.241 145.305 241.241C144.794 241.241 144.303 241.445 143.941 241.806C143.579 242.168 143.376 242.659 143.376 243.171Z" fill="#80CEC4"/>
<path d="M143.727 224.644C144.792 224.644 145.656 223.78 145.656 222.714C145.656 221.648 144.792 220.784 143.727 220.784C142.661 220.784 141.797 221.648 141.797 222.714C141.797 223.78 142.661 224.644 143.727 224.644Z" fill="#80CEC4"/>
<path d="M147.395 178.438L141.507 189.607L140.607 201.806L143.306 192.167L147.665 195.826L151.093 181.468L147.395 178.438Z" fill="#80CEC4"/>
<path d="M140.398 202.016L134.43 189.047L118.746 175.249L114.458 181.248L130.102 198.176L133.95 190.247L140.398 202.016Z" fill="#80CEC4"/>
<path d="M165.742 175.918C150.163 182.661 118.877 186.509 104 187C103.714 196.598 99.7993 215.136 105 212.5C123.405 207.337 179.751 193.466 181.706 191.86C183.66 190.254 203.156 164.003 212.659 151.078L202.718 142.466L165.742 175.918Z" fill="#63B7AF"/>
<path d="M215.09 153.788L200.074 140.095L206.932 138.028L217.466 148.903L215.09 153.788Z" fill="#80CEC4"/>
<path d="M218.551 127.615L207.338 138.874L215.744 147.111L224.234 143L231.734 132.949L218.551 127.615Z" fill="#FBA43F"/>
<rect x="365.5" y="81.5" width="86" height="187" rx="9.5" fill="#569D9A" stroke="#239C9C"/>
<path d="M294.729 27.3093V4.18139L315.229 0.0142822V40.9908L294.729 27.3093Z" fill="#074D4D"/>
<path d="M335.729 27.3093V4.18139L315.229 0.0142822V40.9908L335.729 27.3093Z" fill="#074D4D"/>
<g style="mix-blend-mode:multiply">
<path d="M335.729 27.3093V4.18142L315.212 0V41L335.729 27.3093Z" fill="#549393"/>
</g>
<rect x="285.5" y="3.27966" width="58.0678" height="19.8355" rx="1.5" fill="#FBA43F" stroke="#F76910"/>
<g style="mix-blend-mode:multiply">
<path d="M315.082 3.4812H342.471C343.023 3.4812 343.471 3.92892 343.471 4.4812V21.9246C343.471 22.4769 343.023 22.9246 342.471 22.9246H315.082L315.082 3.4812Z" fill="#FBA43F" fill-opacity="0.52"/>
</g>
<g filter="url(#filter0_d_4346_2968)">
<path d="M292.595 16.9706H295.56C297.237 16.9706 298.059 16.1159 298.059 14.9752C298.059 13.8666 297.273 13.2158 296.493 13.1764V13.1049C297.208 12.9368 297.773 12.4362 297.773 11.5457C297.773 10.455 296.987 9.64685 295.399 9.64685H292.595V16.9706ZM293.922 15.862V13.7164H295.385C296.203 13.7164 296.711 14.2171 296.711 14.8715C296.711 15.4544 296.311 15.862 295.349 15.862H293.922ZM293.922 12.7616V10.7411H295.263C296.043 10.7411 296.447 11.1524 296.447 11.7174C296.447 12.3611 295.925 12.7616 295.234 12.7616H293.922Z" fill="white"/>
<path d="M301.588 17.0779C302.868 17.0779 303.748 16.4521 303.977 15.4973L302.768 15.3614C302.593 15.8263 302.164 16.0694 301.606 16.0694C300.769 16.0694 300.215 15.5187 300.204 14.5782H304.031V14.1813C304.031 12.2538 302.872 11.4063 301.52 11.4063C299.947 11.4063 298.92 12.5613 298.92 14.2564C298.92 15.98 299.932 17.0779 301.588 17.0779ZM300.208 13.7057C300.247 13.0048 300.766 12.4147 301.538 12.4147C302.282 12.4147 302.783 12.9583 302.79 13.7057H300.208Z" fill="white"/>
<path d="M309.467 12.9297C309.288 11.9999 308.544 11.4063 307.257 11.4063C305.934 11.4063 305.033 12.0571 305.036 13.0727C305.033 13.8737 305.526 14.403 306.581 14.6211L307.518 14.8178C308.022 14.9287 308.258 15.1325 308.258 15.4436C308.258 15.8191 307.851 16.1016 307.236 16.1016C306.642 16.1016 306.256 15.8442 306.145 15.3507L304.883 15.4722C305.043 16.4807 305.891 17.0779 307.239 17.0779C308.612 17.0779 309.581 16.3663 309.585 15.3256C309.581 14.5425 309.077 14.0633 308.04 13.838L307.103 13.6377C306.545 13.5126 306.324 13.3195 306.327 13.0012C306.324 12.6293 306.735 12.3718 307.275 12.3718C307.872 12.3718 308.187 12.6972 308.287 13.0584L309.467 12.9297Z" fill="white"/>
<path d="M313.395 11.4778H312.312V10.1618H311.017V11.4778H310.238V12.4791H311.017V15.533C311.01 16.5665 311.761 17.0743 312.734 17.0457C313.102 17.035 313.356 16.9635 313.495 16.917L313.277 15.9049C313.206 15.9228 313.059 15.955 312.898 15.955C312.573 15.955 312.312 15.8406 312.312 15.3185V12.4791H313.395V11.4778Z" fill="white"/>
<path d="M316.976 19.0304H318.27V16.1052H318.324C318.528 16.5057 318.953 17.0672 319.898 17.0672C321.192 17.0672 322.161 16.0408 322.161 14.2314C322.161 12.4004 321.163 11.4063 319.894 11.4063C318.925 11.4063 318.521 11.9892 318.324 12.3861H318.249V11.4778H316.976V19.0304ZM318.245 14.2242C318.245 13.1585 318.703 12.4684 319.536 12.4684C320.398 12.4684 320.842 13.2015 320.842 14.2242C320.842 15.2541 320.391 16.0051 319.536 16.0051C318.71 16.0051 318.245 15.2899 318.245 14.2242Z" fill="white"/>
<path d="M324.564 9.64685H323.27V16.9706H324.564V9.64685Z" fill="white"/>
<path d="M327.476 17.0815C328.338 17.0815 328.853 16.6774 329.089 16.2161H329.132V16.9706H330.376V13.2944C330.376 11.8425 329.193 11.4063 328.145 11.4063C326.99 11.4063 326.103 11.9212 325.817 12.9225L327.025 13.0942C327.154 12.7187 327.519 12.3968 328.152 12.3968C328.753 12.3968 329.082 12.7044 329.082 13.2444V13.2658C329.082 13.6377 328.692 13.6556 327.723 13.7593C326.657 13.8737 325.638 14.192 325.638 15.4293C325.638 16.5093 326.428 17.0815 327.476 17.0815ZM327.812 16.1302C327.272 16.1302 326.886 15.8835 326.886 15.4079C326.886 14.9108 327.319 14.7034 327.898 14.6211C328.238 14.5747 328.917 14.4888 329.085 14.3529V15.0002C329.085 15.6117 328.592 16.1302 327.812 16.1302Z" fill="white"/>
<path d="M332.972 13.7522C332.972 12.9583 333.452 12.5005 334.135 12.5005C334.803 12.5005 335.204 12.9404 335.204 13.6735V16.9706H336.498V13.4732C336.502 12.1572 335.751 11.4063 334.617 11.4063C333.795 11.4063 333.23 11.7996 332.98 12.4111H332.915V11.4778H331.678V16.9706H332.972V13.7522Z" fill="white"/>
</g>
<g filter="url(#filter1_d_4346_2968)">
<rect x="239" y="49" width="151" height="230" rx="10" fill="#63B7AF"/>
<rect x="239.5" y="49.5" width="150" height="229" rx="9.5" stroke="#239C9C"/>
</g>
<rect opacity="0.7" x="267" y="136" width="96" height="5" rx="2.5" fill="white"/>
<rect opacity="0.7" x="267" y="88" width="96" height="13" rx="6.5" fill="white"/>
<rect opacity="0.7" x="267" y="149" width="96" height="5" rx="2.5" fill="white"/>
<rect opacity="0.7" x="267" y="162" width="96" height="5" rx="2.5" fill="white"/>
<rect opacity="0.7" x="267" y="175" width="96" height="5" rx="2.5" fill="white"/>
<rect opacity="0.7" x="267" y="188" width="96" height="5" rx="2.5" fill="white"/>
<rect opacity="0.7" x="267" y="201" width="96" height="5" rx="2.5" fill="white"/>
<rect opacity="0.7" x="267" y="214" width="96" height="5" rx="2.5" fill="white"/>
<rect opacity="0.7" x="267" y="227" width="96" height="5" rx="2.5" fill="white"/>
<defs>
<filter id="filter0_d_4346_2968" x="291.595" y="9.14685" width="45.9033" height="11.3835" filterUnits="userSpaceOnUse" color-interpolation-filters="sRGB">
<feFlood flood-opacity="0" result="BackgroundImageFix"/>
<feColorMatrix in="SourceAlpha" type="matrix" values="0 0 0 0 0 0 0 0 0 0 0 0 0 0 0 0 0 0 127 0" result="hardAlpha"/>
<feOffset dy="0.5"/>
<feGaussianBlur stdDeviation="0.5"/>
<feComposite in2="hardAlpha" operator="out"/>
<feColorMatrix type="matrix" values="0 0 0 0 0 0 0 0 0 0 0 0 0 0 0 0 0 0 0.3 0"/>
<feBlend mode="normal" in2="BackgroundImageFix" result="effect1_dropShadow_4346_2968"/>
<feBlend mode="normal" in="SourceGraphic" in2="effect1_dropShadow_4346_2968" result="shape"/>
</filter>
<filter id="filter1_d_4346_2968" x="224" y="44" width="181" height="260" filterUnits="userSpaceOnUse" color-interpolation-filters="sRGB">
<feFlood flood-opacity="0" result="BackgroundImageFix"/>
<feColorMatrix in="SourceAlpha" type="matrix" values="0 0 0 0 0 0 0 0 0 0 0 0 0 0 0 0 0 0 127 0" result="hardAlpha"/>
<feOffset dy="10"/>
<feGaussianBlur stdDeviation="7.5"/>
<feComposite in2="hardAlpha" operator="out"/>
<feColorMatrix type="matrix" values="0 0 0 0 0 0 0 0 0 0 0 0 0 0 0 0 0 0 0.08 0"/>
<feBlend mode="normal" in2="BackgroundImageFix" result="effect1_dropShadow_4346_2968"/>
<feBlend mode="normal" in="SourceGraphic" in2="effect1_dropShadow_4346_2968" result="shape"/>
</filter>
</defs>
</svg>
