<svg width="54" height="54" viewBox="0 0 54 54" fill="none" xmlns="http://www.w3.org/2000/svg">
<path d="M20.1336 7.00716C17.0658 6.66428 13.8954 6.66428 10.8275 7.00716C8.85389 7.22774 7.25796 8.78194 7.02521 10.7719C6.65826 13.9094 6.65826 17.0789 7.02521 20.2163C7.25796 22.2063 8.85389 23.7605 10.8276 23.9811C13.8954 24.324 17.0657 24.324 20.1336 23.9811C22.1073 23.7605 23.7032 22.2063 23.9359 20.2163C24.3029 17.0789 24.3029 13.9094 23.9359 10.7719C23.7032 8.78194 22.1073 7.22774 20.1336 7.00716Z" fill="black"/>
<path d="M20.1336 29.5072C17.0658 29.1643 13.8954 29.1643 10.8275 29.5072C8.85389 29.7277 7.25796 31.2819 7.02521 33.2719C6.65826 36.4094 6.65826 39.5789 7.02521 42.7163C7.25796 44.7063 8.85389 46.2605 10.8276 46.4811C13.8954 46.824 17.0657 46.824 20.1336 46.4811C22.1073 46.2605 23.7032 44.7063 23.9359 42.7163C24.3029 39.5789 24.3029 36.4094 23.9359 33.2719C23.7032 31.2819 22.1073 29.7277 20.1336 29.5072Z" fill="black"/>
<path d="M42.6336 7.00716C39.5658 6.66428 36.3954 6.66428 33.3276 7.00716C31.3539 7.22774 29.758 8.78194 29.5252 10.7719C29.1583 13.9094 29.1583 17.0789 29.5252 20.2163C29.758 22.2063 31.3539 23.7605 33.3276 23.9811C36.3954 24.324 39.5658 24.324 42.6336 23.9811C44.6073 23.7605 46.2032 22.2063 46.436 20.2163C46.8029 17.0789 46.8029 13.9094 46.436 10.7719C46.2032 8.78194 44.6073 7.22774 42.6336 7.00716Z" fill="black"/>
<path d="M42.6336 29.5072C39.5658 29.1643 36.3954 29.1643 33.3276 29.5072C31.3539 29.7277 29.758 31.2819 29.5252 33.2719C29.1583 36.4094 29.1583 39.5789 29.5252 42.7163C29.758 44.7063 31.3539 46.2605 33.3276 46.4811C36.3954 46.824 39.5658 46.824 42.6336 46.4811C44.6073 46.2605 46.2032 44.7063 46.436 42.7163C46.8029 39.5789 46.8029 36.4094 46.436 33.2719C46.2032 31.2819 44.6073 29.7277 42.6336 29.5072Z" fill="black"/>
</svg>
