<svg width="230" height="230" viewBox="0 0 230 230" fill="none" xmlns="http://www.w3.org/2000/svg">
<circle cx="115" cy="115" r="115" fill="#F5F5F5"/>
<path d="M178.097 30.4779C178.097 28.8211 179.441 27.4779 181.097 27.4779H199.013C200.67 27.4779 202.013 28.8211 202.013 30.4779V44.9591C202.013 46.616 200.67 47.9591 199.013 47.9591H195.37L192.27 52.4115L189.17 47.9591H181.097C179.441 47.9591 178.097 46.616 178.097 44.9591V30.4779Z" fill="#E1DEDE"/>
<path d="M209.646 46.2522C209.646 44.5953 208.303 43.2522 206.646 43.2522H199.416C197.759 43.2522 196.416 44.5953 196.416 46.2522V52.3737C196.416 54.0306 197.759 55.3737 199.416 55.3737H200.091L201.806 58.0088L203.521 55.3737H206.646C208.303 55.3737 209.646 54.0306 209.646 52.3737V46.2522Z" fill="#F3F3F3"/>
<g opacity="0.5">
<path opacity="0.9" d="M201.995 124L197.474 114.934C197.343 114.672 197.114 114.472 196.836 114.378L185.821 110.626C184.662 110.231 183.407 110.84 183.017 111.986L175.242 134.81C174.852 135.957 175.474 137.205 176.633 137.6L193.417 143.317C194.576 143.711 195.831 143.103 196.222 141.956L202.052 124.839C202.146 124.564 202.126 124.263 201.995 124ZM190.646 134.268L182.254 131.409C181.675 131.212 181.363 130.587 181.558 130.015C181.753 129.442 182.382 129.137 182.961 129.335L191.352 132.193C191.932 132.39 192.243 133.015 192.048 133.588C191.853 134.16 191.225 134.465 190.646 134.268ZM194.157 130.833L183.667 127.26C183.088 127.062 182.777 126.438 182.972 125.865C183.167 125.292 183.795 124.988 184.374 125.185L194.864 128.758C195.443 128.955 195.755 129.58 195.56 130.153C195.364 130.725 194.736 131.03 194.157 130.833ZM194.533 122.856C193.954 122.659 193.642 122.034 193.837 121.461L195.638 116.174L199.879 124.677L194.533 122.856Z" fill="#FBA43F"/>
</g>
<path opacity="0.5" d="M11.0097 61.062C10.5496 61.062 10.177 61.4346 10.177 61.8947V67.7233C10.177 68.1834 10.5496 68.556 11.0097 68.556H16.8383C17.2984 68.556 17.671 68.1834 17.671 67.7233V61.8947C17.671 61.4346 17.2979 61.062 16.8383 61.062H11.0097ZM16.422 62.7273C16.5285 62.7273 16.6349 62.7679 16.7163 62.8493C16.8791 63.0121 16.8791 63.2752 16.7163 63.438L13.5686 66.5857C13.4904 66.664 13.3846 66.7077 13.2743 66.7077C13.164 66.7077 13.0578 66.664 12.9799 66.5857L11.5423 65.1481C11.3795 64.9853 11.3795 64.7221 11.5423 64.5594C11.7051 64.3966 11.9682 64.3966 12.131 64.5594L13.2743 65.7026L16.1276 62.8493C16.209 62.7679 16.3155 62.7273 16.422 62.7273ZM18.5036 62.7273V67.7233C18.5036 68.643 17.758 69.3886 16.8383 69.3886H11.8423C11.8423 69.8487 12.2149 70.2213 12.675 70.2213H18.5036C18.9637 70.2213 19.3363 69.8487 19.3363 69.3886V63.56C19.3363 63.1 18.9633 62.7273 18.5036 62.7273Z" fill="#FBA43F"/>
<path d="M147.876 225.42C164.175 225.42 177.389 224.623 177.389 223.639C177.389 222.656 164.175 221.858 147.876 221.858C131.576 221.858 118.362 222.656 118.362 223.639C118.362 224.623 131.576 225.42 147.876 225.42Z" fill="#C4C4C4"/>
<path d="M144.278 80.6373L144.685 71.6002L154.46 68.0077L153.911 80.4949L161.874 83.8329L144.868 92.5749L135.531 83.6395L144.278 80.6373Z" fill="#FBA43F"/>
<path opacity="0.2" d="M154.068 76.882L154.465 68.0077L144.69 71.6002L144.314 79.8334C147.69 79.3212 150.975 78.3273 154.068 76.882Z" fill="#35495E"/>
<path d="M154.17 71.5137C154.17 71.5137 150.608 78.6733 142.685 77.279C137.118 76.302 136.706 68.4352 137.495 60.6498C138.732 48.529 142.685 48.0354 148.608 48.9463C162.027 51.0071 154.17 71.5137 154.17 71.5137Z" fill="#FBA43F"/>
<path d="M157.396 50.1879C155.361 51.9994 155.193 50.6052 153.214 52.493C150.069 58.4567 153.992 60.7465 153.992 60.7465L153.549 65.0412L155.229 65.5857L154.394 70.4198C154.394 70.4198 158.078 66.3083 159.91 58.0903C161.264 51.974 159.299 50.1014 157.396 50.1879Z" fill="#35495E"/>
<path d="M154.465 68.7302L155.58 61.3621C155.58 61.3621 158.327 60.6853 158.49 63.1482C158.653 65.611 156.811 68.5878 154.465 68.7302Z" fill="#FBA43F"/>
<path d="M153.626 44.1122C152.058 43.4964 150.145 43.5168 148.242 43.8119C147.109 43.9369 145.984 44.1289 144.874 44.3869C141.932 45.0688 139.744 42.0462 139.744 42.0462C139.139 44.0816 140.497 44.6922 140.497 44.6922C137.48 44.1834 137.857 41.2168 137.857 41.2168C134.763 44.6922 137.48 48.9157 137.48 48.9157L136.121 48.6918C138.061 51.1913 140.862 52.8785 143.978 53.4241L142.375 53.648C147.927 57.0471 155.03 54.0144 155.03 54.0144L155.117 53.9686C155.799 53.7072 156.391 53.2557 156.824 52.6676C157.257 52.0795 157.512 51.3796 157.559 50.6509C157.992 46.6462 156.109 44.8296 153.626 44.1122Z" fill="#35495E"/>
<path d="M137.297 65.3363C137.297 65.3363 133.908 76.5666 141.642 77.7319C149.377 78.8972 155.417 76.6786 154.995 65.9775L155.885 59.3624L153.992 60.7211C153.992 60.7211 152.812 73.1777 149.413 72.7248C147.626 72.4857 151.132 68.6845 145.031 68.6998C140.9 68.6998 138.711 67.6261 138.462 72.0888C138.36 74.0224 137.297 69.9974 137.297 65.3363Z" fill="#35495E"/>
<path d="M155.229 67.4888C155.443 67.3587 155.65 67.2177 155.849 67.0664C155.937 66.9952 156.02 66.9188 156.099 66.8374C156.165 66.7673 156.218 66.6865 156.256 66.5983C156.261 66.5645 156.261 66.5303 156.256 66.4965C156.264 66.4681 156.264 66.4384 156.256 66.41C156.256 66.41 156.256 66.3693 156.256 66.3795L156.216 66.2981C156.185 66.2472 156.16 66.1759 156.134 66.1403C156.108 66.1103 156.084 66.0779 156.063 66.0436L155.977 65.9724C155.951 65.9724 155.931 65.9419 155.915 65.9419C155.9 65.9419 155.859 65.9419 155.915 65.9419L155.503 65.5857C155.517 64.9241 155.625 64.2678 155.824 63.6368C155.885 63.4754 155.954 63.3174 156.033 63.1635C156.119 62.9943 156.241 62.8452 156.389 62.7259C156.476 62.6533 156.585 62.6121 156.699 62.6089C156.806 62.6055 156.911 62.6358 156.999 62.6954C157.134 62.8038 157.241 62.9435 157.31 63.1025C157.189 63.0094 157.053 62.9387 156.908 62.8939C156.857 62.8768 156.803 62.8781 156.753 62.8977C156.704 62.9173 156.663 62.9538 156.638 63.0007C156.571 63.1113 156.521 63.2314 156.49 63.3569C156.45 63.4991 156.418 63.6435 156.394 63.7894C156.292 64.3797 156.246 65.0056 156.195 65.6111L155.778 65.26C155.904 65.2395 156.033 65.2554 156.15 65.3058C156.242 65.3433 156.328 65.3948 156.404 65.4585C156.467 65.5207 156.527 65.587 156.582 65.6569C156.623 65.7332 156.669 65.8096 156.704 65.8859C156.74 65.9622 156.75 66.008 156.775 66.0691L156.806 66.1556C156.822 66.2052 156.832 66.2564 156.836 66.3082C156.86 66.4952 156.817 66.6846 156.714 66.8425C156.631 66.974 156.518 67.0838 156.384 67.1631C156.268 67.2377 156.143 67.2975 156.012 67.3412C155.76 67.4313 155.496 67.4811 155.229 67.4888Z" fill="#C66258"/>
<path d="M107.168 119.834L109.712 127.467L114.292 124.923V118.053L110.475 117.799L107.168 119.834Z" fill="#FA9836"/>
<path d="M142.818 204.649L142.182 223.838C142.182 223.838 112.582 227.1 136.411 219.828L137.79 210.16L142.818 204.649Z" fill="#213344"/>
<path d="M142.416 218.851L142.339 203.698L137.785 210.15L136.635 218.23L142.416 218.851Z" fill="#213344"/>
<path d="M154.282 208.572L155.005 223.909C155.005 223.909 184.35 229.415 160.999 220.347L160.195 210.608L154.282 208.572Z" fill="#213344"/>
<path d="M154.832 220.23L154.282 208.572L160.195 210.608L160.866 218.749C158.867 219.314 156.857 219.803 154.832 220.23Z" fill="#213344"/>
<path d="M132.839 130.759C132.839 130.759 130.804 158.196 135.801 217.732L143.113 217.075L146.466 149.108L148.502 149.057L154.318 217.66L161.671 217.452L163.273 131.08L132.839 130.759Z" fill="#63B7AF"/>
<path opacity="0.2" d="M132.432 148.314C132.432 162.455 133.089 185.343 135.801 217.732L143.113 217.075L146.446 149.515C141.77 149.169 137.103 148.747 132.432 148.314Z" fill="#213344"/>
<path d="M137.979 132.245L132.839 132.169L132.361 134.306L137.806 134.514C137.856 133.771 137.928 133.013 137.979 132.245Z" fill="#213344"/>
<path d="M156.796 132.55L139.403 132.281C139.337 133.044 139.281 133.807 139.225 134.575L156.679 135.242C156.755 134.346 156.755 133.446 156.796 132.55Z" fill="#213344"/>
<path d="M158.221 132.571C158.19 133.481 158.149 134.387 158.104 135.298L163.487 135.502V132.652L158.221 132.571Z" fill="#213344"/>
<path d="M144.7 131.629L144.634 135.415C144.634 135.415 149.687 135.807 149.687 135.557C149.687 135.308 149.814 131.711 149.814 131.711L144.7 131.629ZM148.771 134.753C148.771 134.896 145.794 134.667 145.794 134.667L145.835 132.438L148.842 132.489C148.842 132.489 148.787 134.606 148.787 134.753H148.771Z" fill="white"/>
<path d="M132.839 130.759C132.226 129.557 131.697 128.315 131.257 127.039C130.62 125.136 129.511 82.5303 130.463 82.5303C131.414 82.5303 142.024 80.79 142.024 80.79L146.776 82.3725L146.934 86.3314L148.044 82.3725L153.911 80.4949C153.911 80.4949 165.466 83.6396 167.685 85.2221C169.904 86.8046 166.754 129.416 163.258 131.08L132.839 130.759Z" fill="#35495E"/>
<path d="M122.688 111.692L130.575 82.4336V111.184L128.031 118.053L114.037 124.923V118.053L122.688 111.692Z" fill="#35495E"/>
<path opacity="0.5" d="M130.478 112.135C130.712 119.9 131.017 126.327 131.257 127.039C131.697 128.315 132.226 129.557 132.839 130.759L163.258 131.08C165.772 129.884 168.102 107.545 168.392 94.4832C156.862 102.793 143.983 108.354 130.478 112.135Z" fill="#213344"/>
<path d="M145.845 83.6194L148.99 83.9145L149.942 85.5174L148.339 87.5986L150.257 117.376L144.874 124.821L140.121 117.376L145.728 87.2424L144.655 85.5785L145.845 83.6194Z" fill="white"/>
<path d="M140.121 80.9477L142.497 78.7291L146.777 82.3725L144.4 86.0159L140.121 80.9477Z" fill="#3F566B"/>
<path d="M156.119 80.3116L154.536 77.3043L148.043 82.3725L150.42 86.0158L156.119 80.3116Z" fill="#3F566B"/>
<path d="M167.685 85.222C170.535 87.1251 178.773 111.173 177.821 116.109C176.102 124.994 162.775 140.188 162.775 140.188C162.775 140.188 157.971 135.756 158.104 135.298C158.338 134.484 168.316 115.478 168.316 115.478C168.316 115.478 162.617 104.233 160.714 95.8366C158.811 87.4406 164.836 83.324 167.685 85.222Z" fill="#35495E"/>
<path d="M158.103 135.298L157.386 136.54L162.775 140.183L158.103 135.298Z" fill="#EE8572"/>
<path d="M89.8667 138.86L88.0806 147.113L85.4041 148.35L84.9563 137.898L89.8667 138.86Z" fill="#FBA43F"/>
<path d="M86.8847 87.0133C87.7752 95.1091 94.7058 120.307 90.5587 139.023L83.5925 139.496L86.8847 89.0487C87.8923 88.2345 85.9281 87.8885 86.8847 87.0133Z" fill="#569D9A"/>
<ellipse cx="68.6946" cy="225.876" rx="35.1106" ry="2.0354" fill="#C4C4C4"/>
<path d="M71.4312 83.6793L71.0192 74.5516L61.1514 70.924L61.7109 83.5369L53.6641 86.9051L70.8412 95.7326L79.3662 85.2312L71.4312 83.6793Z" fill="#FBA43F"/>
<g style="mix-blend-mode:multiply" opacity="0.2">
<path d="M61.5479 79.8837L61.1511 70.9188L71.0189 74.5516L71.3953 82.8805C67.9866 82.357 64.6705 81.3478 61.5479 79.8837Z" fill="#FBA43F"/>
</g>
<path d="M61.5581 74.6737C61.5581 74.6737 65.0576 81.6899 73.0384 80.2704C78.659 79.2833 79.0811 71.336 78.2826 63.4803C77.0364 51.2388 73.0435 50.7605 67.0617 51.6611C53.5164 53.7522 61.5581 74.6737 61.5581 74.6737Z" fill="#FBA43F"/>
<path d="M58.1908 52.9227C60.2508 54.7544 60.4187 53.3501 62.4126 55.253C65.5866 61.272 61.6293 63.5921 61.6293 63.5921L62.0769 67.927L60.3933 68.4866L61.2376 73.371C61.2376 73.371 57.5194 69.2193 55.6679 60.9209C54.2895 54.7289 56.2783 52.8566 58.1908 52.9227Z" fill="#35495E"/>
<path d="M63.5876 60.2494C60.1491 59.9899 56.9751 58.0514 55.5102 55.0801C55.1084 56.3317 55.0626 58.2091 55.6679 60.921C57.5194 69.2194 61.2376 73.3711 61.2376 73.3711L60.3932 68.4867L62.0769 67.9271L61.6242 63.5922C62.1733 63.2098 62.6332 62.713 62.9721 62.136C63.311 61.5589 63.521 60.9153 63.5876 60.2494Z" fill="#213344"/>
<path d="M61.1512 71.6514L60.022 64.2078C60.022 64.2078 57.2499 63.5311 57.0871 66.014C56.9243 68.4969 58.7809 71.5038 61.1512 71.6514Z" fill="#FBA43F"/>
<path d="M60.6071 56.7897C60.6071 56.7897 67.7791 59.8425 73.3793 56.4183L70.6936 56.0418C70.6936 56.0418 76.594 55.5941 78.3845 52.0071L76.6703 52.755C76.6703 52.755 79.4323 49.916 77.1179 46.7055C77.1179 46.7055 77.1891 48.0487 76.2939 48.7406C75.3987 49.4326 63.5776 42.9862 59.6356 48.6643C55.6935 54.3424 60.6071 56.7897 60.6071 56.7897Z" fill="#35495E"/>
<path d="M60.3628 70.3948C60.0987 70.3886 59.8375 70.3388 59.5897 70.2473C59.4585 70.1987 59.3324 70.1374 59.2133 70.0641C59.0776 69.9831 58.9627 69.8716 58.8775 69.7385C58.7718 69.5799 58.7283 69.3879 58.7555 69.1992C58.7601 69.1474 58.7704 69.0962 58.786 69.0465L58.8165 68.955C58.8165 68.8939 58.8521 68.843 58.8877 68.7718C58.9233 68.7006 58.9691 68.6192 59.0149 68.5428C59.0686 68.4719 59.1282 68.4055 59.1929 68.3444C59.2691 68.2791 59.3549 68.2259 59.4472 68.1867C59.5659 68.1364 59.6964 68.1205 59.8236 68.1409L59.4015 68.497C59.3506 67.8865 59.3048 67.2505 59.2031 66.6552C59.1792 66.5093 59.147 66.3649 59.1064 66.2228C59.076 66.0947 59.0244 65.9726 58.9538 65.8615C58.9282 65.815 58.8876 65.7787 58.8386 65.7583C58.7897 65.738 58.7352 65.7349 58.6843 65.7496C58.5375 65.7973 58.4 65.8696 58.2773 65.9633C58.3458 65.8028 58.4544 65.6626 58.5927 65.5562C58.6788 65.4913 58.7851 65.4589 58.8928 65.4646C59.0082 65.4668 59.1194 65.508 59.2082 65.5817C59.3579 65.7026 59.4809 65.8533 59.5693 66.0243C59.6473 66.1799 59.7169 66.3396 59.7779 66.5026C59.9762 67.1391 60.0857 67.8 60.1034 68.4665L59.6863 68.8278C59.7423 68.8278 59.6863 68.8278 59.6863 68.8278L59.6202 68.8634C59.5947 68.8634 59.5693 68.9143 59.5388 68.9346L59.4676 69.0313C59.4345 69.0814 59.4056 69.1342 59.3811 69.189L59.3404 69.2755C59.3404 69.2755 59.3404 69.2755 59.3404 69.3009C59.3333 69.3293 59.3333 69.359 59.3404 69.3874C59.3337 69.421 59.3337 69.4556 59.3404 69.4892C59.3754 69.5795 59.4272 69.6624 59.493 69.7334C59.5729 69.8165 59.6579 69.8947 59.7473 69.9675C59.9427 70.1235 60.1483 70.2663 60.3628 70.3948Z" fill="#C66258"/>
<path d="M76.8835 209.743C77.0616 210.251 77.5855 226.395 78.4654 226.573C79.3454 226.751 113.471 230.644 83.7503 222.366L85.1491 194.962L76.8835 209.743Z" fill="#FBA43F"/>
<path d="M77.5042 223.012C77.5042 223.012 77.9365 227.113 78.4757 227.113C79.0148 227.113 95.4036 228.838 96.1615 227.22C96.9194 225.602 85.0525 222.366 85.0525 222.366L83.5266 224.309L77.5042 223.012Z" fill="#347474"/>
<path d="M95.5154 226.243C94.7982 227.769 79.8489 226.288 78.0127 226.146C78.15 226.701 78.3128 227.108 78.4807 227.108C79.0198 227.108 95.4086 228.833 96.1664 227.214C96.2936 226.935 96.0291 226.599 95.5154 226.243Z" fill="white"/>
<path d="M63.3231 209.743C63.1502 210.251 62.6262 226.395 61.7463 226.573C60.8663 226.751 26.7358 230.644 56.4614 222.366L55.0575 194.962L63.3231 209.743Z" fill="#FBA43F"/>
<path d="M62.713 223.012C62.713 223.012 62.2857 227.113 61.7465 227.113C61.2074 227.113 44.8136 228.838 44.0608 227.22C43.308 225.602 55.1646 222.366 55.1646 222.366L56.6906 224.309L62.713 223.012Z" fill="#347474"/>
<path d="M44.7064 226.243C45.4287 227.769 60.3728 226.288 62.2091 226.146C62.0717 226.701 61.914 227.108 61.7462 227.108C61.207 227.108 44.8132 228.833 44.0604 227.214C43.9281 226.935 44.1926 226.599 44.7064 226.243Z" fill="white"/>
<path d="M54.8442 137.128C54.8442 137.128 52.9164 193.868 54.2033 217.049C54.2033 217.049 57.0924 220.509 64.4729 217.395L72.4943 152.005L76.3448 217.395C76.3448 217.395 80.1953 220.163 85.3327 216.703L88.2168 130.9L54.8442 137.128Z" fill="#35495E"/>
<path opacity="0.5" d="M72.5603 153.089L76.3447 217.379C76.3447 217.379 80.1951 220.147 85.3325 216.687L87.6469 147.833L72.5603 153.089Z" fill="#213344"/>
<path opacity="0.5" d="M87.9622 138.507L88.2165 130.9L54.844 137.128C54.844 137.128 54.7931 138.583 54.7168 141.117C75.9021 149.695 83.6743 141.529 87.9622 138.507Z" fill="#213344"/>
<path d="M60.8612 83.2518L68.196 87.9022L71.4412 94.145L74.6151 83.5266C74.6151 83.5266 83.5318 83.4706 87.0211 87.3934C90.5105 91.3162 88.5471 136.024 88.5471 136.024L75.6274 142.999L73.9386 137.316L73.5012 143.315L53.557 137.754C53.557 137.754 49.2742 89.8356 52.9008 86.7269C55.9527 84.1219 60.8612 83.2518 60.8612 83.2518Z" fill="#63B7AF"/>
<path opacity="0.2" d="M53.5215 96.4143C52.8348 96.511 52.1481 96.5924 51.4615 96.6687C51.2173 111.576 53.5571 137.769 53.5571 137.769L73.5013 143.33L73.9387 137.331L75.6275 142.999L88.5472 136.024C88.5472 136.024 88.9134 127.634 89.0559 117.809C85.3399 117.008 81.7036 115.874 78.1911 114.42C68.898 110.615 58.1909 105.771 53.5215 96.4143Z" fill="#213344"/>
<path d="M71.1055 96.4448C71.1055 96.6391 71.163 96.829 71.2709 96.9905C71.3788 97.152 71.5321 97.2778 71.7115 97.3522C71.8909 97.4265 72.0883 97.4459 72.2787 97.4081C72.4691 97.3702 72.644 97.2766 72.7813 97.1393C72.9186 97.0019 73.0121 96.8269 73.05 96.6364C73.0879 96.4459 73.0684 96.2485 72.9941 96.069C72.9198 95.8896 72.794 95.7362 72.6326 95.6283C72.4711 95.5204 72.2813 95.4628 72.0872 95.4628C71.8268 95.4628 71.5771 95.5662 71.393 95.7504C71.2089 95.9346 71.1055 96.1844 71.1055 96.4448Z" fill="#80CEC4"/>
<path d="M73.1755 134.06C73.1755 134.254 73.2331 134.444 73.341 134.605C73.4489 134.767 73.6022 134.893 73.7816 134.967C73.9609 135.041 74.1583 135.061 74.3488 135.023C74.5392 134.985 74.7141 134.892 74.8514 134.754C74.9887 134.617 75.0822 134.442 75.1201 134.251C75.158 134.061 75.1385 133.863 75.0642 133.684C74.9899 133.505 74.8641 133.351 74.7026 133.243C74.5412 133.135 74.3514 133.078 74.1572 133.078C73.8969 133.078 73.6472 133.181 73.4631 133.365C73.279 133.55 73.1755 133.799 73.1755 134.06Z" fill="#80CEC4"/>
<path d="M72.9568 124.79C72.9558 124.984 73.0125 125.174 73.1198 125.337C73.227 125.499 73.38 125.625 73.5593 125.701C73.7386 125.776 73.9361 125.796 74.1269 125.759C74.3176 125.721 74.493 125.628 74.6308 125.491C74.7686 125.354 74.8626 125.179 74.9009 124.988C74.9392 124.798 74.9201 124.6 74.8459 124.42C74.7718 124.24 74.646 124.087 74.4844 123.978C74.3229 123.87 74.1329 123.813 73.9385 123.813C73.679 123.813 73.4301 123.915 73.2461 124.098C73.0622 124.282 72.9581 124.53 72.9568 124.79Z" fill="#80CEC4"/>
<path d="M72.9568 115.087C72.9568 115.281 73.0144 115.471 73.1222 115.633C73.2301 115.794 73.3834 115.92 73.5628 115.994C73.7422 116.069 73.9396 116.088 74.13 116.05C74.3204 116.012 74.4954 115.919 74.6326 115.781C74.7699 115.644 74.8634 115.469 74.9013 115.279C74.9392 115.088 74.9197 114.891 74.8454 114.711C74.7711 114.532 74.6453 114.378 74.4839 114.27C74.3224 114.163 74.1326 114.105 73.9385 114.105C73.6781 114.105 73.4284 114.208 73.2443 114.393C73.0602 114.577 72.9568 114.827 72.9568 115.087Z" fill="#80CEC4"/>
<path d="M73.1353 105.659C73.6774 105.659 74.117 105.22 74.117 104.677C74.117 104.135 73.6774 103.695 73.1353 103.695C72.5931 103.695 72.1536 104.135 72.1536 104.677C72.1536 105.22 72.5931 105.659 73.1353 105.659Z" fill="#80CEC4"/>
<path d="M75.0018 82.1477L72.0059 87.8309L71.5481 94.0382L72.9215 89.1334L75.1392 90.9956L76.8838 83.6893L75.0018 82.1477Z" fill="#80CEC4"/>
<path d="M71.4414 94.1452L68.4048 87.5462L60.4241 80.5249L58.2419 83.5777L66.2023 92.1915L68.1606 88.1568L71.4414 94.1452Z" fill="#80CEC4"/>
<path d="M75.6192 110.929C68.4953 106.044 57.1609 93.0347 52.9205 86.7589C48.4426 91.0332 47.0687 101.007 49.6129 102.533C56.8216 109.063 71.8537 121.717 73.0749 122.124C74.2962 122.531 90.8847 123.82 99.0262 124.414L100.044 117.799L75.6192 110.929Z" fill="#63B7AF"/>
<path d="M98.5173 126.195L100.349 116.018L103.097 118.412L101.265 125.895L98.5173 126.195Z" fill="#80CEC4"/>
<path d="M110.73 120.597L102.842 118.816L101.57 124.668L105.641 127.212L112.002 127.721L110.73 120.597Z" fill="#FBA43F"/>
</svg>
