<svg width="452" height="300" viewBox="0 0 452 300" fill="none" xmlns="http://www.w3.org/2000/svg">
<circle cx="226" cy="226" r="226" fill="#FBFBFB"/>
<g opacity="0.5">
<path opacity="0.9" d="M396.964 243.688L388.079 225.871C387.822 225.356 387.371 224.964 386.825 224.777L365.18 217.404C362.902 216.628 360.435 217.825 359.668 220.078L344.389 264.931C343.622 267.184 344.845 269.638 347.123 270.413L380.106 281.649C382.384 282.425 384.851 281.228 385.618 278.975L397.077 245.335C397.261 244.795 397.221 244.203 396.964 243.688ZM374.66 263.866L358.169 258.248C357.031 257.861 356.418 256.633 356.802 255.507C357.185 254.382 358.42 253.783 359.558 254.171L376.049 259.788C377.187 260.176 377.8 261.404 377.416 262.529C377.033 263.655 375.798 264.254 374.66 263.866ZM381.561 257.115L360.947 250.093C359.809 249.706 359.196 248.478 359.58 247.352C359.963 246.227 361.198 245.628 362.336 246.016L382.95 253.038C384.088 253.425 384.701 254.653 384.317 255.779C383.934 256.904 382.699 257.503 381.561 257.115ZM382.3 241.439C381.162 241.051 380.549 239.823 380.933 238.698L384.472 228.308L392.805 245.017L382.3 241.439Z" fill="#FBA43F"/>
</g>
<path opacity="0.5" d="M21.6364 120C20.7323 120 20 120.732 20 121.636V133.091C20 133.995 20.7323 134.727 21.6364 134.727H33.0909C33.995 134.727 34.7273 133.995 34.7273 133.091V121.636C34.7273 120.732 33.9942 120 33.0909 120H21.6364ZM32.2727 123.273C32.482 123.273 32.6913 123.352 32.8512 123.512C33.1711 123.832 33.1711 124.349 32.8512 124.669L26.6653 130.855C26.5115 131.009 26.3036 131.095 26.0868 131.095C25.87 131.095 25.6613 131.009 25.5083 130.855L22.6831 128.03C22.3632 127.71 22.3632 127.193 22.6831 126.873C23.003 126.553 23.5201 126.553 23.84 126.873L26.0868 129.12L31.6942 123.512C31.8542 123.352 32.0635 123.273 32.2727 123.273ZM36.3636 123.273V133.091C36.3636 134.898 34.8983 136.364 33.0909 136.364H23.2727C23.2727 137.268 24.005 138 24.9091 138H36.3636C37.2677 138 38 137.268 38 136.364V124.909C38 124.005 37.2669 123.273 36.3636 123.273Z" fill="#FBA43F"/>
<path d="M300.538 110.47L301.338 92.7099L320.548 85.6499L319.468 110.19L335.118 116.75L301.698 133.93L283.348 116.37L300.538 110.47Z" fill="#FBA43F"/>
<path opacity="0.2" d="M319.778 103.09L320.558 85.6499L301.348 92.7099L300.608 108.89C307.242 107.883 313.698 105.93 319.778 103.09Z" fill="#35495E"/>
<path d="M319.978 92.5401C319.978 92.5401 312.978 106.61 297.408 103.87C286.468 101.95 285.658 86.4901 287.208 71.1901C289.638 47.3701 297.408 46.4001 309.048 48.1901C335.418 52.2401 319.978 92.5401 319.978 92.5401Z" fill="#FBA43F"/>
<path d="M326.318 50.6301C322.318 54.1901 321.988 51.4501 318.098 55.1601C311.918 66.8801 319.628 71.3801 319.628 71.3801L318.758 79.8201L322.058 80.8901L320.418 90.3901C320.418 90.3901 327.658 82.3101 331.258 66.1601C333.918 54.1401 330.058 50.4601 326.318 50.6301Z" fill="#35495E"/>
<path d="M320.558 87.0699L322.748 72.5899C322.748 72.5899 328.148 71.2599 328.468 76.0999C328.788 80.9399 325.168 86.7899 320.558 87.0699Z" fill="#FBA43F"/>
<path d="M318.908 38.69C315.828 37.48 312.068 37.52 308.328 38.1C306.101 38.3456 303.89 38.7229 301.708 39.23C295.928 40.57 291.628 34.63 291.628 34.63C290.438 38.63 293.108 39.83 293.108 39.83C287.178 38.83 287.918 33 287.918 33C281.838 39.83 287.178 48.13 287.178 48.13L284.508 47.69C288.319 52.602 293.824 55.9177 299.948 56.99L296.798 57.43C307.708 64.11 321.668 58.15 321.668 58.15L321.838 58.06C323.178 57.5463 324.342 56.659 325.193 55.5033C326.044 54.3476 326.545 52.9721 326.638 51.54C327.488 43.67 323.788 40.1 318.908 38.69Z" fill="#35495E"/>
<path d="M286.818 80.3999C286.818 80.3999 280.158 102.47 295.358 104.76C310.558 107.05 322.428 102.69 321.598 81.6599L323.348 68.6599L319.628 71.3299C319.628 71.3299 317.308 95.8099 310.628 94.9199C307.118 94.4499 314.008 86.9799 302.018 87.0099C293.898 87.0099 289.598 84.8999 289.108 93.6699C288.908 97.4699 286.818 89.5599 286.818 80.3999Z" fill="#35495E"/>
<path d="M322.058 84.6301C322.479 84.3744 322.886 84.0973 323.278 83.8001C323.45 83.6602 323.614 83.5099 323.768 83.3501C323.898 83.2123 324.002 83.0533 324.078 82.8801C324.086 82.8136 324.086 82.7465 324.078 82.68C324.092 82.6242 324.092 82.5659 324.078 82.51C324.078 82.51 324.078 82.4301 324.078 82.4501L323.998 82.29C323.938 82.19 323.888 82.05 323.838 81.98C323.786 81.921 323.739 81.8574 323.698 81.79L323.528 81.65C323.478 81.65 323.438 81.5901 323.408 81.5901C323.378 81.5901 323.298 81.5901 323.408 81.5901L322.598 80.8901C322.624 79.5899 322.837 78.3002 323.228 77.0601C323.348 76.7429 323.485 76.4324 323.638 76.1301C323.808 75.7974 324.047 75.5044 324.338 75.2701C324.51 75.1274 324.725 75.0464 324.948 75.04C325.158 75.0334 325.364 75.0929 325.538 75.2101C325.804 75.4231 326.013 75.6977 326.148 76.01C325.912 75.827 325.644 75.6882 325.358 75.6001C325.259 75.5665 325.152 75.5691 325.055 75.6076C324.957 75.6461 324.877 75.7178 324.828 75.8101C324.696 76.0273 324.599 76.2633 324.538 76.51C324.458 76.7895 324.395 77.0733 324.348 77.3601C324.148 78.5201 324.058 79.7501 323.958 80.9401L323.138 80.2501C323.385 80.2097 323.638 80.241 323.868 80.3401C324.049 80.4137 324.218 80.5149 324.368 80.6401C324.493 80.7625 324.61 80.8927 324.718 81.0301C324.798 81.1801 324.888 81.33 324.958 81.48C325.028 81.63 325.048 81.7201 325.098 81.8401L325.158 82.01C325.189 82.1076 325.209 82.2082 325.218 82.3101C325.265 82.6774 325.18 83.0496 324.978 83.3601C324.814 83.6184 324.591 83.8343 324.328 83.9901C324.1 84.1367 323.855 84.2543 323.598 84.34C323.103 84.5171 322.583 84.6149 322.058 84.6301Z" fill="#C66258"/>
<path d="M227.608 187.5L232.608 202.5L241.608 197.5V184L234.108 183.5L227.608 187.5Z" fill="#FA9836"/>
<path d="M278.058 208.97C278.058 208.97 274.058 262.89 283.878 379.89L298.248 378.6L304.838 245.03L308.838 244.93L320.268 379.75L334.718 379.34L337.868 209.6L278.058 208.97Z" fill="#63B7AF"/>
<path opacity="0.2" d="M277.258 243.47C277.258 271.26 278.548 316.24 283.878 379.89L298.248 378.6L304.798 245.83C295.608 245.15 286.438 244.32 277.258 243.47Z" fill="#213344"/>
<path d="M288.158 211.89L278.058 211.74L277.118 215.94L287.818 216.35C287.918 214.89 288.058 213.4 288.158 211.89Z" fill="#213344"/>
<path d="M325.138 212.49L290.958 211.96C290.828 213.46 290.718 214.96 290.608 216.47L324.908 217.78C325.058 216.02 325.058 214.25 325.138 212.49Z" fill="#213344"/>
<path d="M327.938 212.53C327.878 214.32 327.798 216.1 327.708 217.89L338.288 218.29V212.69L327.938 212.53Z" fill="#213344"/>
<path d="M301.368 210.68L301.238 218.12C301.238 218.12 311.168 218.89 311.168 218.4C311.168 217.91 311.418 210.84 311.418 210.84L301.368 210.68ZM309.368 216.82C309.368 217.1 303.518 216.65 303.518 216.65L303.598 212.27L309.508 212.37C309.508 212.37 309.398 216.53 309.398 216.82H309.368Z" fill="white"/>
<path d="M278.058 208.97C276.852 206.609 275.813 204.166 274.948 201.66C273.698 197.92 271.518 114.19 273.388 114.19C275.258 114.19 296.108 110.77 296.108 110.77L305.448 113.88L305.758 121.66L307.938 113.88L319.468 110.19C319.468 110.19 342.178 116.37 346.538 119.48C350.898 122.59 344.708 206.33 337.838 209.6L278.058 208.97Z" fill="#35495E"/>
<path d="M258.108 171.5L273.608 114V170.5L268.608 184L241.108 197.5V184L258.108 171.5Z" fill="#35495E"/>
<path opacity="0.5" d="M273.418 172.37C273.878 187.63 274.478 200.26 274.948 201.66C275.813 204.166 276.853 206.609 278.058 208.97L337.838 209.6C342.778 207.25 347.358 163.35 347.928 137.68C325.268 154.01 299.958 164.94 273.418 172.37Z" fill="#213344"/>
<path d="M303.618 116.33L309.798 116.91L311.668 120.06L308.518 124.15L312.288 182.67L301.708 197.3L292.368 182.67L303.388 123.45L301.278 120.18L303.618 116.33Z" fill="white"/>
<path d="M292.368 111.08L297.038 106.72L305.448 113.88L300.778 121.04L292.368 111.08Z" fill="#3F566B"/>
<path d="M323.808 109.83L320.698 103.92L307.938 113.88L312.608 121.04L323.808 109.83Z" fill="#3F566B"/>
<path d="M346.538 119.48C352.138 123.22 368.328 170.48 366.458 180.18C363.078 197.64 336.888 227.5 336.888 227.5C336.888 227.5 327.448 218.79 327.708 217.89C328.168 216.29 347.778 178.94 347.778 178.94C347.778 178.94 336.578 156.84 332.838 140.34C329.098 123.84 340.938 115.75 346.538 119.48Z" fill="#35495E"/>
<path d="M327.708 217.89L326.298 220.33L336.888 227.49L327.708 217.89Z" fill="#EE8572"/>
<path d="M193.608 224.89L190.098 241.11L184.838 243.54L183.958 223L193.608 224.89Z" fill="#FBA43F"/>
<path d="M187.748 123C189.498 138.91 203.118 188.43 194.968 225.21L181.278 226.14L187.748 127C189.728 125.4 185.868 124.72 187.748 123Z" fill="#569D9A"/>
<path d="M157.378 116.448L156.568 98.51L137.176 91.3809L138.275 116.168L122.461 122.787L156.218 140.135L172.972 119.498L157.378 116.448Z" fill="#FBA43F"/>
<g style="mix-blend-mode:multiply" opacity="0.2">
<path d="M137.955 108.989L137.175 91.3708L156.568 98.51L157.307 114.878C150.609 113.849 144.092 111.866 137.955 108.989Z" fill="#FBA43F"/>
</g>
<path d="M137.975 98.7501C137.975 98.7501 144.853 112.539 160.536 109.749C171.582 107.809 172.412 92.1909 170.842 76.7526C168.393 52.6954 160.546 51.7555 148.791 53.5253C122.171 57.6348 137.975 98.7501 137.975 98.7501Z" fill="#FBA43F"/>
<path d="M131.358 56.0048C135.406 59.6044 135.736 56.8447 139.654 60.5842C145.892 72.4129 138.115 76.9724 138.115 76.9724L138.995 85.4914L135.686 86.5913L137.345 96.1902C137.345 96.1902 130.038 88.0311 126.399 71.723C123.691 59.5544 127.599 55.8748 131.358 56.0048Z" fill="#35495E"/>
<path d="M141.963 70.4032C135.206 69.8933 128.968 66.0837 126.09 60.2444C125.3 62.7041 125.21 66.3937 126.399 71.7231C130.038 88.0312 137.345 96.1903 137.345 96.1903L135.686 86.5914L138.995 85.4915L138.105 76.9725C139.184 76.221 140.088 75.2448 140.754 74.1108C141.42 72.9768 141.832 71.7119 141.963 70.4032Z" fill="#213344"/>
<path d="M137.175 92.8107L134.956 78.1824C134.956 78.1824 129.508 76.8525 129.188 81.732C128.869 86.6114 132.517 92.5207 137.175 92.8107Z" fill="#FBA43F"/>
<path d="M136.106 63.6042C136.106 63.6042 150.201 69.6035 161.206 62.8743L155.928 62.1343C155.928 62.1343 167.524 61.2544 171.043 54.2052L167.674 55.6751C167.674 55.6751 173.102 50.0957 168.553 43.7864C168.553 43.7864 168.693 46.4261 166.934 47.786C165.175 49.1458 141.944 36.4773 134.197 47.636C126.45 58.7947 136.106 63.6042 136.106 63.6042Z" fill="#35495E"/>
<path d="M135.626 90.3411C135.107 90.3289 134.594 90.2309 134.107 90.0511C133.849 89.9557 133.601 89.8351 133.367 89.6911C133.101 89.532 132.875 89.3129 132.707 89.0512C132.5 88.7396 132.414 88.3621 132.467 87.9913C132.477 87.8895 132.497 87.7889 132.527 87.6914L132.587 87.5114C132.587 87.3914 132.657 87.2914 132.727 87.1514C132.797 87.0114 132.887 86.8515 132.977 86.7015C133.083 86.562 133.2 86.4316 133.327 86.3115C133.477 86.1831 133.645 86.0786 133.827 86.0016C134.06 85.9027 134.316 85.8715 134.567 85.9116L133.737 86.6115C133.637 85.4116 133.547 84.1618 133.347 82.9919C133.3 82.7052 133.237 82.4214 133.157 82.142C133.097 81.8904 132.996 81.6504 132.857 81.4321C132.807 81.3408 132.727 81.2693 132.631 81.2293C132.535 81.1894 132.428 81.1833 132.328 81.2121C132.039 81.306 131.769 81.448 131.528 81.6321C131.662 81.3167 131.876 81.0412 132.148 80.8322C132.317 80.7045 132.526 80.6408 132.737 80.6522C132.964 80.6563 133.183 80.7374 133.357 80.8821C133.651 81.1198 133.893 81.416 134.067 81.7521C134.22 82.0578 134.357 82.3716 134.477 82.692C134.866 83.9429 135.082 85.2417 135.116 86.5515L134.297 87.2614C134.407 87.2614 134.297 87.2614 134.297 87.2614L134.167 87.3314C134.117 87.3314 134.067 87.4314 134.007 87.4714L133.867 87.6614C133.802 87.7599 133.745 87.8636 133.697 87.9713L133.617 88.1413C133.617 88.1413 133.617 88.1413 133.617 88.1913C133.603 88.2471 133.603 88.3055 133.617 88.3613C133.604 88.4273 133.604 88.4953 133.617 88.5613C133.686 88.7387 133.788 88.9016 133.917 89.0412C134.074 89.2046 134.241 89.3582 134.417 89.5012C134.801 89.8079 135.205 90.0884 135.626 90.3411Z" fill="#C66258"/>
<path d="M124.781 221.486C124.781 221.486 120.992 332.993 123.521 378.548C123.521 378.548 129.199 385.347 143.703 379.228L159.467 250.723L167.034 379.228C167.034 379.228 174.601 384.667 184.697 377.868L190.365 209.248L124.781 221.486Z" fill="#35495E"/>
<path opacity="0.5" d="M159.597 252.852L167.034 379.198C167.034 379.198 174.601 384.637 184.697 377.838L189.245 242.524L159.597 252.852Z" fill="#213344"/>
<path opacity="0.5" d="M189.865 224.196L190.365 209.248L124.78 221.486C124.78 221.486 124.68 224.346 124.53 229.325C166.164 246.183 181.438 230.135 189.865 224.196Z" fill="#213344"/>
<path d="M136.606 115.608L151.02 124.747L157.398 137.015L163.635 116.148C163.635 116.148 181.158 116.038 188.016 123.747C194.873 131.456 191.015 219.316 191.015 219.316L165.624 233.024L162.306 221.856L161.446 233.644L122.251 222.716C122.251 222.716 113.835 128.546 120.962 122.437C126.96 117.318 136.606 115.608 136.606 115.608Z" fill="#63B7AF"/>
<path opacity="0.2" d="M122.181 141.475C120.832 141.665 119.482 141.825 118.133 141.975C117.653 171.272 122.251 222.746 122.251 222.746L161.446 233.675L162.306 221.886L165.624 233.025L191.014 219.316C191.014 219.316 191.734 202.828 192.014 183.52C184.711 181.947 177.565 179.718 170.662 176.861C152.399 169.382 131.358 159.863 122.181 141.475Z" fill="#213344"/>
<path d="M156.738 141.535C156.738 141.917 156.851 142.29 157.063 142.607C157.275 142.925 157.576 143.172 157.929 143.318C158.281 143.464 158.669 143.503 159.043 143.428C159.418 143.354 159.761 143.17 160.031 142.9C160.301 142.63 160.485 142.286 160.559 141.912C160.634 141.537 160.595 141.149 160.449 140.797C160.303 140.444 160.056 140.143 159.739 139.93C159.422 139.718 159.049 139.605 158.667 139.605C158.155 139.605 157.665 139.809 157.303 140.171C156.941 140.532 156.738 141.023 156.738 141.535Z" fill="#80CEC4"/>
<path d="M160.806 215.457C160.806 215.839 160.919 216.212 161.131 216.529C161.343 216.846 161.645 217.094 161.997 217.24C162.35 217.386 162.738 217.424 163.112 217.35C163.486 217.275 163.83 217.091 164.1 216.822C164.369 216.552 164.553 216.208 164.628 215.833C164.702 215.459 164.664 215.071 164.518 214.718C164.372 214.366 164.125 214.064 163.807 213.852C163.49 213.64 163.117 213.527 162.735 213.527C162.224 213.527 161.733 213.73 161.371 214.092C161.009 214.454 160.806 214.945 160.806 215.457Z" fill="#80CEC4"/>
<path d="M160.376 197.239C160.374 197.621 160.485 197.995 160.696 198.314C160.907 198.632 161.208 198.881 161.56 199.029C161.912 199.177 162.301 199.216 162.675 199.143C163.05 199.07 163.395 198.887 163.666 198.617C163.937 198.348 164.121 198.004 164.197 197.629C164.272 197.254 164.234 196.866 164.089 196.513C163.943 196.159 163.696 195.857 163.378 195.645C163.061 195.432 162.687 195.319 162.305 195.319C161.795 195.319 161.306 195.521 160.945 195.881C160.583 196.24 160.379 196.729 160.376 197.239Z" fill="#80CEC4"/>
<path d="M160.376 178.171C160.376 178.553 160.489 178.926 160.701 179.243C160.913 179.561 161.214 179.808 161.567 179.954C161.919 180.1 162.307 180.139 162.682 180.064C163.056 179.99 163.4 179.806 163.669 179.536C163.939 179.266 164.123 178.922 164.197 178.548C164.272 178.173 164.234 177.785 164.088 177.433C163.942 177.08 163.694 176.779 163.377 176.566C163.06 176.354 162.687 176.241 162.305 176.241C161.794 176.241 161.303 176.445 160.941 176.806C160.579 177.168 160.376 177.659 160.376 178.171Z" fill="#80CEC4"/>
<path d="M160.727 159.644C161.792 159.644 162.656 158.78 162.656 157.714C162.656 156.648 161.792 155.784 160.727 155.784C159.661 155.784 158.797 156.648 158.797 157.714C158.797 158.78 159.661 159.644 160.727 159.644Z" fill="#80CEC4"/>
<path d="M164.395 113.438L158.507 124.607L157.607 136.806L160.306 127.167L164.665 130.826L168.093 116.468L164.395 113.438Z" fill="#80CEC4"/>
<path d="M157.398 137.016L151.43 124.047L135.746 110.249L131.458 116.248L147.102 133.176L150.95 125.247L157.398 137.016Z" fill="#80CEC4"/>
<path d="M165.608 170C151.608 160.4 129.333 134.833 121 122.5C112.2 130.9 109.5 150.5 114.5 153.5C128.667 166.333 158.208 191.2 160.608 192C163.008 192.8 195.608 195.333 211.608 196.5L213.608 183.5L165.608 170Z" fill="#63B7AF"/>
<path d="M210.608 200L214.208 180L219.608 184.706L216.008 199.412L210.608 200Z" fill="#80CEC4"/>
<path d="M234.608 189L219.108 185.5L216.608 197L224.608 202L237.108 203L234.608 189Z" fill="#FBA43F"/>
</svg>
