<svg width="60" height="60" viewBox="0 0 60 60" fill="none" xmlns="http://www.w3.org/2000/svg">
<path d="M40.2534 40.4769V36.5961C41.1407 36.1634 43.6785 33.1908 43.9447 30.8681C44.6427 30.8157 45.7391 30.1851 46.0625 27.6956C46.236 26.3586 45.5458 25.6077 45.1278 25.371C45.1278 25.371 46.1689 23.4248 46.1689 21.075C46.1689 16.3637 44.2898 12.3432 40.2534 12.3432C40.2534 12.3432 38.8514 9.43265 34.3379 9.43265C25.9733 9.43265 22.5068 14.7124 22.5068 21.075C22.5068 23.2172 23.5479 25.371 23.5479 25.371C23.1299 25.6077 22.4398 26.3606 22.6133 27.6956C22.9367 30.1851 24.033 30.8157 24.731 30.8681C24.9972 33.1908 27.535 36.1634 28.4223 36.5961V40.4769C26.4505 46.2981 10.6757 42.4173 10.6757 56H58C58 42.4173 42.2252 46.2981 40.2534 40.4769Z" fill="#239C9C"/>
<path d="M9.23011 4C5.24343 4 2 6.74964 2 10.1295C2 11.2754 2.36973 12.3815 3.07322 13.3478L2.6524 16.6309L5.55998 15.4126C6.49407 15.8793 7.53944 16.1474 8.63137 16.2239C9.16632 18.347 11.388 19.8647 13.9297 19.8647C14.9798 19.8647 15.934 19.568 16.7709 19.121L18.8736 20.2985L18.553 17.5816C19.0297 16.8966 19.3523 16.1044 19.3523 15.2365C19.3523 13.3876 18.1087 11.8516 16.3543 11.1028C16.4175 10.7773 16.4602 10.4521 16.4602 10.1295C16.4602 6.74964 13.2168 4 9.23011 4ZM6.74476 7.72955C7.30727 7.72955 7.7615 8.18263 7.7615 8.74222C7.7615 9.30181 7.30654 9.7577 6.74476 9.7577C6.18298 9.7577 5.72803 9.30325 5.72803 8.74222C5.72803 8.18263 6.18298 7.72955 6.74476 7.72955ZM12.2916 7.72955C12.8534 7.72955 13.3084 8.18263 13.3084 8.74222C13.3084 9.30325 12.8534 9.7577 12.2916 9.7577C11.7284 9.7577 11.2749 9.30325 11.2749 8.74222C11.2749 8.18191 11.7298 7.72955 12.2916 7.72955ZM13.9297 12.0521C16.1997 12.0521 17.9063 13.5465 17.9063 15.2365C17.9063 15.8771 17.6732 16.4703 17.2496 16.9844L17.0547 17.221L17.09 17.5253L17.1056 17.6548L16.785 17.476L16.4179 17.7126C15.7426 18.15 14.8793 18.4224 13.9297 18.4224C11.6597 18.4224 9.95313 16.9266 9.95313 15.2365C9.95313 13.5474 11.6598 12.0521 13.9297 12.0521ZM12.1123 13.6844C11.6857 13.6844 11.3427 14.028 11.3427 14.452C11.3427 14.8761 11.6864 15.221 12.1123 15.221C12.5367 15.221 12.8826 14.8761 12.8833 14.452C12.8833 14.028 12.5374 13.6844 12.1123 13.6844ZM15.7612 13.6844C15.3368 13.6844 14.9916 14.028 14.9916 14.452C14.9916 14.8761 15.3361 15.221 15.7612 15.221C16.1871 15.221 16.5337 14.8761 16.5337 14.452C16.5337 14.028 16.1871 13.6844 15.7612 13.6844Z" fill="#239C9C"/>
</svg>
