<svg width="224" height="232" viewBox="0 0 224 232" fill="none" xmlns="http://www.w3.org/2000/svg">
<circle cx="111.795" cy="120.205" r="111.795" fill="#F5F5F5"/>
<path fill-rule="evenodd" clip-rule="evenodd" d="M19.7869 48.4775C19.7869 51.7559 22.4445 54.4136 25.7229 54.4136C29.0013 54.4136 31.6589 51.7559 31.6589 48.4775C31.6589 45.1992 29.0013 42.5415 25.7229 42.5415C22.4445 42.5415 19.7869 45.1992 19.7869 48.4775ZM20.9741 48.4775C20.9741 45.8548 23.1002 43.7287 25.7229 43.7287C28.3456 43.7287 30.4717 45.8548 30.4717 48.4775C30.4717 51.1002 28.3456 53.2264 25.7229 53.2264C23.1002 53.2264 20.9741 51.1002 20.9741 48.4775ZM23.2045 49.0711C22.8766 49.0711 22.6108 48.8054 22.6108 48.4775C22.6108 48.1497 22.8766 47.8839 23.2045 47.8839H28.2413C28.5692 47.8839 28.8349 48.1497 28.8349 48.4775C28.8349 48.8054 28.5692 49.0711 28.2413 49.0711H23.2045Z" fill="#FBD09D"/>
<path fill-rule="evenodd" clip-rule="evenodd" d="M123.173 162.746C123.173 167.664 127.159 171.65 132.077 171.65C136.994 171.65 140.981 167.664 140.981 162.746C140.981 157.829 136.994 153.842 132.077 153.842C127.159 153.842 123.173 157.829 123.173 162.746ZM124.954 162.746C124.954 158.812 128.143 155.623 132.077 155.623C136.011 155.623 139.2 158.812 139.2 162.746C139.2 166.68 136.011 169.869 132.077 169.869C128.143 169.869 124.954 166.68 124.954 162.746ZM136.295 160.677C136.627 160.314 136.603 159.751 136.24 159.419C135.878 159.086 135.314 159.111 134.982 159.473L130.773 164.065L129.199 162.176C128.884 161.798 128.323 161.747 127.945 162.062C127.567 162.377 127.516 162.938 127.831 163.316L130.057 165.987C130.222 166.185 130.463 166.302 130.72 166.308C130.977 166.314 131.224 166.208 131.398 166.019L136.295 160.677Z" fill="#FBD09D"/>
<path opacity="0.5" d="M11.3323 140.486C10.5373 140.486 9.89331 141.13 9.89331 141.925V151.999C9.89331 152.794 10.5373 153.438 11.3323 153.438H21.4056C22.2007 153.438 22.8447 152.794 22.8447 151.999V141.925C22.8447 141.13 22.2 140.486 21.4056 140.486H11.3323ZM20.6861 143.364C20.8701 143.364 21.0542 143.434 21.1948 143.575C21.4762 143.856 21.4762 144.311 21.1948 144.593L15.7549 150.032C15.6196 150.168 15.4368 150.243 15.2461 150.243C15.0555 150.243 14.872 150.168 14.7374 150.032L12.2528 147.548C11.9715 147.267 11.9715 146.812 12.2528 146.53C12.5342 146.249 12.9889 146.249 13.2703 146.53L15.2461 148.506L20.1774 143.575C20.318 143.434 20.5021 143.364 20.6861 143.364ZM24.2837 143.364V151.999C24.2837 153.588 22.995 154.877 21.4056 154.877H12.7714C12.7714 155.672 13.4154 156.316 14.2104 156.316H24.2837C25.0788 156.316 25.7227 155.672 25.7227 154.877V144.803C25.7227 144.008 25.078 143.364 24.2837 143.364Z" fill="#FBA43F"/>
<path d="M87.3623 143.4L85.626 151.423L83.0241 152.625L82.5887 142.465L87.3623 143.4Z" fill="#FBA43F"/>
<path d="M84.4633 92.9978C85.329 100.868 92.0665 125.364 88.0349 143.558L81.2629 144.018L84.4634 94.9765C85.4428 94.185 83.5334 93.8486 84.4633 92.9978Z" fill="#569D9A"/>
<ellipse cx="66.7802" cy="227.991" rx="34.1322" ry="1.97868" fill="#C4C4C4"/>
<path d="M69.4403 89.7568L69.0398 80.8834L59.4469 77.3568L59.9908 89.6183L52.1682 92.8926L68.8667 101.474L77.1541 91.2653L69.4403 89.7568Z" fill="#FBA43F"/>
<g style="mix-blend-mode:multiply" opacity="0.2">
<path d="M59.8327 86.067L59.447 77.3519L69.0399 80.8835L69.4058 88.9803C66.0921 88.4714 62.8683 87.4903 59.8327 86.067Z" fill="#FBA43F"/>
</g>
<path d="M60.3415 81.2265C60.3415 81.2265 65.6709 86.6756 72.6325 82.9834C77.5391 80.3948 75.5609 72.9152 72.4805 65.8842C67.6787 54.9284 63.8414 55.676 58.5749 58.2922C46.6645 64.2645 60.3415 81.2265 60.3415 81.2265Z" fill="#FBA43F"/>
<path d="M50.7421 62.1037C53.1942 63.1845 52.9309 61.8351 55.3431 63.0016C60.0741 67.625 57.1039 70.9513 57.1039 70.9513L58.8101 74.829L57.419 75.8487L59.6562 80.1166C59.6562 80.1166 54.9782 77.3833 50.7915 70.2565C47.6705 64.9379 48.9527 62.6126 50.7421 62.1037Z" fill="#35495E"/>
<path d="M57.9197 67.2745C54.6606 68.0593 51.1459 67.2116 48.9048 64.8989C48.906 66.1768 49.4233 67.9276 50.7917 70.2565C54.9783 77.3833 59.6563 80.1167 59.6563 80.1167L57.4191 75.8488L58.8102 74.829L57.0993 70.9528C57.4934 70.4354 57.7708 69.8386 57.9124 69.2037C58.0541 68.5687 58.0565 67.9106 57.9197 67.2745Z" fill="#213344"/>
<path d="M59.0638 78.5513L55.8003 72.0002C55.8003 72.0002 53.0335 72.2003 53.623 74.5463C54.2124 76.8923 56.8266 79.1213 59.0638 78.5513Z" fill="#FBA43F"/>
<path d="M54.1309 64.9617C54.1309 64.9617 61.6771 65.6488 65.8384 60.8111L63.2411 61.2632C63.2411 61.2632 68.5674 59.0903 69.1549 55.2375L67.7917 56.4405C67.7917 56.4405 69.5012 52.9903 66.4028 50.7094C66.4028 50.7094 66.869 51.9311 66.2469 52.8382C65.6248 53.7453 52.7652 51.3038 50.81 57.7328C48.8548 64.1617 54.1309 64.9617 54.1309 64.9617Z" fill="#35495E"/>
<path d="M57.9599 77.6234C57.7137 77.6963 57.4571 77.728 57.2006 77.7173C57.0647 77.7114 56.9298 77.6922 56.7977 77.66C56.648 77.6255 56.5084 77.5566 56.39 77.4587C56.2449 77.3435 56.1474 77.1788 56.1163 76.9961C56.1052 76.9467 56.0994 76.8963 56.099 76.8457L56.1 76.7519C56.0818 76.6954 56.0995 76.6377 56.1113 76.5612C56.123 76.4847 56.1411 76.3957 56.1607 76.3114C56.1893 76.2298 56.2246 76.1506 56.2663 76.0748C56.3173 75.9916 56.3808 75.9168 56.4546 75.853C56.5494 75.7711 56.6654 75.7175 56.7892 75.6985L56.5047 76.1538C56.2757 75.6041 56.0438 75.0292 55.7722 74.5087C55.7067 74.3808 55.6338 74.2568 55.5539 74.1373C55.4875 74.0279 55.4034 73.9303 55.305 73.8486C55.2675 73.8132 55.219 73.7917 55.1676 73.7874C55.1163 73.7832 55.065 73.7966 55.0222 73.8253C54.9007 73.9133 54.7949 74.0211 54.7094 74.1444C54.7249 73.9754 54.7836 73.8134 54.8798 73.6737C54.9402 73.588 55.0289 73.5263 55.1302 73.4995C55.2376 73.4671 55.3528 73.4721 55.4569 73.5138C55.6315 73.5811 55.7903 73.6839 55.923 73.8158C56.0416 73.9365 56.1536 74.0635 56.2586 74.1962C56.6318 74.726 56.9302 75.3049 57.1452 75.9164L56.8669 76.375C56.9187 76.3583 56.8669 76.375 56.8669 76.375L56.8163 76.4276C56.7928 76.4352 56.7844 76.4899 56.7622 76.5178L56.7252 76.6285C56.7095 76.6847 56.6984 76.7421 56.6922 76.8002L56.6803 76.8923C56.6803 76.8923 56.6803 76.8923 56.6879 76.9159C56.6898 76.9443 56.6986 76.9718 56.7137 76.9959C56.7175 77.029 56.7278 77.061 56.744 77.0901C56.8033 77.1632 56.8759 77.2244 56.958 77.2706C57.0567 77.3237 57.1586 77.3707 57.2631 77.4113C57.4904 77.4975 57.7232 77.5683 57.9599 77.6234Z" fill="#C66258"/>
<path d="M74.741 212.307C74.914 212.802 75.4233 228.496 76.2788 228.669C77.1342 228.842 110.309 232.626 81.4164 224.578L82.7762 197.939L74.741 212.307Z" fill="#FBA43F"/>
<path d="M75.3442 225.207C75.3442 225.207 75.7645 229.193 76.2887 229.193C76.8128 229.193 92.7449 230.87 93.4816 229.297C94.2184 227.724 82.6823 224.578 82.6823 224.578L81.1988 226.468L75.3442 225.207Z" fill="#347474"/>
<path d="M92.8536 228.347C92.1563 229.831 77.6237 228.392 75.8386 228.253C75.9721 228.792 76.1304 229.188 76.2935 229.188C76.8177 229.188 92.7497 230.865 93.4865 229.292C93.6101 229.02 93.353 228.693 92.8536 228.347Z" fill="white"/>
<path d="M61.5581 212.307C61.39 212.802 60.8807 228.496 60.0253 228.669C59.1698 228.842 25.9905 232.626 54.8877 224.578L53.5229 197.939L61.5581 212.307Z" fill="#FBA43F"/>
<path d="M60.9652 225.207C60.9652 225.207 60.5498 229.193 60.0257 229.193C59.5015 229.193 43.5646 230.87 42.8327 229.297C42.1009 227.724 53.6272 224.578 53.6272 224.578L55.1106 226.468L60.9652 225.207Z" fill="#347474"/>
<path d="M43.4604 228.347C44.1625 229.831 58.6903 228.392 60.4753 228.253C60.3418 228.792 60.1885 229.188 60.0253 229.188C59.5012 229.188 43.5642 230.865 42.8324 229.292C42.7038 229.02 42.961 228.693 43.4604 228.347Z" fill="white"/>
<path d="M53.3157 141.716C53.3157 141.716 51.4416 196.875 52.6926 219.41C52.6926 219.41 55.5013 222.773 62.6761 219.746L70.474 156.178L74.2172 219.746C74.2172 219.746 77.9604 222.437 82.9546 219.073L85.7583 135.662L53.3157 141.716Z" fill="#35495E"/>
<path opacity="0.5" d="M70.5381 157.232L74.217 219.731C74.217 219.731 77.9602 222.422 82.9544 219.059L85.2043 152.123L70.5381 157.232Z" fill="#213344"/>
<path opacity="0.5" d="M85.5106 143.056L85.7579 135.662L53.3153 141.716C53.3153 141.716 53.2658 143.131 53.1917 145.594C73.7866 153.933 81.3422 145.994 85.5106 143.056Z" fill="#213344"/>
<path d="M59.1652 89.3412L66.2955 93.8619L69.4503 99.9308L72.5358 89.6083C72.5358 89.6083 81.204 89.5539 84.5961 93.3673C87.9882 97.1808 86.0795 140.642 86.0795 140.642L73.5198 147.424L71.8782 141.899L71.4529 147.73L52.0645 142.324C52.0645 142.324 47.901 95.7415 51.4266 92.7194C54.3935 90.187 59.1652 89.3412 59.1652 89.3412Z" fill="#63B7AF"/>
<path opacity="0.2" d="M52.0298 102.137C51.3622 102.231 50.6947 102.31 50.0271 102.384C49.7898 116.876 52.0644 142.339 52.0644 142.339L71.4528 147.745L71.878 141.914L73.5197 147.424L86.0794 140.642C86.0794 140.642 86.4354 132.486 86.5739 122.935C82.9614 122.157 79.4265 121.054 76.0119 119.641C66.9778 115.941 56.5691 111.233 52.0298 102.137Z" fill="#213344"/>
<path d="M69.1238 102.167C69.1238 102.355 69.1797 102.54 69.2846 102.697C69.3895 102.854 69.5385 102.976 69.7129 103.049C69.8873 103.121 70.0792 103.14 70.2643 103.103C70.4494 103.066 70.6195 102.975 70.7529 102.842C70.8864 102.708 70.9773 102.538 71.0141 102.353C71.0509 102.168 71.032 101.976 70.9598 101.801C70.8876 101.627 70.7653 101.478 70.6083 101.373C70.4514 101.268 70.2669 101.212 70.0781 101.212C69.825 101.212 69.5823 101.312 69.4033 101.491C69.2243 101.67 69.1238 101.913 69.1238 102.167Z" fill="#80CEC4"/>
<path d="M71.1365 138.733C71.1365 138.922 71.1925 139.107 71.2973 139.264C71.4022 139.421 71.5512 139.543 71.7256 139.615C71.9 139.688 72.0919 139.707 72.277 139.67C72.4621 139.633 72.6322 139.542 72.7656 139.408C72.8991 139.275 72.99 139.105 73.0268 138.92C73.0637 138.734 73.0447 138.542 72.9725 138.368C72.9003 138.194 72.778 138.044 72.621 137.94C72.4641 137.835 72.2796 137.779 72.0908 137.779C71.8377 137.779 71.595 137.879 71.416 138.058C71.237 138.237 71.1365 138.48 71.1365 138.733Z" fill="#80CEC4"/>
<path d="M70.9238 129.722C70.9229 129.911 70.978 130.096 71.0823 130.253C71.1865 130.411 71.3352 130.534 71.5095 130.607C71.6838 130.68 71.8759 130.7 72.0613 130.664C72.2468 130.627 72.4173 130.537 72.5512 130.403C72.6852 130.27 72.7766 130.1 72.8138 129.915C72.851 129.729 72.8324 129.537 72.7603 129.362C72.6883 129.188 72.5659 129.038 72.4089 128.933C72.2519 128.828 72.0671 128.772 71.8782 128.772C71.6259 128.772 71.3839 128.872 71.2051 129.05C71.0263 129.228 70.9251 129.469 70.9238 129.722Z" fill="#80CEC4"/>
<path d="M70.9238 120.289C70.9238 120.478 70.9798 120.663 71.0847 120.82C71.1895 120.977 71.3386 121.099 71.513 121.171C71.6873 121.244 71.8792 121.263 72.0643 121.226C72.2495 121.189 72.4195 121.098 72.553 120.964C72.6865 120.831 72.7773 120.661 72.8142 120.476C72.851 120.29 72.8321 120.098 72.7599 119.924C72.6876 119.75 72.5653 119.6 72.4084 119.495C72.2514 119.391 72.0669 119.335 71.8782 119.335C71.6251 119.335 71.3823 119.435 71.2033 119.614C71.0244 119.793 70.9238 120.036 70.9238 120.289Z" fill="#80CEC4"/>
<path d="M71.0969 111.124C71.624 111.124 72.0513 110.697 72.0513 110.17C72.0513 109.642 71.624 109.215 71.0969 109.215C70.5699 109.215 70.1426 109.642 70.1426 110.17C70.1426 110.697 70.5699 111.124 71.0969 111.124Z" fill="#80CEC4"/>
<path d="M72.9117 88.2679L69.9992 93.7928L69.5542 99.827L70.8893 95.059L73.0452 96.8693L74.7413 89.7666L72.9117 88.2679Z" fill="#80CEC4"/>
<path d="M69.4503 99.931L66.4983 93.5158L58.74 86.6902L56.6187 89.6579L64.3572 98.0317L66.2609 94.1094L69.4503 99.931Z" fill="#80CEC4"/>
<path d="M81.9869 87.0209C74.2807 90.3565 58.8044 92.2602 51.4454 92.503C51.3038 97.2509 49.3673 106.421 51.94 105.117C61.0442 102.563 88.9169 95.7015 89.8838 94.907C90.8507 94.1125 100.495 81.127 105.196 74.7336L100.278 70.4734L81.9869 87.0209Z" fill="#63B7AF"/>
<path d="M106.398 76.0741L98.9704 69.3009L102.363 68.2784L107.574 73.6578L106.398 76.0741Z" fill="#80CEC4"/>
<path d="M108.11 63.127L102.564 68.6967L106.722 72.7714L110.922 70.7375L114.632 65.7659L108.11 63.127Z" fill="#FBA43F"/>
<rect x="181.054" y="40.5684" width="42.0362" height="91.9979" rx="9.5" fill="#569D9A" stroke="#239C9C"/>
<path d="M145.793 13.5092V2.06854L155.934 0.00720215V20.2771L145.793 13.5092Z" fill="#074D4D"/>
<path d="M166.075 13.5092V2.06854L155.934 0.00720215V20.2771L166.075 13.5092Z" fill="#074D4D"/>
<g style="mix-blend-mode:multiply">
<path d="M166.075 13.5091V2.06842L155.925 0V20.2815L166.075 13.5091Z" fill="#549393"/>
</g>
<rect x="141.481" y="1.87512" width="28.219" height="9.30671" rx="1.5" fill="#FBA43F" stroke="#F76910"/>
<g style="mix-blend-mode:multiply">
<path d="M155.861 1.72205H168.905C169.457 1.72205 169.905 2.16976 169.905 2.72205V10.3401C169.905 10.8924 169.457 11.3401 168.905 11.3401H155.861L155.861 1.72205Z" fill="#FBA43F" fill-opacity="0.52"/>
</g>
<g filter="url(#filter0_d_4817_1792)">
<path d="M144.738 8.39494H146.204C147.034 8.39494 147.441 7.97215 147.441 7.40785C147.441 6.85947 147.052 6.53752 146.666 6.51806V6.48268C147.02 6.39954 147.299 6.15189 147.299 5.71142C147.299 5.17188 146.91 4.77209 146.125 4.77209H144.738V8.39494ZM145.394 7.84656V6.78518H146.118C146.523 6.78518 146.774 7.03283 146.774 7.35655C146.774 7.6449 146.576 7.84656 146.1 7.84656H145.394ZM145.394 6.31286V5.3134H146.057C146.443 5.3134 146.643 5.51683 146.643 5.79633C146.643 6.11474 146.385 6.31286 146.043 6.31286H145.394Z" fill="white"/>
<path d="M149.186 8.44801C149.82 8.44801 150.255 8.13844 150.368 7.66612L149.77 7.5989C149.683 7.82887 149.471 7.94916 149.195 7.94916C148.781 7.94916 148.507 7.67674 148.502 7.2115H150.395V7.01514C150.395 6.06167 149.821 5.64243 149.153 5.64243C148.374 5.64243 147.867 6.2138 147.867 7.05229C147.867 7.90493 148.367 8.44801 149.186 8.44801ZM148.503 6.77987C148.523 6.43315 148.779 6.14127 149.162 6.14127C149.529 6.14127 149.777 6.41016 149.781 6.77987H148.503Z" fill="white"/>
<path d="M153.084 6.39601C152.995 5.93607 152.627 5.64243 151.991 5.64243C151.336 5.64243 150.89 5.96438 150.892 6.46676C150.89 6.86301 151.134 7.12482 151.656 7.23273L152.12 7.33002C152.369 7.38486 152.486 7.48569 152.486 7.63959C152.486 7.82533 152.284 7.96508 151.98 7.96508C151.686 7.96508 151.495 7.83771 151.44 7.5936L150.816 7.65374C150.896 8.15259 151.315 8.44801 151.982 8.44801C152.661 8.44801 153.14 8.09598 153.142 7.58121C153.14 7.19381 152.891 6.95677 152.378 6.84532L151.914 6.74626C151.639 6.68435 151.529 6.58882 151.531 6.43138C151.529 6.24741 151.732 6.12005 151.999 6.12005C152.295 6.12005 152.45 6.28102 152.5 6.45969L153.084 6.39601Z" fill="white"/>
<path d="M155.027 5.67781H154.491V5.02683H153.851V5.67781H153.465V6.17312H153.851V7.68381C153.847 8.19504 154.219 8.44624 154.7 8.43209C154.882 8.42678 155.008 8.3914 155.077 8.3684L154.969 7.86779C154.933 7.87663 154.861 7.89255 154.781 7.89255C154.62 7.89255 154.491 7.83594 154.491 7.57767V6.17312H155.027V5.67781Z" fill="white"/>
<path d="M156.798 9.41386H157.439V7.96685H157.465C157.566 8.16497 157.776 8.4427 158.243 8.4427C158.884 8.4427 159.363 7.93501 159.363 7.03991C159.363 6.1342 158.87 5.64243 158.242 5.64243C157.762 5.64243 157.562 5.93077 157.465 6.12712H157.428V5.67781H156.798V9.41386ZM157.426 7.03637C157.426 6.50922 157.653 6.16781 158.065 6.16781C158.491 6.16781 158.71 6.53045 158.71 7.03637C158.71 7.54583 158.488 7.91732 158.065 7.91732C157.656 7.91732 157.426 7.56352 157.426 7.03637Z" fill="white"/>
<path d="M160.552 4.77209H159.912V8.39494H160.552V4.77209Z" fill="white"/>
<path d="M161.992 8.44977C162.419 8.44977 162.673 8.24988 162.79 8.02169H162.811V8.39494H163.427V6.57644C163.427 5.85824 162.841 5.64243 162.323 5.64243C161.752 5.64243 161.313 5.89716 161.171 6.39247L161.769 6.47738C161.833 6.29164 162.014 6.13243 162.327 6.13243C162.624 6.13243 162.787 6.28456 162.787 6.55167V6.56229C162.787 6.74626 162.594 6.75511 162.114 6.80641C161.587 6.86301 161.083 7.02045 161.083 7.63251C161.083 8.16674 161.474 8.44977 161.992 8.44977ZM162.159 7.97923C161.891 7.97923 161.7 7.85717 161.7 7.6219C161.7 7.37601 161.914 7.27341 162.201 7.23273C162.369 7.20973 162.705 7.16727 162.788 7.10005V7.42024C162.788 7.72273 162.544 7.97923 162.159 7.97923Z" fill="white"/>
<path d="M164.711 6.80287C164.711 6.41016 164.948 6.18373 165.286 6.18373C165.617 6.18373 165.815 6.40131 165.815 6.76395V8.39494H166.455V6.66489C166.457 6.01391 166.086 5.64243 165.525 5.64243C165.118 5.64243 164.839 5.83701 164.715 6.13951H164.683V5.67781H164.071V8.39494H164.711V6.80287Z" fill="white"/>
</g>
<g filter="url(#filter1_d_4817_1792)">
<rect x="118.226" y="24.2388" width="74.6951" height="113.774" rx="10" fill="#63B7AF"/>
<rect x="118.726" y="24.7388" width="73.6951" height="112.774" rx="9.5" stroke="#239C9C"/>
</g>
<rect opacity="0.7" x="132.077" y="67.2751" width="47.4883" height="2.47335" rx="1.23667" fill="white"/>
<rect opacity="0.7" x="132.077" y="43.5309" width="47.4883" height="6.4307" rx="3.21535" fill="white"/>
<rect opacity="0.7" x="132.077" y="73.7058" width="47.4883" height="2.47335" rx="1.23667" fill="white"/>
<rect opacity="0.7" x="132.077" y="80.1365" width="47.4883" height="2.47335" rx="1.23667" fill="white"/>
<rect opacity="0.7" x="132.077" y="86.5671" width="47.4883" height="2.47335" rx="1.23667" fill="white"/>
<rect opacity="0.7" x="132.077" y="92.9978" width="47.4883" height="2.47335" rx="1.23667" fill="white"/>
<rect opacity="0.7" x="132.077" y="99.4285" width="47.4883" height="2.47335" rx="1.23667" fill="white"/>
<rect opacity="0.7" x="132.077" y="105.859" width="47.4883" height="2.47335" rx="1.23667" fill="white"/>
<rect opacity="0.7" x="132.077" y="112.29" width="47.4883" height="2.47335" rx="1.23667" fill="white"/>
<defs>
<filter id="filter0_d_4817_1792" x="143.738" y="4.27209" width="23.7175" height="6.64172" filterUnits="userSpaceOnUse" color-interpolation-filters="sRGB">
<feFlood flood-opacity="0" result="BackgroundImageFix"/>
<feColorMatrix in="SourceAlpha" type="matrix" values="0 0 0 0 0 0 0 0 0 0 0 0 0 0 0 0 0 0 127 0" result="hardAlpha"/>
<feOffset dy="0.5"/>
<feGaussianBlur stdDeviation="0.5"/>
<feComposite in2="hardAlpha" operator="out"/>
<feColorMatrix type="matrix" values="0 0 0 0 0 0 0 0 0 0 0 0 0 0 0 0 0 0 0.3 0"/>
<feBlend mode="normal" in2="BackgroundImageFix" result="effect1_dropShadow_4817_1792"/>
<feBlend mode="normal" in="SourceGraphic" in2="effect1_dropShadow_4817_1792" result="shape"/>
</filter>
<filter id="filter1_d_4817_1792" x="103.226" y="19.2388" width="104.695" height="143.774" filterUnits="userSpaceOnUse" color-interpolation-filters="sRGB">
<feFlood flood-opacity="0" result="BackgroundImageFix"/>
<feColorMatrix in="SourceAlpha" type="matrix" values="0 0 0 0 0 0 0 0 0 0 0 0 0 0 0 0 0 0 127 0" result="hardAlpha"/>
<feOffset dy="10"/>
<feGaussianBlur stdDeviation="7.5"/>
<feComposite in2="hardAlpha" operator="out"/>
<feColorMatrix type="matrix" values="0 0 0 0 0 0 0 0 0 0 0 0 0 0 0 0 0 0 0.08 0"/>
<feBlend mode="normal" in2="BackgroundImageFix" result="effect1_dropShadow_4817_1792"/>
<feBlend mode="normal" in="SourceGraphic" in2="effect1_dropShadow_4817_1792" result="shape"/>
</filter>
</defs>
</svg>
