<svg width="176" height="102" viewBox="0 0 176 102" fill="none" xmlns="http://www.w3.org/2000/svg">
<path d="M7.70998 101.866H5.72132V97.6529H1.99506V101.866H0V92.1038H1.99506V95.9302H5.72132V92.1038H7.70998V101.866Z" fill="#505050"/>
<path d="M16.5508 94.2606C17.2115 94.2606 17.8014 94.4163 18.3206 94.7282C18.844 95.0355 19.2473 95.4806 19.5305 96.0635C19.8179 96.6424 19.9617 97.3054 19.9617 98.0538C19.9617 98.0757 19.9617 98.0982 19.9617 98.12C19.9617 99.3354 19.6528 100.286 19.0349 100.971C18.4171 101.657 17.5569 102 16.4542 102C16.4371 102 16.4178 102 16.3963 102C15.7356 102 15.1435 101.844 14.6201 101.532C14.1009 101.216 13.6976 100.767 13.4101 100.184C13.127 99.6003 12.9854 98.9347 12.9854 98.1869C12.9854 98.1651 12.9854 98.1425 12.9854 98.12C12.9854 96.9007 13.2922 95.9549 13.9057 95.2826C14.5193 94.601 15.3816 94.2606 16.4928 94.2606C16.51 94.2606 16.5293 94.2606 16.5508 94.2606ZM17.5998 96.4509C17.3638 96.086 16.9862 95.9032 16.4671 95.9032C15.948 95.9032 15.5704 96.0834 15.3345 96.4443C15.1028 96.8046 14.9869 97.3636 14.9869 98.12C14.9869 98.8724 15.1049 99.4361 15.3409 99.8096C15.5811 100.179 15.9587 100.364 16.4735 100.364C16.9927 100.364 17.3681 100.179 17.5998 99.8096C17.8358 99.4401 17.9538 98.8791 17.9538 98.1267C17.9538 97.3703 17.8358 96.8112 17.5998 96.4509Z" fill="#505050"/>
<path d="M31.6857 101.866H30.1798L29.9159 100.912H29.813C29.6027 101.259 29.3045 101.528 28.9184 101.72C28.5322 101.906 28.0924 102 27.5991 102C26.7581 102 26.121 101.766 25.6877 101.298C25.2587 100.831 25.0441 100.154 25.0441 99.2683V94.4007H27.007V98.7609C27.007 99.304 27.0992 99.7094 27.2837 99.9763C27.4725 100.243 27.7664 100.377 28.1654 100.377C28.7146 100.377 29.1115 100.188 29.356 99.8094C29.6006 99.4312 29.7229 98.7987 29.7229 97.9131V94.4007H31.6857V101.866Z" fill="#505050"/>
<path d="M39.2522 100.511C39.9644 100.511 40.3205 100.297 40.3205 99.8699C40.3205 99.652 40.2261 99.4778 40.0374 99.3487C39.8528 99.2202 39.4281 99.0016 38.7631 98.6943C38.2096 98.4545 37.802 98.2313 37.5403 98.0266C37.2829 97.822 37.0941 97.5882 36.974 97.3259C36.8581 97.0583 36.8002 96.7311 36.8002 96.3443C36.8002 95.6806 37.0469 95.1687 37.5403 94.8083C38.038 94.4434 38.7331 94.2606 39.6255 94.2606C40.5179 94.2606 41.3695 94.4566 42.1804 94.8481L41.5883 96.3172C41.1722 96.135 40.8139 95.9992 40.5136 95.9098C40.2176 95.8164 39.9194 95.7701 39.619 95.7701C39.0398 95.7701 38.7502 95.9323 38.7502 96.2575C38.7502 96.4397 38.8446 96.6 39.0334 96.7377C39.2222 96.8715 39.6126 97.061 40.2047 97.3054C40.8011 97.5504 41.2301 97.7776 41.4918 97.9869C42.0024 98.3876 42.2577 98.9572 42.2577 99.6964C42.2577 100.435 42.0002 101.005 41.4854 101.406C40.9705 101.802 40.2261 102 39.2522 102C38.2783 102 37.4631 101.856 36.8067 101.566V99.8832C37.1756 100.061 37.5875 100.21 38.0423 100.331C38.5014 100.451 38.9047 100.511 39.2522 100.511Z" fill="#505050"/>
<path d="M53.0678 101.473C52.4071 101.824 51.564 102 50.5386 102C49.3802 102 48.4749 101.668 47.8228 101.005C47.1706 100.342 46.8445 99.3937 46.8445 98.1604C46.8445 96.9272 47.1448 95.9721 47.7455 95.2958C48.3462 94.6057 49.1678 94.2606 50.2104 94.2606C51.253 94.2606 52.0553 94.5613 52.6173 95.162C53.188 95.7588 53.4733 96.5887 53.4733 97.6531V98.6413H48.8331C48.8546 99.2242 49.0198 99.6785 49.3287 100.004C49.6419 100.324 50.0752 100.484 50.6287 100.484C51.4439 100.484 52.2569 100.289 53.0678 99.8964V101.473ZM51.6327 97.2855C51.6241 96.7868 51.4976 96.3999 51.253 96.1238C51.0127 95.8476 50.6845 95.7098 50.2683 95.7098C49.8522 95.7098 49.5239 95.8456 49.2836 96.1171C49.0477 96.3887 48.9125 96.7781 48.8782 97.2855H51.6327Z" fill="#505050"/>
<path d="M68.5999 94.2606C69.2605 94.2606 69.8509 94.4163 70.3697 94.7282C70.8931 95.0355 71.2963 95.4806 71.5794 96.0635C71.867 96.6424 72.0109 97.3054 72.0109 98.0538C72.0109 98.0757 72.0109 98.0982 72.0109 98.12C72.0109 99.3354 71.7022 100.286 71.0842 100.971C70.4663 101.657 69.606 102 68.5033 102C68.4863 102 68.4672 102 68.4455 102C67.7849 102 67.1925 101.844 66.6691 101.532C66.1503 101.216 65.7471 100.767 65.4593 100.184C65.1762 99.6003 65.0346 98.9347 65.0346 98.1869C65.0346 98.1651 65.0346 98.1425 65.0346 98.12C65.0346 96.9007 65.3414 95.9549 65.9546 95.2826C66.5686 94.601 67.4309 94.2606 68.5421 94.2606C68.5592 94.2606 68.5782 94.2606 68.5999 94.2606ZM69.6487 96.4509C69.4129 96.086 69.0353 95.9032 68.5165 95.9032C67.997 95.9032 67.6194 96.0834 67.3836 96.4443C67.1518 96.8046 67.0362 97.3636 67.0362 98.12C67.0362 98.8724 67.1538 99.4361 67.3902 99.8096C67.6306 100.179 68.0082 100.364 68.523 100.364C69.0418 100.364 69.4175 100.179 69.6487 99.8096C69.8851 99.4401 70.0026 98.8791 70.0026 98.1267C70.0026 97.3703 69.8851 96.8112 69.6487 96.4509Z" fill="#505050"/>
<path d="M77.4473 93.8531C77.4473 92.9987 77.6489 92.3774 78.0522 91.99C78.4554 91.5985 79.1016 91.4025 79.9895 91.4025C80.6633 91.4025 81.2661 91.5071 81.7981 91.7164L81.2957 93.212C80.897 93.0828 80.547 93.0186 80.2469 93.0186C79.9468 93.0186 79.732 93.1007 79.6033 93.2656C79.4746 93.4305 79.4102 93.6531 79.4102 93.9333V94.4009H81.1092V95.9302H79.4102V101.866H77.4473V95.9302H76.3664V94.948L77.4473 94.4009V93.8531Z" fill="#505050"/>
<path d="M100.715 101.866H98.566L97.8771 99.5425H94.453L93.7713 101.866H91.6219L94.9422 92.0634H97.3813L100.715 101.866ZM97.4075 97.8065L96.3391 94.2339C96.2576 93.9398 96.2018 93.7219 96.1716 93.5795C96.0298 94.1445 95.6246 95.5539 94.9554 97.8065H97.4075Z" fill="#505050"/>
<path d="M108.166 102C105.926 102 104.807 100.724 104.807 98.1737C104.807 96.9093 105.111 95.941 105.72 95.2687C106.33 94.5971 107.202 94.2606 108.34 94.2606C109.176 94.2606 109.92 94.4295 110.573 94.7679L110 96.3443C109.305 96.0502 108.751 95.9032 108.34 95.9032C107.319 95.9032 106.808 96.6443 106.808 98.1267C106.808 99.6096 107.319 100.351 108.34 100.351C109.06 100.351 109.732 100.135 110.354 99.703V101.446C110.019 101.668 109.697 101.813 109.388 101.88C109.067 101.96 108.659 102 108.166 102Z" fill="#505050"/>
<path d="M118.442 102C116.202 102 115.082 100.724 115.082 98.1737C115.082 96.9093 115.387 95.941 115.996 95.2687C116.605 94.5971 117.479 94.2606 118.615 94.2606C119.452 94.2606 120.197 94.4295 120.849 94.7679L120.276 96.3443C119.581 96.0502 119.027 95.9032 118.615 95.9032C117.594 95.9032 117.084 96.6443 117.084 98.1267C117.084 99.6096 117.594 100.351 118.615 100.351C119.336 100.351 120.008 100.135 120.63 99.703V101.446C120.295 101.668 119.973 101.813 119.665 101.88C119.343 101.96 118.935 102 118.442 102Z" fill="#505050"/>
<path d="M128.917 94.2606C129.578 94.2606 130.168 94.4163 130.687 94.7282C131.211 95.0355 131.614 95.4806 131.897 96.0635C132.184 96.6424 132.328 97.3054 132.328 98.0538C132.328 98.0757 132.328 98.0982 132.328 98.12C132.328 99.3354 132.019 100.286 131.402 100.971C130.784 101.657 129.923 102 128.821 102C128.804 102 128.784 102 128.763 102C128.102 102 127.51 101.844 126.987 101.532C126.467 101.216 126.064 100.767 125.777 100.184C125.493 99.6003 125.352 98.9347 125.352 98.1869C125.352 98.1651 125.352 98.1425 125.352 98.12C125.352 96.9007 125.659 95.9549 126.272 95.2826C126.885 94.601 127.748 94.2606 128.86 94.2606C128.877 94.2606 128.896 94.2606 128.917 94.2606ZM129.966 96.4509C129.73 96.086 129.353 95.9032 128.834 95.9032C128.314 95.9032 127.937 96.0834 127.701 96.4443C127.469 96.8046 127.354 97.3636 127.354 98.12C127.354 98.8724 127.471 99.4361 127.708 99.8096C127.947 100.179 128.325 100.364 128.84 100.364C129.359 100.364 129.734 100.179 129.966 99.8096C130.203 99.4401 130.32 98.8791 130.32 98.1267C130.32 97.3703 130.203 96.8112 129.966 96.4509Z" fill="#505050"/>
<path d="M144.052 101.866H142.546L142.282 100.912H142.18C141.969 101.259 141.671 101.528 141.285 101.72C140.898 101.906 140.459 102 139.965 102C139.125 102 138.488 101.766 138.054 101.298C137.625 100.831 137.411 100.154 137.411 99.2683V94.4007H139.374V98.7609C139.374 99.304 139.465 99.7094 139.65 99.9763C139.839 100.243 140.133 100.377 140.532 100.377C141.081 100.377 141.478 100.188 141.723 99.8094C141.967 99.4312 142.089 98.7987 142.089 97.9131V94.4007H144.052V101.866Z" fill="#505050"/>
<path d="M153.691 94.2606C154.523 94.2606 155.156 94.4964 155.59 94.9686C156.027 95.4356 156.246 96.1125 156.246 96.9987V101.866H154.283V97.5061C154.283 96.9629 154.188 96.5576 154 96.2907C153.815 96.0237 153.524 95.8899 153.124 95.8899C152.575 95.8899 152.179 96.0814 151.934 96.4642C151.689 96.847 151.567 97.4769 151.567 98.3538V101.866H149.604V94.401H151.104L151.368 95.3627H151.477C151.691 95.0018 151.99 94.7282 152.372 94.5414C152.758 94.354 153.197 94.2606 153.691 94.2606Z" fill="#505050"/>
<path d="M163.935 94.4009H165.949V95.9303H163.935V99.5294C163.935 99.8096 164.009 100.021 164.16 100.163C164.314 100.306 164.542 100.377 164.842 100.377C165.142 100.377 165.537 100.299 166.026 100.143V101.659C165.537 101.887 164.92 102 164.173 102C163.43 102 162.877 101.797 162.512 101.393C162.152 100.983 161.972 100.362 161.972 99.5294V95.9303H161.032V95.0686L162.114 94.3877L162.68 92.8113H163.935V94.4009Z" fill="#505050"/>
<path d="M172.995 100.511C173.707 100.511 174.063 100.297 174.063 99.8699C174.063 99.652 173.969 99.4778 173.78 99.3487C173.595 99.2202 173.17 99.0016 172.506 98.6943C171.952 98.4545 171.544 98.2313 171.283 98.0266C171.025 97.822 170.836 97.5882 170.716 97.3259C170.6 97.0583 170.543 96.7311 170.543 96.3443C170.543 95.6806 170.789 95.1687 171.283 94.8083C171.781 94.4434 172.475 94.2606 173.368 94.2606C174.26 94.2606 175.112 94.4566 175.923 94.8481L175.331 96.3172C174.914 96.135 174.557 95.9992 174.256 95.9098C173.96 95.8164 173.661 95.7701 173.361 95.7701C172.782 95.7701 172.492 95.9323 172.492 96.2575C172.492 96.4397 172.587 96.6 172.776 96.7377C172.965 96.8715 173.355 97.061 173.947 97.3054C174.543 97.5504 174.972 97.7776 175.234 97.9869C175.745 98.3876 176 98.9572 176 99.6964C176 100.435 175.743 101.005 175.228 101.406C174.713 101.802 173.969 102 172.995 102C172.02 102 171.205 101.856 170.549 101.566V99.8832C170.918 100.061 171.33 100.21 171.785 100.331C172.244 100.451 172.647 100.511 172.995 100.511Z" fill="#505050"/>
<path d="M140.876 41.7657L124.232 73.9791H109.192L133.356 27.223L140.876 41.7657Z" fill="#505050"/>
<path d="M175.343 73.9797H160.326L142.267 39.0434L134.771 24.5006L132.931 20.9664L122.11 0L141.702 11.0563L143.305 11.9637L147.43 14.28L159.265 20.9664H147.973L149.788 24.5006L175.343 73.9797Z" fill="#505050"/>
<path d="M47.5759 22.4138V73.1665H33.4317V53.3731H14.1442V73.1665H0V22.4138H14.1442V41.4824H33.4317V22.4138H47.5759Z" fill="#505050"/>
<path d="M82.7694 74.1819C77.4835 74.1819 72.721 73.046 68.4825 70.7742C64.2917 68.5023 60.9818 65.3605 58.553 61.3486C56.1719 57.3367 54.9813 52.8173 54.9813 47.7903C54.9813 42.7633 56.1719 38.2439 58.553 34.232C60.9818 30.2201 64.2917 27.0782 68.4825 24.8065C72.721 22.5346 77.4835 21.3987 82.7694 21.3987C88.0559 21.3987 92.7942 22.5346 96.9853 24.8065C101.224 27.0782 104.534 30.2201 106.915 34.232C109.343 38.2439 110.558 42.7633 110.558 47.7903C110.558 52.8173 109.343 57.3367 106.915 61.3486C104.534 65.3605 101.224 68.5023 96.9853 70.7742C92.7942 73.046 88.0559 74.1819 82.7694 74.1819ZM82.7694 62.2911C85.2938 62.2911 87.5798 61.687 89.6275 60.4786C91.6751 59.2702 93.2946 57.5784 94.4852 55.4032C95.6758 53.1798 96.2708 50.6422 96.2708 47.7903C96.2708 44.9384 95.6758 42.425 94.4852 40.2498C93.2946 38.0264 91.6751 36.3104 89.6275 35.102C87.5798 33.8936 85.2938 33.2895 82.7694 33.2895C80.2456 33.2895 77.9596 33.8936 75.9119 35.102C73.8643 36.3104 72.2448 38.0264 71.0542 40.2498C69.8636 42.425 69.2686 44.9384 69.2686 47.7903C69.2686 50.6422 69.8636 53.1798 71.0542 55.4032C72.2448 57.5784 73.8643 59.2702 75.9119 60.4786C77.9596 61.687 80.2456 62.2911 82.7694 62.2911Z" fill="#505050"/>
<path fill-rule="evenodd" clip-rule="evenodd" d="M109.694 73.1419L109.331 73.84H109.617L109.694 73.1419ZM47.637 22.4276V73.0293H33.4747V53.2948H14.1623V73.0293H0V22.4276H14.1623V41.4395H33.4747V22.4276H47.637ZM68.5704 70.6442C72.814 72.9088 77.5825 74.0414 82.8756 74.0414C88.1687 74.0414 92.9135 72.9088 97.1099 70.6442C101.354 68.379 104.667 65.2465 107.052 61.2465C109.484 57.2465 110.7 52.7406 110.7 47.7286C110.7 42.7166 109.484 38.2106 107.052 34.2106C104.667 30.2107 101.354 27.0782 97.1099 24.8131C92.9135 22.548 88.1687 21.4156 82.8756 21.4156C77.5825 21.4156 72.814 22.548 68.5704 24.8131C64.3741 27.0782 61.06 30.2107 58.6281 34.2106C56.2438 38.2106 55.0518 42.7166 55.0518 47.7286C55.0518 52.7406 56.2438 57.2465 58.6281 61.2465C61.06 65.2465 64.3741 68.379 68.5704 70.6442ZM89.7422 60.3791C87.6919 61.5839 85.4033 62.1862 82.8756 62.1862C80.3485 62.1862 78.0599 61.5839 76.009 60.3791C73.9587 59.1743 72.3373 57.4875 71.1453 55.3189C69.9534 53.102 69.3571 50.5719 69.3571 47.7286C69.3571 44.8852 69.9534 42.3792 71.1453 40.2106C72.3373 37.9937 73.9587 36.2829 76.009 35.0781C78.0599 33.8733 80.3485 33.2709 82.8756 33.2709C85.4033 33.2709 87.6919 33.8733 89.7422 35.0781C91.7925 36.2829 93.4139 37.9937 94.6065 40.2106C95.7984 42.3792 96.3941 44.8852 96.3941 47.7286C96.3941 50.5719 95.7984 53.102 94.6065 55.3189C93.4139 57.4875 91.7925 59.1743 89.7422 60.3791Z" fill="#505050"/>
</svg>
