<svg width="120" height="108" viewBox="0 0 120 108" fill="none" xmlns="http://www.w3.org/2000/svg">
<path d="M81.4356 75.7597V67.6996C83.3246 66.8009 88.7271 60.6269 89.2938 55.803C90.7799 55.6942 93.1138 54.3844 93.8022 49.2139C94.1716 46.4372 92.7024 44.8776 91.8125 44.3859C91.8125 44.3859 94.0289 40.3438 94.0289 35.4634C94.0289 25.6785 90.0285 17.3283 81.4356 17.3283C81.4356 17.3283 78.451 11.2832 68.8424 11.2832C51.0355 11.2832 43.6558 22.2489 43.6558 35.4634C43.6558 39.9126 45.8722 44.3859 45.8722 44.3859C44.9823 44.8776 43.5131 46.4412 43.8825 49.2139C44.5709 54.3844 46.9049 55.6942 48.3909 55.803C48.9576 60.6269 54.3601 66.8009 56.2491 67.6996V75.7597C52.0513 87.8498 18.4692 79.7897 18.4692 108H119.215C119.215 79.7897 85.6334 87.8498 81.4356 75.7597Z" fill="#239C9C"/>
<path d="M15.3918 0C6.90478 0 0 5.71078 0 12.7306C0 15.1104 0.7871 17.4078 2.28472 19.4147L1.38887 26.2334L7.57867 23.7031C9.5672 24.6724 11.7926 25.2292 14.1172 25.388C15.256 29.7976 19.9857 32.9497 25.3965 32.9497C27.6321 32.9497 29.6635 32.3336 31.445 31.4052L35.9213 33.8507L35.2389 28.2079C36.2537 26.7852 36.9404 25.14 36.9404 23.3374C36.9404 19.4973 34.2931 16.3071 30.5582 14.7519C30.6927 14.076 30.7837 13.4004 30.7837 12.7306C30.7837 5.71078 23.8789 0 15.3918 0ZM10.1009 7.74598C11.2984 7.74598 12.2654 8.68699 12.2654 9.84922C12.2654 11.0114 11.2968 11.9583 10.1009 11.9583C8.90494 11.9583 7.93641 11.0144 7.93641 9.84922C7.93641 8.68699 8.90494 7.74598 10.1009 7.74598ZM21.9093 7.74598C23.1053 7.74598 24.0738 8.68699 24.0738 9.84922C24.0738 11.0144 23.1053 11.9583 21.9093 11.9583C20.7103 11.9583 19.7448 11.0144 19.7448 9.84922C19.7448 8.68549 20.7134 7.74598 21.9093 7.74598ZM25.3965 16.7235C30.2291 16.7235 33.862 19.8274 33.862 23.3374C33.862 24.6678 33.3659 25.8999 32.4641 26.9676L32.0493 27.459L32.1244 28.0909L32.1575 28.36L31.4751 27.9885L30.6935 28.4799C29.2558 29.3884 27.4181 29.9543 25.3965 29.9543C20.564 29.9543 16.931 26.8475 16.931 23.3374C16.931 19.8292 20.5643 16.7235 25.3965 16.7235ZM21.5275 20.1138C20.6194 20.1138 19.8891 20.8274 19.8891 21.7081C19.8891 22.5887 20.6209 23.3052 21.5275 23.3052C22.431 23.3052 23.1674 22.5887 23.1689 21.7081C23.1689 20.8274 22.4326 20.1138 21.5275 20.1138ZM29.2956 20.1138C28.3921 20.1138 27.6572 20.8274 27.6572 21.7081C27.6572 22.5887 28.3905 23.3052 29.2956 23.3052C30.2022 23.3052 30.94 22.5887 30.94 21.7081C30.94 20.8274 30.2022 20.1138 29.2956 20.1138Z" fill="#239C9C"/>
</svg>
