<svg width="102" height="35" viewBox="0 0 102 35" fill="none" xmlns="http://www.w3.org/2000/svg">
<g clip-path="url(#clip0)">
<path d="M11.2118 13.2484L0 34.7028H7.55083L14.644 19.6267L11.2118 13.2484Z" fill="#01655E"/>
<path fill-rule="evenodd" clip-rule="evenodd" d="M5.29907 0L22.8814 10.5424H17.8082L30.4324 34.7028H22.6527L15.3307 19.0468L10.9261 10.5424H10.9039L5.29907 0Z" fill="black"/>
<path d="M39.6843 11.7923V19.6218H38.6107V16.1321H34.295V19.6218H33.2214V11.7923H34.295V15.159H38.6107V11.7923H39.6843Z" fill="black"/>
<path d="M46.7218 19.7112C45.9631 19.7112 45.2796 19.5397 44.6713 19.1967C44.0629 18.8463 43.5834 18.3653 43.2327 17.7539C42.8891 17.1424 42.7174 16.4602 42.7174 15.707C42.7174 14.9539 42.8891 14.2716 43.2327 13.6602C43.5834 13.0487 44.0629 12.5715 44.6713 12.2285C45.2796 11.8781 45.9631 11.7028 46.7218 11.7028C47.4733 11.7028 48.1532 11.8781 48.7615 12.2285C49.3699 12.5715 49.8458 13.0487 50.1894 13.6602C50.5329 14.2642 50.7047 14.9465 50.7047 15.707C50.7047 16.4676 50.5329 17.1536 50.1894 17.7651C49.8458 18.3691 49.3699 18.8463 48.7615 19.1967C48.1532 19.5397 47.4733 19.7112 46.7218 19.7112ZM46.7218 18.7158C47.2729 18.7158 47.7667 18.5853 48.2033 18.3243C48.647 18.0633 48.9942 17.7054 49.2447 17.2506C49.5023 16.7882 49.6311 16.2737 49.6311 15.707C49.6311 15.1403 49.5023 14.6295 49.2447 14.1747C48.9942 13.7124 48.647 13.3507 48.2033 13.0898C47.7667 12.8288 47.2729 12.6983 46.7218 12.6983C46.1707 12.6983 45.6697 12.8288 45.2188 13.0898C44.775 13.3507 44.4243 13.7124 44.1667 14.1747C43.9162 14.6295 43.7909 15.1403 43.7909 15.707C43.7909 16.2737 43.9162 16.7882 44.1667 17.2506C44.4243 17.7054 44.775 18.0633 45.2188 18.3243C45.6697 18.5853 46.1707 18.7158 46.7218 18.7158Z" fill="black"/>
<path d="M56.8546 19.7112C55.8526 19.7112 55.0724 19.413 54.5142 18.8165C53.9559 18.2199 53.6768 17.3624 53.6768 16.2439V11.7923H54.7504V16.1992C54.7504 17.8769 55.4553 18.7158 56.8653 18.7158C57.5524 18.7158 58.0784 18.5107 58.4434 18.1006C58.8084 17.683 58.9909 17.0492 58.9909 16.1992V11.7923H60.0323V16.2439C60.0323 17.3699 59.7532 18.2311 59.1949 18.8276C58.6367 19.4167 57.8565 19.7112 56.8546 19.7112Z" fill="black"/>
<path d="M65.819 19.7112C65.2536 19.7112 64.7061 19.6218 64.1764 19.4428C63.654 19.2564 63.2424 19.0178 62.9418 18.727L63.3391 17.8545C63.6253 18.123 63.9904 18.343 64.4341 18.5145C64.885 18.6785 65.3466 18.7605 65.819 18.7605C66.4417 18.7605 66.9069 18.6524 67.2146 18.4362C67.5224 18.2125 67.6763 17.9179 67.6763 17.5526C67.6763 17.2841 67.5904 17.0679 67.4186 16.9038C67.254 16.7323 67.0464 16.6018 66.7959 16.5124C66.5526 16.4229 66.2055 16.3222 65.7546 16.2104C65.1892 16.0687 64.7311 15.927 64.3804 15.7853C64.0369 15.6437 63.7399 15.4274 63.4894 15.1366C63.246 14.8383 63.1243 14.4394 63.1243 13.9398C63.1243 13.5222 63.2281 13.1457 63.4357 12.8101C63.6504 12.4746 63.9725 12.2061 64.4019 12.0048C64.8313 11.8035 65.3645 11.7028 66.0015 11.7028C66.4452 11.7028 66.8818 11.7625 67.3112 11.8818C67.7407 12.0011 68.1093 12.1726 68.417 12.3963L68.0627 13.2911C67.7478 13.0823 67.4114 12.9257 67.0536 12.8213C66.6957 12.7095 66.345 12.6535 66.0015 12.6535C65.3931 12.6535 64.9351 12.7691 64.6273 13.0003C64.3267 13.2314 64.1764 13.5297 64.1764 13.8951C64.1764 14.1635 64.2623 14.3835 64.4341 14.555C64.6059 14.719 64.817 14.8495 65.0675 14.9465C65.3251 15.0359 65.6723 15.1329 66.1089 15.2373C66.6743 15.3789 67.1287 15.5206 67.4723 15.6623C67.8158 15.804 68.1093 16.0202 68.3526 16.311C68.6031 16.6018 68.7284 16.9933 68.7284 17.4854C68.7284 17.8956 68.621 18.2721 68.4063 18.6151C68.1916 18.9507 67.8659 19.2191 67.4293 19.4204C66.9928 19.6143 66.456 19.7112 65.819 19.7112Z" fill="black"/>
<path d="M77.1461 18.6487V19.6218H71.6924V11.7923H76.9958V12.7654H72.766V15.1702H76.5342V16.1209H72.766V18.6487H77.1461Z" fill="black"/>
<path d="M87.9513 19.7112C87.1926 19.7112 86.5091 19.5397 85.9008 19.1967C85.2924 18.8463 84.8129 18.3653 84.4622 17.7539C84.1187 17.1424 83.9469 16.4602 83.9469 15.707C83.9469 14.9539 84.1187 14.2716 84.4622 13.6602C84.8129 13.0487 85.2924 12.5715 85.9008 12.2285C86.5091 11.8781 87.1926 11.7028 87.9513 11.7028C88.7028 11.7028 89.3827 11.8781 89.9911 12.2285C90.5994 12.5715 91.0754 13.0487 91.4189 13.6602C91.7624 14.2642 91.9342 14.9465 91.9342 15.707C91.9342 16.4676 91.7624 17.1536 91.4189 17.7651C91.0754 18.3691 90.5994 18.8463 89.9911 19.1967C89.3827 19.5397 88.7028 19.7112 87.9513 19.7112ZM87.9513 18.7158C88.5024 18.7158 88.9962 18.5853 89.4328 18.3243C89.8766 18.0633 90.2237 17.7054 90.4742 17.2506C90.7318 16.7882 90.8607 16.2737 90.8607 15.707C90.8607 15.1403 90.7318 14.6295 90.4742 14.1747C90.2237 13.7124 89.8766 13.3507 89.4328 13.0898C88.9962 12.8288 88.5024 12.6983 87.9513 12.6983C87.4002 12.6983 86.8992 12.8288 86.4483 13.0898C86.0046 13.3507 85.6539 13.7124 85.3962 14.1747C85.1457 14.6295 85.0205 15.1403 85.0205 15.707C85.0205 16.2737 85.1457 16.7882 85.3962 17.2506C85.6539 17.7054 86.0046 18.0633 86.4483 18.3243C86.8992 18.5853 87.4002 18.7158 87.9513 18.7158Z" fill="black"/>
<path d="M96.0443 12.7654V15.4945H99.8125V16.4564H96.0443V19.6218H94.9707V11.7923H100.274V12.7654H96.0443Z" fill="black"/>
<path d="M37.6338 34.7028C36.6354 34.7028 35.739 34.5015 34.9445 34.0988C34.1608 33.6962 33.5435 33.1313 33.0926 32.4043C32.6525 31.6773 32.4324 30.8552 32.4324 29.938C32.4324 29.0209 32.6525 28.2044 33.0926 27.4885C33.5435 26.7615 34.1608 26.1967 34.9445 25.794C35.739 25.3913 36.6354 25.19 37.6338 25.19C38.7074 25.19 39.6253 25.4305 40.3875 25.9114C41.1497 26.3924 41.6758 27.0579 41.9656 27.908L39.1475 29.3508C38.804 28.5455 38.294 28.1428 37.6177 28.1428C37.1883 28.1428 36.8286 28.2994 36.5388 28.6126C36.2596 28.9258 36.1201 29.3676 36.1201 29.938C36.1201 30.5196 36.2596 30.967 36.5388 31.2802C36.8286 31.5934 37.1883 31.75 37.6177 31.75C38.294 31.75 38.804 31.3473 39.1475 30.542L41.9656 31.9849C41.6758 32.8349 41.1497 33.5004 40.3875 33.9814C39.6253 34.4623 38.7074 34.7028 37.6338 34.7028Z" fill="black"/>
<path d="M47.4626 34.7028C46.4642 34.7028 45.5677 34.5015 44.7733 34.0988C43.9896 33.6962 43.3723 33.1313 42.9214 32.4043C42.4812 31.6773 42.2612 30.8552 42.2612 29.938C42.2612 29.0209 42.4812 28.2044 42.9214 27.4885C43.3723 26.7615 43.9896 26.1967 44.7733 25.794C45.5677 25.3913 46.4642 25.19 47.4626 25.19C48.5361 25.19 49.454 25.4305 50.2163 25.9114C50.9785 26.3924 51.5046 27.0579 51.7944 27.908L48.9763 29.3508C48.6328 28.5455 48.1228 28.1428 47.4465 28.1428C47.017 28.1428 46.6574 28.2994 46.3675 28.6126C46.0884 28.9258 45.9489 29.3676 45.9489 29.938C45.9489 30.5196 46.0884 30.967 46.3675 31.2802C46.6574 31.5934 47.017 31.75 47.4465 31.75C48.1228 31.75 48.6328 31.3473 48.9763 30.542L51.7944 31.9849C51.5046 32.8349 50.9785 33.5004 50.2163 33.9814C49.454 34.4623 48.5361 34.7028 47.4626 34.7028Z" fill="black"/>
<path d="M57.2108 34.7028C56.2339 34.7028 55.3536 34.5015 54.5699 34.0988C53.7969 33.685 53.1903 33.1201 52.7502 32.4043C52.31 31.6773 52.0899 30.8552 52.0899 29.938C52.0899 29.0209 52.31 28.2044 52.7502 27.4885C53.1903 26.7615 53.7969 26.1967 54.5699 25.794C55.3536 25.3913 56.2339 25.19 57.2108 25.19C58.1985 25.19 59.0788 25.3913 59.8518 25.794C60.6355 26.1967 61.2421 26.7615 61.6715 27.4885C62.1117 28.2044 62.3317 29.0209 62.3317 29.938C62.3317 30.8552 62.1117 31.6773 61.6715 32.4043C61.2421 33.1201 60.6355 33.685 59.8518 34.0988C59.0788 34.5015 58.1985 34.7028 57.2108 34.7028ZM57.2108 31.75C57.6295 31.75 57.9731 31.5934 58.2415 31.2802C58.5099 30.9559 58.6441 30.5085 58.6441 29.938C58.6441 29.3676 58.5099 28.9258 58.2415 28.6126C57.9731 28.2994 57.6295 28.1428 57.2108 28.1428C56.7922 28.1428 56.4486 28.2994 56.1802 28.6126C55.9118 28.9258 55.7776 29.3676 55.7776 29.938C55.7776 30.5085 55.9118 30.9559 56.1802 31.2802C56.4486 31.5934 56.7922 31.75 57.2108 31.75Z" fill="black"/>
<path d="M73.1007 25.3578V34.535H69.6385V33.6626C69.3164 34.0094 68.9406 34.2722 68.5112 34.4512C68.0818 34.6189 67.6255 34.7028 67.1424 34.7028C66.0259 34.7028 65.1295 34.3505 64.4531 33.6458C63.7768 32.93 63.4386 31.8562 63.4386 30.4246V25.3578H67.078V29.7703C67.078 30.3966 67.1746 30.844 67.3679 31.1124C67.5611 31.3809 67.8456 31.5151 68.2213 31.5151C68.5756 31.5151 68.8708 31.3697 69.107 31.0789C69.3432 30.7769 69.4613 30.3071 69.4613 29.6696V25.3578H73.1007Z" fill="black"/>
<path d="M80.8343 25.19C81.9186 25.19 82.7882 25.5312 83.443 26.2134C84.1086 26.8957 84.4414 27.9247 84.4414 29.3005V34.535H80.8021V29.9548C80.8021 28.9034 80.4424 28.3777 79.7231 28.3777C79.3152 28.3777 78.9824 28.5287 78.7247 28.8307C78.4778 29.1215 78.3543 29.5857 78.3543 30.2232V34.535H74.7149V25.3578H78.1772V26.2638C78.5207 25.9059 78.9179 25.6374 79.3688 25.4585C79.8197 25.2795 80.3082 25.19 80.8343 25.19Z" fill="black"/>
<path d="M92.5117 34.2163C91.9642 34.5406 91.218 34.7028 90.2733 34.7028C89.0387 34.7028 88.0886 34.3952 87.423 33.7801C86.7574 33.1537 86.4246 32.2198 86.4246 30.9782V28.6294H85.2168V25.8611H86.4246V23.2942H90.0639V25.8611H91.8675V28.6294H90.0639V30.9447C90.0639 31.2243 90.1337 31.4424 90.2733 31.599C90.4129 31.7556 90.5954 31.8339 90.8208 31.8339C91.1321 31.8339 91.4059 31.75 91.6421 31.5822L92.5117 34.2163Z" fill="black"/>
<path d="M96.8751 34.7028C96.1236 34.7028 95.3828 34.6189 94.6528 34.4512C93.9228 34.2834 93.3323 34.0653 92.8814 33.7968L93.8798 31.297C94.2878 31.5543 94.7709 31.7556 95.3292 31.901C95.8874 32.0464 96.4296 32.1191 96.9556 32.1191C97.3743 32.1191 97.6642 32.0855 97.8252 32.0184C97.997 31.9401 98.0828 31.8283 98.0828 31.6829C98.0828 31.5375 97.9755 31.4368 97.7608 31.3809C97.5568 31.325 97.2186 31.269 96.7463 31.2131C96.027 31.1236 95.415 31.0118 94.9105 30.8776C94.4059 30.7322 93.9604 30.4581 93.5739 30.0555C93.1981 29.6528 93.0103 29.0768 93.0103 28.3274C93.0103 27.7346 93.182 27.2033 93.5256 26.7335C93.8691 26.2638 94.379 25.8891 95.0554 25.6094C95.7425 25.3298 96.5638 25.19 97.5192 25.19C98.1848 25.19 98.8344 25.2571 99.4678 25.3913C100.112 25.5144 100.659 25.6989 101.11 25.945L100.112 28.4448C99.3389 27.9974 98.4908 27.7737 97.5675 27.7737C96.7731 27.7737 96.3759 27.9191 96.3759 28.21C96.3759 28.3554 96.4832 28.4616 96.698 28.5287C96.9127 28.5846 97.2508 28.6406 97.7125 28.6965C98.4318 28.786 99.0383 28.9034 99.5322 29.0488C100.037 29.1942 100.477 29.4683 100.853 29.8709C101.239 30.2736 101.432 30.8496 101.432 31.599C101.432 32.1694 101.261 32.6895 100.917 33.1593C100.574 33.6291 100.058 34.0038 99.3711 34.2834C98.684 34.563 97.852 34.7028 96.8751 34.7028Z" fill="black"/>
</g>
<defs>
<clipPath id="clip0">
<rect width="101.43" height="34.7" fill="white"/>
</clipPath>
</defs>
</svg>
