<svg width="131" height="24" viewBox="0 0 131 24" fill="none" xmlns="http://www.w3.org/2000/svg">
<path d="M33.3423 5.78182H35.5795L39.4693 15.2795H39.6125L43.5023 5.78182H45.7395V18H43.9855V9.15852H43.8722L40.2687 17.9821H38.8131L35.2097 9.15256H35.0963V18H33.3423V5.78182ZM50.2631 5.78182V18H48.4197V5.78182H50.2631ZM59.6117 8.99148C59.5481 8.4267 59.2856 7.9892 58.8242 7.67898C58.3629 7.36477 57.7822 7.20767 57.0822 7.20767C56.581 7.20767 56.1475 7.28722 55.7816 7.44631C55.4157 7.60142 55.1313 7.81619 54.9285 8.09063C54.7296 8.36108 54.6302 8.66932 54.6302 9.01534C54.6302 9.30568 54.6978 9.55625 54.833 9.76705C54.9722 9.97784 55.1532 10.1548 55.3759 10.298C55.6026 10.4372 55.8452 10.5545 56.1038 10.65C56.3623 10.7415 56.6109 10.817 56.8495 10.8767L58.0427 11.1869C58.4325 11.2824 58.8322 11.4116 59.2418 11.5747C59.6515 11.7378 60.0313 11.9526 60.3813 12.219C60.7313 12.4855 61.0137 12.8156 61.2285 13.2094C61.4472 13.6031 61.5566 14.0744 61.5566 14.6233C61.5566 15.3153 61.3776 15.9298 61.0197 16.4668C60.6657 17.0037 60.1506 17.4273 59.4745 17.7375C58.8023 18.0477 57.989 18.2028 57.0344 18.2028C56.1197 18.2028 55.3282 18.0577 54.66 17.7673C53.9918 17.477 53.4688 17.0653 53.091 16.5324C52.7131 15.9955 52.5043 15.3591 52.4646 14.6233H54.314C54.3498 15.0648 54.493 15.4327 54.7435 15.727C54.9981 16.0173 55.3222 16.2341 55.716 16.3773C56.1137 16.5165 56.5492 16.5861 57.0225 16.5861C57.5435 16.5861 58.0069 16.5045 58.4126 16.3415C58.8222 16.1744 59.1444 15.9438 59.379 15.6494C59.6137 15.3511 59.731 15.0031 59.731 14.6054C59.731 14.2435 59.6276 13.9472 59.4208 13.7165C59.218 13.4858 58.9415 13.2949 58.5915 13.1438C58.2455 12.9926 57.8538 12.8594 57.4163 12.744L55.9725 12.3503C54.9941 12.0838 54.2185 11.692 53.6458 11.175C53.0771 10.658 52.7927 9.97386 52.7927 9.12273C52.7927 8.41875 52.9836 7.80426 53.3654 7.27926C53.7472 6.75426 54.2643 6.34659 54.9165 6.05625C55.5688 5.76193 56.3046 5.61477 57.1239 5.61477C57.9512 5.61477 58.681 5.75994 59.3134 6.05028C59.9498 6.34063 60.4509 6.74034 60.8168 7.24943C61.1827 7.75455 61.3737 8.33523 61.3896 8.99148H59.6117ZM68.2056 18V5.78182H72.5607C73.5073 5.78182 74.2928 5.94489 74.9173 6.27102C75.5457 6.59716 76.015 7.04858 76.3252 7.62528C76.6354 8.19801 76.7906 8.86023 76.7906 9.61193C76.7906 10.3597 76.6335 11.0179 76.3192 11.5866C76.009 12.1514 75.5397 12.5909 74.9113 12.9051C74.2869 13.2193 73.5013 13.3764 72.5548 13.3764H69.2556V11.7895H72.3877C72.9843 11.7895 73.4695 11.704 73.8434 11.533C74.2212 11.3619 74.4977 11.1134 74.6727 10.7872C74.8477 10.4611 74.9352 10.0693 74.9352 9.61193C74.9352 9.15057 74.8457 8.75085 74.6667 8.41278C74.4917 8.07472 74.2153 7.81619 73.8374 7.63722C73.4636 7.45426 72.9724 7.36278 72.3638 7.36278H70.0491V18H68.2056ZM74.2371 12.4875L77.2559 18H75.1559L72.1968 12.4875H74.2371ZM82.7251 18.1849C81.8223 18.1849 81.0447 17.992 80.3925 17.6063C79.7442 17.2165 79.243 16.6696 78.8891 15.9656C78.5391 15.2577 78.3641 14.4284 78.3641 13.4778C78.3641 12.5392 78.5391 11.7119 78.8891 10.996C79.243 10.2801 79.7362 9.72131 80.3686 9.3196C81.005 8.9179 81.7487 8.71705 82.5999 8.71705C83.1169 8.71705 83.618 8.80256 84.1033 8.97358C84.5885 9.1446 85.024 9.41307 85.4098 9.77898C85.7956 10.1449 86.0999 10.6202 86.3226 11.2048C86.5453 11.7855 86.6567 12.4915 86.6567 13.3227V13.9551H79.3723V12.6188H84.9087C84.9087 12.1494 84.8132 11.7338 84.6223 11.3719C84.4314 11.006 84.1629 10.7176 83.8169 10.5068C83.4749 10.296 83.0732 10.1906 82.6118 10.1906C82.1107 10.1906 81.6732 10.3139 81.2993 10.5605C80.9294 10.8031 80.643 11.1213 80.4402 11.5151C80.2413 11.9048 80.1419 12.3284 80.1419 12.7858V13.8298C80.1419 14.4423 80.2493 14.9634 80.4641 15.3929C80.6828 15.8224 80.9871 16.1506 81.3768 16.3773C81.7666 16.6 82.222 16.7114 82.743 16.7114C83.0811 16.7114 83.3893 16.6636 83.6678 16.5682C83.9462 16.4688 84.1868 16.3216 84.3896 16.1267C84.5925 15.9318 84.7476 15.6912 84.855 15.4048L86.5433 15.7091C86.4081 16.2062 86.1655 16.6418 85.8155 17.0156C85.4695 17.3855 85.0339 17.6739 84.5089 17.8807C83.9879 18.0835 83.3933 18.1849 82.7251 18.1849ZM88.6359 21.4364V8.83636H90.3779V10.3219H90.5271C90.6305 10.131 90.7796 9.91023 90.9745 9.65966C91.1694 9.40909 91.4398 9.19034 91.7859 9.00341C92.1319 8.8125 92.5893 8.71705 93.158 8.71705C93.8978 8.71705 94.558 8.90398 95.1387 9.27784C95.7194 9.6517 96.1748 10.1906 96.5049 10.8946C96.839 11.5986 97.006 12.4457 97.006 13.4361C97.006 14.4264 96.841 15.2756 96.5109 15.9835C96.1807 16.6875 95.7273 17.2304 95.1506 17.6122C94.5739 17.9901 93.9157 18.179 93.1759 18.179C92.6191 18.179 92.1637 18.0855 91.8097 17.8986C91.4597 17.7116 91.1853 17.4929 90.9864 17.2423C90.7876 16.9918 90.6344 16.769 90.5271 16.5741H90.4197V21.4364H88.6359ZM90.3839 13.4182C90.3839 14.0625 90.4773 14.6273 90.6643 15.1125C90.8512 15.5977 91.1217 15.9776 91.4756 16.252C91.8296 16.5224 92.2631 16.6577 92.7762 16.6577C93.3092 16.6577 93.7546 16.5165 94.1126 16.2341C94.4705 15.9477 94.741 15.5599 94.9239 15.0707C95.1109 14.5815 95.2043 14.0307 95.2043 13.4182C95.2043 12.8136 95.1129 12.2707 94.9299 11.7895C94.7509 11.3082 94.4805 10.9284 94.1185 10.65C93.7606 10.3716 93.3131 10.2324 92.7762 10.2324C92.2592 10.2324 91.8217 10.3656 91.4637 10.6321C91.1097 10.8986 90.8413 11.2705 90.6583 11.7477C90.4754 12.225 90.3839 12.7818 90.3839 13.4182ZM102.865 18.1849C102.005 18.1849 101.256 17.9881 100.615 17.5943C99.9751 17.2006 99.4779 16.6497 99.1239 15.9418C98.77 15.2338 98.593 14.4065 98.593 13.4599C98.593 12.5094 98.77 11.6781 99.1239 10.9662C99.4779 10.2543 99.9751 9.70142 100.615 9.30767C101.256 8.91392 102.005 8.71705 102.865 8.71705C103.724 8.71705 104.473 8.91392 105.114 9.30767C105.754 9.70142 106.251 10.2543 106.605 10.9662C106.959 11.6781 107.136 12.5094 107.136 13.4599C107.136 14.4065 106.959 15.2338 106.605 15.9418C106.251 16.6497 105.754 17.2006 105.114 17.5943C104.473 17.9881 103.724 18.1849 102.865 18.1849ZM102.871 16.6875C103.427 16.6875 103.889 16.5403 104.255 16.246C104.621 15.9517 104.891 15.5599 105.066 15.0707C105.245 14.5815 105.334 14.0426 105.334 13.454C105.334 12.8693 105.245 12.3324 105.066 11.8432C104.891 11.35 104.621 10.9543 104.255 10.656C103.889 10.3577 103.427 10.2085 102.871 10.2085C102.31 10.2085 101.844 10.3577 101.474 10.656C101.109 10.9543 100.836 11.35 100.657 11.8432C100.482 12.3324 100.395 12.8693 100.395 13.454C100.395 14.0426 100.482 14.5815 100.657 15.0707C100.836 15.5599 101.109 15.9517 101.474 16.246C101.844 16.5403 102.31 16.6875 102.871 16.6875ZM109.127 18V8.83636H110.851V10.292H110.947C111.114 9.79886 111.408 9.41108 111.83 9.12869C112.255 8.84233 112.737 8.69915 113.274 8.69915C113.385 8.69915 113.516 8.70313 113.667 8.71108C113.822 8.71903 113.944 8.72898 114.031 8.74091V10.4472C113.96 10.4273 113.832 10.4054 113.649 10.3815C113.466 10.3537 113.284 10.3398 113.101 10.3398C112.679 10.3398 112.303 10.4293 111.973 10.6082C111.647 10.7832 111.388 11.0278 111.197 11.342C111.007 11.6523 110.911 12.0063 110.911 12.404V18H109.127ZM120.394 8.83636V10.2682H115.388V8.83636H120.394ZM116.731 6.64091H118.515V15.3094C118.515 15.6554 118.566 15.9159 118.67 16.0909C118.773 16.2619 118.906 16.3793 119.069 16.4429C119.237 16.5026 119.417 16.5324 119.612 16.5324C119.756 16.5324 119.881 16.5224 119.988 16.5026C120.096 16.4827 120.179 16.4668 120.239 16.4548L120.561 17.9284C120.458 17.9682 120.31 18.008 120.119 18.0477C119.929 18.0915 119.69 18.1153 119.404 18.1193C118.934 18.1273 118.497 18.0437 118.091 17.8688C117.685 17.6938 117.357 17.4233 117.107 17.0574C116.856 16.6915 116.731 16.2321 116.731 15.6793V6.64091ZM129.086 11.0736L127.469 11.3599C127.402 11.1531 127.294 10.9562 127.147 10.7693C127.004 10.5824 126.809 10.4293 126.563 10.3099C126.316 10.1906 126.008 10.131 125.638 10.131C125.133 10.131 124.711 10.2443 124.373 10.471C124.035 10.6937 123.866 10.9821 123.866 11.3361C123.866 11.6423 123.979 11.8889 124.206 12.0759C124.433 12.2628 124.799 12.4159 125.304 12.5352L126.76 12.8693C127.603 13.0642 128.231 13.3645 128.645 13.7702C129.058 14.1759 129.265 14.7028 129.265 15.3511C129.265 15.9 129.106 16.3892 128.788 16.8188C128.474 17.2443 128.034 17.5784 127.469 17.821C126.909 18.0636 126.258 18.1849 125.519 18.1849C124.492 18.1849 123.655 17.9662 123.007 17.5287C122.359 17.0872 121.961 16.4608 121.814 15.6494L123.538 15.3869C123.645 15.8364 123.866 16.1764 124.2 16.4071C124.534 16.6338 124.97 16.7472 125.507 16.7472C126.091 16.7472 126.559 16.6259 126.909 16.3832C127.259 16.1366 127.434 15.8364 127.434 15.4824C127.434 15.196 127.326 14.9554 127.112 14.7605C126.901 14.5656 126.577 14.4185 126.139 14.319L124.588 13.979C123.733 13.7841 123.1 13.4739 122.691 13.0483C122.285 12.6227 122.082 12.0838 122.082 11.4315C122.082 10.8906 122.233 10.4173 122.536 10.0116C122.838 9.60597 123.256 9.28977 123.788 9.06307C124.321 8.83239 124.932 8.71705 125.62 8.71705C126.61 8.71705 127.39 8.93182 127.959 9.36136C128.527 9.78693 128.903 10.3577 129.086 11.0736Z" fill="#01655E"/>
<path d="M17.6358 3C17.2276 3 16.8967 3.32235 16.8967 3.72V20.2799C16.8967 20.6775 17.2276 20.9999 17.6358 20.9999H20.2609C20.6691 20.9999 21 20.6775 21 20.2799V3.72C21 3.32235 20.6691 3 20.2609 3H17.6358Z" fill="#01655E"/>
<path d="M10.3995 7.1668C10.3995 6.76916 10.7304 6.4468 11.1387 6.4468H13.8603C14.2685 6.4468 14.5994 6.76916 14.5994 7.1668V20.2799C14.5994 20.6775 14.2685 20.9999 13.8603 20.9999H11.1387C10.7304 20.9999 10.3995 20.6775 10.3995 20.2799V7.1668Z" fill="#01655E"/>
<path d="M4 11.5711C4 11.1735 4.33092 10.8511 4.73913 10.8511H7.46074C7.86895 10.8511 8.19987 11.1735 8.19987 11.5711V20.28C8.19987 20.6776 7.86895 21 7.46074 21H4.73913C4.33092 21 4 20.6776 4 20.28V11.5711Z" fill="#01655E"/>
</svg>
