<svg width="278" height="232" viewBox="0 0 278 232" fill="none" xmlns="http://www.w3.org/2000/svg">
<path d="M261.137 109.517C261.137 81.6698 250.291 54.9176 230.9 34.9319C211.509 14.9462 185.096 3.29833 157.262 2.45776L155.386 64.5784C167.07 64.9312 178.156 69.8204 186.296 78.2095C194.435 86.5986 198.988 97.8279 198.988 109.517H261.137Z" fill="#11A5B8" stroke="white"/>
<path d="M157.262 2.45776C134.58 1.77278 112.266 8.30956 93.5389 21.1254C74.8117 33.9413 60.6389 52.3738 53.0643 73.7649C45.4896 95.156 44.9047 118.4 51.3939 140.145C57.8831 161.89 71.1109 181.012 89.1698 194.754L126.804 145.295C119.224 139.527 113.671 131.501 110.948 122.373C108.224 113.246 108.469 103.489 111.649 94.5098C114.828 85.5308 120.777 77.7937 128.638 72.4142C136.499 67.0347 145.865 64.2909 155.386 64.5784L157.262 2.45776Z" fill="#11A5B8" stroke="white"/>
<path d="M89.1698 194.754C105.05 206.837 123.989 214.244 143.854 216.14C163.718 218.036 183.717 214.345 201.595 205.483C219.474 196.621 234.522 182.941 245.042 165.985C255.562 149.029 261.137 129.471 261.137 109.517H198.988C198.988 117.893 196.648 126.102 192.232 133.22C187.816 140.337 181.5 146.079 173.995 149.799C166.491 153.519 158.096 155.068 149.758 154.272C141.42 153.477 133.47 150.367 126.804 145.295L89.1698 194.754Z" fill="#11A5B8" stroke="white"/>
<path d="M230.9 34.9321L249.881 16.5161" stroke="#11A5B8"/>
<path d="M255.166 8.78296H256.349V9.66772H255.166V11.6482H254.076V9.66772H250.191V9.02905L254.011 3.11694H255.166V8.78296ZM251.422 8.78296H254.076V4.59937L253.947 4.83374L251.422 8.78296ZM262.918 11.6482H257.328V10.8689L260.281 7.58765C260.719 7.09155 261.019 6.68921 261.183 6.38062C261.351 6.06812 261.435 5.74585 261.435 5.41382C261.435 4.96851 261.301 4.60327 261.031 4.31812C260.761 4.03296 260.402 3.89038 259.953 3.89038C259.414 3.89038 258.994 4.04468 258.693 4.35327C258.396 4.65796 258.248 5.08374 258.248 5.63062H257.164C257.164 4.84546 257.416 4.21069 257.92 3.72632C258.427 3.24194 259.105 2.99976 259.953 2.99976C260.746 2.99976 261.373 3.20874 261.834 3.62671C262.295 4.04077 262.525 4.59351 262.525 5.28491C262.525 6.12476 261.99 7.12476 260.92 8.28491L258.635 10.7634H262.918V11.6482ZM267.629 11.6482H266.539V4.42358L264.353 5.22632V4.24194L267.459 3.07593H267.629V11.6482Z" fill="#11A5B8"/>
<path d="M53.0642 73.7651L28.1346 64.9375" stroke="#11A5B8"/>
<path d="M12.8827 51.5325V52.4524H12.6835C11.8397 52.468 11.1678 52.718 10.6678 53.2024C10.1678 53.6868 9.87878 54.3684 9.80065 55.2473C10.2499 54.7317 10.8632 54.4739 11.6405 54.4739C12.3827 54.4739 12.9745 54.7356 13.4159 55.259C13.8612 55.7825 14.0839 56.4583 14.0839 57.2864C14.0839 58.1653 13.8436 58.8684 13.3632 59.3958C12.8866 59.9231 12.246 60.1868 11.4413 60.1868C10.6249 60.1868 9.96276 59.8743 9.45495 59.2493C8.94714 58.6204 8.69323 57.8118 8.69323 56.8235V56.4075C8.69323 54.8372 9.02722 53.6379 9.69518 52.8098C10.3671 51.9778 11.3651 51.552 12.6893 51.5325H12.8827ZM11.4589 55.3762C11.0878 55.3762 10.746 55.4875 10.4335 55.7102C10.121 55.9329 9.90417 56.2122 9.78308 56.5481V56.9465C9.78308 57.6497 9.94128 58.2161 10.2577 58.6458C10.5741 59.0754 10.9686 59.2903 11.4413 59.2903C11.9296 59.2903 12.3124 59.1106 12.5897 58.7512C12.871 58.3918 13.0116 57.9211 13.0116 57.3391C13.0116 56.7532 12.869 56.2805 12.5839 55.9211C12.3026 55.5579 11.9276 55.3762 11.4589 55.3762ZM20.5409 53.7649C20.5409 54.1907 20.4276 54.5696 20.201 54.9016C19.9784 55.2336 19.6757 55.4934 19.2928 55.6809C19.7382 55.8723 20.0897 56.1516 20.3475 56.5188C20.6092 56.886 20.7401 57.302 20.7401 57.7668C20.7401 58.5051 20.4901 59.093 19.9901 59.5305C19.494 59.968 18.8397 60.1868 18.0272 60.1868C17.2069 60.1868 16.5487 59.968 16.0526 59.5305C15.5604 59.0891 15.3143 58.5012 15.3143 57.7668C15.3143 57.3059 15.4393 56.8899 15.6893 56.5188C15.9432 56.1477 16.2928 55.8665 16.7382 55.675C16.3592 55.4875 16.0604 55.2278 15.8417 54.8958C15.6229 54.5637 15.5135 54.1868 15.5135 53.7649C15.5135 53.0461 15.744 52.4758 16.205 52.054C16.6659 51.6321 17.2733 51.4211 18.0272 51.4211C18.7772 51.4211 19.3827 51.6321 19.8436 52.054C20.3085 52.4758 20.5409 53.0461 20.5409 53.7649ZM19.6561 57.7434C19.6561 57.2668 19.5038 56.8782 19.1991 56.5774C18.8983 56.2766 18.5038 56.1262 18.0155 56.1262C17.5272 56.1262 17.1346 56.2747 16.8378 56.5715C16.5448 56.8684 16.3983 57.259 16.3983 57.7434C16.3983 58.2278 16.5409 58.6086 16.826 58.886C17.1151 59.1633 17.5155 59.302 18.0272 59.302C18.535 59.302 18.9335 59.1633 19.2225 58.886C19.5116 58.6047 19.6561 58.2239 19.6561 57.7434ZM18.0272 52.3118C17.6014 52.3118 17.2557 52.4446 16.9901 52.7102C16.7284 52.9719 16.5975 53.3293 16.5975 53.7825C16.5975 54.2161 16.7264 54.5676 16.9842 54.8372C17.246 55.1028 17.5936 55.2356 18.0272 55.2356C18.4608 55.2356 18.8065 55.1028 19.0643 54.8372C19.326 54.5676 19.4569 54.2161 19.4569 53.7825C19.4569 53.3489 19.3221 52.9954 19.0526 52.7219C18.7831 52.4485 18.4413 52.3118 18.0272 52.3118ZM26.2596 56.3196C26.0331 56.5891 25.7616 56.8059 25.4452 56.97C25.1327 57.134 24.7889 57.2161 24.4139 57.2161C23.9217 57.2161 23.4921 57.095 23.1249 56.8528C22.7616 56.6106 22.4803 56.2708 22.2811 55.8333C22.0819 55.3918 21.9823 54.9055 21.9823 54.3743C21.9823 53.804 22.0897 53.2903 22.3046 52.8333C22.5233 52.3762 22.8319 52.0266 23.2303 51.7844C23.6288 51.5422 24.0936 51.4211 24.6249 51.4211C25.4686 51.4211 26.1327 51.7375 26.6171 52.3704C27.1053 52.9993 27.3495 53.8586 27.3495 54.9485V55.2649C27.3495 56.925 27.0214 58.1379 26.3651 58.9036C25.7089 59.6653 24.7186 60.0559 23.3944 60.0754H23.1835V59.1614H23.412C24.3065 59.1458 24.994 58.9133 25.4745 58.4641C25.955 58.011 26.2167 57.2961 26.2596 56.3196ZM24.5897 56.3196C24.953 56.3196 25.287 56.2083 25.5917 55.9856C25.9003 55.7629 26.1249 55.4875 26.2655 55.1594V54.7258C26.2655 54.0149 26.1112 53.4368 25.8026 52.9915C25.494 52.5461 25.1034 52.3235 24.6307 52.3235C24.1542 52.3235 23.7714 52.5071 23.4823 52.8743C23.1932 53.2375 23.0487 53.718 23.0487 54.3157C23.0487 54.8977 23.1874 55.3782 23.4647 55.7571C23.746 56.1321 24.121 56.3196 24.5897 56.3196Z" fill="#11A5B8"/>
<path d="M201.595 205.483L213.34 229.178" stroke="#11A5B8"/>
<path d="M218.303 215.773V216.693H218.104C217.26 216.709 216.588 216.959 216.088 217.443C215.588 217.928 215.299 218.609 215.221 219.488C215.67 218.973 216.284 218.715 217.061 218.715C217.803 218.715 218.395 218.977 218.836 219.5C219.282 220.023 219.504 220.699 219.504 221.527C219.504 222.406 219.264 223.109 218.784 223.637C218.307 224.164 217.667 224.428 216.862 224.428C216.045 224.428 215.383 224.115 214.875 223.49C214.368 222.861 214.114 222.053 214.114 221.064V220.648C214.114 219.078 214.448 217.879 215.116 217.051C215.788 216.219 216.786 215.793 218.11 215.773H218.303ZM216.879 219.617C216.508 219.617 216.167 219.729 215.854 219.951C215.542 220.174 215.325 220.453 215.204 220.789V221.188C215.204 221.891 215.362 222.457 215.678 222.887C215.995 223.316 216.389 223.531 216.862 223.531C217.35 223.531 217.733 223.352 218.01 222.992C218.292 222.633 218.432 222.162 218.432 221.58C218.432 220.994 218.29 220.521 218.004 220.162C217.723 219.799 217.348 219.617 216.879 219.617ZM226.137 220.672C226.137 221.941 225.92 222.885 225.487 223.502C225.053 224.119 224.375 224.428 223.454 224.428C222.543 224.428 221.87 224.127 221.432 223.525C220.995 222.92 220.768 222.018 220.752 220.818V219.371C220.752 218.117 220.969 217.186 221.403 216.576C221.836 215.967 222.516 215.662 223.442 215.662C224.36 215.662 225.036 215.957 225.469 216.547C225.903 217.133 226.125 218.039 226.137 219.266V220.672ZM225.053 219.189C225.053 218.271 224.924 217.604 224.667 217.186C224.409 216.764 224 216.553 223.442 216.553C222.887 216.553 222.483 216.762 222.229 217.18C221.975 217.598 221.844 218.24 221.836 219.107V220.842C221.836 221.764 221.969 222.445 222.235 222.887C222.504 223.324 222.911 223.543 223.454 223.543C223.989 223.543 224.385 223.336 224.643 222.922C224.905 222.508 225.042 221.855 225.053 220.965V219.189ZM233.034 216.389L229.5 224.311H228.364L231.885 216.67H227.268V215.779H233.034V216.389Z" fill="#11A5B8"/>
</svg>
