<svg width="785" height="512" viewBox="0 0 785 512" fill="none" xmlns="http://www.w3.org/2000/svg">
<g filter="url(#filter0_d_2717_429)">
<rect x="41.875" y="27.4033" width="702" height="429" rx="8" fill="white"/>
<rect x="42.125" y="27.6533" width="701.5" height="428.5" rx="7.75" stroke="#BDBDBD" stroke-width="0.5"/>
</g>
<path d="M41.875 35.4033C41.875 30.985 45.4567 27.4033 49.875 27.4033H735.875C740.293 27.4033 743.875 30.985 743.875 35.4033V144.403H41.875V35.4033Z" fill="white" stroke="#BDBDBD" stroke-width="0.5"/>
<path d="M167.793 110.517H169.888V103.308H170.065C170.527 104.054 171.415 105.687 174.043 105.687C177.452 105.687 179.831 102.953 179.831 98.6206C179.831 94.3238 177.452 91.5894 174.007 91.5894C171.344 91.5894 170.527 93.2229 170.065 93.9331H169.817V91.767H167.793V110.517ZM169.852 98.5851C169.852 95.5312 171.202 93.4715 173.759 93.4715C176.422 93.4715 177.736 95.7087 177.736 98.5851C177.736 101.497 176.386 103.805 173.759 103.805C171.237 103.805 169.852 101.675 169.852 98.5851ZM186.54 105.723C188.919 105.723 190.162 104.445 190.588 103.557H190.695V105.403H192.79V96.4189C192.79 92.0866 189.487 91.5894 187.747 91.5894C185.688 91.5894 183.344 92.2996 182.278 94.7854L184.267 95.4956C184.729 94.5013 185.821 93.436 187.818 93.436C189.745 93.436 190.695 94.4569 190.695 96.2059V96.2769C190.695 97.289 189.665 97.2002 187.179 97.5198C184.649 97.8483 181.888 98.4076 181.888 101.533C181.888 104.196 183.947 105.723 186.54 105.723ZM186.859 103.841C185.19 103.841 183.983 103.095 183.983 101.639C183.983 100.041 185.439 99.5439 187.072 99.3309C187.96 99.2243 190.339 98.9758 190.695 98.5496V100.467C190.695 102.172 189.345 103.841 186.859 103.841ZM201.654 105.687C204.672 105.687 206.661 103.841 207.016 101.426H204.921C204.53 102.918 203.287 103.805 201.654 103.805C199.168 103.805 197.57 101.746 197.57 98.5851C197.57 95.4956 199.203 93.4715 201.654 93.4715C203.5 93.4715 204.601 94.6079 204.921 95.8508H207.016C206.661 93.2939 204.495 91.5894 201.618 91.5894C197.925 91.5894 195.475 94.5013 195.475 98.6562C195.475 102.74 197.818 105.687 201.654 105.687ZM209.579 105.403H211.674V100.299L213.139 98.9403L218.244 105.403H220.907L214.719 97.5908L220.481 91.767H217.888L211.922 97.8394H211.674V87.2215H209.579V105.403ZM226.69 105.723C229.069 105.723 230.312 104.445 230.738 103.557H230.845V105.403H232.94V96.4189C232.94 92.0866 229.638 91.5894 227.898 91.5894C225.838 91.5894 223.494 92.2996 222.429 94.7854L224.417 95.4956C224.879 94.5013 225.971 93.436 227.969 93.436C229.895 93.436 230.845 94.4569 230.845 96.2059V96.2769C230.845 97.289 229.815 97.2002 227.329 97.5198C224.799 97.8483 222.038 98.4076 222.038 101.533C222.038 104.196 224.098 105.723 226.69 105.723ZM227.01 103.841C225.341 103.841 224.133 103.095 224.133 101.639C224.133 100.041 225.589 99.5439 227.223 99.3309C228.111 99.2243 230.49 98.9758 230.845 98.5496V100.467C230.845 102.172 229.496 103.841 227.01 103.841ZM241.769 110.801C245.036 110.801 247.663 109.31 247.663 105.794V91.767H245.639V93.9331H245.426C244.965 93.2229 244.112 91.5894 241.449 91.5894C238.004 91.5894 235.625 94.3238 235.625 98.5141C235.625 102.775 238.111 105.19 241.413 105.19C244.077 105.19 244.929 103.628 245.391 102.882H245.568V105.652C245.568 107.925 243.97 108.954 241.769 108.954C239.292 108.954 238.422 107.649 237.862 106.895L236.193 108.067C237.046 109.496 238.723 110.801 241.769 110.801ZM241.698 103.308C239.07 103.308 237.72 101.32 237.72 98.4786C237.72 95.7087 239.034 93.4715 241.698 93.4715C244.254 93.4715 245.604 95.5312 245.604 98.4786C245.604 101.497 244.219 103.308 241.698 103.308ZM256.716 105.687C259.486 105.687 261.51 104.302 262.149 102.243L260.125 101.675C259.592 103.095 258.358 103.805 256.716 103.805C254.257 103.805 252.561 102.216 252.464 99.2954H262.362V98.4076C262.362 93.3295 259.344 91.5894 256.503 91.5894C252.81 91.5894 250.359 94.5013 250.359 98.6917C250.359 102.882 252.774 105.687 256.716 105.687ZM252.464 97.4843C252.606 95.3625 254.106 93.4715 256.503 93.4715C258.776 93.4715 260.232 95.176 260.232 97.4843H252.464ZM277.12 105.687C280.814 105.687 283.299 102.882 283.299 98.6562C283.299 94.3948 280.814 91.5894 277.12 91.5894C273.427 91.5894 270.941 94.3948 270.941 98.6562C270.941 102.882 273.427 105.687 277.12 105.687ZM277.12 103.805C274.315 103.805 273.037 101.391 273.037 98.6562C273.037 95.9218 274.315 93.4715 277.12 93.4715C279.926 93.4715 281.204 95.9218 281.204 98.6562C281.204 101.391 279.926 103.805 277.12 103.805ZM292.07 91.767H289.016V90.382C289.016 89.0326 289.584 88.3224 290.969 88.3224C291.573 88.3224 291.928 88.4644 292.141 88.5354L292.745 86.7243C292.425 86.5823 291.786 86.3692 290.756 86.3692C288.803 86.3692 286.921 87.5411 286.921 89.8849V91.767H284.719V93.5425H286.921V105.403H289.016V93.5425H292.07V91.767ZM300.579 91.767H297.525V90.382C297.525 89.0326 298.093 88.3224 299.478 88.3224C300.082 88.3224 300.437 88.4644 300.65 88.5354L301.254 86.7243C300.934 86.5823 300.295 86.3692 299.265 86.3692C297.312 86.3692 295.43 87.5411 295.43 89.8849V91.767H293.228V93.5425H295.43V105.403H297.525V93.5425H300.579V91.767ZM308.171 105.687C310.941 105.687 312.965 104.302 313.604 102.243L311.58 101.675C311.047 103.095 309.813 103.805 308.171 103.805C305.712 103.805 304.016 102.216 303.919 99.2954H313.817V98.4076C313.817 93.3295 310.799 91.5894 307.958 91.5894C304.265 91.5894 301.815 94.5013 301.815 98.6917C301.815 102.882 304.229 105.687 308.171 105.687ZM303.919 97.4843C304.061 95.3625 305.561 93.4715 307.958 93.4715C310.231 93.4715 311.687 95.176 311.687 97.4843H303.919ZM316.505 105.403H318.6V96.7741C318.6 94.9275 320.056 93.578 322.044 93.578C322.604 93.578 323.181 93.6846 323.323 93.7201V91.5894C323.083 91.5716 322.533 91.5539 322.222 91.5539C320.588 91.5539 319.168 92.4772 318.671 93.8266H318.529V91.767H316.505V105.403ZM328.076 87.2215H325.661L325.839 100.29H327.899L328.076 87.2215ZM326.869 105.545C327.748 105.545 328.467 104.826 328.467 103.947C328.467 103.068 327.748 102.349 326.869 102.349C325.99 102.349 325.271 103.068 325.271 103.947C325.271 104.826 325.99 105.545 326.869 105.545Z" fill="#EB5757"/>
<path d="M166.551 65.9172H170.373V76.4033H172.594V65.9172H176.415V64.0397H166.551V65.9172ZM177.258 76.4033H179.443V70.952C179.443 69.7748 180.33 68.9417 181.532 68.9417C181.9 68.9417 182.359 69.0081 182.546 69.0684V67.0581C182.347 67.0219 182.003 66.9978 181.761 66.9978C180.699 66.9978 179.811 67.6015 179.473 68.676H179.377V67.1306H177.258V76.4033ZM185.638 79.8806C187.341 79.8806 188.325 79.0052 188.85 77.5262L192.575 67.1427L190.239 67.1306L188.095 74.1334H187.999L185.862 67.1306H183.544L186.906 76.5965L186.719 77.0976C186.315 78.154 185.675 78.2265 184.721 77.9488L184.214 79.6512C184.509 79.7719 185.041 79.8806 185.638 79.8806ZM202.353 76.5844C205.07 76.5844 206.796 74.6707 206.796 71.8032C206.796 68.9296 205.07 67.0099 202.353 67.0099C199.637 67.0099 197.91 68.9296 197.91 71.8032C197.91 74.6707 199.637 76.5844 202.353 76.5844ZM202.365 74.8337C200.862 74.8337 200.126 73.4935 200.126 71.7971C200.126 70.1008 200.862 68.7425 202.365 68.7425C203.844 68.7425 204.581 70.1008 204.581 71.7971C204.581 73.4935 203.844 74.8337 202.365 74.8337ZM214.561 72.5035C214.561 73.9161 213.553 74.6164 212.587 74.6164C211.537 74.6164 210.837 73.8738 210.837 72.6966V67.1306H208.651V73.0347C208.651 75.2623 209.919 76.5241 211.742 76.5241C213.131 76.5241 214.109 75.7936 214.531 74.7552H214.628V76.4033H216.747V67.1306H214.561V72.5035ZM218.994 76.4033H221.179V70.952C221.179 69.7748 222.067 68.9417 223.268 68.9417C223.636 68.9417 224.095 69.0081 224.282 69.0684V67.0581C224.083 67.0219 223.739 66.9978 223.498 66.9978C222.435 66.9978 221.548 67.6015 221.21 68.676H221.113V67.1306H218.994V76.4033Z" fill="black"/>
<path d="M578.189 113.403H580.391V106.301H584.368C584.528 106.301 584.679 106.301 584.83 106.292L588.665 113.403H591.222L587.111 105.893C589.428 105.103 590.511 103.212 590.511 100.797C590.511 97.583 588.594 95.2215 584.332 95.2215H578.189V113.403ZM580.391 104.312V97.1746H584.261C587.209 97.1746 588.345 98.6128 588.345 100.797C588.345 102.981 587.209 104.312 584.297 104.312H580.391ZM603.055 102.821C602.398 100.886 600.925 99.5894 598.226 99.5894C595.349 99.5894 593.219 101.223 593.219 103.531C593.219 105.413 594.337 106.674 596.841 107.26L599.113 107.793C600.49 108.112 601.138 108.769 601.138 109.71C601.138 110.882 599.895 111.841 597.942 111.841C596.228 111.841 595.154 111.104 594.781 109.639L592.792 110.136C593.281 112.453 595.189 113.687 597.977 113.687C601.146 113.687 603.304 111.956 603.304 109.604C603.304 107.704 602.114 106.505 599.682 105.91L597.657 105.413C596.042 105.014 595.314 104.472 595.314 103.425C595.314 102.253 596.557 101.4 598.226 101.4C600.055 101.4 600.809 102.413 601.173 103.354L603.055 102.821ZM607.485 113.545C608.364 113.545 609.083 112.826 609.083 111.947C609.083 111.068 608.364 110.349 607.485 110.349C606.606 110.349 605.887 111.068 605.887 111.947C605.887 112.826 606.606 113.545 607.485 113.545ZM617.767 113.652C621.291 113.652 623.91 111.441 623.91 108.467C623.91 106.159 622.543 104.481 620.253 104.099V103.957C622.09 103.398 623.236 101.889 623.236 99.838C623.236 97.2634 621.203 94.9729 617.838 94.9729C614.695 94.9729 612.085 96.9083 611.978 99.767H614.109C614.189 97.9559 615.911 96.8905 617.802 96.8905C619.809 96.8905 621.105 98.1068 621.105 99.9445C621.105 101.862 619.604 103.105 617.447 103.105H615.991V105.058H617.447C620.208 105.058 621.744 106.461 621.744 108.467C621.744 110.394 620.066 111.699 617.731 111.699C615.627 111.699 613.958 110.616 613.825 108.858H611.588C611.721 111.717 614.242 113.652 617.767 113.652ZM633.185 113.652C636.709 113.652 639.328 111.441 639.328 108.467C639.328 106.159 637.961 104.481 635.671 104.099V103.957C637.508 103.398 638.653 101.889 638.653 99.838C638.653 97.2634 636.62 94.9729 633.256 94.9729C630.113 94.9729 627.503 96.9083 627.396 99.767H629.527C629.607 97.9559 631.329 96.8905 633.22 96.8905C635.227 96.8905 636.523 98.1068 636.523 99.9445C636.523 101.862 635.022 103.105 632.865 103.105H631.409V105.058H632.865C635.626 105.058 637.162 106.461 637.162 108.467C637.162 110.394 635.484 111.699 633.149 111.699C631.045 111.699 629.376 110.616 629.243 108.858H627.006C627.139 111.717 629.66 113.652 633.185 113.652ZM645.058 110.918H642.786L642.679 111.912C642.422 114.318 641.915 116.715 641.685 117.842H643.283C643.709 116.635 644.614 113.9 644.916 111.876L645.058 110.918ZM653.7 113.652C657.713 113.652 660.021 110.252 660.021 104.312C660.021 98.4175 657.677 94.9729 653.7 94.9729C649.723 94.9729 647.379 98.4175 647.379 104.312C647.379 110.252 649.687 113.652 653.7 113.652ZM653.7 111.699C651.055 111.699 649.51 109.044 649.51 104.312C649.51 99.5894 651.072 96.8905 653.7 96.8905C656.328 96.8905 657.891 99.5894 657.891 104.312C657.891 109.044 656.346 111.699 653.7 111.699ZM668.825 113.652C672.838 113.652 675.146 110.252 675.146 104.312C675.146 98.4175 672.802 94.9729 668.825 94.9729C664.848 94.9729 662.504 98.4175 662.504 104.312C662.504 110.252 664.812 113.652 668.825 113.652ZM668.825 111.699C666.18 111.699 664.635 109.044 664.635 104.312C664.635 99.5894 666.197 96.8905 668.825 96.8905C671.453 96.8905 673.016 99.5894 673.016 104.312C673.016 109.044 671.471 111.699 668.825 111.699ZM683.95 113.652C687.963 113.652 690.271 110.252 690.271 104.312C690.271 98.4175 687.927 94.9729 683.95 94.9729C679.973 94.9729 677.629 98.4175 677.629 104.312C677.629 110.252 679.937 113.652 683.95 113.652ZM683.95 111.699C681.305 111.699 679.76 109.044 679.76 104.312C679.76 99.5894 681.322 96.8905 683.95 96.8905C686.578 96.8905 688.141 99.5894 688.141 104.312C688.141 109.044 686.596 111.699 683.95 111.699Z" fill="black"/>
<path d="M51.875 27.4033L64.375 11.4033L76.375 27.4033H51.875Z" fill="#075A5A"/>
<path d="M142.715 11.4033L142.715 135.403L103.295 117.798L63.8753 135.403L63.8753 11.4033L142.715 11.4033Z" fill="#229292"/>
<path d="M63.875 135.403V11.4033H104.443L103.028 118.128L63.875 135.403Z" fill="#239C9C"/>
<path d="M92.4061 43.2215H93.6845C93.6259 41.5756 92.1078 40.3451 89.9984 40.3451C87.9103 40.3451 86.2697 41.5596 86.2697 43.392C86.2697 44.8621 87.335 45.7357 89.0396 46.2258L90.3819 46.6093C91.5325 46.9289 92.5552 47.3337 92.5552 48.4204C92.5552 49.6135 91.4047 50.4019 89.8919 50.4019C88.5922 50.4019 87.4416 49.8266 87.335 48.5908H85.9714C86.0993 50.3806 87.5481 51.5951 89.8919 51.5951C92.4061 51.5951 93.8336 50.2101 93.8336 48.4417C93.8336 46.3962 91.8947 45.7357 90.7654 45.4374L89.6575 45.1391C88.8478 44.926 87.5481 44.4999 87.5481 43.328C87.5481 42.284 88.5069 41.517 89.9558 41.517C91.2768 41.517 92.2782 42.1455 92.4061 43.2215ZM98.2428 51.5951C99.6704 51.5951 100.416 50.828 100.672 50.2954H100.736V51.4033H101.993V46.0127C101.993 43.4133 100.011 43.115 98.9672 43.115C97.7314 43.115 96.3252 43.5411 95.686 45.0326L96.8792 45.4587C97.1562 44.8621 97.8113 44.2229 99.0099 44.2229C100.166 44.2229 100.736 44.8355 100.736 45.8849V45.9275C100.736 46.5347 100.118 46.4814 98.6263 46.6732C97.1082 46.8703 95.4516 47.2059 95.4516 49.0809C95.4516 50.6789 96.6874 51.5951 98.2428 51.5951ZM98.4346 50.4658C97.4331 50.4658 96.7087 50.0184 96.7087 49.1448C96.7087 48.186 97.5823 47.8877 98.5624 47.7599C99.0951 47.6959 100.523 47.5468 100.736 47.2911V48.4417C100.736 49.4644 99.926 50.4658 98.4346 50.4658ZM110.685 43.2215H109.321L107.062 49.7414H106.977L104.719 43.2215H103.355L106.381 51.4033H107.659L110.685 43.2215ZM115.481 51.5738C117.143 51.5738 118.358 50.7428 118.741 49.507L117.527 49.1661C117.207 50.0184 116.467 50.4445 115.481 50.4445C114.006 50.4445 112.988 49.491 112.93 47.7385H118.869V47.2059C118.869 44.159 117.058 43.115 115.354 43.115C113.138 43.115 111.667 44.8621 111.667 47.3763C111.667 49.8905 113.116 51.5738 115.481 51.5738ZM112.93 46.6519C113.015 45.3788 113.915 44.2442 115.354 44.2442C116.717 44.2442 117.591 45.267 117.591 46.6519H112.93ZM77.2058 87.4033H88.6328V83.2303H81.9638C84.2128 79.4603 85.8703 76.1323 86.9363 73.2463C88.0153 70.3603 88.5548 67.7993 88.5548 65.5633C88.5548 63.2623 88.0738 61.5008 87.1118 60.2788C86.1498 59.0438 84.7588 58.4263 82.9388 58.4263C81.0928 58.4263 79.6953 59.0568 78.7463 60.3178C77.7973 61.5658 77.3228 63.4053 77.3228 65.8363V67.8253H81.5348V65.8363C81.5348 63.4963 82.0028 62.3263 82.9388 62.3263C83.3808 62.3263 83.7318 62.6513 83.9918 63.3013C84.2518 63.9513 84.3688 64.7963 84.3428 65.8363C84.3168 67.9423 83.6928 70.4773 82.4708 73.4413C81.2618 76.3923 79.5068 79.6553 77.2058 83.2303V87.4033ZM96.9953 87.7153C100.661 87.7153 102.494 85.2193 102.494 80.2273V73.8313C102.494 72.0633 102.059 70.6333 101.188 69.5413C100.33 68.4493 99.2053 67.9033 97.8143 67.9033C97.4113 67.9033 97.0278 67.9748 96.6638 68.1178C96.2998 68.2608 95.8773 68.5143 95.3963 68.8783V62.9113H101.948V58.7383H91.7693V73.8313H95.3183C95.3183 73.2073 95.4678 72.7003 95.7668 72.3103C96.0788 71.9203 96.4753 71.7253 96.9563 71.7253C97.8403 71.7253 98.2823 72.4273 98.2823 73.8313V80.2273C98.2823 81.5793 98.1783 82.5543 97.9703 83.1523C97.7753 83.7503 97.4503 84.0493 96.9953 84.0493C96.5143 84.0493 96.1763 83.7698 95.9813 83.2108C95.7993 82.6388 95.7083 81.6313 95.7083 80.1883V79.0573H91.4963C91.4963 82.1123 91.9253 84.3223 92.7833 85.6873C93.6543 87.0393 95.0583 87.7153 96.9953 87.7153ZM113.611 73.4023C114.534 73.4023 115.262 73.0968 115.795 72.4858C116.341 71.8748 116.614 71.0623 116.614 70.0483V61.7413C116.614 60.7403 116.335 59.9408 115.776 59.3428C115.23 58.7318 114.508 58.4263 113.611 58.4263C112.701 58.4263 111.967 58.7318 111.408 59.3428C110.849 59.9538 110.569 60.7533 110.569 61.7413V70.0483C110.569 71.0493 110.849 71.8618 111.408 72.4858C111.967 73.0968 112.701 73.4023 113.611 73.4023ZM112.519 87.4033H115.132L125.545 58.7383H123.049L112.519 87.4033ZM113.611 71.1013C113.143 71.1013 112.909 70.7503 112.909 70.0483V61.7413C112.909 61.4423 112.974 61.1953 113.104 61.0003C113.234 60.7923 113.403 60.6883 113.611 60.6883C114.053 60.6883 114.274 61.0393 114.274 61.7413V70.0483C114.274 70.7503 114.053 71.1013 113.611 71.1013ZM124.531 87.7153C125.454 87.7153 126.182 87.4098 126.715 86.7988C127.261 86.1878 127.534 85.3753 127.534 84.3613V76.0543C127.534 75.0533 127.255 74.2538 126.696 73.6558C126.15 73.0448 125.428 72.7393 124.531 72.7393C123.621 72.7393 122.887 73.0448 122.328 73.6558C121.769 74.2668 121.489 75.0663 121.489 76.0543V84.3613C121.489 85.3623 121.769 86.1748 122.328 86.7988C122.887 87.4098 123.621 87.7153 124.531 87.7153ZM124.531 85.4143C124.063 85.4143 123.829 85.0633 123.829 84.3613V76.0543C123.829 75.7553 123.894 75.5083 124.024 75.3133C124.154 75.1053 124.323 75.0013 124.531 75.0013C124.973 75.0013 125.194 75.3523 125.194 76.0543V84.3613C125.194 85.0633 124.973 85.4143 124.531 85.4143Z" fill="white"/>
<path d="M606.144 79.8678H611.964V82.4033H613.389V79.8678H615.079V78.5397H613.389V70.0397H611.578L606.144 78.6363V79.8678ZM611.964 78.5397H607.762V78.4431L611.867 71.9474H611.964V78.5397ZM617.052 79.8678H622.871V82.4033H624.296V79.8678H625.986V78.5397H624.296V70.0397H622.485L617.052 78.6363V79.8678ZM622.871 78.5397H618.669V78.4431L622.775 71.9474H622.871V78.5397ZM629.817 80.713H628.271L628.199 81.3891C628.024 83.0251 627.68 84.6551 627.523 85.4218H628.609C628.899 84.6008 629.515 82.7414 629.72 81.365L629.817 80.713ZM636.033 82.5724C638.762 82.5724 640.331 80.2602 640.331 76.2215C640.331 72.213 638.738 69.8706 636.033 69.8706C633.329 69.8706 631.735 72.213 631.735 76.2215C631.735 80.2602 633.305 82.5724 636.033 82.5724ZM636.033 81.2442C634.234 81.2442 633.184 79.4392 633.184 76.2215C633.184 73.0099 634.246 71.1746 636.033 71.1746C637.82 71.1746 638.883 73.0099 638.883 76.2215C638.883 79.4392 637.832 81.2442 636.033 81.2442ZM646.658 82.5724C649.387 82.5724 650.956 80.2602 650.956 76.2215C650.956 72.213 649.363 69.8706 646.658 69.8706C643.954 69.8706 642.36 72.213 642.36 76.2215C642.36 80.2602 643.93 82.5724 646.658 82.5724ZM646.658 81.2442C644.859 81.2442 643.809 79.4392 643.809 76.2215C643.809 73.0099 644.871 71.1746 646.658 71.1746C648.445 71.1746 649.508 73.0099 649.508 76.2215C649.508 79.4392 648.457 81.2442 646.658 81.2442ZM657.283 82.5724C660.012 82.5724 661.581 80.2602 661.581 76.2215C661.581 72.213 659.988 69.8706 657.283 69.8706C654.579 69.8706 652.985 72.213 652.985 76.2215C652.985 80.2602 654.555 82.5724 657.283 82.5724ZM657.283 81.2442C655.484 81.2442 654.434 79.4392 654.434 76.2215C654.434 73.0099 655.496 71.1746 657.283 71.1746C659.07 71.1746 660.133 73.0099 660.133 76.2215C660.133 79.4392 659.082 81.2442 657.283 81.2442Z" fill="#4F4F4F"/>
<line x1="599.249" y1="66.4736" x2="669.761" y2="85.3674" stroke="#EB5757"/>
<defs>
<filter id="filter0_d_2717_429" x="0.875" y="0.40332" width="784" height="511" filterUnits="userSpaceOnUse" color-interpolation-filters="sRGB">
<feFlood flood-opacity="0" result="BackgroundImageFix"/>
<feColorMatrix in="SourceAlpha" type="matrix" values="0 0 0 0 0 0 0 0 0 0 0 0 0 0 0 0 0 0 127 0" result="hardAlpha"/>
<feOffset dy="14"/>
<feGaussianBlur stdDeviation="20.5"/>
<feColorMatrix type="matrix" values="0 0 0 0 0 0 0 0 0 0 0 0 0 0 0 0 0 0 0.07 0"/>
<feBlend mode="normal" in2="BackgroundImageFix" result="effect1_dropShadow_2717_429"/>
<feBlend mode="normal" in="SourceGraphic" in2="effect1_dropShadow_2717_429" result="shape"/>
</filter>
</defs>
</svg>
