<svg width="54" height="54" viewBox="0 0 54 54" fill="none" xmlns="http://www.w3.org/2000/svg">
<path d="M28.9006 19.2578C28.9006 18.5631 28.3375 18 27.6429 18C26.9482 18 26.3851 18.5631 26.3851 19.2578V26.3851H19.2578C18.5631 26.3851 18 26.9482 18 27.6429C18 28.3375 18.5631 28.9006 19.2578 28.9006H26.3851V36.0279C26.3851 36.7226 26.9482 37.2857 27.6429 37.2857C28.3375 37.2857 28.9006 36.7226 28.9006 36.0279V28.9006H36.0279C36.7226 28.9006 37.2857 28.3375 37.2857 27.6429C37.2857 26.9482 36.7226 26.3851 36.0279 26.3851H28.9006V19.2578Z" fill="black" stroke="black" stroke-width="0.3" stroke-linecap="round"/>
</svg>
