<svg width="98" height="98" viewBox="0 0 98 98" fill="none" xmlns="http://www.w3.org/2000/svg">
<circle cx="49" cy="49" r="49" fill="#F2F2F2"/>
<path d="M26.4512 45.0702V56.2925C26.4512 59.5241 29.0709 62.1439 32.3026 62.1439H63.9626C67.1943 62.1439 69.814 59.5241 69.814 56.2925V45.0702C69.814 44.5082 69.3584 44.0525 68.7964 44.0525H27.4688C26.9068 44.0525 26.4512 44.5082 26.4512 45.0702ZM37.2778 52.1937H34.5641C33.5805 52.1937 32.7832 51.3963 32.7832 50.4128C32.7832 49.4292 33.5805 48.6319 34.5641 48.6319H37.2778C38.2613 48.6319 39.0586 49.4292 39.0586 50.4128C39.0586 51.3963 38.2613 52.1937 37.2778 52.1937Z" fill="#BDBDBD"/>
<path d="M69.814 39.4732V39.1057C69.814 35.874 67.1943 33.2543 63.9626 33.2543H32.3026C29.0709 33.2543 26.4512 35.874 26.4512 39.1057V39.4732C26.4512 40.0351 26.9068 40.4908 27.4688 40.4908H68.7964C69.3584 40.4908 69.814 40.0351 69.814 39.4732Z" fill="#BDBDBD"/>
</svg>
