<svg width="98" height="98" viewBox="0 0 98 98" fill="none" xmlns="http://www.w3.org/2000/svg">
<circle cx="49" cy="49" r="48.5" fill="white" stroke="#FBA43F"/>
<circle cx="49" cy="49" r="48.6" fill="#FBA43F" stroke="#FBA43F" stroke-width="0.8"/>
<g filter="url(#filter0_d_5015_2318)">
<path fill-rule="evenodd" clip-rule="evenodd" d="M38.1052 36.9519V37.8341H34.525C33.4585 37.8341 32.5533 38.6163 32.3986 39.6716L31.8771 43.2311C30.8587 50.1818 30.8587 57.2439 31.8771 64.1947C32.3334 67.3092 34.8449 69.7169 37.9759 70.0416L39.4757 70.1972C46.0966 70.8838 52.7708 70.8838 59.3917 70.1972L60.8915 70.0416C64.0225 69.7169 66.5339 67.3092 66.9903 64.1947C68.0087 57.2439 68.0087 50.1818 66.9903 43.2311L66.4687 39.6716C66.3141 38.6163 65.4089 37.8341 64.3423 37.8341H60.7622V36.952C60.7622 31.782 57.262 27.2679 52.255 25.9803C50.4042 25.5044 48.4632 25.5044 46.6124 25.9803C41.6053 27.2679 38.1052 31.782 38.1052 36.9519ZM51.364 29.4451C50.0977 29.1194 48.7696 29.1194 47.5033 29.4451C44.0774 30.326 41.6826 33.4146 41.6826 36.9519V37.8341H57.1848V36.952C57.1848 33.4146 54.7899 30.326 51.364 29.4451ZM41.6826 41.4115C41.6826 40.4236 40.8817 39.6228 39.8939 39.6228C38.906 39.6228 38.1052 40.4236 38.1052 41.4115V46.1814C38.1052 47.1693 38.906 47.9701 39.8939 47.9701C40.8817 47.9701 41.6826 47.1693 41.6826 46.1814V41.4115ZM60.7622 41.4115C60.7622 40.4236 59.9614 39.6228 58.9735 39.6228C57.9856 39.6228 57.1848 40.4236 57.1848 41.4115V46.1814C57.1848 47.1693 57.9856 47.9701 58.9735 47.9701C59.9614 47.9701 60.7622 47.1693 60.7622 46.1814V41.4115Z" fill="white"/>
<path fill-rule="evenodd" clip-rule="evenodd" d="M38.1052 36.9519V37.8341H34.525C33.4585 37.8341 32.5533 38.6163 32.3986 39.6716L31.8771 43.2311C30.8587 50.1818 30.8587 57.2439 31.8771 64.1947C32.3334 67.3092 34.8449 69.7169 37.9759 70.0416L39.4757 70.1972C46.0966 70.8838 52.7708 70.8838 59.3917 70.1972L60.8915 70.0416C64.0225 69.7169 66.5339 67.3092 66.9903 64.1947C68.0087 57.2439 68.0087 50.1818 66.9903 43.2311L66.4687 39.6716C66.3141 38.6163 65.4089 37.8341 64.3423 37.8341H60.7622V36.952C60.7622 31.782 57.262 27.2679 52.255 25.9803C50.4042 25.5044 48.4632 25.5044 46.6124 25.9803C41.6053 27.2679 38.1052 31.782 38.1052 36.9519ZM51.364 29.4451C50.0977 29.1194 48.7696 29.1194 47.5033 29.4451C44.0774 30.326 41.6826 33.4146 41.6826 36.9519V37.8341H57.1848V36.952C57.1848 33.4146 54.7899 30.326 51.364 29.4451ZM41.6826 41.4115C41.6826 40.4236 40.8817 39.6228 39.8939 39.6228C38.906 39.6228 38.1052 40.4236 38.1052 41.4115V46.1814C38.1052 47.1693 38.906 47.9701 39.8939 47.9701C40.8817 47.9701 41.6826 47.1693 41.6826 46.1814V41.4115ZM60.7622 41.4115C60.7622 40.4236 59.9614 39.6228 58.9735 39.6228C57.9856 39.6228 57.1848 40.4236 57.1848 41.4115V46.1814C57.1848 47.1693 57.9856 47.9701 58.9735 47.9701C59.9614 47.9701 60.7622 47.1693 60.7622 46.1814V41.4115Z" stroke="#FBA43F" stroke-width="0.5" stroke-linecap="round"/>
</g>
<defs>
<filter id="filter0_d_5015_2318" x="30.8633" y="25.3734" width="44.1406" height="55.5887" filterUnits="userSpaceOnUse" color-interpolation-filters="sRGB">
<feFlood flood-opacity="0" result="BackgroundImageFix"/>
<feColorMatrix in="SourceAlpha" type="matrix" values="0 0 0 0 0 0 0 0 0 0 0 0 0 0 0 0 0 0 127 0" result="hardAlpha"/>
<feOffset dx="4" dy="7"/>
<feGaussianBlur stdDeviation="1.5"/>
<feColorMatrix type="matrix" values="0 0 0 0 0 0 0 0 0 0 0 0 0 0 0 0 0 0 0.13 0"/>
<feBlend mode="normal" in2="BackgroundImageFix" result="effect1_dropShadow_5015_2318"/>
<feBlend mode="normal" in="SourceGraphic" in2="effect1_dropShadow_5015_2318" result="shape"/>
</filter>
</defs>
</svg>
