<svg width="326" height="64" viewBox="0 0 326 64" fill="none" xmlns="http://www.w3.org/2000/svg">
<g opacity="0.8" clip-path="url(#clip0_5171_454)">
<path d="M304.024 27.5676C301.395 27.5676 299.253 27.4025 297.15 27.6346C295.968 27.7691 294.861 28.2863 293.999 29.1076C291.522 31.7143 289.254 34.522 286.906 37.2493L286.411 37.1154V14.2168H279.715V51.9794H286.576V40.1462C289.526 44.0653 291.999 47.3997 294.539 50.6805C294.986 51.2697 295.718 51.9972 296.356 52.0196C298.9 52.1758 301.458 52.082 304.493 52.082C300.846 47.4309 297.525 43.1904 294.004 38.6911L304.024 27.5676Z" fill="#F2F2F2"/>
<path d="M178.123 36.977C180.921 34.0622 183.55 30.9867 186.604 27.5676C184.064 27.5676 182.082 27.6658 180.113 27.5408C179.386 27.4548 178.648 27.5675 177.98 27.867C177.311 28.1664 176.735 28.6414 176.315 29.2414C174.119 31.9955 171.735 34.5978 169.427 37.276L168.928 37.1153V14.1721H162.415V51.9838H168.986V40.6863C172.003 43.9314 174.556 47.3416 177.159 50.7206C177.605 51.2696 178.199 52.0195 178.761 52.0597C181.372 52.2025 183.997 52.1222 187.068 52.1222C183.818 47.9531 180.984 44.1545 177.966 40.5167C176.81 39.0794 176.917 38.2447 178.123 36.977Z" fill="#F2F2F2"/>
<path d="M112.944 40.1865C112.855 41.8675 112.378 43.5052 111.551 44.9715C110.538 46.7168 108.641 47.2033 106.641 46.757C104.762 46.3686 103.995 44.9715 103.753 43.2351C103.584 41.9893 103.494 40.734 103.486 39.4767C103.45 35.571 103.486 31.6608 103.486 27.7507H96.7901C96.7901 33.3972 96.6027 38.9098 96.8526 44.3644C97.0223 47.98 98.7452 50.926 102.414 52.2473C106.182 53.5864 109.413 52.7204 112.109 49.7789C112.382 49.4753 112.703 49.2164 113.19 48.7611C113.274 50.0065 113.337 50.9439 113.399 51.9303H119.742V27.6748H113.047C113.007 32.0224 113.136 36.1111 112.944 40.1865Z" fill="#F2F2F2"/>
<path d="M321.138 38.5036C319.094 37.5127 316.733 37.2003 314.626 36.3209C313.675 35.9281 312.992 34.897 312.193 34.156C313.197 33.4463 314.242 32.0983 315.197 32.1563C317.299 32.2902 319.353 33.1339 321.893 33.8123L324.981 30.5449C322.218 27.2507 316.541 25.9786 311.639 27.5409C307.796 28.7684 305.739 31.3796 305.783 34.9729C305.832 38.343 307.533 40.2311 311.671 41.4854C313.371 42.0032 315.13 42.3781 316.746 43.0923C317.415 43.3869 318.237 44.4046 318.174 45.0117C318.079 45.4549 317.89 45.8727 317.621 46.2374C317.351 46.6022 317.007 46.9056 316.612 47.1274C315.75 47.5554 314.761 47.6538 313.831 47.4042C312.046 46.8418 310.332 45.9446 308.613 45.1947L304.774 48.9397C308.676 53.2427 317.273 54.2425 321.977 50.926C326.544 47.7211 326.155 40.9453 321.138 38.5036Z" fill="#F2F2F2"/>
<path d="M155.01 44.9044C150.876 47.5826 147.689 47.5558 145.444 45.0294C143.02 42.3021 142.873 37.4412 145.368 34.763C146.261 33.7988 147.707 32.7766 148.899 32.7856C150.841 32.7856 152.773 33.6292 154.671 34.1247L158.616 30.4198C153.814 25.4294 144.842 25.6124 139.94 30.7367C135.039 35.861 135.316 44.8241 140.628 49.56C145.538 53.9255 154.961 53.8764 158.773 49.3324C157.951 48.4396 157.094 47.5201 156.277 46.5783C155.804 46.0426 155.394 45.4177 155.01 44.9044Z" fill="#F2F2F2"/>
<path d="M125.505 51.9258H132.142V27.6926H125.505V51.9258Z" fill="#F2F2F2"/>
<path d="M77.3774 13.4579C77.4756 11.3689 78.6718 10.119 80.3055 10.2574C82.3186 10.427 82.4927 11.9491 82.5106 13.498C82.5106 15.77 82.5106 18.0465 82.5106 20.3185H85.6575C85.6575 17.8546 85.6351 15.5647 85.6575 13.2749C85.6887 11.1055 85.4164 9.05223 83.2203 7.97202C81.0242 6.89181 79.0869 7.80241 77.9353 8.84244L74.293 7.61493V20.2828H77.3774C77.3774 17.8724 77.2792 15.654 77.3774 13.4579Z" fill="#F2F2F2"/>
<path d="M103.954 20.7471C105.293 20.6668 106.543 19.9571 107.838 19.5286L107.65 19.8812L110.846 20.6802V8.03463H107.878C107.878 10.2129 107.878 12.2751 107.878 14.3373C107.878 16.6897 106.775 18.252 105.079 18.1359C102.847 17.9886 102.78 16.1942 102.669 14.565C102.611 13.6722 102.669 12.7795 102.669 11.8868V7.98999H99.5174C99.5174 10.9271 99.3701 13.6633 99.5576 16.3772C99.7451 19.0911 101.575 20.8944 103.954 20.7471Z" fill="#F2F2F2"/>
<path d="M97.2991 8.03906H87.479V10.6101L90.8223 10.8244V20.3231H94.0317V10.7798L97.3035 10.5744L97.2991 8.03906Z" fill="#F2F2F2"/>
<path d="M126.232 20.3321V10.7798L129.558 10.6102V8.03467H119.626V10.5834L123.125 10.8378V20.3321H126.232Z" fill="#F2F2F2"/>
<path d="M70.8874 8.02124H68.0039V20.3142H70.874L70.8874 8.02124Z" fill="#F2F2F2"/>
<path d="M117.175 8.03467H114.301V20.3365H117.175V8.03467Z" fill="#F2F2F2"/>
<path d="M126.411 4.32524C126.411 3.70479 125.335 2.64243 124.684 2.60226C124.032 2.56209 122.898 3.55303 122.836 4.16009C122.778 4.89659 123.648 5.70451 124.496 7.11056C125.465 5.78932 126.411 5.05728 126.411 4.32524Z" fill="#F2F2F2"/>
<path d="M92.3266 6.27141C92.9248 5.65543 93.9157 5.09747 94.0094 4.41453C94.1032 3.73159 93.2149 3.02186 92.3847 1.73633C91.4562 2.95937 90.4608 3.72712 90.5635 4.27615C90.7108 5.02605 91.6972 5.61079 92.3266 6.27141Z" fill="#F2F2F2"/>
<path d="M28.014 0.00451021C12.5697 0.214302 0.0313047 12.5876 5.90252e-05 28.1033C-0.0311866 43.9716 12.3466 56.5279 28.0408 56.5546C35.5052 56.6263 42.6948 53.7417 48.0397 48.5306C53.3845 43.3196 56.4505 36.2054 56.5681 28.7416C56.8448 13.0697 43.7172 -0.209746 28.014 0.00451021ZM26.8177 46.2168C26.7741 46.492 26.6915 46.7595 26.5722 47.0113C23.6932 46.8551 22.2737 45.333 22.2514 42.2218C22.2023 36.2093 22.1443 30.1967 22.2916 24.1886C22.3452 21.997 21.6444 21.3855 19.5152 21.4837C15.2211 21.6801 12.2082 24.1619 12.0787 27.8667C11.9404 31.9867 14.4623 34.7854 18.868 35.0086C21.1534 35.1291 20.4615 36.6244 20.5731 37.8296C20.7159 39.3026 20.0151 39.7579 18.5868 39.7043C12.7527 39.4811 7.77576 34.8613 7.4276 29.2727C7.05712 22.9701 11.1324 17.8904 17.3414 17.1852C19.9982 16.9314 22.6695 16.8628 25.3358 16.9798C25.8447 16.9798 26.7597 17.8726 26.7642 18.3769C26.8624 27.6614 26.8356 36.9413 26.8177 46.2168ZM40.6551 39.1731C37.4904 39.7757 34.1694 39.5883 30.9154 39.6195C30.5226 39.6195 29.7727 38.8562 29.7682 38.4411C29.7236 28.9469 29.7682 19.4482 29.795 9.95402C29.795 9.82903 29.9423 9.70851 30.0227 9.58799C30.9425 9.62606 31.8377 9.89632 32.625 10.3736C33.0159 10.656 33.3448 11.0157 33.5913 11.4302C33.8377 11.8448 33.9965 12.3056 34.0578 12.784C34.1608 13.327 34.213 13.8784 34.214 14.4311C34.2944 19.9214 34.2408 25.4117 34.2453 30.902C34.2453 31.7188 34.2721 32.5357 34.2453 33.3525C34.2006 34.5354 34.6292 35.0398 35.9191 35.0934C38.7223 35.205 41.2755 34.7764 43.061 32.4152C44.601 30.3753 44.9804 28.0765 43.9537 25.7197C42.9271 23.3629 40.9452 21.9345 38.3161 21.5953C37.66 21.506 36.977 21.5149 36.2361 21.4747C35.5353 16.8147 35.7227 16.6183 39.9231 17.2566C44.8554 18.0065 48.8504 22.613 49.1227 27.8399C49.395 33.0669 45.7526 38.2001 40.6417 39.1731H40.6551Z" fill="#F2F2F2"/>
<path d="M207.27 27.38C203.199 26.1213 199.566 27.1301 195.968 30.0939V14.1765H189.299V51.9971H195.548C195.624 51.0374 195.691 50.1804 195.781 49.0333C200.865 53.5951 206.65 53.8406 211.278 49.926C216.162 45.8016 217.242 37.8741 213.671 32.2722C212.208 29.9126 209.931 28.1718 207.27 27.38ZM202.239 46.9889C198.579 46.9621 195.682 43.6858 195.763 39.673C195.843 35.7762 198.762 32.5802 202.275 32.5311C206.029 32.4954 208.779 35.5619 208.756 39.7533C208.734 43.9447 205.958 47.0157 202.235 46.9889H202.239Z" fill="#F2F2F2"/>
<path d="M84.2829 30.2145C78.0962 25.7508 72.1283 25.9249 67.7941 30.5537C63.2992 35.3566 63.201 43.9134 67.5843 48.9752C71.6329 53.6576 77.5204 53.9076 84.3231 49.4216V64.0044H90.8222V27.6969H84.7337L84.2829 30.2145ZM78.0918 46.9934C74.3512 47.0916 71.3249 43.8242 71.3561 39.7087C71.3829 35.6914 74.0924 32.6561 77.7302 32.5668C81.3681 32.4775 84.3141 35.6914 84.3454 39.7087C84.3766 43.726 81.6449 46.8996 78.0918 46.9934Z" fill="#F2F2F2"/>
<path d="M232.329 26.8042C224.58 26.7417 218.88 32.241 218.889 39.7489C218.898 47.2567 224.504 52.8631 232.209 52.8854C239.797 52.9122 245.6 47.2389 245.573 39.7533C245.546 32.2678 239.98 26.8489 232.329 26.8042ZM232.236 46.98C228.406 46.98 225.879 44.0742 225.866 39.6953C225.866 35.553 228.477 32.5758 232.169 32.5534C235.86 32.5311 238.735 35.6378 238.708 39.7622C238.686 44.0295 236.021 46.9979 232.236 46.98Z" fill="#F2F2F2"/>
<path d="M262.441 26.8178C254.308 26.7642 248.604 32.1385 248.662 39.8651C248.693 47.3506 254.214 52.8097 261.803 52.899C269.56 52.9704 275.252 47.3819 275.243 39.6954C275.234 32.4197 269.717 26.8713 262.441 26.8178ZM261.995 46.9801C258.263 47.0426 255.522 43.994 255.5 39.7669C255.478 35.5398 258.178 32.5581 261.99 32.5536C265.646 32.5536 268.32 35.5219 268.369 39.6419C268.422 43.8422 265.744 46.9355 261.986 46.9801H261.995Z" fill="#F2F2F2"/>
</g>
<defs>
<clipPath id="clip0_5171_454">
<rect width="325.164" height="64" fill="white"/>
</clipPath>
</defs>
</svg>
