<svg width="375" height="64" viewBox="0 0 375 64" fill="none" xmlns="http://www.w3.org/2000/svg">
<g opacity="0.8" clip-path="url(#clip0_5172_528)">
<path d="M177.538 32.111C177.538 29.935 177.54 27.7611 177.542 25.5872C177.544 23.4134 177.546 21.2395 177.546 19.0635C177.546 19.0013 177.547 18.939 177.547 18.8767C177.551 17.5379 177.556 16.2134 175.55 16.2134C173.655 16.2475 173.655 17.5275 173.655 18.8672L173.655 45.3612C173.654 46.6265 173.653 47.9077 175.49 47.9659C177.54 48.0243 177.539 46.6335 177.538 45.2487L177.538 32.111Z" fill="#F2F2F2"/>
<path d="M95.4642 48.4011C93.0075 48.4438 90.5808 47.8562 88.4157 46.6944C87.2039 45.9691 86.4274 44.8342 87.1613 43.4944C87.7354 42.4462 88.5447 42.8972 89.2866 43.3107C89.4929 43.4257 89.694 43.5378 89.8834 43.6139C92.4861 44.672 95.0973 45.4912 97.9218 44.5867C99.765 43.9894 101.139 42.88 101.446 40.8747C101.612 39.9737 101.476 39.043 101.057 38.2279C100.639 37.4128 99.9625 36.7592 99.1335 36.3691C97.8048 35.6241 96.4435 34.9407 95.0827 34.2576L95.0819 34.2572C94.3544 33.892 93.6264 33.5265 92.9042 33.152C88.9874 31.0955 87.1442 27.9723 87.7842 24.5163C88.4754 20.8214 90.9757 18.7563 95.541 18.1504C97.8774 17.8696 100.245 18.2603 102.368 19.2768C103.69 19.8656 104.475 20.9835 103.87 22.3488C103.331 23.6091 102.561 23.1325 101.845 22.6901C101.631 22.5573 101.421 22.4276 101.224 22.3488C99.4151 21.6576 97.6231 21.0262 95.6519 21.4187C94.005 21.7515 92.5714 22.4171 92.0765 24.1835C91.8025 25.0028 91.8071 25.8897 92.0895 26.7062C92.3719 27.5226 92.9164 28.2227 93.6381 28.6976C94.7805 29.4681 95.9752 30.1581 97.2135 30.7627C97.8325 31.0863 98.4689 31.3794 99.1054 31.6726C100.013 32.0906 100.921 32.5089 101.779 33.0155C103.168 33.7232 104.296 34.8549 104.998 36.2465C105.701 37.6381 105.942 39.2173 105.687 40.7552C105.531 42.3035 104.922 43.7715 103.938 44.9763C102.953 46.1812 101.635 47.0695 100.149 47.5307C98.6539 48.1056 97.066 48.4006 95.4642 48.4011Z" fill="#F2F2F2"/>
<path d="M343.673 33.5444V37.3674H343.75C343.75 37.8936 343.735 38.4218 343.72 38.9502V38.9577C343.689 40.0206 343.659 41.0847 343.75 42.1375C344.185 47.2148 348.691 49.8687 353.418 47.9999C354.92 47.4026 355.167 46.3103 355.125 44.962C355.082 43.4772 354.161 43.298 352.94 43.426C350.5 43.682 349.757 42.2399 349.757 40.1322C349.736 39.3362 349.744 38.5388 349.753 37.7418V37.7372C349.764 36.6217 349.776 35.5067 349.706 34.3978C349.57 32.0596 349.962 30.3786 352.898 30.6943C354.528 30.8991 355.15 29.9434 355.15 28.3391C355.15 26.7348 354.374 25.9242 352.804 26.0778C350.414 26.3167 349.501 25.2671 349.681 22.946C349.86 20.625 348.221 20.5311 346.446 20.5311C344.672 20.5311 343.562 21.0858 343.673 23.0911C343.767 24.6698 343.63 26.0266 341.497 26.1972C340.294 26.2911 340.294 27.4687 340.294 28.4586C340.294 29.4484 340.405 30.5236 341.651 30.626C343.613 30.7796 343.673 32.0682 343.673 33.5444Z" fill="#F2F2F2"/>
<path d="M337.273 39.2704C337.273 39.8699 337.264 40.4714 337.255 41.0734C337.236 42.2795 337.217 43.4881 337.273 44.689C337.401 46.8565 336.821 48.0597 334.321 48.1024C331.821 48.145 331.257 46.9589 331.334 44.7573C331.445 41.5744 331.437 38.3829 331.334 35.2C331.24 32.9898 330.711 30.8395 327.87 30.7029C325.463 30.592 323.142 32.9728 323.083 35.6096C323.023 38.7925 322.972 41.984 323.083 45.1669C323.159 47.4624 322.059 48.1109 319.976 48.0768C318.065 48.0768 316.99 47.4965 317.015 45.3547C317.055 41.6638 317.042 37.9578 317.029 34.2695C317.022 32.432 317.015 30.599 317.015 28.7744C317.015 28.6931 317.014 28.6101 317.014 28.526C317.004 27.55 316.992 26.4265 318.304 26.2144C318.489 26.1849 318.682 26.1463 318.879 26.107C320.049 25.8727 321.347 25.6126 321.939 27.1104C322.528 28.5696 323.108 28.1856 324.021 27.5627C324.799 27.0069 325.641 26.5484 326.53 26.1973C332.043 24.0811 336.77 27.0507 337.18 32.9131C337.282 34.3201 337.248 35.75 337.214 37.1722C337.197 37.8804 337.18 38.5868 337.18 39.2875L337.273 39.2704Z" fill="#F2F2F2"/>
<path d="M311.059 37.009V45.3119C311.059 45.3445 311.059 45.3773 311.059 45.4102L311.06 45.5495C311.069 46.5335 311.079 47.6115 309.753 47.8719C309.65 47.8905 309.544 47.9108 309.435 47.9315L309.433 47.9319C308.244 48.1585 306.77 48.4395 306.34 47.1892C305.619 45.2872 304.892 45.8937 304.165 46.501C303.988 46.6485 303.812 46.796 303.635 46.9076C301.771 48.1827 299.494 48.7069 297.26 48.3754C294.077 47.906 291.97 46.1482 291.347 42.9567C290.609 39.2269 290.72 35.4634 290.832 31.706C290.869 30.4688 290.905 29.2322 290.912 27.9978C290.912 26.0386 292.323 26.0433 293.646 26.0478C293.839 26.0484 294.03 26.0491 294.214 26.0437C295.665 26.001 296.97 26.3167 296.953 28.2708V38.801C296.953 41.2671 297.619 43.3407 300.606 43.3748C302.91 43.3748 305.103 41.0709 305.162 38.5535C305.239 35.2511 305.273 31.9573 305.162 28.6549C305.103 26.4191 306.323 26.018 308.175 26.0095C310.026 26.001 311.187 26.5727 311.102 28.7402C311.016 30.7077 311.031 32.6884 311.047 34.6728V34.6748L311.047 34.6832C311.053 35.4581 311.059 36.2335 311.059 37.009Z" fill="#F2F2F2"/>
<path d="M359.503 47.1637C361.108 48.0168 362.899 48.4594 364.716 48.4522C371.185 48.4181 374.7 45.4485 374.325 40.9173C374.043 37.3613 371.461 36.2278 368.837 35.0759C368.527 34.9397 368.216 34.8031 367.908 34.6623C367.571 34.5091 367.177 34.3822 366.773 34.2523C365.267 33.7673 363.635 33.2416 364.375 31.1552C365.026 29.3332 366.774 29.6146 368.4 29.8764C368.776 29.937 369.147 29.9966 369.495 30.0288C369.591 30.0368 369.687 30.0729 369.783 30.109C369.892 30.1499 370.001 30.1909 370.109 30.1909C370.417 30.2181 370.753 30.382 371.09 30.5462C371.915 30.9476 372.744 31.351 373.156 29.7642C373.617 27.9808 372.806 26.7093 370.929 26.1632C368.372 25.3526 365.626 25.3526 363.069 26.1632C360.305 27.0762 358.53 28.945 358.368 31.9146C358.205 34.8842 359.724 36.7274 362.284 37.888C363.057 38.2464 363.842 38.5706 364.627 38.8949C365.412 39.2192 366.197 39.5434 366.969 39.9018C367.433 40.0494 367.831 40.3543 368.095 40.7641C368.358 41.1738 368.47 41.6626 368.411 42.1461C368.241 43.409 367.319 43.8869 366.193 44.0661C364.496 44.2944 362.77 44.0646 361.192 43.4005C361.017 43.3329 360.828 43.233 360.633 43.1296C359.866 42.7242 359.001 42.267 358.504 43.5114C357.984 44.8 358.009 46.3104 359.503 47.1637Z" fill="#F2F2F2"/>
<path d="M249.696 37.0347C249.696 42.6497 252.904 44.9366 257.606 42.7947C257.82 42.6943 258.057 42.5124 258.305 42.3226C259.046 41.7549 259.879 41.1167 260.448 42.3766C261.207 44.0576 261.173 45.9179 259.168 47.1211C255.865 49.1094 250.097 48.8278 247.05 46.4641C243.825 43.9467 242.545 37.8198 244.141 32.5462C245.404 28.3905 248.86 25.7963 253.433 25.583C255.244 25.4919 257.05 25.828 258.707 26.5643C259.356 26.8172 259.902 27.2792 260.259 27.8773C260.616 28.4754 260.764 29.1754 260.678 29.8667C260.618 31.6843 260.217 32.4267 258.186 31.471C252.597 28.928 249.662 30.9419 249.696 37.0347Z" fill="#F2F2F2"/>
<path d="M223.183 38.6217C223.78 44.9705 227.193 48.4009 233.619 48.4521C235.575 48.4988 237.503 47.9739 239.166 46.9417C240.872 45.7641 240.761 43.8015 240.019 42.3508C239.487 41.3122 238.812 41.8351 238.157 42.3412C237.898 42.542 237.642 42.7403 237.399 42.8372C234.959 43.81 232.586 44.1513 230.692 41.9839C228.798 39.8164 228.746 34.3551 230.632 32.034C232.518 29.7129 234.805 29.9604 237.254 31.0868C237.454 31.1799 237.67 31.3272 237.891 31.479C238.605 31.9674 239.386 32.5023 239.959 31.4282C240.36 30.7844 240.522 30.0211 240.42 29.27C240.317 28.519 239.955 27.8275 239.396 27.3151C238.639 26.7238 237.767 26.2966 236.836 26.0607C228.789 23.7567 222.372 29.6703 223.183 38.6217Z" fill="#F2F2F2"/>
<path d="M138.378 28.9365C140.392 26.9482 142.21 25.5232 144.847 26.001C146.238 26.2399 146.937 26.897 146.869 28.3392C146.794 29.8069 146.002 29.7211 145.031 29.616C144.901 29.602 144.768 29.5876 144.633 29.5765C143.841 29.5339 143.048 29.6518 142.302 29.9231C141.556 30.1944 140.872 30.6136 140.292 31.1554C139.712 31.6973 139.247 32.3507 138.926 33.0764C138.604 33.8022 138.433 34.5854 138.421 35.3792C138.353 37.2615 138.363 39.1465 138.372 41.0312C138.38 42.4443 138.387 43.858 138.361 45.2693C138.361 46.5493 138.361 47.9231 136.493 47.9744C134.428 48.0341 134.393 46.6175 134.385 45.1754V29.2266C134.385 29.066 134.379 28.8996 134.372 28.7312C134.331 27.6474 134.286 26.4791 135.904 26.2058C137.458 25.9432 137.767 26.9621 138.136 28.1816C138.211 28.428 138.288 28.6826 138.378 28.9365Z" fill="#F2F2F2"/>
<path fill-rule="evenodd" clip-rule="evenodd" d="M213.591 44.8427C213.975 47.1552 215.204 48.5205 217.687 48.0085C220.512 48.3243 221.22 47.2405 220.23 44.6976L219.951 43.9548C217.091 36.3431 214.23 28.7289 211.586 21.0347C210.693 18.4442 208.981 18.4149 206.979 18.3805L206.841 18.3781C206.745 18.3764 206.648 18.3745 206.551 18.3723C204.367 18.3211 202.737 18.5942 201.883 21.1115C200.301 25.7321 198.615 30.3284 196.933 34.9149L196.932 34.9168L196.93 34.9221C195.792 38.0242 194.656 41.1221 193.555 44.2197C193.479 44.4318 193.372 44.6645 193.26 44.9071C192.742 46.0319 192.126 47.3707 194.084 47.855C195.919 48.2987 198.47 48.7936 199.016 45.9435C199.81 41.7536 202.361 40.7723 206.107 41.3355C206.956 41.4653 207.819 41.4653 208.667 41.3355C211.483 40.9088 213.105 41.9926 213.591 44.8427ZM207.744 27.5936C207.411 26.6038 207.068 25.5857 206.713 24.5248C205.483 26.3163 204.954 28.0541 204.448 29.7173C204.315 30.1535 204.184 30.5846 204.042 31.0101C202.062 36.7531 202.54 37.2736 208.573 36.5824C209.956 36.4203 210.528 35.968 210.075 34.5942C209.323 32.2902 208.563 30.0293 207.745 27.5972L207.744 27.5936Z" fill="#F2F2F2"/>
<path fill-rule="evenodd" clip-rule="evenodd" d="M286.261 36.7017C286.261 44.1087 281.994 48.4692 274.673 48.4607C267.522 48.4607 263.673 44.6121 263.639 37.4441C263.597 29.8921 267.701 25.6255 275.048 25.5657C282.395 25.506 286.253 29.2948 286.261 36.7017ZM269.647 37.1115C269.783 34.6795 270.039 32.4352 272.07 30.976C272.702 30.5334 273.427 30.2434 274.19 30.1287C274.952 30.0141 275.731 30.078 276.465 30.3154C277.198 30.5528 277.867 30.9572 278.418 31.4968C278.969 32.0364 279.387 32.6965 279.639 33.4251C280.296 35.3488 280.402 37.4175 279.947 39.3984C279.332 42.3082 277.668 43.921 274.647 43.8272C271.627 43.7333 270.381 41.8731 269.911 39.1594C269.84 38.6845 269.782 38.2096 269.73 37.7764L269.729 37.7719C269.701 37.5373 269.674 37.3149 269.647 37.1115Z" fill="#F2F2F2"/>
<path fill-rule="evenodd" clip-rule="evenodd" d="M166.472 41.5915C166.463 40.8491 166.453 40.1067 166.453 39.3643H166.658C166.614 38.563 166.578 37.7609 166.542 36.9588L166.542 36.9566C166.459 35.1115 166.376 33.2655 166.197 31.4283C166.149 30.2976 165.743 29.2115 165.037 28.3265C164.332 27.4416 163.363 26.8036 162.272 26.5045C158.782 25.4254 155.014 25.709 151.725 27.2981C150.547 27.8613 149.668 28.7488 150.231 30.0373C150.765 31.2648 151.506 30.8128 152.205 30.3872C152.433 30.2477 152.658 30.1111 152.868 30.0373C153.115 29.9537 153.361 29.8673 153.606 29.781C155.667 29.0573 157.717 28.3374 159.951 29.2523C161.931 30.0629 162.545 31.6928 162.366 33.6384C162.213 35.3107 161.101 35.2593 160.032 35.21C159.726 35.1959 159.424 35.182 159.149 35.2085C157.027 35.3205 154.933 35.7343 152.928 36.4373C150.155 37.5723 148.704 39.6373 148.96 42.6496C149.199 45.4656 150.846 47.2661 153.611 48.0256C154.783 48.3791 156.017 48.4859 157.233 48.339C158.449 48.1921 159.621 47.7949 160.676 47.1723C161.692 46.6005 162.374 46.2165 163.458 47.4539C164.542 48.6912 166.368 48.2731 166.453 46.0459C166.51 44.5611 166.491 43.0763 166.472 41.5915ZM159.286 38.0372C159.129 38.0394 158.972 38.0417 158.816 38.0417C155.019 38.127 152.817 39.4668 152.996 41.967C153.175 44.4673 154.788 45.3974 157.118 45.3206C160.079 45.2267 162.374 43.1105 162.46 40.6017C162.553 37.9906 160.938 38.0136 159.286 38.0372Z" fill="#F2F2F2"/>
<path fill-rule="evenodd" clip-rule="evenodd" d="M127.166 38.9206V45.935C127.166 48.2731 125.519 48.7595 124.324 47.3942C123.243 46.1588 122.637 46.5093 121.792 46.998C121.703 47.0493 121.611 47.1026 121.517 47.1553C120.366 47.8299 119.081 48.2403 117.752 48.3569C116.424 48.4735 115.087 48.2933 113.837 47.8294C112.732 47.4486 111.762 46.7555 111.044 45.8342C110.326 44.9129 109.891 43.803 109.792 42.6393C109.693 41.4755 109.933 40.3079 110.485 39.2782C111.036 38.2485 111.874 37.4009 112.898 36.8385C114.865 35.7751 117.021 35.5298 119.181 35.2841C119.447 35.2538 119.714 35.2234 119.981 35.1915C120.282 35.1554 120.623 35.1823 120.968 35.2095C122.008 35.2916 123.091 35.377 123.283 33.7494C123.468 32.796 123.299 31.8077 122.808 30.9701C122.316 30.1326 121.535 29.5035 120.612 29.2011C118.525 28.4165 116.597 29.0242 114.628 29.6445C114.456 29.6989 114.283 29.7534 114.11 29.807C113.847 29.8892 113.559 30.0826 113.264 30.2815C112.454 30.8257 111.585 31.4104 111.003 29.8667C110.372 28.2046 111.917 27.538 113.165 26.9999L113.265 26.9568C116.243 25.734 119.539 25.5182 122.651 26.3424C125.485 26.9995 126.867 29.1414 127.072 31.9232C127.197 33.544 127.168 35.1772 127.139 36.8084C127.127 37.5132 127.114 38.2177 127.114 38.9206H127.166ZM120.287 38.0273L120.288 38.0273C121.915 37.9991 123.508 37.9715 123.377 40.5931C123.249 43.1531 120.723 45.3547 117.711 45.3377C115.543 45.3377 114.016 44.4417 113.828 42.1035C113.615 39.4753 115.714 38.1185 119.784 38.0331C119.951 38.0331 120.119 38.0302 120.287 38.0273Z" fill="#F2F2F2"/>
<path opacity="0.5" fill-rule="evenodd" clip-rule="evenodd" d="M66.016 23.6475C66.9873 21.5005 66.0342 18.9727 63.8873 18.0014L24.6735 0.261205C22.5266 -0.710064 19.9987 0.243004 19.0275 2.38994L2.15867 39.6775C1.1874 41.8244 2.14046 44.3522 4.2874 45.3235L43.5012 63.0637C45.6481 64.035 48.1759 63.0819 49.1472 60.935L66.016 23.6475ZM46.0756 30.7134C47.0505 28.5681 46.1016 26.0387 43.9563 25.0639L32.567 19.8884C30.4217 18.9136 27.8923 19.8624 26.9174 22.0077L22.0989 32.6117C21.124 34.757 22.0729 37.2864 24.2182 38.2612L35.6075 43.4367C37.7528 44.4115 40.2822 43.4627 41.2571 41.3174L46.0756 30.7134Z" fill="#F2F2F2"/>
<path opacity="0.5" fill-rule="evenodd" clip-rule="evenodd" d="M50.5733 4.44178C49.7419 2.23688 47.2806 1.12337 45.0757 1.95469L4.80311 17.1388C2.59821 17.9701 1.4847 20.4315 2.31602 22.6364L16.7542 60.9307C17.5856 63.1356 20.0469 64.2491 22.2518 63.4178L62.5244 48.2337C64.7293 47.4024 65.8428 44.941 65.0115 42.7361L50.5733 4.44178ZM41.4699 23.5382C40.6423 21.3319 38.1828 20.2143 35.9765 21.0419L24.2634 25.4358C22.0572 26.2634 20.9395 28.7229 21.7672 30.9292L25.8581 41.8346C26.6857 44.0409 29.1452 45.1585 31.3515 44.3308L43.0645 39.9369C45.2708 39.1093 46.3884 36.6498 45.5608 34.4435L41.4699 23.5382Z" fill="#F2F2F2"/>
</g>
<defs>
<clipPath id="clip0_5172_528">
<rect width="374.613" height="64" fill="white" transform="translate(0.124023)"/>
</clipPath>
</defs>
</svg>
