<svg width="91" height="124" viewBox="0 0 91 124" fill="none" xmlns="http://www.w3.org/2000/svg">
<path d="M0 16L12.5 0L24.5 16H0Z" fill="#075A5A"/>
<path d="M90.8398 0L90.8398 124L51.4201 106.395L12.0003 124L12.0003 -3.44618e-06L90.8398 0Z" fill="#229292"/>
<path d="M12 124V0H52.5679L51.1527 106.724L12 124Z" fill="#239C9C"/>
<path d="M40.5311 31.8182H41.8095C41.7509 30.1722 40.2328 28.9418 38.1234 28.9418C36.0353 28.9418 34.3947 30.1562 34.3947 31.9886C34.3947 33.4588 35.46 34.3324 37.1646 34.8224L38.5069 35.206C39.6575 35.5256 40.6802 35.9304 40.6802 37.017C40.6802 38.2102 39.5297 38.9986 38.0169 38.9986C36.7172 38.9986 35.5666 38.4233 35.46 37.1875H34.0964C34.2243 38.9773 35.6731 40.1918 38.0169 40.1918C40.5311 40.1918 41.9586 38.8068 41.9586 37.0384C41.9586 34.9929 40.0197 34.3324 38.8904 34.0341L37.7825 33.7358C36.9728 33.5227 35.6731 33.0966 35.6731 31.9247C35.6731 30.8807 36.6319 30.1136 38.0808 30.1136C39.4018 30.1136 40.4032 30.7422 40.5311 31.8182ZM46.3678 40.1918C47.7954 40.1918 48.5411 39.4247 48.7968 38.892H48.8607V40H50.1178V34.6094C50.1178 32.0099 48.1363 31.7116 47.0922 31.7116C45.8564 31.7116 44.4502 32.1378 43.811 33.6293L45.0042 34.0554C45.2812 33.4588 45.9363 32.8196 47.1349 32.8196C48.2907 32.8196 48.8607 33.4322 48.8607 34.4815V34.5241C48.8607 35.1314 48.2428 35.0781 46.7513 35.2699C45.2332 35.467 43.5766 35.8026 43.5766 37.6776C43.5766 39.2756 44.8124 40.1918 46.3678 40.1918ZM46.5596 39.0625C45.5581 39.0625 44.8337 38.6151 44.8337 37.7415C44.8337 36.7827 45.7073 36.4844 46.6874 36.3565C47.2201 36.2926 48.6476 36.1435 48.8607 35.8878V37.0384C48.8607 38.0611 48.051 39.0625 46.5596 39.0625ZM58.8097 31.8182H57.446L55.1875 38.3381H55.1023L52.8438 31.8182H51.4801L54.5057 40H55.7841L58.8097 31.8182ZM63.6064 40.1705C65.2683 40.1705 66.4828 39.3395 66.8663 38.1037L65.6518 37.7628C65.3322 38.6151 64.5918 39.0412 63.6064 39.0412C62.1309 39.0412 61.1135 38.0877 61.0549 36.3352H66.9941V35.8026C66.9941 32.7557 65.1831 31.7116 63.4785 31.7116C61.2626 31.7116 59.7924 33.4588 59.7924 35.973C59.7924 38.4872 61.2413 40.1705 63.6064 40.1705ZM61.0549 35.2486C61.1401 33.9755 62.0403 32.8409 63.4785 32.8409C64.8422 32.8409 65.7157 33.8636 65.7157 35.2486H61.0549ZM25.3308 76H36.7578V71.827H30.0888C32.3378 68.057 33.9953 64.729 35.0613 61.843C36.1403 58.957 36.6798 56.396 36.6798 54.16C36.6798 51.859 36.1988 50.0975 35.2368 48.8755C34.2748 47.6405 32.8838 47.023 31.0638 47.023C29.2178 47.023 27.8203 47.6535 26.8713 48.9145C25.9223 50.1625 25.4478 52.002 25.4478 54.433V56.422H29.6598V54.433C29.6598 52.093 30.1278 50.923 31.0638 50.923C31.5058 50.923 31.8568 51.248 32.1168 51.898C32.3768 52.548 32.4938 53.393 32.4678 54.433C32.4418 56.539 31.8178 59.074 30.5958 62.038C29.3868 64.989 27.6318 68.252 25.3308 71.827V76ZM45.1203 76.312C48.7863 76.312 50.6193 73.816 50.6193 68.824V62.428C50.6193 60.66 50.1838 59.23 49.3128 58.138C48.4548 57.046 47.3303 56.5 45.9393 56.5C45.5363 56.5 45.1528 56.5715 44.7888 56.7145C44.4248 56.8575 44.0023 57.111 43.5213 57.475V51.508H50.0733V47.335H39.8943V62.428H43.4433C43.4433 61.804 43.5928 61.297 43.8918 60.907C44.2038 60.517 44.6003 60.322 45.0813 60.322C45.9653 60.322 46.4073 61.024 46.4073 62.428V68.824C46.4073 70.176 46.3033 71.151 46.0953 71.749C45.9003 72.347 45.5753 72.646 45.1203 72.646C44.6393 72.646 44.3013 72.3665 44.1063 71.8075C43.9243 71.2355 43.8333 70.228 43.8333 68.785V67.654H39.6213C39.6213 70.709 40.0503 72.919 40.9083 74.284C41.7793 75.636 43.1833 76.312 45.1203 76.312ZM61.7361 61.999C62.6591 61.999 63.3871 61.6935 63.9201 61.0825C64.4661 60.4715 64.7391 59.659 64.7391 58.645V50.338C64.7391 49.337 64.4596 48.5375 63.9006 47.9395C63.3546 47.3285 62.6331 47.023 61.7361 47.023C60.8261 47.023 60.0916 47.3285 59.5326 47.9395C58.9736 48.5505 58.6941 49.35 58.6941 50.338V58.645C58.6941 59.646 58.9736 60.4585 59.5326 61.0825C60.0916 61.6935 60.8261 61.999 61.7361 61.999ZM60.6441 76H63.2571L73.6701 47.335H71.1741L60.6441 76ZM61.7361 59.698C61.2681 59.698 61.0341 59.347 61.0341 58.645V50.338C61.0341 50.039 61.0991 49.792 61.2291 49.597C61.3591 49.389 61.5281 49.285 61.7361 49.285C62.1781 49.285 62.3991 49.636 62.3991 50.338V58.645C62.3991 59.347 62.1781 59.698 61.7361 59.698ZM72.6561 76.312C73.5791 76.312 74.3071 76.0065 74.8401 75.3955C75.3861 74.7845 75.6591 73.972 75.6591 72.958V64.651C75.6591 63.65 75.3796 62.8505 74.8206 62.2525C74.2746 61.6415 73.5531 61.336 72.6561 61.336C71.7461 61.336 71.0116 61.6415 70.4526 62.2525C69.8936 62.8635 69.6141 63.663 69.6141 64.651V72.958C69.6141 73.959 69.8936 74.7715 70.4526 75.3955C71.0116 76.0065 71.7461 76.312 72.6561 76.312ZM72.6561 74.011C72.1881 74.011 71.9541 73.66 71.9541 72.958V64.651C71.9541 64.352 72.0191 64.105 72.1491 63.91C72.2791 63.702 72.4481 63.598 72.6561 63.598C73.0981 63.598 73.3191 63.949 73.3191 64.651V72.958C73.3191 73.66 73.0981 74.011 72.6561 74.011Z" fill="white"/>
</svg>
