<svg width="136" height="64" viewBox="0 0 136 64" fill="none" xmlns="http://www.w3.org/2000/svg">
<g opacity="0.8" clip-path="url(#clip0_5172_586)">
<path d="M8.06644 5.45144C8.94172 6.34094 9.72307 7.3208 10.6423 8.16412C11.3937 8.85484 12.257 9.23634 13.2841 8.95724C15.4332 8.38733 17.6235 7.98787 19.8348 7.76254C23.0321 7.4232 26.1995 6.83288 29.4269 6.87504C29.8106 6.87504 30.2962 6.73449 30.528 7.14009C30.7858 7.58785 30.2662 7.82478 30.0963 8.1601C29.6767 8.98535 28.9353 9.54154 28.3738 10.2483C28.03 10.9892 27.6264 11.688 26.9909 12.2241C26.6831 12.6839 26.2655 13.0674 26.0577 13.5955C25.5501 14.1979 24.9546 14.7561 24.6248 15.4849C24.3577 16.0137 24.0127 16.4991 23.6017 16.9246C22.0712 18.666 20.6951 20.5385 19.4891 22.5207C18.9435 23.0608 18.6597 23.7957 18.1462 24.3599C17.6845 24.653 17.4707 25.1229 17.2749 25.6028C16.8932 26.1028 16.4396 26.5385 16.0878 27.0666C15.6882 27.6689 15.4763 28.3717 14.9468 28.8737C14.1474 29.6387 13.5839 30.5784 13.0543 31.5382C12.6647 32.2148 12.4009 32.9818 11.7034 33.4356C11.5915 33.8232 11.2678 34.1103 11.2178 34.5219C10.2187 35.9495 9.49126 37.5338 8.52006 38.9855C7.89258 39.9212 7.59882 40.9833 8.28026 42.0676C8.51806 42.3487 8.87977 42.2945 9.18152 42.417C11.2998 42.5736 13.426 42.3909 15.5463 42.6178C16.4216 42.7102 17.125 42.2162 17.5446 41.3889C18.0622 40.385 18.5318 39.3489 19.0934 38.365C25.3362 27.3918 32.934 17.3684 40.6756 7.44328C41.2152 6.75055 41.8747 6.47346 42.74 6.45941C44.1673 6.45299 45.594 6.52001 47.0144 6.6602C49.4944 6.88508 51.9784 7.07985 54.4623 7.18225C56.7165 7.27462 58.9646 7.56175 61.2268 7.43525C62.2259 7.37702 62.5956 6.97142 62.3758 6.00361C62.2479 5.45688 62.2479 4.8878 62.3758 4.34107C62.2639 3.13632 62.0941 1.9637 60.6373 1.61834H60.6193L56.7305 0.943687L49.936 0.353365C49.7102 0.072258 49.4365 0.170645 49.1367 0.214819C48.5341 0.336027 47.9128 0.326442 47.3142 0.186708C42.738 -0.086367 38.1637 0.0240679 33.5875 0.186708C32.8181 0.309191 32.0507 0.407576 31.3033 0.0782796C30.9137 -0.0944003 30.6119 0.0260753 30.3661 0.349348C29.307 0.417617 28.2558 0.628447 27.1847 0.550139C26.3234 -0.0261303 25.1864 0.0481622 24.1872 0.750929L21.2036 0.95172C20.4782 0.349348 19.7668 0.672621 19.0574 0.991878C18.7815 1.32135 18.3871 1.52778 17.9603 1.56614C16.4376 1.8091 14.9208 2.09221 13.3981 2.33517C12.9384 2.40745 12.4768 2.44962 12.0592 2.17052C11.2598 1.83721 10.4605 2.29702 9.66112 2.20666C9.06162 2.48777 8.40016 2.52994 7.78666 2.74679C6.93136 3.05199 6.73153 3.51983 7.04927 4.40331C7.25111 4.88923 7.66876 5.1623 8.06644 5.45144Z" fill="#F2F2F2"/>
<path d="M134.504 55.8017C134.504 55.5527 134.41 55.3158 134.173 55.2455C133.393 55.0086 132.706 54.5086 131.872 54.4323C130.909 53.9771 129.895 53.6368 128.853 53.4183C127.964 52.8159 126.775 53.1392 125.907 52.4605C125.66 52.2598 125.444 52.0188 125.108 51.9907C124.365 52.0369 123.709 51.5449 122.968 51.6132C122.019 51.2633 121.03 51.0373 120.024 50.9406C118.825 50.6313 117.6 50.4406 116.399 50.1374C115.2 49.9989 114.001 49.9366 112.858 49.4949C111.799 49.2338 111.699 48.9668 112.436 48.1516C112.928 47.6095 113.38 47.0352 113.867 46.489C116.995 42.9893 120.408 39.7726 123.707 36.4495C124.706 35.4456 125.839 34.55 126.873 33.5662C128.671 31.8494 130.655 30.3254 132.328 28.4721C132.997 27.5906 132.938 27.3617 131.8 26.4341C130.923 25.7996 129.73 26.0546 128.863 25.388C128.726 25.2883 128.569 25.2198 128.403 25.1872C127.404 25.0807 126.425 24.8016 125.406 24.7856C124.868 24.894 124.315 24.9643 123.893 25.388C123.589 25.8427 123.164 26.2024 122.666 26.426C121.881 27.3577 120.849 28.0043 119.944 28.7994C118.09 30.8434 115.971 32.6004 113.845 34.3472C112.982 35.1002 111.879 35.4857 111.006 36.2246C110.27 36.5077 109.673 37.0459 108.949 37.347C108.842 37.5491 108.685 37.7203 108.493 37.8447C108.302 37.969 108.082 38.0424 107.854 38.0578C107.093 38.1261 106.481 38.612 105.766 38.8068C104.691 38.7245 104.503 38.4514 104.905 37.5257C105.146 36.9759 105.457 36.4602 105.832 35.9917C109.055 31.9197 112.662 28.199 116.253 24.4663C116.709 23.5949 116.181 23.0708 115.588 22.5709C115.162 22.1937 114.62 21.9759 114.053 21.9544C113.152 21.7536 112.276 21.4243 111.333 21.4525C110.114 21.3039 108.861 20.9906 107.936 22.2054C107.566 22.6733 107.107 23.0507 106.699 23.4784C104.581 25.6992 102.69 28.1307 100.42 30.2089C99.9346 30.6547 99.6469 31.3012 99.0334 31.6245C97.7065 33.1847 96.3376 34.7066 94.7509 35.9957C93.5919 36.9435 92.5927 38.1161 91.024 38.5156C90.4244 38.6662 89.9708 38.7606 89.4792 38.3891C89.0654 38.3658 88.6647 38.235 88.3162 38.0096C87.5528 37.3611 87.5808 36.574 87.9425 35.7447C88.1783 35.2655 88.4658 34.8137 88.7998 34.3974C90.4324 32.1807 92.3009 30.1467 94.0994 28.0404C97.0855 24.4669 100.413 21.1959 104.033 18.2739C106.489 16.3182 109.003 14.3907 111.403 12.3406C111.971 11.4471 111.869 11.2985 111.119 10.6499C110.034 9.71223 108.721 9.29258 107.44 8.80666C106.675 8.8669 105.918 8.60587 105.15 8.76249C103.985 8.60587 103.176 9.1962 102.383 9.96723C101.302 11.0073 100.029 11.8205 98.8375 12.7301C98.536 12.8927 98.2729 13.1187 98.0662 13.3927C97.3555 14.1288 96.5818 14.8007 95.7541 15.4006C95.3544 15.7119 95.0906 16.1456 94.7049 16.4608C94.0355 17.027 93.5459 17.8001 92.7365 18.2097C92.3369 18.6534 91.9152 19.0651 91.5375 19.5309C90.938 19.9787 90.4564 20.583 89.8589 21.0449C88.9716 22.0347 87.9565 22.9042 87.1551 23.9724C86.7175 24.4221 86.3318 24.9201 85.9002 25.3779C85.2287 26.0887 84.5992 26.8537 83.702 27.3095C83.1928 27.6165 82.7389 28.0075 82.3591 28.4661C81.9234 28.9359 81.4858 29.4299 80.8283 29.6166C80.3507 29.964 80.049 30.5242 79.4715 30.7491C78.9958 31.2832 78.7161 31.998 78.0206 32.3313C77.6909 32.4806 77.3904 32.688 77.1334 32.9437C75.6646 34.2468 74.2557 35.6363 72.3373 36.315C71.9097 36.6503 71.456 36.6162 70.9884 36.4194C70.333 35.9194 70.5528 35.307 70.7886 34.7167C71.0044 34.1886 71.3881 33.7609 71.7398 33.3111C74.7234 29.5242 77.9347 25.9542 81.266 22.4564C84.1876 19.4024 87.327 16.6616 90.4664 13.9088C91.9332 12.6177 93.6138 11.5635 94.8248 9.99133C95.0966 9.17812 94.9447 8.36091 94.2353 8.14807C92.9644 7.76857 91.9252 6.5799 90.4205 6.99754C89.3733 6.92526 88.3262 6.57989 87.281 7.00959C86.8993 7.08187 86.5017 6.85096 86.132 7.08388C85.4965 7.84889 84.6212 8.33882 83.9338 9.04159C82.8407 9.88089 82.0713 11.0535 81.0262 11.947C80.9419 11.9901 80.865 12.0463 80.7984 12.1137C80.2164 12.9113 79.5864 13.6724 78.9119 14.3927C78.1765 15.1356 77.4191 15.8765 76.7137 16.6556C75.7005 17.7679 74.6634 18.8984 73.3545 19.7036C73.0606 19.8463 72.7854 20.025 72.5351 20.2357C71.3801 21.3782 70.293 22.5909 69.09 23.6852C68.3766 24.1852 67.873 24.9181 67.1736 25.4301C66.8158 25.9 66.4442 26.3538 65.8866 26.6027C65.3536 27.1895 64.7749 27.7327 64.156 28.2271C64.0475 28.5471 63.8677 28.8379 63.6306 29.0776C63.3934 29.3174 63.1049 29.4996 62.7872 29.6106C62.2976 30.2933 61.6181 30.7631 60.9666 31.2631C60.7668 32.1124 59.9994 32.2771 59.344 32.5722C57.9483 34.1707 56.2861 35.5126 54.432 36.5379C53.8965 36.9997 53.3809 37.4976 52.6495 37.6442C51.4305 37.339 51.2846 36.8812 52.1259 35.9937C52.2164 35.8964 52.3125 35.8046 52.4137 35.7186C54.476 33.9858 56.2545 31.9638 58.1829 30.0965C58.5202 29.7808 58.7868 29.3965 58.9649 28.9693C59.143 28.5421 59.2287 28.0817 59.2161 27.6187C59.2161 27.0987 59.2161 26.5766 59.2161 26.0546C59.2153 25.0487 58.8615 24.0754 58.2169 23.3057C56.9819 21.7657 55.703 20.2939 53.9524 19.2658C52.7154 18.533 51.3985 18.282 50.0576 17.9928C49.635 18.0684 49.203 18.0738 48.7787 18.0089C46.4266 18.6113 44.3243 19.7658 42.25 20.9826C41.4507 21.324 40.8332 21.9364 40.0758 22.3339C39.9865 22.5193 39.8559 22.6816 39.694 22.808C39.5321 22.9344 39.3434 23.0216 39.1426 23.0628C38.1197 23.6508 37.1795 24.3734 36.3469 25.2113C36.213 25.3378 36.0791 25.4622 35.9472 25.5968C35.02 26.418 33.9708 27.1067 33.2135 28.1147C33.03 28.2542 32.8672 28.4191 32.7298 28.6046C31.6996 29.3845 30.8049 30.3302 30.082 31.4036C29.9042 31.6526 29.6264 31.8052 29.4485 32.0502C29.1148 32.8533 28.869 33.6906 28.9709 34.5842C28.7931 36.2186 29.7943 37.4394 30.4417 38.7847C30.8414 39.4011 31.5208 39.7264 31.9505 40.3187C33.1115 41.911 34.7482 42.7845 36.5907 43.3487C38.3892 43.9008 40.0878 43.7703 41.6285 42.6559C43.7348 41.1279 43.2932 41.642 45.0257 42.929C46.5285 44.0474 48.2631 44.6157 50.0776 44.3586C52.0509 44.0566 53.9781 43.504 55.8129 42.7142C58.143 41.7383 60.3272 40.4613 62.5254 39.2184C63.8683 38.4594 64.24 38.5799 65.0113 39.9754C65.465 40.7986 66.0245 41.5918 66.8738 41.9833C69.1879 43.0595 71.5979 43.4009 74.0079 42.3347C75.9204 41.4894 77.8488 40.6641 79.6433 39.5678C80.8603 38.8229 81.1681 38.9775 81.9594 40.1702C83.702 42.7804 86.05 44.3868 89.3074 44.4872C92.0759 44.5622 94.817 43.9198 97.2668 42.6218C98.3879 42.0496 98.6357 42.0355 99.439 42.9571C100.708 44.4149 102.293 44.6398 104.055 44.4229C104.299 44.3928 104.535 44.1759 104.823 44.3787C104.555 44.9369 104.093 45.3345 103.746 45.8144C103.654 46.2019 103.346 46.4167 103.102 46.7039C102.68 47.0272 102.503 47.5894 102.025 47.8564C101.226 48.1897 100.396 47.748 99.5889 47.9508C98.9894 48.1877 98.4039 48.3624 97.7544 48.2219C97.073 48.0733 96.3856 47.9588 95.7001 48.2219C95.7001 48.2219 95.7661 48.0211 95.7001 47.9126C95.6545 47.8185 95.5857 47.7376 95.5003 47.6777C94.1014 47.5291 92.7026 47.1376 91.2817 47.1677C90.3545 47.3986 89.4393 47.1075 88.518 47.0954C87.9585 47.0693 87.3969 47.1557 86.8374 47.0713C86.731 47.0563 86.6226 47.0645 86.5197 47.0954C85.9561 47.4428 85.3346 47.4729 84.6952 47.4829C81.8095 47.5191 78.9339 47.1376 76.0463 47.2822C75.4827 47.3083 74.9172 47.2822 74.3537 47.2822C73.8549 47.3026 73.3585 47.2042 72.9048 46.995C72.8084 46.988 72.7115 46.988 72.6151 46.995C70.8345 47.74 69.018 47.6335 67.2035 47.1777C67.0057 47.0905 66.7964 47.0323 66.582 47.0051C66.0085 47.1017 65.426 47.1333 64.8455 47.0994C63.8463 47.0874 62.8471 47.4046 61.8479 47.1697C60.0774 47.2079 58.3368 47.6235 56.5623 47.5994C55.7629 48.001 54.9116 47.7058 54.0863 47.75C52.7034 47.6356 51.3246 48.0833 49.9397 47.7801C48.341 47.8966 46.7583 48.1255 45.1696 48.3022C44.4782 48.3202 43.7908 48.4809 43.0953 48.3785C41.8224 48.6997 40.4975 48.7178 39.2225 49.0411C38.7709 49.1756 38.3372 48.9246 37.8896 48.9809C37.2341 49.0913 36.6087 49.3623 35.9332 49.3704C35.0899 49.4146 34.3625 50.0029 33.4872 49.8864C32.4041 50.031 31.301 49.9868 30.2239 50.2278C29.3766 50.1113 28.5633 50.5028 27.716 50.3924C26.7168 50.7117 25.6417 50.6956 24.6245 50.9647C24.1289 51.1092 23.5854 51.0129 23.1117 51.2699C22.3684 51.9465 21.3992 51.8501 20.5139 52.0168C19.0731 52.2859 17.6842 52.9063 16.1714 52.6935C16.0186 52.6861 15.8654 52.6928 15.7138 52.7135C14.807 52.957 13.8671 53.0526 12.9301 52.9967C11.7131 53.4725 10.4002 53.5508 9.15322 53.9062C8.196 54.107 7.24278 54.3259 6.29356 54.5548C4.57497 54.7255 3.01026 55.4604 1.36961 55.9121C0.586252 56.127 0.440372 56.631 0.620224 57.3016C0.810069 58.0044 1.24171 58.3417 1.9931 58.0204C2.28486 58.1791 2.56863 58.3517 2.87038 58.4923C4.64692 59.3216 6.40348 60.2994 8.46578 59.9159C15.8451 58.5251 23.2543 57.3137 30.6935 56.2816C34.7062 55.7174 38.687 54.9222 42.7236 54.5508C46.0949 54.2416 49.4581 53.836 52.8273 53.5207C56.4244 53.1814 60.0214 52.8019 63.6365 52.6152C67.3194 52.4144 71.0104 52.4405 74.6994 52.3662C76.7837 52.1814 78.8739 52.3019 80.9602 52.2939C82.449 52.2939 83.9418 52.1835 85.4286 52.3662C85.9901 52.4063 86.5496 52.4606 87.1132 52.4887C90.6503 52.6613 94.1874 52.8307 97.7244 52.9967C98.0542 53.0127 98.4399 52.9967 98.6137 53.326C98.8136 53.6854 98.4878 53.9384 98.288 54.1914C98.0202 54.5307 97.7444 54.86 97.4727 55.1953C96.8732 55.2094 96.6433 55.629 96.4735 56.123C96.3225 56.5869 96.0303 56.9915 95.6382 57.2795C95.4223 57.6691 95.1106 58.0064 95.0227 58.4622C94.6889 59.2051 94.2073 59.8677 93.8376 60.5946C93.6578 60.948 93.5659 61.2572 93.8237 61.5985C93.354 62.5101 93.8596 62.9238 94.637 63.2049C95.9579 63.7028 97.3548 63.8072 98.7356 63.9899C99.459 64.0863 100.071 63.9739 100.534 63.2631C102.019 61.0162 103.646 58.8577 105.062 56.5687C106.036 54.9945 107.061 54.3801 109.031 54.7616C116.273 56.1671 123.507 57.5727 130.496 60.0123C131.065 60.1917 131.649 60.3221 132.24 60.4018C132.567 60.4771 132.91 60.4369 133.212 60.2881C133.513 60.1393 133.754 59.8909 133.895 59.5846C134.228 58.9722 134.61 58.3899 134.972 57.7935C135.384 56.9824 134.844 56.4161 134.504 55.8017ZM39.3664 38.4213C38.9021 38.7804 38.3151 38.9398 37.734 38.8645C37.153 38.7892 36.6253 38.4854 36.2669 38.0197C35.9095 37.5532 35.7509 36.9634 35.8258 36.3795C35.9008 35.7957 36.2031 35.2655 36.6666 34.9054L49.4201 25.0667C49.6508 24.887 49.9146 24.755 50.1962 24.6782C50.4779 24.6014 50.7719 24.5814 51.0613 24.6193C51.3507 24.6572 51.6298 24.7522 51.8825 24.899C52.1352 25.0457 52.3564 25.2412 52.5336 25.4743C52.7107 25.705 52.8409 25.9685 52.9167 26.2498C52.9925 26.5311 53.0124 26.8246 52.9753 27.1136C52.9382 27.4026 52.8448 27.6814 52.7004 27.9342C52.5561 28.1869 52.3636 28.4086 52.1339 28.5865L39.3664 38.4213Z" fill="#F2F2F2"/>
</g>
<defs>
<clipPath id="clip0_5172_586">
<rect width="134.579" height="64" fill="white" transform="translate(0.544434)"/>
</clipPath>
</defs>
</svg>
