<svg width="139" height="26" viewBox="0 0 139 26" fill="none" xmlns="http://www.w3.org/2000/svg">
<path d="M30.8096 16.1755L41.5172 4.10102H30.9763V1.35687H45.6888V4.20085L34.9256 16.2254H45.8558V19.0195H30.8096V16.1755ZM47.5736 6.90794H50.9172V19.0195H47.5735V6.90794H47.5736ZM47.0163 2.87075C47.0163 2.39646 47.2107 1.98354 47.5998 1.6319C47.9888 1.28035 48.4819 1.10449 49.0789 1.10449C49.676 1.10449 50.1781 1.27211 50.5851 1.60742C50.9922 1.94266 51.1958 2.36382 51.1958 2.87075C51.1958 3.37776 50.9923 3.79884 50.5852 4.13416C50.178 4.46939 49.676 4.63709 49.0789 4.63709C48.4819 4.63709 47.9888 4.46123 47.5998 4.10959C47.2107 3.75796 47.0163 3.34504 47.0163 2.87075ZM55.7499 7.00695V8.68835H55.8323C55.9973 8.45412 56.2126 8.21573 56.4783 7.97309C56.744 7.73054 57.0693 7.51304 57.454 7.32061C57.8389 7.12827 58.274 6.96931 58.7596 6.84383C59.2453 6.71834 59.7903 6.65564 60.395 6.65564C61.3296 6.65564 62.1908 6.81876 62.9788 7.145C63.7668 7.47124 64.4447 7.91872 65.0127 8.4876C65.5808 9.05631 66.0205 9.72561 66.3321 10.4952C66.6436 11.2647 66.7994 12.0929 66.7994 12.9795C66.7994 13.8663 66.6481 14.6986 66.3458 15.4765C66.0435 16.2544 65.6129 16.932 65.054 17.5091C64.4951 18.0864 63.8171 18.5464 63.02 18.8894C62.2229 19.2324 61.3204 19.4038 60.3126 19.4038C59.378 19.4038 58.5214 19.2281 57.7426 18.8768C56.9639 18.5255 56.3637 18.0487 55.9423 17.4464H55.8873V25.0753H52.5889V7.00695H55.7499ZM63.4557 13.0646C63.4557 12.5937 63.3765 12.1269 63.218 11.6642C63.0596 11.2017 62.8219 10.7853 62.505 10.4152C62.188 10.0452 61.7872 9.74659 61.3025 9.51952C60.8178 9.29245 60.2493 9.17888 59.5968 9.17888C58.9815 9.17888 58.4316 9.29662 57.947 9.5321C57.4622 9.76766 57.0474 10.0704 56.7026 10.4405C56.3577 10.8106 56.0966 11.2311 55.9196 11.702C55.7425 12.1732 55.6539 12.6441 55.6539 13.1151C55.6539 13.5861 55.7425 14.0529 55.9196 14.5155C56.0967 14.9781 56.3577 15.3944 56.7026 15.7645C57.0474 16.1346 57.4622 16.4332 57.947 16.6602C58.4316 16.8874 58.9816 17.0009 59.5968 17.0009C60.2493 17.0009 60.8178 16.8831 61.3025 16.6477C61.7872 16.4122 62.188 16.1093 62.505 15.7392C62.8219 15.3692 63.0596 14.9487 63.218 14.4777C63.3765 14.0067 63.4557 13.5357 63.4557 13.0647V13.0646ZM68.1467 1.35687H75.7928C76.5316 1.35687 77.2611 1.43581 77.9814 1.59385C78.7017 1.75181 79.3436 2.0096 79.9068 2.36723C80.4702 2.72478 80.9272 3.18633 81.2781 3.7518C81.6291 4.31718 81.8045 4.99913 81.8045 5.79741C81.8045 6.79537 81.4905 7.61862 80.8625 8.26719C80.2346 8.91584 79.4127 9.38155 78.397 9.66424V9.7142C79.6344 9.86383 80.6502 10.2962 81.4443 11.0115C82.2385 11.7266 82.6356 12.6829 82.6356 13.8804C82.6356 14.845 82.4233 15.6558 81.9985 16.3127C81.5737 16.9697 81.015 17.4977 80.3224 17.8968C79.6298 18.296 78.8356 18.583 77.9399 18.7576C77.0435 18.9323 76.1286 19.0201 75.2111 19.0195H68.1467V1.35687ZM71.4901 8.4219H74.5979C75.7633 8.4219 76.6513 8.21623 77.2617 7.80481C77.8722 7.39347 78.1774 6.80919 78.1774 6.05229C78.1774 5.26234 77.8629 4.70287 77.2339 4.37372C76.605 4.04464 75.6246 3.88011 74.2927 3.88011H71.4901V8.4219ZM71.4901 16.244H74.6271C75.0713 16.244 75.5524 16.2153 76.0707 16.1582C76.5888 16.101 77.0654 15.9826 77.5003 15.803C77.9353 15.6233 78.2961 15.362 78.583 15.0191C78.8698 14.6761 79.0132 14.2189 79.0132 13.6472C79.0132 12.7326 78.6616 12.0957 77.9583 11.7364C77.2551 11.3771 76.191 11.1974 74.7659 11.1974H71.4901V16.2439V16.244ZM83.4715 12.9141C83.4715 11.9703 83.6611 11.1135 84.0405 10.3436C84.4198 9.57373 84.9333 8.91559 85.581 8.36928C86.2286 7.82288 86.9965 7.40072 87.8848 7.1027C88.773 6.80461 89.7167 6.65556 90.716 6.65556C91.7152 6.65556 92.6588 6.80461 93.5472 7.1027C94.4353 7.40072 95.2033 7.82288 95.851 8.36919C96.4986 8.91559 97.0121 9.57373 97.3914 10.3436C97.7708 11.1135 97.9605 11.9703 97.9605 12.9141C97.9605 13.8578 97.7708 14.7187 97.3914 15.4969C97.0121 16.275 96.4986 16.9414 95.851 17.4962C95.2033 18.0507 94.4353 18.4854 93.5472 18.7999C92.6589 19.1145 91.7152 19.2718 90.716 19.2718C89.7167 19.2718 88.773 19.1145 87.8848 18.7999C86.9965 18.4854 86.2285 18.0508 85.581 17.4962C84.9333 16.9414 84.4198 16.275 84.0405 15.4969C83.6611 14.7187 83.4715 13.8578 83.4715 12.914V12.9141ZM86.815 13.0647C86.815 13.5357 86.8946 14.0067 87.0536 14.4777C87.2127 14.9487 87.4512 15.3692 87.7693 15.7392C88.0873 16.1093 88.4896 16.4122 88.976 16.6477C89.4624 16.8831 90.0424 17.0009 90.716 17.0009C91.3895 17.0009 91.9694 16.8831 92.4559 16.6477C92.9424 16.4122 93.3446 16.1093 93.6627 15.7392C93.9807 15.3692 94.2193 14.9487 94.3783 14.4777C94.5374 14.0067 94.6168 13.5357 94.6168 13.0647C94.6168 12.5937 94.5374 12.1269 94.3783 11.6642C94.2193 11.2017 93.9807 10.7853 93.6627 10.4152C93.3446 10.0452 92.9424 9.74659 92.4559 9.51952C91.9695 9.29245 91.3895 9.17888 90.716 9.17888C90.0424 9.17888 89.4624 9.29245 88.976 9.51944C88.4896 9.74659 88.0873 10.0452 87.7693 10.4152C87.4512 10.7853 87.2127 11.2017 87.0536 11.6642C86.8946 12.1269 86.815 12.5937 86.815 13.0647ZM98.8423 12.914C98.8423 11.9703 99.0319 11.1135 99.4112 10.3436C99.7906 9.57373 100.304 8.91559 100.952 8.36928C101.599 7.82288 102.367 7.40072 103.256 7.1027C104.144 6.80461 105.088 6.65556 106.087 6.65556C107.086 6.65556 108.03 6.80461 108.918 7.1027C109.806 7.40072 110.574 7.82288 111.222 8.36919C111.869 8.91559 112.383 9.57373 112.762 10.3436C113.142 11.1135 113.331 11.9703 113.331 12.9141C113.331 13.8578 113.142 14.7187 112.762 15.4969C112.383 16.275 111.869 16.9414 111.222 17.4962C110.574 18.0507 109.806 18.4854 108.918 18.7999C108.03 19.1145 107.086 19.2718 106.087 19.2718C105.088 19.2718 104.144 19.1145 103.256 18.7999C102.367 18.4854 101.599 18.0508 100.952 17.4962C100.304 16.9414 99.7906 16.275 99.4113 15.4969C99.0319 14.7187 98.8423 13.8578 98.8423 12.914ZM102.186 13.0647C102.186 13.5357 102.265 14.0067 102.424 14.4777C102.583 14.9487 102.822 15.3692 103.14 15.7392C103.458 16.1093 103.86 16.4122 104.347 16.6477C104.833 16.8831 105.413 17.0009 106.087 17.0009C106.76 17.0009 107.34 16.8831 107.827 16.6477C108.313 16.4122 108.715 16.1093 109.033 15.7392C109.352 15.3692 109.59 14.9487 109.749 14.4777C109.908 14.0067 109.988 13.5357 109.988 13.0647C109.988 12.5937 109.908 12.1269 109.749 11.6642C109.59 11.2017 109.352 10.7853 109.033 10.4152C108.715 10.0452 108.313 9.74659 107.827 9.51952C107.34 9.29245 106.76 9.17888 106.087 9.17888C105.413 9.17888 104.833 9.29245 104.347 9.51944C103.86 9.74659 103.458 10.0452 103.14 10.4152C102.822 10.7853 102.583 11.2017 102.424 11.6642C102.265 12.1269 102.186 12.5937 102.186 13.0647ZM114.446 0.0952148H117.775V12.0606H117.859L122.908 7.00412H127.181L121.41 12.436L127.542 19.0195H123.13L117.859 12.8616H117.775V19.0195H114.446V0.0952148ZM136.046 10.1822C135.755 9.83452 135.355 9.53235 134.845 9.27572C134.335 9.01909 133.78 8.89078 133.179 8.89078C132.651 8.89078 132.169 8.99011 131.732 9.18887C131.295 9.38746 131.077 9.71862 131.077 10.1822C131.077 10.6458 131.318 10.9728 131.801 11.1631C132.283 11.3536 132.988 11.5482 133.916 11.7468C134.408 11.8462 134.904 11.9786 135.405 12.1442C135.905 12.3097 136.36 12.5291 136.77 12.8023C137.179 13.0754 137.511 13.4149 137.766 13.8205C138.021 14.2262 138.149 14.7187 138.149 15.2982C138.149 16.0267 137.998 16.6434 137.698 17.1484C137.398 17.6534 136.997 18.0632 136.497 18.3778C135.996 18.6924 135.414 18.92 134.749 19.0607C134.085 19.2015 133.398 19.2718 132.688 19.2718C131.668 19.2718 130.677 19.1021 129.712 18.7627C128.747 18.4233 127.946 17.9391 127.309 17.3099L129.466 15.4721C129.83 15.9026 130.303 16.2585 130.886 16.54C131.468 16.8214 132.114 16.9622 132.824 16.9622C133.061 16.9622 133.302 16.9374 133.548 16.8876C133.794 16.838 134.021 16.7594 134.23 16.6517C134.437 16.5467 134.61 16.3973 134.736 16.2171C134.863 16.035 134.927 15.8115 134.927 15.5465C134.927 15.0499 134.677 14.6939 134.176 14.4786C133.675 14.2634 132.924 14.0482 131.923 13.8329C131.436 13.7347 130.957 13.6061 130.49 13.448C130.026 13.2908 129.612 13.0838 129.248 12.8271C128.884 12.5705 128.592 12.2518 128.374 11.871C128.155 11.4902 128.046 11.0183 128.046 10.4554C128.046 9.79314 128.196 9.22193 128.497 8.74181C128.797 8.26161 129.193 7.86834 129.684 7.56209C130.176 7.25583 130.731 7.02818 131.35 6.87913C131.969 6.73008 132.606 6.65564 133.261 6.65564C134.208 6.65564 135.131 6.80469 136.033 7.1027C136.933 7.40072 137.648 7.85602 138.176 8.46861L136.046 10.1822L136.046 10.1822Z" fill="white"/>
<path d="M0 9.69754C0 9.23649 0.41023 8.86279 0.939589 8.86279H2.63662C3.15562 8.86279 3.5763 9.24232 3.5763 9.69754V18.8548H0V9.69763V9.69754Z" fill="white"/>
<path d="M6.17725 5.58845C6.17725 5.12449 6.58747 4.74829 7.11683 4.74829H8.81385C9.33284 4.74829 9.75353 5.12566 9.75353 5.58845V18.8547H6.17725V5.58845Z" fill="white"/>
<path d="M12.6799 7.0467C12.6799 6.58873 13.0902 6.21753 13.6195 6.21753H15.3166C15.8356 6.21753 16.2563 6.59573 16.2563 7.0467V18.8545H12.6799V7.0467Z" fill="white"/>
<path d="M18.8569 1.76856C18.8569 1.30434 19.2673 0.927979 19.7966 0.927979H21.4937C22.0126 0.927979 22.4333 1.30243 22.4333 1.76856V18.8549H18.8569V1.76856Z" fill="white"/>
</svg>
