<svg width="46" height="46" viewBox="0 0 46 46" fill="none" xmlns="http://www.w3.org/2000/svg">
<path fill-rule="evenodd" clip-rule="evenodd" d="M10.7961 10.7961C11.1525 10.4396 11.6742 10.3045 12.1588 10.4429L16.8048 11.7704C25.9883 14.3942 34.8797 17.9497 43.3402 22.3815L44.4826 22.9798C44.8737 23.1847 45.144 23.5635 45.2106 24C45.2772 24.4364 45.1322 24.8786 44.82 25.1908L37.2955 32.7153C36.7838 33.227 35.9648 33.2597 35.4139 32.7905L35.0927 32.5168C32.052 29.9266 28.8274 27.5637 25.4453 25.4461C27.5927 28.8757 29.9924 32.1431 32.6255 35.2211L32.7886 35.4117C33.2597 35.9625 33.2278 36.783 32.7153 37.2955L25.1908 44.82C24.8786 45.1322 24.4364 45.2773 23.9999 45.2106C23.5635 45.144 23.1847 44.8737 22.9798 44.4826L22.3815 43.3403C17.9497 34.8797 14.3942 25.9883 11.7703 16.8048L10.4429 12.1588C10.3045 11.6742 10.4396 11.1525 10.7961 10.7961ZM13.7985 13.7985L14.4395 16.0422C16.9566 24.8519 20.3483 33.3873 24.5638 41.5211L29.8489 36.2361C26.3604 32.0559 23.2827 27.5484 20.6589 22.7758L20.3758 22.2608C20.0781 21.7193 20.1742 21.0462 20.6116 20.6097C21.049 20.1732 21.7222 20.0784 22.2631 20.3771L22.9217 20.7408C27.64 23.3467 32.0981 26.3968 36.2355 29.8494L41.5211 24.5638C33.3873 20.3483 24.8519 16.9566 16.0422 14.4395L13.7985 13.7985Z" fill="#A9A9A9"/>
</svg>
