<svg width="24" height="24" viewBox="0 0 24 24" fill="none" xmlns="http://www.w3.org/2000/svg">
<path fill-rule="evenodd" clip-rule="evenodd" d="M12.9992 3C12.9992 2.44772 12.5515 2 11.9992 2C11.4469 2 10.9992 2.44772 10.9992 3V3.75H10.4418C8.21672 3.75 6.37512 5.48001 6.23622 7.70074L6.01522 11.2342C5.93096 12.5814 5.47867 13.8797 4.70761 14.9876C4.01093 15.9886 4.63115 17.3712 5.84208 17.5165L9.24921 17.9254V19C9.24921 20.5188 10.4804 21.75 11.9992 21.75C13.518 21.75 14.7492 20.5188 14.7492 19V17.9254L18.1563 17.5165C19.3673 17.3712 19.9875 15.9886 19.2908 14.9876C18.5197 13.8797 18.0674 12.5814 17.9832 11.2342L17.7622 7.70074C17.6233 5.48001 15.7817 3.75 13.5566 3.75H12.9992V3ZM10.7492 19C10.7492 19.6904 11.3089 20.25 11.9992 20.25C12.6896 20.25 13.2492 19.6904 13.2492 19V18.25H10.7492V19Z" fill="#075A5A"/>
</svg>
