<svg width="16" height="16" viewBox="0 0 16 16" fill="none" xmlns="http://www.w3.org/2000/svg">
<path d="M4.45843 1.33333C4.45843 0.988154 4.1786 0.708332 3.83343 0.708332C3.48825 0.708332 3.20843 0.988154 3.20843 1.33333V2.84702C1.9642 3.02293 0.981239 4.00704 0.814841 5.26236L0.742715 5.80649C0.730487 5.89874 0.718794 5.99105 0.707637 6.0834C0.67804 6.32837 0.871044 6.54167 1.1178 6.54167H14.8823C15.1291 6.54167 15.3221 6.32837 15.2925 6.0834C15.2813 5.99105 15.2696 5.89874 15.2574 5.80649L15.1853 5.26236C15.0189 4.00706 14.036 3.02295 12.7918 2.84703V1.33333C12.7918 0.988154 12.5119 0.708332 12.1668 0.708332C11.8216 0.708332 11.5418 0.988154 11.5418 1.33333V2.72303C9.18531 2.51317 6.81487 2.51317 4.45843 2.72302V1.33333Z" fill="#4F4F4F"/>
<path d="M15.4539 8.18796C15.4466 7.96594 15.2631 7.79167 15.041 7.79167H0.959147C0.737004 7.79167 0.553532 7.96594 0.546237 8.18796C0.496738 9.69434 0.58824 11.2038 0.820518 12.6965C0.996359 13.8266 1.91441 14.6945 3.05253 14.8068L4.0467 14.9048C6.6759 15.1641 9.32423 15.1641 11.9534 14.9048L12.9476 14.8068C14.0857 14.6945 15.0038 13.8266 15.1796 12.6965C15.4119 11.2038 15.5034 9.69434 15.4539 8.18796Z" fill="#4F4F4F"/>
</svg>
