<svg width="225" height="194" viewBox="0 0 225 194" fill="none" xmlns="http://www.w3.org/2000/svg">
<path d="M38.5 108.5C47.5 119.667 65.8 144.3 67 153.5" stroke="#A9A9A9" stroke-linecap="round" stroke-linejoin="round" stroke-dasharray="3 6"/>
<ellipse cx="143" cy="79.5" rx="82" ry="79.5" fill="#D3EBEB"/>
<path d="M189.676 84.1947L189.699 84.2206L189.723 84.2459L201.112 96.4792V190.754H100.528V73.0076H179.732L189.676 84.1947Z" fill="white" stroke="#075A5A" stroke-width="6"/>
<path d="M127.254 105.091H124.948V116H127.254V105.091ZM138.277 105.091H135.981V111.952H135.885L131.176 105.091H129.152V116H131.458V109.134H131.538L136.284 116H138.277V105.091ZM142.153 105.091H139.591L143.357 116H146.329L150.09 105.091H147.533L144.891 113.379H144.79L142.153 105.091ZM160.813 110.546C160.813 106.977 158.597 104.942 155.704 104.942C152.796 104.942 150.596 106.977 150.596 110.546C150.596 114.098 152.796 116.149 155.704 116.149C158.597 116.149 160.813 114.114 160.813 110.546ZM158.474 110.546C158.474 112.857 157.377 114.109 155.704 114.109C154.026 114.109 152.934 112.857 152.934 110.546C152.934 108.234 154.026 106.982 155.704 106.982C157.377 106.982 158.474 108.234 158.474 110.546ZM164.828 105.091H162.521V116H164.828V105.091ZM176.351 108.91C176.047 106.391 174.14 104.942 171.615 104.942C168.733 104.942 166.533 106.977 166.533 110.546C166.533 114.104 168.696 116.149 171.615 116.149C174.412 116.149 176.1 114.29 176.351 112.282L174.018 112.271C173.799 113.438 172.883 114.109 171.652 114.109C169.996 114.109 168.872 112.879 168.872 110.546C168.872 108.276 169.98 106.982 171.668 106.982C172.931 106.982 173.842 107.712 174.018 108.91H176.351ZM178.005 116H185.377V114.098H180.311V111.494H184.977V109.592H180.311V106.993H185.355V105.091H178.005V116Z" fill="#01655E"/>
<path d="M123.722 124.203H179.724V128.719H123.722V124.203Z" fill="#A9A9A9"/>
<path d="M123.722 132.332H179.724V136.849H123.722V132.332Z" fill="#A9A9A9"/>
<path d="M123.722 140.462H151.723V144.978H123.722V140.462Z" fill="#A9A9A9"/>
<path d="M123.722 148.591H151.723V153.107H123.722V148.591Z" fill="#A9A9A9"/>
<path d="M123.722 156.72H151.723V161.236H123.722V156.72Z" fill="#A9A9A9"/>
<path fill-rule="evenodd" clip-rule="evenodd" d="M75.2077 158.523C78.2602 153.96 83.5884 150.932 89.6552 150.932C98.7978 150.932 106.271 157.808 106.795 166.478C106.997 166.47 107.199 166.466 107.402 166.466C115.251 166.466 121.614 172.588 121.614 180.14C121.614 187.692 115.251 193.814 107.402 193.814H70.4296C60.1304 193.814 51.7812 185.78 51.7812 175.871C51.7812 165.961 60.1304 157.928 70.4296 157.928C72.0789 157.928 73.6809 158.135 75.2077 158.523ZM86.6973 184.652C87.2688 184.652 87.7932 184.458 88.2035 184.135L96.1192 178.042C97.1458 177.252 97.3123 175.811 96.491 174.823C95.6697 173.835 94.1717 173.675 93.1451 174.465L89.0778 177.596V167.092C89.0778 165.827 88.012 164.802 86.6973 164.802C85.3826 164.802 84.3169 165.827 84.3169 167.092V177.596L80.2494 174.465C79.2228 173.675 77.7248 173.835 76.9035 174.823C76.0822 175.811 76.2487 177.252 77.2753 178.042L85.2017 184.144C85.6056 184.458 86.1185 184.648 86.6773 184.652L86.6973 184.652Z" fill="#5170FD"/>
<path d="M201.801 52.6982C203.778 50.7487 206.511 49.5443 209.532 49.5443C215.56 49.5443 220.446 54.3453 220.446 60.2677C220.446 66.19 215.56 70.991 209.532 70.991C203.504 70.991 198.618 66.19 198.618 60.2677C198.618 59.655 198.112 59.1583 197.488 59.1583C196.865 59.1583 196.359 59.655 196.359 60.2677C196.359 67.4153 202.257 73.2096 209.532 73.2096C216.807 73.2096 222.704 67.4153 222.704 60.2677C222.704 53.12 216.807 47.3257 209.532 47.3257C205.886 47.3257 202.585 48.782 200.201 51.1321C200.163 51.1699 200.128 51.2097 200.097 51.2512L198.203 49.3911C197.997 49.1882 197.689 49.121 197.415 49.2187C197.14 49.3164 196.948 49.5613 196.921 49.8471L196.389 55.5994C196.369 55.818 196.449 56.0341 196.607 56.1893C196.765 56.3445 196.985 56.4227 197.207 56.4029L203.062 55.8799C203.353 55.8539 203.602 55.665 203.701 55.3952C203.801 55.1254 203.732 54.8234 203.526 54.6205L201.677 52.804C201.72 52.7722 201.762 52.7369 201.801 52.6982Z" fill="black"/>
<path d="M210.661 52.8722C210.661 52.2596 210.155 51.7629 209.532 51.7629C208.908 51.7629 208.403 52.2596 208.403 52.8722V60.2677C208.403 60.6501 208.603 61.0056 208.933 61.2083L213.45 63.9816C213.979 64.3063 214.675 64.1484 215.006 63.6289C215.336 63.1093 215.175 62.4249 214.647 62.1002L210.661 59.6528V52.8722Z" fill="black"/>
<path fill-rule="evenodd" clip-rule="evenodd" d="M10.7961 80.7961C11.1525 80.4396 11.6742 80.3045 12.1588 80.4429L16.8048 81.7704C25.9883 84.3942 34.8797 87.9497 43.3402 92.3815L44.4826 92.9798C44.8737 93.1847 45.144 93.5635 45.2106 94C45.2772 94.4364 45.1322 94.8786 44.82 95.1908L37.2955 102.715C36.7838 103.227 35.9648 103.26 35.4139 102.79L35.0927 102.517C32.052 99.9266 28.8274 97.5637 25.4453 95.4461C27.5927 98.8757 29.9924 102.143 32.6255 105.221L32.7886 105.412C33.2597 105.962 33.2278 106.783 32.7153 107.295L25.1908 114.82C24.8786 115.132 24.4364 115.277 23.9999 115.211C23.5635 115.144 23.1847 114.874 22.9798 114.483L22.3815 113.34C17.9497 104.88 14.3942 95.9883 11.7703 86.8048L10.4429 82.1588C10.3045 81.6742 10.4396 81.1525 10.7961 80.7961ZM13.7985 83.7985L14.4395 86.0422C16.9566 94.8519 20.3483 103.387 24.5638 111.521L29.8489 106.236C26.3604 102.056 23.2827 97.5484 20.6589 92.7758L20.3758 92.2608C20.0781 91.7193 20.1742 91.0462 20.6116 90.6097C21.049 90.1732 21.7222 90.0784 22.2631 90.3771L22.9217 90.7408C27.64 93.3467 32.0981 96.3968 36.2355 99.8494L41.5211 94.5638C33.3873 90.3483 24.8519 86.9566 16.0422 84.4395L13.7985 83.7985Z" fill="#A9A9A9"/>
</svg>
