<svg width="11" height="20" viewBox="0 0 11 20" fill="none" xmlns="http://www.w3.org/2000/svg">
<path d="M7.58428 0.875C6.35765 0.875 5.18126 1.36228 4.31391 2.22963C3.44655 3.09699 2.95928 4.27337 2.95928 5.5V8.075H0.484277C0.360013 8.075 0.259277 8.17574 0.259277 8.3V11.7C0.259277 11.8243 0.360013 11.925 0.484277 11.925H2.95928V18.9C2.95928 19.0243 3.06001 19.125 3.18428 19.125H6.58428C6.70854 19.125 6.80928 19.0243 6.80928 18.9V11.925H9.3062C9.40944 11.925 9.49944 11.8547 9.52448 11.7546L10.3745 8.35457C10.41 8.21256 10.3026 8.075 10.1562 8.075H6.80928V5.5C6.80928 5.29446 6.89093 5.09733 7.03627 4.95199C7.18161 4.80665 7.37873 4.725 7.58428 4.725H10.1843C10.3085 4.725 10.4093 4.62426 10.4093 4.5V1.1C10.4093 0.975736 10.3085 0.875 10.1843 0.875H7.58428Z" fill="#A9A9A9"/>
</svg>
