<svg width="60" height="47" viewBox="0 0 60 47" fill="none" xmlns="http://www.w3.org/2000/svg">
<path d="M54.3932 46.1333H5.43932C2.43409 46.1333 0 44.2704 0 41.9704V4.50448C0 2.20449 2.43409 0.341599 5.43932 0.341599H32.6359V19.0746H24.4769V25.3189H32.6359V28.6721C32.6359 35.0205 36.6773 37.8075 43.5716 37.8075C46.8733 37.8075 48.6193 37.6202 49.4461 37.5349V31.5632H44.7438C41.8175 31.5632 40.7949 30.381 40.7949 27.9873V25.3189H49.3727L48.2087 19.0746H40.7949V0.341599H54.3932C57.3984 0.341599 59.8325 2.20449 59.8325 4.50448V41.9704C59.8325 44.2704 57.3957 46.1333 54.3932 46.1333Z" fill="url(#paint0_linear)"/>
<defs>
<linearGradient id="paint0_linear" x1="29.9162" y1="74.8999" x2="29.9162" y2="0.341605" gradientUnits="userSpaceOnUse">
<stop offset="0.520295" stop-color="#888888" stop-opacity="0"/>
<stop offset="1" stop-color="#005889" stop-opacity="0.2"/>
</linearGradient>
</defs>
</svg>
