<svg width="19" height="20" viewBox="0 0 19 20" fill="none" xmlns="http://www.w3.org/2000/svg">
<path d="M3.10822 5.56678C2.87058 5.50368 2.67307 5.33762 2.56911 5.11349C2.46514 4.88937 2.46546 4.63036 2.56998 4.4065L4.40367 0.478988C4.54032 0.186307 4.83286 -0.000398601 5.15418 6.39015e-07C5.4755 0.000401348 5.76758 0.187835 5.90351 0.480855L6.71243 2.22463C6.74135 2.21319 6.77121 2.20327 6.80194 2.19499C11.602 0.900552 16.5359 3.76742 17.822 8.59831C19.1082 13.4292 16.2596 18.3948 11.4596 19.6892C6.65952 20.9836 1.72565 18.1168 0.439482 13.2859C0.0304853 11.7497 0.0396862 10.1974 0.397904 8.75422C0.508747 8.30766 0.958303 8.03608 1.40201 8.14763C1.84573 8.25919 2.11557 8.71163 2.00473 9.15819C1.71291 10.3339 1.70487 11.5985 2.03925 12.8545C3.08868 16.7961 7.11439 19.1353 11.0309 18.0791C14.9475 17.023 17.2717 12.9714 16.2223 9.02972C15.19 5.15248 11.278 2.82578 7.42278 3.75594L8.23895 5.51534C8.37488 5.80836 8.33011 6.15407 8.1241 6.40224C7.91809 6.65041 7.58804 6.75625 7.27735 6.67376L3.10822 5.56678Z" fill="black"/>
</svg>
