<svg width="62" height="59" viewBox="0 0 62 59" fill="none" xmlns="http://www.w3.org/2000/svg">
<path d="M18.1734 0C8.44939 0 0.539551 7.60049 0.539551 16.938V41.1283C0.539551 50.4634 8.45671 58.0568 18.1832 58.0568H43.3814C53.1054 58.0568 61.0153 50.4563 61.0153 41.1189V16.9285C61.0153 7.59346 53.0981 0 43.3716 0H18.1734ZM48.4162 9.67614C49.8071 9.67614 50.936 10.7599 50.936 12.0952C50.936 13.4305 49.8071 14.5142 48.4162 14.5142C47.0252 14.5142 45.8963 13.4305 45.8963 12.0952C45.8963 10.7599 47.0252 9.67614 48.4162 9.67614ZM30.7774 14.5142C39.1155 14.5142 45.8963 21.0238 45.8963 29.0284C45.8963 37.033 39.1155 43.5426 30.7774 43.5426C22.4393 43.5426 15.6585 37.033 15.6585 29.0284C15.6585 21.0238 22.4393 14.5142 30.7774 14.5142ZM30.7774 19.3523C28.1042 19.3523 25.5405 20.3717 23.6503 22.1863C21.76 24.001 20.6981 26.4621 20.6981 29.0284C20.6981 31.5947 21.76 34.0558 23.6503 35.8705C25.5405 37.6851 28.1042 38.7046 30.7774 38.7046C33.4506 38.7046 36.0143 37.6851 37.9045 35.8705C39.7948 34.0558 40.8567 31.5947 40.8567 29.0284C40.8567 26.4621 39.7948 24.001 37.9045 22.1863C36.0143 20.3717 33.4506 19.3523 30.7774 19.3523Z" fill="url(#paint0_linear)"/>
<defs>
<linearGradient id="paint0_linear" x1="-24.0889" y1="-21.269" x2="89.6733" y2="105.35" gradientUnits="userSpaceOnUse">
<stop stop-color="#FEDA75"/>
<stop offset="0.284375" stop-color="#FA7E1E"/>
<stop offset="0.497917" stop-color="#D62976"/>
<stop offset="0.732292" stop-color="#962FBF"/>
<stop offset="1" stop-color="#4F5BD5"/>
</linearGradient>
</defs>
</svg>
