<svg width="60" height="55" viewBox="0 0 60 55" fill="none" xmlns="http://www.w3.org/2000/svg">
<path d="M54.3722 54.8269H5.5194C2.52038 54.8269 0.0913086 52.6103 0.0913086 49.8737V5.29473C0.0913086 2.55808 2.52038 0.341518 5.5194 0.341518H54.3722C57.3713 0.341518 59.8003 2.55808 59.8003 5.29473V49.8737C59.8003 52.6103 57.3713 54.8269 54.3722 54.8269ZM18.9648 10.248H10.9583V33.7559H18.9648V10.248ZM14.8801 37.1167C12.2991 37.1167 10.212 39.0261 10.212 41.3764C10.212 43.7267 12.3018 45.6337 14.8801 45.6337C17.4531 45.6337 19.5456 43.7243 19.5456 41.3764C19.5456 39.0261 17.4531 37.1167 14.8801 37.1167ZM48.955 10.248H40.954V21.68C40.954 24.4067 40.8997 27.9136 36.7934 27.9136C32.6273 27.9136 31.9868 24.9441 31.9868 21.8781V10.248H23.9858V33.7559H31.6665V30.5438H31.7751C32.8444 32.3913 35.4553 34.3404 39.35 34.3404C47.4568 34.3404 48.955 29.4714 48.955 23.1412V10.248Z" fill="url(#paint0_linear)"/>
<defs>
<linearGradient id="paint0_linear" x1="29.9458" y1="89.0549" x2="29.9458" y2="0.341517" gradientUnits="userSpaceOnUse">
<stop offset="0.520295" stop-color="#888888" stop-opacity="0"/>
<stop offset="1" stop-color="#005889" stop-opacity="0.2"/>
</linearGradient>
</defs>
</svg>
