<svg width="37" height="38" viewBox="0 0 37 38" fill="none" xmlns="http://www.w3.org/2000/svg">
<path d="M25.147 0.583374C25.4343 0.583374 25.7098 0.69751 25.913 0.900675L32.0413 7.02893C32.4643 7.452 32.4643 8.13793 32.0413 8.561L12.1244 28.4778C11.9883 28.6139 11.8184 28.7113 11.6322 28.76L3.33726 30.9266C2.96514 31.0238 2.56939 30.9165 2.29744 30.6445C2.02549 30.3726 1.91811 29.9768 2.0153 29.6047L4.18197 21.3098C4.23061 21.1235 4.328 20.9536 4.4641 20.8175L24.3809 0.900675C24.5841 0.69751 24.8597 0.583374 25.147 0.583374Z" fill="black"/>
<path d="M2.16602 34.7084C1.26855 34.7084 0.541016 35.4359 0.541016 36.3334C0.541016 37.2308 1.26855 37.9584 2.16602 37.9584H34.666C35.5635 37.9584 36.291 37.2308 36.291 36.3334C36.291 35.4359 35.5635 34.7084 34.666 34.7084H2.16602Z" fill="black"/>
</svg>
