<svg width="26" height="30" viewBox="0 0 26 30" fill="none" xmlns="http://www.w3.org/2000/svg">
<g filter="url(#filter0_d)">
<path fill-rule="evenodd" clip-rule="evenodd" d="M15.3849 15.9457C12.7346 18.0684 8.8552 17.9013 6.39842 15.4445C3.76238 12.8085 3.76238 8.53464 6.39842 5.8986C9.03445 3.26256 13.3083 3.26256 15.9444 5.8986C18.4011 8.35538 18.5682 12.2348 16.4456 14.8851L21.6012 20.0407C21.8941 20.3336 21.8941 20.8085 21.6012 21.1014C21.3083 21.3943 20.8334 21.3943 20.5405 21.1014L15.3849 15.9457ZM7.45908 14.3839C5.40882 12.3336 5.40882 9.00951 7.45908 6.95926C9.50933 4.90901 12.8334 4.90901 14.8837 6.95926C16.9324 9.00801 16.9339 12.3287 14.8882 14.3794C14.8867 14.3809 14.8852 14.3823 14.8837 14.3839C14.8822 14.3854 14.8807 14.3869 14.8792 14.3884C12.8286 16.4341 9.50783 16.4326 7.45908 14.3839Z" fill="#01655E"/>
</g>
<defs>
<filter id="filter0_d" x="-3" y="0.5" width="32" height="32" filterUnits="userSpaceOnUse" color-interpolation-filters="sRGB">
<feFlood flood-opacity="0" result="BackgroundImageFix"/>
<feColorMatrix in="SourceAlpha" type="matrix" values="0 0 0 0 0 0 0 0 0 0 0 0 0 0 0 0 0 0 127 0" result="hardAlpha"/>
<feOffset dy="4"/>
<feGaussianBlur stdDeviation="2"/>
<feComposite in2="hardAlpha" operator="out"/>
<feColorMatrix type="matrix" values="0 0 0 0 0 0 0 0 0 0 0 0 0 0 0 0 0 0 0.25 0"/>
<feBlend mode="normal" in2="BackgroundImageFix" result="effect1_dropShadow"/>
<feBlend mode="normal" in="SourceGraphic" in2="effect1_dropShadow" result="shape"/>
</filter>
</defs>
</svg>
