<svg width="18" height="18" viewBox="0 0 18 18" fill="none" xmlns="http://www.w3.org/2000/svg">
<path d="M6.29201 9C6.29201 7.50423 7.50457 6.29167 9.00035 6.29167C10.4961 6.29167 11.7087 7.50423 11.7087 9C11.7087 10.4958 10.4961 11.7083 9.00035 11.7083C7.50457 11.7083 6.29201 10.4958 6.29201 9Z" fill="#4F4F4F"/>
<path fill-rule="evenodd" clip-rule="evenodd" d="M8.55095 0.532097C8.79663 0.277896 9.20407 0.277896 9.44976 0.532097L11.5934 2.75H14.6254C14.9705 2.75 15.2504 3.02982 15.2504 3.375V6.407L17.4683 8.5506C17.7225 8.79628 17.7225 9.20372 17.4683 9.44941L15.2504 11.593V14.625C15.2504 14.9702 14.9705 15.25 14.6254 15.25H11.5934L9.44976 17.4679C9.20407 17.7221 8.79663 17.7221 8.55095 17.4679L6.40734 15.25H3.37535C3.03018 15.25 2.75035 14.9702 2.75035 14.625V11.593L0.532448 9.44941C0.278247 9.20372 0.278246 8.79628 0.532447 8.5506L2.75035 6.40699V3.375C2.75035 3.02982 3.03017 2.75 3.37535 2.75H6.40734L8.55095 0.532097ZM9.00035 5.04167C6.81422 5.04167 5.04201 6.81387 5.04201 9C5.04201 11.1861 6.81422 12.9583 9.00035 12.9583C11.1865 12.9583 12.9587 11.1861 12.9587 9C12.9587 6.81387 11.1865 5.04167 9.00035 5.04167Z" fill="#4F4F4F"/>
</svg>
