<svg width="21" height="17" viewBox="0 0 21 17" fill="none" xmlns="http://www.w3.org/2000/svg">
<path d="M20.194 2.22724C20.252 2.14647 20.1664 2.04218 20.0737 2.07811C19.415 2.33344 18.7265 2.50571 18.0243 2.5906C18.8062 2.12348 19.4096 1.4124 19.7442 0.570533C19.7783 0.484774 19.6846 0.408187 19.6038 0.452801C18.8771 0.854139 18.0933 1.14313 17.2792 1.30957C17.2451 1.31654 17.21 1.30494 17.1861 1.27969C16.5751 0.635016 15.7709 0.205781 14.8941 0.0574517C13.999 -0.0939932 13.0788 0.0559587 12.2781 0.48379C11.4773 0.911621 10.8412 1.59313 10.4695 2.42144C10.1161 3.209 10.0208 4.08691 10.1951 4.93003C10.2086 4.99545 10.1574 5.05721 10.0907 5.05307C8.50667 4.95469 6.95897 4.53336 5.54296 3.81446C4.13055 3.09739 2.87982 2.09983 1.86695 0.883296C1.82199 0.829305 1.7368 0.836293 1.70404 0.898445C1.38887 1.49651 1.22386 2.16311 1.22431 2.8406C1.22303 3.51498 1.38852 4.17922 1.70606 4.77416C2.0236 5.36911 2.48332 5.87631 3.04431 6.2506C2.44938 6.23441 1.86605 6.08734 1.33555 5.82067C1.26719 5.78631 1.18518 5.83524 1.18874 5.91167C1.2301 6.80091 1.55656 7.69364 2.12162 8.37857C2.72294 9.10744 3.55756 9.60624 4.48431 9.7906C4.12756 9.89917 3.75718 9.95641 3.38431 9.9606C3.18136 9.95823 2.97882 9.94325 2.77784 9.91578C2.70332 9.90559 2.64247 9.97637 2.66856 10.0469C2.94498 10.7944 3.4333 11.4467 4.07538 11.9228C4.76183 12.4318 5.58988 12.7142 6.44431 12.7306C5.00151 13.8659 3.22019 14.4855 1.38431 14.4906C1.19566 14.4912 1.0071 14.4851 0.818987 14.4723C0.712979 14.4651 0.664224 14.6063 0.755599 14.6605C2.54437 15.7221 4.58889 16.2831 6.67431 16.2806C8.214 16.2966 9.74144 16.0056 11.1674 15.4247C12.5934 14.8437 13.8893 13.9845 14.9795 12.8971C16.0697 11.8097 16.9323 10.516 17.5169 9.09151C18.1015 7.66702 18.3963 6.14033 18.3843 4.6006V4.12077C18.3843 4.0892 18.3992 4.05951 18.4244 4.04048C19.1027 3.52834 19.6992 2.91691 20.194 2.22724Z" fill="#A9A9A9"/>
</svg>
