<svg width="32" height="32" viewBox="0 0 32 32" fill="none" xmlns="http://www.w3.org/2000/svg">
<circle cx="16" cy="16" r="16" fill="#075A5A"/>
<path fill-rule="evenodd" clip-rule="evenodd" d="M11.75 11.5C11.75 9.15279 13.6528 7.25 16 7.25C18.3472 7.25 20.25 9.15279 20.25 11.5C20.25 13.8472 18.3472 15.75 16 15.75C13.6528 15.75 11.75 13.8472 11.75 11.5ZM16 8.75C14.4812 8.75 13.25 9.98122 13.25 11.5C13.25 13.0188 14.4812 14.25 16 14.25C17.5188 14.25 18.75 13.0188 18.75 11.5C18.75 9.98122 17.5188 8.75 16 8.75Z" fill="white"/>
<path fill-rule="evenodd" clip-rule="evenodd" d="M12 18.75C10.7574 18.75 9.75 19.7574 9.75 21V22.1883C9.75 22.2064 9.76311 22.2218 9.78097 22.2247C13.8997 22.8972 18.1003 22.8972 22.219 22.2247C22.2369 22.2218 22.25 22.2064 22.25 22.1883V21C22.25 19.7574 21.2426 18.75 20 18.75H19.6591C19.6328 18.75 19.6066 18.7542 19.5815 18.7623L18.716 19.045C16.9512 19.6212 15.0488 19.6212 13.284 19.045L12.4185 18.7623C12.3934 18.7542 12.3672 18.75 12.3409 18.75H12ZM8.25 21C8.25 18.9289 9.92893 17.25 12 17.25H12.3409C12.5254 17.25 12.7087 17.2792 12.8841 17.3364L13.7496 17.6191C15.2119 18.0965 16.7881 18.0965 18.2504 17.6191L19.1159 17.3364C19.2913 17.2792 19.4746 17.25 19.6591 17.25H20C22.0711 17.25 23.75 18.9289 23.75 21V22.1883C23.75 22.9415 23.2041 23.5837 22.4607 23.7051C18.1819 24.4037 13.8181 24.4037 9.53927 23.7051C8.79588 23.5837 8.25 22.9415 8.25 22.1883V21Z" fill="white"/>
</svg>
