<svg width="63" height="52" viewBox="0 0 63 52" fill="none" xmlns="http://www.w3.org/2000/svg">
<path d="M31.8688 0.411377C21.925 0.411377 9.01871 2.82564 9.01871 2.82564L8.98624 2.8616C4.45733 3.56347 0.987549 7.33452 0.987549 11.9207V25.7319V25.7364V39.5431V39.5476C0.991968 41.7379 1.80203 43.8549 3.27228 45.5185C4.74253 47.1822 6.77667 48.2835 9.00944 48.6246L9.01871 48.6381C9.01871 48.6381 21.925 51.0569 31.8688 51.0569C41.8126 51.0569 54.7189 48.6381 54.7189 48.6381L54.7235 48.6336C56.9587 48.2932 58.9952 47.191 60.4666 45.5254C61.9379 43.8598 62.7477 41.7401 62.75 39.5476V39.5431V25.7364V25.7319V11.9207C62.7467 9.72961 61.9372 7.6115 60.4668 5.94692C58.9965 4.28234 56.9617 3.18041 54.7282 2.83912L54.7189 2.82564C54.7189 2.82564 41.8126 0.411377 31.8688 0.411377ZM24.7424 15.1397L43.7462 25.7319L24.7424 36.324V15.1397Z" fill="#EC0000"/>
</svg>
