<svg width="16" height="20" viewBox="0 0 16 20" fill="none" xmlns="http://www.w3.org/2000/svg">
<path fill-rule="evenodd" clip-rule="evenodd" d="M10.3226 0.25641C10.3226 0.114799 10.207 0 10.0645 0H2.83871C1.27093 0 0 1.26279 0 2.82051V17.1795C0 18.7372 1.27093 20 2.83871 20H13.1613C14.7291 20 16 18.7372 16 17.1795V7.07391C16 6.9323 15.8845 6.8175 15.7419 6.8175H11.0968C10.6692 6.8175 10.3226 6.4731 10.3226 6.04827V0.25641ZM11.0968 10.2564C11.5243 10.2564 11.871 10.6008 11.871 11.0256C11.871 11.4505 11.5243 11.7949 11.0968 11.7949H4.90323C4.47565 11.7949 4.12903 11.4505 4.12903 11.0256C4.12903 10.6008 4.47565 10.2564 4.90323 10.2564H11.0968ZM11.0968 14.359C11.5243 14.359 11.871 14.7034 11.871 15.1282C11.871 15.553 11.5243 15.8974 11.0968 15.8974H4.90323C4.47565 15.8974 4.12903 15.553 4.12903 15.1282C4.12903 14.7034 4.47565 14.359 4.90323 14.359H11.0968Z" fill="black"/>
<path d="M11.871 0.588857C11.871 0.399631 12.0698 0.279483 12.218 0.398345C12.3428 0.498461 12.455 0.615752 12.5507 0.748256L15.6611 5.05379C15.7319 5.15182 15.6552 5.27904 15.5338 5.27904H12.129C11.9865 5.27904 11.871 5.16424 11.871 5.02262V0.588857Z" fill="black"/>
</svg>
