<svg width="54" height="54" viewBox="0 0 54 54" fill="none" xmlns="http://www.w3.org/2000/svg">
<path fill-rule="evenodd" clip-rule="evenodd" d="M31.5 5.0625C31.5 4.75184 31.2482 4.5 30.9375 4.5H15.1875C11.7702 4.5 9 7.27024 9 10.6875V42.1875C9 45.6048 11.7702 48.375 15.1875 48.375H37.6875C41.1048 48.375 43.875 45.6048 43.875 42.1875V20.0184C43.875 19.7077 43.6232 19.4559 43.3125 19.4559H33.1875C32.2555 19.4559 31.5 18.7004 31.5 17.7684V5.0625ZM33.1875 27C34.1195 27 34.875 27.7555 34.875 28.6875C34.875 29.6195 34.1195 30.375 33.1875 30.375H19.6875C18.7555 30.375 18 29.6195 18 28.6875C18 27.7555 18.7555 27 19.6875 27H33.1875ZM33.1875 36C34.1195 36 34.875 36.7555 34.875 37.6875C34.875 38.6195 34.1195 39.375 33.1875 39.375H19.6875C18.7555 39.375 18 38.6195 18 37.6875C18 36.7555 18.7555 36 19.6875 36H33.1875Z" fill="black"/>
<path d="M34.875 5.7918C34.875 5.37669 35.3084 5.11311 35.6314 5.37387C35.9035 5.5935 36.148 5.8508 36.3567 6.14149L43.1363 15.5868C43.2906 15.8018 43.1235 16.0809 42.8588 16.0809H35.4375C35.1268 16.0809 34.875 15.829 34.875 15.5184V5.7918Z" fill="black"/>
</svg>
