<svg width="17" height="20" viewBox="0 0 17 20" fill="none" xmlns="http://www.w3.org/2000/svg">
<path fill-rule="evenodd" clip-rule="evenodd" d="M3.80624 4.96218V5.34858H2.30532C1.85818 5.34858 1.47869 5.69122 1.41386 6.15347L1.19522 7.71259C0.76826 10.7572 0.76826 13.8506 1.19522 16.8952C1.38653 18.2594 2.43943 19.3141 3.75203 19.4563L4.38081 19.5244C7.15653 19.8252 9.95458 19.8252 12.7303 19.5244L13.3591 19.4563C14.6717 19.3141 15.7246 18.2594 15.9159 16.8952C16.3429 13.8506 16.3429 10.7572 15.9159 7.71259L15.6972 6.15347C15.6324 5.69122 15.2529 5.34858 14.8058 5.34858H13.3049V4.96219C13.3049 2.69761 11.8375 0.720317 9.73833 0.156344C8.96244 -0.0521147 8.14868 -0.0521146 7.37278 0.156344C5.27364 0.720317 3.80624 2.6976 3.80624 4.96218ZM9.36483 1.67398C8.83395 1.53135 8.27717 1.53135 7.74629 1.67398C6.31003 2.05985 5.30602 3.41274 5.30602 4.96218V5.34858H11.8051V4.96219C11.8051 3.41274 10.8011 2.05985 9.36483 1.67398ZM5.30602 6.91559C5.30602 6.48287 4.97028 6.13209 4.55613 6.13209C4.14198 6.13209 3.80624 6.48287 3.80624 6.91559V9.00493C3.80624 9.43765 4.14198 9.78843 4.55613 9.78843C4.97028 9.78843 5.30602 9.43765 5.30602 9.00493V6.91559ZM13.3049 6.91559C13.3049 6.48287 12.9691 6.13209 12.555 6.13209C12.1408 6.13209 11.8051 6.48287 11.8051 6.91559V9.00493C11.8051 9.43765 12.1408 9.78843 12.555 9.78843C12.9691 9.78843 13.3049 9.43765 13.3049 9.00493V6.91559Z" fill="#075A5A"/>
</svg>
