<svg width="16" height="16" viewBox="0 0 16 16" fill="none" xmlns="http://www.w3.org/2000/svg">
<path d="M14.6412 3.09129C15.1196 2.61288 15.1196 1.83722 14.6412 1.35881C14.1628 0.880397 13.3871 0.880397 12.9087 1.35881L8 6.26752L3.09129 1.35881C2.61288 0.880397 1.83722 0.880397 1.35881 1.35881C0.880397 1.83722 0.880398 2.61288 1.35881 3.09129L6.26752 8L1.35881 12.9087C0.880397 13.3871 0.880397 14.1628 1.35881 14.6412C1.83722 15.1196 2.61288 15.1196 3.09129 14.6412L8 9.73248L12.9087 14.6412C13.3871 15.1196 14.1628 15.1196 14.6412 14.6412C15.1196 14.1628 15.1196 13.3871 14.6412 12.9087L9.73248 8L14.6412 3.09129Z" fill="black" stroke="black" stroke-width="0.3" stroke-linecap="round"/>
</svg>
