<svg width="12" height="16" viewBox="0 0 12 16" fill="none" xmlns="http://www.w3.org/2000/svg">
<path fill-rule="evenodd" clip-rule="evenodd" d="M2.64938 6.7741C2.64938 4.74315 4.1495 3.09673 6 3.09673C7.8505 3.09673 9.35062 4.74315 9.35062 6.7741C9.35062 8.80506 7.8505 10.4515 6 10.4515C4.1495 10.4515 2.64938 8.80506 2.64938 6.7741ZM6 4.25801C4.73387 4.25801 3.70747 5.3845 3.70747 6.7741C3.70747 8.1637 4.73387 9.2902 6 9.2902C7.26613 9.2902 8.29253 8.1637 8.29253 6.7741C8.29253 5.3845 7.26613 4.25801 6 4.25801Z" fill="#828282"/>
<path fill-rule="evenodd" clip-rule="evenodd" d="M0.0213365 5.8891C0.271277 2.56118 2.80516 0 5.84766 0H6.15234C9.19484 0 11.7287 2.56118 11.9787 5.8891C12.1129 7.6768 11.6098 9.45192 10.5752 10.8406L7.19422 15.3787C6.577 16.2071 5.42301 16.2071 4.80579 15.3787L1.42479 10.8406C0.390217 9.45192 -0.112927 7.6768 0.0213365 5.8891ZM5.84766 1.16128C3.35583 1.16128 1.28055 3.25891 1.07585 5.9845C0.964107 7.47235 1.38286 8.94974 2.24391 10.1055L5.6249 14.6436C5.81877 14.9038 6.18123 14.9038 6.3751 14.6436L9.75609 10.1055C10.6171 8.94974 11.0359 7.47235 10.9241 5.9845C10.7194 3.25891 8.64418 1.16128 6.15234 1.16128H5.84766Z" fill="#828282"/>
</svg>
