<svg width="22" height="26" viewBox="0 0 22 26" fill="none" xmlns="http://www.w3.org/2000/svg">
<g filter="url(#filter0_d)">
<path d="M11 0C7.84645 0 5.27273 2.76334 5.27273 6.14921V7.90613H3.63636C2.73227 7.90613 2 8.69235 2 9.66305V20.2046C2 21.1753 2.73227 21.9615 3.63636 21.9615H18.3636C19.2677 21.9615 20 21.1753 20 20.2046V9.66305C20 8.69235 19.2677 7.90613 18.3636 7.90613H16.7273V6.14921C16.7273 2.87395 14.3027 0.235924 11.2908 0.0634824C11.1983 0.0234641 11.0997 0.00194944 11 0ZM11 1.75692C13.2694 1.75692 15.0909 3.71266 15.0909 6.14921V7.90613H6.90909V6.14921C6.90909 3.71266 8.73064 1.75692 11 1.75692Z" fill="white"/>
</g>
<defs>
<filter id="filter0_d" x="0" y="0" width="22" height="25.9615" filterUnits="userSpaceOnUse" color-interpolation-filters="sRGB">
<feFlood flood-opacity="0" result="BackgroundImageFix"/>
<feColorMatrix in="SourceAlpha" type="matrix" values="0 0 0 0 0 0 0 0 0 0 0 0 0 0 0 0 0 0 127 0" result="hardAlpha"/>
<feOffset dy="2"/>
<feGaussianBlur stdDeviation="1"/>
<feColorMatrix type="matrix" values="0 0 0 0 0 0 0 0 0 0 0 0 0 0 0 0 0 0 0.3 0"/>
<feBlend mode="normal" in2="BackgroundImageFix" result="effect1_dropShadow"/>
<feBlend mode="normal" in="SourceGraphic" in2="effect1_dropShadow" result="shape"/>
</filter>
</defs>
</svg>
