<svg width="71" height="44" viewBox="0 0 71 44" fill="none" xmlns="http://www.w3.org/2000/svg">
<path fill-rule="evenodd" clip-rule="evenodd" d="M24.2077 8.52327C27.2602 3.9599 32.5884 0.932251 38.6552 0.932251C47.7978 0.932251 55.2714 7.80786 55.7953 16.4782C55.9965 16.47 56.1987 16.4659 56.4019 16.4659C64.2508 16.4659 70.6135 22.5879 70.6135 30.1398C70.6135 37.6916 64.2508 43.8136 56.4019 43.8136H19.4296C9.13038 43.8136 0.78125 35.7804 0.78125 25.871C0.78125 15.9615 9.13038 7.92829 19.4296 7.92829C21.0789 7.92829 22.6809 8.13486 24.2077 8.52327ZM35.6973 34.652C36.2688 34.652 36.7932 34.4583 37.2035 34.1354L45.1192 28.0424C46.1458 27.2522 46.3123 25.8109 45.491 24.8231C44.6697 23.8354 43.1717 23.6752 42.1451 24.4654L38.0778 27.5961V17.0923C38.0778 15.8274 37.012 14.8019 35.6973 14.8019C34.3826 14.8019 33.3169 15.8274 33.3169 17.0923V27.5963L29.2494 24.4654C28.2228 23.6752 26.7248 23.8354 25.9035 24.8231C25.0822 25.8109 25.2487 27.2522 26.2753 28.0424L34.2017 34.1436C34.6056 34.4579 35.1185 34.6475 35.6773 34.652L35.6973 34.652Z" fill="#5170FD"/>
</svg>
