<svg width="38" height="34" viewBox="0 0 38 34" fill="none" xmlns="http://www.w3.org/2000/svg">
<path fill-rule="evenodd" clip-rule="evenodd" d="M34.2 34C36.2987 34 38 32.3086 38 30.2222L38 9.44444C38 7.35803 36.2987 5.66666 34.2 5.66666L21.85 5.66667L21.3485 5.66666L19.5488 2.0883C18.9051 0.808452 17.5893 0 16.15 0H3.8C1.70132 0 0 1.69137 0 3.77778L6.33436e-06 19.8333L3.62396e-06 30.2222C3.71207e-06 31.2242 0.400361 32.185 1.113 32.8935C1.82564 33.602 2.79218 34 3.8 34H34.2ZM16.15 3.77778L17.1 5.66667H3.8V3.77778L7.6 3.77778L16.15 3.77778ZM3.8 19.8333L3.8 9.44444L20.1743 9.44444L21.85 9.44444H30.4H34.2L34.2 13.2222V26.4444V30.2222H30.4L7.6 30.2222H3.8L3.8 26.4444L3.8 19.8333ZM21.8381 13.7063C21.1888 13.0609 20.1362 13.0609 19.4869 13.7063L12.8369 20.3174C12.5252 20.6274 12.35 21.0478 12.35 21.4861V24.7917C12.35 25.7045 13.0943 26.4444 14.0125 26.4444H17.3375C17.7784 26.4444 18.2013 26.2703 18.5131 25.9604L25.1631 19.3492C25.8123 18.7038 25.8123 17.6573 25.1631 17.0119L21.8381 13.7063Z" fill="#FBA43F"/>
</svg>
