<svg width="60" height="56" viewBox="0 0 60 56" fill="none" xmlns="http://www.w3.org/2000/svg">
<path d="M54.2809 0.743652H5.42809C2.42907 0.743652 0 2.96023 0 5.69691V50.2762C0 53.0129 2.42907 55.2294 5.42809 55.2294H32.5686V32.9398H24.4264V25.5099H32.5686V21.5201C32.5686 13.9664 36.6016 10.6502 43.4817 10.6502C46.7766 10.6502 48.519 10.8731 49.3441 10.9746V18.08H44.6515C41.7312 18.08 40.7107 19.4868 40.7107 22.3349V25.5099H49.2708L48.1092 32.9398H40.7107V55.2294H54.2809C57.2799 55.2294 59.709 53.0129 59.709 50.2762V5.69691C59.709 2.96023 57.2772 0.743652 54.2809 0.743652Z" fill="#005889"/>
</svg>
