<svg width="38" height="39" viewBox="0 0 38 39" fill="none" xmlns="http://www.w3.org/2000/svg">
<circle opacity="0.1" cx="19" cy="19.0732" r="19" fill="#FBA43F"/>
<circle cx="19" cy="19.0732" r="18.75" stroke="#FBA43F" stroke-width="0.5"/>
<path d="M13.3777 13.39C13.3777 14.5712 14.2745 15.5288 15.3808 15.5288H22.2488C23.3551 15.5288 24.252 14.5712 24.252 13.39V9.32766C24.252 9.14117 24.3936 8.98999 24.5682 8.98999C24.7352 8.98999 24.8939 9.06789 25.0026 9.20325L28.3939 13.425C28.8639 14.0102 29.1094 14.7633 29.0812 15.5336L28.6902 26.2204C28.6302 27.8603 27.3677 29.1567 25.8307 29.1567H25.3966C25.0805 29.1567 24.8243 28.8831 24.8243 28.5455V22.4344C24.8243 21.2532 23.9275 20.2955 22.8211 20.2955H14.8085C13.7022 20.2955 12.8053 21.2532 12.8053 22.4344V28.5455C12.8053 28.8831 12.5491 29.1567 12.233 29.1567H12.0761C10.6981 29.1567 9.53477 28.0634 9.35978 26.6039C8.79442 21.8886 8.77006 17.1172 9.28726 12.3955L9.35695 11.7592C9.5299 10.1804 10.7827 8.98999 12.2715 8.98999H12.8053C13.1214 8.98999 13.3777 9.26359 13.3777 9.6011V13.39Z" fill="#FBA43F"/>
<path d="M14.5223 28.5455C14.5223 28.8831 14.7786 29.1567 15.0947 29.1567H22.535C22.8511 29.1567 23.1073 28.8831 23.1073 28.5455V22.4344C23.1073 22.2657 22.9792 22.1289 22.8211 22.1289H14.8085C14.6505 22.1289 14.5223 22.2657 14.5223 22.4344V28.5455Z" fill="#FBA43F"/>
<path d="M22.535 9.6011C22.535 9.26359 22.2787 8.98999 21.9627 8.98999H15.667C15.3509 8.98999 15.0947 9.26359 15.0947 9.6011V13.39C15.0947 13.5587 15.2228 13.6955 15.3808 13.6955H22.2488C22.4069 13.6955 22.535 13.5587 22.535 13.39V9.6011Z" fill="#FBA43F"/>
</svg>
