<svg width="16" height="19" viewBox="0 0 16 19" fill="none" xmlns="http://www.w3.org/2000/svg">
<path fill-rule="evenodd" clip-rule="evenodd" d="M11.9887 0.318556C9.03285 -0.106185 6.0315 -0.106185 3.07569 0.318556C1.6102 0.529144 0.48111 1.71854 0.346981 3.19299L0.220014 4.58872C-0.0733381 7.8135 -0.0733379 11.0583 0.220014 14.283L0.346981 15.6788C0.48111 17.1532 1.6102 18.3426 3.07569 18.5532C6.0315 18.9779 9.03285 18.9779 11.9887 18.5532C13.4541 18.3426 14.5832 17.1532 14.7174 15.6788L14.8443 14.283C15.1377 11.0583 15.1377 7.8135 14.8443 4.58872L14.7174 3.19299C14.5832 1.71853 13.4541 0.529144 11.9887 0.318556ZM5.53217 6.43588C5.53217 5.33131 6.4276 4.43588 7.53217 4.43588C8.63673 4.43588 9.53217 5.33131 9.53217 6.43588C9.53217 7.54045 8.63673 8.43588 7.53217 8.43588C6.4276 8.43588 5.53217 7.54045 5.53217 6.43588ZM3.53217 12.9359C3.53217 11.279 4.87531 9.93588 6.53217 9.93588H8.53217C10.189 9.93588 11.5322 11.279 11.5322 12.9359C11.5322 13.4882 11.0844 13.9359 10.5322 13.9359H4.53217C3.97988 13.9359 3.53217 13.4882 3.53217 12.9359Z" fill="#5170FD"/>
</svg>
