<svg width="105" height="60" viewBox="0 0 105 60" fill="none" xmlns="http://www.w3.org/2000/svg">
<path d="M4.5741 59.9212H3.39429V57.4429H1.18361V59.9212H0V54.1788H1.18361V56.4296H3.39429V54.1788H4.5741V59.9212Z" fill="#D3EBEB"/>
<path d="M9.81907 55.4475C10.2111 55.4475 10.561 55.539 10.8691 55.7225C11.1796 55.9033 11.4188 56.1651 11.5868 56.508C11.7574 56.8485 11.8427 57.2385 11.8427 57.6788C11.8427 57.6916 11.8427 57.7049 11.8427 57.7177C11.8427 58.4327 11.6594 58.9918 11.2928 59.395C10.9263 59.7983 10.416 60.0001 9.7618 60.0001C9.75163 60.0001 9.74017 60.0001 9.72743 60.0001C9.33545 60.0001 8.98417 59.9085 8.67365 59.725C8.36567 59.5392 8.12637 59.2746 7.95584 58.9318C7.78784 58.5885 7.70384 58.1969 7.70384 57.7571C7.70384 57.7442 7.70384 57.731 7.70384 57.7177C7.70384 57.0005 7.88586 56.4441 8.24984 56.0486C8.61385 55.6477 9.12545 55.4475 9.78471 55.4475C9.79491 55.4475 9.80637 55.4475 9.81907 55.4475ZM10.4414 56.7359C10.3014 56.5212 10.0774 56.4137 9.76943 56.4137C9.46145 56.4137 9.23746 56.5197 9.09747 56.732C8.96002 56.944 8.89129 57.2728 8.89129 57.7177C8.89129 58.1603 8.96126 58.4919 9.10129 58.7116C9.24381 58.929 9.4678 59.0377 9.77325 59.0377C10.0812 59.0377 10.304 58.929 10.4414 58.7116C10.5814 58.4942 10.6514 58.1642 10.6514 57.7216C10.6514 57.2767 10.5814 56.9479 10.4414 56.7359Z" fill="#D3EBEB"/>
<path d="M18.7982 59.9212H17.9048L17.7482 59.3598H17.6872C17.5624 59.5639 17.3856 59.7225 17.1565 59.8351C16.9274 59.945 16.6664 59.9999 16.3737 59.9999C15.8748 59.9999 15.4968 59.8624 15.2398 59.5873C14.9852 59.3126 14.858 58.9145 14.858 58.3932V55.5299H16.0225V58.0947C16.0225 58.4142 16.0772 58.6527 16.1866 58.8097C16.2987 58.9667 16.473 59.0454 16.7097 59.0454C17.0356 59.0454 17.271 58.9339 17.4161 58.7115C17.5612 58.489 17.6337 58.1169 17.6337 57.596V55.5299H18.7982V59.9212Z" fill="#D3EBEB"/>
<path d="M23.2872 59.1242C23.7097 59.1242 23.921 58.9984 23.921 58.7471C23.921 58.6189 23.865 58.5164 23.753 58.4405C23.6435 58.3649 23.3915 58.2363 22.997 58.0555C22.6686 57.9145 22.4268 57.7832 22.2716 57.6628C22.1188 57.5424 22.0068 57.4049 21.9356 57.2506C21.8668 57.0932 21.8325 56.9007 21.8325 56.6732C21.8325 56.2828 21.9788 55.9816 22.2716 55.7697C22.5668 55.555 22.9792 55.4475 23.5086 55.4475C24.0381 55.4475 24.5433 55.5628 25.0244 55.7931L24.6731 56.6572C24.4262 56.5501 24.2137 56.4702 24.0355 56.4176C23.8599 56.3627 23.683 56.3354 23.5048 56.3354C23.1612 56.3354 22.9893 56.4308 22.9893 56.6221C22.9893 56.7293 23.0453 56.8236 23.1573 56.9046C23.2694 56.9833 23.501 57.0947 23.8522 57.2385C24.2061 57.3827 24.4606 57.5163 24.6158 57.6394C24.9188 57.8751 25.0702 58.2102 25.0702 58.645C25.0702 59.0794 24.9175 59.4149 24.612 59.6506C24.3066 59.8836 23.865 60.0001 23.2872 60.0001C22.7094 60.0001 22.2257 59.9151 21.8363 59.7449V58.7549C22.0552 58.8597 22.2995 58.9473 22.5693 59.0182C22.8417 59.0888 23.081 59.1242 23.2872 59.1242Z" fill="#D3EBEB"/>
<path d="M31.4836 59.6899C31.0916 59.8968 30.5914 60.0001 29.9831 60.0001C29.2958 60.0001 28.7587 59.8049 28.3718 59.4149C27.9849 59.0245 27.7915 58.4669 27.7915 57.7415C27.7915 57.016 27.9696 56.4542 28.326 56.0564C28.6824 55.6505 29.1698 55.4475 29.7883 55.4475C30.4069 55.4475 30.8829 55.6244 31.2163 55.9777C31.5548 56.3288 31.7241 56.8169 31.7241 57.4431V58.0244H28.9713C28.984 58.3672 29.082 58.6345 29.2653 58.8258C29.4511 59.014 29.7082 59.1082 30.0365 59.1082C30.5202 59.1082 31.0025 58.9933 31.4836 58.7627V59.6899ZM30.6322 57.2268C30.6271 56.9334 30.552 56.7059 30.4069 56.5434C30.2643 56.381 30.0696 56.2999 29.8227 56.2999C29.5758 56.2999 29.3811 56.3798 29.2385 56.5395C29.0985 56.6993 29.0184 56.9284 28.998 57.2268H30.6322Z" fill="#D3EBEB"/>
<path d="M40.6983 55.4475C41.0902 55.4475 41.4405 55.539 41.7483 55.7225C42.0588 55.9033 42.298 56.1651 42.4659 56.508C42.6366 56.8485 42.7219 57.2385 42.7219 57.6788C42.7219 57.6916 42.7219 57.7049 42.7219 57.7177C42.7219 58.4327 42.5388 58.9918 42.1722 59.395C41.8055 59.7983 41.2952 60.0001 40.641 60.0001C40.6309 60.0001 40.6196 60.0001 40.6067 60.0001C40.2148 60.0001 39.8633 59.9085 39.5528 59.725C39.245 59.5392 39.0058 59.2746 38.8351 58.9318C38.6671 58.5885 38.5831 58.1969 38.5831 57.7571C38.5831 57.7442 38.5831 57.731 38.5831 57.7177C38.5831 57.0005 38.7651 56.4441 39.1289 56.0486C39.4932 55.6477 40.0048 55.4475 40.664 55.4475C40.6741 55.4475 40.6854 55.4475 40.6983 55.4475ZM41.3205 56.7359C41.1806 56.5212 40.9566 56.4137 40.6488 56.4137C40.3406 56.4137 40.1166 56.5197 39.9767 56.732C39.8392 56.944 39.7706 57.2728 39.7706 57.7177C39.7706 58.1603 39.8404 58.4919 39.9806 58.7116C40.1232 58.929 40.3472 59.0377 40.6527 59.0377C40.9605 59.0377 41.1833 58.929 41.3205 58.7116C41.4607 58.4942 41.5305 58.1642 41.5305 57.7216C41.5305 57.2767 41.4607 56.9479 41.3205 56.7359Z" fill="#D3EBEB"/>
<path d="M45.9473 55.2078C45.9473 54.7052 46.0669 54.3397 46.3061 54.1118C46.5453 53.8815 46.9287 53.7662 47.4554 53.7662C47.8552 53.7662 48.2128 53.8278 48.5284 53.9509L48.2304 54.8306C47.9939 54.7547 47.7862 54.7169 47.6082 54.7169C47.4301 54.7169 47.3027 54.7652 47.2263 54.8622C47.15 54.9592 47.1118 55.0901 47.1118 55.2549V55.53H48.1197V56.4296H47.1118V59.9213H45.9473V56.4296H45.306V55.8518L45.9473 55.53V55.2078Z" fill="#D3EBEB"/>
<path d="M59.7515 59.9212H58.4763L58.0676 58.5545H56.0362L55.6318 59.9212H54.3566L56.3265 54.155H57.7735L59.7515 59.9212ZM57.7891 57.5333L57.1552 55.4318C57.1068 55.2588 57.0737 55.1306 57.0558 55.0468C56.9716 55.3792 56.7313 56.2083 56.3343 57.5333H57.7891Z" fill="#D3EBEB"/>
<path d="M64.1715 60.0001C62.843 60.0001 62.1787 59.2497 62.1787 57.7493C62.1787 57.0055 62.3591 56.4359 62.7206 56.0405C63.0822 55.6454 63.6 55.4475 64.2748 55.4475C64.7711 55.4475 65.2126 55.5468 65.5994 55.7459L65.2597 56.6732C64.8475 56.5002 64.5191 56.4137 64.2748 56.4137C63.6689 56.4137 63.3658 56.8497 63.3658 57.7216C63.3658 58.594 63.6689 59.0299 64.2748 59.0299C64.7022 59.0299 65.1007 58.9029 65.4697 58.6489V59.674C65.271 59.8049 65.0801 59.8902 64.897 59.9295C64.7061 59.9767 64.4641 60.0001 64.1715 60.0001Z" fill="#D3EBEB"/>
<path d="M70.2681 60.0001C68.9392 60.0001 68.2749 59.2497 68.2749 57.7493C68.2749 57.0055 68.4557 56.4359 68.8172 56.0405C69.1784 55.6454 69.6966 55.4475 70.371 55.4475C70.8673 55.4475 71.3092 55.5468 71.6961 55.7459L71.3563 56.6732C70.9437 56.5002 70.6153 56.4137 70.371 56.4137C69.7651 56.4137 69.4624 56.8497 69.4624 57.7216C69.4624 58.594 69.7651 59.0299 70.371 59.0299C70.7988 59.0299 71.197 58.9029 71.5663 58.6489V59.674C71.3676 59.8049 71.1767 59.8902 70.9936 59.9295C70.8027 59.9767 70.5607 60.0001 70.2681 60.0001Z" fill="#D3EBEB"/>
<path d="M76.4829 55.4475C76.8748 55.4475 77.2247 55.539 77.5329 55.7225C77.8434 55.9033 78.0826 56.1651 78.2505 56.508C78.4212 56.8485 78.5065 57.2385 78.5065 57.6788C78.5065 57.6916 78.5065 57.7049 78.5065 57.7177C78.5065 58.4327 78.323 58.9918 77.9568 59.395C77.5902 59.7983 77.0798 60.0001 76.4256 60.0001C76.4155 60.0001 76.4038 60.0001 76.3913 60.0001C75.9994 60.0001 75.6479 59.9085 75.3374 59.725C75.0292 59.5392 74.79 59.2746 74.6198 58.9318C74.4515 58.5885 74.3677 58.1969 74.3677 57.7571C74.3677 57.7442 74.3677 57.731 74.3677 57.7177C74.3677 57.0005 74.5496 56.4441 74.9135 56.0486C75.2774 55.6477 75.7894 55.4475 76.4486 55.4475C76.4587 55.4475 76.47 55.4475 76.4829 55.4475ZM77.1051 56.7359C76.9652 56.5212 76.7412 56.4137 76.4334 56.4137C76.1252 56.4137 75.9012 56.5197 75.7613 56.732C75.6238 56.944 75.5552 57.2728 75.5552 57.7177C75.5552 58.1603 75.625 58.4919 75.7652 58.7116C75.9074 58.929 76.1314 59.0377 76.4369 59.0377C76.7451 59.0377 76.9676 58.929 77.1051 58.7116C77.2453 58.4942 77.3151 58.1642 77.3151 57.7216C77.3151 57.2767 77.2453 56.9479 77.1051 56.7359Z" fill="#D3EBEB"/>
<path d="M85.4618 59.9212H84.5684L84.4118 59.3598H84.351C84.226 59.5639 84.0491 59.7225 83.82 59.8351C83.5909 59.945 83.3303 59.9999 83.0373 59.9999C82.5386 59.9999 82.1606 59.8624 81.9035 59.5873C81.6491 59.3126 81.5217 58.9145 81.5217 58.3932V55.5299H82.6862V58.0947C82.6862 58.4142 82.7408 58.6527 82.8503 58.8097C82.9625 58.9667 83.1366 59.0454 83.3735 59.0454C83.6992 59.0454 83.9345 58.9339 84.0799 58.7115C84.2248 58.489 84.2973 58.1169 84.2973 57.596V55.5299H85.4618V59.9212Z" fill="#D3EBEB"/>
<path d="M91.1804 55.4475C91.674 55.4475 92.0496 55.5862 92.3068 55.864C92.5663 56.1386 92.696 56.5368 92.696 57.0581V59.9214H91.5314V57.3566C91.5314 57.0371 91.4753 56.7986 91.3635 56.6416C91.254 56.4846 91.0811 56.4059 90.8442 56.4059C90.5185 56.4059 90.2831 56.5185 90.1378 56.7437C89.9929 56.9689 89.9204 57.3394 89.9204 57.8553V59.9214H88.7559V55.5301H89.6453L89.802 56.0958H89.8666C89.994 55.8834 90.1709 55.7225 90.3977 55.6127C90.6268 55.5024 90.8874 55.4475 91.1804 55.4475Z" fill="#D3EBEB"/>
<path d="M97.2576 55.53H98.4526V56.4297H97.2576V58.5468C97.2576 58.7116 97.3021 58.8359 97.3913 58.9197C97.4828 59.0038 97.618 59.0455 97.7961 59.0455C97.9741 59.0455 98.2083 58.9995 98.4986 58.908V59.7998C98.2083 59.9334 97.842 60 97.3991 60C96.9584 60 96.6304 59.8808 96.4137 59.6428C96.2002 59.4016 96.0931 59.0365 96.0931 58.5468V56.4297H95.5356V55.9228L96.1772 55.5223L96.5131 54.595H97.2576V55.53Z" fill="#D3EBEB"/>
<path d="M102.633 59.1242C103.055 59.1242 103.266 58.9984 103.266 58.7471C103.266 58.6189 103.211 58.5164 103.098 58.4405C102.989 58.3649 102.737 58.2363 102.343 58.0555C102.014 57.9145 101.772 57.7832 101.617 57.6628C101.464 57.5424 101.352 57.4049 101.281 57.2506C101.212 57.0932 101.178 56.9007 101.178 56.6732C101.178 56.2828 101.324 55.9816 101.617 55.7697C101.912 55.555 102.325 55.4475 102.854 55.4475C103.384 55.4475 103.889 55.5628 104.37 55.7931L104.019 56.6572C103.772 56.5501 103.559 56.4702 103.381 56.4176C103.205 56.3627 103.028 56.3354 102.85 56.3354C102.507 56.3354 102.335 56.4308 102.335 56.6221C102.335 56.7293 102.391 56.8236 102.503 56.9046C102.615 56.9833 102.846 57.0947 103.198 57.2385C103.551 57.3827 103.806 57.5163 103.961 57.6394C104.264 57.8751 104.416 58.2102 104.416 58.645C104.416 59.0794 104.263 59.4149 103.957 59.6506C103.652 59.8836 103.211 60.0001 102.633 60.0001C102.055 60.0001 101.571 59.9151 101.182 59.7449V58.7549C101.4 58.8597 101.645 58.9473 101.915 59.0182C102.187 59.0888 102.426 59.1242 102.633 59.1242Z" fill="#D3EBEB"/>
<path d="M83.5776 24.5681L73.7033 43.5172H64.7801L79.1162 16.0135L83.5776 24.5681Z" fill="#D3EBEB"/>
<path d="M104.026 43.5175H95.1168L84.4029 22.9667L79.9555 14.4121L78.8642 12.3332L72.4446 0L84.0674 6.50373L85.0185 7.03749L87.466 8.40004L94.4872 12.3332H87.7878L88.8647 14.4121L104.026 43.5175Z" fill="#D3EBEB"/>
<path d="M28.2254 13.1846V43.0392H19.834V31.396H8.39131V43.0392H0V13.1846H8.39131V24.4015H19.834V13.1846H28.2254Z" fill="#D3EBEB"/>
<path d="M49.1047 43.6364C45.9687 43.6364 43.1432 42.9683 40.6287 41.6319C38.1424 40.2955 36.1788 38.4474 34.7378 36.0875C33.3251 33.7275 32.6188 31.069 32.6188 28.112C32.6188 25.1549 33.3251 22.4964 34.7378 20.1365C36.1788 17.7765 38.1424 15.9284 40.6287 14.592C43.1432 13.2557 45.9687 12.5875 49.1047 12.5875C52.241 12.5875 55.0521 13.2557 57.5386 14.592C60.0531 15.9284 62.0167 17.7765 63.4295 20.1365C64.8702 22.4964 65.5906 25.1549 65.5906 28.112C65.5906 31.069 64.8702 33.7275 63.4295 36.0875C62.0167 38.4474 60.0531 40.2955 57.5386 41.6319C55.0521 42.9683 52.241 43.6364 49.1047 43.6364ZM49.1047 36.6419C50.6023 36.6419 51.9586 36.2865 53.1734 35.5757C54.3882 34.8648 55.349 33.8697 56.0553 32.5902C56.7617 31.2822 57.1147 29.7895 57.1147 28.112C57.1147 26.4344 56.7617 24.9559 56.0553 23.6764C55.349 22.3685 54.3882 21.3591 53.1734 20.6483C51.9586 19.9374 50.6023 19.582 49.1047 19.582C47.6074 19.582 46.2512 19.9374 45.0364 20.6483C43.8216 21.3591 42.8608 22.3685 42.1544 23.6764C41.448 24.9559 41.0951 26.4344 41.0951 28.112C41.0951 29.7895 41.448 31.2822 42.1544 32.5902C42.8608 33.8697 43.8216 34.8648 45.0364 35.5757C46.2512 36.2865 47.6074 36.6419 49.1047 36.6419Z" fill="#D3EBEB"/>
<path fill-rule="evenodd" clip-rule="evenodd" d="M65.0782 43.0247L64.8631 43.4354H65.0326L65.0782 43.0247ZM28.2616 13.1927V42.9585H19.8595V31.3499H8.4021V42.9585H0V13.1927H8.4021V24.3762H19.8595V13.1927H28.2616ZM40.6808 41.5555C43.1984 42.8876 46.0274 43.5538 49.1677 43.5538C52.3079 43.5538 55.1229 42.8876 57.6125 41.5555C60.1301 40.223 62.0961 38.3804 63.5108 36.0274C64.9535 33.6745 65.6751 31.0239 65.6751 28.0757C65.6751 25.1274 64.9535 22.4768 63.5108 20.1239C62.0961 17.771 60.1301 15.9284 57.6125 14.596C55.1229 13.2636 52.3079 12.5974 49.1677 12.5974C46.0274 12.5974 43.1984 13.2636 40.6808 14.596C38.1913 15.9284 36.2251 17.771 34.7824 20.1239C33.3678 22.4768 32.6606 25.1274 32.6606 28.0757C32.6606 31.0239 33.3678 33.6745 34.7824 36.0274C36.2251 38.3804 38.1913 40.223 40.6808 41.5555ZM53.2414 35.5171C52.0251 36.2258 50.6673 36.5802 49.1677 36.5802C47.6684 36.5802 46.3107 36.2258 45.0939 35.5171C43.8775 34.8084 42.9156 33.8162 42.2084 32.5406C41.5013 31.2365 41.1475 29.7482 41.1475 28.0757C41.1475 26.4031 41.5013 24.929 42.2084 23.6533C42.9156 22.3493 43.8775 21.3429 45.0939 20.6342C46.3107 19.9255 47.6684 19.5711 49.1677 19.5711C50.6673 19.5711 52.0251 19.9255 53.2414 20.6342C54.4578 21.3429 55.4197 22.3493 56.1273 23.6533C56.8344 24.929 57.1878 26.4031 57.1878 28.0757C57.1878 29.7482 56.8344 31.2365 56.1273 32.5406C55.4197 33.8162 54.4578 34.8084 53.2414 35.5171Z" fill="#D3EBEB"/>
</svg>
