<svg width="246" height="91" viewBox="0 0 246 91" fill="none" xmlns="http://www.w3.org/2000/svg">
<rect x="0.365967" y="0.648193" width="245" height="90" rx="4" fill="#242424"/>
<path d="M17.4846 29.6482H19.0208V26.0686H21.1089C23.4704 26.0686 24.6387 24.6418 24.6387 22.7625C24.6387 20.8882 23.4803 19.4664 21.1138 19.4664H17.4846V29.6482ZM19.0208 24.7661V20.7838H20.9498C22.4711 20.7838 23.0925 21.6091 23.0925 22.7625C23.0925 23.9159 22.4711 24.7661 20.9697 24.7661H19.0208ZM26.4397 29.6482H32.8828V28.3258H27.9759V25.2086H32.4901V23.8911H27.9759V20.7888H32.8232V19.4664H26.4397V29.6482ZM38.5803 29.6482H40.1165V25.7952H42.2046C42.2394 25.7952 42.2692 25.7952 42.304 25.7952L44.3722 29.6482H46.1222L43.8651 25.5267C45.1129 25.0644 45.7344 24.0253 45.7344 22.6581C45.7344 20.7838 44.571 19.4664 42.2095 19.4664H38.5803V29.6482ZM40.1165 24.4728V20.7838H42.0455C43.5618 20.7838 44.1882 21.5047 44.1882 22.6581C44.1882 23.8066 43.5618 24.4728 42.0654 24.4728H40.1165ZM48.4638 29.6482L49.3985 26.9536H53.3757L54.3054 29.6482H55.9361L52.272 19.4664H50.4972L46.8331 29.6482H48.4638ZM49.8459 25.661L51.3473 21.3158H51.4269L52.9283 25.661H49.8459ZM55.6875 20.7888H58.8594V29.6482H60.3906V20.7888H63.5675V19.4664H55.6875V20.7888ZM66.845 19.4664H65.3088V29.6482H66.845V19.4664ZM77.9267 24.5573C77.9267 21.3009 75.9778 19.3272 73.3429 19.3272C70.698 19.3272 68.7541 21.3009 68.7541 24.5573C68.7541 27.8087 70.698 29.7874 73.3429 29.7874C75.9778 29.7874 77.9267 27.8137 77.9267 24.5573ZM76.4054 24.5573C76.4054 27.0381 75.0929 28.3854 73.3429 28.3854C71.5879 28.3854 70.2804 27.0381 70.2804 24.5573C70.2804 22.0765 71.5879 20.7292 73.3429 20.7292C75.0929 20.7292 76.4054 22.0765 76.4054 24.5573Z" fill="white"/>
<path d="M25.1185 49.09C26.1255 49.09 26.9419 48.2736 26.9419 47.2665C26.9419 46.2595 26.1255 45.4431 25.1185 45.4431C24.1114 45.4431 23.295 46.2595 23.295 47.2665C23.295 48.2736 24.1114 49.09 25.1185 49.09ZM41.7283 44.8132C41.4134 43.0726 40.0209 42.0449 38.3135 42.0449C36.142 42.0449 34.5672 43.7191 34.5672 46.4046C34.5672 49.09 36.142 50.7642 38.3135 50.7642C40.0209 50.7642 41.4134 49.7365 41.7283 47.9959H40.7006C40.4519 49.1729 39.4407 49.8028 38.3135 49.8028C36.7719 49.8028 35.5618 48.6093 35.5618 46.4046C35.5618 44.1999 36.7719 43.0063 38.3135 43.0063C39.4407 43.0063 40.4519 43.6362 40.7006 44.8132H41.7283ZM44.2345 46.819C44.2345 45.7083 44.9432 45.0784 45.9088 45.0784C46.8288 45.0784 47.3841 45.6586 47.3841 46.6698V50.6482H48.3621V46.6035C48.3621 44.9665 47.4918 44.1999 46.1906 44.1999C45.1877 44.1999 44.6158 44.6184 44.3174 45.2773H44.2345V42.1609H43.2565V50.6482H44.2345V46.819ZM52.8202 50.7808C54.1132 50.7808 55.0581 50.1343 55.3564 49.1729L54.4116 48.9076C54.1629 49.5707 53.5869 49.9022 52.8202 49.9022C51.6723 49.9022 50.8807 49.1604 50.8352 47.797H55.4559V47.3826C55.4559 45.0121 54.0469 44.1999 52.7208 44.1999C50.9968 44.1999 49.853 45.5591 49.853 47.5152C49.853 49.4712 50.9802 50.7808 52.8202 50.7808ZM50.8352 46.9516C50.9015 45.9611 51.6018 45.0784 52.7208 45.0784C53.7817 45.0784 54.4613 45.8741 54.4613 46.9516H50.8352ZM56.9437 50.6482H57.9217V46.6698C57.9217 45.7373 58.6013 45.0784 59.3639 45.0784C60.1057 45.0784 60.6237 45.5633 60.6237 46.2885V50.6482H61.6183V46.504C61.6183 45.6835 62.1322 45.0784 63.0273 45.0784C63.7235 45.0784 64.3203 45.4473 64.3203 46.388V50.6482H65.2983V46.388C65.2983 44.8919 64.4944 44.1999 63.3589 44.1999C62.4471 44.1999 61.7799 44.6184 61.4525 45.2773H61.3862C61.0713 44.5977 60.5159 44.1999 59.6788 44.1999C58.85 44.1999 58.2367 44.5977 57.9714 45.2773H57.8885V44.2827H56.9437V50.6482ZM67.0865 50.6482H68.0646V44.2827H67.0865V50.6482ZM67.5838 43.2218C67.9651 43.2218 68.2801 42.9234 68.2801 42.5588C68.2801 42.1941 67.9651 41.8957 67.5838 41.8957C67.2026 41.8957 66.8876 42.1941 66.8876 42.5588C66.8876 42.9234 67.2026 43.2218 67.5838 43.2218ZM72.4419 50.7808C73.8509 50.7808 74.7792 49.9188 74.9449 48.7916H73.9669C73.7846 49.4878 73.2044 49.9022 72.4419 49.9022C71.2815 49.9022 70.5355 48.9408 70.5355 47.4655C70.5355 46.0233 71.2981 45.0784 72.4419 45.0784C73.3038 45.0784 73.8177 45.6089 73.9669 46.1891H74.9449C74.7792 44.9955 73.768 44.1999 72.4253 44.1999C70.7013 44.1999 69.5575 45.5591 69.5575 47.4986C69.5575 49.4049 70.6516 50.7808 72.4419 50.7808ZM78.2478 50.7974C79.3585 50.7974 79.9387 50.2006 80.1376 49.7862H80.1873V50.6482H81.1653V46.4543C81.1653 44.4319 79.6237 44.1999 78.8114 44.1999C77.85 44.1999 76.7559 44.5314 76.2586 45.6918L77.1869 46.0233C77.4024 45.5591 77.9122 45.0618 78.8446 45.0618C79.7439 45.0618 80.1873 45.5384 80.1873 46.3548V46.388C80.1873 46.8604 79.7066 46.819 78.5462 46.9682C77.3651 47.1215 76.0763 47.3826 76.0763 48.8413C76.0763 50.0846 77.0377 50.7974 78.2478 50.7974ZM78.397 49.9188C77.6179 49.9188 77.0543 49.5707 77.0543 48.8911C77.0543 48.1451 77.734 47.913 78.4965 47.8136C78.9109 47.7638 80.0215 47.6478 80.1873 47.4489V48.344C80.1873 49.1397 79.5574 49.9188 78.397 49.9188ZM83.9285 42.1609H82.9504V50.6482H83.9285V42.1609ZM90.2287 45.7083C89.922 44.8049 89.234 44.1999 87.9742 44.1999C86.6315 44.1999 85.6369 44.9624 85.6369 46.0399C85.6369 46.9184 86.1591 47.5069 87.3277 47.7804L88.3886 48.0291C89.031 48.1783 89.3335 48.4849 89.3335 48.9242C89.3335 49.4712 88.7533 49.9188 87.8416 49.9188C87.0418 49.9188 86.5403 49.5749 86.3663 48.8911L85.438 49.1231C85.6659 50.2048 86.5569 50.7808 87.8582 50.7808C89.3377 50.7808 90.3447 49.9727 90.3447 48.8745C90.3447 47.9876 89.7894 47.4282 88.6539 47.1505L87.709 46.9184C86.9548 46.7319 86.6149 46.4792 86.6149 45.9901C86.6149 45.4431 87.1951 45.0453 87.9742 45.0453C88.8279 45.0453 89.1802 45.5177 89.3501 45.957L90.2287 45.7083Z" fill="#AFB9E2"/>
<path d="M189.228 42.1609H188.201L186.079 43.5699V44.6143L188.151 43.2384H188.201V50.6482H189.228V42.1609ZM194.371 42.0449C192.647 42.0242 191.537 43.3213 191.537 44.8795C191.537 46.5206 192.747 47.6975 194.205 47.6975C195.084 47.6975 195.83 47.2665 196.294 46.5703H196.36C196.36 48.659 195.548 49.8525 194.239 49.8525C193.344 49.8525 192.796 49.2889 192.614 48.5098H191.603C191.802 49.8525 192.813 50.7642 194.239 50.7642C196.145 50.7642 197.322 49.0734 197.322 46.0564C197.322 42.94 195.764 42.0615 194.371 42.0449ZM194.371 42.9566C195.432 42.9566 196.211 43.8683 196.211 44.8629C196.211 45.8741 195.382 46.7858 194.338 46.7858C193.294 46.7858 192.531 45.9404 192.531 44.8795C192.531 43.8186 193.327 42.9566 194.371 42.9566ZM199.385 50.7145C199.795 50.7145 200.131 50.3788 200.131 49.9685C200.131 49.5583 199.795 49.2226 199.385 49.2226C198.974 49.2226 198.639 49.5583 198.639 49.9685C198.639 50.3788 198.974 50.7145 199.385 50.7145ZM201.869 50.6482H207.223V49.7365H203.278V49.6702L205.184 47.6312C206.643 46.0689 207.074 45.3395 207.074 44.3988C207.074 43.0892 206.013 42.0449 204.521 42.0449C203.034 42.0449 201.902 43.0561 201.902 44.548H202.88C202.88 43.5824 203.506 42.94 204.488 42.94C205.408 42.94 206.113 43.5036 206.113 44.3988C206.113 45.182 205.653 45.7622 204.671 46.8356L201.869 49.9022V50.6482ZM209.2 50.6482H210.278L214.057 43.1224V42.1609H208.62V43.0726H212.996V43.1389L209.2 50.6482ZM216.348 44.2827H215.221L217.243 47.4655L215.221 50.6482H216.348L217.873 48.1783L219.398 50.6482H220.525L218.47 47.4655L220.525 44.2827H219.398L217.873 46.8853L216.348 44.2827Z" fill="white"/>
<rect opacity="0.3" x="16.366" y="56.6482" width="205" height="1" fill="white"/>
<path d="M25.1185 71.09C26.1255 71.09 26.9419 70.2736 26.9419 69.2665C26.9419 68.2595 26.1255 67.4431 25.1185 67.4431C24.1114 67.4431 23.295 68.2595 23.295 69.2665C23.295 70.2736 24.1114 71.09 25.1185 71.09ZM34.8987 72.6482H35.9265V69.5483H37.7831C39.7598 69.5483 40.6508 68.3465 40.6508 66.8463C40.6508 65.3462 39.7598 64.1609 37.7665 64.1609H34.8987V72.6482ZM35.9265 68.6366V65.0726H37.7333C39.1134 65.0726 39.6397 65.8269 39.6397 66.8463C39.6397 67.8658 39.1134 68.6366 37.7499 68.6366H35.9265ZM43.1519 64.1609H42.1738V72.6482H43.1519V64.1609ZM46.8163 72.7974C47.927 72.7974 48.5072 72.2006 48.7061 71.7862H48.7558V72.6482H49.7338V68.4543C49.7338 66.4319 48.1922 66.1999 47.3799 66.1999C46.4185 66.1999 45.3244 66.5314 44.8271 67.6918L45.7554 68.0233C45.9709 67.5591 46.4807 67.0618 47.4131 67.0618C48.3124 67.0618 48.7558 67.5384 48.7558 68.3548V68.388C48.7558 68.8604 48.2751 68.819 47.1147 68.9682C45.9336 69.1215 44.6448 69.3826 44.6448 70.8413C44.6448 72.0846 45.6062 72.7974 46.8163 72.7974ZM46.9655 71.9188C46.1864 71.9188 45.6228 71.5707 45.6228 70.8911C45.6228 70.1451 46.3025 69.913 47.065 69.8136C47.4794 69.7638 48.59 69.6478 48.7558 69.4489V70.344C48.7558 71.1397 48.1259 71.9188 46.9655 71.9188ZM52.497 68.819C52.497 67.7083 53.1849 67.0784 54.1215 67.0784C55.0291 67.0784 55.5802 67.671 55.5802 68.6698V72.6482H56.5583V68.6035C56.5583 66.979 55.6921 66.1999 54.4033 66.1999C53.4418 66.1999 52.8451 66.6308 52.5467 67.2773H52.4638V66.2827H51.5189V72.6482H52.497V68.819ZM61.1137 66.2827H59.7545V64.7577H58.7764V66.2827H57.815V67.1116H58.7764V71.09C58.7764 72.2006 59.6716 72.7311 60.5004 72.7311C60.8651 72.7311 61.0972 72.6648 61.2298 72.615L61.0309 71.7365C60.948 71.7531 60.8154 71.7862 60.5999 71.7862C60.1689 71.7862 59.7545 71.6536 59.7545 70.8248V67.1116H61.1137V66.2827ZM66.9798 67.7083C66.6732 66.8049 65.9852 66.1999 64.7254 66.1999C63.3827 66.1999 62.3881 66.9624 62.3881 68.0399C62.3881 68.9184 62.9102 69.5069 64.0789 69.7804L65.1398 70.0291C65.7822 70.1783 66.0847 70.4849 66.0847 70.9242C66.0847 71.4712 65.5045 71.9188 64.5928 71.9188C63.793 71.9188 63.2915 71.5749 63.1175 70.8911L62.1892 71.1231C62.4171 72.2048 63.3081 72.7808 64.6094 72.7808C66.0888 72.7808 67.0959 71.9727 67.0959 70.8745C67.0959 69.9876 66.5405 69.4282 65.405 69.1505L64.4602 68.9184C63.7059 68.7319 63.3661 68.4792 63.3661 67.9901C63.3661 67.4431 63.9463 67.0453 64.7254 67.0453C65.5791 67.0453 65.9314 67.5177 66.1013 67.957L66.9798 67.7083Z" fill="#FFB66D"/>
<path d="M189.013 72.7642C190.886 72.7642 191.963 71.177 191.963 68.4046C191.963 65.6528 190.869 64.0449 189.013 64.0449C187.156 64.0449 186.062 65.6528 186.062 68.4046C186.062 71.177 187.14 72.7642 189.013 72.7642ZM189.013 71.8525C187.778 71.8525 187.057 70.6134 187.057 68.4046C187.057 66.1999 187.786 64.94 189.013 64.94C190.24 64.94 190.969 66.1999 190.969 68.4046C190.969 70.6134 190.248 71.8525 189.013 71.8525ZM196.191 72.7642C197.807 72.7642 198.992 71.5707 198.992 69.9462C198.992 68.301 197.848 67.095 196.29 67.095C195.718 67.095 195.163 67.2981 194.815 67.5757H194.765L195.063 65.0726H198.611V64.1609H194.201L193.687 68.3383L194.649 68.4543C195.001 68.2015 195.602 68.0191 196.124 68.0233C197.206 68.0316 197.997 68.8521 197.997 69.9628C197.997 71.0527 197.235 71.8525 196.191 71.8525C195.32 71.8525 194.628 71.293 194.549 70.5264H193.555C193.617 71.8194 194.732 72.7642 196.191 72.7642ZM201.049 72.7145C201.459 72.7145 201.795 72.3788 201.795 71.9685C201.795 71.5583 201.459 71.2226 201.049 71.2226C200.638 71.2226 200.303 71.5583 200.303 71.9685C200.303 72.3788 200.638 72.7145 201.049 72.7145ZM205.503 64.1609H204.475L202.353 65.5699V66.6143L204.425 65.2384H204.475V72.6482H205.503V64.1609ZM207.745 70.9076H211.74V72.6482H212.718V70.9076H213.878V69.9959H212.718V64.1609H211.474L207.745 70.0622V70.9076ZM211.74 69.9959H208.855V69.9296L211.673 65.4705H211.74V69.9959ZM216.177 66.2827H215.05L217.072 69.4655L215.05 72.6482H216.177L217.702 70.1783L219.227 72.6482H220.354L218.299 69.4655L220.354 66.2827H219.227L217.702 68.8853L216.177 66.2827Z" fill="white"/>
</svg>
