<svg width="19" height="20" viewBox="0 0 19 20" fill="none" xmlns="http://www.w3.org/2000/svg">
<path fill-rule="evenodd" clip-rule="evenodd" d="M10.0731 10.3553C9.68255 10.7458 9.04938 10.7458 8.65886 10.3553L5.65886 7.3553C5.26834 6.96478 5.26834 6.33161 5.65886 5.94109C6.04938 5.55056 6.68255 5.55056 7.07307 5.94109L8.36597 7.23398V1.64819C8.36597 1.09591 8.81368 0.648193 9.36597 0.648193C9.91825 0.648193 10.366 1.09591 10.366 1.64819V7.23398L11.6589 5.94109C12.0494 5.55056 12.6825 5.55056 13.0731 5.94109C13.4636 6.33161 13.4636 6.96478 13.0731 7.3553L10.0731 10.3553ZM2.36597 17.6482V12.6482H5.08074C5.23562 13.1824 5.5112 13.7779 6.0021 14.3112C6.81848 15.1981 7.98317 15.6482 9.36597 15.6482C10.7516 15.6482 11.9164 15.1964 12.7334 14.3109C13.2253 13.7778 13.5023 13.1823 13.6587 12.6482H16.366V17.6482H2.36597ZM5.95973 10.6482H1.36597C0.813682 10.6482 0.365967 11.0959 0.365967 11.6482V18.6482C0.365967 19.2005 0.813683 19.6482 1.36597 19.6482H17.366C17.9183 19.6482 18.366 19.2005 18.366 18.6482V11.6482C18.366 11.0959 17.9183 10.6482 17.366 10.6482H12.782C12.2834 10.6482 11.8972 11.1074 11.8372 11.6024C11.7308 12.4808 11.2374 13.6482 9.36597 13.6482C7.49761 13.6482 7.00829 12.4846 6.90499 11.6068C6.84653 11.11 6.4599 10.6482 5.95973 10.6482Z" fill="#459BFF"/>
</svg>
