<svg width="54" height="54" viewBox="0 0 54 54" fill="none" xmlns="http://www.w3.org/2000/svg">
<path fill-rule="evenodd" clip-rule="evenodd" d="M8.75 6.75C7.64543 6.75 6.75 7.64543 6.75 8.75V45.25C6.75 46.3546 7.64543 47.25 8.75 47.25H45.25C46.3546 47.25 47.25 46.3546 47.25 45.25V8.75C47.25 7.64543 46.3546 6.75 45.25 6.75H8.75ZM20.7751 15.2819H36.7802V18.4618H32.7749C33.4707 19.3865 33.9697 20.4673 34.209 21.6415H36.7802V24.8213H34.209C33.4704 28.4455 30.2583 31.181 26.4193 31.181H25.2721L32.3426 38.2515L30.0942 40.5L20.7751 31.1809V28.0011H26.4193C28.4921 28.0011 30.2599 26.6719 30.9162 24.8213H20.7751V21.6415H30.9162C30.2599 19.7909 28.4921 18.4617 26.4193 18.4617H20.7751V15.2819Z" fill="black"/>
</svg>
