<svg width="216" height="32" viewBox="0 0 216 32" fill="none" xmlns="http://www.w3.org/2000/svg">
<path d="M44.4795 22H45.9591V17.5375H48.6318C51.4776 17.5375 52.7602 15.8074 52.7602 13.6477C52.7602 11.4881 51.4776 9.78182 48.608 9.78182H44.4795V22ZM45.9591 16.225V11.0943H48.5602C50.5469 11.0943 51.3045 12.1801 51.3045 13.6477C51.3045 15.1153 50.5469 16.225 48.5841 16.225H45.9591ZM56.3607 9.78182H54.9527V22H56.3607V9.78182ZM61.636 22.2148C63.2349 22.2148 64.0701 21.3557 64.3565 20.7591H64.4281V22H65.836V15.9625C65.836 13.0511 63.6167 12.717 62.4474 12.717C61.0633 12.717 59.4883 13.1943 58.7724 14.8648L60.1087 15.342C60.419 14.6739 61.1528 13.958 62.4951 13.958C63.7897 13.958 64.4281 14.644 64.4281 15.8193V15.867C64.4281 16.5472 63.736 16.4875 62.0656 16.7023C60.3653 16.923 58.5099 17.2989 58.5099 19.3989C58.5099 21.1886 59.894 22.2148 61.636 22.2148ZM61.8508 20.95C60.7292 20.95 59.9178 20.4489 59.9178 19.4705C59.9178 18.3966 60.8962 18.0625 61.994 17.9193C62.5906 17.8477 64.1894 17.6807 64.4281 17.3943V18.683C64.4281 19.8284 63.5212 20.95 61.8508 20.95ZM68.9845 25.4364C70.2553 25.4364 71.1501 24.7622 71.6811 23.3364L75.5828 12.8602L74.0436 12.8364L71.5141 20.1386H71.4186L68.8891 12.8364H67.3618L70.7504 22.0477L70.4879 22.7636C69.9749 24.1597 69.3425 24.2909 68.3163 24.0284L67.9584 25.2693C68.1016 25.3409 68.5072 25.4364 68.9845 25.4364ZM89.6638 12.8364H88.1366L85.607 20.1386H85.5116L82.982 12.8364H81.4548L84.8434 22H86.2752L89.6638 12.8364ZM91.5222 22H92.9302V12.8364H91.5222V22ZM92.2381 11.3091C92.787 11.3091 93.2404 10.8795 93.2404 10.3545C93.2404 9.82955 92.787 9.4 92.2381 9.4C91.6893 9.4 91.2359 9.82955 91.2359 10.3545C91.2359 10.8795 91.6893 11.3091 92.2381 11.3091ZM98.9692 22.1909C100.735 22.1909 101.332 21.0932 101.642 20.592H101.809V22H103.169V9.78182H101.761V14.292H101.642C101.332 13.8148 100.783 12.717 98.993 12.717C96.6783 12.717 95.0794 14.5545 95.0794 17.442C95.0794 20.3534 96.6783 22.1909 98.9692 22.1909ZM99.1601 20.9261C97.3942 20.9261 96.4874 19.375 96.4874 17.4182C96.4874 15.4852 97.3703 13.9818 99.1601 13.9818C100.878 13.9818 101.785 15.3659 101.785 17.4182C101.785 19.4943 100.854 20.9261 99.1601 20.9261ZM109.785 22.1909C111.647 22.1909 113.007 21.2602 113.437 19.8761L112.076 19.4943C111.718 20.4489 110.889 20.9261 109.785 20.9261C108.133 20.9261 106.993 19.8582 106.928 17.8955H113.58V17.2989C113.58 13.8864 111.551 12.717 109.642 12.717C107.16 12.717 105.514 14.6739 105.514 17.4898C105.514 20.3057 107.137 22.1909 109.785 22.1909ZM106.928 16.6784C107.023 15.2526 108.031 13.9818 109.642 13.9818C111.169 13.9818 112.148 15.1273 112.148 16.6784H106.928ZM119.444 22.1909C121.926 22.1909 123.596 20.3057 123.596 17.4659C123.596 14.6023 121.926 12.717 119.444 12.717C116.962 12.717 115.292 14.6023 115.292 17.4659C115.292 20.3057 116.962 22.1909 119.444 22.1909ZM119.444 20.9261C117.559 20.9261 116.7 19.3034 116.7 17.4659C116.7 15.6284 117.559 13.9818 119.444 13.9818C121.329 13.9818 122.188 15.6284 122.188 17.4659C122.188 19.3034 121.329 20.9261 119.444 20.9261ZM134.456 12.8364H132.499V10.6409H131.091V12.8364H129.707V14.0295H131.091V19.7568C131.091 21.3557 132.38 22.1193 133.573 22.1193C134.098 22.1193 134.432 22.0239 134.623 21.9523L134.337 20.6875C134.217 20.7114 134.026 20.7591 133.716 20.7591C133.096 20.7591 132.499 20.5682 132.499 19.375V14.0295H134.456V12.8364ZM140.317 22.1909C142.179 22.1909 143.539 21.2602 143.969 19.8761L142.608 19.4943C142.25 20.4489 141.421 20.9261 140.317 20.9261C138.665 20.9261 137.525 19.8582 137.46 17.8955H144.112V17.2989C144.112 13.8864 142.083 12.717 140.174 12.717C137.692 12.717 136.046 14.6739 136.046 17.4898C136.046 20.3057 137.669 22.1909 140.317 22.1909ZM137.46 16.6784C137.555 15.2526 138.563 13.9818 140.174 13.9818C141.701 13.9818 142.68 15.1273 142.68 16.6784H137.46ZM152.744 14.8886C152.303 13.5881 151.313 12.717 149.499 12.717C147.566 12.717 146.134 13.8148 146.134 15.3659C146.134 16.6307 146.886 17.4778 148.568 17.8716L150.096 18.2295C151.02 18.4443 151.456 18.8858 151.456 19.5182C151.456 20.3057 150.621 20.95 149.308 20.95C148.157 20.95 147.435 20.4548 147.184 19.4705L145.848 19.8045C146.176 21.3616 147.459 22.1909 149.332 22.1909C151.462 22.1909 152.911 21.0276 152.911 19.4466C152.911 18.1699 152.112 17.3645 150.477 16.9648L149.117 16.6307C148.031 16.3622 147.542 15.9983 147.542 15.2943C147.542 14.5068 148.377 13.9341 149.499 13.9341C150.728 13.9341 151.235 14.6142 151.48 15.2466L152.744 14.8886ZM159.016 12.8364H157.059V10.6409H155.651V12.8364H154.267V14.0295H155.651V19.7568C155.651 21.3557 156.94 22.1193 158.133 22.1193C158.658 22.1193 158.992 22.0239 159.183 21.9523L158.897 20.6875C158.777 20.7114 158.587 20.7591 158.276 20.7591C157.656 20.7591 157.059 20.5682 157.059 19.375V14.0295H159.016V12.8364ZM161.134 22H162.542V12.8364H161.134V22ZM161.85 11.3091C162.399 11.3091 162.852 10.8795 162.852 10.3545C162.852 9.82955 162.399 9.4 161.85 9.4C161.301 9.4 160.848 9.82955 160.848 10.3545C160.848 10.8795 161.301 11.3091 161.85 11.3091ZM165.121 22H166.529V16.2727C166.529 14.9304 167.507 13.9818 168.605 13.9818C169.673 13.9818 170.418 14.6798 170.418 15.7239V22H171.85V16.0341C171.85 14.8528 172.59 13.9818 173.879 13.9818C174.881 13.9818 175.74 14.5128 175.74 15.867V22H177.148V15.867C177.148 13.7134 175.991 12.717 174.356 12.717C173.043 12.717 172.083 13.3196 171.612 14.2682H171.516C171.063 13.2898 170.263 12.717 169.058 12.717C167.865 12.717 166.982 13.2898 166.6 14.2682H166.481V12.8364H165.121V22ZM183.445 22.1909C185.927 22.1909 187.597 20.3057 187.597 17.4659C187.597 14.6023 185.927 12.717 183.445 12.717C180.963 12.717 179.293 14.6023 179.293 17.4659C179.293 20.3057 180.963 22.1909 183.445 22.1909ZM183.445 20.9261C181.56 20.9261 180.701 19.3034 180.701 17.4659C180.701 15.6284 181.56 13.9818 183.445 13.9818C185.33 13.9818 186.189 15.6284 186.189 17.4659C186.189 19.3034 185.33 20.9261 183.445 20.9261ZM191.154 16.4875C191.154 14.8886 192.145 13.9818 193.493 13.9818C194.8 13.9818 195.593 14.8349 195.593 16.2727V22H197.001V16.1773C197.001 13.8386 195.754 12.717 193.899 12.717C192.515 12.717 191.656 13.3375 191.226 14.2682H191.107V12.8364H189.746V22H191.154V16.4875ZM199.574 22H200.982V12.8364H199.574V22ZM200.29 11.3091C200.839 11.3091 201.292 10.8795 201.292 10.3545C201.292 9.82955 200.839 9.4 200.29 9.4C199.741 9.4 199.287 9.82955 199.287 10.3545C199.287 10.8795 199.741 11.3091 200.29 11.3091ZM206.257 22.2148C207.856 22.2148 208.691 21.3557 208.978 20.7591H209.049V22H210.457V15.9625C210.457 13.0511 208.238 12.717 207.068 12.717C205.684 12.717 204.109 13.1943 203.393 14.8648L204.73 15.342C205.04 14.6739 205.774 13.958 207.116 13.958C208.411 13.958 209.049 14.644 209.049 15.8193V15.867C209.049 16.5472 208.357 16.4875 206.687 16.7023C204.986 16.923 203.131 17.2989 203.131 19.3989C203.131 21.1886 204.515 22.2148 206.257 22.2148ZM206.472 20.95C205.35 20.95 204.539 20.4489 204.539 19.4705C204.539 18.3966 205.517 18.0625 206.615 17.9193C207.212 17.8477 208.811 17.6807 209.049 17.3943V18.683C209.049 19.8284 208.142 20.95 206.472 20.95ZM214.435 9.78182H213.027V22H214.435V9.78182Z" fill="#FBA43F"/>
<circle cx="16" cy="16" r="16" fill="#FBA43F"/>
<path d="M22.9011 14.2568C24.2604 15.0215 24.2604 16.9785 22.9011 17.7432L12.9805 23.3235C11.6473 24.0734 10 23.11 10 21.5803L10 10.4197C10 8.89004 11.6473 7.92661 12.9805 8.67654L22.9011 14.2568Z" fill="white"/>
</svg>
