<svg width="27" height="27" viewBox="0 0 27 27" fill="none" xmlns="http://www.w3.org/2000/svg">
<path d="M5.80091 5.69824C7.77831 3.74875 10.5109 2.54431 13.5319 2.54431C19.5597 2.54431 24.4462 7.34531 24.4462 13.2677C24.4462 19.19 19.5597 23.991 13.5319 23.991C7.50403 23.991 2.61752 19.19 2.61752 13.2677C2.61752 12.655 2.11201 12.1583 1.48845 12.1583C0.864877 12.1583 0.359375 12.655 0.359375 13.2677C0.359375 20.4153 6.2569 26.2096 13.5319 26.2096C20.8068 26.2096 26.7043 20.4153 26.7043 13.2677C26.7043 6.12 20.8068 0.325684 13.5319 0.325684C9.88648 0.325684 6.58518 1.78202 4.20142 4.13213C4.16311 4.1699 4.12814 4.20971 4.09652 4.25119L2.20334 2.39114C1.99682 2.18823 1.68947 2.12102 1.41485 2.21871C1.14023 2.31639 0.94791 2.56134 0.921468 2.84712L0.389218 8.5994C0.368994 8.81798 0.448631 9.03409 0.606592 9.18929C0.764553 9.34449 0.984515 9.42273 1.20699 9.40286L7.06173 8.87993C7.35259 8.85395 7.60191 8.665 7.70133 8.39518C7.80076 8.12537 7.73235 7.8234 7.52583 7.62049L5.67699 5.804C5.72022 5.77219 5.76166 5.73693 5.80091 5.69824Z" fill="black"/>
<path d="M14.6609 5.87224C14.6609 5.25959 14.1554 4.76293 13.5319 4.76293C12.9083 4.76293 12.4028 5.25959 12.4028 5.87224V13.2677C12.4028 13.6501 12.6033 14.0056 12.9335 14.2083L17.4497 16.9816C17.9785 17.3063 18.6751 17.1484 19.0056 16.6289C19.3361 16.1093 19.1753 15.4249 18.6465 15.1002L14.6609 12.6528V5.87224Z" fill="black"/>
</svg>
