<svg width="194" height="223" viewBox="0 0 194 223" fill="none" xmlns="http://www.w3.org/2000/svg">
<path d="M9.53125 207.276H11.6477C11.5838 204.946 9.52415 203.256 6.5696 203.256C3.65057 203.256 1.41335 204.925 1.41335 207.432C1.41335 209.456 2.86222 210.642 5.19886 211.274L6.91761 211.743C8.47301 212.155 9.6733 212.666 9.6733 213.959C9.6733 215.379 8.31676 216.317 6.44886 216.317C4.75852 216.317 3.35227 215.564 3.22443 213.98H1.02273C1.16477 216.615 3.20312 218.241 6.46307 218.241C9.87926 218.241 11.8466 216.445 11.8466 213.98C11.8466 211.359 9.50994 210.344 7.66335 209.889L6.2429 209.52C5.10653 209.229 3.59375 208.696 3.60085 207.304C3.60085 206.068 4.73011 205.152 6.51989 205.152C8.18892 205.152 9.375 205.933 9.53125 207.276ZM19.0004 218.22C21.3796 218.22 23.0629 217.048 23.5458 215.273L21.5359 214.911C21.1523 215.94 20.229 216.466 19.0217 216.466C17.2035 216.466 15.9819 215.287 15.9251 213.185H23.6808V212.432C23.6808 208.49 21.3228 206.949 18.8512 206.949C15.8114 206.949 13.8086 209.264 13.8086 212.616C13.8086 216.004 15.783 218.22 19.0004 218.22ZM15.9322 211.594C16.0174 210.045 17.1396 208.703 18.8654 208.703C20.5131 208.703 21.5927 209.925 21.5998 211.594H15.9322ZM28.1605 211.523C28.1605 209.783 29.2259 208.788 30.7031 208.788C32.1449 208.788 33.0185 209.733 33.0185 211.317V218H35.142V211.061C35.142 208.362 33.6577 206.949 31.4276 206.949C29.7869 206.949 28.7145 207.709 28.2102 208.866H28.0753V207.091H26.0369V218H28.1605V211.523ZM42.0739 218.213C44.0625 218.213 44.8438 216.999 45.2273 216.303H45.4048V218H47.4787V203.455H45.3551V208.859H45.2273C44.8438 208.185 44.1193 206.949 42.0881 206.949C39.4531 206.949 37.5142 209.03 37.5142 212.567C37.5142 216.097 39.4247 218.213 42.0739 218.213ZM42.5426 216.402C40.6463 216.402 39.6591 214.733 39.6591 212.545C39.6591 210.379 40.625 208.753 42.5426 208.753C44.3963 208.753 45.3906 210.266 45.3906 212.545C45.3906 214.839 44.375 216.402 42.5426 216.402ZM62.7131 213.476C62.7202 215.33 61.3423 216.21 60.1491 216.21C58.8352 216.21 57.9261 215.259 57.9261 213.774V207.091H55.8026V214.03C55.8026 216.736 57.2869 218.142 59.3821 218.142C61.0227 218.142 62.1378 217.276 62.642 216.111H62.7557V218H64.8438V207.091H62.7131V213.476ZM75.8718 209.754C75.4315 208.057 74.1033 206.949 71.7454 206.949C69.2809 206.949 67.5337 208.249 67.5337 210.18C67.5337 211.729 68.4712 212.759 70.5167 213.213L72.3633 213.618C73.4144 213.852 73.9045 214.321 73.9045 215.003C73.9045 215.848 73.0025 216.509 71.6104 216.509C70.3391 216.509 69.5224 215.962 69.2667 214.889L67.2141 215.202C67.5692 217.134 69.1744 218.22 71.6246 218.22C74.2596 218.22 76.0849 216.821 76.0849 214.847C76.0849 213.305 75.1048 212.354 73.1019 211.892L71.369 211.494C70.1687 211.21 69.6502 210.805 69.6573 210.067C69.6502 209.229 70.5593 208.632 71.7667 208.632C73.0877 208.632 73.6985 209.364 73.9471 210.095L75.8718 209.754ZM88.3079 218.22C90.886 218.22 92.555 216.672 92.7894 214.548H90.7227C90.4528 215.727 89.5366 216.423 88.3221 216.423C86.5252 216.423 85.3675 214.925 85.3675 212.545C85.3675 210.209 86.5465 208.739 88.3221 208.739C89.6715 208.739 90.4954 209.591 90.7227 210.614H92.7894C92.5621 208.412 90.7653 206.949 88.2866 206.949C85.2113 206.949 83.2227 209.264 83.2227 212.595C83.2227 215.884 85.1403 218.22 88.3079 218.22ZM98.2351 218.241C100.039 218.241 101.055 217.325 101.46 216.509H101.545V218H103.619V210.756C103.619 207.581 101.119 206.949 99.3857 206.949C97.4112 206.949 95.593 207.744 94.8828 209.733L96.8786 210.188C97.1911 209.413 97.9865 208.668 99.4141 208.668C100.785 208.668 101.488 209.385 101.488 210.621V210.67C101.488 211.445 100.692 211.43 98.7322 211.658C96.6655 211.899 94.549 212.439 94.549 214.918C94.549 217.062 96.1612 218.241 98.2351 218.241ZM98.6967 216.537C97.4964 216.537 96.63 215.997 96.63 214.946C96.63 213.81 97.6385 213.405 98.8672 213.241C99.5561 213.149 101.19 212.964 101.495 212.659V214.065C101.495 215.358 100.465 216.537 98.6967 216.537ZM108.571 203.455H106.447V218H108.571V203.455ZM113.551 203.455H111.428V218H113.551V203.455ZM121.701 218H123.825V211.338C123.825 209.911 124.925 208.881 126.431 208.881C126.871 208.881 127.369 208.959 127.539 209.009V206.977C127.326 206.949 126.907 206.928 126.637 206.928C125.359 206.928 124.265 207.652 123.867 208.824H123.754V207.091H121.701V218ZM133.688 218.22C136.067 218.22 137.75 217.048 138.233 215.273L136.223 214.911C135.84 215.94 134.917 216.466 133.709 216.466C131.891 216.466 130.669 215.287 130.613 213.185H138.368V212.432C138.368 208.49 136.01 206.949 133.539 206.949C130.499 206.949 128.496 209.264 128.496 212.616C128.496 216.004 130.471 218.22 133.688 218.22ZM130.62 211.594C130.705 210.045 131.827 208.703 133.553 208.703C135.201 208.703 136.28 209.925 136.287 211.594H130.62ZM150.213 222.091V207.091H148.139V208.859H147.962C147.585 208.185 146.854 206.949 144.83 206.949C142.195 206.949 140.249 209.03 140.249 212.567C140.249 216.097 142.166 218.213 144.808 218.213C146.797 218.213 147.578 216.999 147.962 216.303H148.089V222.091H150.213ZM148.132 212.545C148.132 214.839 147.109 216.402 145.284 216.402C143.388 216.402 142.393 214.733 142.393 212.545C142.393 210.379 143.359 208.753 145.284 208.753C147.138 208.753 148.132 210.266 148.132 212.545ZM159.979 213.476C159.986 215.33 158.608 216.21 157.415 216.21C156.101 216.21 155.192 215.259 155.192 213.774V207.091H153.068V214.03C153.068 216.736 154.553 218.142 156.648 218.142C158.288 218.142 159.403 217.276 159.908 216.111H160.021V218H162.109V207.091H159.979V213.476ZM169.664 218.22C172.044 218.22 173.727 217.048 174.21 215.273L172.2 214.911C171.816 215.94 170.893 216.466 169.686 216.466C167.868 216.466 166.646 215.287 166.589 213.185H174.345V212.432C174.345 208.49 171.987 206.949 169.515 206.949C166.475 206.949 164.473 209.264 164.473 212.616C164.473 216.004 166.447 218.22 169.664 218.22ZM166.596 211.594C166.681 210.045 167.804 208.703 169.529 208.703C171.177 208.703 172.257 209.925 172.264 211.594H166.596ZM184.876 209.754C184.435 208.057 183.107 206.949 180.749 206.949C178.285 206.949 176.538 208.249 176.538 210.18C176.538 211.729 177.475 212.759 179.521 213.213L181.367 213.618C182.418 213.852 182.908 214.321 182.908 215.003C182.908 215.848 182.006 216.509 180.614 216.509C179.343 216.509 178.526 215.962 178.271 214.889L176.218 215.202C176.573 217.134 178.178 218.22 180.629 218.22C183.263 218.22 185.089 216.821 185.089 214.847C185.089 213.305 184.109 212.354 182.106 211.892L180.373 211.494C179.173 211.21 178.654 210.805 178.661 210.067C178.654 209.229 179.563 208.632 180.771 208.632C182.092 208.632 182.702 209.364 182.951 210.095L184.876 209.754ZM192.516 207.091H190.279V204.477H188.155V207.091H186.557V208.795H188.155V215.237C188.148 217.219 189.661 218.178 191.337 218.142C192.012 218.135 192.466 218.007 192.715 217.915L192.331 216.161C192.189 216.189 191.926 216.253 191.586 216.253C190.897 216.253 190.279 216.026 190.279 214.797V208.795H192.516V207.091Z" fill="#4F4F4F"/>
<rect x="10" width="173" height="173" rx="86.5" fill="#E9F5F5"/>
<path fill-rule="evenodd" clip-rule="evenodd" d="M74.7721 67.3934C74.7721 67.3933 74.7729 67.3941 74.7742 67.3961L74.7721 67.3934ZM74.9099 67.6119L81.3331 77.8321C80.5569 78.568 79.7103 79.2969 78.7991 80.0813C78.016 80.7555 77.1852 81.4707 76.3105 82.2667C74.1426 84.2396 73.7238 87.4126 75.1269 89.882C82.5464 102.94 92.6661 108.882 97.1943 111.015C99.9222 112.3 102.886 111.286 104.536 109.186L108.981 103.528C108.984 103.524 108.983 103.525 108.982 103.526C108.981 103.526 108.985 103.524 108.991 103.523C108.998 103.522 109.005 103.522 109.01 103.523C109.014 103.524 109.02 103.526 109.029 103.531C111.619 105.13 115.233 107.302 118.552 109.141C117.956 112.74 116.586 114.837 115.077 116.119C113.491 117.464 111.441 118.173 109.154 118.429C104.588 118.939 99.9531 117.554 98.9251 117.216C97.7907 116.637 91.5714 113.363 84.927 108.058C78.0755 102.587 71.2054 95.2971 68.5779 86.9357C66.6576 80.8249 67.3817 76.5248 68.891 73.5587C70.35 70.6913 72.7111 68.7451 74.9099 67.6119ZM72.5863 61.5631C75.6133 60.1274 78.7433 61.6243 80.2012 63.9441L86.9208 74.6359C88.2793 76.7974 88.3724 79.9573 86.1639 82.1219C85.2175 83.0495 83.9006 84.1897 82.6752 85.2507C82.0026 85.8332 81.3575 86.3917 80.8164 86.8782C87.202 97.9974 95.7392 103.142 99.6221 105.023L103.944 99.5209C105.985 96.9232 109.619 96.3161 112.386 98.0239C114.946 99.6037 118.484 101.73 121.691 103.505C123.83 104.69 125.36 107.158 124.926 109.945C124.148 114.951 122.114 118.597 119.216 121.057C116.367 123.476 112.973 124.502 109.863 124.85C103.747 125.534 97.8976 123.682 96.8294 123.324C96.5589 123.233 96.3345 123.138 96.0932 123.015C94.9464 122.433 88.1882 118.909 80.9365 113.119C73.7603 107.389 65.6672 99.1013 62.4564 88.8837C60.098 81.3783 60.7956 75.2928 63.1764 70.6141C65.5154 66.0173 69.3032 63.1202 72.5863 61.5631Z" fill="#239C9C"/>
<circle cx="114" cy="67" r="15" fill="#FBA43F"/>
<path fill-rule="evenodd" clip-rule="evenodd" d="M122.309 70.6687C123.045 70.5665 123.426 69.9236 123.16 69.2326L119.715 60.3053C119.586 59.9696 119.318 59.6679 118.972 59.4681C118.625 59.2683 118.23 59.1871 117.875 59.2427L108.421 60.7232C107.689 60.8378 107.323 61.4892 107.603 62.1782C107.883 62.8672 108.703 63.3329 109.434 63.2183L115.648 62.2452L108.735 73.5163C108.409 74.0809 108.722 74.8719 109.434 75.2832C110.147 75.6945 110.988 75.5702 111.314 75.0057L118.228 63.7346L120.492 69.6026C120.759 70.2935 121.572 70.7708 122.309 70.6687Z" fill="white"/>
</svg>
