<svg width="18" height="20" viewBox="0 0 18 20" fill="none" xmlns="http://www.w3.org/2000/svg">
<path fill-rule="evenodd" clip-rule="evenodd" d="M3 20L15 20C16.6569 20 18 18.6569 18 17V10L18 6.37939C18 5.64611 17.7314 4.93822 17.245 4.38947L15.5969 2.53001L14.3143 1.04161C13.7444 0.38028 12.9147 0 12.0417 0H9H3C1.34315 0 0 1.34314 0 3V17C1.96477e-06 18.6569 1.34315 20 3 20ZM12.7992 2.3472L14.0909 3.84616L15.7483 5.71608C15.9105 5.899 16 6.13496 16 6.37939V10L16 17C16 17.5523 15.5523 18 15 18L3 18C2.44772 18 2 17.5523 2 17L2 3C2 2.44772 2.44772 2 3 2L9 2L12.0417 2C12.3327 2 12.6092 2.12676 12.7992 2.3472ZM12.277 9.62951C12.6247 9.20039 12.5586 8.57068 12.1295 8.22301C11.7004 7.87534 11.0707 7.94137 10.723 8.37049L8.22785 11.4502L7.25085 10.3395C6.88608 9.92485 6.25421 9.88438 5.83953 10.2492C5.42484 10.6139 5.38438 11.2458 5.74915 11.6605L7.50841 13.6605C7.70293 13.8816 7.98505 14.0058 8.27952 13.9998C8.57399 13.9938 8.85085 13.8584 9.03625 13.6295L12.277 9.62951Z" fill="#085D5D"/>
</svg>
