<svg width="20" height="20" viewBox="0 0 20 20" fill="none" xmlns="http://www.w3.org/2000/svg">
<path fill-rule="evenodd" clip-rule="evenodd" d="M11 3C11 2.44772 10.5523 2 10 2C9.44771 2 9 2.44772 9 3C9 3.55228 9.44771 4 10 4C10.5523 4 11 3.55228 11 3ZM13 3C13 4.30622 12.1652 5.41746 11 5.82929V9H15C16.6569 9 18 10.3431 18 12V14.1707C19.1652 14.5825 20 15.6938 20 17C20 18.6569 18.6569 20 17 20C15.3431 20 14 18.6569 14 17C14 15.6938 14.8348 14.5825 16 14.1707V12C16 11.4477 15.5523 11 15 11H11V14.1707C12.1652 14.5825 13 15.6938 13 17C13 18.6569 11.6569 20 10 20C8.34315 20 7 18.6569 7 17C7 15.6938 7.83481 14.5825 9 14.1707V11H5C4.44772 11 4 11.4477 4 12V14.1707C5.16519 14.5825 6 15.6938 6 17C6 18.6569 4.65685 20 3 20C1.34315 20 0 18.6569 0 17C0 15.6938 0.834808 14.5825 2 14.1707V12C2 10.3431 3.34315 9 5 9H9V5.82929C7.83481 5.41746 7 4.30622 7 3C7 1.34315 8.34315 0 10 0C11.6569 0 13 1.34315 13 3ZM17 16C16.4477 16 16 16.4477 16 17C16 17.5523 16.4477 18 17 18C17.5523 18 18 17.5523 18 17C18 16.4477 17.5523 16 17 16ZM9 17C9 16.4477 9.44771 16 10 16C10.5523 16 11 16.4477 11 17C11 17.5523 10.5523 18 10 18C9.44771 18 9 17.5523 9 17ZM3 16C2.44772 16 2 16.4477 2 17C2 17.5523 2.44772 18 3 18C3.55228 18 4 17.5523 4 17C4 16.4477 3.55228 16 3 16Z" fill="#F2994A"/>
</svg>
