<svg width="204" height="250" viewBox="0 0 204 250" fill="none" xmlns="http://www.w3.org/2000/svg">
<rect x="15" width="173" height="173" rx="86.5" fill="#E9F5F5"/>
<path d="M28.6229 205.344H33.1541V218H35.3416V205.344H39.88V203.455H28.6229V205.344ZM43.8874 218.241C45.6914 218.241 46.707 217.325 47.1119 216.509H47.1971V218H49.271V210.756C49.271 207.581 46.771 206.949 45.038 206.949C43.0636 206.949 41.2454 207.744 40.5352 209.733L42.5309 210.188C42.8434 209.413 43.6388 208.668 45.0664 208.668C46.4371 208.668 47.1403 209.385 47.1403 210.621V210.67C47.1403 211.445 46.3448 211.43 44.3846 211.658C42.3178 211.899 40.2013 212.439 40.2013 214.918C40.2013 217.062 41.8136 218.241 43.8874 218.241ZM44.3491 216.537C43.1488 216.537 42.2823 215.997 42.2823 214.946C42.2823 213.81 43.2908 213.405 44.5195 213.241C45.2085 213.149 46.842 212.964 47.1474 212.659V214.065C47.1474 215.358 46.1175 216.537 44.3491 216.537ZM52.0994 218H54.223V214.129L55.2812 213.071L58.9886 218H61.5952L56.8793 211.771L61.2969 207.091H58.7543L54.4077 211.707H54.223V203.455H52.0994V218ZM67.4847 218.22C69.864 218.22 71.5472 217.048 72.0302 215.273L70.0202 214.911C69.6367 215.94 68.7134 216.466 67.506 216.466C65.6879 216.466 64.4663 215.287 64.4094 213.185H72.1651V212.432C72.1651 208.49 69.8072 206.949 67.3356 206.949C64.2958 206.949 62.293 209.264 62.293 212.616C62.293 216.004 64.2674 218.22 67.4847 218.22ZM64.4165 211.594C64.5018 210.045 65.6239 208.703 67.3498 208.703C68.9975 208.703 70.0771 209.925 70.0842 211.594H64.4165ZM79.8143 218H81.9379V207.091H79.8143V218ZM80.8867 205.408C81.6183 205.408 82.229 204.839 82.229 204.143C82.229 203.447 81.6183 202.872 80.8867 202.872C80.1481 202.872 79.5444 203.447 79.5444 204.143C79.5444 204.839 80.1481 205.408 80.8867 205.408ZM86.9183 211.523C86.9183 209.783 87.9837 208.788 89.4609 208.788C90.9027 208.788 91.7763 209.733 91.7763 211.317V218H93.8999V211.061C93.8999 208.362 92.4155 206.949 90.1854 206.949C88.5447 206.949 87.4723 207.709 86.968 208.866H86.8331V207.091H84.7947V218H86.9183V211.523ZM101.84 207.091H99.603V204.477H97.4794V207.091H95.8814V208.795H97.4794V215.237C97.4723 217.219 98.9851 218.178 100.661 218.142C101.336 218.135 101.79 218.007 102.039 217.915L101.656 216.161C101.513 216.189 101.251 216.253 100.91 216.253C100.221 216.253 99.603 216.026 99.603 214.797V208.795H101.84V207.091ZM108.774 218.22C111.153 218.22 112.836 217.048 113.319 215.273L111.309 214.911C110.926 215.94 110.002 216.466 108.795 216.466C106.977 216.466 105.755 215.287 105.699 213.185H113.454V212.432C113.454 208.49 111.096 206.949 108.625 206.949C105.585 206.949 103.582 209.264 103.582 212.616C103.582 216.004 105.556 218.22 108.774 218.22ZM105.706 211.594C105.791 210.045 106.913 208.703 108.639 208.703C110.287 208.703 111.366 209.925 111.373 211.594H105.706ZM115.81 218H117.934V211.338C117.934 209.911 119.035 208.881 120.54 208.881C120.981 208.881 121.478 208.959 121.648 209.009V206.977C121.435 206.949 121.016 206.928 120.746 206.928C119.468 206.928 118.374 207.652 117.977 208.824H117.863V207.091H115.81V218ZM133.151 207.091H130.871L128.115 215.486H128.001L125.239 207.091H122.959L126.922 218H129.195L133.151 207.091ZM135.146 218H137.27V207.091H135.146V218ZM136.219 205.408C136.95 205.408 137.561 204.839 137.561 204.143C137.561 203.447 136.95 202.872 136.219 202.872C135.48 202.872 134.876 203.447 134.876 204.143C134.876 204.839 135.48 205.408 136.219 205.408ZM144.828 218.22C147.208 218.22 148.891 217.048 149.374 215.273L147.364 214.911C146.98 215.94 146.057 216.466 144.85 216.466C143.032 216.466 141.81 215.287 141.753 213.185H149.509V212.432C149.509 208.49 147.151 206.949 144.679 206.949C141.64 206.949 139.637 209.264 139.637 212.616C139.637 216.004 141.611 218.22 144.828 218.22ZM141.76 211.594C141.846 210.045 142.968 208.703 144.694 208.703C146.341 208.703 147.421 209.925 147.428 211.594H141.76ZM154.211 218H156.37L158.586 210.124H158.749L160.965 218H163.131L166.334 207.091H164.14L162.016 215.067H161.909L159.779 207.091H157.584L155.439 215.102H155.333L153.195 207.091H151L154.211 218ZM169.628 216.011H167.582L167.511 216.807C167.348 218.732 166.893 220.67 166.702 221.551H168.207C168.548 220.621 169.301 218.49 169.521 216.786L169.628 216.011ZM6.00923 249.318C8.78622 249.318 10.9311 248.047 10.9311 245.241V234.091H8.85014V235.859H8.69389C8.31747 235.185 7.56463 233.949 5.53338 233.949C2.89844 233.949 0.959517 236.03 0.959517 239.503C0.959517 242.983 2.94105 244.837 5.51918 244.837C7.52202 244.837 8.29616 243.707 8.67969 243.011H8.81463V245.156C8.81463 246.868 7.64276 247.607 6.03054 247.607C4.26207 247.607 3.57315 246.719 3.19673 246.094L1.37145 246.847C1.94673 248.182 3.4027 249.318 6.00923 249.318ZM5.98793 243.075C4.09162 243.075 3.1044 241.619 3.1044 239.474C3.1044 237.379 4.07031 235.753 5.98793 235.753C7.84162 235.753 8.83594 237.266 8.83594 239.474C8.83594 241.726 7.82031 243.075 5.98793 243.075ZM18.4808 245.22C20.8601 245.22 22.5433 244.048 23.0263 242.273L21.0163 241.911C20.6328 242.94 19.7095 243.466 18.5021 243.466C16.6839 243.466 15.4624 242.287 15.4055 240.185H23.1612V239.432C23.1612 235.49 20.8033 233.949 18.3317 233.949C15.2919 233.949 13.2891 236.264 13.2891 239.616C13.2891 243.004 15.2635 245.22 18.4808 245.22ZM15.4126 238.594C15.4979 237.045 16.62 235.703 18.3459 235.703C19.9936 235.703 21.0732 236.925 21.0803 238.594H15.4126ZM30.6097 234.091H28.3725V231.477H26.2489V234.091H24.6509V235.795H26.2489V242.237C26.2418 244.219 27.7546 245.178 29.4308 245.142C30.1055 245.135 30.56 245.007 30.8086 244.915L30.4251 243.161C30.283 243.189 30.0202 243.253 29.6793 243.253C28.9904 243.253 28.3725 243.026 28.3725 241.797V235.795H30.6097V234.091ZM46.4265 236.754C45.9862 235.057 44.658 233.949 42.3001 233.949C39.8356 233.949 38.0884 235.249 38.0884 237.18C38.0884 238.729 39.0259 239.759 41.0714 240.213L42.918 240.618C43.9691 240.852 44.4592 241.321 44.4592 242.003C44.4592 242.848 43.5572 243.509 42.1651 243.509C40.8938 243.509 40.0771 242.962 39.8214 241.889L37.7688 242.202C38.1239 244.134 39.729 245.22 42.1793 245.22C44.8143 245.22 46.6396 243.821 46.6396 241.847C46.6396 240.305 45.6594 239.354 43.6566 238.892L41.9237 238.494C40.7234 238.21 40.2049 237.805 40.212 237.067C40.2049 236.229 41.114 235.632 42.3214 235.632C43.6424 235.632 44.2532 236.364 44.5018 237.095L46.4265 236.754ZM52.1491 245.241C53.9531 245.241 54.9688 244.325 55.3736 243.509H55.4588V245H57.5327V237.756C57.5327 234.581 55.0327 233.949 53.2997 233.949C51.3253 233.949 49.5071 234.744 48.7969 236.733L50.7926 237.188C51.1051 236.413 51.9006 235.668 53.3281 235.668C54.6989 235.668 55.402 236.385 55.402 237.621V237.67C55.402 238.445 54.6065 238.43 52.6463 238.658C50.5795 238.899 48.4631 239.439 48.4631 241.918C48.4631 244.062 50.0753 245.241 52.1491 245.241ZM52.6108 243.537C51.4105 243.537 50.544 242.997 50.544 241.946C50.544 240.81 51.5526 240.405 52.7812 240.241C53.4702 240.149 55.1037 239.964 55.4091 239.659V241.065C55.4091 242.358 54.3793 243.537 52.6108 243.537ZM65.4535 234.091H63.2163V231.477H61.0927V234.091H59.4947V235.795H61.0927V242.237C61.0856 244.219 62.5984 245.178 64.2745 245.142C64.9492 245.135 65.4038 245.007 65.6523 244.915L65.2688 243.161C65.1268 243.189 64.864 243.253 64.5231 243.253C63.8342 243.253 63.2163 243.026 63.2163 241.797V235.795H65.4535V234.091ZM67.8026 245H69.9261V234.091H67.8026V245ZM68.875 232.408C69.6065 232.408 70.2173 231.839 70.2173 231.143C70.2173 230.447 69.6065 229.872 68.875 229.872C68.1364 229.872 67.5327 230.447 67.5327 231.143C67.5327 231.839 68.1364 232.408 68.875 232.408ZM80.9577 236.754C80.5174 235.057 79.1893 233.949 76.8313 233.949C74.3668 233.949 72.6197 235.249 72.6197 237.18C72.6197 238.729 73.5572 239.759 75.6026 240.213L77.4492 240.618C78.5004 240.852 78.9904 241.321 78.9904 242.003C78.9904 242.848 78.0884 243.509 76.6964 243.509C75.4251 243.509 74.6083 242.962 74.3526 241.889L72.3001 242.202C72.6552 244.134 74.2603 245.22 76.7106 245.22C79.3455 245.22 81.1708 243.821 81.1708 241.847C81.1708 240.305 80.1907 239.354 78.1879 238.892L76.4549 238.494C75.2546 238.21 74.7362 237.805 74.7433 237.067C74.7362 236.229 75.6452 235.632 76.8526 235.632C78.1737 235.632 78.7844 236.364 79.033 237.095L80.9577 236.754ZM88.6974 234.091H86.3466V233.111C86.3466 232.145 86.7443 231.619 87.7812 231.619C88.2216 231.619 88.5341 231.719 88.733 231.783L89.2301 230.064C88.9318 229.95 88.3139 229.773 87.4545 229.773C85.7287 229.773 84.2159 230.781 84.2159 232.827V234.091H82.5327V235.795H84.2159V245H86.3466V235.795H88.6974V234.091ZM90.8885 245H93.0121V234.091H90.8885V245ZM91.9609 232.408C92.6925 232.408 93.3033 231.839 93.3033 231.143C93.3033 230.447 92.6925 229.872 91.9609 229.872C91.2223 229.872 90.6186 230.447 90.6186 231.143C90.6186 231.839 91.2223 232.408 91.9609 232.408ZM100.571 245.22C102.95 245.22 104.633 244.048 105.116 242.273L103.106 241.911C102.723 242.94 101.799 243.466 100.592 243.466C98.7738 243.466 97.5522 242.287 97.4954 240.185H105.251V239.432C105.251 235.49 102.893 233.949 100.422 233.949C97.3817 233.949 95.3789 236.264 95.3789 239.616C95.3789 243.004 97.3533 245.22 100.571 245.22ZM97.5025 238.594C97.5877 237.045 98.7099 235.703 100.436 235.703C102.083 235.703 103.163 236.925 103.17 238.594H97.5025ZM111.691 245.213C113.68 245.213 114.461 243.999 114.844 243.303H115.022V245H117.096V230.455H114.972V235.859H114.844C114.461 235.185 113.737 233.949 111.705 233.949C109.07 233.949 107.131 236.03 107.131 239.567C107.131 243.097 109.042 245.213 111.691 245.213ZM112.16 243.402C110.263 243.402 109.276 241.733 109.276 239.545C109.276 237.379 110.242 235.753 112.16 235.753C114.013 235.753 115.008 237.266 115.008 239.545C115.008 241.839 113.992 243.402 112.16 243.402ZM128.594 245.241C130.398 245.241 131.414 244.325 131.819 243.509H131.904V245H133.978V237.756C133.978 234.581 131.478 233.949 129.745 233.949C127.771 233.949 125.952 234.744 125.242 236.733L127.238 237.188C127.55 236.413 128.346 235.668 129.773 235.668C131.144 235.668 131.847 236.385 131.847 237.621V237.67C131.847 238.445 131.052 238.43 129.092 238.658C127.025 238.899 124.908 239.439 124.908 241.918C124.908 244.062 126.521 245.241 128.594 245.241ZM129.056 243.537C127.856 243.537 126.989 242.997 126.989 241.946C126.989 240.81 127.998 240.405 129.227 240.241C129.915 240.149 131.549 239.964 131.854 239.659V241.065C131.854 242.358 130.825 243.537 129.056 243.537ZM138.93 238.523C138.93 236.783 139.995 235.788 141.473 235.788C142.914 235.788 143.788 236.733 143.788 238.317V245H145.912V238.061C145.912 235.362 144.427 233.949 142.197 233.949C140.556 233.949 139.484 234.709 138.98 235.866H138.845V234.091H136.806V245H138.93V238.523ZM152.843 245.213C154.832 245.213 155.613 243.999 155.997 243.303H156.174V245H158.248V230.455H156.125V235.859H155.997C155.613 235.185 154.889 233.949 152.858 233.949C150.223 233.949 148.284 236.03 148.284 239.567C148.284 243.097 150.194 245.213 152.843 245.213ZM153.312 243.402C151.416 243.402 150.429 241.733 150.429 239.545C150.429 237.379 151.395 235.753 153.312 235.753C155.166 235.753 156.16 237.266 156.16 239.545C156.16 241.839 155.145 243.402 153.312 243.402ZM166.743 245H168.937V238.658H176.189V245H178.39V230.455H176.189V236.776H168.937V230.455H166.743V245ZM181.416 245H183.539V234.091H181.416V245ZM182.488 232.408C183.22 232.408 183.831 231.839 183.831 231.143C183.831 230.447 183.22 229.872 182.488 229.872C181.75 229.872 181.146 230.447 181.146 231.143C181.146 231.839 181.75 232.408 182.488 232.408ZM186.396 245H188.52V238.338C188.52 236.911 189.621 235.881 191.126 235.881C191.567 235.881 192.064 235.959 192.234 236.009V233.977C192.021 233.949 191.602 233.928 191.332 233.928C190.054 233.928 188.96 234.652 188.562 235.824H188.449V234.091H186.396V245ZM198.383 245.22C200.762 245.22 202.446 244.048 202.929 242.273L200.919 241.911C200.535 242.94 199.612 243.466 198.404 243.466C196.586 243.466 195.365 242.287 195.308 240.185H203.064V239.432C203.064 235.49 200.706 233.949 198.234 233.949C195.194 233.949 193.191 236.264 193.191 239.616C193.191 243.004 195.166 245.22 198.383 245.22ZM195.315 238.594C195.4 237.045 196.522 235.703 198.248 235.703C199.896 235.703 200.975 236.925 200.983 238.594H195.315Z" fill="#4F4F4F"/>
<circle cx="130" cy="59" r="19" fill="#FBA43F"/>
<path fill-rule="evenodd" clip-rule="evenodd" d="M131.268 47C129.538 47 128.186 48.3477 128.098 49.9555C128.061 50.6528 127.999 51.3973 127.901 51.9794C127.865 52.1928 127.747 52.5112 127.531 52.9153C127.323 53.3053 127.059 53.7127 126.791 54.0911C126.524 54.467 126.263 54.7995 126.068 55.0383C126.036 55.0774 126.006 55.1139 125.979 55.1475L124.26 55.6333C123.858 55.3403 123.357 55.1667 122.815 55.1667H120.408C119.078 55.1667 118 56.2113 118 57.5V65.6667C118 66.9553 119.078 68 120.408 68H122.815C123.55 68 124.208 67.6809 124.65 67.1778L124.65 67.178C125.798 67.7189 127.058 68 128.335 68H137.481C139.274 68 140.795 66.7258 141.055 65.007L141.961 59.007C142.28 56.8947 140.591 55 138.388 55H135.664V51.2601C135.664 48.9073 133.696 47 131.268 47ZM125.223 64.8533L125.703 65.0795C126.523 65.4659 127.423 65.6667 128.335 65.6667H137.481C138.079 65.6667 138.586 65.2419 138.673 64.669L139.579 58.669C139.685 57.9649 139.122 57.3333 138.388 57.3333H134.46C133.795 57.3333 133.256 56.811 133.256 56.1667V51.2601C133.256 50.196 132.366 49.3333 131.268 49.3333C130.887 49.3333 130.526 49.6423 130.503 50.0782C130.463 50.8017 130.396 51.6459 130.277 52.354C130.182 52.9216 129.933 53.4937 129.67 53.9861C129.401 54.4925 129.077 54.9874 128.774 55.4139C128.469 55.8426 128.175 56.2172 127.958 56.4843C127.849 56.6183 127.758 56.7264 127.693 56.8019C127.661 56.8398 127.635 56.8695 127.617 56.8904L127.596 56.9149L127.59 56.9221L127.588 56.9243L127.587 56.9251L127.587 56.9254C127.587 56.9255 127.586 56.9256 126.672 56.1667L127.586 56.9256C127.434 57.0977 127.234 57.2232 127.009 57.2867L125.223 57.7916V64.8533ZM122.815 57.5H120.408V59.8333V63.3333V65.6667H122.815V65.5833V63.3333V59.8333V57.5Z" fill="white"/>
<path fill-rule="evenodd" clip-rule="evenodd" d="M96.8 64C93.2654 64 90.4 66.8355 90.4 70.3333V73.5L77.6 73.5C72.2981 73.5 68 77.7533 68 83V111.5C68 116.747 72.2981 121 77.6 121H122.4C127.702 121 132 116.747 132 111.5V83C132 77.7533 127.702 73.5 122.4 73.5L109.6 73.5V70.3333C109.6 66.8355 106.735 64 103.2 64H96.8ZM107.156 79.8333C105.398 81.7769 102.843 83 100 83C97.1568 83 94.6023 81.7769 92.8445 79.8333L77.6 79.8333C75.8327 79.8333 74.4 81.2511 74.4 83L74.4 111.5C74.4 113.249 75.8327 114.667 77.6 114.667V113.083C77.6 109.982 78.8872 107.178 80.9616 105.167C78.8872 103.155 77.6 100.351 77.6 97.25C77.6 91.1288 82.6144 86.1667 88.8 86.1667C94.9856 86.1667 100 91.1288 100 97.25C100 100.351 98.7128 103.155 96.6384 105.167C98.7128 107.178 100 109.982 100 113.083V114.667L122.4 114.667C124.167 114.667 125.6 113.249 125.6 111.5V83C125.6 81.2511 124.167 79.8333 122.4 79.8333H107.156ZM96.8 70.3333H103.2V73.5C103.2 75.2489 101.767 76.6667 100 76.6667C98.2327 76.6667 96.8 75.2489 96.8 73.5V70.3333ZM93.6 113.083V114.667H84V113.083C84 110.46 86.149 108.333 88.8 108.333C91.451 108.333 93.6 110.46 93.6 113.083ZM93.6 97.25C93.6 99.8734 91.451 102 88.8 102C86.149 102 84 99.8734 84 97.25C84 94.6266 86.149 92.5 88.8 92.5C91.451 92.5 93.6 94.6266 93.6 97.25ZM103.2 92.5C103.2 90.7511 104.633 89.3333 106.4 89.3333H119.2C120.967 89.3333 122.4 90.7511 122.4 92.5C122.4 94.2489 120.967 95.6667 119.2 95.6667H106.4C104.633 95.6667 103.2 94.2489 103.2 92.5ZM106.4 102C104.633 102 103.2 103.418 103.2 105.167C103.2 106.916 104.633 108.333 106.4 108.333H119.2C120.967 108.333 122.4 106.916 122.4 105.167C122.4 103.418 120.967 102 119.2 102H106.4Z" fill="#239C9C"/>
</svg>
