<svg width="231" height="223" viewBox="0 0 231 223" fill="none" xmlns="http://www.w3.org/2000/svg">
<path d="M0.880682 205.344H5.41193V218H7.59943V205.344H12.1378V203.455H0.880682V205.344ZM17.5746 218.22C19.9538 218.22 21.6371 217.048 22.12 215.273L20.1101 214.911C19.7266 215.94 18.8033 216.466 17.5959 216.466C15.7777 216.466 14.5561 215.287 14.4993 213.185H22.255V212.432C22.255 208.49 19.897 206.949 17.4254 206.949C14.3857 206.949 12.3828 209.264 12.3828 212.616C12.3828 216.004 14.3572 218.22 17.5746 218.22ZM14.5064 211.594C14.5916 210.045 15.7138 208.703 17.4396 208.703C19.0874 208.703 20.1669 209.925 20.174 211.594H14.5064ZM26.7347 203.455H24.6112V218H26.7347V203.455ZM31.7152 203.455H29.5916V218H31.7152V203.455ZM46.7756 213.476C46.7827 215.33 45.4048 216.21 44.2116 216.21C42.8977 216.21 41.9886 215.259 41.9886 213.774V207.091H39.8651V214.03C39.8651 216.736 41.3494 218.142 43.4446 218.142C45.0852 218.142 46.2003 217.276 46.7045 216.111H46.8182V218H48.9062V207.091H46.7756V213.476ZM59.9343 209.754C59.494 208.057 58.1658 206.949 55.8079 206.949C53.3434 206.949 51.5962 208.249 51.5962 210.18C51.5962 211.729 52.5337 212.759 54.5792 213.213L56.4258 213.618C57.4769 213.852 57.967 214.321 57.967 215.003C57.967 215.848 57.065 216.509 55.6729 216.509C54.4016 216.509 53.5849 215.962 53.3292 214.889L51.2766 215.202C51.6317 217.134 53.2369 218.22 55.6871 218.22C58.3221 218.22 60.1474 216.821 60.1474 214.847C60.1474 213.305 59.1673 212.354 57.1644 211.892L55.4315 211.494C54.2312 211.21 53.7127 210.805 53.7198 210.067C53.7127 209.229 54.6218 208.632 55.8292 208.632C57.1502 208.632 57.761 209.364 58.0096 210.095L59.9343 209.754ZM69.1175 222.091C70.8718 222.091 71.9798 221.175 72.6119 219.456L77.1218 207.112L74.8278 207.091L72.065 215.557H71.9513L69.1886 207.091H66.9158L70.9073 218.142L70.6445 218.866C70.1048 220.315 69.3448 220.436 68.18 220.116L67.6687 221.857C67.9244 221.97 68.4783 222.091 69.1175 222.091ZM83.3274 218.22C86.4027 218.22 88.4126 215.969 88.4126 212.595C88.4126 209.2 86.4027 206.949 83.3274 206.949C80.2521 206.949 78.2422 209.2 78.2422 212.595C78.2422 215.969 80.2521 218.22 83.3274 218.22ZM83.3345 216.438C81.3246 216.438 80.3871 214.683 80.3871 212.588C80.3871 210.5 81.3246 208.724 83.3345 208.724C85.3303 208.724 86.2678 210.5 86.2678 212.588C86.2678 214.683 85.3303 216.438 83.3345 216.438ZM97.6935 213.476C97.7006 215.33 96.3228 216.21 95.1296 216.21C93.8157 216.21 92.9066 215.259 92.9066 213.774V207.091H90.783V214.03C90.783 216.736 92.2674 218.142 94.3626 218.142C96.0032 218.142 97.1183 217.276 97.6225 216.111H97.7362V218H99.8242V207.091H97.6935V213.476ZM102.678 218H104.801V211.338C104.801 209.911 105.902 208.881 107.408 208.881C107.848 208.881 108.345 208.959 108.516 209.009V206.977C108.303 206.949 107.884 206.928 107.614 206.928C106.335 206.928 105.241 207.652 104.844 208.824H104.73V207.091H102.678V218ZM115.646 218H117.77V211.338C117.77 209.911 118.871 208.881 120.376 208.881C120.817 208.881 121.314 208.959 121.484 209.009V206.977C121.271 206.949 120.852 206.928 120.582 206.928C119.304 206.928 118.21 207.652 117.812 208.824H117.699V207.091H115.646V218ZM127.633 218.22C130.012 218.22 131.696 217.048 132.179 215.273L130.169 214.911C129.785 215.94 128.862 216.466 127.654 216.466C125.836 216.466 124.615 215.287 124.558 213.185H132.314V212.432C132.314 208.49 129.956 206.949 127.484 206.949C124.444 206.949 122.441 209.264 122.441 212.616C122.441 216.004 124.416 218.22 127.633 218.22ZM124.565 211.594C124.65 210.045 125.772 208.703 127.498 208.703C129.146 208.703 130.225 209.925 130.233 211.594H124.565ZM144.158 222.091V207.091H142.085V208.859H141.907C141.531 208.185 140.799 206.949 138.775 206.949C136.14 206.949 134.194 209.03 134.194 212.567C134.194 216.097 136.112 218.213 138.754 218.213C140.742 218.213 141.523 216.999 141.907 216.303H142.035V222.091H144.158ZM142.077 212.545C142.077 214.839 141.055 216.402 139.229 216.402C137.333 216.402 136.339 214.733 136.339 212.545C136.339 210.379 137.305 208.753 139.229 208.753C141.083 208.753 142.077 210.266 142.077 212.545ZM153.924 213.476C153.931 215.33 152.553 216.21 151.36 216.21C150.046 216.21 149.137 215.259 149.137 213.774V207.091H147.013V214.03C147.013 216.736 148.498 218.142 150.593 218.142C152.234 218.142 153.349 217.276 153.853 216.111H153.967V218H156.055V207.091H153.924V213.476ZM158.908 218H161.032V207.091H158.908V218ZM159.98 205.408C160.712 205.408 161.323 204.839 161.323 204.143C161.323 203.447 160.712 202.872 159.98 202.872C159.242 202.872 158.638 203.447 158.638 204.143C158.638 204.839 159.242 205.408 159.98 205.408ZM163.888 218H166.012V211.338C166.012 209.911 167.113 208.881 168.619 208.881C169.059 208.881 169.556 208.959 169.727 209.009V206.977C169.513 206.949 169.094 206.928 168.825 206.928C167.546 206.928 166.452 207.652 166.055 208.824H165.941V207.091H163.888V218ZM175.875 218.22C178.255 218.22 179.938 217.048 180.421 215.273L178.411 214.911C178.027 215.94 177.104 216.466 175.897 216.466C174.078 216.466 172.857 215.287 172.8 213.185H180.556V212.432C180.556 208.49 178.198 206.949 175.726 206.949C172.686 206.949 170.684 209.264 170.684 212.616C170.684 216.004 172.658 218.22 175.875 218.22ZM172.807 211.594C172.892 210.045 174.015 208.703 175.74 208.703C177.388 208.703 178.468 209.925 178.475 211.594H172.807ZM182.912 218H185.036V211.274C185.036 209.804 186.065 208.781 187.273 208.781C188.452 208.781 189.268 209.562 189.268 210.749V218H191.385V211.047C191.385 209.733 192.188 208.781 193.572 208.781C194.695 208.781 195.618 209.406 195.618 210.884V218H197.741V210.685C197.741 208.192 196.349 206.949 194.375 206.949C192.805 206.949 191.626 207.702 191.101 208.866H190.987C190.511 207.673 189.51 206.949 188.054 206.949C186.612 206.949 185.54 207.666 185.085 208.866H184.95V207.091H182.912V218ZM205.289 218.22C207.669 218.22 209.352 217.048 209.835 215.273L207.825 214.911C207.441 215.94 206.518 216.466 205.311 216.466C203.493 216.466 202.271 215.287 202.214 213.185H209.97V212.432C209.97 208.49 207.612 206.949 205.14 206.949C202.1 206.949 200.098 209.264 200.098 212.616C200.098 216.004 202.072 218.22 205.289 218.22ZM202.221 211.594C202.306 210.045 203.429 208.703 205.154 208.703C206.802 208.703 207.882 209.925 207.889 211.594H202.221ZM214.45 211.523C214.45 209.783 215.515 208.788 216.992 208.788C218.434 208.788 219.308 209.733 219.308 211.317V218H221.431V211.061C221.431 208.362 219.947 206.949 217.717 206.949C216.076 206.949 215.004 207.709 214.499 208.866H214.364V207.091H212.326V218H214.45V211.523ZM229.371 207.091H227.134V204.477H225.011V207.091H223.413V208.795H225.011V215.237C225.004 217.219 226.516 218.178 228.192 218.142C228.867 218.135 229.322 218.007 229.57 217.915L229.187 216.161C229.045 216.189 228.782 216.253 228.441 216.253C227.752 216.253 227.134 216.026 227.134 214.797V208.795H229.371V207.091Z" fill="#4F4F4F"/>
<rect x="29" width="173" height="173" rx="86.5" fill="#E9F5F5"/>
<path fill-rule="evenodd" clip-rule="evenodd" d="M111 105.492V83.3731C111 79.301 107.642 76 103.5 76H68.5C64.3579 76 61 79.301 61 83.3731V105.492C61 109.564 64.3579 112.865 68.5 112.865H79.1213L85.6343 118.468C89.6755 121.944 96 119.123 96 113.844V112.865H103.5C107.642 112.865 111 109.564 111 105.492ZM91.597 110.534C92.4418 108.995 94.0967 107.95 96 107.95H103.5C104.881 107.95 106 106.85 106 105.492V83.3731C106 82.0157 104.881 80.9154 103.5 80.9154H68.5C67.1193 80.9154 66 82.0157 66 83.3731V105.492C66 106.85 67.1193 107.95 68.5 107.95H79.1213C80.3324 107.95 81.5024 108.382 82.4138 109.166L88.9269 114.769C89.7351 115.464 91 114.9 91 113.844V112.865C91 112.714 91.007 112.564 91.0206 112.416C91.0802 111.769 91.2673 111.158 91.5571 110.608C91.5702 110.583 91.5835 110.559 91.597 110.534Z" fill="#86C8C8"/>
<path fill-rule="evenodd" clip-rule="evenodd" d="M104.385 95.8762V66.7191C104.385 61.3514 108.729 57 114.089 57H159.373C164.733 57 169.077 61.3514 169.077 66.7191V95.8762C169.077 101.244 164.733 105.595 159.373 105.595H145.631L137.204 112.98C131.975 117.563 123.792 113.844 123.792 106.885V105.595H114.089C108.729 105.595 104.385 101.244 104.385 95.8762ZM129.489 102.522C128.396 100.494 126.255 99.1159 123.792 99.1159H114.089C112.302 99.1159 110.854 97.6654 110.854 95.8762V66.7191C110.854 64.9298 112.302 63.4794 114.089 63.4794H159.373C161.16 63.4794 162.608 64.9298 162.608 66.7191V95.8762C162.608 97.6654 161.16 99.1159 159.373 99.1159H145.631C144.064 99.1159 142.55 99.6855 141.371 100.719L132.944 108.104C131.898 109.021 130.262 108.277 130.262 106.885V105.595C130.262 105.396 130.253 105.198 130.235 105.003C130.158 104.15 129.916 103.345 129.541 102.62C129.524 102.587 129.507 102.555 129.489 102.522Z" fill="#239C9C"/>
<rect x="128" y="70" width="52" height="22" rx="3" fill="#FBA43F"/>
<path fill-rule="evenodd" clip-rule="evenodd" d="M142.745 80.346C143.249 79.7761 143.212 78.8905 142.662 78.368C142.113 77.8455 141.259 77.884 140.755 78.454L138.086 81.4734L137.387 80.6037C136.91 80.0098 136.059 79.9295 135.486 80.4245C134.913 80.9195 134.836 81.8023 135.313 82.3963L137 84.4963C137.25 84.8066 137.616 84.9901 138.006 84.9996C138.395 85.0091 138.769 84.8438 139.033 84.546L142.745 80.346ZM147.15 80.8C146.404 80.8 145.8 81.4268 145.8 82.2C145.8 82.9732 146.404 83.6 147.15 83.6H160.65C161.396 83.6 162 82.9732 162 82.2C162 81.4268 161.396 80.8 160.65 80.8H147.15Z" fill="white"/>
</svg>
