<svg width="3" height="16" viewBox="0 0 3 16" fill="none" xmlns="http://www.w3.org/2000/svg">
<path d="M1.5 1.25C1.91421 1.25 2.25 1.58579 2.25 2C2.25 2.41421 1.91421 2.75 1.5 2.75C1.08579 2.75 0.75 2.41421 0.750001 2C0.750001 1.58579 1.08579 1.25 1.5 1.25ZM1.5 7.25C1.91421 7.25 2.25 7.58579 2.25 8C2.25 8.41421 1.91421 8.75 1.5 8.75C1.08579 8.75 0.75 8.41421 0.75 8C0.75 7.58579 1.08579 7.25 1.5 7.25ZM1.5 13.25C1.91421 13.25 2.25 13.5858 2.25 14C2.25 14.4142 1.91421 14.75 1.5 14.75C1.08579 14.75 0.75 14.4142 0.75 14C0.75 13.5858 1.08579 13.25 1.5 13.25Z" fill="#EB5757" stroke="#EB5757" stroke-width="1.5"/>
</svg>
