<svg width="16" height="16" viewBox="0 0 16 16" fill="none" xmlns="http://www.w3.org/2000/svg">
<path fill-rule="evenodd" clip-rule="evenodd" d="M3.5 0.5L12.5 0.500001C14.1569 0.500001 15.5 1.84315 15.5 3.5L15.5 12.5C15.5 14.1569 14.1569 15.5 12.5 15.5L3.5 15.5C1.84314 15.5 0.499999 14.1569 0.499999 12.5L0.5 3.5C0.5 1.84315 1.84315 0.5 3.5 0.5ZM14 3.5C14 2.67157 13.3284 2 12.5 2L3.5 2C2.67157 2 2 2.67157 2 3.5L2 12.5C2 13.3284 2.67157 14 3.5 14L12.5 14C13.3284 14 14 13.3284 14 12.5L14 3.5ZM10.7803 7.46967C11.0732 7.76257 11.0732 8.23744 10.7803 8.53033C10.4874 8.82322 10.0126 8.82322 9.71967 8.53033L8.75 7.56066L8.75 10.25C8.75 10.6642 8.41421 11 8 11C7.58579 11 7.25 10.6642 7.25 10.25L7.25 7.56066L6.28033 8.53033C5.98744 8.82322 5.51256 8.82322 5.21967 8.53033C4.92678 8.23744 4.92678 7.76256 5.21967 7.46967L7.46967 5.21967C7.61032 5.07902 7.80109 5 8 5C8.19891 5 8.38968 5.07902 8.53033 5.21967L10.7803 7.46967Z" fill="white"/>
</svg>
