<svg width="18" height="18" viewBox="0 0 18 18" fill="none" xmlns="http://www.w3.org/2000/svg">
<path d="M3.61461 3.63236C4.92813 2.31432 6.74326 1.5 8.75 1.5C12.7541 1.5 16 4.74594 16 8.75C16 12.7541 12.7541 16 8.75 16C4.74594 16 1.5 12.7541 1.5 8.75C1.5 8.33579 1.16421 8 0.75 8C0.335786 8 0 8.33579 0 8.75C0 13.5825 3.91751 17.5 8.75 17.5C13.5825 17.5 17.5 13.5825 17.5 8.75C17.5 3.91751 13.5825 0 8.75 0C6.32851 0 4.13558 0.984622 2.55213 2.57352C2.52668 2.59906 2.50345 2.62597 2.48245 2.65401L1.22488 1.39645C1.08769 1.25926 0.883533 1.21382 0.701112 1.27986C0.518691 1.34591 0.390942 1.51152 0.373378 1.70473L0.0198239 5.59382C0.00638932 5.7416 0.0592897 5.88771 0.164217 5.99264C0.269145 6.09757 0.415258 6.15047 0.563038 6.13703L4.45213 5.78348C4.64534 5.76591 4.81095 5.63817 4.87699 5.45575C4.94304 5.27332 4.8976 5.06916 4.76041 4.93198L3.5323 3.70386C3.56101 3.68235 3.58854 3.65852 3.61461 3.63236Z" fill="#828282"/>
<path d="M9.5 3.75C9.5 3.33579 9.16421 3 8.75 3C8.33579 3 8 3.33579 8 3.75V8.75C8 9.00859 8.13321 9.24895 8.3525 9.386L11.3525 11.261C11.7038 11.4805 12.1665 11.3738 12.386 11.0225C12.6055 10.6712 12.4988 10.2085 12.1475 9.989L9.5 8.33431V3.75Z" fill="#828282"/>
</svg>
