<svg width="226" height="276" viewBox="0 0 226 276" fill="none" xmlns="http://www.w3.org/2000/svg">
<rect x="26" width="173" height="173" rx="86.5" fill="#E9F5F5"/>
<path fill-rule="evenodd" clip-rule="evenodd" d="M111.167 73.9999C111.167 78.142 114.5 81.4998 118.611 81.4998C122.722 81.4998 126.055 78.142 126.055 73.9999C126.055 69.8578 122.722 66.4999 118.611 66.4999C114.5 66.4999 111.167 69.8578 111.167 73.9999ZM133.5 73.9999C133.5 78.1963 131.789 81.9903 129.032 84.7127C133.974 88.0836 137.222 93.7845 137.222 100.25V115.25C137.222 117.321 135.555 119 133.5 119C131.444 119 129.778 117.321 129.778 115.25V100.25C129.778 94.0365 124.778 88.9997 118.611 88.9997C112.444 88.9997 107.444 94.0365 107.444 100.25V115.25C107.444 117.321 105.778 119 103.722 119C101.666 119 100 117.321 100 115.25V100.25C100 93.7845 103.248 88.0836 108.19 84.7127C105.433 81.9903 103.722 78.1963 103.722 73.9999C103.722 65.7157 110.388 59 118.611 59C126.834 59 133.5 65.7157 133.5 73.9999Z" fill="#239C9C"/>
<path fill-rule="evenodd" clip-rule="evenodd" d="M128 49.5C128 57.5081 134.492 64 142.5 64C150.508 64 157 57.5081 157 49.5C157 41.4919 150.508 35 142.5 35C134.492 35 128 41.4919 128 49.5ZM149.369 46.1298C149.91 45.5395 149.87 44.6223 149.28 44.0811C148.689 43.54 147.772 43.5799 147.231 44.1702L140.377 51.6474L137.814 48.5717C137.301 47.9565 136.387 47.8734 135.772 48.3861C135.157 48.8987 135.073 49.8131 135.586 50.4283L139.211 54.7783C139.479 55.0997 139.873 55.2897 140.291 55.2996C140.709 55.3095 141.111 55.1382 141.394 54.8298L149.369 46.1298Z" fill="#FBA43F"/>
<path opacity="0.4" fill-rule="evenodd" clip-rule="evenodd" d="M84 88.3745C80.6863 88.3745 78 85.6323 78 82.2495C78 78.8668 80.6863 76.1245 84 76.1245C87.3137 76.1245 90 78.8668 90 82.2495C90 85.6323 87.3137 88.3745 84 88.3745ZM92.3993 90.9984C94.6214 88.7751 96 85.6767 96 82.2495C96 75.484 90.6274 69.9995 84 69.9995C77.3726 69.9995 72 75.484 72 82.2495C72 85.6767 73.3786 88.7751 75.6007 90.9984C71.6178 93.7513 69 98.4071 69 103.687V115.937C69 117.628 70.3431 119 72 119C73.6569 119 75 117.628 75 115.937V103.687C75 98.6129 79.0294 94.4995 84 94.4995C88.9706 94.4995 93 98.6129 93 103.687V115.937C93 117.628 94.3431 119 96 119C97.6569 119 99 117.628 99 115.937V103.687C99 98.4071 96.3822 93.7513 92.3993 90.9984Z" fill="#239C9C"/>
<path d="M24.5652 218H26.7811L29.8422 207.105H29.9558L33.0169 218H35.2257L39.2669 203.455H36.9515L34.1248 214.726H33.9899L31.0424 203.455H28.7555L25.8081 214.719H25.6731L22.8393 203.455H20.5311L24.5652 218ZM41.0975 218H43.2211V207.091H41.0975V218ZM42.1699 205.408C42.9015 205.408 43.5123 204.839 43.5123 204.143C43.5123 203.447 42.9015 202.872 42.1699 202.872C41.4313 202.872 40.8276 203.447 40.8276 204.143C40.8276 204.839 41.4313 205.408 42.1699 205.408ZM48.2015 203.455H46.0779V218H48.2015V203.455ZM53.182 203.455H51.0584V218H53.182V203.455ZM61.3319 222.091H63.4554V216.303H63.5833C63.9668 216.999 64.748 218.213 66.7367 218.213C69.3787 218.213 71.2963 216.097 71.2963 212.567C71.2963 209.03 69.3503 206.949 66.7154 206.949C64.6912 206.949 63.9597 208.185 63.5833 208.859H63.4057V207.091H61.3319V222.091ZM63.4128 212.545C63.4128 210.266 64.4071 208.753 66.2608 208.753C68.1855 208.753 69.1515 210.379 69.1515 212.545C69.1515 214.733 68.1571 216.402 66.2608 216.402C64.4355 216.402 63.4128 214.839 63.4128 212.545ZM73.6756 218H75.7992V211.338C75.7992 209.911 76.9 208.881 78.4057 208.881C78.8461 208.881 79.3432 208.959 79.5137 209.009V206.977C79.3006 206.949 78.8816 206.928 78.6117 206.928C77.3333 206.928 76.2395 207.652 75.8418 208.824H75.7282V207.091H73.6756V218ZM85.5559 218.22C88.6312 218.22 90.6412 215.969 90.6412 212.595C90.6412 209.2 88.6312 206.949 85.5559 206.949C82.4806 206.949 80.4707 209.2 80.4707 212.595C80.4707 215.969 82.4806 218.22 85.5559 218.22ZM85.563 216.438C83.5531 216.438 82.6156 214.683 82.6156 212.588C82.6156 210.5 83.5531 208.724 85.563 208.724C87.5588 208.724 88.4963 210.5 88.4963 212.588C88.4963 214.683 87.5588 216.438 85.563 216.438ZM101.953 207.091H99.6735L96.9178 215.486H96.8042L94.0414 207.091H91.7615L95.7246 218H97.9973L101.953 207.091ZM103.949 218H106.073V207.091H103.949V218ZM105.021 205.408C105.753 205.408 106.364 204.839 106.364 204.143C106.364 203.447 105.753 202.872 105.021 202.872C104.283 202.872 103.679 203.447 103.679 204.143C103.679 204.839 104.283 205.408 105.021 205.408ZM113.013 218.213C115.002 218.213 115.783 216.999 116.167 216.303H116.344V218H118.418V203.455H116.295V208.859H116.167C115.783 208.185 115.059 206.949 113.028 206.949C110.393 206.949 108.454 209.03 108.454 212.567C108.454 216.097 110.364 218.213 113.013 218.213ZM113.482 216.402C111.586 216.402 110.599 214.733 110.599 212.545C110.599 210.379 111.564 208.753 113.482 208.753C115.336 208.753 116.33 210.266 116.33 212.545C116.33 214.839 115.314 216.402 113.482 216.402ZM126.151 218.22C128.53 218.22 130.213 217.048 130.696 215.273L128.686 214.911C128.303 215.94 127.379 216.466 126.172 216.466C124.354 216.466 123.132 215.287 123.075 213.185H130.831V212.432C130.831 208.49 128.473 206.949 126.002 206.949C122.962 206.949 120.959 209.264 120.959 212.616C120.959 216.004 122.933 218.22 126.151 218.22ZM123.083 211.594C123.168 210.045 124.29 208.703 126.016 208.703C127.664 208.703 128.743 209.925 128.75 211.594H123.083ZM139.823 222.091C141.577 222.091 142.685 221.175 143.317 219.456L147.827 207.112L145.533 207.091L142.77 215.557H142.656L139.894 207.091H137.621L141.612 218.142L141.35 218.866C140.81 220.315 140.05 220.436 138.885 220.116L138.374 221.857C138.629 221.97 139.183 222.091 139.823 222.091ZM154.032 218.22C157.108 218.22 159.118 215.969 159.118 212.595C159.118 209.2 157.108 206.949 154.032 206.949C150.957 206.949 148.947 209.2 148.947 212.595C148.947 215.969 150.957 218.22 154.032 218.22ZM154.04 216.438C152.03 216.438 151.092 214.683 151.092 212.588C151.092 210.5 152.03 208.724 154.04 208.724C156.035 208.724 156.973 210.5 156.973 212.588C156.973 214.683 156.035 216.438 154.04 216.438ZM168.399 213.476C168.406 215.33 167.028 216.21 165.835 216.21C164.521 216.21 163.612 215.259 163.612 213.774V207.091H161.488V214.03C161.488 216.736 162.972 218.142 165.068 218.142C166.708 218.142 167.823 217.276 168.328 216.111H168.441V218H170.529V207.091H168.399V213.476ZM181.85 218.241C183.654 218.241 184.67 217.325 185.075 216.509H185.16V218H187.234V210.756C187.234 207.581 184.734 206.949 183.001 206.949C181.026 206.949 179.208 207.744 178.498 209.733L180.494 210.188C180.806 209.413 181.602 208.668 183.029 208.668C184.4 208.668 185.103 209.385 185.103 210.621V210.67C185.103 211.445 184.308 211.43 182.347 211.658C180.281 211.899 178.164 212.439 178.164 214.918C178.164 217.062 179.776 218.241 181.85 218.241ZM182.312 216.537C181.112 216.537 180.245 215.997 180.245 214.946C180.245 213.81 181.254 213.405 182.482 213.241C183.171 213.149 184.805 212.964 185.11 212.659V214.065C185.11 215.358 184.08 216.537 182.312 216.537ZM192.186 211.523C192.186 209.783 193.251 208.788 194.729 208.788C196.17 208.788 197.044 209.733 197.044 211.317V218H199.167V211.061C199.167 208.362 197.683 206.949 195.453 206.949C193.812 206.949 192.74 207.709 192.236 208.866H192.101V207.091H190.062V218H192.186V211.523ZM4.69212 245.241C6.49609 245.241 7.51172 244.325 7.91655 243.509H8.00178V245H10.0756V237.756C10.0756 234.581 7.57564 233.949 5.84268 233.949C3.86825 233.949 2.05007 234.744 1.33984 236.733L3.33558 237.188C3.64808 236.413 4.44354 235.668 5.87109 235.668C7.24183 235.668 7.94496 236.385 7.94496 237.621V237.67C7.94496 238.445 7.1495 238.43 5.18928 238.658C3.12251 238.899 1.00604 239.439 1.00604 241.918C1.00604 244.062 2.61825 245.241 4.69212 245.241ZM5.15376 243.537C3.95348 243.537 3.087 242.997 3.087 241.946C3.087 240.81 4.09553 240.405 5.32422 240.241C6.01314 240.149 7.64666 239.964 7.95206 239.659V241.065C7.95206 242.358 6.92223 243.537 5.15376 243.537ZM17.4993 245.22C20.0774 245.22 21.7464 243.672 21.9808 241.548H19.9141C19.6442 242.727 18.728 243.423 17.5135 243.423C15.7166 243.423 14.5589 241.925 14.5589 239.545C14.5589 237.209 15.7379 235.739 17.5135 235.739C18.8629 235.739 19.6868 236.591 19.9141 237.614H21.9808C21.7536 235.412 19.9567 233.949 17.478 233.949C14.4027 233.949 12.4141 236.264 12.4141 239.595C12.4141 242.884 14.3317 245.22 17.4993 245.22ZM28.8469 245.22C31.4251 245.22 33.0941 243.672 33.3285 241.548H31.2617C30.9918 242.727 30.0756 243.423 28.8612 243.423C27.0643 243.423 25.9066 241.925 25.9066 239.545C25.9066 237.209 27.0856 235.739 28.8612 235.739C30.2106 235.739 31.0344 236.591 31.2617 237.614H33.3285C33.1012 235.412 31.3043 233.949 28.8256 233.949C25.7504 233.949 23.7617 236.264 23.7617 239.595C23.7617 242.884 25.6793 245.22 28.8469 245.22ZM40.1946 245.22C43.2699 245.22 45.2798 242.969 45.2798 239.595C45.2798 236.2 43.2699 233.949 40.1946 233.949C37.1193 233.949 35.1094 236.2 35.1094 239.595C35.1094 242.969 37.1193 245.22 40.1946 245.22ZM40.2017 243.438C38.1918 243.438 37.2543 241.683 37.2543 239.588C37.2543 237.5 38.1918 235.724 40.2017 235.724C42.1974 235.724 43.1349 237.5 43.1349 239.588C43.1349 241.683 42.1974 243.438 40.2017 243.438ZM54.5607 240.476C54.5678 242.33 53.19 243.21 51.9968 243.21C50.6829 243.21 49.7738 242.259 49.7738 240.774V234.091H47.6502V241.03C47.6502 243.736 49.1346 245.142 51.2298 245.142C52.8704 245.142 53.9854 244.276 54.4897 243.111H54.6033V245H56.6914V234.091H54.5607V240.476ZM61.6683 238.523C61.6683 236.783 62.7337 235.788 64.2109 235.788C65.6527 235.788 66.5263 236.733 66.5263 238.317V245H68.6499V238.061C68.6499 235.362 67.1655 233.949 64.9354 233.949C63.2947 233.949 62.2223 234.709 61.718 235.866H61.5831V234.091H59.5447V245H61.6683V238.523ZM76.5902 234.091H74.353V231.477H72.2294V234.091H70.6314V235.795H72.2294V242.237C72.2223 244.219 73.7351 245.178 75.4112 245.142C76.0859 245.135 76.5405 245.007 76.7891 244.915L76.4055 243.161C76.2635 243.189 76.0007 243.253 75.6598 243.253C74.9709 243.253 74.353 243.026 74.353 241.797V235.795H76.5902V234.091ZM82.114 245.241C83.918 245.241 84.9336 244.325 85.3384 243.509H85.4237V245H87.4975V237.756C87.4975 234.581 84.9975 233.949 83.2646 233.949C81.2901 233.949 79.4719 234.744 78.7617 236.733L80.7575 237.188C81.07 236.413 81.8654 235.668 83.293 235.668C84.6637 235.668 85.3668 236.385 85.3668 237.621V237.67C85.3668 238.445 84.5714 238.43 82.6112 238.658C80.5444 238.899 78.4279 239.439 78.4279 241.918C78.4279 244.062 80.0401 245.241 82.114 245.241ZM82.5756 243.537C81.3754 243.537 80.5089 242.997 80.5089 241.946C80.5089 240.81 81.5174 240.405 82.7461 240.241C83.435 240.149 85.0685 239.964 85.3739 239.659V241.065C85.3739 242.358 84.3441 243.537 82.5756 243.537ZM92.4496 238.523C92.4496 236.783 93.5149 235.788 94.9922 235.788C96.4339 235.788 97.3075 236.733 97.3075 238.317V245H99.4311V238.061C99.4311 235.362 97.9467 233.949 95.7166 233.949C94.076 233.949 93.0036 234.709 92.4993 235.866H92.3643V234.091H90.326V245H92.4496V238.523ZM107.371 234.091H105.134V231.477H103.011V234.091H101.413V235.795H103.011V242.237C103.004 244.219 104.516 245.178 106.192 245.142C106.867 245.135 107.322 245.007 107.57 244.915L107.187 243.161C107.045 243.189 106.782 243.253 106.441 243.253C105.752 243.253 105.134 243.026 105.134 241.797V235.795H107.371V234.091ZM118.188 245.241C119.992 245.241 121.008 244.325 121.413 243.509H121.498V245H123.572V237.756C123.572 234.581 121.072 233.949 119.339 233.949C117.364 233.949 115.546 234.744 114.836 236.733L116.832 237.188C117.144 236.413 117.94 235.668 119.367 235.668C120.738 235.668 121.441 236.385 121.441 237.621V237.67C121.441 238.445 120.646 238.43 118.685 238.658C116.619 238.899 114.502 239.439 114.502 241.918C114.502 244.062 116.114 245.241 118.188 245.241ZM118.65 243.537C117.45 243.537 116.583 242.997 116.583 241.946C116.583 240.81 117.592 240.405 118.82 240.241C119.509 240.149 121.143 239.964 121.448 239.659V241.065C121.448 242.358 120.418 243.537 118.65 243.537ZM134.575 236.754C134.135 235.057 132.806 233.949 130.449 233.949C127.984 233.949 126.237 235.249 126.237 237.18C126.237 238.729 127.174 239.759 129.22 240.213L131.066 240.618C132.118 240.852 132.608 241.321 132.608 242.003C132.608 242.848 131.706 243.509 130.314 243.509C129.042 243.509 128.225 242.962 127.97 241.889L125.917 242.202C126.272 244.134 127.877 245.22 130.328 245.22C132.963 245.22 134.788 243.821 134.788 241.847C134.788 240.305 133.808 239.354 131.805 238.892L130.072 238.494C128.872 238.21 128.353 237.805 128.36 237.067C128.353 236.229 129.262 235.632 130.47 235.632C131.791 235.632 132.402 236.364 132.65 237.095L134.575 236.754ZM142.416 249.091H144.539V243.303H144.667C145.051 243.999 145.832 245.213 147.821 245.213C150.463 245.213 152.38 243.097 152.38 239.567C152.38 236.03 150.434 233.949 147.799 233.949C145.775 233.949 145.044 235.185 144.667 235.859H144.49V234.091H142.416V249.091ZM144.497 239.545C144.497 237.266 145.491 235.753 147.345 235.753C149.27 235.753 150.235 237.379 150.235 239.545C150.235 241.733 149.241 243.402 147.345 243.402C145.52 243.402 144.497 241.839 144.497 239.545ZM159.461 245.22C161.841 245.22 163.524 244.048 164.007 242.273L161.997 241.911C161.613 242.94 160.69 243.466 159.483 243.466C157.664 243.466 156.443 242.287 156.386 240.185H164.142V239.432C164.142 235.49 161.784 233.949 159.312 233.949C156.272 233.949 154.27 236.264 154.27 239.616C154.27 243.004 156.244 245.22 159.461 245.22ZM156.393 238.594C156.478 237.045 157.6 235.703 159.326 235.703C160.974 235.703 162.054 236.925 162.061 238.594H156.393ZM166.498 245H168.621V238.338C168.621 236.911 169.722 235.881 171.228 235.881C171.668 235.881 172.165 235.959 172.336 236.009V233.977C172.123 233.949 171.704 233.928 171.434 233.928C170.156 233.928 169.062 234.652 168.664 235.824H168.55V234.091H166.498V245ZM180.809 249.091C182.563 249.091 183.671 248.175 184.303 246.456L188.813 234.112L186.519 234.091L183.756 242.557H183.643L180.88 234.091H178.607L182.599 245.142L182.336 245.866C181.796 247.315 181.036 247.436 179.871 247.116L179.36 248.857C179.616 248.97 180.17 249.091 180.809 249.091ZM195.019 245.22C198.094 245.22 200.104 242.969 200.104 239.595C200.104 236.2 198.094 233.949 195.019 233.949C191.944 233.949 189.934 236.2 189.934 239.595C189.934 242.969 191.944 245.22 195.019 245.22ZM195.026 243.438C193.016 243.438 192.078 241.683 192.078 239.588C192.078 237.5 193.016 235.724 195.026 235.724C197.022 235.724 197.959 237.5 197.959 239.588C197.959 241.683 197.022 243.438 195.026 243.438ZM209.385 240.476C209.392 242.33 208.014 243.21 206.821 243.21C205.507 243.21 204.598 242.259 204.598 240.774V234.091H202.474V241.03C202.474 243.736 203.959 245.142 206.054 245.142C207.695 245.142 208.81 244.276 209.314 243.111H209.428V245H211.516V234.091H209.385V240.476ZM214.369 245H216.493V238.338C216.493 236.911 217.593 235.881 219.099 235.881C219.539 235.881 220.037 235.959 220.207 236.009V233.977C219.994 233.949 219.575 233.928 219.305 233.928C218.027 233.928 216.933 234.652 216.535 235.824H216.422V234.091H214.369V245ZM84.3832 265.523C84.3832 263.783 85.4485 262.788 86.9258 262.788C88.3675 262.788 89.2411 263.733 89.2411 265.317V272H91.3647V265.061C91.3647 262.362 89.8803 260.949 87.6502 260.949C86.0096 260.949 84.9371 261.709 84.4329 262.866H84.2979V261.091H82.2596V272H84.3832V265.523ZM98.9144 272.22C101.294 272.22 102.977 271.048 103.46 269.273L101.45 268.911C101.066 269.94 100.143 270.466 98.9357 270.466C97.1175 270.466 95.896 269.287 95.8391 267.185H103.595V266.432C103.595 262.49 101.237 260.949 98.7653 260.949C95.7255 260.949 93.7227 263.264 93.7227 266.616C93.7227 270.004 95.6971 272.22 98.9144 272.22ZM95.8462 265.594C95.9315 264.045 97.0536 262.703 98.7795 262.703C100.427 262.703 101.507 263.925 101.514 265.594H95.8462ZM110.653 272.22C113.032 272.22 114.715 271.048 115.198 269.273L113.188 268.911C112.805 269.94 111.881 270.466 110.674 270.466C108.856 270.466 107.634 269.287 107.577 267.185H115.333V266.432C115.333 262.49 112.975 260.949 110.504 260.949C107.464 260.949 105.461 263.264 105.461 266.616C105.461 270.004 107.435 272.22 110.653 272.22ZM107.585 265.594C107.67 264.045 108.792 262.703 110.518 262.703C112.165 262.703 113.245 263.925 113.252 265.594H107.585ZM121.773 272.213C123.762 272.213 124.543 270.999 124.926 270.303H125.104V272H127.178V257.455H125.054V262.859H124.926C124.543 262.185 123.819 260.949 121.787 260.949C119.152 260.949 117.213 263.03 117.213 266.567C117.213 270.097 119.124 272.213 121.773 272.213ZM122.242 270.402C120.346 270.402 119.358 268.733 119.358 266.545C119.358 264.379 120.324 262.753 122.242 262.753C124.096 262.753 125.09 264.266 125.09 266.545C125.09 268.839 124.074 270.402 122.242 270.402ZM138.384 263.754C137.943 262.057 136.615 260.949 134.257 260.949C131.793 260.949 130.045 262.249 130.045 264.18C130.045 265.729 130.983 266.759 133.028 267.213L134.875 267.618C135.926 267.852 136.416 268.321 136.416 269.003C136.416 269.848 135.514 270.509 134.122 270.509C132.851 270.509 132.034 269.962 131.778 268.889L129.726 269.202C130.081 271.134 131.686 272.22 134.136 272.22C136.771 272.22 138.597 270.821 138.597 268.847C138.597 267.305 137.616 266.354 135.614 265.892L133.881 265.494C132.68 265.21 132.162 264.805 132.169 264.067C132.162 263.229 133.071 262.632 134.278 262.632C135.599 262.632 136.21 263.364 136.459 264.095L138.384 263.754ZM142.331 272.135C143.105 272.135 143.751 271.503 143.751 270.714C143.751 269.94 143.105 269.301 142.331 269.301C141.549 269.301 140.91 269.94 140.91 270.714C140.91 271.503 141.549 272.135 142.331 272.135Z" fill="#4F4F4F"/>
</svg>
