<svg width="54" height="54" viewBox="0 0 54 54" fill="none" xmlns="http://www.w3.org/2000/svg">
<path fill-rule="evenodd" clip-rule="evenodd" d="M28.3122 6.75C28.3122 5.50736 27.3048 4.5 26.0622 4.5C24.8195 4.5 23.8122 5.50736 23.8122 6.75V8.4375H22.558C17.5516 8.4375 13.408 12.33 13.0955 17.3267L12.5982 25.2769C12.4086 28.3081 11.391 31.2292 9.65609 33.7221C8.08855 35.9744 9.48405 39.0852 12.2086 39.4122L19.8747 40.3321V42.75C19.8747 46.1673 22.6449 48.9375 26.0622 48.9375C29.4794 48.9375 32.2497 46.1673 32.2497 42.75V40.3321L39.9157 39.4122C42.6403 39.0852 44.0358 35.9744 42.4682 33.7221C40.7334 31.2292 39.7157 28.3081 39.5261 25.2769L39.0289 17.3267C38.7164 12.33 34.5728 8.4375 29.5663 8.4375H28.3122V6.75ZM23.2497 42.75C23.2497 44.3033 24.5089 45.5625 26.0622 45.5625C27.6155 45.5625 28.8747 44.3033 28.8747 42.75V41.0625H23.2497V42.75Z" fill="black"/>
</svg>
