<svg width="119" height="161" viewBox="0 0 119 161" fill="none" xmlns="http://www.w3.org/2000/svg">
<g opacity="0.4">
<circle opacity="0.6" cx="56.5" cy="56.5" r="56.5" fill="url(#paint0_radial)"/>
<g opacity="0.3">
<path d="M70.9998 32H40.9998V38.0524H51.5792C55.4644 38.0524 58.7781 40.5823 60.0082 44.1048H40.9998V50.1572H60.0082C58.7781 53.6797 55.4644 56.2096 51.5792 56.2096H40.9998V62.262L58.4674 80L62.6819 75.7202L49.4289 62.2622H51.5792C58.7751 62.2622 64.7959 57.0555 66.1803 50.1573H70.9998V44.1049H66.1803C65.7318 41.8699 64.7964 39.8127 63.4922 38.0525H70.9998V32Z" fill="black"/>
</g>
<path d="M11.5021 148.585H13.7841C13.4038 146.158 11.3029 144.467 8.56818 144.467C5.33239 144.467 2.90554 146.846 2.90554 150.83C2.90554 154.742 5.22372 157.169 8.63459 157.169C11.6953 157.169 13.8867 155.201 13.8867 152.013V150.528H8.87003V152.279H11.7195C11.6832 154.042 10.506 155.159 8.64666 155.159C6.57599 155.159 5.15732 153.607 5.15732 150.806C5.15732 148.023 6.60014 146.478 8.59837 146.478C10.0895 146.478 11.1037 147.275 11.5021 148.585ZM20.061 157.181C22.2222 157.181 23.7073 156.125 24.0937 154.513L22.0532 154.283C21.7574 155.068 21.0329 155.479 20.0912 155.479C18.6785 155.479 17.7428 154.549 17.7247 152.961H24.1842V152.291C24.1842 149.037 22.2282 147.607 19.9463 147.607C17.29 147.607 15.5574 149.556 15.5574 152.418C15.5574 155.328 17.2659 157.181 20.061 157.181ZM17.7307 151.488C17.7971 150.305 18.6725 149.309 19.9765 149.309C21.2322 149.309 22.0773 150.227 22.0894 151.488H17.7307ZM30.6634 147.727H28.8342V145.506H26.6488V147.727H25.3327V149.418H26.6488V154.573C26.6367 156.318 27.9045 157.175 29.5465 157.127C30.1683 157.109 30.5969 156.988 30.8324 156.909L30.4641 155.201C30.3434 155.231 30.0959 155.286 29.8242 155.286C29.2749 155.286 28.8342 155.092 28.8342 154.211V149.418H30.6634V147.727ZM38.0661 160.477C39.7686 160.477 40.7526 159.602 41.2778 158.123L45.0026 147.739L42.6663 147.727L40.5232 154.73H40.4266L38.2895 147.727H35.9713L39.3339 157.193L39.1468 157.694C38.7423 158.751 38.1024 158.823 37.1485 158.545L36.6414 160.248C36.9372 160.369 37.4685 160.477 38.0661 160.477ZM50.2487 157.181C52.9653 157.181 54.6919 155.267 54.6919 152.4C54.6919 149.526 52.9653 147.607 50.2487 147.607C47.532 147.607 45.8055 149.526 45.8055 152.4C45.8055 155.267 47.532 157.181 50.2487 157.181ZM50.2607 155.43C48.7575 155.43 48.021 154.09 48.021 152.394C48.021 150.697 48.7575 149.339 50.2607 149.339C51.7398 149.339 52.4763 150.697 52.4763 152.394C52.4763 154.09 51.7398 155.43 50.2607 155.43ZM62.4569 153.1C62.4569 154.513 61.4487 155.213 60.4828 155.213C59.4324 155.213 58.7321 154.471 58.7321 153.293V147.727H56.5467V153.631C56.5467 155.859 57.8145 157.121 59.6376 157.121C61.0261 157.121 62.0041 156.39 62.4267 155.352H62.5233V157H64.6422V147.727H62.4569V153.1ZM66.8895 157H69.0748V151.549C69.0748 150.371 69.9623 149.538 71.1636 149.538C71.5319 149.538 71.9907 149.605 72.1778 149.665V147.655C71.9786 147.619 71.6345 147.594 71.393 147.594C70.3305 147.594 69.4431 148.198 69.105 149.273H69.0084V147.727H66.8895V157ZM77.8465 160.477H80.0319V155.539H80.1224C80.4665 156.215 81.1849 157.163 82.7787 157.163C84.964 157.163 86.6001 155.43 86.6001 152.376C86.6001 149.285 84.9157 147.607 82.7726 147.607C81.1366 147.607 80.4545 148.591 80.1224 149.261H79.9956V147.727H77.8465V160.477ZM79.9896 152.364C79.9896 150.565 80.7623 149.4 82.1689 149.4C83.6238 149.4 84.3724 150.637 84.3724 152.364C84.3724 154.102 83.6118 155.37 82.1689 155.37C80.7744 155.37 79.9896 154.163 79.9896 152.364ZM88.4715 157H90.6569V151.549C90.6569 150.371 91.5443 149.538 92.7456 149.538C93.1139 149.538 93.5727 149.605 93.7599 149.665V147.655C93.5606 147.619 93.2165 147.594 92.9751 147.594C91.9126 147.594 91.0251 148.198 90.6871 149.273H90.5905V147.727H88.4715V157ZM95.2117 157H97.3971V147.727H95.2117V157ZM96.3105 146.411C97.0047 146.411 97.5722 145.88 97.5722 145.228C97.5722 144.57 97.0047 144.039 96.3105 144.039C95.6102 144.039 95.0427 144.57 95.0427 145.228C95.0427 145.88 95.6102 146.411 96.3105 146.411ZM103.689 157.181C106.019 157.181 107.504 155.799 107.661 153.831H105.573C105.385 154.827 104.667 155.4 103.707 155.4C102.343 155.4 101.461 154.259 101.461 152.364C101.461 150.492 102.361 149.369 103.707 149.369C104.758 149.369 105.404 150.045 105.573 150.939H107.661C107.51 148.929 105.941 147.607 103.677 147.607C100.96 147.607 99.2459 149.569 99.2459 152.4C99.2459 155.207 100.918 157.181 103.689 157.181ZM113.561 157.181C115.722 157.181 117.207 156.125 117.594 154.513L115.553 154.283C115.257 155.068 114.533 155.479 113.591 155.479C112.179 155.479 111.243 154.549 111.225 152.961H117.684V152.291C117.684 149.037 115.728 147.607 113.446 147.607C110.79 147.607 109.057 149.556 109.057 152.418C109.057 155.328 110.766 157.181 113.561 157.181ZM111.231 151.488C111.297 150.305 112.172 149.309 113.476 149.309C114.732 149.309 115.577 150.227 115.589 151.488H111.231Z" fill="black"/>
</g>
<defs>
<radialGradient id="paint0_radial" cx="0" cy="0" r="1" gradientUnits="userSpaceOnUse" gradientTransform="translate(56.5 56.5) rotate(90) scale(56.5)">
<stop stop-color="#D9D9D9"/>
<stop offset="1" stop-color="#D7D7D7"/>
</radialGradient>
</defs>
</svg>
