<svg width="164" height="161" viewBox="0 0 164 161" fill="none" xmlns="http://www.w3.org/2000/svg">
<g opacity="0.4">
<circle opacity="0.6" cx="77" cy="56.5" r="56.5" fill="url(#paint0_radial)"/>
<g opacity="0.3">
<path d="M83.6681 31.625C84.0328 31.625 84.3826 31.7699 84.6404 32.0277L92.4186 39.8059C92.9556 40.3429 92.9556 41.2135 92.4186 41.7504L67.1395 67.0295C66.9668 67.2023 66.7511 67.3259 66.5147 67.3876L55.9866 70.1376C55.5143 70.261 55.012 70.1247 54.6668 69.7795C54.3216 69.4343 54.1853 68.932 54.3087 68.4597L57.0587 57.9316C57.1205 57.6952 57.2441 57.4795 57.4168 57.3068L82.6959 32.0277C82.9537 31.7699 83.3035 31.625 83.6681 31.625Z" fill="black"/>
<path d="M54.5 74.9375C53.3609 74.9375 52.4375 75.8609 52.4375 77C52.4375 78.1391 53.3609 79.0625 54.5 79.0625H95.75C96.8891 79.0625 97.8125 78.1391 97.8125 77C97.8125 75.8609 96.8891 74.9375 95.75 74.9375H54.5Z" fill="black"/>
</g>
<path d="M1.71946 157H3.95916V151.748H9.09659V149.87H3.95916V146.514H9.63992V144.636H1.71946V157ZM11.5838 157H13.7692V147.727H11.5838V157ZM12.6825 146.411C13.3768 146.411 13.9442 145.88 13.9442 145.228C13.9442 144.57 13.3768 144.039 12.6825 144.039C11.9822 144.039 11.4148 144.57 11.4148 145.228C11.4148 145.88 11.9822 146.411 12.6825 146.411ZM18.2018 144.636H16.0164V157H18.2018V144.636ZM22.6344 144.636H20.449V157H22.6344V144.636ZM33.1432 157.181C35.4735 157.181 36.9585 155.799 37.1155 153.831H35.0267C34.8396 154.827 34.1212 155.4 33.1613 155.4C31.797 155.4 30.9156 154.259 30.9156 152.364C30.9156 150.492 31.8151 149.369 33.1613 149.369C34.2117 149.369 34.8577 150.045 35.0267 150.939H37.1155C36.9646 148.929 35.395 147.607 33.1311 147.607C30.4145 147.607 28.7 149.569 28.7 152.4C28.7 155.207 30.3722 157.181 33.1432 157.181ZM42.9547 157.181C45.6713 157.181 47.3979 155.267 47.3979 152.4C47.3979 149.526 45.6713 147.607 42.9547 147.607C40.2381 147.607 38.5115 149.526 38.5115 152.4C38.5115 155.267 40.2381 157.181 42.9547 157.181ZM42.9668 155.43C41.4636 155.43 40.7271 154.09 40.7271 152.394C40.7271 150.697 41.4636 149.339 42.9668 149.339C44.4458 149.339 45.1824 150.697 45.1824 152.394C45.1824 154.09 44.4458 155.43 42.9668 155.43ZM49.2528 157H51.4381V151.362C51.4381 150.221 52.1988 149.448 53.1405 149.448C54.0642 149.448 54.6981 150.07 54.6981 151.023V157H56.8412V151.217C56.8412 150.172 57.463 149.448 58.5194 149.448C59.4008 149.448 60.1011 149.967 60.1011 151.114V157H62.2925V150.776C62.2925 148.705 61.0972 147.607 59.3948 147.607C58.0486 147.607 57.0223 148.271 56.6118 149.303H56.5152C56.159 148.252 55.2595 147.607 54.0099 147.607C52.7662 147.607 51.8366 148.246 51.4502 149.303H51.3415V147.727H49.2528V157ZM64.5096 160.477H66.695V155.539H66.7855C67.1296 156.215 67.848 157.163 69.4418 157.163C71.6271 157.163 73.2631 155.43 73.2631 152.376C73.2631 149.285 71.5788 147.607 69.4357 147.607C67.7997 147.607 67.1175 148.591 66.7855 149.261H66.6587V147.727H64.5096V160.477ZM66.6527 152.364C66.6527 150.565 67.4254 149.4 68.832 149.4C70.2869 149.4 71.0355 150.637 71.0355 152.364C71.0355 154.102 70.2749 155.37 68.832 155.37C67.4375 155.37 66.6527 154.163 66.6527 152.364ZM77.8029 157.187C79.2578 157.187 80.1271 156.505 80.5256 155.726H80.598V157H82.6989V150.794C82.6989 148.343 80.7006 147.607 78.9318 147.607C76.9819 147.607 75.4847 148.476 75.0018 150.166L77.0423 150.456C77.2596 149.822 77.8754 149.279 78.9439 149.279C79.9581 149.279 80.5135 149.798 80.5135 150.71V150.746C80.5135 151.374 79.8555 151.404 78.2195 151.579C76.4205 151.772 74.6999 152.309 74.6999 154.398C74.6999 156.221 76.0341 157.187 77.8029 157.187ZM78.3704 155.581C77.4588 155.581 76.8068 155.165 76.8068 154.362C76.8068 153.523 77.5373 153.173 78.5153 153.034C79.0888 152.955 80.2358 152.81 80.5195 152.581V153.674C80.5195 154.706 79.6864 155.581 78.3704 155.581ZM87.0817 151.567C87.0817 150.227 87.8906 149.454 89.0437 149.454C90.1726 149.454 90.8487 150.196 90.8487 151.434V157H93.0341V151.096C93.0401 148.874 91.7724 147.607 89.8587 147.607C88.4702 147.607 87.5163 148.271 87.0938 149.303H86.9851V147.727H84.8963V157H87.0817V151.567ZM96.282 160.477C97.9844 160.477 98.9684 159.602 99.4936 158.123L103.218 147.739L100.882 147.727L98.739 154.73H98.6424L96.5053 147.727H94.1871L97.5497 157.193L97.3626 157.694C96.9581 158.751 96.3182 158.823 95.3643 158.545L94.8572 160.248C95.1531 160.369 95.6843 160.477 96.282 160.477ZM112.393 157.163C113.987 157.163 114.705 156.215 115.049 155.539H115.182V157H117.331V144.636H115.14V149.261H115.049C114.717 148.591 114.035 147.607 112.399 147.607C110.256 147.607 108.572 149.285 108.572 152.376C108.572 155.43 110.208 157.163 112.393 157.163ZM113.003 155.37C111.56 155.37 110.799 154.102 110.799 152.364C110.799 150.637 111.548 149.4 113.003 149.4C114.409 149.4 115.182 150.565 115.182 152.364C115.182 154.163 114.397 155.37 113.003 155.37ZM123.765 157.181C125.926 157.181 127.411 156.125 127.798 154.513L125.757 154.283C125.461 155.068 124.737 155.479 123.795 155.479C122.383 155.479 121.447 154.549 121.429 152.961H127.888V152.291C127.888 149.037 125.932 147.607 123.65 147.607C120.994 147.607 119.262 149.556 119.262 152.418C119.262 155.328 120.97 157.181 123.765 157.181ZM121.435 151.488C121.501 150.305 122.377 149.309 123.681 149.309C124.936 149.309 125.781 150.227 125.794 151.488H121.435ZM134.367 147.727H132.538V145.506H130.353V147.727H129.037V149.418H130.353V154.573C130.341 156.318 131.609 157.175 133.251 157.127C133.872 157.109 134.301 156.988 134.536 156.909L134.168 155.201C134.047 155.231 133.8 155.286 133.528 155.286C132.979 155.286 132.538 155.092 132.538 154.211V149.418H134.367V147.727ZM138.863 157.187C140.318 157.187 141.188 156.505 141.586 155.726H141.659V157H143.759V150.794C143.759 148.343 141.761 147.607 139.992 147.607C138.042 147.607 136.545 148.476 136.062 150.166L138.103 150.456C138.32 149.822 138.936 149.279 140.004 149.279C141.019 149.279 141.574 149.798 141.574 150.71V150.746C141.574 151.374 140.916 151.404 139.28 151.579C137.481 151.772 135.76 152.309 135.76 154.398C135.76 156.221 137.095 157.187 138.863 157.187ZM139.431 155.581C138.519 155.581 137.867 155.165 137.867 154.362C137.867 153.523 138.598 153.173 139.576 153.034C140.149 152.955 141.296 152.81 141.58 152.581V153.674C141.58 154.706 140.747 155.581 139.431 155.581ZM145.957 157H148.142V147.727H145.957V157ZM147.056 146.411C147.75 146.411 148.317 145.88 148.317 145.228C148.317 144.57 147.75 144.039 147.056 144.039C146.355 144.039 145.788 144.57 145.788 145.228C145.788 145.88 146.355 146.411 147.056 146.411ZM152.575 144.636H150.389V157H152.575V144.636ZM162.151 150.178C161.849 148.609 160.593 147.607 158.42 147.607C156.186 147.607 154.665 148.705 154.671 150.42C154.665 151.772 155.498 152.665 157.279 153.034L158.861 153.366C159.712 153.553 160.11 153.897 160.11 154.422C160.11 155.056 159.422 155.533 158.384 155.533C157.382 155.533 156.73 155.098 156.543 154.265L154.412 154.471C154.683 156.173 156.114 157.181 158.39 157.181C160.708 157.181 162.344 155.98 162.35 154.223C162.344 152.901 161.493 152.092 159.742 151.712L158.161 151.374C157.219 151.162 156.844 150.836 156.85 150.299C156.844 149.671 157.539 149.237 158.45 149.237C159.458 149.237 159.99 149.786 160.159 150.396L162.151 150.178Z" fill="black"/>
</g>
<defs>
<radialGradient id="paint0_radial" cx="0" cy="0" r="1" gradientUnits="userSpaceOnUse" gradientTransform="translate(77 56.5) rotate(90) scale(56.5)">
<stop stop-color="#D9D9D9"/>
<stop offset="1" stop-color="#D7D7D7"/>
</radialGradient>
</defs>
</svg>
