<svg width="158" height="161" viewBox="0 0 158 161" fill="none" xmlns="http://www.w3.org/2000/svg">
<circle cx="78.5" cy="56.5" r="56" fill="white" stroke="#FBA43F"/>
<circle cx="78.5" cy="56.5" r="56.1" fill="#FBA43F" stroke="#FBA43F" stroke-width="0.8"/>
<g filter="url(#filter0_d)">
<path fill-rule="evenodd" clip-rule="evenodd" d="M65.9375 42.6079V43.6251H61.8094C60.5796 43.6251 59.5359 44.527 59.3576 45.7439L58.7562 49.8481C57.5819 57.8628 57.5819 66.0058 58.7562 74.0204C59.2824 77.6116 62.1783 80.388 65.7885 80.7623L67.5178 80.9417C75.1522 81.7334 82.8479 81.7334 90.4822 80.9417L92.2116 80.7623C95.8218 80.388 98.7177 77.6116 99.2438 74.0204C100.418 66.0058 100.418 57.8628 99.2438 49.8481L98.6425 45.7439C98.4642 44.527 97.4205 43.6251 96.1906 43.6251H92.0625V42.6079C92.0625 36.6466 88.0266 31.4416 82.2531 29.957C80.1191 29.4082 77.881 29.4082 75.7469 29.957C69.9735 31.4416 65.9375 36.6466 65.9375 42.6079ZM81.2258 33.952C79.7657 33.5765 78.2344 33.5765 76.7742 33.952C72.824 34.9678 70.0625 38.5291 70.0625 42.6079V43.6251H87.9375V42.6079C87.9375 38.5291 85.1761 34.9678 81.2258 33.952ZM70.0625 47.7501C70.0625 46.611 69.1391 45.6876 68 45.6876C66.861 45.6876 65.9375 46.611 65.9375 47.7501V53.2501C65.9375 54.3891 66.861 55.3126 68 55.3126C69.1391 55.3126 70.0625 54.3891 70.0625 53.2501V47.7501ZM92.0625 47.7501C92.0625 46.611 91.1391 45.6876 90 45.6876C88.861 45.6876 87.9375 46.611 87.9375 47.7501V53.2501C87.9375 54.3891 88.861 55.3126 90 55.3126C91.1391 55.3126 92.0625 54.3891 92.0625 53.2501V47.7501Z" fill="white"/>
<path fill-rule="evenodd" clip-rule="evenodd" d="M65.9375 42.6079V43.6251H61.8094C60.5796 43.6251 59.5359 44.527 59.3576 45.7439L58.7562 49.8481C57.5819 57.8628 57.5819 66.0058 58.7562 74.0204C59.2824 77.6116 62.1783 80.388 65.7885 80.7623L67.5178 80.9417C75.1522 81.7334 82.8479 81.7334 90.4822 80.9417L92.2116 80.7623C95.8218 80.388 98.7177 77.6116 99.2438 74.0204C100.418 66.0058 100.418 57.8628 99.2438 49.8481L98.6425 45.7439C98.4642 44.527 97.4205 43.6251 96.1906 43.6251H92.0625V42.6079C92.0625 36.6466 88.0266 31.4416 82.2531 29.957C80.1191 29.4082 77.881 29.4082 75.7469 29.957C69.9735 31.4416 65.9375 36.6466 65.9375 42.6079ZM81.2258 33.952C79.7657 33.5765 78.2344 33.5765 76.7742 33.952C72.824 34.9678 70.0625 38.5291 70.0625 42.6079V43.6251H87.9375V42.6079C87.9375 38.5291 85.1761 34.9678 81.2258 33.952ZM70.0625 47.7501C70.0625 46.611 69.1391 45.6876 68 45.6876C66.861 45.6876 65.9375 46.611 65.9375 47.7501V53.2501C65.9375 54.3891 66.861 55.3126 68 55.3126C69.1391 55.3126 70.0625 54.3891 70.0625 53.2501V47.7501ZM92.0625 47.7501C92.0625 46.611 91.1391 45.6876 90 45.6876C88.861 45.6876 87.9375 46.611 87.9375 47.7501V53.2501C87.9375 54.3891 88.861 55.3126 90 55.3126C91.1391 55.3126 92.0625 54.3891 92.0625 53.2501V47.7501Z" stroke="#FBA43F" stroke-width="0.5" stroke-linecap="round"/>
</g>
<path d="M7.93857 148.035H10.0938C10.0515 145.946 8.2706 144.467 5.63849 144.467C3.04261 144.467 1.09268 145.928 1.09872 148.114C1.09872 149.888 2.36044 150.909 4.39489 151.434L5.80149 151.796C7.13565 152.134 8.01705 152.551 8.02308 153.511C8.01705 154.567 7.01492 155.273 5.55398 155.273C4.15341 155.273 3.06676 154.646 2.97621 153.348H0.772727C0.863281 155.805 2.69247 157.187 5.57209 157.187C8.53622 157.187 10.2567 155.708 10.2628 153.529C10.2567 151.386 8.48793 150.408 6.62855 149.967L5.46946 149.677C4.45526 149.436 3.35653 149.007 3.36861 147.975C3.37465 147.045 4.20774 146.363 5.60831 146.363C6.94247 146.363 7.82386 146.985 7.93857 148.035ZM16.268 157.181C18.4292 157.181 19.9143 156.125 20.3007 154.513L18.2602 154.283C17.9644 155.068 17.24 155.479 16.2982 155.479C14.8856 155.479 13.9498 154.549 13.9317 152.961H20.3912V152.291C20.3912 149.037 18.4353 147.607 16.1533 147.607C13.4971 147.607 11.7645 149.556 11.7645 152.418C11.7645 155.328 13.4729 157.181 16.268 157.181ZM13.9378 151.488C14.0042 150.305 14.8795 149.309 16.1835 149.309C17.4392 149.309 18.2844 150.227 18.2964 151.488H13.9378ZM24.4254 144.636H22.2401V157H24.4254V144.636ZM30.7778 157.181C32.939 157.181 34.4241 156.125 34.8105 154.513L32.77 154.283C32.4742 155.068 31.7497 155.479 30.808 155.479C29.3953 155.479 28.4596 154.549 28.4415 152.961H34.901V152.291C34.901 149.037 32.945 147.607 30.6631 147.607C28.0068 147.607 26.2742 149.556 26.2742 152.418C26.2742 155.328 27.9827 157.181 30.7778 157.181ZM28.4475 151.488C28.5139 150.305 29.3893 149.309 30.6933 149.309C31.949 149.309 32.7941 150.227 32.8062 151.488H28.4475ZM40.7946 157.181C43.1248 157.181 44.6099 155.799 44.7669 153.831H42.6781C42.4909 154.827 41.7725 155.4 40.8127 155.4C39.4483 155.4 38.5669 154.259 38.5669 152.364C38.5669 150.492 39.4664 149.369 40.8127 149.369C41.8631 149.369 42.5091 150.045 42.6781 150.939H44.7669C44.6159 148.929 43.0463 147.607 40.7825 147.607C38.0659 147.607 36.3514 149.569 36.3514 152.4C36.3514 155.207 38.0236 157.181 40.7946 157.181ZM51.1917 147.727H49.3625V145.506H47.1771V147.727H45.8611V149.418H47.1771V154.573C47.165 156.318 48.4328 157.175 50.0748 157.127C50.6966 157.109 51.1253 156.988 51.3607 156.909L50.9925 155.201C50.8717 155.231 50.6242 155.286 50.3525 155.286C49.8032 155.286 49.3625 155.092 49.3625 154.211V149.418H51.1917V147.727ZM58.5945 160.477C60.2969 160.477 61.2809 159.602 61.8061 158.123L65.5309 147.739L63.1946 147.727L61.0515 154.73H60.9549L58.8178 147.727H56.4996L59.8622 157.193L59.6751 157.694C59.2706 158.751 58.6307 158.823 57.6768 158.545L57.1697 160.248C57.4656 160.369 57.9968 160.477 58.5945 160.477ZM70.777 157.181C73.4936 157.181 75.2202 155.267 75.2202 152.4C75.2202 149.526 73.4936 147.607 70.777 147.607C68.0604 147.607 66.3338 149.526 66.3338 152.4C66.3338 155.267 68.0604 157.181 70.777 157.181ZM70.7891 155.43C69.2859 155.43 68.5494 154.09 68.5494 152.394C68.5494 150.697 69.2859 149.339 70.7891 149.339C72.2681 149.339 73.0046 150.697 73.0046 152.394C73.0046 154.09 72.2681 155.43 70.7891 155.43ZM82.9852 153.1C82.9852 154.513 81.977 155.213 81.0111 155.213C79.9607 155.213 79.2604 154.471 79.2604 153.293V147.727H77.075V153.631C77.075 155.859 78.3428 157.121 80.1659 157.121C81.5544 157.121 82.5324 156.39 82.955 155.352H83.0516V157H85.1705V147.727H82.9852V153.1ZM87.4178 157H89.6032V151.549C89.6032 150.371 90.4906 149.538 91.6919 149.538C92.0602 149.538 92.519 149.605 92.7061 149.665V147.655C92.5069 147.619 92.1628 147.594 91.9213 147.594C90.8588 147.594 89.9714 148.198 89.6333 149.273H89.5368V147.727H87.4178V157ZM105.704 150.178C105.402 148.609 104.146 147.607 101.973 147.607C99.7392 147.607 98.2179 148.705 98.2239 150.42C98.2179 151.772 99.051 152.665 100.832 153.034L102.414 153.366C103.265 153.553 103.663 153.897 103.663 154.422C103.663 155.056 102.975 155.533 101.937 155.533C100.934 155.533 100.282 155.098 100.095 154.265L97.9643 154.471C98.236 156.173 99.6667 157.181 101.943 157.181C104.261 157.181 105.897 155.98 105.903 154.223C105.897 152.901 105.046 152.092 103.295 151.712L101.713 151.374C100.771 151.162 100.397 150.836 100.403 150.299C100.397 149.671 101.091 149.237 102.003 149.237C103.011 149.237 103.542 149.786 103.711 150.396L105.704 150.178ZM111.81 157.181C113.971 157.181 115.456 156.125 115.843 154.513L113.802 154.283C113.506 155.068 112.782 155.479 111.84 155.479C110.428 155.479 109.492 154.549 109.474 152.961H115.933V152.291C115.933 149.037 113.977 147.607 111.695 147.607C109.039 147.607 107.306 149.556 107.306 152.418C107.306 155.328 109.015 157.181 111.81 157.181ZM109.48 151.488C109.546 150.305 110.422 149.309 111.725 149.309C112.981 149.309 113.826 150.227 113.838 151.488H109.48ZM117.782 157H119.967V151.549C119.967 150.371 120.855 149.538 122.056 149.538C122.424 149.538 122.883 149.605 123.07 149.665V147.655C122.871 147.619 122.527 147.594 122.286 147.594C121.223 147.594 120.336 148.198 119.998 149.273H119.901V147.727H117.782V157ZM133.087 147.727H130.763L128.626 154.615H128.529L126.398 147.727H124.068L127.37 157H129.785L133.087 147.727ZM134.599 157H136.785V147.727H134.599V157ZM135.698 146.411C136.392 146.411 136.96 145.88 136.96 145.228C136.96 144.57 136.392 144.039 135.698 144.039C134.998 144.039 134.43 144.57 134.43 145.228C134.43 145.88 134.998 146.411 135.698 146.411ZM143.077 157.181C145.407 157.181 146.892 155.799 147.049 153.831H144.96C144.773 154.827 144.055 155.4 143.095 155.4C141.731 155.4 140.849 154.259 140.849 152.364C140.849 150.492 141.749 149.369 143.095 149.369C144.145 149.369 144.791 150.045 144.96 150.939H147.049C146.898 148.929 145.329 147.607 143.065 147.607C140.348 147.607 138.634 149.569 138.634 152.4C138.634 155.207 140.306 157.181 143.077 157.181ZM152.949 157.181C155.11 157.181 156.595 156.125 156.981 154.513L154.941 154.283C154.645 155.068 153.921 155.479 152.979 155.479C151.566 155.479 150.631 154.549 150.612 152.961H157.072V152.291C157.072 149.037 155.116 147.607 152.834 147.607C150.178 147.607 148.445 149.556 148.445 152.418C148.445 155.328 150.154 157.181 152.949 157.181ZM150.618 151.488C150.685 150.305 151.56 149.309 152.864 149.309C154.12 149.309 154.965 150.227 154.977 151.488H150.618Z" fill="black"/>
<defs>
<filter id="filter0_d" x="57.6255" y="29.2954" width="49.7491" height="62.4901" filterUnits="userSpaceOnUse" color-interpolation-filters="sRGB">
<feFlood flood-opacity="0" result="BackgroundImageFix"/>
<feColorMatrix in="SourceAlpha" type="matrix" values="0 0 0 0 0 0 0 0 0 0 0 0 0 0 0 0 0 0 127 0" result="hardAlpha"/>
<feOffset dx="4" dy="7"/>
<feGaussianBlur stdDeviation="1.5"/>
<feColorMatrix type="matrix" values="0 0 0 0 0 0 0 0 0 0 0 0 0 0 0 0 0 0 0.13 0"/>
<feBlend mode="normal" in2="BackgroundImageFix" result="effect1_dropShadow"/>
<feBlend mode="normal" in="SourceGraphic" in2="effect1_dropShadow" result="shape"/>
</filter>
</defs>
</svg>
