<svg width="280" height="156" viewBox="0 0 280 156" fill="none" xmlns="http://www.w3.org/2000/svg">
<rect x="141.5" y="70.5" width="104" height="66" stroke="white" stroke-width="5"/>
<path d="M160 155C160 150.029 164.029 146 169 146H217C221.971 146 226 150.029 226 155H160Z" fill="white"/>
<path fill-rule="evenodd" clip-rule="evenodd" d="M126.114 65.275C126.114 79.8237 118.363 92.9289 105.974 102.109C110.491 108.297 116.455 114.377 124.805 121.479C105.725 121.248 94.6484 118.395 83.9583 112.722C77.4172 114.554 70.3829 115.55 63.0568 115.55C28.2315 115.55 0 93.0411 0 65.275C0 37.5089 28.2315 15 63.0568 15C97.8821 15 126.114 37.5089 126.114 65.275ZM60.1628 58.6518C65.0101 58.6518 68.7237 62.0619 68.7237 68.043C68.7237 74.024 65.0101 77.4341 60.1628 77.4341C55.2887 77.4341 51.6019 73.9972 51.6019 68.043C51.6019 62.0619 55.2887 58.6518 60.1628 58.6518ZM60.1628 74.0151C62.9659 74.0151 64.8048 71.9172 64.8048 68.043C64.8048 64.1687 62.9659 62.0708 60.1628 62.0708C57.3508 62.0708 55.5208 64.1687 55.5208 68.043C55.5208 71.9172 57.3508 74.0151 60.1628 74.0151ZM22.758 77.1841H30.569C34.6754 77.1841 36.8625 75.0417 36.8625 72.1315C36.8625 69.4266 34.9254 67.793 32.8454 67.6948V67.5163C34.7468 67.0878 36.1484 65.7398 36.1484 63.5884C36.1484 60.8478 34.113 58.9018 30.0781 58.9018H22.758V77.1841ZM26.6233 74.024V69.1677H29.8638C31.7206 69.1677 32.8722 70.239 32.8722 71.7476C32.8722 73.1224 31.9349 74.024 29.7745 74.024H26.6233ZM26.6233 66.5522V62.0262H29.5603C31.2743 62.0262 32.2473 62.91 32.2473 64.2312C32.2473 65.6773 31.0689 66.5522 29.4889 66.5522H26.6233ZM38.8749 77.1841H50.5781V73.9972H42.7403V58.9018H38.8749V77.1841ZM83.2071 64.8114H87.1349C86.635 61.196 83.4481 58.6518 79.3149 58.6518C74.4855 58.6518 70.7629 62.1333 70.7629 68.0608C70.7629 73.8455 74.2444 77.4341 79.3953 77.4341C84.0105 77.4341 87.3045 74.515 87.3045 69.7034V67.4002H79.6542V70.3104H83.582C83.5285 72.5778 81.9841 74.0151 79.4131 74.0151C76.5119 74.0151 74.6819 71.8458 74.6819 68.0251C74.6819 64.2222 76.5833 62.0708 79.3774 62.0708C81.3681 62.0708 82.7161 63.0974 83.2071 64.8114ZM103.328 64.1597H99.6231C99.4803 62.7225 98.3465 61.8834 96.4987 61.8834C94.6062 61.8834 93.5617 62.7493 93.5617 63.9276C93.5349 65.2399 94.865 65.8291 96.454 66.1951L98.0966 66.5879C101.275 67.302 103.569 68.9178 103.578 71.9619C103.569 75.3095 100.944 77.443 96.4808 77.443C92.0441 77.443 89.2143 75.3988 89.1161 71.4441H92.8565C92.9815 73.2741 94.4276 74.2025 96.4362 74.2025C98.4001 74.2025 99.6677 73.292 99.6767 71.9529C99.6677 70.721 98.5608 70.1497 96.5701 69.6677L94.5794 69.1677C91.4906 68.4268 89.5892 66.8825 89.5981 64.1865C89.5803 60.8657 92.5173 58.6518 96.5254 58.6518C100.596 58.6518 103.274 60.9014 103.328 64.1597Z" fill="white"/>
<g opacity="0.2">
<path fill-rule="evenodd" clip-rule="evenodd" d="M266.479 40.2381C266.228 40.0875 265.916 40.0835 265.661 40.2278C265.406 40.372 265.249 40.6421 265.249 40.9348V47.4348C265.249 47.7275 265.406 47.9976 265.661 48.1418C265.916 48.2861 266.228 48.2821 266.479 48.1315L271.896 44.8815C272.141 44.7347 272.291 44.4702 272.291 44.1848C272.291 43.8994 272.141 43.6349 271.896 43.4881L266.479 40.2381ZM269.899 44.1848L266.874 45.9998V42.3698L269.899 44.1848Z" fill="white"/>
<path fill-rule="evenodd" clip-rule="evenodd" d="M273.678 36.2129C270.05 35.929 266.406 35.929 262.778 36.2129L260.351 36.4028C258.875 36.5183 257.667 37.6246 257.423 39.0849C256.859 42.4614 256.859 45.9082 257.423 49.2847C257.667 50.7451 258.875 51.8514 260.351 51.9668L262.778 52.1567C266.406 52.4406 270.05 52.4406 273.678 52.1567L276.105 51.9668C277.582 51.8514 278.789 50.7451 279.033 49.2847C279.597 45.9082 279.597 42.4614 279.033 39.0849C278.789 37.6246 277.582 36.5183 276.105 36.4028L273.678 36.2129ZM262.905 37.8329C266.448 37.5557 270.008 37.5557 273.551 37.8329L275.979 38.0228C276.711 38.0801 277.309 38.6286 277.43 39.3527C277.965 42.5519 277.965 45.8177 277.43 49.0169C277.309 49.741 276.711 50.2895 275.979 50.3468L273.551 50.5367C270.008 50.8139 266.448 50.8139 262.905 50.5367L260.478 50.3468C259.746 50.2895 259.147 49.741 259.026 49.0169C258.491 45.8177 258.491 42.5519 259.026 39.3527C259.147 38.6286 259.746 38.0801 260.478 38.0228L262.905 37.8329Z" fill="white"/>
</g>
<path opacity="0.5" d="M279 148.241C279 148.241 274.742 149.703 273.972 150.457C273.255 151.159 272 156 272 156C272 156 270.745 151.159 270.028 150.457C269.258 149.703 265 148.241 265 148.241C265 148.241 269.258 146.78 270.028 146.026C270.745 145.324 272 141 272 141C272 141 273.255 145.324 273.972 146.026C274.742 146.78 279 148.241 279 148.241Z" fill="white"/>
<path opacity="0.5" d="M160 14.4828C160 14.4828 151.484 17.4053 149.944 18.9136C148.511 20.3182 146 30 146 30C146 30 143.489 20.3182 142.056 18.9136C140.516 17.4053 132 14.4828 132 14.4828C132 14.4828 140.516 11.5602 142.056 10.0519C143.489 8.64731 146 0 146 0C146 0 148.511 8.64731 149.944 10.0519C151.484 11.5602 160 14.4828 160 14.4828Z" fill="white"/>
</svg>
