<svg width="325" height="316" viewBox="0 0 325 316" fill="none" xmlns="http://www.w3.org/2000/svg">
<path d="M168.878 202.331C224.843 202.331 270.211 157.038 270.211 101.166C270.211 45.2934 224.843 0 168.878 0C112.913 0 67.5449 45.2934 67.5449 101.166C67.5449 157.038 112.913 202.331 168.878 202.331Z" fill="#F6EEED"/>
<path d="M110.882 31.5464H23.1148C21.833 31.5464 20.7939 32.5838 20.7939 33.8634V86.8884C20.7939 88.168 21.833 89.2054 23.1148 89.2054H110.882C112.164 89.2054 113.203 88.168 113.203 86.8884V33.8634C113.203 32.5838 112.164 31.5464 110.882 31.5464Z" fill="#818181"/>
<path d="M111.498 89.2053H23.1753C22.9857 89.2053 22.832 89.3587 22.832 89.548V91.5767C22.832 91.766 22.9857 91.9194 23.1753 91.9194H111.498C111.688 91.9194 111.842 91.766 111.842 91.5767V89.548C111.842 89.3587 111.688 89.2053 111.498 89.2053Z" fill="#2D2D2D"/>
<path d="M110.882 31.5464H23.1148C21.833 31.5464 20.7939 32.5838 20.7939 33.8634V84.8542C20.7939 86.1338 21.833 87.1712 23.1148 87.1712H110.882C112.164 87.1712 113.203 86.1338 113.203 84.8542V33.8634C113.203 32.5838 112.164 31.5464 110.882 31.5464Z" fill="#DAD8D9"/>
<path d="M276.201 22.3872L292.828 46.5527L293.755 88.6562H297.448L296.528 44.9972L279.497 20.6685L276.201 22.3872Z" fill="#171717"/>
<path d="M281.144 17.1401L271.157 26.3858C269.833 27.6113 269.755 29.6761 270.982 30.9976C272.21 32.3192 274.278 32.3971 275.602 31.1716L285.589 21.9259C286.913 20.7004 286.991 18.6356 285.763 17.314C284.536 15.9925 282.467 15.9146 281.144 17.1401Z" fill="#575757"/>
<path d="M264.005 37.562L251.219 25.5635L251.377 25.4004C254.61 22.0559 259.041 20.1306 263.696 20.0479C268.351 19.9653 272.848 21.7322 276.198 24.9598C279.548 28.1874 281.476 32.6115 281.559 37.2586C281.642 41.9058 279.872 46.3955 276.639 49.74L264.005 37.562Z" fill="#8F8B8B"/>
<path d="M307.931 88.656H284.788C284.258 88.656 283.829 89.0846 283.829 89.6133V92.05C283.829 92.5786 284.258 93.0072 284.788 93.0072H307.931C308.461 93.0072 308.89 92.5786 308.89 92.05V89.6133C308.89 89.0846 308.461 88.656 307.931 88.656Z" fill="#575757"/>
<path d="M18.2449 315.735H25.3273L32.8347 109.052H16.1855L18.2449 315.735Z" fill="#0B0B0B"/>
<path d="M18.4583 315.517C20.7628 315.474 23.0292 315.447 25.3228 315.463L25.0559 315.724C24.9932 314.648 24.9932 313.569 25.0559 312.493L25.1648 309.262L25.3882 302.801L25.8295 289.883L26.7066 264.048L28.4718 212.377L32.0021 109.036L32.8193 109.879H16.1811L16.9983 109.058L17.494 160.576L17.8808 212.122L18.2567 263.711L18.442 289.53L18.5128 302.409L18.5618 308.871L18.5891 312.096C18.6559 313.238 18.6121 314.384 18.4583 315.517ZM18.0279 315.952C17.7555 315.137 17.8536 313.951 17.8155 312.896L17.7719 309.665L17.6901 303.209L17.5267 290.28L17.1998 264.429L16.5461 212.665L15.9032 160.87L15.3584 109.052V108.236H33.6801V109.079L29.6976 212.421L27.7091 264.091L26.6848 289.899L26.1891 302.817L25.9385 309.273L25.8131 312.504C25.8031 313.582 25.7304 314.659 25.5952 315.729L25.5571 315.99H25.3228C22.9039 316.007 20.4468 316.007 18.0279 315.952Z" fill="black"/>
<path d="M299.907 315.191H306.989L309.043 109.052H292.399L299.907 315.191Z" fill="#0B0B0B"/>
<path d="M300.131 314.957C302.425 314.919 304.686 314.908 306.985 314.957L306.729 315.213L308.227 109.074L309.044 109.895H292.401L293.218 109.052L300.131 314.957ZM299.679 315.425L291.583 109.079L291.551 108.236H309.872V109.063L307.257 315.202V315.463H307.001C304.566 315.463 302.109 315.463 299.679 315.425Z" fill="black"/>
<path d="M324.419 93.2791H0.806641V109.052H324.419V93.2791Z" fill="#222222"/>
<path d="M324.996 109.629C216.886 109.672 108.822 109.609 0.806312 109.438H0.430398V109.052L0 93.279V92.4631H0.838999L324.451 92.9581H324.762V93.279C324.909 98.6038 325.023 104.114 324.996 109.629ZM323.841 108.476C323.814 103.472 323.928 98.4678 324.097 93.279L324.418 93.5999L0.806312 94.0948L1.62351 93.279L1.19312 109.052L0.806312 108.666C108.597 108.521 216.275 108.457 323.841 108.476Z" fill="black"/>
<path d="M62.9555 51.0605H58.6484V69.6909H62.9555V51.0605Z" fill="#2D2D2D"/>
<path d="M69.1498 53.9219H64.8428V69.683H69.1498V53.9219Z" fill="#2D2D2D"/>
<path d="M75.3481 61.0911H71.041V69.6909H75.3481V61.0911Z" fill="#2D2D2D"/>
</svg>
