<svg width="184" height="161" viewBox="0 0 184 161" fill="none" xmlns="http://www.w3.org/2000/svg">
<g opacity="0.4">
<circle cx="88" cy="56.5" r="56.5" fill="url(#paint0_radial)"/>
<path d="M5.93626 144.636V157H8.08541V148.488H8.20011L11.617 156.964H13.2228L16.6397 148.506H16.7544V157H18.9036V144.636H16.1628L12.4924 153.595H12.3475L8.67702 144.636H5.93626ZM23.9142 157.187C25.3691 157.187 26.2385 156.505 26.6369 155.726H26.7093V157H28.8102V150.794C28.8102 148.343 26.812 147.607 25.0431 147.607C23.0932 147.607 21.5961 148.476 21.1131 150.166L23.1536 150.456C23.3709 149.822 23.9867 149.279 25.0552 149.279C26.0694 149.279 26.6248 149.798 26.6248 150.71V150.746C26.6248 151.374 25.9668 151.404 24.3308 151.579C22.5318 151.772 20.8113 152.309 20.8113 154.398C20.8113 156.221 22.1454 157.187 23.9142 157.187ZM24.4817 155.581C23.5701 155.581 22.9181 155.165 22.9181 154.362C22.9181 153.523 23.6486 153.173 24.6266 153.034C25.2001 152.955 26.3471 152.81 26.6309 152.581V153.674C26.6309 154.706 25.7978 155.581 24.4817 155.581ZM31.0076 157H33.193V153.885L33.9899 153.034L36.8272 157H39.4412L35.638 151.73L39.2299 147.727H36.6763L33.3439 151.452H33.193V144.636H31.0076V157ZM44.4096 157.181C46.5708 157.181 48.0559 156.125 48.4423 154.513L46.4018 154.283C46.106 155.068 45.3816 155.479 44.4398 155.479C43.0272 155.479 42.0914 154.549 42.0733 152.961H48.5328V152.291C48.5328 149.037 46.5769 147.607 44.2949 147.607C41.6387 147.607 39.9061 149.556 39.9061 152.418C39.9061 155.328 41.6145 157.181 44.4096 157.181ZM42.0794 151.488C42.1458 150.305 43.0211 149.309 44.3251 149.309C45.5808 149.309 46.426 150.227 46.438 151.488H42.0794ZM57.2668 157.187C58.7217 157.187 59.591 156.505 59.9894 155.726H60.0619V157H62.1627V150.794C62.1627 148.343 60.1645 147.607 58.3957 147.607C56.4458 147.607 54.9486 148.476 54.4656 150.166L56.5061 150.456C56.7235 149.822 57.3392 149.279 58.4078 149.279C59.422 149.279 59.9774 149.798 59.9774 150.71V150.746C59.9774 151.374 59.3193 151.404 57.6833 151.579C55.8843 151.772 54.1638 152.309 54.1638 154.398C54.1638 156.221 55.498 157.187 57.2668 157.187ZM57.8343 155.581C56.9227 155.581 56.2707 155.165 56.2707 154.362C56.2707 153.523 57.0012 153.173 57.9791 153.034C58.5526 152.955 59.6997 152.81 59.9834 152.581V153.674C59.9834 154.706 59.1503 155.581 57.8343 155.581ZM68.577 160.477H70.7623V155.539H70.8529C71.197 156.215 71.9154 157.163 73.5091 157.163C75.6945 157.163 77.3305 155.43 77.3305 152.376C77.3305 149.285 75.6462 147.607 73.5031 147.607C71.8671 147.607 71.1849 148.591 70.8529 149.261H70.7261V147.727H68.577V160.477ZM70.7201 152.364C70.7201 150.565 71.4928 149.4 72.8994 149.4C74.3543 149.4 75.1029 150.637 75.1029 152.364C75.1029 154.102 74.3422 155.37 72.8994 155.37C71.5049 155.37 70.7201 154.163 70.7201 152.364ZM81.8703 157.187C83.3252 157.187 84.1945 156.505 84.593 155.726H84.6654V157H86.7662V150.794C86.7662 148.343 84.768 147.607 82.9992 147.607C81.0493 147.607 79.5521 148.476 79.0692 150.166L81.1096 150.456C81.327 149.822 81.9427 149.279 83.0113 149.279C84.0255 149.279 84.5809 149.798 84.5809 150.71V150.746C84.5809 151.374 83.9229 151.404 82.2868 151.579C80.4878 151.772 78.7673 152.309 78.7673 154.398C78.7673 156.221 80.1015 157.187 81.8703 157.187ZM82.4378 155.581C81.5262 155.581 80.8742 155.165 80.8742 154.362C80.8742 153.523 81.6047 153.173 82.5827 153.034C83.1562 152.955 84.3032 152.81 84.5869 152.581V153.674C84.5869 154.706 83.7538 155.581 82.4378 155.581ZM89.99 160.477C91.6924 160.477 92.6764 159.602 93.2016 158.123L96.9264 147.739L94.5901 147.727L92.447 154.73H92.3504L90.2133 147.727H87.8952L91.2577 157.193L91.0706 157.694C90.6661 158.751 90.0262 158.823 89.0724 158.545L88.5653 160.248C88.8611 160.369 89.3923 160.477 89.99 160.477ZM98.4432 157H100.629V151.362C100.629 150.221 101.389 149.448 102.331 149.448C103.255 149.448 103.888 150.07 103.888 151.023V157H106.032V151.217C106.032 150.172 106.653 149.448 107.71 149.448C108.591 149.448 109.292 149.967 109.292 151.114V157H111.483V150.776C111.483 148.705 110.288 147.607 108.585 147.607C107.239 147.607 106.213 148.271 105.802 149.303H105.706C105.349 148.252 104.45 147.607 103.2 147.607C101.957 147.607 101.027 148.246 100.641 149.303H100.532V147.727H98.4432V157ZM117.805 157.181C119.966 157.181 121.451 156.125 121.838 154.513L119.797 154.283C119.502 155.068 118.777 155.479 117.835 155.479C116.423 155.479 115.487 154.549 115.469 152.961H121.928V152.291C121.928 149.037 119.972 147.607 117.69 147.607C115.034 147.607 113.302 149.556 113.302 152.418C113.302 155.328 115.01 157.181 117.805 157.181ZM115.475 151.488C115.541 150.305 116.417 149.309 117.721 149.309C118.976 149.309 119.821 150.227 119.834 151.488H115.475ZM125.963 151.567C125.963 150.227 126.771 149.454 127.925 149.454C129.053 149.454 129.73 150.196 129.73 151.434V157H131.915V151.096C131.921 148.874 130.653 147.607 128.74 147.607C127.351 147.607 126.397 148.271 125.975 149.303H125.866V147.727H123.777V157H125.963V151.567ZM138.767 147.727H136.938V145.506H134.752V147.727H133.436V149.418H134.752V154.573C134.74 156.318 136.008 157.175 137.65 157.127C138.272 157.109 138.7 156.988 138.936 156.909L138.568 155.201C138.447 155.231 138.199 155.286 137.928 155.286C137.378 155.286 136.938 155.092 136.938 154.211V149.418H138.767V147.727ZM149.858 144.057H147.945L143.96 158.859H145.874L149.858 144.057ZM159.514 157.181C161.845 157.181 163.33 155.799 163.487 153.831H161.398C161.211 154.827 160.492 155.4 159.532 155.4C158.168 155.4 157.287 154.259 157.287 152.364C157.287 150.492 158.186 149.369 159.532 149.369C160.583 149.369 161.229 150.045 161.398 150.939H163.487C163.336 148.929 161.766 147.607 159.502 147.607C156.786 147.607 155.071 149.569 155.071 152.4C155.071 155.207 156.743 157.181 159.514 157.181ZM167.949 157.187C169.404 157.187 170.274 156.505 170.672 155.726H170.744V157H172.845V150.794C172.845 148.343 170.847 147.607 169.078 147.607C167.128 147.607 165.631 148.476 165.148 150.166L167.189 150.456C167.406 149.822 168.022 149.279 169.09 149.279C170.105 149.279 170.66 149.798 170.66 150.71V150.746C170.66 151.374 170.002 151.404 168.366 151.579C166.567 151.772 164.846 152.309 164.846 154.398C164.846 156.221 166.181 157.187 167.949 157.187ZM168.517 155.581C167.605 155.581 166.953 155.165 166.953 154.362C166.953 153.523 167.684 153.173 168.662 153.034C169.235 152.955 170.382 152.81 170.666 152.581V153.674C170.666 154.706 169.833 155.581 168.517 155.581ZM177.228 144.636H175.043V157H177.228V144.636ZM181.661 144.636H179.475V157H181.661V144.636Z" fill="black"/>
<g opacity="0.3" clip-path="url(#clip0)">
<path d="M62.5 51.9687V64.9087C62.5 68.635 65.5207 71.6557 69.2471 71.6557H105.753C109.479 71.6557 112.5 68.635 112.5 64.9087V51.9687C112.5 51.3207 111.975 50.7953 111.327 50.7953H63.6734C63.0254 50.7953 62.5 51.3207 62.5 51.9687ZM74.9837 60.1825H71.8546C70.7206 60.1825 69.8012 59.2631 69.8012 58.129C69.8012 56.9949 70.7206 56.0756 71.8546 56.0756H74.9837C76.1178 56.0756 77.0372 56.9949 77.0372 58.129C77.0372 59.2631 76.1178 60.1825 74.9837 60.1825Z" fill="black"/>
<path d="M112.5 45.515V45.0913C112.5 41.365 109.479 38.3442 105.753 38.3442H69.2471C65.5207 38.3442 62.5 41.365 62.5 45.0913V45.515C62.5 46.163 63.0254 46.6884 63.6734 46.6884H111.327C111.975 46.6884 112.5 46.163 112.5 45.515Z" fill="black"/>
</g>
</g>
<defs>
<radialGradient id="paint0_radial" cx="0" cy="0" r="1" gradientUnits="userSpaceOnUse" gradientTransform="translate(88 56.5) rotate(90) scale(56.5)">
<stop stop-color="#D9D9D9"/>
<stop offset="1" stop-color="#D7D7D7"/>
</radialGradient>
<clipPath id="clip0">
<rect width="50" height="50" fill="white" transform="translate(62.5 30)"/>
</clipPath>
</defs>
</svg>
