<svg width="109" height="109" viewBox="0 0 109 109" fill="none" xmlns="http://www.w3.org/2000/svg">
<path d="M52.4187 1.75943C53.5538 0.754909 55.2599 0.754907 56.395 1.75943L60.533 5.42142C61.4063 6.19427 62.6484 6.39099 63.7178 5.92584L68.7849 3.7218C70.1749 3.11722 71.7975 3.64443 72.5666 4.95055L75.3705 9.71204C75.9623 10.7169 77.0827 11.2878 78.2435 11.1759L83.7438 10.6456C85.2525 10.5001 86.6328 11.5029 86.9606 12.9828L88.1559 18.3777C88.4082 19.5163 89.2974 20.4055 90.436 20.6577L95.8309 21.853C97.3107 22.1809 98.3136 23.5611 98.1681 25.0699L97.6377 30.5701C97.5258 31.7309 98.0967 32.8514 99.1016 33.4431L103.863 36.247C105.169 37.0162 105.696 38.6388 105.092 40.0287L102.888 45.0959C102.423 46.1653 102.619 47.4073 103.392 48.2806L107.054 52.4187C108.059 53.5538 108.059 55.2599 107.054 56.395L103.392 60.533C102.619 61.4063 102.423 62.6484 102.888 63.7178L105.092 68.7849C105.696 70.1749 105.169 71.7975 103.863 72.5666L99.1016 75.3705C98.0967 75.9623 97.5258 77.0827 97.6377 78.2435L98.1681 83.7438C98.3136 85.2525 97.3107 86.6328 95.8309 86.9606L90.436 88.1559C89.2974 88.4082 88.4082 89.2974 88.1559 90.436L86.9606 95.8309C86.6328 97.3107 85.2525 98.3136 83.7438 98.1681L78.2435 97.6377C77.0827 97.5258 75.9623 98.0967 75.3705 99.1016L72.5666 103.863C71.7975 105.169 70.1749 105.696 68.7849 105.092L63.7178 102.888C62.6484 102.423 61.4063 102.619 60.533 103.392L56.395 107.054C55.2599 108.059 53.5538 108.059 52.4187 107.054L48.2806 103.392C47.4073 102.619 46.1653 102.423 45.0959 102.888L40.0287 105.092C38.6388 105.696 37.0162 105.169 36.247 103.863L33.4431 99.1016C32.8514 98.0967 31.7309 97.5258 30.5701 97.6377L25.0699 98.1681C23.5612 98.3136 22.1809 97.3107 21.853 95.8309L20.6577 90.436C20.4055 89.2974 19.5163 88.4082 18.3777 88.1559L12.9828 86.9606C11.5029 86.6328 10.5001 85.2525 10.6456 83.7438L11.1759 78.2435C11.2878 77.0827 10.7169 75.9623 9.71204 75.3705L4.95055 72.5666C3.64443 71.7975 3.11722 70.1749 3.7218 68.7849L5.92584 63.7178C6.39099 62.6484 6.19427 61.4063 5.42143 60.533L1.75943 56.395C0.754909 55.2599 0.754907 53.5538 1.75943 52.4187L5.42142 48.2806C6.19427 47.4073 6.39099 46.1653 5.92584 45.0959L3.7218 40.0287C3.11722 38.6388 3.64443 37.0162 4.95055 36.247L9.71204 33.4431C10.7169 32.8514 11.2878 31.7309 11.1759 30.5701L10.6456 25.0699C10.5001 23.5612 11.5029 22.1809 12.9828 21.853L18.3777 20.6577C19.5163 20.4055 20.4055 19.5163 20.6577 18.3777L21.853 12.9828C22.1809 11.5029 23.5611 10.5001 25.0699 10.6456L30.5701 11.1759C31.7309 11.2878 32.8514 10.7169 33.4431 9.71204L36.247 4.95055C37.0162 3.64443 38.6388 3.11722 40.0287 3.7218L45.0959 5.92584C46.1653 6.39099 47.4073 6.19427 48.2806 5.42143L52.4187 1.75943Z" fill="#239C9C"/>
<circle cx="54.4057" cy="54.4071" r="38.2548" fill="white"/>
<path d="M64.9767 45.3894C64.8231 45.2445 64.6264 45.1721 64.3874 45.1721H60.0033C59.7125 43.8362 59.1656 42.6766 58.3623 41.6945H64.3358C64.5755 41.6945 64.7716 41.6221 64.9258 41.4775C65.0788 41.3327 65.1557 41.1474 65.1557 40.922V38.4581C65.1557 38.2326 65.0789 38.0476 64.9258 37.9026C64.7715 37.758 64.5753 37.6853 64.3356 37.6853H43.0044C42.765 37.6853 42.5686 37.758 42.4147 37.9025C42.2612 38.0475 42.1841 38.2325 42.1841 38.458V41.6701C42.1841 41.8793 42.2653 42.0604 42.4276 42.2134C42.59 42.3663 42.7822 42.4428 43.0044 42.4428H46.7221C50.3284 42.4428 52.6188 43.3522 53.593 45.1717H43.0044C42.765 45.1717 42.5683 45.244 42.4147 45.3889C42.2612 45.534 42.1841 45.7189 42.1841 45.9444V48.408C42.1841 48.6334 42.2609 48.8186 42.4147 48.9632C42.5686 49.1082 42.7654 49.1804 43.0044 49.1804H53.9525C53.5764 50.501 52.7003 51.5071 51.3242 52.1995C49.948 52.8919 48.1323 53.2381 45.876 53.2381H43.0044C42.7822 53.2381 42.59 53.3147 42.4276 53.4676C42.2652 53.6206 42.1841 53.8018 42.1841 54.0109V57.0783C42.1841 57.2879 42.2609 57.465 42.4147 57.6097C45.6963 60.8942 49.9525 65.4905 55.1827 71.3999C55.3367 71.5933 55.5503 71.6897 55.8238 71.6897H60.8232C61.1825 71.6897 61.4305 71.5452 61.5668 71.2548C61.7377 70.965 61.7042 70.6913 61.4642 70.4336C56.4738 64.6695 52.5508 60.3546 49.6963 57.4888C52.602 57.1668 54.9608 56.2811 56.7727 54.8323C58.5844 53.3834 59.6867 51.4992 60.0801 49.1808H64.3874C64.6264 49.1808 64.8232 49.1086 64.9767 48.9636C65.1307 48.819 65.2078 48.6338 65.2078 48.4084V45.9451C65.2078 45.7193 65.1307 45.5343 64.9767 45.3894Z" fill="#239C9C"/>
</svg>
